<svg id="blk1" xmlns="http://www.w3.org/2000/svg" width="57" height="57" viewBox="0 0 57 57">
  <metadata><?xpacket begin="﻿" id="W5M0MpCehiHzreSzNTczkc9d"?>
<x:xmpmeta xmlns:x="adobe:ns:meta/" x:xmptk="Adobe XMP Core 5.6-c138 79.159824, 2016/09/14-01:09:01        ">
   <rdf:RDF xmlns:rdf="http://www.w3.org/1999/02/22-rdf-syntax-ns#">
      <rdf:Description rdf:about=""/>
   </rdf:RDF>
</x:xmpmeta>
                                                                                                    
                                                                                                    
                                                                                                    
                                                                                                    
                                                                                                    
                                                                                                    
                                                                                                    
                                                                                                    
                                                                                                    
                                                                                                    
                                                                                                    
                                                                                                    
                                                                                                    
                                                                                                    
                                                                                                    
                                                                                                    
                                                                                                    
                                                                                                    
                                                                                                    
                                                                                                    
                           
<?xpacket end="w"?></metadata>
<defs>
    <style>
        @import url('https://fonts.googleapis.com/css?family=Quicksand:700');
      .cls-1, .cls-2 {
        fill: #aa5fb9;
      }

      .cls-1 {
        fill-rule: evenodd;
      }

      .cls-2 {
        font-size:21px;
        font-family: 'Quicksand', sans-serif;
        font-weight: 700;
      }
    </style>
  </defs>
  <path id="Shape_1_copy_11" data-name="Shape 1 copy 11" class="cls-1" d="M945.985,486.051a1.234,1.234,0,0,0-.063-0.313,1.15,1.15,0,0,0-.04-0.112,1.129,1.129,0,0,0-.229-0.338h0l-6.777-6.779v-6.633c0-.026-0.013-0.049-0.015-0.075a1.279,1.279,0,0,0-.061-0.305,1.15,1.15,0,0,0-.04-0.112,1.228,1.228,0,0,0-.233-0.348l-10.688-10.687a1.154,1.154,0,0,0-.349-0.233,0.986,0.986,0,0,0-.108-0.038,1.137,1.137,0,0,0-.312-0.062A0.5,0.5,0,0,0,927,460H897.313a1.188,1.188,0,0,0-1.188,1.188v17.32l-6.777,6.777,0,0a1.164,1.164,0,0,0-.228.338,1.519,1.519,0,0,0-.1.425c0,0.026-.015.048-0.015,0.074v22.562a1.188,1.188,0,0,0,1.188,1.188h5.937v5.937A1.188,1.188,0,0,0,897.313,517h40.374a1.188,1.188,0,0,0,1.188-1.188v-5.937h5.937A1.188,1.188,0,0,0,946,508.687V486.125C946,486.1,945.987,486.077,945.985,486.051Zm-4.039-1.114h-3.071v-3.07Zm-7.125-14.249h-6.633v-6.634ZM898.5,462.375h27.312v9.5A1.189,1.189,0,0,0,927,473.063h9.5v11.874h-38V462.375Zm-2.375,19.492v3.07h-3.071ZM936.5,514.625h-38v-4.75h38v4.75Zm7.125-7.125h-52.25V487.312h52.25V507.5Z" transform="translate(-889 -460)"/>
  <text id="BLK_1_" data-name="BLK 1 " class="cls-2" transform="translate(7.665 42.754) scale(0.766)">BLK 1 </text>
</svg>
