<?xml version="1.0" encoding="UTF-8"?>
<svg xmlns="http://www.w3.org/2000/svg" xmlns:xlink="http://www.w3.org/1999/xlink" version="1.2" >
<font id="TeeFranklin-UltraLightOblique">
<font-face  font-family="TeeFranklin" units-per-em="1000" ascent="679" descent="-176" font-style="italic" font-weight="200" font-stretch="normal" slope="-12" cap-height="679" x-height="503" underline-position="-90" underline-thickness="20" />
<missing-glyph  horiz-adv-x="500" d="" />
<glyph glyph-name="NULL" d="" />
<glyph glyph-name="CR" unicode="&#xd;" horiz-adv-x="250" d="" />
<glyph glyph-name="space" unicode="&#x20;" horiz-adv-x="290" d="" />
<glyph glyph-name="exclam" unicode="&#x21;" horiz-adv-x="186" d="M63 135 L71 135 L175 679 L151 679 L63 135 Z M32 0 L54 0 L58 22 L36 22 L32 0 Z " />
<glyph glyph-name="quotedbl" unicode="&#x22;" horiz-adv-x="292" d="M235 450 L243 450 L266 552 L289 679 L271 679 L248 552 L235 450 Z M115 450 L123 450 L146 552 L169 679 L151 679 L128 552 L115 450 Z " />
<glyph glyph-name="numbersign" unicode="&#x23;" horiz-adv-x="580" d="M88 0 L104 0 L195 254 L339 254 L249 0 L265 0 L355 254 L514 254 L517 270 L360 270 L411 414 L573 414 L576 430 L417 430 L505 679 L489 679 L401 430 L257 430 L345 679 L329 679 L241 430 L81 430 L78 414 L235 414 L184 270 L23 270 L20 254 L179 254 L88 0 Z M200 270 L251 414 L395 414 L344 270 L200 270 Z " />
<glyph glyph-name="dollar" unicode="&#x24;" horiz-adv-x="580" d="M209 -74 L227 -74 L238 -9 C401 -8 499 82 499 209 C499 290 435 337 304 361 L359 673 C468 670 520 606 517 506 L536 508 C540 614 482 686 361 689 L372 750 L354 750 L343 689 C199 684 119 587 119 488 C119 417 161 370 283 347 L223 7 C73 15 45 131 50 188 L29 184 C27 122 56 -1 220 -9 L209 -74 Z M286 364 C173 386 137 429 137 489 C137 577 207 670 341 673 L286 364 Z M241 7 L301 344 C420 321 481 281 481 209 C481 94 395 8 241 7 L241 7 Z " />
<glyph glyph-name="percent" unicode="&#x25;" horiz-adv-x="580" d="M167 355 C282 355 341 467 341 567 C341 635 305 689 223 689 C112 689 51 585 51 485 C51 414 84 355 167 355 L167 355 Z M-9 0 L14 0 L604 679 L582 679 L-9 0 Z M373 -9 C488 -9 547 103 547 203 C547 271 511 325 429 325 C318 325 257 221 257 121 C257 50 290 -9 373 -9 L373 -9 Z M169 371 C97 371 68 422 68 483 C68 568 119 673 221 673 C294 673 323 625 323 565 C323 479 273 371 169 371 L169 371 Z M375 7 C303 7 274 58 274 119 C274 204 325 309 427 309 C500 309 529 261 529 201 C529 115 479 7 375 7 L375 7 Z " />
<glyph glyph-name="ampersand" unicode="&#x26;" horiz-adv-x="618" d="M167 -9 C241 -9 312 19 374 63 C393 24 421 -3 470 -3 C500 -3 539 8 539 8 L542 22 C542 22 504 13 473 13 C438 13 412 33 390 76 C483 149 555 258 589 359 L574 361 C541 259 472 157 384 89 L254 381 C365 424 472 480 472 581 C472 646 420 689 353 689 C265 689 189 617 189 531 C189 481 208 438 231 387 C125 344 8 275 8 142 C8 58 69 -9 167 -9 L167 -9 Z M249 393 L242 409 C224 450 207 487 207 531 C207 607 273 673 351 673 C409 673 454 635 454 580 C454 488 358 436 249 393 L249 393 Z M170 7 C79 7 26 67 26 142 C26 266 132 333 237 374 L368 77 C308 34 240 7 170 7 L170 7 Z " />
<glyph glyph-name="quotesingle" unicode="&#x27;" horiz-adv-x="182" d="M115 450 L123 450 L146 552 L169 679 L151 679 L128 552 L115 450 Z " />
<glyph glyph-name="parenleft" unicode="&#x28;" horiz-adv-x="248" d="M127 -169 L139 -169 C93 -81 63 22 63 135 C63 335 161 528 288 680 L276 680 C142 531 44 344 44 133 C44 19 74 -86 127 -169 L127 -169 Z " />
<glyph glyph-name="parenright" unicode="&#x29;" horiz-adv-x="248" d="M-41 -169 L-29 -169 C110 -30 203 180 203 368 C203 484 171 590 122 680 L110 680 C154 589 184 484 184 370 C184 171 88 -22 -41 -169 L-41 -169 Z " />
<glyph glyph-name="asterisk" unicode="&#x2a;" horiz-adv-x="305" d="M197 431 L226 439 L199 553 L319 541 L325 570 L201 559 L267 671 L243 679 L195 561 L117 641 L97 618 L190 556 L75 492 L89 468 L193 551 L197 431 Z " />
<glyph glyph-name="plus" unicode="&#x2b;" horiz-adv-x="580" d="M236 46 L252 46 L294 284 L532 284 L535 300 L297 300 L339 538 L323 538 L281 300 L43 300 L40 284 L278 284 L236 46 Z " />
<glyph glyph-name="comma" unicode="&#x2c;" horiz-adv-x="186" d="M-14 -97 L-7 -97 L57 2 L61 25 L36 25 L32 0 L42 0 L-14 -97 Z " />
<glyph glyph-name="hyphen" unicode="&#x2d;" horiz-adv-x="240" d="M5 249 L217 249 L220 265 L8 265 L5 249 Z " />
<glyph glyph-name="period" unicode="&#x2e;" horiz-adv-x="186" d="M32 0 L54 0 L58 22 L36 22 L32 0 Z " />
<glyph glyph-name="slash" unicode="&#x2f;" horiz-adv-x="464" d="M-64 -169 L-46 -169 L520 680 L501 680 L-64 -169 Z " />
<glyph glyph-name="zero" unicode="0" horiz-adv-x="580" d="M240 -9 C436 -9 558 217 558 445 C558 581 498 689 362 689 C166 689 40 456 40 240 C40 97 102 -9 240 -9 L240 -9 Z M243 7 C114 7 58 107 58 240 C58 444 172 673 360 673 C488 673 540 571 540 443 C540 232 429 7 243 7 L243 7 Z " />
<glyph glyph-name="one" unicode="1" horiz-adv-x="580" d="M50 0 L486 0 L489 16 L292 16 L409 679 L391 679 C336 612 243 539 155 515 L151 494 C242 522 343 603 384 652 L386 652 L274 16 L53 16 L50 0 Z " />
<glyph glyph-name="two" unicode="2" horiz-adv-x="580" d="M4 0 L467 0 L470 16 L48 16 L48 18 L337 215 C448 291 553 386 553 510 C553 617 472 689 367 689 C244 689 136 613 95 494 L114 491 C153 604 246 673 365 673 C464 673 536 605 536 509 C536 404 444 309 326 228 L5 8 L4 0 Z " />
<glyph glyph-name="three" unicode="3" horiz-adv-x="580" d="M228 -9 C373 -9 513 75 513 210 C513 290 451 345 373 357 L373 359 C457 373 545 452 545 548 C545 647 461 689 359 689 C250 689 152 632 104 535 L120 531 C164 616 250 673 357 673 C454 673 527 634 527 547 C527 455 439 366 312 366 L214 366 L211 350 L305 350 C434 350 495 286 495 208 C495 81 364 7 231 7 C122 7 37 57 28 158 L11 154 C23 44 111 -9 228 -9 L228 -9 Z " />
<glyph glyph-name="four" unicode="4" horiz-adv-x="580" d="M344 0 L362 0 L394 183 L526 183 L529 199 L397 199 L482 679 L464 679 L21 199 L18 183 L376 183 L344 0 Z M39 199 L39 201 L457 652 L459 652 L379 199 L39 199 Z " />
<glyph glyph-name="five" unicode="5" horiz-adv-x="580" d="M220 -9 C383 -9 518 109 518 274 C518 382 438 451 327 451 C224 451 157 398 133 367 L131 367 L205 663 L555 663 L561 679 L189 679 L106 338 L124 333 C159 387 229 435 324 435 C425 435 500 373 500 272 C500 117 372 7 223 7 C120 7 51 68 43 154 L23 150 C33 51 113 -9 220 -9 L220 -9 Z " />
<glyph glyph-name="six" unicode="6" horiz-adv-x="580" d="M239 -9 C379 -9 524 97 524 270 C524 375 453 444 323 444 C193 444 91 358 63 296 L61 296 C88 513 225 673 368 673 C499 673 528 607 535 551 L554 555 C547 613 513 689 370 689 C168 689 42 435 42 224 C42 75 113 -9 239 -9 L239 -9 Z M242 7 C124 7 57 83 57 237 C57 304 165 428 320 428 C434 428 506 371 506 268 C506 106 373 7 242 7 L242 7 Z " />
<glyph glyph-name="seven" unicode="7" horiz-adv-x="580" d="M166 0 L184 0 L188 22 C227 236 386 491 581 663 L584 679 L156 679 L148 663 L558 663 L558 661 C380 498 208 240 166 0 L166 0 Z " />
<glyph glyph-name="eight" unicode="8" horiz-adv-x="580" d="M241 -9 C372 -9 524 59 524 192 C524 286 402 349 334 363 L334 365 C424 384 558 459 558 560 C558 646 467 689 366 689 C244 689 113 633 113 518 C113 436 218 373 276 363 L276 361 C187 342 13 252 13 141 C13 39 124 -9 241 -9 L241 -9 Z M307 370 C227 384 131 443 131 519 C131 629 254 673 364 673 C464 673 540 636 540 559 C540 465 420 396 307 370 L307 370 Z M242 7 C135 7 31 50 31 142 C31 248 192 333 306 357 C394 337 506 276 506 190 C506 68 360 7 242 7 L242 7 Z " />
<glyph glyph-name="nine" unicode="9" horiz-adv-x="580" d="M211 -9 C385 -9 545 203 545 450 C545 600 472 689 338 689 C208 689 63 582 63 416 C63 307 133 236 268 236 C392 236 493 309 521 371 L523 371 C507 198 371 7 214 7 C83 7 56 73 49 129 L30 125 C37 67 68 -9 211 -9 L211 -9 Z M270 252 C152 252 82 310 82 416 C82 577 215 673 336 673 C456 673 530 591 530 446 C530 366 431 252 270 252 L270 252 Z " />
<glyph glyph-name="colon" unicode="&#x3a;" horiz-adv-x="186" d="M117 481 L139 481 L143 503 L121 503 L117 481 Z M32 0 L54 0 L58 22 L36 22 L32 0 Z " />
<glyph glyph-name="semicolon" unicode="&#x3b;" horiz-adv-x="186" d="M117 481 L139 481 L143 503 L121 503 L117 481 Z M-14 -97 L-7 -97 L57 2 L61 25 L36 25 L32 0 L42 0 L-14 -97 Z " />
<glyph glyph-name="less" unicode="&#x3c;" horiz-adv-x="580" d="M487 70 L491 91 L56 285 L57 287 L560 483 L563 501 L43 297 L39 274 L487 70 Z " />
<glyph glyph-name="equal" unicode="&#x3d;" horiz-adv-x="580" d="M56 364 L548 364 L551 380 L59 380 L56 364 Z M26 204 L518 204 L521 220 L29 220 L26 204 Z " />
<glyph glyph-name="greater" unicode="&#x3e;" horiz-adv-x="580" d="M9 70 L529 274 L533 297 L85 501 L82 483 L517 287 L516 285 L13 91 L9 70 Z " />
<glyph glyph-name="question" unicode="&#x3f;" horiz-adv-x="450" d="M169 146 L187 146 L198 211 C210 279 244 310 294 333 C400 382 466 446 466 544 C466 635 389 689 292 689 C187 689 92 606 60 498 L76 496 C109 603 195 673 290 673 C379 673 448 625 448 541 C448 458 389 393 289 346 C232 319 192 284 180 211 L169 146 Z M141 0 L163 0 L167 22 L145 22 L141 0 Z " />
<glyph glyph-name="at" unicode="&#x40;" horiz-adv-x="739" d="M301 -109 C377 -109 419 -94 419 -94 L417 -80 C417 -80 381 -93 304 -93 C133 -93 45 24 45 180 C45 398 212 593 433 593 C594 593 677 498 677 340 C677 217 621 6 511 6 C489 6 472 24 472 75 C472 95 474 120 479 149 L510 325 C512 338 514 351 514 362 C514 431 471 449 415 449 C336 449 284 408 264 348 L283 345 C303 401 346 434 413 434 C459 434 496 421 496 358 C496 348 495 336 493 325 L487 287 L407 287 C284 287 221 243 221 161 C221 110 260 76 323 76 C404 76 449 122 459 149 L461 149 C457 123 453 94 453 74 C453 7 478 -10 508 -10 C635 -10 695 219 695 340 C695 505 603 609 435 609 C206 609 27 409 27 182 C27 18 122 -109 301 -109 L301 -109 Z M326 91 C276 91 240 122 240 165 C240 234 293 271 404 271 L484 271 L475 220 C459 132 399 91 326 91 L326 91 Z " />
<glyph glyph-name="A" unicode="A" horiz-adv-x="498" d="M-40 0 L-19 0 L94 222 L382 222 L417 0 L438 0 L329 679 L309 679 L-40 0 Z M102 238 L313 653 L315 653 L380 238 L102 238 Z " />
<glyph glyph-name="B" unicode="B" horiz-adv-x="546" d="M29 0 L229 0 C357 0 488 66 488 220 C488 312 413 350 328 354 L329 356 C409 366 504 432 504 554 C504 653 415 679 306 679 L149 679 L29 0 Z M110 359 L164 663 L303 663 C412 663 486 640 486 552 C486 429 391 359 247 359 L110 359 Z M50 16 L107 343 L285 343 C394 343 470 308 470 218 C470 81 359 16 229 16 L50 16 Z " />
<glyph glyph-name="C" unicode="C" horiz-adv-x="565" d="M237 -9 C374 -9 471 85 523 220 L505 223 C455 91 363 7 240 7 C125 7 59 103 59 242 C59 451 184 673 365 673 C482 673 538 583 543 461 L562 464 C556 590 496 689 367 689 C172 689 40 452 40 242 C40 98 105 -9 237 -9 L237 -9 Z " />
<glyph glyph-name="D" unicode="D" horiz-adv-x="568" d="M30 0 L216 0 C406 0 546 207 546 429 C546 570 476 679 335 679 L150 679 L30 0 Z M51 16 L165 663 L332 663 C459 663 528 565 528 429 C528 211 388 16 219 16 L51 16 Z " />
<glyph glyph-name="E" unicode="E" horiz-adv-x="538" d="M30 0 L443 0 L446 16 L51 16 L109 347 L421 347 L424 363 L112 363 L165 663 L547 663 L550 679 L150 679 L30 0 Z " />
<glyph glyph-name="F" unicode="F" horiz-adv-x="456" d="M30 0 L48 0 L109 347 L418 347 L421 363 L112 363 L165 663 L533 663 L536 679 L150 679 L30 0 Z " />
<glyph glyph-name="G" unicode="G" horiz-adv-x="607" d="M237 -9 C390 -9 475 102 497 160 L499 160 L478 0 L489 0 L544 312 L317 312 L314 296 L523 296 L512 233 C490 107 383 7 240 7 C125 7 58 98 58 240 C58 453 192 673 374 673 C486 673 544 597 550 481 L568 484 C562 602 499 689 376 689 C180 689 40 458 40 240 C40 94 105 -9 237 -9 L237 -9 Z " />
<glyph glyph-name="H" unicode="H" horiz-adv-x="575" d="M30 0 L48 0 L110 349 L491 349 L429 0 L447 0 L567 679 L549 679 L493 365 L112 365 L168 679 L150 679 L30 0 Z " />
<glyph glyph-name="I" unicode="I" horiz-adv-x="182" d="M34 0 L52 0 L172 679 L154 679 L34 0 Z " />
<glyph glyph-name="J" unicode="J" horiz-adv-x="310" d="M36 -9 C124 -9 188 45 213 188 L300 680 L282 680 L195 188 C173 61 120 7 39 7 C-18 7 -51 24 -51 24 L-54 7 C-54 7 -26 -9 36 -9 L36 -9 Z " />
<glyph glyph-name="K" unicode="K" horiz-adv-x="539" d="M30 0 L48 0 L81 188 L282 396 L463 0 L486 0 L296 411 L555 679 L531 679 L88 217 L86 217 L168 679 L150 679 L30 0 Z " />
<glyph glyph-name="L" unicode="L" horiz-adv-x="468" d="M30 0 L409 0 L412 16 L51 16 L168 679 L150 679 L30 0 Z " />
<glyph glyph-name="M" unicode="M" horiz-adv-x="756" d="M30 0 L47 0 L159 634 L163 634 L320 0 L343 0 L716 634 L720 634 L608 0 L626 0 L746 679 L724 679 L336 24 L334 24 L172 679 L150 679 L30 0 Z " />
<glyph glyph-name="N" unicode="N" horiz-adv-x="608" d="M30 0 L47 0 L161 647 L163 647 L461 0 L478 0 L598 679 L581 679 L468 37 L466 37 L170 679 L150 679 L30 0 Z " />
<glyph glyph-name="O" unicode="O" horiz-adv-x="598" d="M250 -9 C442 -9 577 211 577 435 C577 576 511 689 372 689 C178 689 41 459 41 245 C41 100 111 -9 250 -9 L250 -9 Z M253 7 C123 7 59 109 59 244 C59 449 184 673 370 673 C500 673 559 566 559 434 C559 219 436 7 253 7 L253 7 Z " />
<glyph glyph-name="P" unicode="P" horiz-adv-x="470" d="M30 0 L48 0 L102 305 L249 305 C377 305 503 389 503 537 C503 638 424 679 315 679 L150 679 L30 0 Z M105 321 L165 663 L312 663 C420 663 485 625 485 535 C485 403 380 321 249 321 L105 321 Z " />
<glyph glyph-name="Q" unicode="Q" horiz-adv-x="598" d="M348 -162 C388 -162 409 -149 409 -149 L412 -133 C412 -133 383 -141 346 -141 C297 -141 261 -118 261 -51 C261 -38 262 -24 265 -8 C448 1 577 216 577 436 C577 576 511 689 372 689 C180 689 41 468 41 250 C41 102 110 -8 249 -9 C246 -27 244 -43 244 -57 C244 -128 276 -162 348 -162 L348 -162 Z M267 7 C273 43 276 75 276 100 C276 185 242 220 194 220 C140 220 96 183 85 117 L83 117 C68 154 59 199 59 251 C59 463 192 673 370 673 C496 673 559 570 559 434 C559 212 431 17 267 7 L267 7 Z M252 7 C176 7 98 54 98 114 C98 165 138 206 191 206 C232 206 261 176 261 100 C261 74 258 44 252 7 L252 7 Z " />
<glyph glyph-name="R" unicode="R" horiz-adv-x="498" d="M30 0 L48 0 L105 325 L272 325 L408 0 L431 0 L291 327 C402 337 504 408 504 546 C504 646 424 679 315 679 L150 679 L30 0 Z M108 341 L165 663 L312 663 C420 663 486 631 486 544 C486 411 385 341 252 341 L108 341 Z " />
<glyph glyph-name="S" unicode="S" horiz-adv-x="531" d="M216 -9 C377 -9 479 80 479 205 C479 290 412 340 266 365 C152 385 118 428 118 490 C118 581 192 673 330 673 C446 673 500 609 497 506 L516 508 C521 617 459 689 332 689 C180 689 99 586 99 485 C99 415 143 368 259 347 C398 322 461 281 461 204 C461 94 373 7 219 7 C54 7 25 129 30 188 L9 184 C6 120 37 -9 216 -9 L216 -9 Z " />
<glyph glyph-name="T" unicode="T" horiz-adv-x="481" d="M183 0 L201 0 L318 663 L541 663 L544 679 L80 679 L77 663 L300 663 L183 0 Z " />
<glyph glyph-name="U" unicode="U" horiz-adv-x="600" d="M245 -9 C378 -9 482 72 509 223 L590 679 L572 679 L491 223 C464 72 359 7 248 7 C151 7 82 58 82 168 C82 183 84 202 87 219 L168 679 L150 679 L69 223 C66 203 63 183 63 165 C63 51 130 -9 245 -9 L245 -9 Z " />
<glyph glyph-name="V" unicode="V" horiz-adv-x="478" d="M179 0 L199 0 L548 679 L527 679 L195 26 L193 26 L91 679 L70 679 L179 0 Z " />
<glyph glyph-name="W" unicode="W" horiz-adv-x="744" d="M129 0 L149 0 L434 640 L436 640 L495 0 L515 0 L814 679 L793 679 L512 32 L510 32 L450 679 L434 679 L146 32 L144 32 L91 679 L70 679 L129 0 Z " />
<glyph glyph-name="X" unicode="X" horiz-adv-x="492" d="M-27 0 L-6 0 L255 340 L257 340 L398 0 L419 0 L268 357 L518 679 L497 679 L262 374 L260 374 L135 679 L114 679 L249 357 L-27 0 Z " />
<glyph glyph-name="Y" unicode="Y" horiz-adv-x="449" d="M165 0 L183 0 L240 323 L517 679 L496 679 L235 340 L233 340 L92 679 L71 679 L222 323 L165 0 Z " />
<glyph glyph-name="Z" unicode="Z" horiz-adv-x="529" d="M-12 0 L440 0 L443 16 L13 16 L13 18 L547 663 L550 679 L149 679 L146 663 L526 663 L526 661 L-9 16 L-12 0 Z " />
<glyph glyph-name="bracketleft" unicode="&#x5b;" horiz-adv-x="196" d="M-20 -169 L102 -169 L105 -153 L1 -153 L145 664 L249 664 L252 680 L130 680 L-20 -169 Z " />
<glyph glyph-name="backslash" unicode="&#x5c;" horiz-adv-x="464" d="M350 -169 L368 -169 L103 680 L84 680 L350 -169 Z " />
<glyph glyph-name="bracketright" unicode="&#x5d;" horiz-adv-x="196" d="M-62 -169 L60 -169 L210 680 L88 680 L85 664 L189 664 L45 -153 L-59 -153 L-62 -169 Z " />
<glyph glyph-name="asciicircum" unicode="&#x5e;" horiz-adv-x="580" d="M95 255 L116 255 L352 664 L354 664 L448 255 L466 255 L367 679 L344 679 L95 255 Z " />
<glyph glyph-name="underscore" unicode="&#x5f;" horiz-adv-x="420" d="M-69 -108 L351 -108 L353 -94 L-67 -94 L-69 -108 Z " />
<glyph glyph-name="grave" unicode="&#x60;" horiz-adv-x="491" d="M356 553 L362 559 L222 709 L203 698 L356 553 Z " />
<glyph glyph-name="a" unicode="a" horiz-adv-x="472" d="M159 -9 C272 -9 338 56 358 103 L360 103 L355 0 L373 0 L378 91 L422 343 C424 356 428 381 428 397 C428 490 367 516 289 516 C180 516 107 459 81 379 L98 376 C126 454 188 500 286 500 C354 500 410 482 410 393 C410 378 407 357 405 343 L395 284 L277 284 C103 284 17 224 17 112 C17 41 71 -9 159 -9 L159 -9 Z M162 7 C88 7 35 50 35 113 C35 211 111 268 274 268 L392 268 L379 193 C356 62 269 7 162 7 L162 7 Z " />
<glyph glyph-name="b" unicode="b" horiz-adv-x="486" d="M203 -9 C342 -9 450 147 450 341 C450 433 418 516 307 516 C209 516 136 433 104 365 L102 365 L158 679 L140 679 L20 0 L28 0 L62 135 L64 135 C68 79 97 -9 203 -9 L203 -9 Z M206 7 C99 7 61 119 79 230 L87 279 C106 398 204 500 303 500 C399 500 432 427 432 340 C432 148 325 7 206 7 L206 7 Z " />
<glyph glyph-name="c" unicode="c" horiz-adv-x="451" d="M179 -9 C280 -9 363 59 405 172 L387 174 C346 64 269 7 182 7 C83 7 45 80 45 178 C45 367 153 500 279 500 C377 500 411 423 411 335 L430 337 C429 430 392 516 282 516 C140 516 28 369 28 177 C28 76 67 -9 179 -9 L179 -9 Z " />
<glyph glyph-name="d" unicode="d" horiz-adv-x="486" d="M169 -9 C267 -9 339 74 371 142 L373 142 L348 0 L366 0 L486 679 L468 679 L414 374 L412 374 C411 428 381 516 275 516 C135 516 26 359 26 164 C26 72 59 -9 169 -9 L169 -9 Z M172 7 C76 7 44 78 44 166 C44 359 152 500 272 500 C377 500 418 394 397 277 L388 228 C366 109 271 7 172 7 L172 7 Z " />
<glyph glyph-name="e" unicode="e" horiz-adv-x="491" d="M189 -9 C290 -9 378 47 423 146 L405 149 C362 55 279 7 192 7 C85 7 45 80 45 177 C45 200 48 224 52 249 L445 249 L446 256 C449 280 452 305 452 329 C452 433 414 516 293 516 C143 516 27 373 27 172 C27 73 68 -9 189 -9 L189 -9 Z M55 265 C85 417 179 500 290 500 C397 500 436 422 436 327 C436 307 434 285 430 265 L55 265 Z " />
<glyph glyph-name="f" unicode="f" horiz-adv-x="243" d="M50 0 L68 0 L154 487 L270 487 L273 503 L157 503 L162 535 C174 609 205 666 269 666 C297 666 324 660 324 660 L327 675 C327 675 303 681 272 681 C204 681 158 626 144 535 L139 503 L52 503 L49 487 L136 487 L50 0 Z " />
<glyph glyph-name="g" unicode="g" horiz-adv-x="435" d="M127 -190 C289 -190 379 -111 379 -31 C379 25 325 53 258 58 L124 67 C69 71 46 86 46 116 C46 154 80 182 130 182 C143 182 165 173 192 173 C318 173 399 263 399 380 C399 422 382 457 362 476 C379 524 403 537 462 537 L476 537 L478 552 C478 552 469 556 461 556 C399 556 365 524 353 484 L351 484 C336 499 300 516 255 516 C160 516 48 447 48 307 C48 241 87 205 110 193 L110 191 C81 189 30 160 30 115 C30 79 57 59 82 55 L81 53 C15 35 -53 -7 -53 -84 C-53 -151 5 -190 127 -190 L127 -190 Z M194 189 C124 189 66 227 66 307 C66 433 159 500 252 500 C333 500 381 454 381 378 C381 270 314 189 194 189 L194 189 Z M130 -174 C11 -174 -35 -138 -35 -83 C-35 -16 15 24 97 51 L250 40 C317 35 359 8 359 -36 C359 -113 272 -174 130 -174 L130 -174 Z " />
<glyph glyph-name="h" unicode="h" horiz-adv-x="478" d="M20 0 L38 0 L99 346 C106 386 196 500 303 500 C358 500 407 478 407 399 C407 385 405 369 402 352 L340 0 L358 0 L420 352 C423 370 425 388 425 403 C425 492 364 516 306 516 C208 516 130 426 109 393 L107 393 L158 679 L140 679 L20 0 Z " />
<glyph glyph-name="i" unicode="i" horiz-adv-x="186" d="M136 591 L158 591 L162 612 L140 612 L136 591 Z M34 0 L52 0 L141 503 L123 503 L34 0 Z " />
<glyph glyph-name="j" unicode="j" horiz-adv-x="180" d="M136 591 L158 591 L162 612 L140 612 L136 591 Z M-82 -178 C-14 -178 25 -144 48 -16 L140 503 L122 503 L30 -16 C13 -113 -12 -163 -80 -163 C-108 -163 -134 -154 -134 -154 L-137 -169 C-137 -169 -113 -178 -82 -178 L-82 -178 Z " />
<glyph glyph-name="k" unicode="k" horiz-adv-x="423" d="M20 0 L38 0 L74 204 L195 311 L343 0 L367 0 L209 323 L415 503 L390 503 L80 227 L78 227 L158 679 L140 679 L20 0 Z " />
<glyph glyph-name="l" unicode="l" horiz-adv-x="182" d="M34 0 L52 0 L172 679 L154 679 L34 0 Z " />
<glyph glyph-name="m" unicode="m" horiz-adv-x="758" d="M20 0 L38 0 L99 346 C106 386 190 500 293 500 C345 500 388 478 388 402 C388 387 384 366 382 352 L320 0 L338 0 L400 352 C407 392 490 500 593 500 C644 500 687 479 687 403 C687 388 685 370 682 352 L620 0 L638 0 L700 352 C703 370 705 389 705 405 C705 493 651 516 596 516 C501 516 426 427 407 393 L405 393 C409 487 355 516 296 516 C202 516 130 426 109 393 L107 393 L127 503 L109 503 L20 0 Z " />
<glyph glyph-name="n" unicode="n" horiz-adv-x="478" d="M20 0 L38 0 L99 346 C106 386 196 500 303 500 C358 500 407 478 407 402 C407 387 405 368 402 352 L340 0 L358 0 L420 352 C423 368 425 388 425 403 C425 491 364 516 306 516 C208 516 130 426 109 393 L107 393 L127 503 L109 503 L20 0 Z " />
<glyph glyph-name="o" unicode="o" horiz-adv-x="491" d="M189 -9 C342 -9 453 139 453 329 C453 427 415 516 292 516 C136 516 27 372 27 173 C27 72 67 -9 189 -9 L189 -9 Z M192 7 C86 7 45 77 45 174 C45 367 153 500 289 500 C396 500 434 421 434 328 C434 138 324 7 192 7 L192 7 Z " />
<glyph glyph-name="p" unicode="p" horiz-adv-x="486" d="M-10 -172 L8 -172 L62 135 L64 135 C68 79 97 -9 203 -9 C343 -9 450 148 450 342 C450 434 417 516 307 516 C209 516 136 433 104 365 L102 365 L127 503 L109 503 L-10 -172 Z M206 7 C99 7 61 119 79 230 L87 279 C106 398 204 500 303 500 C399 500 432 427 432 339 C432 148 325 7 206 7 L206 7 Z " />
<glyph glyph-name="q" unicode="q" horiz-adv-x="486" d="M317 -176 L335 -176 L455 503 L443 503 L414 362 L412 362 C410 430 379 516 275 516 C135 516 26 357 26 161 C26 70 59 -9 168 -9 C270 -9 339 74 371 142 L373 142 L317 -176 Z M172 7 C77 7 44 77 44 163 C44 356 153 500 273 500 C376 500 418 390 397 277 L388 228 C366 109 271 7 172 7 L172 7 Z " />
<glyph glyph-name="r" unicode="r" horiz-adv-x="265" d="M20 0 L38 0 L90 296 C105 382 172 498 281 498 L302 498 L304 513 C304 513 295 516 284 516 C186 516 133 434 106 373 L104 373 L127 503 L109 503 L20 0 Z " />
<glyph glyph-name="s" unicode="s" horiz-adv-x="413" d="M161 -9 C308 -9 366 80 366 157 C366 220 313 255 209 272 C111 288 75 311 75 359 C75 436 131 500 241 500 C329 500 367 453 370 387 L388 390 C384 469 338 516 244 516 C132 516 58 451 58 358 C58 297 98 271 200 254 C304 236 348 206 348 155 C348 93 304 7 164 7 C39 7 16 81 15 137 L-5 133 C-2 72 22 -9 161 -9 L161 -9 Z " />
<glyph glyph-name="t" unicode="t" horiz-adv-x="286" d="M150 -9 C181 -9 207 -3 207 -3 L210 12 C210 12 181 6 153 6 C105 6 87 40 87 85 C87 101 89 122 92 137 L154 487 L280 487 L283 503 L157 503 L179 628 L160 622 L139 503 L56 503 L53 487 L136 487 L74 137 C71 122 69 100 69 84 C69 27 94 -9 150 -9 L150 -9 Z " />
<glyph glyph-name="u" unicode="u" horiz-adv-x="476" d="M161 -13 C259 -13 334 74 355 109 L357 109 L338 0 L356 0 L445 503 L427 503 L365 152 C358 112 271 3 164 3 C108 3 60 21 60 101 C60 114 62 133 64 146 L127 503 L109 503 L46 146 C44 132 41 111 41 96 C41 7 102 -13 161 -13 L161 -13 Z " />
<glyph glyph-name="v" unicode="v" horiz-adv-x="378" d="M129 0 L149 0 L417 503 L396 503 L145 27 L143 27 L60 503 L39 503 L129 0 Z " />
<glyph glyph-name="w" unicode="w" horiz-adv-x="594" d="M99 0 L117 0 L330 469 L332 469 L387 0 L405 0 L633 503 L614 503 L401 27 L399 27 L346 503 L326 503 L113 27 L111 27 L58 503 L39 503 L99 0 Z " />
<glyph glyph-name="x" unicode="x" horiz-adv-x="350" d="M-35 0 L-13 0 L169 244 L171 244 L269 0 L290 0 L184 263 L366 503 L345 503 L180 282 L178 282 L89 503 L67 503 L164 263 L-35 0 Z " />
<glyph glyph-name="y" unicode="y" horiz-adv-x="378" d="M-38 -178 C23 -178 69 -147 111 -68 L416 503 L396 503 L143 25 L141 25 L60 503 L39 503 L130 -2 L94 -68 C59 -132 24 -163 -36 -163 C-58 -163 -79 -154 -79 -154 L-82 -169 C-82 -169 -60 -178 -38 -178 L-38 -178 Z " />
<glyph glyph-name="z" unicode="z" horiz-adv-x="382" d="M-32 0 L312 0 L315 16 L-6 16 L-6 18 L398 487 L401 503 L82 503 L79 487 L376 487 L376 485 L-29 16 L-32 0 Z " />
<glyph glyph-name="braceleft" unicode="&#x7b;" horiz-adv-x="224" d="M74 -167 L117 -167 L119 -151 L76 -151 C51 -151 45 -128 52 -86 L88 119 C106 223 75 255 38 260 L38 262 C77 267 119 299 138 403 L174 605 C180 640 197 673 232 673 L265 673 L267 689 L234 689 C188 689 166 659 156 605 L120 403 C106 327 88 279 19 267 L17 255 C82 243 83 195 70 119 L34 -86 C24 -143 38 -167 74 -167 L74 -167 Z " />
<glyph glyph-name="bar" unicode="&#x7c;" horiz-adv-x="182" d="M-10 -247 L5 -247 L180 743 L165 743 L-10 -247 Z " />
<glyph glyph-name="braceright" unicode="&#x7d;" horiz-adv-x="224" d="M-55 -167 L-12 -167 C24 -167 46 -143 56 -86 L92 119 C105 195 124 243 193 255 L195 267 C130 279 128 327 142 403 L178 605 C188 659 174 689 128 689 L95 689 L93 673 L126 673 C161 673 166 640 160 605 L124 403 C105 299 137 267 174 262 L174 260 C135 255 92 223 74 119 L38 -86 C31 -128 15 -151 -10 -151 L-53 -151 L-55 -167 Z " />
<glyph glyph-name="asciitilde" unicode="&#x7e;" horiz-adv-x="580" d="M396 209 C451 209 508 241 525 338 L507 338 C494 261 454 227 402 227 C319 227 278 343 193 343 C138 343 81 309 64 214 L82 214 C95 291 135 325 187 325 C270 325 310 209 396 209 L396 209 Z " />
<glyph glyph-name="uni00A0" unicode="&#xa0;" horiz-adv-x="290" d="" />
<glyph glyph-name="exclamdown" unicode="&#xa1;" horiz-adv-x="186" d="M117 481 L139 481 L143 503 L121 503 L117 481 Z M0 -176 L24 -176 L112 368 L104 368 L0 -176 Z " />
<glyph glyph-name="cent" unicode="&#xa2;" horiz-adv-x="580" d="M234 -28 L252 -28 L276 110 C362 116 432 178 467 275 L450 277 C415 184 352 132 279 126 L357 569 C442 567 471 498 472 421 L491 423 C489 506 458 583 360 585 L382 708 L364 708 L342 584 C221 575 127 447 127 275 C127 187 163 113 258 110 L234 -28 Z M261 126 C178 129 145 192 145 276 C145 441 232 560 339 568 L261 126 Z " />
<glyph glyph-name="sterling" unicode="&#xa3;" horiz-adv-x="580" d="M-45 0 L313 0 C420 0 498 34 541 107 L523 114 C488 50 419 16 316 16 L60 16 L60 18 C138 37 249 135 249 275 C249 296 247 314 245 332 L463 332 L465 348 L240 348 C234 381 227 411 227 445 C227 551 306 673 431 673 C501 673 553 630 563 568 L580 574 C569 641 514 689 433 689 C295 689 209 560 209 445 C209 410 215 380 220 348 L91 348 L89 332 L224 332 C227 314 229 296 229 275 C229 151 132 16 3 16 L-42 16 L-45 0 Z " />
<glyph glyph-name="currency" unicode="&#xa4;" horiz-adv-x="580" d="M33 -29 L95 53 C127 14 176 -9 240 -9 C304 -9 359 14 406 54 L439 -29 L453 -21 L419 66 C504 149 558 307 558 446 C558 511 540 576 516 611 L581 699 L569 706 L507 623 C475 664 427 689 362 689 C297 689 241 665 195 624 L161 706 L147 699 L182 612 C93 526 40 377 40 238 C40 167 59 103 86 65 L21 -21 L33 -29 Z M243 7 C114 7 58 107 58 240 C58 444 172 673 360 673 C488 673 540 571 540 443 C540 232 429 7 243 7 L243 7 Z " />
<glyph glyph-name="yen" unicode="&#xa5;" horiz-adv-x="580" d="M237 0 L255 0 L297 240 L509 240 L512 256 L300 256 L312 323 L356 381 L536 381 L539 397 L369 397 L589 679 L568 679 L307 340 L305 340 L164 679 L143 679 L262 397 L91 397 L88 381 L269 381 L294 323 L282 256 L66 256 L63 240 L279 240 L237 0 Z " />
<glyph glyph-name="brokenbar" unicode="&#xa6;" horiz-adv-x="182" d="M94 341 L109 341 L180 743 L165 743 L94 341 Z M-10 -247 L5 -247 L76 155 L61 155 L-10 -247 Z " />
<glyph glyph-name="section" unicode="&#xa7;" horiz-adv-x="580" d="M188 -117 C333 -117 393 -30 393 48 C393 84 377 110 345 130 C411 158 445 221 445 267 C445 336 390 374 288 391 C188 407 154 431 154 481 C154 561 211 619 320 619 C408 619 446 572 449 506 L467 509 C463 588 417 635 323 635 C211 635 137 570 137 477 C137 437 154 413 193 395 C126 374 85 319 85 256 C85 191 133 162 227 146 C331 128 375 98 375 47 C375 -16 331 -101 191 -101 C66 -101 43 -27 42 29 L22 25 C25 -36 49 -117 188 -117 L188 -117 Z M327 138 C243 176 103 160 103 261 C103 321 144 372 216 387 C289 372 427 360 427 269 C427 219 397 162 327 138 L327 138 Z " />
<glyph glyph-name="dieresis" unicode="&#xa8;" horiz-adv-x="491" d="M386 623 C397 623 407 630 407 643 C407 650 399 654 392 654 C383 654 374 648 374 637 C374 629 378 623 386 623 L386 623 Z M233 623 C244 623 254 630 254 643 C254 650 246 654 239 654 C230 654 221 648 221 637 C221 629 225 623 233 623 L233 623 Z " />
<glyph glyph-name="copyright" unicode="&#xa9;" horiz-adv-x="791" d="M344 -9 C562 -9 770 178 770 396 C770 562 648 689 467 689 C244 689 41 500 41 283 C41 116 161 -9 344 -9 L344 -9 Z M347 7 C173 7 57 125 57 283 C57 492 251 673 465 673 C638 673 754 552 754 393 C754 186 555 7 347 7 L347 7 Z M373 167 C443 167 503 215 531 288 L516 290 C491 223 436 181 376 181 C316 181 273 233 273 306 C273 412 352 508 437 508 C495 508 531 464 534 402 L549 405 C546 472 505 522 439 522 C344 522 258 418 258 306 C258 227 302 167 373 167 L373 167 Z " />
<glyph glyph-name="ordfeminine" unicode="&#xaa;" horiz-adv-x="360" d="M170 316 C251 316 294 360 308 393 L310 393 L305 324 L320 324 L326 389 L357 565 C359 575 361 590 361 601 C361 668 317 689 261 689 C182 689 132 646 114 589 L128 587 C147 640 192 673 259 673 C305 673 344 658 344 600 C344 590 342 577 340 565 L333 527 L253 527 C128 527 67 481 67 402 C67 351 106 316 170 316 L170 316 Z M39 249 L292 249 L295 265 L42 265 L39 249 Z M173 333 C122 333 86 362 86 405 C86 474 139 511 250 511 L330 511 L321 460 C305 372 247 333 173 333 L173 333 Z " />
<glyph glyph-name="guillemotleft" unicode="&#xab;" horiz-adv-x="268" d="M196 106 L207 106 L161 256 L259 400 L247 400 L135 256 L196 106 Z M96 106 L107 106 L61 256 L159 400 L147 400 L35 256 L96 106 Z " />
<glyph glyph-name="logicalnot" unicode="&#xac;" horiz-adv-x="580" d="M388 46 L404 46 L449 300 L43 300 L40 284 L430 284 L388 46 Z " />
<glyph glyph-name="registered" unicode="&#xae;" horiz-adv-x="791" d="M344 -9 C562 -9 770 178 770 396 C770 562 648 689 467 689 C244 689 41 500 41 283 C41 116 161 -9 344 -9 L344 -9 Z M347 7 C173 7 57 125 57 283 C57 492 251 673 465 673 C638 673 754 552 754 393 C754 186 555 7 347 7 L347 7 Z M274 161 L289 161 L318 323 L426 323 L493 161 L514 161 L443 325 C500 332 548 368 548 438 C548 489 506 506 450 506 L335 506 L274 161 Z M320 337 L348 492 L448 492 C500 492 533 477 533 436 C533 368 483 337 419 337 L320 337 Z " />
<glyph glyph-name="macron" unicode="&#xaf;" horiz-adv-x="240" d="M76 653 L288 653 L291 669 L79 669 L76 653 Z " />
<glyph glyph-name="degree" unicode="&#xb0;" horiz-adv-x="377" d="M209 401 C298 401 382 480 382 570 C382 637 330 689 259 689 C171 689 87 610 87 521 C87 453 137 401 209 401 L209 401 Z M211 416 C147 416 102 461 102 522 C102 599 177 674 257 674 C321 674 367 628 367 568 C367 485 291 416 211 416 L211 416 Z " />
<glyph glyph-name="plusminus" unicode="&#xb1;" horiz-adv-x="580" d="M248 116 L264 116 L306 354 L544 354 L547 370 L309 370 L351 608 L335 608 L293 370 L55 370 L52 354 L290 354 L248 116 Z M-10 0 L482 0 L485 16 L-7 16 L-10 0 Z " />
<glyph glyph-name="twosuperior" unicode="&#xb2;" horiz-adv-x="319" d="M35 304 L295 304 L297 319 L70 319 L71 321 L223 423 C283 463 343 521 343 588 C343 650 298 689 238 689 C168 689 108 646 85 577 L100 574 C122 637 172 674 236 674 C288 674 327 637 327 587 C327 532 277 477 214 434 L36 312 L35 304 Z " />
<glyph glyph-name="threesuperior" unicode="&#xb3;" horiz-adv-x="319" d="M157 299 C237 299 317 347 317 423 C317 467 285 498 246 505 L246 507 C293 519 335 557 335 612 C335 666 286 689 229 689 C168 689 114 657 85 599 L100 596 C124 644 170 674 227 674 C278 674 318 654 318 608 C318 557 271 511 203 511 L146 511 L144 497 L199 497 C267 497 301 465 301 424 C301 352 231 314 159 314 C100 314 55 340 51 398 L36 395 C41 329 92 299 157 299 L157 299 Z " />
<glyph glyph-name="acute" unicode="&#xb4;" horiz-adv-x="491" d="M285 553 L488 698 L473 709 L281 559 L285 553 Z " />
<glyph glyph-name="mu" unicode="&#xb5;" horiz-adv-x="476" d="M-95 -178 C-27 -178 12 -144 35 -16 L48 57 C58 3 113 -13 161 -13 C259 -13 334 74 355 109 L357 109 L338 0 L356 0 L445 503 L427 503 L365 152 C358 112 271 3 164 3 C109 3 59 21 59 99 C59 114 62 132 64 146 L127 503 L109 503 L17 -16 C0 -113 -25 -163 -93 -163 C-121 -163 -147 -154 -147 -154 L-150 -169 C-150 -169 -126 -178 -95 -178 L-95 -178 Z " />
<glyph glyph-name="paragraph" unicode="&#xb6;" horiz-adv-x="491" d="M166 -164 L184 -164 L330 662 L455 662 L309 -164 L327 -164 L473 662 L524 662 L527 679 L315 679 C237 679 63 587 63 397 C63 290 131 213 233 213 L166 -164 Z " />
<glyph glyph-name="periodcentered" unicode="&#xb7;" horiz-adv-x="186" d="M81 276 L103 276 L107 298 L85 298 L81 276 Z " />
<glyph glyph-name="cedilla" unicode="&#xb8;" horiz-adv-x="451" d="M154 -172 C203 -172 261 -146 261 -96 C261 -62 218 -44 164 -44 L185 0 L175 0 L146 -56 C146 -56 155 -55 162 -55 C208 -55 243 -70 243 -101 C243 -132 206 -156 156 -156 C125 -156 98 -149 77 -137 L67 -148 C91 -163 121 -172 154 -172 L154 -172 Z " />
<glyph glyph-name="onesuperior" unicode="&#xb9;" horiz-adv-x="319" d="M55 303 L301 303 L304 318 L195 318 L259 682 L246 682 C216 646 164 604 115 591 L111 574 C166 590 218 634 239 661 L241 661 L180 318 L58 318 L55 303 Z " />
<glyph glyph-name="ordmasculine" unicode="&#xba;" horiz-adv-x="364" d="M185 316 C293 316 373 418 373 557 C373 625 344 689 257 689 C147 689 69 582 69 449 C69 376 97 316 185 316 L185 316 Z M30 249 L323 249 L326 265 L33 265 L30 249 Z M188 333 C115 333 88 383 88 450 C88 577 161 673 255 673 C327 673 355 618 355 554 C355 426 279 333 188 333 L188 333 Z " />
<glyph glyph-name="guillemotright" unicode="&#xbb;" horiz-adv-x="268" d="M101 106 L112 106 L225 256 L165 400 L153 400 L199 256 L101 106 Z M1 106 L12 106 L125 256 L65 400 L53 400 L99 256 L1 106 Z " />
<glyph glyph-name="onequarter" unicode="&#xbc;" horiz-adv-x="656" d="M55 303 L301 303 L304 318 L195 318 L259 682 L246 682 C216 646 164 604 115 591 L111 574 C166 590 218 634 239 661 L241 661 L180 318 L58 318 L55 303 Z M94 0 L112 0 L643 679 L624 679 L94 0 Z M477 0 L493 0 L511 101 L583 101 L585 115 L513 115 L560 379 L546 379 L300 113 L298 101 L495 101 L477 0 Z M320 115 L321 117 L537 354 L539 354 L497 115 L320 115 Z " />
<glyph glyph-name="onehalf" unicode="&#xbd;" horiz-adv-x="714" d="M55 303 L301 303 L304 318 L195 318 L259 682 L246 682 C216 646 164 604 115 591 L111 574 C166 590 218 634 239 661 L241 661 L180 318 L58 318 L55 303 Z M94 0 L112 0 L643 679 L624 679 L94 0 Z M357 0 L617 0 L619 15 L392 15 L393 17 L545 119 C605 159 665 217 665 284 C665 346 620 385 560 385 C490 385 430 342 407 273 L422 270 C444 333 494 370 558 370 C610 370 649 333 649 283 C649 228 599 173 536 130 L358 8 L357 0 Z " />
<glyph glyph-name="threequarters" unicode="&#xbe;" horiz-adv-x="656" d="M162 299 C242 299 322 347 322 423 C322 467 290 498 251 505 L251 507 C298 519 340 557 340 612 C340 666 291 689 234 689 C173 689 119 657 90 599 L105 596 C129 644 175 674 232 674 C283 674 323 654 323 608 C323 557 276 511 208 511 L151 511 L149 497 L204 497 C272 497 306 465 306 424 C306 352 236 314 164 314 C105 314 60 340 56 398 L41 395 C46 329 97 299 162 299 L162 299 Z M94 0 L112 0 L643 679 L624 679 L94 0 Z M477 0 L493 0 L511 101 L583 101 L585 115 L513 115 L560 379 L546 379 L300 113 L298 101 L495 101 L477 0 Z M320 115 L321 117 L537 354 L539 354 L497 115 L320 115 Z " />
<glyph glyph-name="questiondown" unicode="&#xbf;" horiz-adv-x="450" d="M264 481 L286 481 L290 503 L268 503 L264 481 Z M138 -186 C243 -186 339 -103 371 5 L354 7 C321 -100 236 -170 141 -170 C52 -170 -18 -122 -18 -39 C-18 46 41 110 142 157 C198 183 237 219 250 292 L262 357 L244 357 L232 292 C219 224 187 193 137 170 C30 121 -36 51 -36 -40 C-36 -131 41 -186 138 -186 L138 -186 Z " />
<glyph glyph-name="Agrave" unicode="&#xc0;" horiz-adv-x="498" d="M337 739 L343 745 L204 895 L185 884 L337 739 Z M-40 0 L-19 0 L94 222 L382 222 L417 0 L438 0 L329 679 L309 679 L-40 0 Z M102 238 L313 653 L315 653 L380 238 L102 238 Z " />
<glyph glyph-name="Aacute" unicode="&#xc1;" horiz-adv-x="498" d="M339 739 L543 884 L528 895 L335 745 L339 739 Z M-40 0 L-19 0 L94 222 L382 222 L417 0 L438 0 L329 679 L309 679 L-40 0 Z M102 238 L313 653 L315 653 L380 238 L102 238 Z " />
<glyph glyph-name="Acircumflex" unicode="&#xc2;" horiz-adv-x="498" d="M206 737 L350 834 L459 737 L468 739 L354 861 L197 739 L206 737 Z M-40 0 L-19 0 L94 222 L382 222 L417 0 L438 0 L329 679 L309 679 L-40 0 Z M102 238 L313 653 L315 653 L380 238 L102 238 Z " />
<glyph glyph-name="Atilde" unicode="&#xc3;" horiz-adv-x="498" d="M408 737 C438 737 470 757 489 793 L476 797 C462 771 438 754 413 754 C352 754 330 808 266 808 C237 808 207 792 188 758 L200 753 C214 778 234 791 261 791 C319 791 344 737 408 737 L408 737 Z M-40 0 L-19 0 L94 222 L382 222 L417 0 L438 0 L329 679 L309 679 L-40 0 Z M102 238 L313 653 L315 653 L380 238 L102 238 Z " />
<glyph glyph-name="Adieresis" unicode="&#xc4;" horiz-adv-x="498" d="M407 741 C418 741 428 747 428 760 C428 767 420 772 413 772 C404 772 395 766 395 755 C395 747 399 741 407 741 L407 741 Z M254 741 C265 741 275 747 275 760 C275 767 267 772 260 772 C251 772 242 766 242 755 C242 747 246 741 254 741 L254 741 Z M-40 0 L-19 0 L94 222 L382 222 L417 0 L438 0 L329 679 L309 679 L-40 0 Z M102 238 L313 653 L315 653 L380 238 L102 238 Z " />
<glyph glyph-name="Aring" unicode="&#xc5;" horiz-adv-x="498" d="M324 712 C380 712 433 758 433 816 C433 860 401 890 355 890 C299 890 245 843 245 787 C245 743 278 712 324 712 L324 712 Z M-40 0 L-19 0 L94 222 L382 222 L417 0 L438 0 L329 679 L309 679 L-40 0 Z M326 726 C287 726 259 753 259 790 C259 835 306 876 353 876 C392 876 419 849 419 813 C419 766 373 726 326 726 L326 726 Z M102 238 L313 653 L315 653 L380 238 L102 238 Z " />
<glyph glyph-name="AE" unicode="&#xc6;" horiz-adv-x="768" d="M-49 0 L-27 0 L212 347 L369 347 L308 0 L681 0 L684 16 L329 16 L387 347 L659 347 L662 363 L390 363 L443 663 L785 663 L788 679 L420 679 L-49 0 Z M221 363 L421 653 L423 653 L372 363 L221 363 Z " />
<glyph glyph-name="Ccedilla" unicode="&#xc7;" horiz-adv-x="565" d="M211 -172 C260 -172 318 -146 318 -96 C318 -59 275 -44 221 -44 L237 -9 C374 -9 471 85 523 220 L505 223 C455 91 363 7 240 7 C125 7 59 103 59 243 C59 452 185 673 365 673 C482 673 538 583 543 461 L562 464 C556 590 496 689 367 689 C172 689 40 459 40 243 C40 102 102 -3 227 -9 L203 -56 C203 -56 212 -55 219 -55 C265 -55 300 -70 300 -100 C300 -133 263 -156 213 -156 C182 -156 155 -149 134 -137 L124 -148 C148 -163 178 -172 211 -172 L211 -172 Z " />
<glyph glyph-name="Egrave" unicode="&#xc8;" horiz-adv-x="538" d="M407 739 L413 745 L274 895 L255 884 L407 739 Z M30 0 L443 0 L446 16 L51 16 L109 347 L421 347 L424 363 L112 363 L165 663 L547 663 L550 679 L150 679 L30 0 Z " />
<glyph glyph-name="Eacute" unicode="&#xc9;" horiz-adv-x="538" d="M361 739 L565 884 L550 895 L357 745 L361 739 Z M30 0 L443 0 L446 16 L51 16 L109 347 L421 347 L424 363 L112 363 L165 663 L547 663 L550 679 L150 679 L30 0 Z " />
<glyph glyph-name="Ecircumflex" unicode="&#xca;" horiz-adv-x="538" d="M235 737 L379 834 L488 737 L497 739 L383 861 L226 739 L235 737 Z M30 0 L443 0 L446 16 L51 16 L109 347 L421 347 L424 363 L112 363 L165 663 L547 663 L550 679 L150 679 L30 0 Z " />
<glyph glyph-name="Edieresis" unicode="&#xcb;" horiz-adv-x="538" d="M447 741 C458 741 468 747 468 760 C468 767 460 772 453 772 C444 772 435 766 435 755 C435 747 439 741 447 741 L447 741 Z M294 741 C305 741 315 747 315 760 C315 767 307 772 300 772 C291 772 282 766 282 755 C282 747 286 741 294 741 L294 741 Z M30 0 L443 0 L446 16 L51 16 L109 347 L421 347 L424 363 L112 363 L165 663 L547 663 L550 679 L150 679 L30 0 Z " />
<glyph glyph-name="Igrave" unicode="&#xcc;" horiz-adv-x="182" d="M209 739 L215 745 L76 895 L57 884 L209 739 Z M34 0 L52 0 L172 679 L154 679 L34 0 Z " />
<glyph glyph-name="Iacute" unicode="&#xcd;" horiz-adv-x="182" d="M171 739 L375 884 L360 895 L167 745 L171 739 Z M34 0 L52 0 L172 679 L154 679 L34 0 Z " />
<glyph glyph-name="Icircumflex" unicode="&#xce;" horiz-adv-x="182" d="M51 737 L195 834 L304 737 L313 739 L199 861 L42 739 L51 737 Z M34 0 L52 0 L172 679 L154 679 L34 0 Z " />
<glyph glyph-name="Idieresis" unicode="&#xcf;" horiz-adv-x="182" d="M247 741 C258 741 268 747 268 760 C268 767 260 772 253 772 C244 772 235 766 235 755 C235 747 239 741 247 741 L247 741 Z M94 741 C105 741 115 747 115 760 C115 767 107 772 100 772 C91 772 82 766 82 755 C82 747 86 741 94 741 L94 741 Z M34 0 L52 0 L172 679 L154 679 L34 0 Z " />
<glyph glyph-name="Eth" unicode="&#xd0;" horiz-adv-x="568" d="M30 0 L216 0 C406 0 546 207 546 429 C546 570 476 679 335 679 L150 679 L91 346 L2 346 L-1 330 L88 330 L30 0 Z M51 16 L106 330 L204 330 L207 346 L109 346 L165 663 L332 663 C459 663 528 565 528 429 C528 211 388 16 219 16 L51 16 Z " />
<glyph glyph-name="Ntilde" unicode="&#xd1;" horiz-adv-x="608" d="M464 737 C494 737 526 757 545 793 L532 797 C518 771 494 754 469 754 C408 754 386 808 322 808 C293 808 263 792 244 758 L256 753 C270 778 290 791 317 791 C375 791 400 737 464 737 L464 737 Z M30 0 L47 0 L161 647 L163 647 L461 0 L478 0 L598 679 L581 679 L468 37 L466 37 L170 679 L150 679 L30 0 Z " />
<glyph glyph-name="Ograve" unicode="&#xd2;" horiz-adv-x="598" d="M417 739 L423 745 L284 895 L265 884 L417 739 Z M250 -9 C442 -9 577 211 577 435 C577 576 511 689 372 689 C178 689 41 459 41 245 C41 100 111 -9 250 -9 L250 -9 Z M253 7 C123 7 59 109 59 244 C59 449 184 673 370 673 C500 673 559 566 559 434 C559 219 436 7 253 7 L253 7 Z " />
<glyph glyph-name="Oacute" unicode="&#xd3;" horiz-adv-x="598" d="M401 739 L605 884 L590 895 L397 745 L401 739 Z M250 -9 C442 -9 577 211 577 435 C577 576 511 689 372 689 C178 689 41 459 41 245 C41 100 111 -9 250 -9 L250 -9 Z M253 7 C123 7 59 109 59 244 C59 449 184 673 370 673 C500 673 559 566 559 434 C559 219 436 7 253 7 L253 7 Z " />
<glyph glyph-name="Ocircumflex" unicode="&#xd4;" horiz-adv-x="598" d="M255 737 L399 834 L508 737 L517 739 L403 861 L246 739 L255 737 Z M250 -9 C442 -9 577 211 577 435 C577 576 511 689 372 689 C178 689 41 459 41 245 C41 100 111 -9 250 -9 L250 -9 Z M253 7 C123 7 59 109 59 244 C59 449 184 673 370 673 C500 673 559 566 559 434 C559 219 436 7 253 7 L253 7 Z " />
<glyph glyph-name="Otilde" unicode="&#xd5;" horiz-adv-x="598" d="M474 737 C504 737 536 757 555 793 L542 797 C528 771 504 754 479 754 C418 754 396 808 332 808 C303 808 273 792 254 758 L266 753 C280 778 300 791 327 791 C385 791 410 737 474 737 L474 737 Z M250 -9 C442 -9 577 211 577 435 C577 576 511 689 372 689 C178 689 41 459 41 245 C41 100 111 -9 250 -9 L250 -9 Z M253 7 C123 7 59 109 59 244 C59 449 184 673 370 673 C500 673 559 566 559 434 C559 219 436 7 253 7 L253 7 Z " />
<glyph glyph-name="Odieresis" unicode="&#xd6;" horiz-adv-x="598" d="M457 741 C468 741 478 747 478 760 C478 767 470 772 463 772 C454 772 445 766 445 755 C445 747 449 741 457 741 L457 741 Z M304 741 C315 741 325 747 325 760 C325 767 317 772 310 772 C301 772 292 766 292 755 C292 747 296 741 304 741 L304 741 Z M250 -9 C442 -9 577 211 577 435 C577 576 511 689 372 689 C178 689 41 459 41 245 C41 100 111 -9 250 -9 L250 -9 Z M253 7 C123 7 59 109 59 244 C59 449 184 673 370 673 C500 673 559 566 559 434 C559 219 436 7 253 7 L253 7 Z " />
<glyph glyph-name="multiply" unicode="&#xd7;" horiz-adv-x="580" d="M88 112 L286 281 L424 112 L438 124 L298 292 L497 460 L487 472 L289 303 L151 472 L137 460 L276 292 L78 124 L88 112 Z " />
<glyph glyph-name="Oslash" unicode="&#xd8;" horiz-adv-x="598" d="M-37 -37 L-19 -37 L84 78 C118 24 173 -9 250 -9 C442 -9 577 214 577 436 C577 496 565 549 541 592 L655 720 L636 720 L534 605 C500 657 446 689 372 689 C178 689 41 462 41 244 C41 185 53 131 76 89 L-37 -37 Z M89 104 C69 143 59 191 59 244 C59 450 184 673 370 673 C441 673 491 641 521 591 L89 104 Z M253 7 C180 7 128 40 96 92 L529 578 C549 538 559 488 559 434 C559 224 436 7 253 7 L253 7 Z " />
<glyph glyph-name="Ugrave" unicode="&#xd9;" horiz-adv-x="600" d="M417 739 L423 745 L284 895 L265 884 L417 739 Z M245 -9 C378 -9 482 72 509 223 L590 679 L572 679 L491 223 C464 72 359 7 248 7 C151 7 82 58 82 168 C82 183 84 202 87 219 L168 679 L150 679 L69 223 C66 203 63 183 63 165 C63 51 130 -9 245 -9 L245 -9 Z " />
<glyph glyph-name="Uacute" unicode="&#xda;" horiz-adv-x="600" d="M361 739 L565 884 L550 895 L357 745 L361 739 Z M245 -9 C378 -9 482 72 509 223 L590 679 L572 679 L491 223 C464 72 359 7 248 7 C151 7 82 58 82 168 C82 183 84 202 87 219 L168 679 L150 679 L69 223 C66 203 63 183 63 165 C63 51 130 -9 245 -9 L245 -9 Z " />
<glyph glyph-name="Ucircumflex" unicode="&#xdb;" horiz-adv-x="600" d="M255 737 L399 834 L508 737 L517 739 L403 861 L246 739 L255 737 Z M245 -9 C378 -9 482 72 509 223 L590 679 L572 679 L491 223 C464 72 359 7 248 7 C151 7 82 58 82 168 C82 183 84 202 87 219 L168 679 L150 679 L69 223 C66 203 63 183 63 165 C63 51 130 -9 245 -9 L245 -9 Z " />
<glyph glyph-name="Udieresis" unicode="&#xdc;" horiz-adv-x="600" d="M462 741 C473 741 483 747 483 760 C483 767 475 772 468 772 C459 772 450 766 450 755 C450 747 454 741 462 741 L462 741 Z M309 741 C320 741 330 747 330 760 C330 767 322 772 315 772 C306 772 297 766 297 755 C297 747 301 741 309 741 L309 741 Z M245 -9 C378 -9 482 72 509 223 L590 679 L572 679 L491 223 C464 72 359 7 248 7 C151 7 82 58 82 168 C82 183 84 202 87 219 L168 679 L150 679 L69 223 C66 203 63 183 63 165 C63 51 130 -9 245 -9 L245 -9 Z " />
<glyph glyph-name="Yacute" unicode="&#xdd;" horiz-adv-x="449" d="M283 739 L487 884 L472 895 L279 745 L283 739 Z M165 0 L183 0 L240 323 L517 679 L496 679 L235 340 L233 340 L92 679 L71 679 L222 323 L165 0 Z " />
<glyph glyph-name="Thorn" unicode="&#xde;" horiz-adv-x="470" d="M30 0 L48 0 L82 191 L229 191 C360 191 483 270 483 423 C483 524 404 565 295 565 L148 565 L168 679 L150 679 L30 0 Z M85 207 L145 549 L292 549 C399 549 465 511 465 423 C465 289 367 207 229 207 L85 207 Z " />
<glyph glyph-name="germandbls" unicode="&#xdf;" horiz-adv-x="513" d="M10 -50 L28 -50 L124 491 C145 607 241 674 342 674 C372 674 463 655 463 577 C463 462 295 430 222 430 C191 430 158 407 158 358 C158 300 199 271 302 254 C408 236 450 205 450 153 C450 84 403 7 266 7 C141 7 118 81 117 137 L97 133 C100 72 124 -9 263 -9 C410 -9 468 79 468 157 C468 220 415 255 311 272 C212 288 176 316 176 361 C176 403 191 415 235 417 C344 422 481 473 481 579 C481 647 416 689 344 689 C232 689 128 607 106 491 L93 422 L43 422 L41 406 L91 406 L10 -50 Z " />
<glyph glyph-name="agrave" unicode="&#xe0;" horiz-adv-x="472" d="M356 553 L362 559 L222 709 L203 698 L356 553 Z M159 -9 C272 -9 338 56 358 103 L360 103 L355 0 L373 0 L378 91 L422 343 C424 356 428 381 428 397 C428 490 367 516 289 516 C180 516 107 459 81 379 L98 376 C126 454 188 500 286 500 C354 500 410 482 410 393 C410 378 407 357 405 343 L395 284 L277 284 C103 284 17 224 17 112 C17 41 71 -9 159 -9 L159 -9 Z M162 7 C88 7 35 50 35 113 C35 211 111 268 274 268 L392 268 L379 193 C356 62 269 7 162 7 L162 7 Z " />
<glyph glyph-name="aacute" unicode="&#xe1;" horiz-adv-x="472" d="M275 553 L478 698 L463 709 L271 559 L275 553 Z M159 -9 C272 -9 338 56 358 103 L360 103 L355 0 L373 0 L378 91 L422 343 C424 356 428 381 428 397 C428 490 367 516 289 516 C180 516 107 459 81 379 L98 376 C126 454 188 500 286 500 C354 500 410 482 410 393 C410 378 407 357 405 343 L395 284 L277 284 C103 284 17 224 17 112 C17 41 71 -9 159 -9 L159 -9 Z M162 7 C88 7 35 50 35 113 C35 211 111 268 274 268 L392 268 L379 193 C356 62 269 7 162 7 L162 7 Z " />
<glyph glyph-name="acircumflex" unicode="&#xe2;" horiz-adv-x="472" d="M176 577 L320 674 L429 577 L438 579 L324 701 L167 579 L176 577 Z M159 -9 C272 -9 338 56 358 103 L360 103 L355 0 L373 0 L378 91 L422 343 C424 356 428 381 428 397 C428 490 367 516 289 516 C180 516 107 459 81 379 L98 376 C126 454 188 500 286 500 C354 500 410 482 410 393 C410 378 407 357 405 343 L395 284 L277 284 C103 284 17 224 17 112 C17 41 71 -9 159 -9 L159 -9 Z M162 7 C88 7 35 50 35 113 C35 211 111 268 274 268 L392 268 L379 193 C356 62 269 7 162 7 L162 7 Z " />
<glyph glyph-name="atilde" unicode="&#xe3;" horiz-adv-x="472" d="M392 601 C422 601 455 621 473 657 L460 661 C446 635 422 618 397 618 C336 618 314 672 250 672 C221 672 191 656 172 622 L184 617 C198 642 218 655 245 655 C303 655 328 601 392 601 L392 601 Z M159 -9 C272 -9 338 56 358 103 L360 103 L355 0 L373 0 L378 91 L422 343 C424 356 428 381 428 397 C428 490 367 516 289 516 C180 516 107 459 81 379 L98 376 C126 454 188 500 286 500 C354 500 410 482 410 393 C410 378 407 357 405 343 L395 284 L277 284 C103 284 17 224 17 112 C17 41 71 -9 159 -9 L159 -9 Z M162 7 C88 7 35 50 35 113 C35 211 111 268 274 268 L392 268 L379 193 C356 62 269 7 162 7 L162 7 Z " />
<glyph glyph-name="adieresis" unicode="&#xe4;" horiz-adv-x="472" d="M386 623 C397 623 407 630 407 643 C407 650 399 654 392 654 C383 654 374 648 374 637 C374 629 378 623 386 623 L386 623 Z M233 623 C244 623 254 630 254 643 C254 650 246 654 239 654 C230 654 221 648 221 637 C221 629 225 623 233 623 L233 623 Z M159 -9 C272 -9 338 56 358 103 L360 103 L355 0 L373 0 L378 91 L422 343 C424 356 428 381 428 397 C428 490 367 516 289 516 C180 516 107 459 81 379 L98 376 C126 454 188 500 286 500 C354 500 410 482 410 393 C410 378 407 357 405 343 L395 284 L277 284 C103 284 17 224 17 112 C17 41 71 -9 159 -9 L159 -9 Z M162 7 C88 7 35 50 35 113 C35 211 111 268 274 268 L392 268 L379 193 C356 62 269 7 162 7 L162 7 Z " />
<glyph glyph-name="aring" unicode="&#xe5;" horiz-adv-x="472" d="M297 560 C353 560 406 606 406 664 C406 708 374 738 328 738 C272 738 218 691 218 635 C218 591 251 560 297 560 L297 560 Z M159 -9 C272 -9 338 56 358 103 L360 103 L355 0 L373 0 L378 91 L422 343 C424 356 428 381 428 397 C428 490 367 516 289 516 C180 516 107 459 81 379 L98 376 C126 454 188 500 286 500 C354 500 410 482 410 393 C410 378 407 357 405 343 L395 284 L277 284 C103 284 17 224 17 112 C17 41 71 -9 159 -9 L159 -9 Z M299 574 C260 574 232 601 232 638 C232 683 279 724 326 724 C365 724 392 697 392 661 C392 614 346 574 299 574 L299 574 Z M162 7 C88 7 35 50 35 113 C35 211 111 268 274 268 L392 268 L379 193 C356 62 269 7 162 7 L162 7 Z " />
<glyph glyph-name="ae" unicode="&#xe6;" horiz-adv-x="847" d="M159 -9 C258 -9 344 47 384 160 L386 160 C388 65 428 -9 544 -9 C645 -9 733 47 778 146 L760 149 C717 55 634 7 547 7 C439 7 400 80 400 179 C400 202 403 225 407 249 L800 249 L801 256 C805 281 807 306 807 330 C807 432 770 516 648 516 C551 516 472 458 426 360 L424 360 C441 487 376 516 289 516 C180 516 107 459 81 379 L98 376 C126 454 188 500 286 500 C355 500 410 483 410 391 C410 375 407 357 405 343 L392 265 L274 265 C100 265 16 219 16 105 C16 34 70 -9 159 -9 L159 -9 Z M410 265 C440 417 534 500 645 500 C752 500 791 421 791 327 C791 307 789 286 785 265 L410 265 Z M162 7 C87 7 34 45 34 107 C34 207 110 249 271 249 L389 249 L384 222 C356 70 269 7 162 7 L162 7 Z " />
<glyph glyph-name="ccedilla" unicode="&#xe7;" horiz-adv-x="451" d="M154 -172 C203 -172 261 -147 261 -96 C261 -59 218 -44 164 -44 L180 -9 C282 -8 363 59 405 172 L387 174 C346 64 269 7 182 7 C83 7 45 80 45 178 C45 368 153 500 279 500 C377 500 411 423 411 335 L430 337 C429 430 392 516 282 516 C140 516 28 370 28 177 C28 79 65 -4 170 -9 L146 -56 C146 -56 155 -55 162 -55 C208 -55 243 -70 243 -100 C243 -132 206 -156 156 -156 C125 -156 98 -149 77 -137 L67 -148 C91 -163 121 -172 154 -172 L154 -172 Z " />
<glyph glyph-name="egrave" unicode="&#xe8;" horiz-adv-x="491" d="M356 553 L362 559 L222 709 L203 698 L356 553 Z M189 -9 C290 -9 378 47 423 146 L405 149 C362 55 279 7 192 7 C85 7 45 80 45 177 C45 200 48 224 52 249 L445 249 L446 256 C449 280 452 305 452 329 C452 433 414 516 293 516 C143 516 27 373 27 172 C27 73 68 -9 189 -9 L189 -9 Z M55 265 C85 417 179 500 290 500 C397 500 436 422 436 327 C436 307 434 285 430 265 L55 265 Z " />
<glyph glyph-name="eacute" unicode="&#xe9;" horiz-adv-x="491" d="M285 553 L488 698 L473 709 L281 559 L285 553 Z M189 -9 C290 -9 378 47 423 146 L405 149 C362 55 279 7 192 7 C85 7 45 80 45 177 C45 200 48 224 52 249 L445 249 L446 256 C449 280 452 305 452 329 C452 433 414 516 293 516 C143 516 27 373 27 172 C27 73 68 -9 189 -9 L189 -9 Z M55 265 C85 417 179 500 290 500 C397 500 436 422 436 327 C436 307 434 285 430 265 L55 265 Z " />
<glyph glyph-name="ecircumflex" unicode="&#xea;" horiz-adv-x="491" d="M180 577 L324 674 L433 577 L442 579 L328 701 L171 579 L180 577 Z M189 -9 C290 -9 378 47 423 146 L405 149 C362 55 279 7 192 7 C85 7 45 80 45 177 C45 200 48 224 52 249 L445 249 L446 256 C449 280 452 305 452 329 C452 433 414 516 293 516 C143 516 27 373 27 172 C27 73 68 -9 189 -9 L189 -9 Z M55 265 C85 417 179 500 290 500 C397 500 436 422 436 327 C436 307 434 285 430 265 L55 265 Z " />
<glyph glyph-name="edieresis" unicode="&#xeb;" horiz-adv-x="491" d="M397 623 C406 623 415 630 417 640 C419 649 411 654 403 654 C394 654 386 649 384 640 C382 631 388 623 397 623 L397 623 Z M243 623 C253 623 262 630 264 640 C266 649 257 654 249 654 C241 654 233 649 231 640 C229 631 234 623 243 623 L243 623 Z M189 -9 C290 -9 378 47 423 146 L405 149 C362 55 279 7 192 7 C85 7 45 80 45 177 C45 200 48 224 52 249 L445 249 L446 256 C449 280 452 305 452 329 C452 433 414 516 293 516 C143 516 27 373 27 172 C27 73 68 -9 189 -9 L189 -9 Z M55 265 C85 417 179 500 290 500 C397 500 436 422 436 327 C436 307 434 285 430 265 L55 265 Z " />
<glyph glyph-name="igrave" unicode="&#xec;" horiz-adv-x="186" d="M170 553 L176 559 L36 709 L17 698 L170 553 Z M34 0 L52 0 L141 503 L123 503 L34 0 Z " />
<glyph glyph-name="iacute" unicode="&#xed;" horiz-adv-x="186" d="M150 553 L353 698 L338 709 L146 559 L150 553 Z M34 0 L52 0 L141 503 L123 503 L34 0 Z " />
<glyph glyph-name="icircumflex" unicode="&#xee;" horiz-adv-x="186" d="M26 577 L170 674 L279 577 L288 579 L174 701 L17 579 L26 577 Z M34 0 L52 0 L141 503 L123 503 L34 0 Z " />
<glyph glyph-name="idieresis" unicode="&#xef;" horiz-adv-x="186" d="M230 623 C241 623 251 630 251 643 C251 650 243 654 236 654 C227 654 218 648 218 637 C218 629 222 623 230 623 L230 623 Z M77 623 C88 623 98 630 98 643 C98 650 90 654 83 654 C74 654 65 648 65 637 C65 629 69 623 77 623 L77 623 Z M34 0 L52 0 L141 503 L123 503 L34 0 Z " />
<glyph glyph-name="eth" unicode="&#xf0;" horiz-adv-x="491" d="M189 -9 C342 -9 452 138 452 326 C452 444 408 543 351 611 L432 680 L423 691 L341 622 C304 662 263 690 224 702 L212 684 C254 673 293 646 327 610 L252 547 L262 535 L337 599 C376 554 407 498 422 449 L420 449 C402 486 353 516 292 516 C159 516 63 416 35 256 C11 121 35 -9 189 -9 L189 -9 Z M192 7 C58 7 29 120 53 256 C81 416 174 500 289 500 C397 500 434 419 434 325 C434 135 323 7 192 7 L192 7 Z " />
<glyph glyph-name="ntilde" unicode="&#xf1;" horiz-adv-x="478" d="M372 601 C402 601 435 621 453 657 L440 661 C426 635 402 618 377 618 C316 618 294 672 230 672 C201 672 171 656 152 622 L164 617 C178 642 198 655 225 655 C283 655 308 601 372 601 L372 601 Z M20 0 L38 0 L99 346 C106 386 196 500 303 500 C358 500 407 478 407 402 C407 387 405 368 402 352 L340 0 L358 0 L420 352 C423 368 425 388 425 403 C425 491 364 516 306 516 C208 516 130 426 109 393 L107 393 L127 503 L109 503 L20 0 Z " />
<glyph glyph-name="ograve" unicode="&#xf2;" horiz-adv-x="491" d="M356 553 L362 559 L222 709 L203 698 L356 553 Z M189 -9 C342 -9 453 139 453 329 C453 427 415 516 292 516 C136 516 27 372 27 173 C27 72 67 -9 189 -9 L189 -9 Z M192 7 C86 7 45 77 45 174 C45 367 153 500 289 500 C396 500 434 421 434 328 C434 138 324 7 192 7 L192 7 Z " />
<glyph glyph-name="oacute" unicode="&#xf3;" horiz-adv-x="491" d="M285 553 L488 698 L473 709 L281 559 L285 553 Z M189 -9 C342 -9 453 139 453 329 C453 427 415 516 292 516 C136 516 27 372 27 173 C27 72 67 -9 189 -9 L189 -9 Z M192 7 C86 7 45 77 45 174 C45 367 153 500 289 500 C396 500 434 421 434 328 C434 138 324 7 192 7 L192 7 Z " />
<glyph glyph-name="ocircumflex" unicode="&#xf4;" horiz-adv-x="491" d="M176 577 L320 674 L429 577 L438 579 L324 701 L167 579 L176 577 Z M189 -9 C342 -9 453 139 453 329 C453 427 415 516 292 516 C136 516 27 372 27 173 C27 72 67 -9 189 -9 L189 -9 Z M192 7 C86 7 45 77 45 174 C45 367 153 500 289 500 C396 500 434 421 434 328 C434 138 324 7 192 7 L192 7 Z " />
<glyph glyph-name="otilde" unicode="&#xf5;" horiz-adv-x="491" d="M392 601 C422 601 455 621 473 657 L460 661 C446 635 422 618 397 618 C336 618 314 672 250 672 C221 672 191 656 172 622 L184 617 C198 642 218 655 245 655 C303 655 328 601 392 601 L392 601 Z M189 -9 C342 -9 453 139 453 329 C453 427 415 516 292 516 C136 516 27 372 27 173 C27 72 67 -9 189 -9 L189 -9 Z M192 7 C86 7 45 77 45 174 C45 367 153 500 289 500 C396 500 434 421 434 328 C434 138 324 7 192 7 L192 7 Z " />
<glyph glyph-name="odieresis" unicode="&#xf6;" horiz-adv-x="491" d="M386 623 C397 623 407 630 407 643 C407 650 399 654 392 654 C383 654 374 648 374 637 C374 629 378 623 386 623 L386 623 Z M233 623 C244 623 254 630 254 643 C254 650 246 654 239 654 C230 654 221 648 221 637 C221 629 225 623 233 623 L233 623 Z M189 -9 C342 -9 453 139 453 329 C453 427 415 516 292 516 C136 516 27 372 27 173 C27 72 67 -9 189 -9 L189 -9 Z M192 7 C86 7 45 77 45 174 C45 367 153 500 289 500 C396 500 434 421 434 328 C434 138 324 7 192 7 L192 7 Z " />
<glyph glyph-name="divide" unicode="&#xf7;" horiz-adv-x="580" d="M306 432 L328 432 L332 454 L310 454 L306 432 Z M40 284 L532 284 L535 300 L43 300 L40 284 Z M251 121 L273 121 L277 143 L255 143 L251 121 Z " />
<glyph glyph-name="oslash" unicode="&#xf8;" horiz-adv-x="491" d="M-50 -55 L-32 -55 L60 47 C85 13 126 -9 189 -9 C342 -9 453 140 453 332 C453 375 445 417 425 450 L531 566 L512 566 L417 461 C392 494 352 516 292 516 C136 516 27 368 27 174 C27 130 35 90 53 58 L-50 -55 Z M67 74 C52 101 46 136 46 174 C46 372 153 500 289 500 C343 500 380 479 404 446 L67 74 Z M192 7 C135 7 97 28 74 62 L411 434 C427 405 434 370 434 332 C434 136 325 7 192 7 L192 7 Z " />
<glyph glyph-name="ugrave" unicode="&#xf9;" horiz-adv-x="476" d="M326 553 L332 559 L192 709 L173 698 L326 553 Z M161 -13 C259 -13 334 74 355 109 L357 109 L338 0 L356 0 L445 503 L427 503 L365 152 C358 112 271 3 164 3 C108 3 60 21 60 101 C60 114 62 133 64 146 L127 503 L109 503 L46 146 C44 132 41 111 41 96 C41 7 102 -13 161 -13 L161 -13 Z " />
<glyph glyph-name="uacute" unicode="&#xfa;" horiz-adv-x="476" d="M255 553 L458 698 L443 709 L251 559 L255 553 Z M161 -13 C259 -13 334 74 355 109 L357 109 L338 0 L356 0 L445 503 L427 503 L365 152 C358 112 271 3 164 3 C108 3 60 21 60 101 C60 114 62 133 64 146 L127 503 L109 503 L46 146 C44 132 41 111 41 96 C41 7 102 -13 161 -13 L161 -13 Z " />
<glyph glyph-name="ucircumflex" unicode="&#xfb;" horiz-adv-x="476" d="M176 577 L320 674 L429 577 L438 579 L324 701 L167 579 L176 577 Z M161 -13 C259 -13 334 74 355 109 L357 109 L338 0 L356 0 L445 503 L427 503 L365 152 C358 112 271 3 164 3 C108 3 60 21 60 101 C60 114 62 133 64 146 L127 503 L109 503 L46 146 C44 132 41 111 41 96 C41 7 102 -13 161 -13 L161 -13 Z " />
<glyph glyph-name="udieresis" unicode="&#xfc;" horiz-adv-x="476" d="M372 623 C383 623 393 630 393 643 C393 650 385 654 378 654 C369 654 360 648 360 637 C360 629 364 623 372 623 L372 623 Z M219 623 C230 623 240 630 240 643 C240 650 232 654 225 654 C216 654 207 648 207 637 C207 629 211 623 219 623 L219 623 Z M161 -13 C259 -13 334 74 355 109 L357 109 L338 0 L356 0 L445 503 L427 503 L365 152 C358 112 271 3 164 3 C108 3 60 21 60 101 C60 114 62 133 64 146 L127 503 L109 503 L46 146 C44 132 41 111 41 96 C41 7 102 -13 161 -13 L161 -13 Z " />
<glyph glyph-name="yacute" unicode="&#xfd;" horiz-adv-x="378" d="M225 553 L428 698 L413 709 L221 559 L225 553 Z M-38 -178 C23 -178 69 -147 111 -68 L416 503 L396 503 L143 25 L141 25 L60 503 L39 503 L130 -2 L94 -68 C59 -132 24 -163 -36 -163 C-58 -163 -79 -154 -79 -154 L-82 -169 C-82 -169 -60 -178 -38 -178 L-38 -178 Z " />
<glyph glyph-name="thorn" unicode="&#xfe;" horiz-adv-x="486" d="M-10 -172 L8 -172 L62 135 L64 135 C68 79 97 -9 203 -9 C346 -9 450 152 450 341 C450 433 418 516 307 516 C209 516 136 433 104 365 L102 365 L158 679 L140 679 L-10 -172 Z M206 7 C99 7 61 119 79 230 L87 279 C106 398 204 500 303 500 C399 500 431 427 432 340 C432 158 333 7 206 7 L206 7 Z " />
<glyph glyph-name="ydieresis" unicode="&#xff;" horiz-adv-x="378" d="M343 623 C354 623 364 630 364 643 C364 650 356 654 349 654 C340 654 331 648 331 637 C331 629 335 623 343 623 L343 623 Z M190 623 C201 623 211 630 211 643 C211 650 203 654 196 654 C187 654 178 648 178 637 C178 629 182 623 190 623 L190 623 Z M-38 -178 C23 -178 69 -147 111 -68 L416 503 L396 503 L143 25 L141 25 L60 503 L39 503 L130 -2 L94 -68 C59 -132 24 -163 -36 -163 C-58 -163 -79 -154 -79 -154 L-82 -169 C-82 -169 -60 -178 -38 -178 L-38 -178 Z " />
<glyph glyph-name="dotlessi" unicode="&#x131;" horiz-adv-x="186" d="M34 0 L52 0 L141 503 L123 503 L34 0 Z " />
<glyph glyph-name="Lslash" unicode="&#x141;" horiz-adv-x="468" d="M30 0 L409 0 L412 16 L51 16 L95 264 L181 338 L172 349 L99 287 L168 679 L150 679 L78 270 L1 205 L11 193 L73 246 L30 0 Z " />
<glyph glyph-name="lslash" unicode="&#x142;" horiz-adv-x="182" d="M34 0 L52 0 L102 281 L180 348 L171 359 L105 303 L172 679 L154 679 L84 285 L1 215 L11 203 L80 262 L34 0 Z " />
<glyph glyph-name="OE" unicode="&#x152;" horiz-adv-x="830" d="M253 0 L743 0 L746 16 L391 16 L449 347 L721 347 L724 363 L452 363 L505 663 L847 663 L850 679 L372 679 C183 679 40 481 40 254 C40 111 111 0 253 0 L253 0 Z M256 16 C128 16 58 117 58 255 C58 475 202 663 369 663 L487 663 L373 16 L256 16 Z " />
<glyph glyph-name="oe" unicode="&#x153;" horiz-adv-x="876" d="M189 -9 C308 -9 387 70 425 198 L427 198 C418 86 446 -9 582 -9 C683 -9 771 47 816 146 L798 149 C755 55 672 7 585 7 C477 7 438 79 438 178 C438 200 441 224 445 249 L838 249 L839 256 C843 282 845 308 845 332 C845 434 807 516 686 516 C570 516 487 437 448 309 L446 309 C454 413 423 516 292 516 C137 516 27 365 27 176 C27 74 66 -9 189 -9 L189 -9 Z M448 265 C478 417 572 500 683 500 C789 500 829 424 829 331 C829 310 827 287 823 265 L448 265 Z M192 7 C85 7 45 79 45 177 C45 362 154 500 289 500 C398 500 434 419 434 323 C434 139 327 7 192 7 L192 7 Z " />
<glyph glyph-name="Scaron" unicode="&#x160;" horiz-adv-x="531" d="M378 739 L535 861 L526 863 L382 766 L273 863 L264 861 L378 739 Z M216 -9 C377 -9 479 80 479 205 C479 290 413 340 266 365 C152 384 118 428 118 490 C118 581 192 673 330 673 C446 673 500 609 497 506 L516 508 C521 617 459 689 332 689 C180 689 99 586 99 485 C99 415 143 368 259 347 C398 322 461 281 461 204 C461 94 373 7 219 7 C54 7 25 129 30 188 L9 184 C6 120 37 -9 216 -9 L216 -9 Z " />
<glyph glyph-name="scaron" unicode="&#x161;" horiz-adv-x="413" d="M264 567 L420 689 L412 691 L268 594 L159 691 L149 689 L264 567 Z M161 -9 C308 -9 366 80 366 157 C366 220 313 255 209 272 C111 288 75 311 75 359 C75 436 131 500 241 500 C329 500 367 453 370 387 L388 390 C384 469 338 516 244 516 C132 516 58 451 58 358 C58 297 98 271 200 254 C304 236 348 206 348 155 C348 93 304 7 164 7 C39 7 16 81 15 137 L-5 133 C-2 72 22 -9 161 -9 L161 -9 Z " />
<glyph glyph-name="Ydieresis" unicode="&#x178;" horiz-adv-x="449" d="M387 741 C398 741 408 747 408 760 C408 767 400 772 393 772 C384 772 375 766 375 755 C375 747 379 741 387 741 L387 741 Z M234 741 C245 741 255 747 255 760 C255 767 247 772 240 772 C231 772 222 766 222 755 C222 747 226 741 234 741 L234 741 Z M165 0 L183 0 L240 323 L517 679 L496 679 L235 340 L233 340 L92 679 L71 679 L222 323 L165 0 Z " />
<glyph glyph-name="Zcaron" unicode="&#x17d;" horiz-adv-x="529" d="M368 739 L525 861 L516 863 L372 766 L263 863 L254 861 L368 739 Z M-12 0 L440 0 L443 16 L13 16 L13 18 L547 663 L550 679 L149 679 L146 663 L526 663 L526 661 L-9 16 L-12 0 Z " />
<glyph glyph-name="zcaron" unicode="&#x17e;" horiz-adv-x="382" d="M256 567 L412 689 L404 691 L260 594 L151 691 L141 689 L256 567 Z M-32 0 L312 0 L315 16 L-6 16 L-6 18 L398 487 L401 503 L82 503 L79 487 L376 487 L376 485 L-29 16 L-32 0 Z " />
<glyph glyph-name="florin" unicode="&#x192;" horiz-adv-x="580" d="M-37 -178 C31 -178 79 -143 136 -16 L287 323 L503 323 L506 339 L294 339 L381 535 C413 606 459 666 523 666 C551 666 576 660 576 660 L583 675 C583 675 561 681 530 681 C462 681 403 625 363 535 L276 339 L123 339 L120 323 L269 323 L118 -16 C74 -115 37 -163 -31 -163 C-59 -163 -83 -154 -83 -154 L-90 -169 C-90 -169 -68 -178 -37 -178 L-37 -178 Z " />
<glyph glyph-name="circumflex" unicode="&#x2c6;" horiz-adv-x="491" d="M176 577 L320 674 L429 577 L438 579 L324 701 L167 579 L176 577 Z " />
<glyph glyph-name="caron" unicode="&#x2c7;" horiz-adv-x="491" d="M300 567 L456 689 L448 691 L304 594 L195 691 L185 689 L300 567 Z " />
<glyph glyph-name="breve" unicode="&#x2d8;" horiz-adv-x="456" d="M295 615 C348 615 397 640 419 698 L407 698 C385 649 343 629 298 629 C251 629 211 647 206 698 L194 698 C199 640 237 615 295 615 L295 615 Z " />
<glyph glyph-name="dotaccent" unicode="&#x2d9;" horiz-adv-x="186" d="M136 591 L158 591 L162 612 L140 612 L136 591 Z " />
<glyph glyph-name="ring" unicode="&#x2da;" horiz-adv-x="472" d="M297 560 C353 560 406 606 406 664 C406 708 374 738 328 738 C272 738 218 691 218 635 C218 591 251 560 297 560 L297 560 Z M299 574 C260 574 232 601 232 638 C232 683 279 724 326 724 C365 724 392 697 392 661 C392 614 346 574 299 574 L299 574 Z " />
<glyph glyph-name="ogonek" unicode="&#x2db;" horiz-adv-x="451" d="M147 -135 C180 -135 220 -114 234 -104 L228 -93 C214 -102 181 -119 150 -119 C109 -119 81 -102 81 -76 C81 -29 144 -9 176 -3 L177 0 L137 -5 C113 -13 63 -39 63 -78 C63 -117 104 -135 147 -135 L147 -135 Z " />
<glyph glyph-name="tilde" unicode="&#x2dc;" horiz-adv-x="491" d="M392 601 C422 601 455 621 473 657 L460 661 C446 635 422 618 397 618 C336 618 314 672 250 672 C221 672 191 656 172 622 L184 617 C198 642 218 655 245 655 C303 655 328 601 392 601 L392 601 Z " />
<glyph glyph-name="hungarumlaut" unicode="&#x2dd;" horiz-adv-x="551" d="M204 571 L407 716 L392 727 L200 577 L204 571 Z M316 549 L519 694 L504 705 L312 555 L316 549 Z " />
<glyph glyph-name="endash" unicode="&#x2013;" horiz-adv-x="425" d="M-6 249 L419 249 L422 265 L-3 265 L-6 249 Z " />
<glyph glyph-name="emdash" unicode="&#x2014;" horiz-adv-x="900" d="M-6 249 L894 249 L897 265 L-3 265 L-6 249 Z " />
<glyph glyph-name="quoteleft" unicode="&#x2018;" horiz-adv-x="186" d="M116 552 L143 552 L149 582 L137 582 L193 679 L186 679 L121 580 L116 552 Z " />
<glyph glyph-name="quoteright" unicode="&#x2019;" horiz-adv-x="186" d="M106 552 L113 552 L178 651 L183 679 L156 679 L150 649 L162 649 L106 552 Z " />
<glyph glyph-name="quotesinglbase" unicode="&#x201a;" horiz-adv-x="186" d="M-8 -97 L-1 -97 L63 2 L68 30 L41 30 L36 0 L48 0 L-8 -97 Z " />
<glyph glyph-name="quotedblleft" unicode="&#x201c;" horiz-adv-x="269" d="M193 552 L220 552 L226 582 L214 582 L270 679 L263 679 L198 580 L193 552 Z M118 552 L145 552 L151 582 L139 582 L195 679 L188 679 L123 580 L118 552 Z " />
<glyph glyph-name="quotedblright" unicode="&#x201d;" horiz-adv-x="269" d="M181 552 L188 552 L253 651 L258 679 L231 679 L225 649 L237 649 L181 552 Z M106 552 L113 552 L178 651 L183 679 L156 679 L150 649 L162 649 L106 552 Z " />
<glyph glyph-name="quotedblbase" unicode="&#x201e;" horiz-adv-x="269" d="M67 -97 L74 -97 L138 2 L143 30 L116 30 L111 0 L123 0 L67 -97 Z M-8 -97 L-1 -97 L63 2 L68 30 L41 30 L36 0 L48 0 L-8 -97 Z " />
<glyph glyph-name="dagger" unicode="&#x2020;" horiz-adv-x="535" d="M181 -169 L196 -169 L251 139 C287 340 292 374 314 423 L303 457 L303 459 L498 451 L492 464 L502 478 L304 467 L357 680 L336 668 L319 680 L297 467 L102 478 L107 464 L98 451 L296 459 L296 457 L270 423 C277 375 270 340 235 138 L181 -169 Z " />
<glyph glyph-name="daggerdbl" unicode="&#x2021;" horiz-adv-x="535" d="M181 -169 L196 -169 L227 7 C262 208 269 242 290 291 L279 325 L280 327 L474 319 L469 332 L479 346 L281 335 L314 423 L303 457 L303 459 L498 451 L492 464 L502 478 L304 467 L357 680 L336 668 L319 680 L297 467 L102 478 L107 464 L98 451 L296 459 L296 457 L270 423 L274 335 L79 346 L84 332 L74 319 L273 327 L272 325 L246 291 C254 243 248 208 212 6 L181 -169 Z " />
<glyph glyph-name="bullet" unicode="&#x2022;" horiz-adv-x="287" d="M128 201 C191 201 248 254 248 316 C248 363 214 397 163 397 C100 397 44 339 44 281 C44 233 77 201 128 201 L128 201 Z " />
<glyph glyph-name="ellipsis" unicode="&#x2026;" horiz-adv-x="549" d="M408 0 L430 0 L434 22 L412 22 L408 0 Z M220 0 L242 0 L246 22 L224 22 L220 0 Z M32 0 L54 0 L58 22 L36 22 L32 0 Z " />
<glyph glyph-name="perthousand" unicode="&#x2030;" horiz-adv-x="918" d="M172 355 C287 355 346 467 346 567 C346 635 310 689 228 689 C117 689 56 585 56 485 C56 414 89 355 172 355 L172 355 Z M-4 0 L19 0 L609 679 L587 679 L-4 0 Z M705 -9 C820 -9 879 103 879 203 C879 271 843 325 761 325 C650 325 589 221 589 121 C589 50 622 -9 705 -9 L705 -9 Z M378 -9 C493 -9 552 103 552 203 C552 271 516 325 434 325 C323 325 262 221 262 121 C262 50 295 -9 378 -9 L378 -9 Z M174 371 C102 371 73 422 73 483 C73 568 124 673 226 673 C299 673 328 625 328 565 C328 479 278 371 174 371 L174 371 Z M707 7 C635 7 606 58 606 119 C606 204 657 309 759 309 C832 309 861 261 861 201 C861 115 811 7 707 7 L707 7 Z M380 7 C308 7 279 58 279 119 C279 204 330 309 432 309 C505 309 534 261 534 201 C534 115 484 7 380 7 L380 7 Z " />
<glyph glyph-name="guilsinglleft" unicode="&#x2039;" horiz-adv-x="166" d="M96 106 L107 106 L61 256 L159 400 L147 400 L35 256 L96 106 Z " />
<glyph glyph-name="guilsinglright" unicode="&#x203a;" horiz-adv-x="166" d="M1 106 L12 106 L125 256 L65 400 L53 400 L99 256 L1 106 Z " />
<glyph glyph-name="fraction" unicode="&#x2044;" horiz-adv-x="140" d="M-190 0 L-172 0 L359 679 L340 679 L-190 0 Z " />
<glyph glyph-name="Euro" unicode="&#x20ac;" horiz-adv-x="580" d="M301 -9 C430 -9 507 85 554 220 L536 222 C489 91 421 7 300 7 C170 7 128 116 134 244 L313 244 L322 260 L136 260 C137 284 140 309 145 335 C149 358 154 382 159 404 L401 404 L410 420 L164 420 C204 558 285 673 417 673 C529 673 571 583 573 461 L591 463 C588 587 545 689 417 689 C278 689 191 572 146 420 L26 420 L23 404 L142 404 C136 382 131 359 127 335 C123 310 119 284 118 260 L-4 260 L-7 244 L116 244 C109 105 158 -9 301 -9 L301 -9 Z " />
<glyph glyph-name="trademark" unicode="&#x2122;" horiz-adv-x="765" d="M356 329 L374 329 L428 634 L430 634 L523 329 L537 329 L732 634 L734 634 L680 329 L698 329 L760 680 L742 680 L535 349 L533 349 L434 680 L418 680 L356 329 Z M151 329 L169 329 L228 663 L359 663 L362 680 L82 680 L79 663 L210 663 L151 329 Z " />
<glyph glyph-name="partialdiff" unicode="&#x2202;" horiz-adv-x="491" d="M189 -9 C342 -9 452 138 452 326 C452 525 328 670 224 702 L212 684 C308 659 393 543 422 449 L420 449 C402 486 353 516 292 516 C159 516 63 416 35 256 C11 121 35 -9 189 -9 L189 -9 Z M192 7 C58 7 29 120 53 256 C81 416 174 500 289 500 C397 500 434 419 434 325 C434 135 323 7 192 7 L192 7 Z " />
<glyph glyph-name="product" unicode="&#x220f;" horiz-adv-x="598" d="M348 -162 C388 -162 409 -149 409 -149 L412 -133 C412 -133 383 -141 346 -141 C297 -141 261 -118 261 -51 C261 -39 262 -24 265 -8 C448 1 577 216 577 436 C577 576 511 689 372 689 C180 689 41 464 41 250 C41 102 110 -8 249 -9 C246 -27 244 -44 244 -57 C244 -129 276 -162 348 -162 L348 -162 Z M253 7 C129 7 59 107 59 251 C59 462 192 673 370 673 C495 673 559 570 559 435 C559 203 423 7 253 7 L253 7 Z " />
<glyph glyph-name="minus" unicode="&#x2212;" horiz-adv-x="580" d="M40 284 L532 284 L535 300 L43 300 L40 284 Z " />
<glyph glyph-name="integral" unicode="&#x222b;" horiz-adv-x="580" d="M-37 -178 C31 -178 80 -143 136 -16 L381 535 C413 606 459 666 523 666 C551 666 576 660 576 660 L583 675 C583 675 561 681 530 681 C462 681 403 625 363 535 L118 -16 C74 -115 37 -163 -31 -163 C-59 -163 -83 -154 -83 -154 L-90 -169 C-90 -169 -68 -178 -37 -178 L-37 -178 Z " />
<glyph glyph-name="fi" unicode="&#xfb01;" horiz-adv-x="420" d="M373 591 L395 591 L399 612 L377 612 L373 591 Z M50 0 L68 0 L154 487 L290 487 L293 503 L157 503 L162 535 C174 609 205 666 269 666 C297 666 324 660 324 660 L327 675 C327 675 303 681 272 681 C204 681 158 626 144 535 L139 503 L52 503 L49 487 L136 487 L50 0 Z M271 0 L289 0 L378 503 L360 503 L271 0 Z " />
<glyph glyph-name="fl" unicode="&#xfb02;" horiz-adv-x="420" d="M50 0 L68 0 L154 487 L290 487 L293 503 L157 503 L162 535 C174 609 205 666 269 666 C297 666 324 660 324 660 L327 675 C327 675 303 681 272 681 C204 681 158 626 144 535 L139 503 L52 503 L49 487 L136 487 L50 0 Z M271 0 L289 0 L409 679 L391 679 L271 0 Z " />
</font>
</svg>
