<?xml version="1.0" encoding="UTF-8"?>
<svg xmlns="http://www.w3.org/2000/svg" xmlns:xlink="http://www.w3.org/1999/xlink" version="1.2" >
<font id="TeeFranklin-Bold">
<font-face  font-family="TeeFranklin" units-per-em="1000" ascent="750" descent="-250" font-style="normal" font-weight="700" font-stretch="normal" cap-height="700" x-height="500" underline-position="-90" underline-thickness="20" />
<missing-glyph  horiz-adv-x="500" d="" />
<glyph glyph-name="NULL" d="" />
<glyph glyph-name="CR" unicode="&#xd;" horiz-adv-x="250" d="" />
<glyph glyph-name="space" unicode="&#x20;" horiz-adv-x="290" d="" />
<glyph glyph-name="exclam" unicode="&#x21;" horiz-adv-x="285" d="M102 194 L179 194 L227 679 L58 679 L102 194 Z M71 0 L213 0 L213 138 L71 138 L71 0 Z " />
<glyph glyph-name="quotedbl" unicode="&#x22;" horiz-adv-x="480" d="M288 427 L391 427 L408 561 L408 679 L268 679 L268 561 L288 427 Z M91 427 L194 427 L212 561 L212 679 L71 679 L71 561 L91 427 Z " />
<glyph glyph-name="numbersign" unicode="&#x23;" horiz-adv-x="600" d="M80 0 L180 0 L214 183 L326 183 L293 0 L394 0 L427 183 L535 183 L535 273 L445 273 L468 404 L570 404 L570 494 L486 494 L519 679 L417 679 L384 494 L272 494 L305 679 L205 679 L171 494 L64 494 L64 404 L154 404 L131 273 L26 273 L26 183 L113 183 L80 0 Z M232 273 L255 404 L368 404 L344 273 L232 273 Z " />
<glyph glyph-name="dollar" unicode="&#x24;" horiz-adv-x="600" d="M264 -74 L336 -74 L336 24 C482 36 554 119 554 219 C554 319 485 384 336 408 L336 559 C382 548 413 514 424 476 L535 507 C517 579 451 649 336 661 L336 750 L264 750 L264 661 C138 649 67 573 67 473 C67 388 123 323 264 293 L264 129 C198 142 162 191 153 229 L36 206 C52 136 111 37 264 24 L264 -74 Z M264 424 C210 440 195 462 195 493 C195 528 225 554 264 561 L264 424 Z M336 128 L336 277 C392 262 419 242 419 205 C419 160 384 135 336 128 L336 128 Z " />
<glyph glyph-name="percent" unicode="&#x25;" horiz-adv-x="685" d="M161 335 C258 335 302 426 302 511 C302 599 259 689 159 689 C61 689 19 599 19 511 C19 426 64 335 161 335 L161 335 Z M86 0 L176 0 L588 679 L499 679 L86 0 Z M518 -10 C615 -10 659 81 659 166 C659 254 616 344 516 344 C418 344 376 254 376 166 C376 81 421 -10 518 -10 L518 -10 Z M161 401 C106 401 98 470 98 511 C98 560 106 623 159 623 C214 623 223 560 223 511 C223 470 216 401 161 401 L161 401 Z M518 56 C463 56 455 125 455 166 C455 214 463 278 516 278 C571 278 579 214 579 166 C579 125 572 56 518 56 L518 56 Z " />
<glyph glyph-name="ampersand" unicode="&#x26;" horiz-adv-x="696" d="M270 -9 C346 -9 407 10 463 50 C506 13 540 -5 597 -5 C627 -5 668 4 668 4 L668 106 C668 106 633 101 610 101 C580 101 563 109 545 125 C597 187 639 274 658 361 L545 383 C535 323 511 258 472 207 L359 364 C438 400 496 450 496 531 C496 636 409 689 309 689 C206 689 129 626 129 535 C129 484 156 438 190 392 C91 353 21 297 21 190 C21 81 107 -9 270 -9 L270 -9 Z M304 433 L298 441 C268 482 249 507 249 541 C249 575 276 601 315 601 C356 601 390 573 390 529 C390 485 365 460 304 433 L304 433 Z M284 89 C208 89 157 128 157 202 C157 266 199 301 246 320 L393 126 C362 101 324 89 284 89 L284 89 Z " />
<glyph glyph-name="quotesingle" unicode="&#x27;" horiz-adv-x="283" d="M91 427 L194 427 L212 561 L212 679 L71 679 L71 561 L91 427 Z " />
<glyph glyph-name="parenleft" unicode="&#x28;" horiz-adv-x="330" d="M194 -169 L290 -169 C211 -42 165 100 165 261 C165 416 211 560 289 680 L193 680 C108 562 47 416 47 257 C47 98 102 -57 194 -169 L194 -169 Z " />
<glyph glyph-name="parenright" unicode="&#x29;" horiz-adv-x="330" d="M41 -169 L136 -169 C228 -57 283 98 283 257 C283 416 222 562 137 680 L42 680 C120 560 166 416 166 261 C166 100 120 -42 41 -169 L41 -169 Z " />
<glyph glyph-name="asterisk" unicode="&#x2a;" horiz-adv-x="475" d="M255 252 L335 277 L265 443 L445 426 L445 508 L265 492 L336 658 L259 683 L217 508 L82 626 L35 559 L190 467 L35 373 L86 307 L217 424 L255 252 Z " />
<glyph glyph-name="plus" unicode="&#x2b;" horiz-adv-x="600" d="M246 30 L346 30 L346 237 L552 237 L552 335 L346 335 L346 542 L246 542 L246 335 L40 335 L40 237 L246 237 L246 30 Z " />
<glyph glyph-name="comma" unicode="&#x2c;" horiz-adv-x="269" d="M57 -147 L115 -147 L207 11 L207 144 L63 144 L63 0 L127 0 L57 -147 Z " />
<glyph glyph-name="hyphen" unicode="&#x2d;" horiz-adv-x="257" d="M11 211 L240 211 L240 312 L11 312 L11 211 Z " />
<glyph glyph-name="period" unicode="&#x2e;" horiz-adv-x="289" d="M73 0 L218 0 L218 142 L73 142 L73 0 Z " />
<glyph glyph-name="slash" unicode="&#x2f;" horiz-adv-x="558" d="M12 -169 L109 -169 L546 680 L449 680 L12 -169 Z " />
<glyph glyph-name="zero" unicode="0" horiz-adv-x="600" d="M302 -9 C483 -9 560 174 560 337 C560 530 474 689 294 689 C107 689 38 505 38 339 C38 167 115 -9 302 -9 L302 -9 Z M302 91 C186 91 171 253 171 342 C171 432 185 589 294 589 C413 589 427 420 427 330 C427 239 411 91 302 91 L302 91 Z " />
<glyph glyph-name="one" unicode="1" horiz-adv-x="600" d="M67 0 L564 0 L564 101 L387 101 L387 679 L285 679 C237 608 156 557 83 536 L83 421 C164 445 224 495 255 533 L257 533 L257 101 L67 101 L67 0 Z " />
<glyph glyph-name="two" unicode="2" horiz-adv-x="600" d="M45 0 L541 0 L546 113 L223 113 L223 115 L373 230 C466 299 541 372 541 481 C541 620 413 689 296 689 C158 689 65 601 42 477 L159 446 C166 524 217 585 291 585 C356 585 407 541 407 477 C407 400 359 349 277 287 L45 109 L45 0 Z " />
<glyph glyph-name="three" unicode="3" horiz-adv-x="600" d="M293 -9 C441 -9 561 60 561 191 C561 285 491 344 411 356 L411 358 C476 369 534 432 534 507 C534 630 414 689 298 689 C179 689 85 622 52 517 L165 490 C180 546 225 589 291 589 C350 589 402 557 402 493 C402 431 355 399 286 399 L203 399 L203 303 L277 303 C356 303 423 272 423 198 C423 126 361 91 292 91 C215 91 167 126 148 203 L27 175 C57 67 156 -9 293 -9 L293 -9 Z " />
<glyph glyph-name="four" unicode="4" horiz-adv-x="600" d="M345 0 L471 0 L471 154 L573 154 L573 253 L471 253 L471 679 L320 679 L32 246 L32 154 L345 154 L345 0 Z M146 253 L146 255 L343 566 L345 566 L345 253 L146 253 Z " />
<glyph glyph-name="five" unicode="5" horiz-adv-x="600" d="M288 -9 C435 -9 554 82 554 229 C554 361 450 458 325 458 C259 458 206 430 178 400 L176 400 L190 565 L500 565 L513 679 L93 679 L66 305 L170 285 C189 325 238 357 295 357 C370 357 423 303 423 229 C423 148 373 95 288 95 C216 95 166 134 151 195 L34 168 C57 67 159 -9 288 -9 L288 -9 Z " />
<glyph glyph-name="six" unicode="6" horiz-adv-x="600" d="M304 -9 C451 -9 559 93 559 222 C559 349 469 439 343 439 C259 439 190 388 166 330 L164 330 C169 471 201 589 317 589 C377 589 414 557 428 494 L546 518 C522 622 440 689 320 689 C136 689 38 534 38 309 C38 158 112 -9 304 -9 L304 -9 Z M303 88 C232 88 178 144 178 209 C178 280 237 340 310 340 C379 340 430 285 430 213 C430 141 373 88 303 88 L303 88 Z " />
<glyph glyph-name="seven" unicode="7" horiz-adv-x="600" d="M177 0 L322 0 L322 24 C322 248 399 429 536 591 L536 679 L73 679 L60 561 L408 561 L408 559 C267 416 176 221 177 0 L177 0 Z " />
<glyph glyph-name="eight" unicode="8" horiz-adv-x="600" d="M299 -9 C420 -9 569 41 569 191 C569 291 491 340 425 368 L425 370 C482 392 541 433 541 516 C541 631 429 689 303 689 C190 689 59 633 59 501 C59 422 116 368 174 346 L174 344 C113 322 30 274 30 177 C30 44 166 -9 299 -9 L299 -9 Z M318 406 C251 425 189 453 189 514 C189 575 250 596 301 596 C363 596 425 572 425 502 C425 445 364 421 318 406 L318 406 Z M303 82 C239 82 155 103 155 184 C155 246 224 285 274 296 C352 270 435 245 435 172 C435 106 361 82 303 82 L303 82 Z " />
<glyph glyph-name="nine" unicode="9" horiz-adv-x="600" d="M269 -9 C455 -9 551 146 551 362 C551 522 479 689 287 689 C135 689 32 587 32 458 C32 331 125 239 251 239 C339 239 401 288 423 345 L425 345 C423 206 389 91 273 91 C214 91 176 122 165 172 L49 141 C72 47 151 -9 269 -9 L269 -9 Z M279 337 C210 337 159 394 159 465 C159 537 216 591 286 591 C358 591 411 530 411 465 C411 396 354 337 279 337 L279 337 Z " />
<glyph glyph-name="colon" unicode="&#x3a;" horiz-adv-x="289" d="M73 361 L218 361 L218 503 L73 503 L73 361 Z M73 0 L218 0 L218 142 L73 142 L73 0 Z " />
<glyph glyph-name="semicolon" unicode="&#x3b;" horiz-adv-x="269" d="M63 361 L208 361 L208 503 L63 503 L63 361 Z M57 -147 L115 -147 L207 11 L207 144 L63 144 L63 0 L127 0 L57 -147 Z " />
<glyph glyph-name="less" unicode="&#x3c;" horiz-adv-x="600" d="M535 48 L535 153 L189 285 L189 287 L535 418 L535 523 L51 324 L51 247 L535 48 Z " />
<glyph glyph-name="equal" unicode="&#x3d;" horiz-adv-x="600" d="M42 343 L550 343 L550 440 L42 440 L42 343 Z M42 133 L550 133 L550 231 L42 231 L42 133 Z " />
<glyph glyph-name="greater" unicode="&#x3e;" horiz-adv-x="600" d="M60 48 L544 247 L544 324 L60 523 L60 418 L405 287 L405 285 L60 153 L60 48 Z " />
<glyph glyph-name="question" unicode="&#x3f;" horiz-adv-x="515" d="M192 187 L305 187 L305 221 C305 269 334 286 366 304 C450 349 497 406 497 489 C497 622 380 689 266 689 C121 689 31 605 16 483 L135 457 C143 538 181 590 252 590 C312 590 356 556 356 491 C356 442 329 406 268 370 C209 332 192 303 192 219 L192 187 Z M181 0 L321 0 L321 135 L181 135 L181 0 Z " />
<glyph glyph-name="at" unicode="&#x40;" horiz-adv-x="825" d="M417 -118 C488 -118 535 -103 535 -103 L515 -39 C515 -39 479 -50 417 -50 C240 -50 132 89 132 252 C132 420 251 553 421 553 C589 553 689 440 689 238 C689 129 660 60 624 60 C604 60 594 79 594 135 L594 314 C594 432 512 461 420 461 C299 461 249 414 238 346 L331 332 C341 373 369 391 417 391 C458 391 491 374 491 321 L491 306 L436 306 C304 306 226 250 226 169 C226 99 279 49 365 49 C445 49 479 88 493 122 L495 122 C495 40 541 -10 615 -10 C717 -10 790 112 790 245 C790 484 626 620 421 620 C204 620 31 467 31 252 C31 34 199 -118 417 -118 L417 -118 Z M400 118 C365 118 335 134 335 172 C335 223 386 246 457 246 L491 246 L491 232 C491 164 456 118 400 118 L400 118 Z " />
<glyph glyph-name="A" unicode="A" horiz-adv-x="602" d="M9 0 L124 0 L175 169 L397 169 L448 0 L595 0 L375 679 L225 679 L9 0 Z M203 270 L284 540 L286 540 L369 270 L203 270 Z " />
<glyph glyph-name="B" unicode="B" horiz-adv-x="626" d="M67 0 L364 0 C480 0 593 46 593 191 C593 276 533 342 452 356 L452 358 C521 372 573 427 573 505 C573 624 470 679 358 679 L67 679 L67 0 Z M201 400 L201 575 L323 575 C388 575 437 550 437 492 C437 429 385 400 318 400 L201 400 Z M201 107 L201 299 L332 299 C402 299 457 272 457 198 C457 130 395 107 332 107 L201 107 Z " />
<glyph glyph-name="C" unicode="C" horiz-adv-x="626" d="M331 -9 C486 -9 566 94 592 226 L464 243 C448 150 398 97 330 97 C240 97 181 185 181 334 C181 499 240 584 332 584 C406 584 446 525 460 434 L593 452 C569 581 486 689 326 689 C115 689 34 506 34 335 C34 174 117 -9 331 -9 L331 -9 Z " />
<glyph glyph-name="D" unicode="D" horiz-adv-x="662" d="M67 0 L327 0 C529 0 628 163 628 348 C628 508 522 679 319 679 L67 679 L67 0 Z M207 109 L207 570 L309 570 C408 570 483 492 483 343 C483 160 391 109 300 109 L207 109 Z " />
<glyph glyph-name="E" unicode="E" horiz-adv-x="577" d="M67 0 L538 0 L538 113 L207 113 L207 298 L463 298 L463 405 L207 405 L207 568 L529 568 L529 679 L67 679 L67 0 Z " />
<glyph glyph-name="F" unicode="F" horiz-adv-x="506" d="M67 0 L207 0 L207 289 L457 289 L457 396 L207 396 L207 568 L517 568 L517 679 L67 679 L67 0 Z " />
<glyph glyph-name="G" unicode="G" horiz-adv-x="670" d="M326 -9 C420 -9 481 30 511 76 L513 76 L547 0 L611 0 L611 360 L329 360 L329 258 L478 258 L477 236 C475 152 425 99 340 99 C241 99 181 185 181 334 C181 499 242 584 334 584 C405 584 461 537 476 455 L607 478 C583 602 485 689 336 689 C124 689 34 506 34 335 C34 172 117 -9 326 -9 L326 -9 Z " />
<glyph glyph-name="H" unicode="H" horiz-adv-x="660" d="M67 0 L207 0 L207 296 L453 296 L453 0 L594 0 L594 679 L453 679 L453 409 L207 409 L207 679 L67 679 L67 0 Z " />
<glyph glyph-name="I" unicode="I" horiz-adv-x="284" d="M72 0 L212 0 L212 679 L72 679 L72 0 Z " />
<glyph glyph-name="J" unicode="J" horiz-adv-x="403" d="M130 -9 C241 -9 335 44 335 212 L335 679 L195 679 L195 224 C195 130 156 103 89 103 C48 103 4 114 4 114 L4 3 C4 3 44 -9 130 -9 L130 -9 Z " />
<glyph glyph-name="K" unicode="K" horiz-adv-x="661" d="M80 0 L220 0 L220 185 L327 318 L503 0 L658 0 L412 423 L612 679 L476 679 L222 334 L220 334 L220 679 L80 679 L80 0 Z " />
<glyph glyph-name="L" unicode="L" horiz-adv-x="514" d="M67 0 L499 0 L499 114 L207 114 L207 679 L67 679 L67 0 Z " />
<glyph glyph-name="M" unicode="M" horiz-adv-x="826" d="M67 0 L171 0 L171 545 L175 545 L360 0 L449 0 L621 545 L625 545 L625 0 L760 0 L760 679 L571 679 L418 210 L416 210 L256 679 L67 679 L67 0 Z " />
<glyph glyph-name="N" unicode="N" horiz-adv-x="669" d="M67 0 L181 0 L181 501 L183 501 L481 0 L602 0 L602 679 L490 679 L490 213 L488 213 L213 679 L67 679 L67 0 Z " />
<glyph glyph-name="O" unicode="O" horiz-adv-x="664" d="M335 -9 C539 -9 631 177 631 348 C631 508 543 689 331 689 C119 689 34 498 34 335 C34 172 121 -9 335 -9 L335 -9 Z M334 96 C244 96 180 185 180 334 C180 499 244 584 336 584 C435 584 484 478 484 343 C484 185 424 96 334 96 L334 96 Z " />
<glyph glyph-name="P" unicode="P" horiz-adv-x="588" d="M67 0 L207 0 L207 264 L351 264 C473 264 578 334 578 472 C578 610 465 679 343 679 L67 679 L67 0 Z M207 366 L207 570 L324 570 C394 570 439 534 439 469 C439 398 392 366 319 366 L207 366 Z " />
<glyph glyph-name="Q" unicode="Q" horiz-adv-x="664" d="M505 -163 C561 -163 608 -147 608 -147 L608 -49 C608 -49 562 -54 512 -54 C476 -54 445 -39 443 12 C575 61 633 208 633 348 C633 508 544 689 332 689 C120 689 34 498 34 335 C34 172 122 -8 335 -9 C342 -120 408 -163 505 -163 L505 -163 Z M414 160 C392 240 339 275 284 275 C243 275 211 253 201 227 L199 227 C187 251 179 292 179 334 C179 499 245 584 337 584 C436 584 487 478 487 343 C487 248 456 186 414 160 L414 160 Z M330 94 C282 95 227 122 227 163 C227 181 240 196 264 196 C299 196 327 164 330 94 L330 94 Z " />
<glyph glyph-name="R" unicode="R" horiz-adv-x="638" d="M67 0 L207 0 L207 278 L344 278 L456 0 L610 0 L478 304 C545 328 602 384 602 479 C602 615 493 679 371 679 L67 679 L67 0 Z M207 380 L207 573 L344 573 C414 573 461 543 461 477 C461 407 412 380 339 380 L207 380 Z " />
<glyph glyph-name="S" unicode="S" horiz-adv-x="614" d="M310 -9 C494 -9 586 86 586 204 C586 313 511 385 354 410 C222 431 192 459 192 505 C192 553 241 586 303 586 C378 586 431 545 447 488 L566 522 C545 605 459 689 310 689 C149 689 56 602 56 482 C56 387 121 315 287 285 C397 265 441 242 441 189 C441 130 393 99 315 99 C211 99 159 163 148 214 L22 189 C41 109 114 -9 310 -9 L310 -9 Z " />
<glyph glyph-name="T" unicode="T" horiz-adv-x="496" d="M180 0 L321 0 L321 565 L486 565 L486 679 L10 679 L10 565 L180 565 L180 0 Z " />
<glyph glyph-name="U" unicode="U" horiz-adv-x="640" d="M324 -9 C472 -9 574 62 574 231 L574 679 L465 679 L465 238 C465 143 420 102 335 102 C250 102 208 138 208 241 L208 679 L67 679 L67 236 C67 60 160 -9 324 -9 L324 -9 Z " />
<glyph glyph-name="V" unicode="V" horiz-adv-x="586" d="M226 0 L361 0 L586 679 L470 679 L310 171 L308 171 L148 679 L0 679 L226 0 Z " />
<glyph glyph-name="W" unicode="W" horiz-adv-x="842" d="M175 0 L302 0 L420 462 L422 462 L546 0 L669 0 L842 679 L729 679 L620 189 L618 189 L486 679 L376 679 L256 191 L254 191 L138 679 L0 679 L175 0 Z " />
<glyph glyph-name="X" unicode="X" horiz-adv-x="626" d="M16 0 L144 0 L297 259 L299 259 L450 0 L610 0 L386 366 L581 679 L457 679 L325 456 L323 456 L192 679 L35 679 L236 352 L16 0 Z " />
<glyph glyph-name="Y" unicode="Y" horiz-adv-x="586" d="M226 0 L366 0 L366 290 L586 679 L463 679 L313 397 L311 397 L159 679 L1 679 L226 289 L226 0 Z " />
<glyph glyph-name="Z" unicode="Z" horiz-adv-x="594" d="M39 0 L557 0 L557 112 L209 112 L209 115 L544 586 L544 679 L58 679 L58 569 L376 569 L376 567 L39 102 L39 0 Z " />
<glyph glyph-name="bracketleft" unicode="&#x5b;" horiz-adv-x="297" d="M60 -169 L260 -169 L260 -98 L165 -98 L165 612 L260 612 L260 680 L60 680 L60 -169 Z " />
<glyph glyph-name="backslash" unicode="&#x5c;" horiz-adv-x="558" d="M447 -169 L544 -169 L111 680 L13 680 L447 -169 Z " />
<glyph glyph-name="bracketright" unicode="&#x5d;" horiz-adv-x="297" d="M33 -169 L233 -169 L233 680 L33 680 L33 612 L129 612 L129 -98 L33 -98 L33 -169 Z " />
<glyph glyph-name="asciicircum" unicode="&#x5e;" horiz-adv-x="600" d="M69 238 L174 238 L291 542 L293 542 L410 238 L515 238 L334 680 L251 680 L69 238 Z " />
<glyph glyph-name="underscore" unicode="&#x5f;" horiz-adv-x="480" d="M0 -136 L480 -136 L480 -65 L0 -65 L0 -136 Z " />
<glyph glyph-name="grave" unicode="&#x60;" horiz-adv-x="562" d="M314 542 L348 579 L195 739 L131 678 L314 542 Z " />
<glyph glyph-name="a" unicode="a" horiz-adv-x="553" d="M213 -9 C314 -9 361 40 380 83 L382 83 L391 0 L518 0 C518 0 507 42 507 91 L507 329 C507 479 412 516 295 516 C139 516 66 456 53 372 L169 355 C182 406 217 430 280 430 C336 430 377 407 377 338 L377 316 L305 316 C138 316 37 246 37 143 C37 54 104 -9 213 -9 L213 -9 Z M258 76 C214 76 174 97 174 147 C174 212 240 244 332 244 L377 244 L377 224 C377 134 331 76 258 76 L258 76 Z " />
<glyph glyph-name="b" unicode="b" horiz-adv-x="557" d="M313 -9 C443 -9 526 94 526 256 C526 375 471 516 330 516 C253 516 207 465 189 427 L187 427 L187 679 L57 679 L57 0 L122 0 L153 76 L155 76 C174 35 239 -9 313 -9 L313 -9 Z M290 79 C234 79 187 122 187 211 L187 285 C187 386 243 426 289 426 C349 426 390 364 390 252 C390 127 345 79 290 79 L290 79 Z " />
<glyph glyph-name="c" unicode="c" horiz-adv-x="511" d="M267 -9 C383 -9 463 70 484 171 L367 191 C356 124 319 88 272 88 C202 88 168 147 168 256 C168 372 215 420 270 420 C320 420 352 384 365 315 L480 336 C461 432 388 516 268 516 C135 516 31 409 31 256 C31 118 100 -9 267 -9 L267 -9 Z " />
<glyph glyph-name="d" unicode="d" horiz-adv-x="557" d="M229 -9 C306 -9 361 38 379 80 L381 80 L381 0 L501 0 L501 679 L371 679 L371 451 L369 451 C348 482 298 516 244 516 C115 516 32 413 32 251 C32 132 87 -9 229 -9 L229 -9 Z M268 82 C209 82 168 143 168 255 C168 380 213 428 268 428 C326 428 371 390 371 305 L371 214 C371 119 315 82 268 82 L268 82 Z " />
<glyph glyph-name="e" unicode="e" horiz-adv-x="557" d="M275 -9 C398 -9 489 48 520 146 L402 169 C385 107 328 85 292 85 C226 85 172 128 171 233 L525 233 L525 254 C525 393 439 516 281 516 C144 516 31 408 31 253 C31 115 117 -9 275 -9 L275 -9 Z M173 307 C177 391 230 430 283 430 C344 430 388 385 390 307 L173 307 Z " />
<glyph glyph-name="f" unicode="f" horiz-adv-x="342" d="M87 0 L217 0 L217 409 L335 409 L335 497 L217 497 L217 521 C217 578 241 595 282 595 C319 595 360 587 360 587 L360 678 C360 678 301 689 249 689 C164 689 87 651 87 523 L87 497 L9 497 L9 409 L87 409 L87 0 Z " />
<glyph glyph-name="g" unicode="g" horiz-adv-x="537" d="M266 -190 C491 -190 535 -92 535 -30 C535 40 484 106 363 109 L230 113 C178 115 154 123 154 151 C154 172 174 187 203 188 C214 188 233 182 266 182 C376 182 473 237 473 341 C473 399 445 443 418 465 C428 499 459 504 500 504 L521 504 L521 596 C521 596 490 600 478 600 C412 600 369 566 363 496 L361 496 C343 506 298 516 265 516 C149 516 44 469 44 348 C44 277 91 239 124 224 L124 222 C89 213 37 178 37 123 C37 84 63 54 85 43 L85 41 C57 33 9 2 9 -55 C9 -140 98 -190 266 -190 L266 -190 Z M262 259 C205 259 172 292 172 350 C172 401 210 437 261 437 C310 437 351 408 351 349 C351 295 319 259 262 259 L262 259 Z M269 -112 C167 -112 123 -82 123 -42 C123 -15 141 1 168 13 L326 7 C389 5 416 -13 416 -42 C416 -85 359 -112 269 -112 L269 -112 Z " />
<glyph glyph-name="h" unicode="h" horiz-adv-x="555" d="M57 0 L187 0 L187 290 C187 352 217 419 294 419 C339 419 368 381 368 326 L368 0 L499 0 L499 326 C499 459 421 516 336 516 C247 516 203 459 189 425 L187 425 L187 679 L57 679 L57 0 Z " />
<glyph glyph-name="i" unicode="i" horiz-adv-x="269" d="M64 574 L204 574 L204 683 L64 683 L64 574 Z M69 0 L199 0 L199 503 L69 503 L69 0 Z " />
<glyph glyph-name="j" unicode="j" horiz-adv-x="265" d="M64 574 L204 574 L204 683 L64 683 L64 574 Z M33 -178 C120 -178 199 -141 199 -3 L199 503 L69 503 L69 15 C69 -58 48 -78 -2 -78 C-24 -78 -54 -69 -54 -69 L-54 -169 C-54 -169 -27 -178 33 -178 L33 -178 Z " />
<glyph glyph-name="k" unicode="k" horiz-adv-x="536" d="M57 0 L187 0 L187 153 L262 236 L393 0 L530 0 L344 317 L509 503 L385 503 L189 276 L187 276 L187 679 L57 679 L57 0 Z " />
<glyph glyph-name="l" unicode="l" horiz-adv-x="267" d="M69 0 L199 0 L199 679 L69 679 L69 0 Z " />
<glyph glyph-name="m" unicode="m" horiz-adv-x="835" d="M57 0 L187 0 L187 290 C187 355 213 419 286 419 C328 419 353 379 353 326 L353 0 L483 0 L483 290 C483 355 508 419 581 419 C624 419 648 379 648 326 L648 0 L779 0 L779 326 C779 460 705 516 623 516 C540 516 484 453 469 413 L467 413 C444 484 389 516 327 516 C244 516 197 457 181 418 L179 418 L179 503 L57 503 L57 0 Z " />
<glyph glyph-name="n" unicode="n" horiz-adv-x="555" d="M57 0 L187 0 L187 290 C187 352 217 419 294 419 C339 419 368 381 368 326 L368 0 L499 0 L499 326 C499 460 421 516 336 516 C247 516 197 457 181 418 L179 418 L179 503 L57 503 L57 0 Z " />
<glyph glyph-name="o" unicode="o" horiz-adv-x="562" d="M276 -9 C416 -9 530 89 530 256 C530 387 440 516 286 516 C153 516 31 424 31 256 C31 109 122 -9 276 -9 L276 -9 Z M280 79 C214 79 170 125 170 256 C170 393 227 427 280 427 C344 427 391 378 391 252 C391 118 340 79 280 79 L280 79 Z " />
<glyph glyph-name="p" unicode="p" horiz-adv-x="555" d="M57 -172 L187 -172 L187 56 L189 56 C209 24 256 -9 317 -9 C437 -9 525 94 525 256 C525 381 471 516 328 516 C252 516 195 465 179 421 L177 421 L177 503 L57 503 L57 -172 Z M288 80 C235 80 187 121 187 204 L187 293 C187 387 241 423 288 423 C346 423 387 364 387 252 C387 127 339 80 288 80 L288 80 Z " />
<glyph glyph-name="q" unicode="q" horiz-adv-x="557" d="M370 -167 L501 -167 L501 503 L436 503 L402 431 L400 431 C377 475 312 516 250 516 C116 516 31 413 31 251 C31 132 87 -9 228 -9 C307 -9 350 36 368 76 L370 76 L370 -167 Z M269 81 C210 81 167 143 167 255 C167 380 214 429 269 429 C327 429 370 383 370 298 L370 225 C370 124 316 81 269 81 L269 81 Z " />
<glyph glyph-name="r" unicode="r" horiz-adv-x="347" d="M57 0 L187 0 L187 229 C187 322 222 396 324 396 L344 396 L344 513 C344 513 322 516 313 516 C241 516 199 468 178 394 L176 394 L176 503 L57 503 L57 0 Z " />
<glyph glyph-name="s" unicode="s" horiz-adv-x="503" d="M254 -9 C405 -9 484 63 484 156 C484 254 404 304 278 314 C180 323 158 339 158 375 C158 406 186 429 243 429 C317 429 348 396 360 364 L462 389 C440 469 356 516 248 516 C128 516 38 453 38 357 C38 261 110 220 232 201 C336 185 360 170 360 136 C360 107 330 79 259 79 C185 79 133 108 124 157 L16 133 C32 69 97 -9 254 -9 L254 -9 Z " />
<glyph glyph-name="t" unicode="t" horiz-adv-x="361" d="M241 -9 C290 -9 344 0 344 0 L344 97 C344 97 313 90 284 90 C242 90 221 105 221 163 L221 416 L328 416 L328 503 L221 503 L221 655 L101 640 L91 503 L11 503 L11 416 L91 416 L91 156 C91 27 163 -9 241 -9 L241 -9 Z " />
<glyph glyph-name="u" unicode="u" horiz-adv-x="553" d="M220 -11 C309 -11 356 47 372 86 L374 86 L374 0 L497 0 L497 503 L366 503 L366 213 C366 151 336 86 261 86 C216 86 187 120 187 176 L187 503 L57 503 L57 177 C57 41 133 -11 220 -11 L220 -11 Z " />
<glyph glyph-name="v" unicode="v" horiz-adv-x="472" d="M183 0 L295 0 L472 503 L374 503 L257 153 L255 153 L139 503 L0 503 L183 0 Z " />
<glyph glyph-name="w" unicode="w" horiz-adv-x="683" d="M155 0 L253 0 L340 337 L342 337 L435 0 L533 0 L683 503 L586 503 L495 178 L493 178 L403 503 L306 503 L221 178 L219 178 L131 503 L0 503 L155 0 Z " />
<glyph glyph-name="x" unicode="x" horiz-adv-x="513" d="M12 0 L123 0 L239 183 L241 183 L352 0 L503 0 L326 278 L473 503 L363 503 L271 355 L269 355 L180 503 L29 503 L186 261 L12 0 Z " />
<glyph glyph-name="y" unicode="y" horiz-adv-x="479" d="M103 -179 C186 -179 242 -140 277 -43 L473 503 L371 503 L259 163 L257 163 L148 503 L8 503 L190 10 L176 -28 C168 -56 142 -80 95 -80 C58 -80 26 -73 26 -73 L26 -171 C26 -171 53 -179 103 -179 L103 -179 Z " />
<glyph glyph-name="z" unicode="z" horiz-adv-x="443" d="M18 0 L423 0 L423 89 L170 89 L170 91 L423 433 L423 503 L42 503 L42 416 L261 416 L261 414 L18 83 L18 0 Z " />
<glyph glyph-name="braceleft" unicode="&#x7b;" horiz-adv-x="323" d="M221 -167 L295 -167 L295 -90 L252 -90 C223 -90 216 -62 216 -25 L216 119 C216 223 153 257 127 260 L127 262 C152 265 216 300 216 403 L216 553 C216 590 223 612 252 612 L295 612 L295 689 L221 689 C162 689 108 647 108 580 L108 419 C108 339 93 302 22 296 L22 226 C92 220 108 181 108 103 L108 -52 C108 -119 162 -167 221 -167 L221 -167 Z " />
<glyph glyph-name="bar" unicode="&#x7c;" horiz-adv-x="240" d="M74 -247 L167 -247 L167 743 L74 743 L74 -247 Z " />
<glyph glyph-name="braceright" unicode="&#x7d;" horiz-adv-x="323" d="M27 -167 L102 -167 C161 -167 215 -119 215 -52 L215 103 C215 181 230 220 301 226 L301 296 C230 302 215 340 215 420 L215 580 C215 647 161 689 102 689 L27 689 L27 612 L70 612 C99 612 106 590 106 553 L106 403 C106 300 170 265 195 262 L195 260 C170 257 106 223 106 119 L106 -25 C106 -62 99 -90 70 -90 L27 -90 L27 -167 Z " />
<glyph glyph-name="asciitilde" unicode="&#x7e;" horiz-adv-x="600" d="M418 178 C483 178 551 222 551 353 L470 353 C470 296 455 274 422 274 C356 274 285 384 177 384 C114 384 44 331 44 209 L125 209 C125 267 140 289 173 289 C239 289 310 178 418 178 L418 178 Z " />
<glyph glyph-name="uni00A0" unicode="&#xa0;" horiz-adv-x="290" d="" />
<glyph glyph-name="exclamdown" unicode="&#xa1;" horiz-adv-x="285" d="M69 365 L211 365 L211 503 L69 503 L69 365 Z M55 -176 L224 -176 L181 309 L104 309 L55 -176 Z " />
<glyph glyph-name="cent" unicode="&#xa2;" horiz-adv-x="600" d="M299 -27 L349 -27 L349 110 C441 121 508 190 525 277 L417 295 C408 245 380 215 349 206 L349 490 C381 481 405 450 415 401 L522 420 C506 504 445 576 349 586 L349 708 L299 708 L299 586 C189 574 103 480 103 351 C103 232 163 122 299 109 L299 -27 Z M299 207 C255 222 232 271 232 351 C232 432 261 476 299 490 L299 207 Z " />
<glyph glyph-name="sterling" unicode="&#xa3;" horiz-adv-x="600" d="M7 0 L371 0 C487 0 563 52 591 137 L486 182 C467 136 429 105 355 105 L221 105 L221 107 C250 119 304 167 304 261 C304 275 302 291 301 304 L436 304 L436 387 L290 387 C285 422 278 464 278 499 C278 559 312 592 362 592 C408 592 436 557 454 515 L553 565 C513 645 435 689 354 689 C238 689 142 601 142 486 C142 452 147 418 151 387 L64 387 L64 304 L166 304 C168 286 172 253 172 221 C172 149 114 105 42 105 L7 105 L7 0 Z " />
<glyph glyph-name="currency" unicode="&#xa4;" horiz-adv-x="600" d="M128 -46 L172 30 C207 5 250 -9 302 -9 C350 -9 390 4 424 27 L466 -46 L547 0 L493 95 C539 161 560 253 560 337 C560 434 538 522 494 586 L547 679 L467 726 L424 652 C389 676 345 689 294 689 C244 689 204 675 170 652 L128 726 L47 679 L101 585 C57 517 38 425 38 339 C38 252 58 162 103 96 L48 0 L128 -46 Z M302 91 C186 91 171 253 171 342 C171 432 185 589 294 589 C413 589 427 420 427 330 C427 239 411 91 302 91 L302 91 Z " />
<glyph glyph-name="yen" unicode="&#xa5;" horiz-adv-x="600" d="M233 0 L373 0 L373 191 L551 191 L551 280 L373 280 L373 299 L404 354 L551 354 L551 443 L452 443 L584 679 L462 679 L319 408 L317 408 L175 679 L17 679 L151 443 L43 443 L43 354 L201 354 L233 298 L233 280 L43 280 L43 191 L233 191 L233 0 Z " />
<glyph glyph-name="brokenbar" unicode="&#xa6;" horiz-adv-x="240" d="M74 350 L167 350 L167 743 L74 743 L74 350 Z M74 -247 L167 -247 L167 146 L74 146 L74 -247 Z " />
<glyph glyph-name="section" unicode="&#xa7;" horiz-adv-x="600" d="M278 -117 C429 -117 508 -45 508 48 C508 94 491 128 459 153 C502 183 523 227 523 275 C523 373 443 423 317 433 C218 442 197 458 197 494 C197 525 225 548 282 548 C356 548 387 515 399 483 L501 508 C478 588 395 635 287 635 C167 635 77 572 77 476 C77 426 96 392 131 367 C89 341 62 301 62 249 C62 153 134 112 256 93 C360 77 383 62 383 28 C383 -1 354 -29 283 -29 C209 -29 157 0 148 49 L40 25 C55 -39 122 -117 278 -117 L278 -117 Z M342 199 C252 210 184 224 184 269 C184 298 205 319 256 323 C360 303 398 292 398 254 C398 231 381 209 342 199 L342 199 Z " />
<glyph glyph-name="dieresis" unicode="&#xa8;" horiz-adv-x="562" d="M366 584 C398 584 425 608 425 641 C425 672 397 695 368 695 C336 695 310 672 310 641 C310 611 334 584 366 584 L366 584 Z M203 584 C235 584 262 608 262 641 C262 672 234 695 204 695 C174 695 148 672 148 641 C148 611 172 584 203 584 L203 584 Z " />
<glyph glyph-name="copyright" unicode="&#xa9;" horiz-adv-x="791" d="M396 -9 C596 -9 755 145 755 342 C755 534 596 689 396 689 C194 689 36 534 36 342 C36 146 192 -9 396 -9 L396 -9 Z M396 60 C232 60 109 184 109 342 C109 496 234 620 396 620 C556 620 682 496 682 342 C682 183 557 60 396 60 L396 60 Z M397 171 C469 171 523 221 539 294 L466 305 C457 258 424 236 396 236 C359 236 326 272 326 337 C326 410 358 444 398 444 C428 444 456 419 464 375 L539 385 C525 456 472 508 395 508 C294 508 243 421 243 337 C243 258 294 171 397 171 L397 171 Z " />
<glyph glyph-name="ordfeminine" unicode="&#xaa;" horiz-adv-x="358" d="M138 364 C196 364 224 390 233 411 L235 411 L239 370 L328 370 C328 370 319 401 319 429 L319 572 C319 666 260 689 187 689 C90 689 45 651 37 593 L115 582 C123 614 143 628 178 628 C208 628 231 616 231 578 L231 569 L193 569 C89 569 27 524 27 461 C27 404 69 364 138 364 L138 364 Z M25 240 L328 240 L328 319 L25 319 L25 240 Z M164 425 C140 425 119 436 119 463 C119 499 157 517 209 517 L231 517 L231 506 C231 459 206 425 164 425 L164 425 Z " />
<glyph glyph-name="guillemotleft" unicode="&#xab;" horiz-adv-x="385" d="M280 106 L338 106 L290 256 L338 400 L279 400 L188 256 L280 106 Z M131 106 L190 106 L142 256 L190 400 L130 400 L40 256 L131 106 Z " />
<glyph glyph-name="logicalnot" unicode="&#xac;" horiz-adv-x="600" d="M407 30 L510 30 L510 335 L40 335 L40 237 L407 237 L407 30 Z " />
<glyph glyph-name="registered" unicode="&#xae;" horiz-adv-x="791" d="M396 -9 C596 -9 755 145 755 342 C755 534 596 689 396 689 C194 689 36 534 36 342 C36 146 192 -9 396 -9 L396 -9 Z M396 60 C232 60 109 184 109 342 C109 496 234 620 396 620 C556 620 682 496 682 342 C682 183 557 60 396 60 L396 60 Z M264 172 L342 172 L342 300 L414 300 L466 172 L551 172 L489 315 C519 329 543 356 543 400 C543 467 490 500 429 500 L264 500 L264 172 Z M342 363 L342 436 L418 436 C444 436 463 425 463 400 C463 372 443 363 416 363 L342 363 Z " />
<glyph glyph-name="macron" unicode="&#xaf;" horiz-adv-x="343" d="M16 638 L327 638 L327 722 L16 722 L16 638 Z " />
<glyph glyph-name="degree" unicode="&#xb0;" horiz-adv-x="377" d="M188 401 C268 401 334 465 334 545 C334 624 268 689 188 689 C108 689 43 624 43 545 C43 465 108 401 188 401 L188 401 Z M187 475 C150 475 119 507 119 544 C119 582 150 614 187 614 C225 614 256 582 256 544 C256 507 225 475 187 475 L187 475 Z " />
<glyph glyph-name="plusminus" unicode="&#xb1;" horiz-adv-x="600" d="M248 143 L347 143 L347 345 L554 345 L554 444 L347 444 L347 646 L248 646 L248 444 L42 444 L42 345 L248 345 L248 143 Z M42 0 L554 0 L554 99 L42 99 L42 0 Z " />
<glyph glyph-name="twosuperior" unicode="&#xb2;" horiz-adv-x="351" d="M28 289 L321 289 L323 370 L160 370 L160 372 L224 419 C277 457 320 501 320 565 C320 647 245 689 175 689 C94 689 39 636 25 557 L107 535 C111 583 136 614 173 614 C204 614 228 594 228 562 C228 522 201 496 159 463 L28 362 L28 289 Z " />
<glyph glyph-name="threesuperior" unicode="&#xb3;" horiz-adv-x="353" d="M169 284 C256 284 327 326 327 404 C327 453 293 486 261 496 L261 498 C286 509 312 541 312 579 C312 653 241 689 172 689 C102 689 46 650 25 579 L104 561 C113 595 136 617 168 617 C196 617 221 602 221 571 C221 541 199 528 165 528 L111 528 L111 457 L161 457 C200 457 234 443 234 408 C234 373 203 357 169 357 C131 357 106 374 96 421 L11 401 C32 328 90 284 169 284 L169 284 Z " />
<glyph glyph-name="acute" unicode="&#xb4;" horiz-adv-x="562" d="M272 542 L455 678 L391 739 L237 579 L272 542 Z " />
<glyph glyph-name="mu" unicode="&#xb5;" horiz-adv-x="553" d="M22 -178 C105 -178 187 -131 187 -17 L187 3 C205 -5 225 -8 245 -7 C317 0 358 50 372 86 L374 86 L374 0 L497 0 L497 503 L366 503 L366 213 C366 151 336 86 261 86 C216 86 187 120 187 176 L187 503 L57 503 L57 15 C57 -58 37 -78 -13 -78 C-36 -78 -66 -69 -66 -69 L-66 -169 C-66 -169 -39 -178 22 -178 L22 -178 Z " />
<glyph glyph-name="paragraph" unicode="&#xb6;" horiz-adv-x="531" d="M232 -164 L303 -164 L303 608 L383 608 L383 -164 L454 -164 L454 608 L505 608 L505 679 L232 679 C160 679 26 615 26 440 C26 312 117 213 232 213 L232 -164 Z " />
<glyph glyph-name="periodcentered" unicode="&#xb7;" horiz-adv-x="289" d="M73 234 L218 234 L218 376 L73 376 L73 234 Z " />
<glyph glyph-name="cedilla" unicode="&#xb8;" horiz-adv-x="511" d="M264 -184 C314 -184 367 -161 367 -106 C367 -59 317 -38 268 -38 L280 0 L240 0 L214 -73 C214 -73 229 -71 240 -71 C271 -71 301 -81 301 -110 C301 -133 279 -144 256 -144 C228 -144 205 -136 186 -126 L168 -157 C195 -174 229 -184 264 -184 L264 -184 Z " />
<glyph glyph-name="onesuperior" unicode="&#xb9;" horiz-adv-x="360" d="M40 284 L333 284 L333 358 L234 358 L234 679 L165 679 C136 638 92 610 48 596 L48 515 C98 528 129 552 143 569 L145 569 L145 358 L40 358 L40 284 Z " />
<glyph glyph-name="ordmasculine" unicode="&#xba;" horiz-adv-x="371" d="M182 364 C268 364 340 424 340 528 C340 609 283 689 188 689 C105 689 30 631 30 528 C30 437 86 364 182 364 L182 364 Z M30 240 L340 240 L340 319 L30 319 L30 240 Z M184 426 C146 426 123 453 123 528 C123 605 154 626 184 626 C220 626 245 596 245 525 C245 449 219 426 184 426 L184 426 Z " />
<glyph glyph-name="guillemotright" unicode="&#xbb;" horiz-adv-x="385" d="M187 106 L246 106 L337 256 L247 400 L187 400 L235 256 L187 106 Z M39 106 L97 106 L189 256 L98 400 L39 400 L87 256 L39 106 Z " />
<glyph glyph-name="onequarter" unicode="&#xbc;" horiz-adv-x="821" d="M43 284 L336 284 L336 358 L237 358 L237 679 L167 679 C139 638 95 610 51 596 L51 515 C101 528 132 552 145 569 L147 569 L147 358 L43 358 L43 284 Z M190 0 L284 0 L695 679 L601 679 L190 0 Z M636 0 L724 0 L724 86 L780 86 L780 158 L724 158 L724 395 L626 395 L462 148 L462 86 L636 86 L636 0 Z M546 158 L546 160 L634 298 L636 298 L636 158 L546 158 Z " />
<glyph glyph-name="onehalf" unicode="&#xbd;" horiz-adv-x="857" d="M43 284 L336 284 L336 358 L237 358 L237 679 L167 679 C139 638 95 610 51 596 L51 515 C101 528 132 552 145 569 L147 569 L147 358 L43 358 L43 284 Z M190 0 L284 0 L695 679 L601 679 L190 0 Z M513 0 L805 0 L808 80 L644 80 L644 82 L709 130 C761 168 805 212 805 276 C805 358 729 400 660 400 C578 400 524 347 509 268 L591 246 C595 294 620 325 657 325 C688 325 713 304 713 273 C713 233 685 207 644 174 L513 73 L513 0 Z " />
<glyph glyph-name="threequarters" unicode="&#xbe;" horiz-adv-x="800" d="M182 284 C269 284 340 326 340 404 C340 453 305 486 273 496 L273 498 C298 509 325 541 325 579 C325 653 254 689 185 689 C114 689 59 650 37 579 L116 561 C126 595 148 617 181 617 C208 617 234 602 234 571 C234 541 211 528 178 528 L123 528 L123 457 L173 457 C212 457 246 443 246 408 C246 373 215 357 181 357 C143 357 118 374 108 421 L24 401 C44 328 102 284 182 284 L182 284 Z M175 0 L269 0 L680 679 L586 679 L175 0 Z M621 0 L708 0 L708 86 L765 86 L765 158 L708 158 L708 395 L611 395 L446 148 L446 86 L621 86 L621 0 Z M531 158 L531 160 L619 298 L621 298 L621 158 L531 158 Z " />
<glyph glyph-name="questiondown" unicode="&#xbf;" horiz-adv-x="515" d="M193 368 L333 368 L333 503 L193 503 L193 368 Z M248 -186 C393 -186 483 -102 498 20 L379 46 C372 -35 334 -87 262 -87 C203 -87 158 -53 158 12 C158 61 185 97 246 133 C305 171 322 200 322 284 L322 316 L210 316 L210 282 C210 234 180 217 148 199 C64 154 17 97 17 14 C17 -123 134 -186 248 -186 L248 -186 Z " />
<glyph glyph-name="Agrave" unicode="&#xc0;" horiz-adv-x="602" d="M311 733 L345 770 L191 930 L127 869 L311 733 Z M9 0 L124 0 L175 169 L397 169 L448 0 L595 0 L375 679 L225 679 L9 0 Z M203 270 L284 540 L286 540 L369 270 L203 270 Z " />
<glyph glyph-name="Aacute" unicode="&#xc1;" horiz-adv-x="602" d="M314 733 L498 869 L433 930 L280 770 L314 733 Z M9 0 L124 0 L175 169 L397 169 L448 0 L595 0 L375 679 L225 679 L9 0 Z M203 270 L284 540 L286 540 L369 270 L203 270 Z " />
<glyph glyph-name="Acircumflex" unicode="&#xc2;" horiz-adv-x="602" d="M209 732 L306 793 L398 732 L458 751 L306 889 L144 751 L209 732 Z M9 0 L124 0 L175 169 L397 169 L448 0 L595 0 L375 679 L225 679 L9 0 Z M203 270 L284 540 L286 540 L369 270 L203 270 Z " />
<glyph glyph-name="Atilde" unicode="&#xc3;" horiz-adv-x="602" d="M384 738 C424 738 462 766 476 809 L428 833 C420 817 407 808 389 808 C341 808 305 851 245 851 C207 851 167 823 153 780 L201 757 C209 772 222 780 241 780 C285 780 323 738 384 738 L384 738 Z M9 0 L124 0 L175 169 L397 169 L448 0 L595 0 L375 679 L225 679 L9 0 Z M203 270 L284 540 L286 540 L369 270 L203 270 Z " />
<glyph glyph-name="Adieresis" unicode="&#xc4;" horiz-adv-x="602" d="M381 734 C412 734 439 758 439 791 C439 822 411 845 383 845 C351 845 325 822 325 791 C325 760 349 734 381 734 L381 734 Z M218 734 C250 734 276 758 276 791 C276 822 249 845 219 845 C189 845 162 822 162 791 C162 760 187 734 218 734 L218 734 Z M9 0 L124 0 L175 169 L397 169 L448 0 L595 0 L375 679 L225 679 L9 0 Z M203 270 L284 540 L286 540 L369 270 L203 270 Z " />
<glyph glyph-name="Aring" unicode="&#xc5;" horiz-adv-x="602" d="M299 713 C350 713 392 751 392 802 C392 852 350 891 299 891 C248 891 206 852 206 802 C206 751 248 713 299 713 L299 713 Z M9 0 L124 0 L175 169 L397 169 L448 0 L595 0 L375 679 L225 679 L9 0 Z M299 750 C271 750 248 772 248 801 C248 829 267 852 299 852 C329 852 349 829 349 801 C349 771 327 750 299 750 L299 750 Z M203 270 L284 540 L286 540 L369 270 L203 270 Z " />
<glyph glyph-name="AE" unicode="&#xc6;" horiz-adv-x="871" d="M1 0 L121 0 L267 298 L382 298 L382 0 L833 0 L833 113 L522 113 L522 298 L758 298 L758 405 L522 405 L522 568 L824 568 L824 679 L332 679 L1 0 Z M309 405 L380 549 L382 549 L382 405 L309 405 Z " />
<glyph glyph-name="Ccedilla" unicode="&#xc7;" horiz-adv-x="626" d="M328 -184 C378 -184 431 -161 431 -106 C431 -59 380 -38 332 -38 L341 -9 C489 -4 566 97 592 226 L464 243 C448 150 398 97 330 97 C240 97 181 185 181 334 C181 499 240 584 332 584 C406 584 446 525 460 434 L593 452 C569 581 486 689 326 689 C115 689 34 506 34 335 C34 182 108 8 301 -8 L278 -73 C278 -73 293 -71 304 -71 C334 -71 364 -81 364 -110 C364 -133 343 -144 320 -144 C291 -144 268 -136 249 -126 L232 -157 C259 -174 293 -184 328 -184 L328 -184 Z " />
<glyph glyph-name="Egrave" unicode="&#xc8;" horiz-adv-x="577" d="M364 733 L398 770 L244 930 L180 869 L364 733 Z M67 0 L538 0 L538 113 L207 113 L207 298 L463 298 L463 405 L207 405 L207 568 L529 568 L529 679 L67 679 L67 0 Z " />
<glyph glyph-name="Eacute" unicode="&#xc9;" horiz-adv-x="577" d="M301 733 L485 869 L420 930 L267 770 L301 733 Z M67 0 L538 0 L538 113 L207 113 L207 298 L463 298 L463 405 L207 405 L207 568 L529 568 L529 679 L67 679 L67 0 Z " />
<glyph glyph-name="Ecircumflex" unicode="&#xca;" horiz-adv-x="577" d="M219 732 L316 793 L408 732 L468 751 L316 889 L154 751 L219 732 Z M67 0 L538 0 L538 113 L207 113 L207 298 L463 298 L463 405 L207 405 L207 568 L529 568 L529 679 L67 679 L67 0 Z " />
<glyph glyph-name="Edieresis" unicode="&#xcb;" horiz-adv-x="577" d="M395 734 C426 734 452 758 452 791 C452 822 425 845 396 845 C365 845 338 822 338 791 C338 760 363 734 395 734 L395 734 Z M231 734 C263 734 290 758 290 791 C290 822 262 845 232 845 C202 845 176 822 176 791 C176 760 200 734 231 734 L231 734 Z M67 0 L538 0 L538 113 L207 113 L207 298 L463 298 L463 405 L207 405 L207 568 L529 568 L529 679 L67 679 L67 0 Z " />
<glyph glyph-name="Igrave" unicode="&#xcc;" horiz-adv-x="284" d="M182 733 L216 770 L62 930 L-2 869 L182 733 Z M72 0 L212 0 L212 679 L72 679 L72 0 Z " />
<glyph glyph-name="Iacute" unicode="&#xcd;" horiz-adv-x="284" d="M139 733 L323 869 L258 930 L105 770 L139 733 Z M72 0 L212 0 L212 679 L72 679 L72 0 Z " />
<glyph glyph-name="Icircumflex" unicode="&#xce;" horiz-adv-x="284" d="M53 732 L150 793 L242 732 L302 751 L150 889 L-12 751 L53 732 Z M72 0 L212 0 L212 679 L72 679 L72 0 Z " />
<glyph glyph-name="Idieresis" unicode="&#xcf;" horiz-adv-x="284" d="M222 734 C253 734 279 758 279 791 C279 822 252 845 223 845 C191 845 165 822 165 791 C165 760 189 734 222 734 L222 734 Z M58 734 C90 734 116 758 116 791 C116 822 89 845 59 845 C29 845 3 822 3 791 C3 760 27 734 58 734 L58 734 Z M72 0 L212 0 L212 679 L72 679 L72 0 Z " />
<glyph glyph-name="Eth" unicode="&#xd0;" horiz-adv-x="662" d="M67 0 L327 0 C529 0 628 163 628 348 C628 508 522 679 319 679 L67 679 L67 384 L-14 384 L-14 287 L67 287 L67 0 Z M207 109 L207 287 L298 287 L298 384 L207 384 L207 570 L309 570 C408 570 483 492 483 343 C483 160 391 109 300 109 L207 109 Z " />
<glyph glyph-name="Ntilde" unicode="&#xd1;" horiz-adv-x="669" d="M417 738 C456 738 494 766 508 809 L461 833 C453 817 439 808 421 808 C374 808 338 851 277 851 C240 851 199 823 185 780 L233 757 C241 772 255 780 273 780 C318 780 355 738 417 738 L417 738 Z M67 0 L181 0 L181 501 L183 501 L481 0 L602 0 L602 679 L490 679 L490 213 L488 213 L213 679 L67 679 L67 0 Z " />
<glyph glyph-name="Ograve" unicode="&#xd2;" horiz-adv-x="664" d="M360 733 L395 770 L241 930 L176 869 L360 733 Z M335 -9 C539 -9 631 177 631 348 C631 508 543 689 331 689 C119 689 34 498 34 335 C34 172 121 -9 335 -9 L335 -9 Z M334 96 C244 96 180 185 180 334 C180 499 244 584 336 584 C435 584 484 478 484 343 C484 185 424 96 334 96 L334 96 Z " />
<glyph glyph-name="Oacute" unicode="&#xd3;" horiz-adv-x="664" d="M344 733 L527 869 L463 930 L310 770 L344 733 Z M335 -9 C539 -9 631 177 631 348 C631 508 543 689 331 689 C119 689 34 498 34 335 C34 172 121 -9 335 -9 L335 -9 Z M334 96 C244 96 180 185 180 334 C180 499 244 584 336 584 C435 584 484 478 484 343 C484 185 424 96 334 96 L334 96 Z " />
<glyph glyph-name="Ocircumflex" unicode="&#xd4;" horiz-adv-x="664" d="M242 732 L339 793 L431 732 L491 751 L339 889 L177 751 L242 732 Z M335 -9 C539 -9 631 177 631 348 C631 508 543 689 331 689 C119 689 34 498 34 335 C34 172 121 -9 335 -9 L335 -9 Z M334 96 C244 96 180 185 180 334 C180 499 244 584 336 584 C435 584 484 478 484 343 C484 185 424 96 334 96 L334 96 Z " />
<glyph glyph-name="Otilde" unicode="&#xd5;" horiz-adv-x="664" d="M417 738 C456 738 494 766 508 809 L461 833 C453 817 439 808 421 808 C374 808 338 851 277 851 C240 851 199 823 185 780 L233 757 C241 772 255 780 273 780 C318 780 355 738 417 738 L417 738 Z M335 -9 C539 -9 631 177 631 348 C631 508 543 689 331 689 C119 689 34 498 34 335 C34 172 121 -9 335 -9 L335 -9 Z M334 96 C244 96 180 185 180 334 C180 499 244 584 336 584 C435 584 484 478 484 343 C484 185 424 96 334 96 L334 96 Z " />
<glyph glyph-name="Odieresis" unicode="&#xd6;" horiz-adv-x="664" d="M421 734 C452 734 479 758 479 791 C479 822 451 845 422 845 C391 845 364 822 364 791 C364 760 389 734 421 734 L421 734 Z M257 734 C289 734 316 758 316 791 C316 822 288 845 258 845 C228 845 202 822 202 791 C202 760 226 734 257 734 L257 734 Z M335 -9 C539 -9 631 177 631 348 C631 508 543 689 331 689 C119 689 34 498 34 335 C34 172 121 -9 335 -9 L335 -9 Z M334 96 C244 96 180 185 180 334 C180 499 244 584 336 584 C435 584 484 478 484 343 C484 185 424 96 334 96 L334 96 Z " />
<glyph glyph-name="multiply" unicode="&#xd7;" horiz-adv-x="600" d="M150 70 L297 215 L442 70 L512 140 L367 285 L512 432 L442 502 L295 357 L150 502 L80 432 L225 287 L80 140 L150 70 Z " />
<glyph glyph-name="Oslash" unicode="&#xd8;" horiz-adv-x="664" d="M24 -33 L120 -33 L171 39 C214 9 268 -9 335 -9 C539 -9 631 177 631 348 C631 432 606 524 551 591 L638 715 L541 715 L490 643 C448 671 396 689 331 689 C119 689 34 498 34 335 C34 250 57 159 110 92 L24 -33 Z M200 221 C187 252 180 289 180 334 C180 499 244 584 336 584 C372 584 401 570 424 546 L200 221 Z M334 96 C298 96 265 110 239 138 L463 463 C477 429 484 388 484 343 C484 185 424 96 334 96 L334 96 Z " />
<glyph glyph-name="Ugrave" unicode="&#xd9;" horiz-adv-x="640" d="M359 733 L393 770 L240 930 L175 869 L359 733 Z M324 -9 C472 -9 574 62 574 231 L574 679 L465 679 L465 238 C465 143 420 102 335 102 C250 102 208 138 208 241 L208 679 L67 679 L67 236 C67 60 160 -9 324 -9 L324 -9 Z " />
<glyph glyph-name="Uacute" unicode="&#xda;" horiz-adv-x="640" d="M323 733 L507 869 L443 930 L289 770 L323 733 Z M324 -9 C472 -9 574 62 574 231 L574 679 L465 679 L465 238 C465 143 420 102 335 102 C250 102 208 138 208 241 L208 679 L67 679 L67 236 C67 60 160 -9 324 -9 L324 -9 Z " />
<glyph glyph-name="Ucircumflex" unicode="&#xdb;" horiz-adv-x="640" d="M243 732 L340 793 L432 732 L492 751 L340 889 L178 751 L243 732 Z M324 -9 C472 -9 574 62 574 231 L574 679 L465 679 L465 238 C465 143 420 102 335 102 C250 102 208 138 208 241 L208 679 L67 679 L67 236 C67 60 160 -9 324 -9 L324 -9 Z " />
<glyph glyph-name="Udieresis" unicode="&#xdc;" horiz-adv-x="640" d="M419 734 C450 734 477 758 477 791 C477 822 449 845 421 845 C389 845 362 822 362 791 C362 760 387 734 419 734 L419 734 Z M255 734 C287 734 314 758 314 791 C314 822 286 845 256 845 C226 845 200 822 200 791 C200 760 224 734 255 734 L255 734 Z M324 -9 C472 -9 574 62 574 231 L574 679 L465 679 L465 238 C465 143 420 102 335 102 C250 102 208 138 208 241 L208 679 L67 679 L67 236 C67 60 160 -9 324 -9 L324 -9 Z " />
<glyph glyph-name="Yacute" unicode="&#xdd;" horiz-adv-x="586" d="M298 733 L482 869 L418 930 L265 770 L298 733 Z M226 0 L366 0 L366 290 L586 679 L463 679 L313 397 L311 397 L159 679 L1 679 L226 289 L226 0 Z " />
<glyph glyph-name="Thorn" unicode="&#xde;" horiz-adv-x="588" d="M67 0 L207 0 L207 152 L351 152 C473 152 578 222 578 360 C578 499 465 568 343 568 L207 568 L207 679 L67 679 L67 0 Z M207 254 L207 458 L324 458 C394 458 439 423 439 357 C439 287 392 254 319 254 L207 254 Z " />
<glyph glyph-name="germandbls" unicode="&#xdf;" horiz-adv-x="684" d="M69 -59 L199 -59 L199 464 C199 559 254 597 313 597 C356 597 393 571 393 538 C393 484 331 462 277 458 C257 456 230 435 230 374 C230 271 292 222 425 201 C528 185 547 170 547 136 C547 107 522 79 452 79 C377 79 330 108 320 157 L212 133 C228 69 292 -9 447 -9 C595 -9 672 63 672 156 C672 254 597 304 471 314 C378 323 354 342 354 380 C354 401 375 403 418 414 C460 428 521 469 521 544 C521 641 413 689 319 689 C204 689 69 622 69 465 L69 437 L9 437 L9 350 L69 350 L69 -59 Z " />
<glyph glyph-name="agrave" unicode="&#xe0;" horiz-adv-x="553" d="M322 542 L355 579 L202 739 L138 678 L322 542 Z M213 -9 C314 -9 361 40 380 83 L382 83 L391 0 L518 0 C518 0 507 42 507 91 L507 329 C507 479 412 516 295 516 C139 516 66 456 53 372 L169 355 C182 406 217 430 280 430 C336 430 377 407 377 338 L377 316 L305 316 C138 316 37 246 37 143 C37 54 104 -9 213 -9 L213 -9 Z M258 76 C214 76 174 97 174 147 C174 212 240 244 332 244 L377 244 L377 224 C377 134 331 76 258 76 L258 76 Z " />
<glyph glyph-name="aacute" unicode="&#xe1;" horiz-adv-x="553" d="M272 542 L455 678 L391 739 L237 579 L272 542 Z M213 -9 C314 -9 361 40 380 83 L382 83 L391 0 L518 0 C518 0 507 42 507 91 L507 329 C507 479 412 516 295 516 C139 516 66 456 53 372 L169 355 C182 406 217 430 280 430 C336 430 377 407 377 338 L377 316 L305 316 C138 316 37 246 37 143 C37 54 104 -9 213 -9 L213 -9 Z M258 76 C214 76 174 97 174 147 C174 212 240 244 332 244 L377 244 L377 224 C377 134 331 76 258 76 L258 76 Z " />
<glyph glyph-name="acircumflex" unicode="&#xe2;" horiz-adv-x="553" d="M197 578 L294 639 L386 578 L446 597 L294 735 L132 597 L197 578 Z M213 -9 C314 -9 361 40 380 83 L382 83 L391 0 L518 0 C518 0 507 42 507 91 L507 329 C507 479 412 516 295 516 C139 516 66 456 53 372 L169 355 C182 406 217 430 280 430 C336 430 377 407 377 338 L377 316 L305 316 C138 316 37 246 37 143 C37 54 104 -9 213 -9 L213 -9 Z M258 76 C214 76 174 97 174 147 C174 212 240 244 332 244 L377 244 L377 224 C377 134 331 76 258 76 L258 76 Z " />
<glyph glyph-name="atilde" unicode="&#xe3;" horiz-adv-x="553" d="M364 594 C403 594 442 621 456 664 L408 688 C400 672 386 664 369 664 C322 664 285 707 225 707 C187 707 147 679 133 636 L180 612 C188 627 202 635 220 635 C265 635 303 594 364 594 L364 594 Z M213 -9 C314 -9 361 40 380 83 L382 83 L391 0 L518 0 C518 0 507 42 507 91 L507 329 C507 479 412 516 295 516 C139 516 66 456 53 372 L169 355 C182 406 217 430 280 430 C336 430 377 407 377 338 L377 316 L305 316 C138 316 37 246 37 143 C37 54 104 -9 213 -9 L213 -9 Z M258 76 C214 76 174 97 174 147 C174 212 240 244 332 244 L377 244 L377 224 C377 134 331 76 258 76 L258 76 Z " />
<glyph glyph-name="adieresis" unicode="&#xe4;" horiz-adv-x="553" d="M370 584 C401 584 428 608 428 641 C428 672 400 695 372 695 C340 695 314 672 314 641 C314 611 338 584 370 584 L370 584 Z M207 584 C239 584 266 608 266 641 C266 672 238 695 208 695 C178 695 152 672 152 641 C152 611 176 584 207 584 L207 584 Z M213 -9 C314 -9 361 40 380 83 L382 83 L391 0 L518 0 C518 0 507 42 507 91 L507 329 C507 479 412 516 295 516 C139 516 66 456 53 372 L169 355 C182 406 217 430 280 430 C336 430 377 407 377 338 L377 316 L305 316 C138 316 37 246 37 143 C37 54 104 -9 213 -9 L213 -9 Z M258 76 C214 76 174 97 174 147 C174 212 240 244 332 244 L377 244 L377 224 C377 134 331 76 258 76 L258 76 Z " />
<glyph glyph-name="aring" unicode="&#xe5;" horiz-adv-x="553" d="M287 560 C338 560 380 598 380 649 C380 699 338 738 287 738 C236 738 194 699 194 649 C194 598 236 560 287 560 L287 560 Z M213 -9 C314 -9 361 40 380 83 L382 83 L391 0 L518 0 C518 0 507 42 507 91 L507 329 C507 479 412 516 295 516 C139 516 66 456 53 372 L169 355 C182 406 217 430 280 430 C336 430 377 407 377 338 L377 316 L305 316 C138 316 37 246 37 143 C37 54 104 -9 213 -9 L213 -9 Z M287 597 C259 597 236 619 236 648 C236 676 255 699 287 699 C317 699 338 676 338 648 C338 619 315 597 287 597 L287 597 Z M258 76 C214 76 174 97 174 147 C174 212 240 244 332 244 L377 244 L377 224 C377 134 331 76 258 76 L258 76 Z " />
<glyph glyph-name="ae" unicode="&#xe6;" horiz-adv-x="904" d="M213 -9 C314 -9 389 36 434 99 L436 99 C470 36 530 -9 621 -9 C743 -9 834 48 865 146 L748 169 C731 107 674 85 637 85 C572 85 518 128 517 233 L870 233 L870 254 C870 395 786 516 627 516 C559 516 503 488 464 441 L462 441 C431 498 371 516 295 516 C139 516 66 456 53 372 L169 355 C182 406 217 430 280 430 C336 430 377 407 377 338 L377 307 L305 307 C138 307 37 244 37 141 C37 52 104 -9 213 -9 L213 -9 Z M519 307 C523 391 575 430 629 430 C692 430 734 388 736 307 L519 307 Z M258 76 C214 76 174 94 174 145 C174 208 240 233 332 233 L377 233 L377 217 C377 133 331 76 258 76 L258 76 Z " />
<glyph glyph-name="ccedilla" unicode="&#xe7;" horiz-adv-x="511" d="M264 -184 C314 -184 367 -161 367 -106 C367 -59 317 -38 268 -38 L278 -9 C388 -4 464 73 484 171 L367 191 C356 124 319 88 272 88 C202 88 168 147 168 256 C168 372 215 420 270 420 C320 420 352 384 365 315 L480 336 C461 432 390 516 268 516 C135 516 31 409 31 256 C31 127 92 6 237 -8 L214 -73 C214 -73 229 -71 240 -71 C271 -71 301 -81 301 -110 C301 -133 279 -144 256 -144 C228 -144 205 -136 186 -126 L168 -157 C195 -174 229 -184 264 -184 L264 -184 Z " />
<glyph glyph-name="egrave" unicode="&#xe8;" horiz-adv-x="557" d="M306 542 L340 579 L186 739 L122 678 L306 542 Z M275 -9 C398 -9 489 48 520 146 L402 169 C385 107 328 85 292 85 C226 85 172 128 171 233 L525 233 L525 254 C525 395 440 516 281 516 C144 516 31 408 31 253 C31 115 117 -9 275 -9 L275 -9 Z M173 307 C177 391 230 430 283 430 C346 430 388 387 390 307 L173 307 Z " />
<glyph glyph-name="eacute" unicode="&#xe9;" horiz-adv-x="557" d="M277 542 L461 678 L396 739 L243 579 L277 542 Z M275 -9 C398 -9 489 48 520 146 L402 169 C385 107 328 85 292 85 C226 85 172 128 171 233 L525 233 L525 254 C525 395 440 516 281 516 C144 516 31 408 31 253 C31 115 117 -9 275 -9 L275 -9 Z M173 307 C177 391 230 430 283 430 C346 430 388 387 390 307 L173 307 Z " />
<glyph glyph-name="ecircumflex" unicode="&#xea;" horiz-adv-x="557" d="M195 578 L292 639 L384 578 L444 597 L292 735 L130 597 L195 578 Z M275 -9 C398 -9 489 48 520 146 L402 169 C385 107 328 85 292 85 C226 85 172 128 171 233 L525 233 L525 254 C525 395 440 516 281 516 C144 516 31 408 31 253 C31 115 117 -9 275 -9 L275 -9 Z M173 307 C177 391 230 430 283 430 C346 430 388 387 390 307 L173 307 Z " />
<glyph glyph-name="edieresis" unicode="&#xeb;" horiz-adv-x="557" d="M368 584 C400 584 426 608 426 641 C426 672 399 695 370 695 C338 695 312 672 312 641 C312 611 336 584 368 584 L368 584 Z M205 584 C237 584 263 608 263 641 C263 672 236 695 206 695 C176 695 150 672 150 641 C150 611 174 584 205 584 L205 584 Z M275 -9 C398 -9 489 48 520 146 L402 169 C385 107 328 85 292 85 C226 85 172 128 171 233 L525 233 L525 254 C525 395 440 516 281 516 C144 516 31 408 31 253 C31 115 117 -9 275 -9 L275 -9 Z M173 307 C177 391 230 430 283 430 C346 430 388 387 390 307 L173 307 Z " />
<glyph glyph-name="igrave" unicode="&#xec;" horiz-adv-x="269" d="M177 542 L211 579 L57 739 L-7 678 L177 542 Z M69 0 L199 0 L199 503 L69 503 L69 0 Z " />
<glyph glyph-name="iacute" unicode="&#xed;" horiz-adv-x="269" d="M128 542 L311 678 L247 739 L94 579 L128 542 Z M69 0 L199 0 L199 503 L69 503 L69 0 Z " />
<glyph glyph-name="icircumflex" unicode="&#xee;" horiz-adv-x="269" d="M43 578 L140 639 L232 578 L292 597 L140 735 L-22 597 L43 578 Z M69 0 L199 0 L199 503 L69 503 L69 0 Z " />
<glyph glyph-name="idieresis" unicode="&#xef;" horiz-adv-x="269" d="M216 584 C248 584 274 608 274 641 C274 672 247 695 218 695 C186 695 160 672 160 641 C160 611 184 584 216 584 L216 584 Z M53 584 C85 584 111 608 111 641 C111 672 84 695 54 695 C24 695 -2 672 -2 641 C-2 611 22 584 53 584 L53 584 Z M69 0 L199 0 L199 503 L69 503 L69 0 Z " />
<glyph glyph-name="eth" unicode="&#xf0;" horiz-adv-x="562" d="M276 -9 C416 -9 530 89 530 256 C530 420 447 552 357 635 L407 692 L351 738 L299 679 C265 705 232 722 204 729 L152 651 C178 645 212 632 246 614 L208 572 L265 525 L309 576 C345 550 376 518 393 483 L391 483 C371 501 325 516 286 516 C153 516 31 424 31 256 C31 109 122 -9 276 -9 L276 -9 Z M280 79 C214 79 170 125 170 256 C170 393 227 427 280 427 C344 427 391 378 391 252 C391 118 340 79 280 79 L280 79 Z " />
<glyph glyph-name="ntilde" unicode="&#xf1;" horiz-adv-x="555" d="M364 594 C403 594 442 621 456 664 L408 688 C400 672 386 664 368 664 C321 664 285 707 224 707 C187 707 147 679 133 636 L180 612 C188 627 202 635 220 635 C265 635 302 594 364 594 L364 594 Z M57 0 L187 0 L187 290 C187 352 217 419 294 419 C339 419 368 381 368 326 L368 0 L499 0 L499 326 C499 460 421 516 336 516 C247 516 197 457 181 418 L179 418 L179 503 L57 503 L57 0 Z " />
<glyph glyph-name="ograve" unicode="&#xf2;" horiz-adv-x="562" d="M314 542 L348 579 L195 739 L131 678 L314 542 Z M276 -9 C416 -9 530 89 530 256 C530 387 440 516 286 516 C153 516 31 424 31 256 C31 109 122 -9 276 -9 L276 -9 Z M280 79 C214 79 170 125 170 256 C170 393 227 427 280 427 C344 427 391 378 391 252 C391 118 340 79 280 79 L280 79 Z " />
<glyph glyph-name="oacute" unicode="&#xf3;" horiz-adv-x="562" d="M272 542 L455 678 L391 739 L237 579 L272 542 Z M276 -9 C416 -9 530 89 530 256 C530 387 440 516 286 516 C153 516 31 424 31 256 C31 109 122 -9 276 -9 L276 -9 Z M280 79 C214 79 170 125 170 256 C170 393 227 427 280 427 C344 427 391 378 391 252 C391 118 340 79 280 79 L280 79 Z " />
<glyph glyph-name="ocircumflex" unicode="&#xf4;" horiz-adv-x="562" d="M189 578 L286 639 L378 578 L438 597 L286 735 L124 597 L189 578 Z M276 -9 C416 -9 530 89 530 256 C530 387 440 516 286 516 C153 516 31 424 31 256 C31 109 122 -9 276 -9 L276 -9 Z M280 79 C214 79 170 125 170 256 C170 393 227 427 280 427 C344 427 391 378 391 252 C391 118 340 79 280 79 L280 79 Z " />
<glyph glyph-name="otilde" unicode="&#xf5;" horiz-adv-x="562" d="M364 594 C403 594 442 621 456 664 L408 688 C400 672 386 664 369 664 C322 664 285 707 225 707 C187 707 147 679 133 636 L180 612 C188 627 202 635 220 635 C265 635 303 594 364 594 L364 594 Z M276 -9 C416 -9 530 89 530 256 C530 387 440 516 286 516 C153 516 31 424 31 256 C31 109 122 -9 276 -9 L276 -9 Z M280 79 C214 79 170 125 170 256 C170 393 227 427 280 427 C344 427 391 378 391 252 C391 118 340 79 280 79 L280 79 Z " />
<glyph glyph-name="odieresis" unicode="&#xf6;" horiz-adv-x="562" d="M366 584 C398 584 425 608 425 641 C425 672 397 695 368 695 C336 695 310 672 310 641 C310 611 334 584 366 584 L366 584 Z M203 584 C235 584 262 608 262 641 C262 672 234 695 204 695 C174 695 148 672 148 641 C148 611 172 584 203 584 L203 584 Z M276 -9 C416 -9 530 89 530 256 C530 387 440 516 286 516 C153 516 31 424 31 256 C31 109 122 -9 276 -9 L276 -9 Z M280 79 C214 79 170 125 170 256 C170 393 227 427 280 427 C344 427 391 378 391 252 C391 118 340 79 280 79 L280 79 Z " />
<glyph glyph-name="divide" unicode="&#xf7;" horiz-adv-x="600" d="M235 420 L365 420 L365 546 L235 546 L235 420 Z M40 237 L552 237 L552 335 L40 335 L40 237 Z M235 26 L365 26 L365 153 L235 153 L235 26 Z " />
<glyph glyph-name="oslash" unicode="&#xf8;" horiz-adv-x="562" d="M6 -43 L90 -43 L144 28 C180 4 224 -9 276 -9 C416 -9 530 89 530 256 C530 323 507 389 465 437 L553 552 L469 552 L413 480 C378 503 335 516 286 516 C153 516 31 424 31 256 C31 183 54 118 94 70 L6 -43 Z M181 180 C174 201 170 226 170 256 C170 393 227 427 280 427 C307 427 331 418 349 399 L181 180 Z M280 79 C251 79 227 88 208 108 L379 329 C387 308 391 283 391 252 C391 118 340 79 280 79 L280 79 Z " />
<glyph glyph-name="ugrave" unicode="&#xf9;" horiz-adv-x="553" d="M314 542 L348 579 L195 739 L131 678 L314 542 Z M220 -11 C309 -11 356 47 372 86 L374 86 L374 0 L497 0 L497 503 L366 503 L366 213 C366 151 336 86 261 86 C216 86 187 120 187 176 L187 503 L57 503 L57 177 C57 41 133 -11 220 -11 L220 -11 Z " />
<glyph glyph-name="uacute" unicode="&#xfa;" horiz-adv-x="553" d="M268 542 L452 678 L388 739 L234 579 L268 542 Z M220 -11 C309 -11 356 47 372 86 L374 86 L374 0 L497 0 L497 503 L366 503 L366 213 C366 151 336 86 261 86 C216 86 187 120 187 176 L187 503 L57 503 L57 177 C57 41 133 -11 220 -11 L220 -11 Z " />
<glyph glyph-name="ucircumflex" unicode="&#xfb;" horiz-adv-x="553" d="M188 578 L285 639 L377 578 L437 597 L285 735 L123 597 L188 578 Z M220 -11 C309 -11 356 47 372 86 L374 86 L374 0 L497 0 L497 503 L366 503 L366 213 C366 151 336 86 261 86 C216 86 187 120 187 176 L187 503 L57 503 L57 177 C57 41 133 -11 220 -11 L220 -11 Z " />
<glyph glyph-name="udieresis" unicode="&#xfc;" horiz-adv-x="553" d="M365 584 C397 584 423 608 423 641 C423 672 396 695 367 695 C335 695 309 672 309 641 C309 611 333 584 365 584 L365 584 Z M202 584 C234 584 260 608 260 641 C260 672 233 695 203 695 C173 695 147 672 147 641 C147 611 171 584 202 584 L202 584 Z M220 -11 C309 -11 356 47 372 86 L374 86 L374 0 L497 0 L497 503 L366 503 L366 213 C366 151 336 86 261 86 C216 86 187 120 187 176 L187 503 L57 503 L57 177 C57 41 133 -11 220 -11 L220 -11 Z " />
<glyph glyph-name="yacute" unicode="&#xfd;" horiz-adv-x="479" d="M244 542 L428 678 L364 739 L211 579 L244 542 Z M103 -179 C186 -179 242 -140 277 -43 L473 503 L371 503 L259 163 L257 163 L148 503 L8 503 L190 10 L176 -28 C168 -56 142 -80 95 -80 C58 -80 26 -73 26 -73 L26 -171 C26 -171 53 -179 103 -179 L103 -179 Z " />
<glyph glyph-name="thorn" unicode="&#xfe;" horiz-adv-x="555" d="M57 -172 L187 -172 L187 56 L189 56 C209 24 256 -9 317 -9 C437 -9 525 94 525 256 C525 381 471 516 328 516 C252 516 195 465 179 421 L177 421 L177 679 L57 679 L57 -172 Z M288 80 C235 80 187 121 187 204 L187 293 C187 387 241 423 288 423 C346 423 387 364 387 252 C387 127 339 80 288 80 L288 80 Z " />
<glyph glyph-name="ydieresis" unicode="&#xff;" horiz-adv-x="479" d="M337 584 C368 584 395 608 395 641 C395 672 367 695 338 695 C307 695 280 672 280 641 C280 611 305 584 337 584 L337 584 Z M174 584 C206 584 232 608 232 641 C232 672 205 695 175 695 C144 695 118 672 118 641 C118 611 142 584 174 584 L174 584 Z M103 -179 C186 -179 242 -140 277 -43 L473 503 L371 503 L259 163 L257 163 L148 503 L8 503 L190 10 L176 -28 C168 -56 142 -80 95 -80 C58 -80 26 -73 26 -73 L26 -171 C26 -171 53 -179 103 -179 L103 -179 Z " />
<glyph glyph-name="dotlessi" unicode="&#x131;" horiz-adv-x="269" d="M69 0 L199 0 L199 503 L69 503 L69 0 Z " />
<glyph glyph-name="Lslash" unicode="&#x141;" horiz-adv-x="514" d="M67 0 L499 0 L499 114 L207 114 L207 326 L320 439 L268 492 L207 431 L207 679 L67 679 L67 291 L-41 183 L12 130 L67 185 L67 0 Z " />
<glyph glyph-name="lslash" unicode="&#x142;" horiz-adv-x="267" d="M69 0 L199 0 L199 338 L320 458 L267 511 L199 444 L199 679 L69 679 L69 313 L-44 200 L9 147 L69 208 L69 0 Z " />
<glyph glyph-name="OE" unicode="&#x152;" horiz-adv-x="898" d="M341 0 L858 0 L858 113 L557 113 L557 298 L784 298 L784 405 L557 405 L557 568 L850 568 L850 679 L334 679 C131 679 32 516 32 331 C32 171 138 0 341 0 L341 0 Z M351 109 C253 109 177 187 177 336 C177 519 270 570 360 570 L417 570 L417 109 L351 109 Z " />
<glyph glyph-name="oe" unicode="&#x153;" horiz-adv-x="919" d="M276 -9 C354 -9 417 23 457 81 L459 81 C495 27 552 -9 635 -9 C758 -9 848 48 879 146 L762 169 C745 107 688 85 651 85 C586 85 532 128 531 233 L885 233 L885 254 C885 395 800 516 641 516 C563 516 503 482 463 423 L461 423 C426 478 368 516 286 516 C153 516 31 424 31 256 C31 109 122 -9 276 -9 L276 -9 Z M533 307 C537 391 589 430 643 430 C706 430 749 388 750 307 L533 307 Z M280 79 C214 79 170 125 170 256 C170 393 227 427 280 427 C344 427 391 378 391 252 C391 118 340 79 280 79 L280 79 Z " />
<glyph glyph-name="Scaron" unicode="&#x160;" horiz-adv-x="614" d="M313 736 L465 875 L405 893 L313 833 L216 893 L151 875 L313 736 Z M310 -9 C494 -9 586 86 586 204 C586 313 511 385 354 410 C222 431 192 459 192 505 C192 553 241 586 303 586 C378 586 431 545 447 488 L566 522 C545 605 459 689 310 689 C149 689 56 602 56 482 C56 387 121 315 287 285 C397 265 441 242 441 189 C441 130 393 99 315 99 C211 99 159 163 148 214 L22 189 C41 109 114 -9 310 -9 L310 -9 Z " />
<glyph glyph-name="scaron" unicode="&#x161;" horiz-adv-x="503" d="M269 577 L421 716 L361 735 L269 674 L172 735 L107 716 L269 577 Z M254 -9 C405 -9 484 63 484 156 C484 254 404 304 278 314 C180 323 158 339 158 375 C158 406 186 429 243 429 C317 429 348 396 360 364 L462 389 C440 469 356 516 248 516 C128 516 38 453 38 357 C38 261 110 220 232 201 C336 185 360 170 360 136 C360 107 330 79 259 79 C185 79 133 108 124 157 L16 133 C32 69 97 -9 254 -9 L254 -9 Z " />
<glyph glyph-name="Ydieresis" unicode="&#x178;" horiz-adv-x="586" d="M391 734 C422 734 449 758 449 791 C449 822 421 845 393 845 C361 845 335 822 335 791 C335 760 359 734 391 734 L391 734 Z M228 734 C260 734 286 758 286 791 C286 822 259 845 229 845 C199 845 172 822 172 791 C172 760 197 734 228 734 L228 734 Z M226 0 L366 0 L366 290 L586 679 L463 679 L313 397 L311 397 L159 679 L1 679 L226 289 L226 0 Z " />
<glyph glyph-name="Zcaron" unicode="&#x17d;" horiz-adv-x="594" d="M312 736 L464 875 L404 893 L312 833 L215 893 L150 875 L312 736 Z M39 0 L557 0 L557 112 L209 112 L209 115 L544 586 L544 679 L58 679 L58 569 L376 569 L376 567 L39 102 L39 0 Z " />
<glyph glyph-name="zcaron" unicode="&#x17e;" horiz-adv-x="443" d="M244 577 L396 716 L336 735 L244 674 L147 735 L82 716 L244 577 Z M18 0 L423 0 L423 89 L170 89 L170 91 L423 433 L423 503 L42 503 L42 416 L261 416 L261 414 L18 83 L18 0 Z " />
<glyph glyph-name="florin" unicode="&#x192;" horiz-adv-x="600" d="M57 -178 C143 -178 234 -141 271 -3 L346 276 L520 276 L520 363 L368 363 L410 521 C426 578 453 595 494 595 C528 595 561 582 561 582 L590 671 C590 671 545 689 491 689 C399 689 314 650 279 523 L237 363 L93 363 L93 276 L214 276 L143 15 C124 -57 99 -78 49 -78 C23 -78 -1 -71 -1 -71 L-29 -160 C-29 -160 -6 -178 57 -178 L57 -178 Z " />
<glyph glyph-name="circumflex" unicode="&#x2c6;" horiz-adv-x="562" d="M189 578 L286 639 L378 578 L438 597 L286 735 L124 597 L189 578 Z " />
<glyph glyph-name="caron" unicode="&#x2c7;" horiz-adv-x="562" d="M286 577 L438 716 L378 735 L286 674 L189 735 L124 716 L286 577 Z " />
<glyph glyph-name="breve" unicode="&#x2d8;" horiz-adv-x="491" d="M255 582 C331 582 408 621 429 715 L366 715 C345 668 301 652 254 652 C210 652 157 667 141 715 L72 715 C98 614 172 582 255 582 L255 582 Z " />
<glyph glyph-name="dotaccent" unicode="&#x2d9;" horiz-adv-x="269" d="M64 574 L204 574 L204 683 L64 683 L64 574 Z " />
<glyph glyph-name="ring" unicode="&#x2da;" horiz-adv-x="553" d="M287 560 C338 560 380 598 380 649 C380 699 338 738 287 738 C236 738 194 699 194 649 C194 598 236 560 287 560 L287 560 Z M287 597 C259 597 236 619 236 648 C236 676 255 699 287 699 C317 699 338 676 338 648 C338 619 315 597 287 597 L287 597 Z " />
<glyph glyph-name="ogonek" unicode="&#x2db;" horiz-adv-x="467" d="M225 -143 C266 -143 301 -124 321 -108 L298 -77 C285 -86 266 -94 242 -94 C219 -94 196 -82 196 -56 C196 -31 210 -15 236 -3 L236 0 L198 -5 C155 -22 129 -51 129 -79 C129 -125 182 -143 225 -143 L225 -143 Z " />
<glyph glyph-name="tilde" unicode="&#x2dc;" horiz-adv-x="562" d="M364 594 C403 594 442 621 456 664 L408 688 C400 672 386 664 369 664 C322 664 285 707 225 707 C187 707 147 679 133 636 L180 612 C188 627 202 635 220 635 C265 635 303 594 364 594 L364 594 Z " />
<glyph glyph-name="hungarumlaut" unicode="&#x2dd;" horiz-adv-x="610" d="M338 542 L522 678 L458 739 L304 579 L338 542 Z M170 542 L354 678 L290 739 L137 579 L170 542 Z " />
<glyph glyph-name="endash" unicode="&#x2013;" horiz-adv-x="485" d="M0 214 L485 214 L485 312 L0 312 L0 214 Z " />
<glyph glyph-name="emdash" unicode="&#x2014;" horiz-adv-x="980" d="M0 214 L980 214 L980 312 L0 312 L0 214 Z " />
<glyph glyph-name="quoteleft" unicode="&#x2018;" horiz-adv-x="288" d="M63 417 L202 417 L202 547 L139 547 L198 679 L142 679 L63 542 L63 417 Z " />
<glyph glyph-name="quoteright" unicode="&#x2019;" horiz-adv-x="288" d="M78 417 L134 417 L212 553 L212 679 L73 679 L73 549 L136 549 L78 417 Z " />
<glyph glyph-name="quotesinglbase" unicode="&#x201a;" horiz-adv-x="288" d="M78 -132 L134 -132 L212 5 L212 130 L73 130 L73 0 L136 0 L78 -132 Z " />
<glyph glyph-name="quotedblleft" unicode="&#x201c;" horiz-adv-x="477" d="M259 417 L398 417 L398 547 L336 547 L394 679 L338 679 L259 542 L259 417 Z M65 417 L204 417 L204 547 L142 547 L200 679 L144 679 L65 542 L65 417 Z " />
<glyph glyph-name="quotedblright" unicode="&#x201d;" horiz-adv-x="477" d="M271 417 L328 417 L406 553 L406 679 L267 679 L267 549 L330 549 L271 417 Z M78 417 L134 417 L212 553 L212 679 L73 679 L73 549 L136 549 L78 417 Z " />
<glyph glyph-name="quotedblbase" unicode="&#x201e;" horiz-adv-x="477" d="M271 -132 L328 -132 L406 5 L406 130 L267 130 L267 0 L330 0 L271 -132 Z M78 -132 L134 -132 L212 5 L212 130 L73 130 L73 0 L136 0 L78 -132 Z " />
<glyph glyph-name="dagger" unicode="&#x2020;" horiz-adv-x="548" d="M249 -170 L300 -170 L300 -115 C300 85 319 288 342 368 L300 419 L300 421 L511 396 L495 452 L511 506 L302 470 L341 680 L274 660 L205 680 L247 470 L37 506 L52 452 L38 396 L249 421 L249 420 L204 368 C224 309 244 85 248 -116 L249 -170 Z " />
<glyph glyph-name="daggerdbl" unicode="&#x2021;" horiz-adv-x="535" d="M249 -170 L300 -170 L300 -115 C300 19 319 133 342 213 L300 264 L300 266 L511 241 L495 297 L511 351 L309 316 L342 389 L300 434 L300 436 L511 411 L495 467 L511 522 L302 485 L341 680 L274 660 L205 680 L247 485 L37 522 L52 467 L38 411 L249 436 L249 435 L204 389 L240 316 L37 351 L52 297 L38 241 L249 266 L249 265 L204 213 C224 154 246 19 248 -116 L249 -170 Z " />
<glyph glyph-name="bullet" unicode="&#x2022;" horiz-adv-x="411" d="M205 151 C300 151 371 221 371 314 C371 407 300 479 205 479 C110 479 39 407 39 314 C39 219 110 151 205 151 L205 151 Z " />
<glyph glyph-name="ellipsis" unicode="&#x2026;" horiz-adv-x="872" d="M653 0 L799 0 L799 142 L653 142 L653 0 Z M363 0 L508 0 L508 142 L363 142 L363 0 Z M73 0 L218 0 L218 142 L73 142 L73 0 Z " />
<glyph glyph-name="perthousand" unicode="&#x2030;" horiz-adv-x="990" d="M164 335 C261 335 305 426 305 511 C305 599 262 689 162 689 C64 689 22 599 22 511 C22 426 67 335 164 335 L164 335 Z M80 0 L170 0 L582 679 L493 679 L80 0 Z M825 -10 C922 -10 966 81 966 166 C966 254 923 344 823 344 C725 344 683 254 683 166 C683 81 728 -10 825 -10 L825 -10 Z M506 -10 C603 -10 647 81 647 166 C647 254 604 344 504 344 C406 344 364 254 364 166 C364 81 409 -10 506 -10 L506 -10 Z M164 401 C108 401 101 470 101 511 C101 560 109 623 162 623 C217 623 225 560 225 511 C225 470 218 401 164 401 L164 401 Z M825 56 C770 56 763 125 763 166 C763 214 771 278 823 278 C878 278 887 214 887 166 C887 125 880 56 825 56 L825 56 Z M506 56 C451 56 444 125 444 166 C444 214 451 278 504 278 C559 278 568 214 568 166 C568 125 560 56 506 56 L506 56 Z " />
<glyph glyph-name="guilsinglleft" unicode="&#x2039;" horiz-adv-x="248" d="M131 106 L190 106 L142 256 L190 400 L130 400 L40 256 L131 106 Z " />
<glyph glyph-name="guilsinglright" unicode="&#x203a;" horiz-adv-x="248" d="M48 106 L106 106 L198 256 L107 400 L48 400 L96 256 L48 106 Z " />
<glyph glyph-name="fraction" unicode="&#x2044;" horiz-adv-x="140" d="M-178 0 L-85 0 L326 679 L233 679 L-178 0 Z " />
<glyph glyph-name="Euro" unicode="&#x20ac;" horiz-adv-x="600" d="M351 -9 C492 -9 571 103 591 226 L471 242 C460 157 424 91 351 91 C275 91 245 158 233 228 L337 228 L363 313 L222 313 C221 324 221 334 221 342 C221 348 221 354 221 360 L379 360 L405 446 L229 446 C240 518 268 589 343 589 C425 589 455 522 467 436 L592 452 C571 576 497 689 343 689 C196 689 124 575 100 446 L11 446 L11 360 L91 360 C91 353 91 346 91 339 C91 330 91 322 91 313 L11 313 L11 228 L102 228 C129 101 205 -9 351 -9 L351 -9 Z " />
<glyph glyph-name="trademark" unicode="&#x2122;" horiz-adv-x="825" d="M343 279 L411 279 L411 560 L413 560 L521 279 L583 279 L681 560 L683 560 L683 279 L768 279 L768 680 L660 680 L562 408 L560 408 L455 680 L343 680 L343 279 Z M110 279 L198 279 L198 604 L296 604 L296 680 L12 680 L12 604 L110 604 L110 279 Z " />
<glyph glyph-name="partialdiff" unicode="&#x2202;" horiz-adv-x="562" d="M276 -9 C416 -9 530 89 530 263 C530 520 315 701 204 729 L152 651 C225 636 352 565 394 479 L392 479 C374 497 328 516 283 516 C153 516 31 424 31 256 C31 109 122 -9 276 -9 L276 -9 Z M280 79 C214 79 170 125 170 256 C170 393 227 427 280 427 C344 427 391 378 391 252 C391 118 340 79 280 79 L280 79 Z " />
<glyph glyph-name="minus" unicode="&#x2212;" horiz-adv-x="600" d="M40 237 L552 237 L552 335 L40 335 L40 237 Z " />
<glyph glyph-name="integral" unicode="&#x222b;" horiz-adv-x="600" d="M57 -178 C143 -178 234 -141 271 -3 L410 521 C426 578 453 595 494 595 C528 595 561 582 561 582 L590 671 C590 671 545 689 491 689 C399 689 314 650 279 523 L143 15 C124 -57 99 -78 49 -78 C23 -78 -1 -71 -1 -71 L-29 -160 C-29 -160 -6 -178 57 -178 L57 -178 Z " />
<glyph glyph-name="fi" unicode="&#xfb01;" horiz-adv-x="593" d="M386 574 L526 574 L526 683 L386 683 L386 574 Z M87 0 L217 0 L217 409 L338 409 L338 497 L217 497 L217 521 C217 578 241 593 282 593 C300 593 360 588 360 588 L360 684 C360 684 276 689 249 689 C164 689 87 651 87 523 L87 497 L9 497 L9 409 L87 409 L87 0 Z M391 0 L521 0 L521 503 L391 503 L391 0 Z " />
<glyph glyph-name="fl" unicode="&#xfb02;" horiz-adv-x="589" d="M87 0 L217 0 L217 409 L332 409 L332 497 L217 497 L217 521 C217 578 241 595 282 595 C319 595 360 587 360 587 L360 678 C360 678 301 689 249 689 C164 689 87 651 87 523 L87 497 L9 497 L9 409 L87 409 L87 0 Z M389 0 L519 0 L519 679 L389 679 L389 0 Z " />
</font>
</svg>
