<?xml version="1.0" encoding="UTF-8"?>
<svg xmlns="http://www.w3.org/2000/svg" xmlns:xlink="http://www.w3.org/1999/xlink" version="1.2" >
<font id="TeeFranklin-Book">
<font-face  font-family="TeeFranklin" units-per-em="1000" ascent="750" descent="-250" font-style="normal" font-weight="400" font-stretch="normal" cap-height="700" x-height="500" underline-position="-90" underline-thickness="20" />
<missing-glyph  horiz-adv-x="500" d="" />
<glyph glyph-name="NULL" d="" />
<glyph glyph-name="CR" unicode="&#xd;" horiz-adv-x="250" d="" />
<glyph glyph-name="space" unicode="&#x20;" horiz-adv-x="290" d="" />
<glyph glyph-name="exclam" unicode="&#x21;" horiz-adv-x="238" d="M102 158 L134 158 L164 679 L75 679 L102 158 Z M81 0 L158 0 L158 78 L81 78 L81 0 Z " />
<glyph glyph-name="quotedbl" unicode="&#x22;" horiz-adv-x="372" d="M237 437 L282 437 L295 564 L295 679 L223 679 L223 564 L237 437 Z M94 437 L139 437 L151 564 L151 679 L81 679 L81 564 L94 437 Z " />
<glyph glyph-name="numbersign" unicode="&#x23;" horiz-adv-x="593" d="M114 0 L163 0 L205 221 L339 221 L299 0 L350 0 L390 221 L524 221 L524 268 L401 268 L428 421 L556 421 L556 468 L439 468 L476 679 L424 679 L386 468 L252 468 L290 679 L240 679 L202 468 L67 468 L67 421 L191 421 L164 268 L33 268 L33 221 L154 221 L114 0 Z M215 268 L242 421 L377 421 L350 268 L215 268 Z " />
<glyph glyph-name="dollar" unicode="&#x24;" horiz-adv-x="593" d="M266 -74 L312 -74 L312 13 C453 17 529 92 529 198 C529 299 457 356 312 382 L312 624 C392 613 441 561 454 497 L507 510 C492 597 422 665 312 673 L312 750 L266 750 L266 673 C145 665 79 591 79 504 C79 414 134 354 266 329 L266 65 C156 78 108 160 101 207 L47 195 C57 139 108 26 266 13 L266 -74 Z M266 391 C164 414 138 454 138 510 C138 570 190 618 266 624 L266 391 Z M312 64 L312 320 C415 298 466 263 466 194 C466 111 405 68 312 64 L312 64 Z " />
<glyph glyph-name="percent" unicode="&#x25;" horiz-adv-x="658" d="M161 342 C258 342 302 429 302 514 C302 602 259 689 159 689 C61 689 19 602 19 514 C19 429 64 342 161 342 L161 342 Z M81 0 L138 0 L567 679 L512 679 L81 0 Z M490 -9 C587 -9 632 78 632 163 C632 251 588 337 488 337 C390 337 348 251 348 163 C348 78 393 -9 490 -9 L490 -9 Z M161 381 C86 381 65 456 65 514 C65 579 86 649 159 649 C233 649 255 579 255 514 C255 456 235 381 161 381 L161 381 Z M490 29 C416 29 395 104 395 163 C395 227 415 298 488 298 C562 298 585 227 585 163 C585 104 564 29 490 29 L490 29 Z " />
<glyph glyph-name="ampersand" unicode="&#x26;" horiz-adv-x="651" d="M246 -9 C320 -9 379 13 433 57 C469 18 493 -3 548 -3 C572 -3 615 5 615 5 L615 57 C615 57 579 51 554 51 C517 51 495 63 471 93 C534 158 585 258 603 359 L549 368 C536 283 500 195 442 132 L285 373 C373 411 443 463 443 549 C443 636 372 689 289 689 C205 689 142 631 142 550 C142 498 172 448 208 392 C107 353 30 296 30 185 C30 74 114 -9 246 -9 L246 -9 Z M260 411 L253 422 C222 468 197 506 197 554 C197 603 238 641 290 641 C346 641 392 602 392 546 C392 481 346 447 260 411 L260 411 Z M252 39 C158 39 94 96 94 189 C94 281 161 327 233 355 L404 95 C363 58 311 39 252 39 L252 39 Z " />
<glyph glyph-name="quotesingle" unicode="&#x27;" horiz-adv-x="232" d="M94 437 L139 437 L151 564 L151 679 L81 679 L81 564 L94 437 Z " />
<glyph glyph-name="parenleft" unicode="&#x28;" horiz-adv-x="288" d="M207 -169 L246 -169 C166 -45 116 99 116 260 C116 415 166 560 245 680 L206 680 C121 562 60 416 60 257 C60 98 115 -57 207 -169 L207 -169 Z " />
<glyph glyph-name="parenright" unicode="&#x29;" horiz-adv-x="288" d="M47 -169 L85 -169 C177 -57 232 98 232 257 C232 416 171 562 86 680 L48 680 C126 560 177 415 177 260 C177 99 127 -45 47 -169 L47 -169 Z " />
<glyph glyph-name="asterisk" unicode="&#x2a;" horiz-adv-x="403" d="M224 327 L272 341 L207 495 L373 478 L373 527 L208 513 L272 664 L227 679 L190 519 L65 627 L38 587 L180 503 L38 416 L68 377 L190 486 L224 327 Z " />
<glyph glyph-name="plus" unicode="&#x2b;" horiz-adv-x="593" d="M268 35 L318 35 L318 264 L545 264 L545 312 L318 312 L318 541 L268 541 L268 312 L40 312 L40 264 L268 264 L268 35 Z " />
<glyph glyph-name="comma" unicode="&#x2c;" horiz-adv-x="242" d="M64 -118 L93 -118 L163 8 L163 84 L81 84 L81 0 L117 0 L64 -118 Z " />
<glyph glyph-name="hyphen" unicode="&#x2d;" horiz-adv-x="240" d="M11 232 L223 232 L223 279 L11 279 L11 232 Z " />
<glyph glyph-name="period" unicode="&#x2e;" horiz-adv-x="255" d="M87 0 L169 0 L169 82 L87 82 L87 0 Z " />
<glyph glyph-name="slash" unicode="&#x2f;" horiz-adv-x="504" d="M19 -169 L70 -169 L486 680 L434 680 L19 -169 Z " />
<glyph glyph-name="zero" unicode="0" horiz-adv-x="593" d="M299 -9 C475 -9 550 174 550 340 C550 525 469 689 293 689 C113 689 41 504 41 338 C41 171 118 -9 299 -9 L299 -9 Z M299 40 C149 40 107 208 107 342 C107 472 148 640 293 640 C446 640 485 465 485 332 C485 198 443 40 299 40 L299 40 Z " />
<glyph glyph-name="one" unicode="1" horiz-adv-x="593" d="M90 0 L549 0 L549 47 L359 47 L359 679 L311 679 C264 611 185 543 104 515 L104 453 C183 484 253 547 295 601 L297 601 L297 47 L90 47 L90 0 Z " />
<glyph glyph-name="two" unicode="2" horiz-adv-x="593" d="M50 0 L526 0 L526 52 L139 52 L139 54 L360 225 C447 292 525 377 525 482 C525 614 412 689 295 689 C168 689 75 613 52 491 L111 476 C123 568 192 638 293 638 C381 638 462 578 462 482 C462 384 392 318 306 251 L50 49 L50 0 Z " />
<glyph glyph-name="three" unicode="3" horiz-adv-x="593" d="M287 -9 C423 -9 541 59 541 188 C541 282 469 344 380 357 L380 359 C452 371 514 435 514 510 C514 633 407 689 295 689 C186 689 91 635 58 535 L115 520 C140 594 206 640 290 640 C376 640 450 598 450 507 C450 431 387 379 290 379 L199 379 L199 330 L286 330 C397 330 475 275 475 188 C475 85 381 41 285 41 C189 41 117 81 91 174 L33 154 C65 44 170 -9 287 -9 L287 -9 Z " />
<glyph glyph-name="four" unicode="4" horiz-adv-x="593" d="M378 0 L440 0 L440 166 L557 166 L557 215 L440 215 L440 679 L362 679 L36 210 L36 166 L378 166 L378 0 Z M101 215 L101 217 L376 625 L378 625 L378 215 L101 215 Z " />
<glyph glyph-name="five" unicode="5" horiz-adv-x="593" d="M279 -9 C427 -9 536 82 536 231 C536 364 433 458 303 458 C224 458 167 420 135 381 L133 381 L153 623 L492 623 L498 679 L106 679 L81 322 L133 311 C158 363 220 407 300 407 C400 407 475 333 475 231 C475 111 399 41 281 41 C192 41 122 92 100 169 L45 150 C72 51 173 -9 279 -9 L279 -9 Z " />
<glyph glyph-name="six" unicode="6" horiz-adv-x="593" d="M300 -9 C430 -9 544 86 544 221 C544 351 451 444 317 444 C212 444 126 372 101 301 L99 301 C105 477 152 637 313 637 C406 637 453 591 472 529 L529 544 C504 630 436 689 315 689 C139 689 48 532 48 296 C48 146 122 -9 300 -9 L300 -9 Z M298 42 C194 42 115 123 115 227 C115 314 204 394 308 394 C410 394 484 322 484 219 C484 110 398 42 298 42 L298 42 Z " />
<glyph glyph-name="seven" unicode="7" horiz-adv-x="593" d="M207 0 L271 0 L271 23 C271 244 378 471 524 638 L524 679 L84 679 L76 623 L458 623 L458 621 C313 460 206 227 207 0 L207 0 Z " />
<glyph glyph-name="eight" unicode="8" horiz-adv-x="593" d="M300 -9 C419 -9 554 46 554 181 C554 282 451 337 372 366 L372 368 C447 391 524 443 524 528 C524 635 423 689 302 689 C194 689 70 643 70 521 C70 437 154 380 223 359 L223 357 C143 331 36 270 36 173 C36 47 174 -9 300 -9 L300 -9 Z M298 387 C226 403 134 446 134 526 C134 613 225 641 303 641 C390 641 469 611 469 524 C469 443 372 406 298 387 L298 387 Z M299 39 C208 39 98 73 98 173 C98 260 210 316 293 333 C376 311 491 264 491 172 C491 75 383 39 299 39 L299 39 Z " />
<glyph glyph-name="nine" unicode="9" horiz-adv-x="593" d="M263 -9 C436 -9 532 148 532 373 C532 534 458 689 277 689 C144 689 36 595 36 460 C36 329 129 236 264 236 C374 236 453 304 477 375 L479 375 C476 204 424 43 265 43 C172 43 124 89 108 144 L54 125 C78 50 142 -9 263 -9 L263 -9 Z M273 286 C169 286 95 358 95 463 C95 571 182 638 279 638 C386 638 464 551 464 447 C464 363 379 286 273 286 L273 286 Z " />
<glyph glyph-name="colon" unicode="&#x3a;" horiz-adv-x="255" d="M87 421 L169 421 L169 503 L87 503 L87 421 Z M87 0 L169 0 L169 82 L87 82 L87 0 Z " />
<glyph glyph-name="semicolon" unicode="&#x3b;" horiz-adv-x="242" d="M81 421 L162 421 L162 503 L81 503 L81 421 Z M64 -118 L93 -118 L163 8 L163 84 L81 84 L81 0 L117 0 L64 -118 Z " />
<glyph glyph-name="less" unicode="&#x3c;" horiz-adv-x="593" d="M532 70 L532 118 L116 285 L116 287 L532 454 L532 501 L48 300 L48 271 L532 70 Z " />
<glyph glyph-name="equal" unicode="&#x3d;" horiz-adv-x="593" d="M42 356 L543 356 L543 403 L42 403 L42 356 Z M42 174 L543 174 L543 221 L42 221 L42 174 Z " />
<glyph glyph-name="greater" unicode="&#x3e;" horiz-adv-x="593" d="M52 70 L536 271 L536 300 L52 501 L52 454 L467 287 L467 285 L52 118 L52 70 Z " />
<glyph glyph-name="question" unicode="&#x3f;" horiz-adv-x="483" d="M193 159 L247 159 L247 217 C247 280 275 297 312 316 C404 362 456 419 456 503 C456 624 355 689 242 689 C121 689 35 613 21 495 L77 484 C89 573 146 637 238 637 C320 637 391 590 391 502 C391 439 353 396 273 355 C217 327 193 295 193 211 L193 159 Z M185 0 L260 0 L260 74 L185 74 L185 0 Z " />
<glyph glyph-name="at" unicode="&#x40;" horiz-adv-x="766" d="M383 -109 C459 -109 499 -94 499 -94 L486 -60 C486 -60 453 -73 383 -73 C201 -73 84 77 84 252 C84 432 206 574 391 574 C570 574 676 443 676 241 C676 129 641 26 582 26 C558 26 541 52 541 123 L541 317 C541 431 470 458 389 458 C294 458 247 417 237 352 L282 345 C294 400 336 421 393 421 C446 421 494 406 494 322 L494 296 L419 296 C293 296 225 249 225 170 C225 102 278 54 360 54 C444 54 480 100 492 133 L494 133 C494 35 519 -10 580 -10 C675 -10 721 137 721 241 C721 463 591 609 391 609 C186 609 40 454 40 252 C40 56 179 -109 383 -109 L383 -109 Z M369 91 C315 91 276 121 276 168 C276 236 340 260 433 260 L494 260 L494 227 C494 149 445 91 369 91 L369 91 Z " />
<glyph glyph-name="A" unicode="A" horiz-adv-x="537" d="M10 0 L64 0 L130 205 L395 205 L462 0 L529 0 L305 679 L231 679 L10 0 Z M146 254 L261 610 L263 610 L379 254 L146 254 Z " />
<glyph glyph-name="B" unicode="B" horiz-adv-x="587" d="M79 0 L325 0 C437 0 547 45 547 186 C547 285 475 348 387 357 L387 359 C462 372 519 428 519 514 C519 631 423 679 312 679 L79 679 L79 0 Z M143 378 L143 627 L301 627 C390 627 456 596 456 507 C456 417 380 378 295 378 L143 378 Z M143 54 L143 330 L316 330 C406 330 484 290 484 189 C484 86 401 54 314 54 L143 54 Z " />
<glyph glyph-name="C" unicode="C" horiz-adv-x="595" d="M311 -9 C451 -9 528 90 558 214 L499 227 C473 108 403 43 311 43 C197 43 107 150 107 335 C107 523 187 637 315 637 C413 637 472 563 496 458 L557 470 C529 587 456 689 311 689 C113 689 40 500 40 335 C40 177 115 -9 311 -9 L311 -9 Z " />
<glyph glyph-name="D" unicode="D" horiz-adv-x="623" d="M80 0 L304 0 C493 0 583 165 583 348 C583 500 495 679 297 679 L80 679 L80 0 Z M144 53 L144 625 L292 625 C423 625 518 523 518 345 C518 122 398 53 282 53 L144 53 Z " />
<glyph glyph-name="E" unicode="E" horiz-adv-x="558" d="M80 0 L513 0 L513 54 L144 54 L144 329 L430 329 L430 380 L144 380 L144 624 L500 624 L500 679 L80 679 L80 0 Z " />
<glyph glyph-name="F" unicode="F" horiz-adv-x="476" d="M80 0 L144 0 L144 328 L427 328 L427 380 L144 380 L144 624 L486 624 L486 679 L80 679 L80 0 Z " />
<glyph glyph-name="G" unicode="G" horiz-adv-x="640" d="M311 -9 C426 -9 485 53 513 106 L515 106 L537 0 L571 0 L571 332 L320 332 L320 280 L506 280 L506 240 C506 126 438 43 315 43 C197 43 107 148 107 335 C107 523 192 637 318 637 C417 637 484 572 504 476 L565 490 C538 602 455 689 324 689 C125 689 40 504 40 335 C40 173 115 -9 311 -9 L311 -9 Z " />
<glyph glyph-name="H" unicode="H" horiz-adv-x="622" d="M80 0 L144 0 L144 330 L479 330 L479 0 L543 0 L543 679 L479 679 L479 385 L144 385 L144 679 L80 679 L80 0 Z " />
<glyph glyph-name="I" unicode="I" horiz-adv-x="231" d="M84 0 L148 0 L148 679 L84 679 L84 0 Z " />
<glyph glyph-name="J" unicode="J" horiz-adv-x="356" d="M94 -9 C202 -9 276 50 276 201 L276 680 L212 680 L212 194 C212 83 168 45 86 45 C36 45 -5 57 -5 57 L-5 4 C-5 4 32 -9 94 -9 L94 -9 Z " />
<glyph glyph-name="K" unicode="K" horiz-adv-x="597" d="M80 0 L144 0 L144 188 L289 371 L519 0 L593 0 L331 421 L537 679 L468 679 L146 266 L144 266 L144 679 L80 679 L80 0 Z " />
<glyph glyph-name="L" unicode="L" horiz-adv-x="488" d="M80 0 L475 0 L475 56 L144 56 L144 679 L80 679 L80 0 Z " />
<glyph glyph-name="M" unicode="M" horiz-adv-x="796" d="M80 0 L133 0 L133 606 L137 606 L373 0 L419 0 L649 606 L653 606 L653 0 L716 0 L716 679 L626 679 L403 97 L401 97 L173 679 L80 679 L80 0 Z " />
<glyph glyph-name="N" unicode="N" horiz-adv-x="643" d="M80 0 L133 0 L133 609 L135 609 L502 0 L563 0 L563 679 L511 679 L511 97 L509 97 L158 679 L80 679 L80 0 Z " />
<glyph glyph-name="O" unicode="O" horiz-adv-x="625" d="M315 -9 C505 -9 585 182 585 348 C585 500 509 689 312 689 C115 689 40 490 40 335 C40 174 117 -9 315 -9 L315 -9 Z M315 42 C195 42 107 153 107 335 C107 520 187 637 317 637 C450 637 518 504 518 345 C518 155 435 42 315 42 L315 42 Z " />
<glyph glyph-name="P" unicode="P" horiz-adv-x="530" d="M80 0 L144 0 L144 286 L299 286 C415 286 515 347 515 484 C515 614 421 679 299 679 L80 679 L80 0 Z M144 337 L144 625 L297 625 C388 625 451 579 451 481 C451 382 379 337 292 337 L144 337 Z " />
<glyph glyph-name="Q" unicode="Q" horiz-adv-x="625" d="M465 -162 C508 -162 535 -149 535 -149 L535 -100 C535 -100 498 -107 455 -107 C413 -107 368 -86 366 -3 C520 27 588 191 588 348 C588 500 511 689 314 689 C117 689 40 490 40 335 C40 174 118 -8 316 -9 C321 -119 379 -162 465 -162 L465 -162 Z M362 50 C356 172 298 223 240 223 C194 223 156 195 150 149 L148 149 C122 197 107 257 107 335 C107 523 190 637 318 637 C449 637 521 506 521 345 C521 178 456 74 362 50 L362 50 Z M312 42 C250 43 176 74 176 126 C176 156 194 180 234 180 C276 180 310 138 312 42 L312 42 Z " />
<glyph glyph-name="R" unicode="R" horiz-adv-x="572" d="M80 0 L144 0 L144 304 L325 304 L472 0 L541 0 L384 317 C461 333 528 385 528 493 C528 623 433 679 311 679 L80 679 L80 0 Z M144 356 L144 625 L309 625 C400 625 464 588 464 491 C464 392 392 356 305 356 L144 356 Z " />
<glyph glyph-name="S" unicode="S" horiz-adv-x="564" d="M290 -9 C449 -9 535 71 535 188 C535 295 458 357 296 384 C157 407 122 452 122 517 C122 586 188 639 278 639 C380 639 442 577 457 503 L514 517 C496 614 412 689 283 689 C139 689 60 607 60 510 C60 413 122 349 264 324 C403 300 469 264 469 183 C469 90 396 44 290 44 C152 44 93 142 85 196 L27 184 C38 122 98 -9 290 -9 L290 -9 Z " />
<glyph glyph-name="T" unicode="T" horiz-adv-x="488" d="M213 0 L276 0 L276 623 L479 623 L479 679 L10 679 L10 623 L213 623 L213 0 Z " />
<glyph glyph-name="U" unicode="U" horiz-adv-x="619" d="M310 -9 C446 -9 539 67 539 230 L539 679 L486 679 L486 230 C486 95 412 47 314 47 C217 47 144 91 144 226 L144 679 L80 679 L80 230 C80 62 170 -9 310 -9 L310 -9 Z " />
<glyph glyph-name="V" unicode="V" horiz-adv-x="520" d="M229 0 L290 0 L520 679 L464 679 L267 88 L265 88 L67 679 L0 679 L229 0 Z " />
<glyph glyph-name="W" unicode="W" horiz-adv-x="777" d="M174 0 L237 0 L387 563 L389 563 L545 0 L606 0 L777 679 L721 679 L581 92 L579 92 L418 679 L367 679 L214 95 L212 95 L68 679 L0 679 L174 0 Z " />
<glyph glyph-name="X" unicode="X" horiz-adv-x="541" d="M22 0 L80 0 L265 308 L267 308 L448 0 L520 0 L302 365 L495 679 L436 679 L276 411 L274 411 L115 679 L44 679 L238 354 L22 0 Z " />
<glyph glyph-name="Y" unicode="Y" horiz-adv-x="511" d="M224 0 L287 0 L287 299 L510 679 L450 679 L264 353 L262 353 L75 679 L1 679 L224 298 L224 0 Z " />
<glyph glyph-name="Z" unicode="Z" horiz-adv-x="549" d="M38 0 L510 0 L510 54 L112 54 L112 57 L498 636 L498 679 L65 679 L65 626 L423 626 L423 624 L38 54 L38 0 Z " />
<glyph glyph-name="bracketleft" unicode="&#x5b;" horiz-adv-x="243" d="M60 -169 L217 -169 L217 -128 L113 -128 L113 640 L217 640 L217 680 L60 680 L60 -169 Z " />
<glyph glyph-name="backslash" unicode="&#x5c;" horiz-adv-x="504" d="M433 -169 L483 -169 L72 680 L21 680 L433 -169 Z " />
<glyph glyph-name="bracketright" unicode="&#x5d;" horiz-adv-x="243" d="M27 -169 L184 -169 L184 680 L27 680 L27 640 L132 640 L132 -128 L27 -128 L27 -169 Z " />
<glyph glyph-name="asciicircum" unicode="&#x5e;" horiz-adv-x="593" d="M97 255 L146 255 L285 612 L287 612 L426 255 L474 255 L305 679 L266 679 L97 255 Z " />
<glyph glyph-name="underscore" unicode="&#x5f;" horiz-adv-x="460" d="M0 -118 L460 -118 L460 -81 L0 -81 L0 -118 Z " />
<glyph glyph-name="grave" unicode="&#x60;" horiz-adv-x="518" d="M306 545 L326 568 L166 722 L125 689 L306 545 Z " />
<glyph glyph-name="a" unicode="a" horiz-adv-x="516" d="M221 -9 C332 -9 378 52 395 96 L397 96 L408 0 L467 0 C467 0 456 58 456 91 L456 334 C456 481 377 516 272 516 C148 516 77 462 64 379 L118 370 C134 442 188 470 265 470 C335 470 398 451 398 340 L398 303 L299 303 C134 303 48 243 48 141 C48 53 116 -9 221 -9 L221 -9 Z M233 37 C161 37 111 75 111 138 C111 227 193 259 317 259 L398 259 L398 214 C398 111 334 37 233 37 L233 37 Z " />
<glyph glyph-name="b" unicode="b" horiz-adv-x="522" d="M274 -9 C403 -9 482 95 482 257 C482 376 435 516 285 516 C200 516 151 453 130 401 L128 401 L128 679 L70 679 L70 0 L96 0 L120 102 L122 102 C141 49 194 -9 274 -9 L274 -9 Z M277 38 C192 38 128 110 128 217 L128 289 C128 401 207 469 279 469 C371 469 420 382 420 254 C420 100 352 38 277 38 L277 38 Z " />
<glyph glyph-name="c" unicode="c" horiz-adv-x="475" d="M247 -9 C351 -9 420 58 442 169 L385 178 C368 84 315 40 250 40 C152 40 103 122 103 256 C103 409 173 467 253 467 C327 467 369 413 384 331 L440 340 C421 435 365 516 250 516 C126 516 40 412 40 256 C40 123 97 -9 247 -9 L247 -9 Z " />
<glyph glyph-name="d" unicode="d" horiz-adv-x="522" d="M238 -9 C323 -9 376 54 396 106 L398 106 L398 0 L453 0 L453 679 L395 679 L395 415 L393 415 C375 460 323 516 247 516 C121 516 40 412 40 250 C40 131 88 -9 238 -9 L238 -9 Z M244 39 C153 39 103 125 103 253 C103 407 172 469 247 469 C332 469 395 401 395 292 L395 218 C395 106 315 39 244 39 L244 39 Z " />
<glyph glyph-name="e" unicode="e" horiz-adv-x="518" d="M254 -9 C364 -9 442 44 473 141 L416 152 C392 68 319 39 265 39 C168 39 106 110 105 247 L478 247 L478 259 C478 393 416 516 265 516 C134 516 40 412 40 256 C40 119 105 -9 254 -9 L254 -9 Z M107 290 C113 414 187 470 264 470 C355 470 411 397 414 290 L107 290 Z " />
<glyph glyph-name="f" unicode="f" horiz-adv-x="283" d="M100 0 L158 0 L158 457 L274 457 L274 503 L158 503 L158 531 C158 604 183 639 239 639 C269 639 302 631 302 631 L302 678 C302 678 273 686 232 686 C156 686 100 642 100 527 L100 503 L13 503 L13 457 L100 457 L100 0 Z " />
<glyph glyph-name="g" unicode="g" horiz-adv-x="475" d="M231 -190 C425 -190 473 -111 473 -47 C473 19 421 70 318 74 L184 80 C129 82 99 95 99 132 C99 159 125 181 159 182 C172 182 193 173 224 173 C334 173 412 238 412 339 C412 394 387 444 359 468 C368 516 399 523 445 523 L459 523 L459 570 C459 570 444 574 434 574 C372 574 337 546 332 488 L330 488 C307 504 265 516 227 516 C141 516 41 468 41 344 C41 271 80 227 114 208 L114 206 C89 199 44 174 44 124 C44 83 72 56 96 45 L96 43 C58 32 9 0 9 -59 C9 -141 84 -190 231 -190 L231 -190 Z M227 219 C158 219 101 260 101 345 C101 420 155 469 227 469 C297 469 352 423 352 343 C352 264 303 219 227 219 L227 219 Z M234 -144 C119 -144 66 -105 66 -51 C66 -13 94 10 135 28 L313 20 C380 17 417 -10 417 -49 C417 -112 340 -144 234 -144 L234 -144 Z " />
<glyph glyph-name="h" unicode="h" horiz-adv-x="518" d="M70 0 L128 0 L128 301 C128 368 182 467 284 467 C338 467 390 432 390 339 L390 0 L448 0 L448 335 C448 468 369 516 292 516 C200 516 147 448 130 408 L128 408 L128 679 L70 679 L70 0 Z " />
<glyph glyph-name="i" unicode="i" horiz-adv-x="226" d="M80 591 L146 591 L146 657 L80 657 L80 591 Z M84 0 L142 0 L142 503 L84 503 L84 0 Z " />
<glyph glyph-name="j" unicode="j" horiz-adv-x="220" d="M80 591 L146 591 L146 657 L80 657 L80 591 Z M10 -178 C86 -178 141 -141 141 -13 L141 503 L83 503 L83 -16 C83 -98 59 -130 2 -130 C-28 -130 -57 -121 -57 -121 L-57 -169 C-57 -169 -32 -178 10 -178 L10 -178 Z " />
<glyph glyph-name="k" unicode="k" horiz-adv-x="470" d="M70 0 L128 0 L128 173 L230 284 L398 0 L463 0 L266 321 L436 503 L371 503 L130 240 L128 240 L128 679 L70 679 L70 0 Z " />
<glyph glyph-name="l" unicode="l" horiz-adv-x="222" d="M84 0 L142 0 L142 679 L84 679 L84 0 Z " />
<glyph glyph-name="m" unicode="m" horiz-adv-x="798" d="M70 0 L128 0 L128 301 C128 371 175 467 274 467 C325 467 370 430 370 339 L370 0 L428 0 L428 303 C428 373 475 467 574 467 C625 467 670 430 670 339 L670 0 L728 0 L728 335 C728 469 658 516 582 516 C493 516 436 440 421 398 L419 398 C401 484 344 516 282 516 C193 516 143 444 126 404 L124 404 L124 503 L70 503 L70 0 Z " />
<glyph glyph-name="n" unicode="n" horiz-adv-x="518" d="M70 0 L128 0 L128 301 C128 368 182 467 284 467 C338 467 390 432 390 339 L390 0 L448 0 L448 335 C448 469 369 516 292 516 C200 516 143 444 126 404 L124 404 L124 503 L70 503 L70 0 Z " />
<glyph glyph-name="o" unicode="o" horiz-adv-x="518" d="M254 -9 C387 -9 478 94 478 256 C478 375 418 516 264 516 C131 516 40 416 40 256 C40 121 100 -9 254 -9 L254 -9 Z M257 39 C156 39 104 123 104 256 C104 409 177 468 260 468 C360 468 414 381 414 253 C414 99 339 39 257 39 L257 39 Z " />
<glyph glyph-name="p" unicode="p" horiz-adv-x="519" d="M70 -172 L128 -172 L128 96 L130 96 C148 49 198 -9 277 -9 C403 -9 480 95 480 257 C480 376 435 516 285 516 C200 516 145 450 126 395 L124 395 L124 503 L70 503 L70 -172 Z M274 39 C194 39 128 113 128 217 L128 289 C128 399 206 467 277 467 C368 467 417 382 417 254 C417 100 348 39 274 39 L274 39 Z " />
<glyph glyph-name="q" unicode="q" horiz-adv-x="522" d="M394 -168 L452 -168 L452 503 L426 503 L400 403 L398 403 C377 460 322 516 247 516 C120 516 40 412 40 250 C40 131 87 -9 237 -9 C322 -9 371 52 392 106 L394 106 L394 -168 Z M245 39 C154 39 102 125 102 253 C102 407 173 469 249 469 C333 469 394 395 394 292 L394 222 C394 110 317 39 245 39 L245 39 Z " />
<glyph glyph-name="r" unicode="r" horiz-adv-x="301" d="M70 0 L128 0 L128 268 C128 358 175 458 280 458 L300 458 L300 513 C300 513 282 516 273 516 C193 516 148 453 126 384 L124 384 L124 503 L70 503 L70 0 Z " />
<glyph glyph-name="s" unicode="s" horiz-adv-x="453" d="M233 -9 C377 -9 431 69 431 140 C431 227 369 273 249 289 C132 304 101 327 101 383 C101 434 139 469 221 469 C308 469 344 423 356 379 L409 390 C391 469 323 516 223 516 C122 516 42 467 42 377 C42 290 94 253 216 233 C342 212 371 186 371 135 C371 87 334 39 237 39 C136 39 90 92 79 145 L22 133 C35 72 85 -9 233 -9 L233 -9 Z " />
<glyph glyph-name="t" unicode="t" horiz-adv-x="319" d="M232 -9 C273 -9 301 -3 301 -3 L301 44 C301 44 269 38 239 38 C183 38 161 73 161 146 L161 457 L277 457 L277 503 L161 503 L161 633 L103 622 L103 503 L17 503 L17 457 L103 457 L103 148 C103 32 154 -9 232 -9 L232 -9 Z " />
<glyph glyph-name="u" unicode="u" horiz-adv-x="516" d="M226 -10 C319 -10 373 61 390 101 L392 101 L392 0 L446 0 L446 503 L388 503 L388 203 C388 136 337 39 235 39 C180 39 128 70 128 165 L128 503 L70 503 L70 170 C70 33 147 -10 226 -10 L226 -10 Z " />
<glyph glyph-name="v" unicode="v" horiz-adv-x="415" d="M179 0 L240 0 L415 503 L362 503 L215 72 L213 72 L65 503 L0 503 L179 0 Z " />
<glyph glyph-name="w" unicode="w" horiz-adv-x="624" d="M149 0 L199 0 L310 407 L312 407 L432 0 L482 0 L624 503 L572 503 L457 92 L455 92 L337 503 L288 503 L178 92 L176 92 L60 503 L0 503 L149 0 Z " />
<glyph glyph-name="x" unicode="x" horiz-adv-x="416" d="M13 0 L70 0 L203 217 L205 217 L336 0 L405 0 L238 271 L384 503 L328 503 L212 315 L210 315 L96 503 L28 503 L177 261 L13 0 Z " />
<glyph glyph-name="y" unicode="y" horiz-adv-x="415" d="M71 -178 C126 -178 179 -147 205 -75 L410 503 L357 503 L213 83 L211 83 L70 503 L7 503 L183 4 L160 -58 C145 -99 120 -130 62 -130 C34 -130 12 -122 12 -122 L12 -170 C12 -170 30 -178 71 -178 L71 -178 Z " />
<glyph glyph-name="z" unicode="z" horiz-adv-x="402" d="M18 0 L382 0 L382 46 L90 46 L90 48 L382 470 L382 503 L43 503 L43 457 L304 457 L304 455 L18 46 L18 0 Z " />
<glyph glyph-name="braceleft" unicode="&#x7b;" horiz-adv-x="264" d="M184 -167 L234 -167 L234 -121 L191 -121 C163 -121 155 -95 155 -56 L155 119 C155 219 101 255 80 260 L80 262 C102 267 155 303 155 403 L155 581 C155 618 163 643 194 643 L234 643 L234 689 L187 689 C133 689 99 651 99 588 L99 414 C99 338 89 292 22 280 L22 242 C89 230 99 184 99 108 L99 -63 C99 -127 133 -167 184 -167 L184 -167 Z " />
<glyph glyph-name="bar" unicode="&#x7c;" horiz-adv-x="204" d="M81 -247 L123 -247 L123 743 L81 743 L81 -247 Z " />
<glyph glyph-name="braceright" unicode="&#x7d;" horiz-adv-x="264" d="M27 -167 L76 -167 C128 -167 161 -127 161 -63 L161 108 C161 184 171 230 238 242 L238 280 C171 292 161 339 161 414 L161 588 C161 651 128 689 73 689 L27 689 L27 643 L66 643 C97 643 106 618 106 581 L106 403 C106 303 159 267 181 262 L181 260 C159 255 106 219 106 119 L106 -56 C106 -95 97 -121 70 -121 L27 -121 L27 -167 Z " />
<glyph glyph-name="asciitilde" unicode="&#x7e;" horiz-adv-x="593" d="M415 193 C473 193 531 236 531 341 L481 341 C481 278 461 249 419 249 C343 249 280 359 179 359 C123 359 64 311 64 211 L112 211 C112 274 133 303 175 303 C252 303 314 193 415 193 L415 193 Z " />
<glyph glyph-name="uni00A0" unicode="&#xa0;" horiz-adv-x="290" d="" />
<glyph glyph-name="exclamdown" unicode="&#xa1;" horiz-adv-x="238" d="M79 425 L156 425 L156 503 L79 503 L79 425 Z M73 -176 L162 -176 L135 345 L103 345 L73 -176 Z " />
<glyph glyph-name="cent" unicode="&#xa2;" horiz-adv-x="593" d="M277 -28 L323 -28 L323 111 C406 121 464 181 482 273 L432 281 C417 208 374 168 323 159 L323 537 C381 530 417 482 431 417 L480 426 C464 506 416 577 323 585 L323 708 L277 708 L277 584 C178 571 107 480 107 350 C107 237 158 124 277 111 L277 -28 Z M277 162 C204 174 166 245 166 350 C166 466 216 523 277 535 L277 162 Z " />
<glyph glyph-name="sterling" unicode="&#xa3;" horiz-adv-x="593" d="M5 0 L384 0 C482 0 555 34 585 107 L534 137 C512 88 466 55 376 55 L174 55 L174 57 C214 72 278 138 278 239 C278 264 273 289 269 315 L449 315 L449 362 L261 362 C251 409 241 456 241 497 C241 579 290 639 367 639 C428 639 471 597 490 549 L537 574 C503 646 437 689 365 689 C245 689 177 589 177 486 C177 445 186 405 195 362 L83 362 L83 315 L202 315 C208 283 213 250 213 214 C213 134 150 55 50 55 L5 55 L5 0 Z " />
<glyph glyph-name="currency" unicode="&#xa4;" horiz-adv-x="593" d="M103 -34 L149 46 C188 12 237 -9 299 -9 C356 -9 404 11 441 44 L486 -34 L522 -13 L471 75 C525 143 550 245 550 340 C550 443 524 540 472 605 L522 692 L486 713 L442 635 C403 669 353 689 293 689 C233 689 185 668 148 635 L103 713 L66 692 L118 603 C65 533 41 432 41 338 C41 243 66 145 120 78 L67 -13 L103 -34 Z M299 40 C149 40 107 208 107 342 C107 472 148 640 293 640 C446 640 485 465 485 332 C485 198 443 40 299 40 L299 40 Z " />
<glyph glyph-name="yen" unicode="&#xa5;" horiz-adv-x="593" d="M266 0 L330 0 L330 224 L540 224 L540 271 L330 271 L330 299 L368 365 L541 365 L541 412 L395 412 L552 679 L494 679 L306 356 L304 356 L118 679 L43 679 L200 412 L54 412 L54 365 L227 365 L266 298 L266 271 L54 271 L54 224 L266 224 L266 0 Z " />
<glyph glyph-name="brokenbar" unicode="&#xa6;" horiz-adv-x="204" d="M81 337 L123 337 L123 743 L81 743 L81 337 Z M81 -247 L123 -247 L123 159 L81 159 L81 -247 Z " />
<glyph glyph-name="section" unicode="&#xa7;" horiz-adv-x="593" d="M276 -117 C420 -117 474 -39 474 32 C474 81 455 116 416 141 C464 170 484 215 484 259 C484 346 420 392 301 408 C185 423 154 446 154 502 C154 553 192 588 274 588 C360 588 396 542 409 498 L462 509 C444 588 376 635 276 635 C175 635 95 586 95 496 C95 442 115 408 159 384 C113 362 85 323 85 269 C85 182 142 145 259 125 C385 104 414 78 414 27 C414 -21 377 -69 279 -69 C178 -69 132 -16 122 37 L65 25 C78 -36 128 -117 276 -117 L276 -117 Z M353 167 C244 190 144 196 144 275 C144 319 173 351 235 359 C350 341 423 320 423 254 C423 219 403 183 353 167 L353 167 Z " />
<glyph glyph-name="dieresis" unicode="&#xa8;" horiz-adv-x="518" d="M341 599 C363 599 382 617 382 640 C382 662 362 678 342 678 C320 678 302 662 302 640 C302 618 318 599 341 599 L341 599 Z M187 599 C210 599 229 617 229 640 C229 662 209 678 188 678 C167 678 149 662 149 640 C149 618 165 599 187 599 L187 599 Z " />
<glyph glyph-name="copyright" unicode="&#xa9;" horiz-adv-x="791" d="M396 -9 C596 -9 755 145 755 342 C755 534 596 689 396 689 C194 689 36 534 36 342 C36 146 192 -9 396 -9 L396 -9 Z M396 26 C212 26 74 166 74 342 C74 514 214 654 396 654 C576 654 717 514 717 342 C717 165 576 26 396 26 L396 26 Z M396 159 C470 159 520 212 539 285 L494 295 C480 232 438 201 395 201 C342 201 290 250 290 339 C290 430 338 483 397 483 C443 483 480 448 493 393 L539 401 C522 472 472 524 396 524 C292 524 241 429 241 339 C241 254 293 159 396 159 L396 159 Z " />
<glyph glyph-name="ordfeminine" unicode="&#xaa;" horiz-adv-x="347" d="M151 348 C216 348 249 383 257 407 L259 407 L265 355 L310 355 C310 355 302 397 302 416 L302 570 C302 665 250 689 182 689 C101 689 56 653 48 595 L87 589 C97 635 131 654 178 654 C220 654 258 641 258 574 L258 554 L199 554 C92 554 37 514 37 447 C37 390 81 348 151 348 L151 348 Z M34 257 L306 257 L306 303 L34 303 L34 257 Z M157 385 C114 385 83 408 83 445 C83 500 133 519 210 519 L258 519 L258 493 C258 429 219 385 157 385 L157 385 Z " />
<glyph glyph-name="guillemotleft" unicode="&#xab;" horiz-adv-x="322" d="M247 106 L278 106 L223 256 L278 400 L246 400 L160 256 L247 106 Z M127 106 L158 106 L102 256 L158 400 L126 400 L40 256 L127 106 Z " />
<glyph glyph-name="logicalnot" unicode="&#xac;" horiz-adv-x="593" d="M431 35 L484 35 L484 312 L40 312 L40 264 L431 264 L431 35 Z " />
<glyph glyph-name="registered" unicode="&#xae;" horiz-adv-x="791" d="M396 -9 C596 -9 755 145 755 342 C755 534 596 689 396 689 C194 689 36 534 36 342 C36 146 192 -9 396 -9 L396 -9 Z M396 26 C212 26 74 166 74 342 C74 514 214 654 396 654 C576 654 717 514 717 342 C717 165 576 26 396 26 L396 26 Z M277 158 L324 158 L324 310 L426 310 L499 158 L550 158 L470 320 C509 331 539 357 539 412 C539 482 489 514 423 514 L277 514 L277 158 Z M324 352 L324 471 L422 471 C462 471 491 455 491 412 C491 368 459 352 420 352 L324 352 Z " />
<glyph glyph-name="macron" unicode="&#xaf;" horiz-adv-x="309" d="M14 652 L293 652 L293 696 L14 696 L14 652 Z " />
<glyph glyph-name="degree" unicode="&#xb0;" horiz-adv-x="377" d="M188 401 C268 401 334 465 334 545 C334 624 268 689 188 689 C108 689 43 624 43 545 C43 465 108 401 188 401 L188 401 Z M188 449 C135 449 91 492 91 545 C91 597 135 640 188 640 C240 640 284 597 284 545 C284 492 240 449 188 449 L188 449 Z " />
<glyph glyph-name="plusminus" unicode="&#xb1;" horiz-adv-x="593" d="M270 114 L319 114 L319 343 L548 343 L548 391 L319 391 L319 619 L270 619 L270 391 L42 391 L42 343 L270 343 L270 114 Z M42 0 L548 0 L548 48 L42 48 L42 0 Z " />
<glyph glyph-name="twosuperior" unicode="&#xb2;" horiz-adv-x="346" d="M31 288 L313 288 L313 335 L113 335 L113 337 L217 415 C267 451 313 503 313 565 C313 644 245 689 175 689 C100 689 45 643 30 565 L81 551 C87 607 122 643 175 643 C217 643 259 613 259 565 C259 513 220 478 176 443 L31 328 L31 288 Z " />
<glyph glyph-name="threesuperior" unicode="&#xb3;" horiz-adv-x="346" d="M166 283 C247 283 317 325 317 402 C317 451 282 486 245 497 L245 499 C275 510 303 542 303 581 C303 655 238 689 171 689 C106 689 51 657 29 588 L77 577 C92 621 125 644 168 644 C210 644 249 624 249 578 C249 541 217 517 168 517 L109 517 L109 472 L166 472 C222 472 263 445 263 402 C263 350 215 329 165 329 C117 329 79 349 65 406 L15 389 C36 314 98 283 166 283 L166 283 Z " />
<glyph glyph-name="acute" unicode="&#xb4;" horiz-adv-x="518" d="M244 545 L425 689 L384 722 L224 568 L244 545 Z " />
<glyph glyph-name="mu" unicode="&#xb5;" horiz-adv-x="516" d="M-3 -178 C73 -178 128 -141 128 -13 L128 27 C151 0 190 -10 226 -10 C319 -10 373 61 390 101 L392 101 L392 0 L446 0 L446 503 L388 503 L388 203 C388 136 337 39 235 39 C180 39 128 70 128 165 L128 503 L70 503 L70 -16 C70 -98 46 -130 -11 -130 C-41 -130 -70 -121 -70 -121 L-70 -169 C-70 -169 -45 -178 -3 -178 L-3 -178 Z " />
<glyph glyph-name="paragraph" unicode="&#xb6;" horiz-adv-x="518" d="M245 -164 L293 -164 L293 632 L388 632 L388 -164 L436 -164 L436 632 L487 632 L487 679 L245 679 C173 679 39 615 39 440 C39 312 130 213 245 213 L245 -164 Z " />
<glyph glyph-name="periodcentered" unicode="&#xb7;" horiz-adv-x="255" d="M87 247 L169 247 L169 329 L87 329 L87 247 Z " />
<glyph glyph-name="cedilla" unicode="&#xb8;" horiz-adv-x="475" d="M253 -172 C299 -172 348 -152 348 -101 C348 -54 298 -38 247 -38 L258 0 L233 0 L211 -63 C211 -63 226 -61 238 -61 C272 -61 309 -70 309 -104 C309 -130 280 -144 250 -144 C220 -144 195 -136 175 -126 L162 -148 C189 -164 220 -172 253 -172 L253 -172 Z " />
<glyph glyph-name="onesuperior" unicode="&#xb9;" horiz-adv-x="346" d="M44 285 L318 285 L318 329 L212 329 L212 680 L173 680 C144 641 101 603 53 586 L52 533 C101 550 140 583 159 609 L161 609 L161 329 L44 329 L44 285 Z " />
<glyph glyph-name="ordmasculine" unicode="&#xba;" horiz-adv-x="347" d="M171 348 C257 348 316 414 316 520 C316 597 277 689 177 689 C91 689 31 624 31 520 C31 433 70 348 171 348 L171 348 Z M31 257 L316 257 L316 303 L31 303 L31 257 Z M172 385 C109 385 79 438 79 520 C79 614 123 652 175 652 C236 652 268 595 268 518 C268 424 224 385 172 385 L172 385 Z " />
<glyph glyph-name="guillemotright" unicode="&#xbb;" horiz-adv-x="322" d="M157 106 L189 106 L276 256 L190 400 L157 400 L213 256 L157 106 Z M37 106 L68 106 L155 256 L69 400 L37 400 L93 256 L37 106 Z " />
<glyph glyph-name="onequarter" unicode="&#xbc;" horiz-adv-x="753" d="M48 285 L322 285 L322 329 L215 329 L215 680 L176 680 C148 641 104 603 56 586 L56 533 C104 550 143 583 162 609 L164 609 L164 329 L48 329 L48 285 Z M172 0 L227 0 L638 679 L583 679 L172 0 Z M594 0 L646 0 L646 93 L711 93 L711 137 L646 137 L646 396 L589 396 L403 129 L403 93 L594 93 L594 0 Z M462 137 L462 139 L592 332 L594 332 L594 137 L462 137 Z " />
<glyph glyph-name="onehalf" unicode="&#xbd;" horiz-adv-x="799" d="M48 285 L322 285 L322 329 L215 329 L215 680 L176 680 C148 641 104 603 56 586 L56 533 C104 550 143 583 162 609 L164 609 L164 329 L48 329 L48 285 Z M172 0 L227 0 L638 679 L583 679 L172 0 Z M459 0 L742 0 L742 47 L541 47 L541 49 L646 127 C695 163 741 214 741 277 C741 355 674 401 603 401 C528 401 474 355 458 276 L510 262 C516 318 551 354 603 354 C646 354 688 324 688 277 C688 224 649 190 604 154 L459 40 L459 0 Z " />
<glyph glyph-name="threequarters" unicode="&#xbe;" horiz-adv-x="753" d="M177 283 C257 283 328 325 328 402 C328 451 293 486 256 497 L256 499 C285 510 313 542 313 581 C313 655 249 689 181 689 C117 689 61 657 39 588 L88 577 C102 621 136 644 179 644 C221 644 259 624 259 578 C259 541 227 517 179 517 L119 517 L119 472 L176 472 C233 472 274 445 274 402 C274 350 225 329 176 329 C127 329 90 349 76 406 L25 389 C47 314 109 283 177 283 L177 283 Z M175 0 L229 0 L640 679 L586 679 L175 0 Z M597 0 L649 0 L649 93 L714 93 L714 137 L649 137 L649 396 L592 396 L406 129 L406 93 L597 93 L597 0 Z M465 137 L465 139 L595 332 L597 332 L597 137 L465 137 Z " />
<glyph glyph-name="questiondown" unicode="&#xbf;" horiz-adv-x="483" d="M218 429 L293 429 L293 503 L218 503 L218 429 Z M237 -186 C358 -186 443 -110 458 8 L401 19 C389 -70 332 -134 240 -134 C158 -134 87 -87 87 1 C87 64 125 107 205 148 C262 176 285 208 285 292 L285 344 L231 344 L231 286 C231 223 203 206 166 187 C74 141 22 84 22 0 C22 -121 123 -186 237 -186 L237 -186 Z " />
<glyph glyph-name="Agrave" unicode="&#xc0;" horiz-adv-x="537" d="M268 739 L287 761 L128 915 L87 881 L268 739 Z M10 0 L64 0 L130 205 L395 205 L462 0 L529 0 L305 679 L231 679 L10 0 Z M146 254 L261 610 L263 610 L379 254 L146 254 Z " />
<glyph glyph-name="Aacute" unicode="&#xc1;" horiz-adv-x="537" d="M278 739 L459 881 L418 915 L258 761 L278 739 Z M10 0 L64 0 L130 205 L395 205 L462 0 L529 0 L305 679 L231 679 L10 0 Z M146 254 L261 610 L263 610 L379 254 L146 254 Z " />
<glyph glyph-name="Acircumflex" unicode="&#xc2;" horiz-adv-x="537" d="M166 737 L272 816 L376 737 L419 745 L272 875 L119 745 L166 737 Z M10 0 L64 0 L130 205 L395 205 L462 0 L529 0 L305 679 L231 679 L10 0 Z M146 254 L261 610 L263 610 L379 254 L146 254 Z " />
<glyph glyph-name="Atilde" unicode="&#xc3;" horiz-adv-x="537" d="M349 738 C380 738 414 759 428 800 L394 815 C386 796 371 786 350 786 C294 786 260 830 199 830 C168 830 134 810 120 770 L153 754 C162 773 176 782 197 782 C252 782 288 738 349 738 L349 738 Z M10 0 L64 0 L130 205 L395 205 L462 0 L529 0 L305 679 L231 679 L10 0 Z M146 254 L261 610 L263 610 L379 254 L146 254 Z " />
<glyph glyph-name="Adieresis" unicode="&#xc4;" horiz-adv-x="537" d="M341 741 C363 741 382 759 382 782 C382 804 362 820 342 820 C320 820 302 804 302 782 C302 760 318 741 341 741 L341 741 Z M187 741 C210 741 229 759 229 782 C229 804 209 820 188 820 C167 820 149 804 149 782 C149 760 165 741 187 741 L187 741 Z M10 0 L64 0 L130 205 L395 205 L462 0 L529 0 L305 679 L231 679 L10 0 Z M146 254 L261 610 L263 610 L379 254 L146 254 Z " />
<glyph glyph-name="Aring" unicode="&#xc5;" horiz-adv-x="537" d="M265 715 C316 715 358 753 358 804 C358 854 316 893 265 893 C214 893 172 854 172 804 C172 753 214 715 265 715 L265 715 Z M10 0 L64 0 L130 205 L395 205 L462 0 L529 0 L305 679 L231 679 L10 0 Z M264 738 C229 738 198 766 198 803 C198 838 224 868 264 868 C302 868 331 838 331 803 C331 766 300 738 264 738 L264 738 Z M146 254 L261 610 L263 610 L379 254 L146 254 Z " />
<glyph glyph-name="AE" unicode="&#xc6;" horiz-adv-x="820" d="M1 0 L60 0 L231 329 L371 329 L371 0 L777 0 L777 54 L434 54 L434 329 L694 329 L694 380 L434 380 L434 624 L764 624 L764 679 L347 679 L1 0 Z M251 380 L369 610 L371 610 L371 380 L251 380 Z " />
<glyph glyph-name="Ccedilla" unicode="&#xc7;" horiz-adv-x="595" d="M318 -172 C364 -172 413 -152 413 -101 C413 -54 362 -38 311 -38 L320 -9 C454 -5 529 93 558 214 L499 227 C473 108 403 43 311 43 C197 43 107 150 107 335 C107 523 187 637 315 637 C413 637 472 563 496 458 L557 470 C529 587 456 689 311 689 C113 689 40 500 40 335 C40 182 111 2 295 -9 L276 -63 C276 -63 291 -61 302 -61 C336 -61 373 -70 373 -104 C373 -130 345 -144 315 -144 C284 -144 259 -136 239 -126 L226 -148 C253 -164 285 -172 318 -172 L318 -172 Z " />
<glyph glyph-name="Egrave" unicode="&#xc8;" horiz-adv-x="558" d="M351 739 L371 761 L211 915 L170 881 L351 739 Z M80 0 L513 0 L513 54 L144 54 L144 329 L430 329 L430 380 L144 380 L144 624 L500 624 L500 679 L80 679 L80 0 Z " />
<glyph glyph-name="Eacute" unicode="&#xc9;" horiz-adv-x="558" d="M285 739 L467 881 L425 915 L265 761 L285 739 Z M80 0 L513 0 L513 54 L144 54 L144 329 L430 329 L430 380 L144 380 L144 624 L500 624 L500 679 L80 679 L80 0 Z " />
<glyph glyph-name="Ecircumflex" unicode="&#xca;" horiz-adv-x="558" d="M193 737 L299 816 L403 737 L446 745 L299 875 L146 745 L193 737 Z M80 0 L513 0 L513 54 L144 54 L144 329 L430 329 L430 380 L144 380 L144 624 L500 624 L500 679 L80 679 L80 0 Z " />
<glyph glyph-name="Edieresis" unicode="&#xcb;" horiz-adv-x="558" d="M381 741 C403 741 422 759 422 782 C422 804 402 820 382 820 C360 820 342 804 342 782 C342 760 358 741 381 741 L381 741 Z M227 741 C250 741 269 759 269 782 C269 804 249 820 228 820 C207 820 189 804 189 782 C189 760 205 741 227 741 L227 741 Z M80 0 L513 0 L513 54 L144 54 L144 329 L430 329 L430 380 L144 380 L144 624 L500 624 L500 679 L80 679 L80 0 Z " />
<glyph glyph-name="Igrave" unicode="&#xcc;" horiz-adv-x="231" d="M142 739 L162 761 L2 915 L-39 881 L142 739 Z M84 0 L148 0 L148 679 L84 679 L84 0 Z " />
<glyph glyph-name="Iacute" unicode="&#xcd;" horiz-adv-x="231" d="M118 739 L299 881 L258 915 L98 761 L118 739 Z M84 0 L148 0 L148 679 L84 679 L84 0 Z " />
<glyph glyph-name="Icircumflex" unicode="&#xce;" horiz-adv-x="231" d="M15 737 L122 816 L225 737 L269 745 L122 875 L-31 745 L15 737 Z M84 0 L148 0 L148 679 L84 679 L84 0 Z " />
<glyph glyph-name="Idieresis" unicode="&#xcf;" horiz-adv-x="231" d="M191 741 C213 741 231 759 231 782 C231 804 212 820 192 820 C170 820 152 804 152 782 C152 760 168 741 191 741 L191 741 Z M37 741 C60 741 78 759 78 782 C78 804 59 820 38 820 C17 820 -1 804 -1 782 C-1 760 15 741 37 741 L37 741 Z M84 0 L148 0 L148 679 L84 679 L84 0 Z " />
<glyph glyph-name="Eth" unicode="&#xd0;" horiz-adv-x="623" d="M80 0 L304 0 C493 0 583 165 583 348 C583 500 495 679 297 679 L80 679 L80 361 L-9 361 L-9 314 L80 314 L80 0 Z M144 53 L144 314 L241 314 L241 361 L144 361 L144 625 L292 625 C423 625 518 523 518 345 C518 122 398 53 282 53 L144 53 Z " />
<glyph glyph-name="Ntilde" unicode="&#xd1;" horiz-adv-x="643" d="M401 738 C432 738 467 759 480 800 L446 815 C438 796 423 786 402 786 C347 786 311 830 251 830 C220 830 186 810 172 770 L205 754 C214 773 228 782 250 782 C304 782 340 738 401 738 L401 738 Z M80 0 L133 0 L133 609 L135 609 L502 0 L563 0 L563 679 L511 679 L511 97 L509 97 L158 679 L80 679 L80 0 Z " />
<glyph glyph-name="Ograve" unicode="&#xd2;" horiz-adv-x="625" d="M341 739 L361 761 L201 915 L159 881 L341 739 Z M315 -9 C505 -9 585 182 585 348 C585 500 509 689 312 689 C115 689 40 490 40 335 C40 174 117 -9 315 -9 L315 -9 Z M315 42 C195 42 107 153 107 335 C107 520 187 637 317 637 C450 637 518 504 518 345 C518 155 435 42 315 42 L315 42 Z " />
<glyph glyph-name="Oacute" unicode="&#xd3;" horiz-adv-x="625" d="M334 739 L516 881 L474 915 L315 761 L334 739 Z M315 -9 C505 -9 585 182 585 348 C585 500 509 689 312 689 C115 689 40 490 40 335 C40 174 117 -9 315 -9 L315 -9 Z M315 42 C195 42 107 153 107 335 C107 520 187 637 317 637 C450 637 518 504 518 345 C518 155 435 42 315 42 L315 42 Z " />
<glyph glyph-name="Ocircumflex" unicode="&#xd4;" horiz-adv-x="625" d="M211 737 L318 816 L420 737 L464 745 L317 875 L164 745 L211 737 Z M315 -9 C505 -9 585 182 585 348 C585 500 509 689 312 689 C115 689 40 490 40 335 C40 174 117 -9 315 -9 L315 -9 Z M315 42 C195 42 107 153 107 335 C107 520 187 637 317 637 C450 637 518 504 518 345 C518 155 435 42 315 42 L315 42 Z " />
<glyph glyph-name="Otilde" unicode="&#xd5;" horiz-adv-x="625" d="M404 738 C435 738 470 759 483 800 L450 815 C442 796 426 786 405 786 C350 786 315 830 254 830 C223 830 189 810 175 770 L208 754 C217 773 231 782 253 782 C307 782 343 738 404 738 L404 738 Z M315 -9 C505 -9 585 182 585 348 C585 500 509 689 312 689 C115 689 40 490 40 335 C40 174 117 -9 315 -9 L315 -9 Z M315 42 C195 42 107 153 107 335 C107 520 187 637 317 637 C450 637 518 504 518 345 C518 155 435 42 315 42 L315 42 Z " />
<glyph glyph-name="Odieresis" unicode="&#xd6;" horiz-adv-x="625" d="M394 741 C416 741 435 759 435 782 C435 804 416 820 395 820 C374 820 355 804 355 782 C355 760 372 741 394 741 L394 741 Z M240 741 C263 741 282 759 282 782 C282 804 262 820 241 820 C221 820 202 804 202 782 C202 760 219 741 240 741 L240 741 Z M315 -9 C505 -9 585 182 585 348 C585 500 509 689 312 689 C115 689 40 490 40 335 C40 174 117 -9 315 -9 L315 -9 Z M315 42 C195 42 107 153 107 335 C107 520 187 637 317 637 C450 637 518 504 518 345 C518 155 435 42 315 42 L315 42 Z " />
<glyph glyph-name="multiply" unicode="&#xd7;" horiz-adv-x="593" d="M131 92 L294 254 L454 92 L489 127 L327 287 L489 449 L454 484 L292 322 L131 484 L97 449 L258 289 L97 127 L131 92 Z " />
<glyph glyph-name="Oslash" unicode="&#xd8;" horiz-adv-x="625" d="M22 -37 L72 -37 L139 60 C183 17 241 -9 315 -9 C505 -9 585 182 585 348 C585 430 563 524 511 592 L600 720 L549 720 L481 623 C439 664 384 689 312 689 C115 689 40 490 40 335 C40 250 62 159 110 91 L22 -37 Z M149 147 C121 196 107 259 107 335 C107 520 187 637 317 637 C372 637 416 614 448 575 L149 147 Z M315 42 C259 42 211 66 174 109 L474 538 C503 487 518 418 518 345 C518 155 435 42 315 42 L315 42 Z " />
<glyph glyph-name="Ugrave" unicode="&#xd9;" horiz-adv-x="619" d="M334 739 L354 761 L194 915 L153 881 L334 739 Z M310 -9 C446 -9 539 67 539 230 L539 679 L486 679 L486 230 C486 95 412 47 314 47 C217 47 144 91 144 226 L144 679 L80 679 L80 230 C80 62 170 -9 310 -9 L310 -9 Z " />
<glyph glyph-name="Uacute" unicode="&#xda;" horiz-adv-x="619" d="M301 739 L483 881 L442 915 L281 761 L301 739 Z M310 -9 C446 -9 539 67 539 230 L539 679 L486 679 L486 230 C486 95 412 47 314 47 C217 47 144 91 144 226 L144 679 L80 679 L80 230 C80 62 170 -9 310 -9 L310 -9 Z " />
<glyph glyph-name="Ucircumflex" unicode="&#xdb;" horiz-adv-x="619" d="M212 737 L319 816 L422 737 L465 745 L318 875 L166 745 L212 737 Z M310 -9 C446 -9 539 67 539 230 L539 679 L486 679 L486 230 C486 95 412 47 314 47 C217 47 144 91 144 226 L144 679 L80 679 L80 230 C80 62 170 -9 310 -9 L310 -9 Z " />
<glyph glyph-name="Udieresis" unicode="&#xdc;" horiz-adv-x="619" d="M394 741 C415 741 434 759 434 782 C434 804 415 820 395 820 C373 820 354 804 354 782 C354 760 372 741 394 741 L394 741 Z M240 741 C262 741 281 759 281 782 C281 804 261 820 241 820 C220 820 201 804 201 782 C201 760 218 741 240 741 L240 741 Z M310 -9 C446 -9 539 67 539 230 L539 679 L486 679 L486 230 C486 95 412 47 314 47 C217 47 144 91 144 226 L144 679 L80 679 L80 230 C80 62 170 -9 310 -9 L310 -9 Z " />
<glyph glyph-name="Yacute" unicode="&#xdd;" horiz-adv-x="511" d="M246 739 L427 881 L386 915 L226 761 L246 739 Z M224 0 L287 0 L287 299 L510 679 L450 679 L264 353 L262 353 L75 679 L1 679 L224 298 L224 0 Z " />
<glyph glyph-name="Thorn" unicode="&#xde;" horiz-adv-x="530" d="M80 0 L144 0 L144 183 L299 183 C415 183 515 245 515 382 C515 512 421 577 299 577 L144 577 L144 679 L80 679 L80 0 Z M144 235 L144 524 L297 524 C388 524 451 477 451 380 C451 280 379 235 292 235 L144 235 Z " />
<glyph glyph-name="germandbls" unicode="&#xdf;" horiz-adv-x="574" d="M69 -50 L127 -50 L127 469 C127 591 201 644 286 644 C330 644 399 615 399 556 C399 475 287 447 216 447 C191 447 169 422 169 380 C169 290 224 253 343 233 C470 212 499 186 499 135 C499 87 462 39 364 39 C263 39 217 92 207 145 L149 133 C162 72 213 -9 361 -9 C505 -9 559 69 559 140 C559 227 497 273 376 289 C262 303 229 327 229 378 C229 411 254 410 311 420 C377 430 463 467 463 551 C463 645 361 689 289 689 C186 689 69 624 69 466 L69 430 L15 430 L15 383 L69 383 L69 -50 Z " />
<glyph glyph-name="agrave" unicode="&#xe0;" horiz-adv-x="516" d="M319 545 L339 568 L179 722 L138 689 L319 545 Z M221 -9 C332 -9 378 52 395 96 L397 96 L408 0 L467 0 C467 0 456 58 456 91 L456 334 C456 481 377 516 272 516 C148 516 77 462 64 379 L118 370 C134 442 188 470 265 470 C335 470 398 451 398 340 L398 303 L299 303 C134 303 48 243 48 141 C48 53 116 -9 221 -9 L221 -9 Z M233 37 C161 37 111 75 111 138 C111 227 193 259 317 259 L398 259 L398 214 C398 111 334 37 233 37 L233 37 Z " />
<glyph glyph-name="aacute" unicode="&#xe1;" horiz-adv-x="516" d="M240 545 L422 689 L380 722 L221 568 L240 545 Z M221 -9 C332 -9 378 52 395 96 L397 96 L408 0 L467 0 C467 0 456 58 456 91 L456 334 C456 481 377 516 272 516 C148 516 77 462 64 379 L118 370 C134 442 188 470 265 470 C335 470 398 451 398 340 L398 303 L299 303 C134 303 48 243 48 141 C48 53 116 -9 221 -9 L221 -9 Z M233 37 C161 37 111 75 111 138 C111 227 193 259 317 259 L398 259 L398 214 C398 111 334 37 233 37 L233 37 Z " />
<glyph glyph-name="acircumflex" unicode="&#xe2;" horiz-adv-x="516" d="M167 577 L274 656 L377 577 L420 585 L274 715 L120 585 L167 577 Z M221 -9 C332 -9 378 52 395 96 L397 96 L408 0 L467 0 C467 0 456 58 456 91 L456 334 C456 481 377 516 272 516 C148 516 77 462 64 379 L118 370 C134 442 188 470 265 470 C335 470 398 451 398 340 L398 303 L299 303 C134 303 48 243 48 141 C48 53 116 -9 221 -9 L221 -9 Z M233 37 C161 37 111 75 111 138 C111 227 193 259 317 259 L398 259 L398 214 C398 111 334 37 233 37 L233 37 Z " />
<glyph glyph-name="atilde" unicode="&#xe3;" horiz-adv-x="516" d="M347 602 C379 602 413 623 426 664 L393 679 C384 660 370 650 349 650 C293 650 258 694 198 694 C166 694 133 674 119 634 L152 618 C160 637 175 646 196 646 C251 646 287 602 347 602 L347 602 Z M221 -9 C332 -9 378 52 395 96 L397 96 L408 0 L467 0 C467 0 456 58 456 91 L456 334 C456 481 377 516 272 516 C148 516 77 462 64 379 L118 370 C134 442 188 470 265 470 C335 470 398 451 398 340 L398 303 L299 303 C134 303 48 243 48 141 C48 53 116 -9 221 -9 L221 -9 Z M233 37 C161 37 111 75 111 138 C111 227 193 259 317 259 L398 259 L398 214 C398 111 334 37 233 37 L233 37 Z " />
<glyph glyph-name="adieresis" unicode="&#xe4;" horiz-adv-x="516" d="M345 599 C366 599 385 617 385 640 C385 662 366 678 346 678 C324 678 305 662 305 640 C305 618 323 599 345 599 L345 599 Z M191 599 C213 599 232 617 232 640 C232 662 212 678 192 678 C171 678 152 662 152 640 C152 618 169 599 191 599 L191 599 Z M221 -9 C332 -9 378 52 395 96 L397 96 L408 0 L467 0 C467 0 456 58 456 91 L456 334 C456 481 377 516 272 516 C148 516 77 462 64 379 L118 370 C134 442 188 470 265 470 C335 470 398 451 398 340 L398 303 L299 303 C134 303 48 243 48 141 C48 53 116 -9 221 -9 L221 -9 Z M233 37 C161 37 111 75 111 138 C111 227 193 259 317 259 L398 259 L398 214 C398 111 334 37 233 37 L233 37 Z " />
<glyph glyph-name="aring" unicode="&#xe5;" horiz-adv-x="516" d="M272 560 C323 560 365 598 365 649 C365 699 323 738 272 738 C221 738 179 699 179 649 C179 598 221 560 272 560 L272 560 Z M221 -9 C332 -9 378 52 395 96 L397 96 L408 0 L467 0 C467 0 456 58 456 91 L456 334 C456 481 377 516 272 516 C148 516 77 462 64 379 L118 370 C134 442 188 470 265 470 C335 470 398 451 398 340 L398 303 L299 303 C134 303 48 243 48 141 C48 53 116 -9 221 -9 L221 -9 Z M271 583 C235 583 205 611 205 649 C205 683 231 713 271 713 C309 713 338 683 338 649 C338 611 307 583 271 583 L271 583 Z M233 37 C161 37 111 75 111 138 C111 227 193 259 317 259 L398 259 L398 214 C398 111 334 37 233 37 L233 37 Z " />
<glyph glyph-name="ae" unicode="&#xe6;" horiz-adv-x="877" d="M221 -9 C323 -9 394 52 422 142 L424 142 C449 56 507 -9 613 -9 C722 -9 800 44 832 141 L775 152 C750 68 678 39 623 39 C527 39 464 110 463 247 L837 247 L837 259 C837 395 775 516 623 516 C540 516 477 473 442 400 L440 400 C421 492 357 516 272 516 C148 516 77 462 64 379 L118 370 C134 442 188 470 265 470 C335 470 398 451 398 340 L398 290 L299 290 C134 290 48 238 48 136 C48 48 116 -9 221 -9 L221 -9 Z M466 290 C472 414 545 470 623 470 C716 470 771 402 774 290 L466 290 Z M233 37 C161 37 111 70 111 133 C111 222 193 247 317 247 L398 247 L398 223 C398 115 334 37 233 37 L233 37 Z " />
<glyph glyph-name="ccedilla" unicode="&#xe7;" horiz-adv-x="475" d="M253 -172 C299 -172 348 -152 348 -101 C348 -54 298 -38 247 -38 L256 -9 C355 -5 420 60 442 169 L385 178 C368 84 315 40 250 40 C152 40 103 122 103 256 C103 409 173 467 253 467 C327 467 369 413 384 331 L440 340 C421 435 367 516 250 516 C126 516 40 412 40 256 C40 128 93 1 230 -9 L211 -63 C211 -63 226 -61 238 -61 C272 -61 309 -70 309 -104 C309 -130 280 -144 250 -144 C220 -144 195 -136 175 -126 L162 -148 C189 -164 220 -172 253 -172 L253 -172 Z " />
<glyph glyph-name="egrave" unicode="&#xe8;" horiz-adv-x="518" d="M306 545 L326 568 L166 722 L125 689 L306 545 Z M254 -9 C364 -9 442 44 473 141 L416 152 C392 68 319 39 265 39 C168 39 106 110 105 247 L478 247 L478 259 C478 395 417 516 265 516 C134 516 40 412 40 256 C40 119 105 -9 254 -9 L254 -9 Z M107 290 C113 414 187 470 264 470 C357 470 411 399 414 290 L107 290 Z " />
<glyph glyph-name="eacute" unicode="&#xe9;" horiz-adv-x="518" d="M250 545 L432 689 L390 722 L231 568 L250 545 Z M254 -9 C364 -9 442 44 473 141 L416 152 C392 68 319 39 265 39 C168 39 106 110 105 247 L478 247 L478 259 C478 395 417 516 265 516 C134 516 40 412 40 256 C40 119 105 -9 254 -9 L254 -9 Z M107 290 C113 414 187 470 264 470 C357 470 411 399 414 290 L107 290 Z " />
<glyph glyph-name="ecircumflex" unicode="&#xea;" horiz-adv-x="518" d="M166 577 L272 656 L376 577 L419 585 L272 715 L119 585 L166 577 Z M254 -9 C364 -9 442 44 473 141 L416 152 C392 68 319 39 265 39 C168 39 106 110 105 247 L478 247 L478 259 C478 395 417 516 265 516 C134 516 40 412 40 256 C40 119 105 -9 254 -9 L254 -9 Z M107 290 C113 414 187 470 264 470 C357 470 411 399 414 290 L107 290 Z " />
<glyph glyph-name="edieresis" unicode="&#xeb;" horiz-adv-x="518" d="M346 599 C368 599 387 617 387 640 C387 662 368 678 347 678 C326 678 307 662 307 640 C307 618 324 599 346 599 L346 599 Z M192 599 C215 599 234 617 234 640 C234 662 214 678 193 678 C173 678 154 662 154 640 C154 618 171 599 192 599 L192 599 Z M254 -9 C364 -9 442 44 473 141 L416 152 C392 68 319 39 265 39 C168 39 106 110 105 247 L478 247 L478 259 C478 395 417 516 265 516 C134 516 40 412 40 256 C40 119 105 -9 254 -9 L254 -9 Z M107 290 C113 414 187 470 264 470 C357 470 411 399 414 290 L107 290 Z " />
<glyph glyph-name="igrave" unicode="&#xec;" horiz-adv-x="226" d="M144 545 L164 568 L4 722 L-37 689 L144 545 Z M84 0 L142 0 L142 503 L84 503 L84 0 Z " />
<glyph glyph-name="iacute" unicode="&#xed;" horiz-adv-x="226" d="M126 545 L307 689 L266 722 L106 568 L126 545 Z M84 0 L142 0 L142 503 L84 503 L84 0 Z " />
<glyph glyph-name="icircumflex" unicode="&#xee;" horiz-adv-x="226" d="M14 577 L121 656 L224 577 L268 585 L121 715 L-32 585 L14 577 Z M84 0 L142 0 L142 503 L84 503 L84 0 Z " />
<glyph glyph-name="idieresis" unicode="&#xef;" horiz-adv-x="226" d="M190 599 C211 599 230 617 230 640 C230 662 211 678 191 678 C169 678 150 662 150 640 C150 618 168 599 190 599 L190 599 Z M36 599 C58 599 77 617 77 640 C77 662 57 678 37 678 C16 678 -3 662 -3 640 C-3 618 14 599 36 599 L36 599 Z M84 0 L142 0 L142 503 L84 503 L84 0 Z " />
<glyph glyph-name="eth" unicode="&#xf0;" horiz-adv-x="518" d="M254 -9 C387 -9 478 94 478 256 C478 402 404 532 319 618 L382 681 L349 715 L284 650 C244 686 202 709 167 720 L136 676 C172 667 213 645 252 617 L198 564 L231 530 L289 587 C327 553 359 512 376 473 L374 473 C353 497 309 516 264 516 C131 516 40 416 40 256 C40 121 100 -9 254 -9 L254 -9 Z M257 39 C156 39 104 123 104 256 C104 409 177 468 260 468 C360 468 414 381 414 253 C414 99 339 39 257 39 L257 39 Z " />
<glyph glyph-name="ntilde" unicode="&#xf1;" horiz-adv-x="518" d="M342 602 C373 602 408 623 421 664 L388 679 C380 660 365 650 343 650 C288 650 253 694 192 694 C161 694 127 674 114 634 L146 618 C155 637 169 646 191 646 C245 646 282 602 342 602 L342 602 Z M70 0 L128 0 L128 301 C128 368 182 467 284 467 C338 467 390 432 390 339 L390 0 L448 0 L448 335 C448 469 369 516 292 516 C200 516 143 444 126 404 L124 404 L124 503 L70 503 L70 0 Z " />
<glyph glyph-name="ograve" unicode="&#xf2;" horiz-adv-x="518" d="M306 545 L326 568 L166 722 L125 689 L306 545 Z M254 -9 C387 -9 478 94 478 256 C478 375 418 516 264 516 C131 516 40 416 40 256 C40 121 100 -9 254 -9 L254 -9 Z M257 39 C156 39 104 123 104 256 C104 409 177 468 260 468 C360 468 414 381 414 253 C414 99 339 39 257 39 L257 39 Z " />
<glyph glyph-name="oacute" unicode="&#xf3;" horiz-adv-x="518" d="M244 545 L425 689 L384 722 L224 568 L244 545 Z M254 -9 C387 -9 478 94 478 256 C478 375 418 516 264 516 C131 516 40 416 40 256 C40 121 100 -9 254 -9 L254 -9 Z M257 39 C156 39 104 123 104 256 C104 409 177 468 260 468 C360 468 414 381 414 253 C414 99 339 39 257 39 L257 39 Z " />
<glyph glyph-name="ocircumflex" unicode="&#xf4;" horiz-adv-x="518" d="M157 577 L264 656 L368 577 L411 585 L264 715 L111 585 L157 577 Z M254 -9 C387 -9 478 94 478 256 C478 375 418 516 264 516 C131 516 40 416 40 256 C40 121 100 -9 254 -9 L254 -9 Z M257 39 C156 39 104 123 104 256 C104 409 177 468 260 468 C360 468 414 381 414 253 C414 99 339 39 257 39 L257 39 Z " />
<glyph glyph-name="otilde" unicode="&#xf5;" horiz-adv-x="518" d="M347 602 C379 602 413 623 426 664 L393 679 C384 660 370 650 349 650 C293 650 258 694 198 694 C166 694 133 674 119 634 L152 618 C160 637 175 646 196 646 C251 646 287 602 347 602 L347 602 Z M254 -9 C387 -9 478 94 478 256 C478 375 418 516 264 516 C131 516 40 416 40 256 C40 121 100 -9 254 -9 L254 -9 Z M257 39 C156 39 104 123 104 256 C104 409 177 468 260 468 C360 468 414 381 414 253 C414 99 339 39 257 39 L257 39 Z " />
<glyph glyph-name="odieresis" unicode="&#xf6;" horiz-adv-x="518" d="M341 599 C363 599 382 617 382 640 C382 662 362 678 342 678 C320 678 302 662 302 640 C302 618 318 599 341 599 L341 599 Z M187 599 C210 599 229 617 229 640 C229 662 209 678 188 678 C167 678 149 662 149 640 C149 618 165 599 187 599 L187 599 Z M254 -9 C387 -9 478 94 478 256 C478 375 418 516 264 516 C131 516 40 416 40 256 C40 121 100 -9 254 -9 L254 -9 Z M257 39 C156 39 104 123 104 256 C104 409 177 468 260 468 C360 468 414 381 414 253 C414 99 339 39 257 39 L257 39 Z " />
<glyph glyph-name="divide" unicode="&#xf7;" horiz-adv-x="593" d="M260 430 L333 430 L333 503 L260 503 L260 430 Z M40 264 L545 264 L545 312 L40 312 L40 264 Z M260 71 L333 71 L333 144 L260 144 L260 71 Z " />
<glyph glyph-name="oslash" unicode="&#xf8;" horiz-adv-x="518" d="M1 -54 L51 -54 L120 39 C152 9 197 -9 254 -9 C387 -9 478 94 478 256 C478 320 461 390 421 441 L515 566 L464 566 L393 470 C360 499 319 516 264 516 C131 516 40 416 40 256 C40 187 56 118 93 68 L1 -54 Z M131 120 C112 156 104 202 104 256 C104 409 177 468 260 468 C301 468 335 454 359 427 L131 120 Z M257 39 C214 39 179 55 154 84 L384 391 C404 354 414 307 414 253 C414 99 339 39 257 39 L257 39 Z " />
<glyph glyph-name="ugrave" unicode="&#xf9;" horiz-adv-x="516" d="M296 545 L316 568 L156 722 L115 689 L296 545 Z M226 -10 C319 -10 373 61 390 101 L392 101 L392 0 L446 0 L446 503 L388 503 L388 203 C388 136 337 39 235 39 C180 39 128 70 128 165 L128 503 L70 503 L70 170 C70 33 147 -10 226 -10 L226 -10 Z " />
<glyph glyph-name="uacute" unicode="&#xfa;" horiz-adv-x="516" d="M240 545 L422 689 L381 722 L221 568 L240 545 Z M226 -10 C319 -10 373 61 390 101 L392 101 L392 0 L446 0 L446 503 L388 503 L388 203 C388 136 337 39 235 39 C180 39 128 70 128 165 L128 503 L70 503 L70 170 C70 33 147 -10 226 -10 L226 -10 Z " />
<glyph glyph-name="ucircumflex" unicode="&#xfb;" horiz-adv-x="516" d="M161 577 L268 656 L371 577 L414 585 L267 715 L115 585 L161 577 Z M226 -10 C319 -10 373 61 390 101 L392 101 L392 0 L446 0 L446 503 L388 503 L388 203 C388 136 337 39 235 39 C180 39 128 70 128 165 L128 503 L70 503 L70 170 C70 33 147 -10 226 -10 L226 -10 Z " />
<glyph glyph-name="udieresis" unicode="&#xfc;" horiz-adv-x="516" d="M336 599 C358 599 377 617 377 640 C377 662 357 678 337 678 C315 678 296 662 296 640 C296 618 314 599 336 599 L336 599 Z M182 599 C205 599 224 617 224 640 C224 662 204 678 183 678 C162 678 143 662 143 640 C143 618 160 599 182 599 L182 599 Z M226 -10 C319 -10 373 61 390 101 L392 101 L392 0 L446 0 L446 503 L388 503 L388 203 C388 136 337 39 235 39 C180 39 128 70 128 165 L128 503 L70 503 L70 170 C70 33 147 -10 226 -10 L226 -10 Z " />
<glyph glyph-name="yacute" unicode="&#xfd;" horiz-adv-x="415" d="M197 545 L379 689 L338 722 L177 568 L197 545 Z M71 -178 C126 -178 179 -147 205 -75 L410 503 L357 503 L213 83 L211 83 L70 503 L7 503 L183 4 L160 -58 C145 -99 120 -130 62 -130 C34 -130 12 -122 12 -122 L12 -170 C12 -170 30 -178 71 -178 L71 -178 Z " />
<glyph glyph-name="thorn" unicode="&#xfe;" horiz-adv-x="519" d="M70 -172 L128 -172 L128 96 L130 96 C148 49 198 -9 277 -9 C403 -9 480 95 480 257 C480 376 435 516 285 516 C200 516 145 450 126 395 L124 395 L124 679 L70 679 L70 -172 Z M274 39 C194 39 128 113 128 217 L128 289 C128 399 206 467 277 467 C368 467 417 382 417 254 C417 100 348 39 274 39 L274 39 Z " />
<glyph glyph-name="ydieresis" unicode="&#xff;" horiz-adv-x="415" d="M295 599 C317 599 336 617 336 640 C336 662 316 678 296 678 C274 678 255 662 255 640 C255 618 273 599 295 599 L295 599 Z M141 599 C164 599 183 617 183 640 C183 662 163 678 142 678 C121 678 102 662 102 640 C102 618 119 599 141 599 L141 599 Z M71 -178 C126 -178 179 -147 205 -75 L410 503 L357 503 L213 83 L211 83 L70 503 L7 503 L183 4 L160 -58 C145 -99 120 -130 62 -130 C34 -130 12 -122 12 -122 L12 -170 C12 -170 30 -178 71 -178 L71 -178 Z " />
<glyph glyph-name="dotlessi" unicode="&#x131;" horiz-adv-x="226" d="M84 0 L142 0 L142 503 L84 503 L84 0 Z " />
<glyph glyph-name="Lslash" unicode="&#x141;" horiz-adv-x="488" d="M80 0 L475 0 L475 56 L144 56 L144 289 L238 384 L204 417 L144 356 L144 679 L80 679 L80 293 L-8 205 L26 171 L80 226 L80 0 Z " />
<glyph glyph-name="lslash" unicode="&#x142;" horiz-adv-x="222" d="M84 0 L142 0 L142 314 L237 410 L204 443 L142 381 L142 679 L84 679 L84 323 L-11 228 L23 195 L84 256 L84 0 Z " />
<glyph glyph-name="OE" unicode="&#x152;" horiz-adv-x="880" d="M327 0 L837 0 L837 54 L494 54 L494 329 L754 329 L754 380 L494 380 L494 624 L824 624 L824 679 L319 679 C130 679 40 514 40 331 C40 179 129 0 327 0 L327 0 Z M331 54 C201 54 106 156 106 334 C106 557 225 626 342 626 L430 626 L430 54 L331 54 Z " />
<glyph glyph-name="oe" unicode="&#x153;" horiz-adv-x="892" d="M254 -9 C349 -9 414 44 443 133 L445 133 C471 53 525 -9 628 -9 C737 -9 815 44 847 141 L790 152 C765 68 693 39 639 39 C542 39 479 110 478 247 L852 247 L852 259 C852 395 790 516 638 516 C544 516 479 462 448 374 L446 374 C422 450 367 516 264 516 C131 516 40 416 40 256 C40 121 100 -9 254 -9 L254 -9 Z M481 290 C487 414 561 470 637 470 C731 470 786 402 789 290 L481 290 Z M257 39 C156 39 104 123 104 256 C104 409 177 468 260 468 C360 468 414 381 414 253 C414 99 339 39 257 39 L257 39 Z " />
<glyph glyph-name="Scaron" unicode="&#x160;" horiz-adv-x="564" d="M298 736 L444 866 L401 874 L297 796 L191 874 L145 866 L298 736 Z M290 -9 C449 -9 535 71 535 188 C535 295 458 357 296 384 C157 407 122 452 122 517 C122 586 188 639 278 639 C380 639 442 577 457 503 L514 517 C496 614 412 689 283 689 C139 689 60 607 60 510 C60 413 122 349 264 324 C403 300 469 264 469 183 C469 90 396 44 290 44 C152 44 93 142 85 196 L27 184 C38 122 98 -9 290 -9 L290 -9 Z " />
<glyph glyph-name="scaron" unicode="&#x161;" horiz-adv-x="453" d="M232 570 L379 700 L335 707 L232 629 L125 707 L78 700 L232 570 Z M233 -9 C377 -9 431 69 431 140 C431 227 369 273 249 289 C132 304 101 327 101 383 C101 434 139 469 221 469 C308 469 344 423 356 379 L409 390 C391 469 323 516 223 516 C122 516 42 467 42 377 C42 290 94 253 216 233 C342 212 371 186 371 135 C371 87 334 39 237 39 C136 39 90 92 79 145 L22 133 C35 72 85 -9 233 -9 L233 -9 Z " />
<glyph glyph-name="Ydieresis" unicode="&#x178;" horiz-adv-x="511" d="M341 741 C363 741 382 759 382 782 C382 804 362 820 342 820 C321 820 302 804 302 782 C302 760 319 741 341 741 L341 741 Z M187 741 C210 741 229 759 229 782 C229 804 209 820 188 820 C168 820 149 804 149 782 C149 760 166 741 187 741 L187 741 Z M224 0 L287 0 L287 299 L510 679 L450 679 L264 353 L262 353 L75 679 L1 679 L224 298 L224 0 Z " />
<glyph glyph-name="Zcaron" unicode="&#x17d;" horiz-adv-x="549" d="M288 736 L434 866 L391 874 L287 796 L181 874 L135 866 L288 736 Z M38 0 L510 0 L510 54 L112 54 L112 57 L498 636 L498 679 L65 679 L65 626 L423 626 L423 624 L38 54 L38 0 Z " />
<glyph glyph-name="zcaron" unicode="&#x17e;" horiz-adv-x="402" d="M216 570 L363 700 L319 707 L216 629 L109 707 L62 700 L216 570 Z M18 0 L382 0 L382 46 L90 46 L90 48 L382 470 L382 503 L43 503 L43 457 L304 457 L304 455 L18 46 L18 0 Z " />
<glyph glyph-name="florin" unicode="&#x192;" horiz-adv-x="593" d="M53 -178 C129 -178 196 -141 230 -13 L316 307 L503 307 L503 354 L328 354 L376 531 C396 604 428 639 483 639 C514 639 544 631 544 631 L557 678 C557 678 531 686 489 686 C413 686 346 641 315 527 L268 354 L113 354 L113 307 L256 307 L169 -16 C147 -98 116 -130 58 -130 C28 -130 2 -121 2 -121 L-12 -169 C-12 -169 11 -178 53 -178 L53 -178 Z " />
<glyph glyph-name="circumflex" unicode="&#x2c6;" horiz-adv-x="518" d="M157 577 L264 656 L368 577 L411 585 L264 715 L111 585 L157 577 Z " />
<glyph glyph-name="caron" unicode="&#x2c7;" horiz-adv-x="518" d="M264 570 L410 700 L367 707 L264 629 L157 707 L111 700 L264 570 Z " />
<glyph glyph-name="breve" unicode="&#x2d8;" horiz-adv-x="456" d="M237 598 C306 598 362 629 378 704 L338 704 C320 657 283 642 237 642 C192 642 147 655 133 704 L88 704 C109 625 163 598 237 598 L237 598 Z " />
<glyph glyph-name="dotaccent" unicode="&#x2d9;" horiz-adv-x="226" d="M80 591 L146 591 L146 657 L80 657 L80 591 Z " />
<glyph glyph-name="ring" unicode="&#x2da;" horiz-adv-x="516" d="M272 560 C323 560 365 598 365 649 C365 699 323 738 272 738 C221 738 179 699 179 649 C179 598 221 560 272 560 L272 560 Z M271 583 C235 583 205 611 205 649 C205 683 231 713 271 713 C309 713 338 683 338 649 C338 611 307 583 271 583 L271 583 Z " />
<glyph glyph-name="ogonek" unicode="&#x2db;" horiz-adv-x="424" d="M218 -135 C252 -135 285 -117 302 -104 L286 -83 C274 -92 252 -102 226 -102 C196 -102 170 -88 170 -60 C170 -26 197 -13 224 -3 L224 0 L186 -5 C159 -15 126 -40 126 -69 C126 -115 177 -135 218 -135 L218 -135 Z " />
<glyph glyph-name="tilde" unicode="&#x2dc;" horiz-adv-x="518" d="M347 602 C379 602 413 623 426 664 L393 679 C384 660 370 650 349 650 C293 650 258 694 198 694 C166 694 133 674 119 634 L152 618 C160 637 175 646 196 646 C251 646 287 602 347 602 L347 602 Z " />
<glyph glyph-name="hungarumlaut" unicode="&#x2dd;" horiz-adv-x="564" d="M254 552 L435 694 L394 728 L234 574 L254 552 Z M193 544 L374 687 L332 721 L172 566 L193 544 Z " />
<glyph glyph-name="endash" unicode="&#x2013;" horiz-adv-x="465" d="M0 234 L465 234 L465 279 L0 279 L0 234 Z " />
<glyph glyph-name="emdash" unicode="&#x2014;" horiz-adv-x="954" d="M0 234 L954 234 L954 279 L0 279 L0 234 Z " />
<glyph glyph-name="quoteleft" unicode="&#x2018;" horiz-adv-x="264" d="M78 488 L157 488 L157 569 L118 569 L166 679 L140 679 L78 568 L78 488 Z " />
<glyph glyph-name="quoteright" unicode="&#x2019;" horiz-adv-x="264" d="M86 488 L112 488 L173 599 L173 679 L95 679 L95 599 L134 599 L86 488 Z " />
<glyph glyph-name="quotesinglbase" unicode="&#x201a;" horiz-adv-x="264" d="M86 -110 L112 -110 L173 1 L173 80 L95 80 L95 0 L134 0 L86 -110 Z " />
<glyph glyph-name="quotedblleft" unicode="&#x201c;" horiz-adv-x="390" d="M212 488 L290 488 L290 569 L252 569 L300 679 L273 679 L212 568 L212 488 Z M84 488 L163 488 L163 569 L124 569 L171 679 L145 679 L84 568 L84 488 Z " />
<glyph glyph-name="quotedblright" unicode="&#x201d;" horiz-adv-x="390" d="M214 488 L241 488 L302 599 L302 679 L223 679 L223 599 L262 599 L214 488 Z M86 488 L112 488 L173 599 L173 679 L95 679 L95 599 L134 599 L86 488 Z " />
<glyph glyph-name="quotedblbase" unicode="&#x201e;" horiz-adv-x="390" d="M214 -110 L241 -110 L302 1 L302 80 L223 80 L223 0 L262 0 L214 -110 Z M86 -110 L112 -110 L173 1 L173 80 L95 80 L95 0 L134 0 L86 -110 Z " />
<glyph glyph-name="dagger" unicode="&#x2020;" horiz-adv-x="535" d="M255 -169 L282 -169 L282 -36 C282 165 294 336 313 403 L281 444 L281 446 L485 426 L473 461 L485 495 L281 467 L312 680 L268 665 L223 680 L256 467 L51 495 L62 461 L51 426 L256 446 L256 444 L221 403 C239 351 252 165 254 -37 L255 -169 Z " />
<glyph glyph-name="daggerdbl" unicode="&#x2021;" horiz-adv-x="535" d="M255 -169 L282 -169 L282 -80 C282 91 294 212 313 280 L281 320 L281 322 L485 303 L473 338 L485 371 L286 344 L313 421 L281 462 L281 464 L485 444 L473 480 L485 513 L281 485 L312 680 L268 665 L223 680 L256 485 L51 513 L62 480 L51 444 L256 464 L256 462 L221 421 L249 345 L51 371 L62 338 L51 303 L256 322 L256 320 L221 280 C239 227 252 91 254 -81 L255 -169 Z " />
<glyph glyph-name="bullet" unicode="&#x2022;" horiz-adv-x="371" d="M184 168 C267 168 329 228 329 309 C329 390 267 452 184 452 C102 452 40 390 40 309 C40 226 102 168 184 168 L184 168 Z " />
<glyph glyph-name="ellipsis" unicode="&#x2026;" horiz-adv-x="768" d="M603 0 L685 0 L685 82 L603 82 L603 0 Z M346 0 L427 0 L427 82 L346 82 L346 0 Z M87 0 L169 0 L169 82 L87 82 L87 0 Z " />
<glyph glyph-name="perthousand" unicode="&#x2030;" horiz-adv-x="959" d="M165 342 C262 342 306 429 306 514 C306 602 263 689 163 689 C65 689 23 602 23 514 C23 429 68 342 165 342 L165 342 Z M76 0 L133 0 L563 679 L507 679 L76 0 Z M798 -9 C895 -9 939 78 939 163 C939 251 896 337 796 337 C698 337 656 251 656 163 C656 78 701 -9 798 -9 L798 -9 Z M478 -9 C575 -9 619 78 619 163 C619 251 576 337 476 337 C378 337 336 251 336 163 C336 78 381 -9 478 -9 L478 -9 Z M165 381 C90 381 69 456 69 514 C69 579 90 649 163 649 C238 649 260 579 260 514 C260 456 239 381 165 381 L165 381 Z M798 29 C724 29 703 104 703 163 C703 227 724 298 796 298 C870 298 893 227 893 163 C893 104 872 29 798 29 L798 29 Z M478 29 C403 29 382 104 382 163 C382 227 403 298 476 298 C550 298 572 227 572 163 C572 104 552 29 478 29 L478 29 Z " />
<glyph glyph-name="guilsinglleft" unicode="&#x2039;" horiz-adv-x="198" d="M127 106 L158 106 L102 256 L158 400 L126 400 L40 256 L127 106 Z " />
<glyph glyph-name="guilsinglright" unicode="&#x203a;" horiz-adv-x="198" d="M37 106 L68 106 L155 256 L69 400 L37 400 L93 256 L37 106 Z " />
<glyph glyph-name="fraction" unicode="&#x2044;" horiz-adv-x="140" d="M-163 0 L-109 0 L302 679 L248 679 L-163 0 Z " />
<glyph glyph-name="Euro" unicode="&#x20ac;" horiz-adv-x="593" d="M358 -9 C491 -9 560 101 581 214 L523 227 C504 118 453 40 358 40 C243 40 198 139 184 248 L341 248 L358 295 L181 295 C179 311 179 326 179 342 C179 355 179 369 179 382 L390 382 L407 429 L183 429 C196 538 239 640 352 640 C456 640 499 558 519 458 L580 470 C557 581 499 689 352 689 C205 689 140 566 120 429 L7 429 L7 382 L116 382 C114 368 114 353 114 338 C114 323 114 309 116 295 L6 295 L6 248 L120 248 C141 112 210 -9 358 -9 L358 -9 Z " />
<glyph glyph-name="trademark" unicode="&#x2122;" horiz-adv-x="805" d="M351 296 L389 296 L389 630 L391 630 L528 296 L562 296 L693 630 L695 630 L695 296 L742 296 L742 680 L676 680 L549 356 L547 356 L416 680 L351 680 L351 296 Z M130 296 L177 296 L177 641 L295 641 L295 680 L12 680 L12 641 L130 641 L130 296 Z " />
<glyph glyph-name="partialdiff" unicode="&#x2202;" horiz-adv-x="518" d="M254 -9 C387 -9 478 94 478 256 C478 492 286 685 167 720 L136 676 C222 654 337 562 376 473 L374 473 C353 497 309 516 264 516 C131 516 40 416 40 256 C40 121 100 -9 254 -9 L254 -9 Z M257 39 C156 39 104 123 104 256 C104 409 177 468 260 468 C360 468 414 381 414 253 C414 99 339 39 257 39 L257 39 Z " />
<glyph glyph-name="minus" unicode="&#x2212;" horiz-adv-x="593" d="M40 264 L545 264 L545 312 L40 312 L40 264 Z " />
<glyph glyph-name="integral" unicode="&#x222b;" horiz-adv-x="593" d="M53 -178 C129 -178 196 -141 230 -13 L376 531 C396 604 428 639 483 639 C514 639 544 631 544 631 L557 678 C557 678 531 686 489 686 C413 686 346 641 315 527 L169 -16 C147 -98 116 -130 58 -130 C28 -130 2 -121 2 -121 L-12 -169 C-12 -169 11 -178 53 -178 L53 -178 Z " />
<glyph glyph-name="fi" unicode="&#xfb01;" horiz-adv-x="488" d="M339 591 L406 591 L406 657 L339 657 L339 591 Z M100 0 L158 0 L158 457 L294 457 L294 503 L158 503 L158 531 C158 604 183 639 239 639 C269 639 302 631 302 631 L302 678 C302 678 273 686 232 686 C156 686 100 642 100 527 L100 503 L13 503 L13 457 L100 457 L100 0 Z M343 0 L402 0 L402 503 L343 503 L343 0 Z " />
<glyph glyph-name="fl" unicode="&#xfb02;" horiz-adv-x="483" d="M100 0 L158 0 L158 457 L287 457 L287 503 L158 503 L158 531 C158 604 183 639 239 639 C269 639 302 631 302 631 L302 678 C302 678 273 686 232 686 C156 686 100 642 100 527 L100 503 L13 503 L13 457 L100 457 L100 0 Z M342 0 L400 0 L400 679 L342 679 L342 0 Z " />
</font>
</svg>
