<?xml version="1.0" encoding="UTF-8"?>
<svg xmlns="http://www.w3.org/2000/svg" xmlns:xlink="http://www.w3.org/1999/xlink" version="1.2" >
<font id="TeeFranklin-Light">
<font-face  font-family="TeeFranklin" units-per-em="1000" ascent="750" descent="-250" font-style="normal" font-weight="300" font-stretch="normal" cap-height="700" x-height="500" underline-position="-90" underline-thickness="20" />
<missing-glyph  horiz-adv-x="500" d="" />
<glyph glyph-name="NULL" d="" />
<glyph glyph-name="CR" unicode="&#xd;" horiz-adv-x="250" d="" />
<glyph glyph-name="space" unicode="&#x20;" horiz-adv-x="290" d="" />
<glyph glyph-name="exclam" unicode="&#x21;" horiz-adv-x="219" d="M97 149 L120 149 L142 679 L77 679 L97 149 Z M81 0 L138 0 L138 57 L81 57 L81 0 Z " />
<glyph glyph-name="quotedbl" unicode="&#x22;" horiz-adv-x="343" d="M226 442 L257 442 L267 560 L267 679 L215 679 L215 560 L226 442 Z M91 442 L122 442 L132 560 L132 679 L81 679 L81 560 L91 442 Z " />
<glyph glyph-name="numbersign" unicode="&#x23;" horiz-adv-x="588" d="M123 0 L160 0 L203 233 L341 233 L299 0 L337 0 L379 233 L522 233 L522 269 L387 269 L413 418 L554 418 L554 454 L421 454 L461 679 L422 679 L382 454 L244 454 L284 679 L247 679 L207 454 L63 454 L63 418 L199 418 L172 269 L30 269 L30 233 L165 233 L123 0 Z M210 269 L237 418 L375 418 L349 269 L210 269 Z " />
<glyph glyph-name="dollar" unicode="&#x24;" horiz-adv-x="588" d="M268 -74 L304 -74 L304 5 C447 8 524 81 524 189 C524 290 452 348 304 374 L304 642 C395 634 449 578 463 500 L503 509 C488 603 418 673 304 679 L304 750 L268 750 L268 679 C146 672 79 598 79 512 C79 421 131 361 268 336 L268 44 C143 55 95 149 89 200 L47 191 C56 133 107 16 268 5 L268 -74 Z M268 381 C152 405 123 451 123 516 C123 582 178 637 268 642 L268 381 Z M304 43 L304 329 C421 305 477 266 477 187 C477 96 414 46 304 43 L304 43 Z " />
<glyph glyph-name="percent" unicode="&#x25;" horiz-adv-x="629" d="M158 347 C255 347 299 432 299 517 C299 605 256 689 156 689 C58 689 16 605 16 517 C16 432 61 347 158 347 L158 347 Z M66 0 L111 0 L555 679 L512 679 L66 0 Z M466 -9 C563 -9 607 76 607 161 C607 249 564 333 464 333 C366 333 324 249 324 161 C324 76 369 -9 466 -9 L466 -9 Z M158 377 C79 377 52 452 52 517 C52 587 78 658 156 658 C236 658 263 587 263 517 C263 452 237 377 158 377 L158 377 Z M466 21 C387 21 360 95 360 161 C360 230 385 302 464 302 C544 302 571 230 571 161 C571 95 545 21 466 21 L466 21 Z " />
<glyph glyph-name="ampersand" unicode="&#x26;" horiz-adv-x="639" d="M236 -9 C310 -9 372 15 426 59 C458 20 485 -3 538 -3 C564 -3 605 6 605 6 L605 44 C605 44 569 37 542 37 C506 37 481 52 455 87 C524 155 576 258 593 359 L553 365 C539 274 498 181 433 116 L267 376 C358 415 435 465 435 553 C435 636 366 689 286 689 C205 689 142 631 142 554 C142 498 173 448 210 390 C113 351 30 294 30 181 C30 74 112 -9 236 -9 L236 -9 Z M249 404 L241 417 C210 464 184 505 184 557 C184 609 229 653 287 653 C346 653 396 611 396 552 C396 480 338 442 249 404 L249 404 Z M240 27 C142 27 77 91 77 183 C77 282 151 331 229 362 L404 88 C359 49 303 27 240 27 L240 27 Z " />
<glyph glyph-name="quotesingle" unicode="&#x27;" horiz-adv-x="214" d="M91 442 L122 442 L132 560 L132 679 L81 679 L81 560 L91 442 Z " />
<glyph glyph-name="parenleft" unicode="&#x28;" horiz-adv-x="273" d="M207 -169 L236 -169 C155 -47 102 98 102 259 C102 414 156 560 235 680 L206 680 C121 562 60 416 60 257 C60 98 115 -57 207 -169 L207 -169 Z " />
<glyph glyph-name="parenright" unicode="&#x29;" horiz-adv-x="273" d="M44 -169 L73 -169 C165 -57 220 98 220 257 C220 416 159 562 74 680 L45 680 C123 560 178 414 178 259 C178 98 125 -47 44 -169 L44 -169 Z " />
<glyph glyph-name="asterisk" unicode="&#x2a;" horiz-adv-x="367" d="M205 365 L245 377 L186 516 L336 501 L336 543 L187 530 L245 667 L207 679 L174 534 L61 632 L38 598 L166 522 L38 444 L64 411 L174 510 L205 365 Z " />
<glyph glyph-name="plus" unicode="&#x2b;" horiz-adv-x="588" d="M272 39 L309 39 L309 271 L540 271 L540 308 L309 308 L309 540 L272 540 L272 308 L40 308 L40 271 L272 271 L272 39 Z " />
<glyph glyph-name="comma" unicode="&#x2c;" horiz-adv-x="221" d="M60 -110 L81 -110 L142 6 L142 62 L81 62 L81 0 L108 0 L60 -110 Z " />
<glyph glyph-name="hyphen" unicode="&#x2d;" horiz-adv-x="240" d="M11 238 L223 238 L223 274 L11 274 L11 238 Z " />
<glyph glyph-name="period" unicode="&#x2e;" horiz-adv-x="230" d="M85 0 L145 0 L145 60 L85 60 L85 0 Z " />
<glyph glyph-name="slash" unicode="&#x2f;" horiz-adv-x="489" d="M18 -169 L57 -169 L473 680 L433 680 L18 -169 Z " />
<glyph glyph-name="zero" unicode="0" horiz-adv-x="588" d="M296 -9 C469 -9 546 164 546 343 C546 525 465 689 292 689 C117 689 41 512 41 337 C41 162 121 -9 296 -9 L296 -9 Z M296 28 C143 28 89 189 89 339 C89 488 142 652 292 652 C447 652 498 484 498 338 C498 183 446 28 296 28 L296 28 Z " />
<glyph glyph-name="one" unicode="1" horiz-adv-x="588" d="M94 0 L544 0 L544 36 L352 36 L352 679 L315 679 C269 611 190 542 108 515 L108 468 C189 498 265 568 304 620 L306 620 L306 36 L94 36 L94 0 Z " />
<glyph glyph-name="two" unicode="2" horiz-adv-x="588" d="M51 0 L523 0 L523 39 L123 39 L123 41 L356 221 C443 289 522 374 522 479 C522 609 412 689 295 689 C170 689 76 613 54 492 L99 482 C113 581 186 651 294 651 C390 651 476 581 476 479 C476 384 405 311 317 242 L51 34 L51 0 Z " />
<glyph glyph-name="three" unicode="3" horiz-adv-x="588" d="M284 -9 C419 -9 536 58 536 185 C536 280 462 344 373 357 L373 359 C445 371 509 436 509 513 C509 635 404 689 292 689 C183 689 91 634 59 535 L101 524 C127 602 197 652 289 652 C383 652 462 608 462 511 C462 432 395 374 293 374 L199 374 L199 337 L289 337 C412 337 488 274 488 185 C488 78 389 29 283 29 C182 29 102 72 76 168 L33 154 C65 44 167 -9 284 -9 L284 -9 Z " />
<glyph glyph-name="four" unicode="4" horiz-adv-x="588" d="M384 0 L430 0 L430 172 L552 172 L552 209 L430 209 L430 679 L374 679 L36 206 L36 172 L384 172 L384 0 Z M84 209 L84 211 L382 635 L384 635 L384 209 L84 209 Z " />
<glyph glyph-name="five" unicode="5" horiz-adv-x="588" d="M276 -9 C424 -9 531 82 531 231 C531 364 429 455 301 455 C213 455 156 412 129 376 L127 376 L147 638 L491 638 L495 679 L111 679 L87 328 L126 319 C152 372 213 417 299 417 C404 417 486 342 486 231 C486 102 402 29 278 29 C183 29 110 83 88 163 L46 150 C73 51 170 -9 276 -9 L276 -9 Z " />
<glyph glyph-name="six" unicode="6" horiz-adv-x="588" d="M297 -9 C425 -9 539 81 539 221 C539 352 448 444 309 444 C197 444 110 369 88 301 L86 301 C91 504 152 650 308 650 C415 650 460 597 478 537 L520 548 C498 624 438 689 309 689 C142 689 48 543 48 293 C48 133 129 -9 297 -9 L297 -9 Z M295 29 C182 29 97 118 97 240 C97 323 192 406 303 406 C416 406 495 334 495 220 C495 98 402 29 295 29 L295 29 Z " />
<glyph glyph-name="seven" unicode="7" horiz-adv-x="588" d="M210 0 L257 0 L257 23 C257 239 367 478 520 647 L520 679 L85 679 L78 638 L470 638 L470 636 C324 474 210 232 210 0 L210 0 Z " />
<glyph glyph-name="eight" unicode="8" horiz-adv-x="588" d="M297 -9 C416 -9 549 46 549 178 C549 281 431 341 353 365 L353 367 C429 388 519 446 519 532 C519 638 420 689 299 689 C191 689 70 645 70 525 C70 438 169 378 237 360 L237 358 C159 336 36 267 36 170 C36 47 171 -9 297 -9 L297 -9 Z M296 381 C219 397 117 446 117 528 C117 622 212 653 300 653 C399 653 478 619 478 530 C478 446 379 402 296 381 L296 381 Z M296 27 C196 27 82 67 82 170 C82 259 203 323 293 342 C382 319 503 267 503 173 C503 68 390 27 296 27 L296 27 Z " />
<glyph glyph-name="nine" unicode="9" horiz-adv-x="588" d="M263 -9 C425 -9 527 137 527 380 C527 547 446 689 273 689 C146 689 36 601 36 461 C36 329 126 236 268 236 C383 236 465 309 486 376 L488 376 C485 180 417 30 264 30 C157 30 113 83 96 138 L55 125 C77 56 134 -9 263 -9 L263 -9 Z M274 274 C159 274 80 347 80 463 C80 584 173 651 275 651 C393 651 478 558 478 436 C478 355 387 274 274 274 L274 274 Z " />
<glyph glyph-name="colon" unicode="&#x3a;" horiz-adv-x="230" d="M85 443 L145 443 L145 503 L85 503 L85 443 Z M85 0 L145 0 L145 60 L85 60 L85 0 Z " />
<glyph glyph-name="semicolon" unicode="&#x3b;" horiz-adv-x="221" d="M81 443 L141 443 L141 503 L81 503 L81 443 Z M60 -110 L81 -110 L142 6 L142 62 L81 62 L81 0 L108 0 L60 -110 Z " />
<glyph glyph-name="less" unicode="&#x3c;" horiz-adv-x="588" d="M529 70 L529 108 L94 285 L94 287 L529 465 L529 501 L45 299 L45 272 L529 70 Z " />
<glyph glyph-name="equal" unicode="&#x3d;" horiz-adv-x="588" d="M42 359 L540 359 L540 394 L42 394 L42 359 Z M41 185 L539 185 L539 221 L41 221 L41 185 Z " />
<glyph glyph-name="greater" unicode="&#x3e;" horiz-adv-x="588" d="M50 70 L534 272 L534 299 L50 501 L50 465 L485 287 L485 285 L50 108 L50 70 Z " />
<glyph glyph-name="question" unicode="&#x3f;" horiz-adv-x="471" d="M193 154 L234 154 L234 215 C234 280 262 302 302 322 C392 367 444 425 444 506 C444 623 346 689 234 689 C119 689 35 610 21 496 L63 488 C76 584 139 650 232 650 C320 650 396 599 396 506 C396 439 355 393 275 352 C220 324 193 291 193 211 L193 154 Z M187 0 L243 0 L243 55 L187 55 L187 0 Z " />
<glyph glyph-name="at" unicode="&#x40;" horiz-adv-x="756" d="M378 -109 C454 -109 494 -94 494 -94 L484 -67 C484 -67 451 -80 378 -80 C191 -80 75 71 75 252 C75 437 197 581 386 581 C570 581 676 448 676 241 C676 132 642 19 574 19 C548 19 527 48 527 132 L527 320 C527 429 463 455 388 455 C299 455 253 414 243 351 L278 345 C290 400 330 426 390 426 C443 426 491 409 491 323 L491 293 L414 293 C293 293 231 250 231 174 C231 108 282 62 360 62 C443 62 479 108 489 139 L491 139 C491 29 520 -10 573 -10 C668 -10 711 137 711 241 C711 463 586 609 386 609 C181 609 40 454 40 252 C40 56 174 -109 378 -109 L378 -109 Z M366 91 C311 91 270 124 270 172 C270 238 326 264 423 264 L491 264 L491 224 C491 142 441 91 366 91 L366 91 Z " />
<glyph glyph-name="A" unicode="A" horiz-adv-x="523" d="M10 0 L52 0 L121 211 L394 211 L464 0 L514 0 L288 679 L234 679 L10 0 Z M133 248 L256 626 L258 626 L382 248 L133 248 Z " />
<glyph glyph-name="B" unicode="B" horiz-adv-x="572" d="M79 0 L308 0 C422 0 531 45 531 185 C531 291 452 349 361 356 L361 358 C434 369 497 422 497 515 C497 637 399 679 284 679 L79 679 L79 0 Z M126 371 L126 640 L277 640 C378 640 451 610 451 511 C451 408 368 371 271 371 L126 371 Z M126 40 L126 335 L301 335 C403 335 484 293 484 186 C484 76 398 40 300 40 L126 40 Z " />
<glyph glyph-name="C" unicode="C" horiz-adv-x="584" d="M303 -9 C442 -9 520 88 549 216 L505 226 C479 102 406 30 303 30 C180 30 89 149 89 335 C89 523 170 650 308 650 C413 650 477 570 502 459 L547 468 C519 588 445 689 305 689 C119 689 40 509 40 335 C40 166 121 -9 303 -9 L303 -9 Z " />
<glyph glyph-name="D" unicode="D" horiz-adv-x="603" d="M80 0 L290 0 C471 0 563 158 563 348 C563 509 472 679 285 679 L80 679 L80 0 Z M127 39 L127 639 L282 639 C420 639 515 523 515 346 C515 131 404 39 276 39 L127 39 Z " />
<glyph glyph-name="E" unicode="E" horiz-adv-x="551" d="M80 0 L506 0 L506 40 L127 40 L127 336 L423 336 L423 374 L127 374 L127 638 L493 638 L493 679 L80 679 L80 0 Z " />
<glyph glyph-name="F" unicode="F" horiz-adv-x="469" d="M80 0 L127 0 L127 335 L420 335 L420 374 L127 374 L127 638 L479 638 L479 679 L80 679 L80 0 Z " />
<glyph glyph-name="G" unicode="G" horiz-adv-x="628" d="M303 -9 C432 -9 493 71 515 126 L517 126 L534 0 L559 0 L559 325 L317 325 L317 286 L512 286 L512 237 C512 119 436 30 306 30 C180 30 89 145 89 335 C89 523 177 650 313 650 C417 650 486 581 508 478 L553 488 C526 602 445 689 317 689 C130 689 40 512 40 335 C40 161 121 -9 303 -9 L303 -9 Z " />
<glyph glyph-name="H" unicode="H" horiz-adv-x="605" d="M80 0 L127 0 L127 337 L479 337 L479 0 L526 0 L526 679 L479 679 L479 378 L127 378 L127 679 L80 679 L80 0 Z " />
<glyph glyph-name="I" unicode="I" horiz-adv-x="213" d="M84 0 L131 0 L131 679 L84 679 L84 0 Z " />
<glyph glyph-name="J" unicode="J" horiz-adv-x="339" d="M92 -9 C193 -9 259 48 259 196 L259 680 L212 680 L212 192 C212 75 168 31 87 31 C34 31 -5 45 -5 45 L-5 5 C-5 5 30 -9 92 -9 L92 -9 Z " />
<glyph glyph-name="K" unicode="K" horiz-adv-x="576" d="M80 0 L127 0 L127 188 L279 380 L517 0 L572 0 L310 417 L518 679 L465 679 L129 248 L127 248 L127 679 L80 679 L80 0 Z " />
<glyph glyph-name="L" unicode="L" horiz-adv-x="481" d="M80 0 L469 0 L469 41 L127 41 L127 679 L80 679 L80 0 Z " />
<glyph glyph-name="M" unicode="M" horiz-adv-x="781" d="M80 0 L120 0 L120 616 L124 616 L372 0 L410 0 L651 616 L655 616 L655 0 L701 0 L701 679 L636 679 L395 70 L393 70 L147 679 L80 679 L80 0 Z " />
<glyph glyph-name="N" unicode="N" horiz-adv-x="630" d="M80 0 L120 0 L120 623 L122 623 L505 0 L550 0 L550 679 L511 679 L511 75 L509 75 L137 679 L80 679 L80 0 Z " />
<glyph glyph-name="O" unicode="O" horiz-adv-x="615" d="M310 -9 C492 -9 575 169 575 348 C575 509 494 689 308 689 C122 689 40 503 40 335 C40 164 124 -9 310 -9 L310 -9 Z M310 29 C176 29 89 154 89 335 C89 519 170 650 311 650 C453 650 526 509 526 346 C526 156 444 29 310 29 L310 29 Z " />
<glyph glyph-name="P" unicode="P" horiz-adv-x="508" d="M80 0 L127 0 L127 293 L279 293 C395 293 495 352 495 489 C495 619 401 679 279 679 L80 679 L80 0 Z M127 331 L127 639 L278 639 C380 639 448 592 448 487 C448 379 372 331 274 331 L127 331 Z " />
<glyph glyph-name="Q" unicode="Q" horiz-adv-x="615" d="M451 -162 C493 -162 517 -149 517 -149 L517 -112 C517 -112 483 -119 443 -119 C395 -119 349 -95 348 -5 C503 17 577 177 577 348 C577 509 495 689 309 689 C123 689 40 503 40 335 C40 164 124 -8 310 -9 C314 -117 365 -162 451 -162 L451 -162 Z M345 34 C341 166 288 222 227 222 C178 222 141 191 137 137 L135 137 C107 188 89 252 89 335 C89 523 174 650 312 650 C450 650 528 513 528 346 C528 169 456 53 345 34 L345 34 Z M308 29 C239 30 158 69 158 126 C158 162 180 189 223 189 C270 189 307 144 308 29 L308 29 Z " />
<glyph glyph-name="R" unicode="R" horiz-adv-x="545" d="M80 0 L127 0 L127 312 L303 312 L467 0 L519 0 L347 321 C432 334 503 385 503 498 C503 628 409 679 287 679 L80 679 L80 0 Z M127 350 L127 639 L285 639 C388 639 456 600 456 497 C456 390 380 350 282 350 L127 350 Z " />
<glyph glyph-name="S" unicode="S" horiz-adv-x="552" d="M282 -9 C437 -9 520 67 520 183 C520 289 444 350 280 377 C141 400 106 449 106 520 C106 593 171 651 272 651 C379 651 442 589 457 504 L500 514 C484 615 403 689 275 689 C136 689 60 609 60 516 C60 420 116 358 258 333 C405 307 472 267 472 180 C472 83 400 30 282 30 C134 30 78 137 71 193 L27 184 C37 121 95 -9 282 -9 L282 -9 Z " />
<glyph glyph-name="T" unicode="T" horiz-adv-x="485" d="M220 0 L267 0 L267 638 L477 638 L477 679 L10 679 L10 638 L220 638 L220 0 Z " />
<glyph glyph-name="U" unicode="U" horiz-adv-x="612" d="M305 -9 C440 -9 532 69 532 227 L532 679 L492 679 L492 227 C492 86 411 32 308 32 C206 32 127 84 127 223 L127 679 L80 679 L80 227 C80 66 168 -9 305 -9 L305 -9 Z " />
<glyph glyph-name="V" unicode="V" horiz-adv-x="505" d="M229 0 L275 0 L505 679 L461 679 L257 65 L255 65 L50 679 L0 679 L229 0 Z " />
<glyph glyph-name="W" unicode="W" horiz-adv-x="765" d="M176 0 L223 0 L381 591 L383 591 L545 0 L591 0 L765 679 L722 679 L572 70 L570 70 L404 679 L366 679 L205 72 L203 72 L51 679 L0 679 L176 0 Z " />
<glyph glyph-name="X" unicode="X" horiz-adv-x="523" d="M22 0 L67 0 L258 320 L260 320 L448 0 L501 0 L285 362 L478 679 L433 679 L265 397 L263 397 L97 679 L44 679 L237 355 L22 0 Z " />
<glyph glyph-name="Y" unicode="Y" horiz-adv-x="488" d="M221 0 L267 0 L267 308 L487 679 L441 679 L250 348 L248 348 L56 679 L1 679 L221 307 L221 0 Z " />
<glyph glyph-name="Z" unicode="Z" horiz-adv-x="542" d="M38 0 L503 0 L503 40 L93 40 L93 43 L491 646 L491 679 L70 679 L70 640 L436 640 L436 638 L38 40 L38 0 Z " />
<glyph glyph-name="bracketleft" unicode="&#x5b;" horiz-adv-x="226" d="M60 -169 L204 -169 L204 -137 L100 -137 L100 649 L204 649 L204 680 L60 680 L60 -169 Z " />
<glyph glyph-name="backslash" unicode="&#x5c;" horiz-adv-x="489" d="M432 -169 L470 -169 L58 680 L18 680 L432 -169 Z " />
<glyph glyph-name="bracketright" unicode="&#x5d;" horiz-adv-x="226" d="M24 -169 L168 -169 L168 680 L24 680 L24 649 L128 649 L128 -137 L24 -137 L24 -169 Z " />
<glyph glyph-name="asciicircum" unicode="&#x5e;" horiz-adv-x="588" d="M98 255 L137 255 L285 631 L287 631 L436 255 L473 255 L302 679 L269 679 L98 255 Z " />
<glyph glyph-name="underscore" unicode="&#x5f;" horiz-adv-x="445" d="M0 -114 L445 -114 L445 -86 L0 -86 L0 -114 Z " />
<glyph glyph-name="grave" unicode="&#x60;" horiz-adv-x="508" d="M307 548 L321 565 L159 717 L127 692 L307 548 Z " />
<glyph glyph-name="a" unicode="a" horiz-adv-x="500" d="M217 -9 C329 -9 378 53 393 99 L395 99 L407 0 L451 0 C451 0 440 70 440 91 L440 337 C440 482 363 516 263 516 C145 516 77 461 64 379 L105 372 C120 446 174 481 259 481 C332 481 397 460 397 341 L397 296 L291 296 C127 296 47 241 47 139 C47 52 115 -9 217 -9 L217 -9 Z M225 26 C149 26 93 70 93 137 C93 227 169 262 302 262 L397 262 L397 206 C397 93 328 26 225 26 L225 26 Z " />
<glyph glyph-name="b" unicode="b" horiz-adv-x="509" d="M267 -9 C392 -9 469 96 469 258 C469 377 426 516 278 516 C188 516 136 446 115 388 L113 388 L113 679 L70 679 L70 0 L89 0 L108 114 L110 114 C127 60 177 -9 267 -9 L267 -9 Z M269 27 C176 27 113 113 113 222 L113 285 C113 400 192 480 274 480 C378 480 423 380 423 256 C423 99 354 27 269 27 L269 27 Z " />
<glyph glyph-name="c" unicode="c" horiz-adv-x="466" d="M241 -9 C344 -9 414 58 436 170 L393 177 C374 77 316 28 243 28 C135 28 86 122 86 256 C86 411 158 479 249 479 C331 479 375 417 391 332 L433 339 C414 433 360 516 247 516 C124 516 40 413 40 256 C40 124 95 -9 241 -9 L241 -9 Z " />
<glyph glyph-name="d" unicode="d" horiz-adv-x="509" d="M232 -9 C322 -9 376 61 396 119 L398 119 L398 0 L439 0 L439 679 L396 679 L396 400 L394 400 C379 448 329 516 242 516 C119 516 40 411 40 249 C40 130 84 -9 232 -9 L232 -9 Z M235 27 C132 27 86 127 86 251 C86 408 157 480 242 480 C335 480 396 398 396 286 L396 222 C396 107 317 27 235 27 L235 27 Z " />
<glyph glyph-name="e" unicode="e" horiz-adv-x="508" d="M249 -9 C356 -9 434 45 464 143 L421 151 C396 63 322 27 256 27 C146 27 89 112 88 248 L468 248 L468 258 C468 391 411 516 260 516 C131 516 40 413 40 256 C40 120 98 -9 249 -9 L249 -9 Z M89 281 C94 415 170 481 260 481 C365 481 419 393 421 281 L89 281 Z " />
<glyph glyph-name="f" unicode="f" horiz-adv-x="268" d="M100 0 L143 0 L143 468 L259 468 L259 503 L143 503 L143 532 C143 605 166 649 225 649 C255 649 286 642 286 642 L286 677 C286 677 258 684 221 684 C148 684 100 635 100 530 L100 503 L13 503 L13 468 L100 468 L100 0 Z " />
<glyph glyph-name="g" unicode="g" horiz-adv-x="460" d="M224 -190 C401 -190 459 -116 459 -47 C459 19 403 64 311 68 L176 75 C118 78 90 93 90 130 C90 160 117 181 155 182 C168 182 190 173 219 173 C329 173 402 238 402 339 C402 397 378 446 348 471 C357 519 384 528 435 528 L449 528 L449 563 C449 563 435 567 426 567 C364 567 332 538 327 487 L325 487 C303 503 262 516 222 516 C136 516 41 467 41 343 C41 264 86 220 118 202 L118 200 C93 195 50 171 50 125 C50 83 80 57 105 49 L105 47 C61 34 9 1 9 -59 C9 -141 81 -190 224 -190 L224 -190 Z M221 208 C148 208 86 252 86 344 C86 432 146 480 222 480 C301 480 358 429 358 342 C358 257 308 208 221 208 L221 208 Z M225 -155 C103 -155 52 -113 52 -54 C52 -10 85 16 136 37 L306 27 C375 24 417 -6 417 -49 C417 -116 342 -155 225 -155 L225 -155 Z " />
<glyph glyph-name="h" unicode="h" horiz-adv-x="503" d="M70 0 L113 0 L113 318 C113 375 173 479 277 479 C335 479 390 447 390 344 L390 0 L433 0 L433 341 C433 475 356 516 282 516 C188 516 132 440 115 402 L113 402 L113 679 L70 679 L70 0 Z " />
<glyph glyph-name="i" unicode="i" horiz-adv-x="211" d="M81 591 L131 591 L131 640 L81 640 L81 591 Z M84 0 L127 0 L127 503 L84 503 L84 0 Z " />
<glyph glyph-name="j" unicode="j" horiz-adv-x="205" d="M81 591 L131 591 L131 640 L81 640 L81 591 Z M6 -178 C79 -178 126 -142 126 -14 L126 503 L83 503 L83 -16 C83 -104 62 -142 1 -142 C-28 -142 -57 -133 -57 -133 L-57 -169 C-57 -169 -32 -178 6 -178 L6 -178 Z " />
<glyph glyph-name="k" unicode="k" horiz-adv-x="453" d="M70 0 L113 0 L113 184 L215 294 L396 0 L446 0 L242 322 L414 503 L364 503 L115 235 L113 235 L113 679 L70 679 L70 0 Z " />
<glyph glyph-name="l" unicode="l" horiz-adv-x="207" d="M84 0 L127 0 L127 679 L84 679 L84 0 Z " />
<glyph glyph-name="m" unicode="m" horiz-adv-x="783" d="M70 0 L113 0 L113 318 C113 377 166 479 267 479 C322 479 370 445 370 344 L370 0 L413 0 L413 321 C413 380 466 479 567 479 C622 479 670 445 670 344 L670 0 L713 0 L713 341 C713 476 644 516 572 516 C481 516 423 435 409 396 L407 396 C391 487 333 516 272 516 C181 516 129 437 113 400 L111 400 L111 503 L70 503 L70 0 Z " />
<glyph glyph-name="n" unicode="n" horiz-adv-x="503" d="M70 0 L113 0 L113 318 C113 375 173 479 277 479 C335 479 390 447 390 344 L390 0 L433 0 L433 341 C433 476 356 516 282 516 C188 516 129 437 113 400 L111 400 L111 503 L70 503 L70 0 Z " />
<glyph glyph-name="o" unicode="o" horiz-adv-x="508" d="M249 -9 C382 -9 468 94 468 256 C468 375 413 516 259 516 C126 516 40 416 40 256 C40 121 95 -9 249 -9 L249 -9 Z M251 27 C138 27 87 122 87 256 C87 412 162 480 257 480 C369 480 421 378 421 254 C421 97 345 27 251 27 L251 27 Z " />
<glyph glyph-name="p" unicode="p" horiz-adv-x="507" d="M70 -172 L113 -172 L113 110 L115 110 C132 60 180 -9 269 -9 C392 -9 468 96 468 258 C468 377 426 516 278 516 C188 516 132 444 113 384 L111 384 L111 503 L70 503 L70 -172 Z M267 27 C177 27 113 115 113 222 L113 285 C113 399 191 479 273 479 C376 479 421 380 421 256 C421 99 351 27 267 27 L267 27 Z " />
<glyph glyph-name="q" unicode="q" horiz-adv-x="509" d="M395 -171 L439 -171 L439 503 L418 503 L400 388 L398 388 C380 449 328 516 242 516 C118 516 40 411 40 249 C40 130 83 -9 231 -9 C322 -9 373 60 393 119 L395 119 L395 -171 Z M236 27 C133 27 86 127 86 251 C86 408 158 480 244 480 C335 480 395 393 395 286 L395 224 C395 110 318 27 236 27 L236 27 Z " />
<glyph glyph-name="r" unicode="r" horiz-adv-x="288" d="M70 0 L113 0 L113 278 C113 367 160 473 266 473 L287 473 L287 513 C287 513 272 516 262 516 C175 516 133 446 113 380 L111 380 L111 503 L70 503 L70 0 Z " />
<glyph glyph-name="s" unicode="s" horiz-adv-x="438" d="M226 -9 C365 -9 416 66 416 137 C416 221 355 266 235 283 C117 299 86 324 86 386 C86 443 128 480 214 480 C302 480 341 434 355 382 L394 390 C376 469 314 516 216 516 C116 516 42 467 42 382 C42 296 90 261 212 241 C337 220 372 190 372 134 C372 81 335 27 228 27 C118 27 76 88 65 142 L22 133 C35 72 81 -9 226 -9 L226 -9 Z " />
<glyph glyph-name="t" unicode="t" horiz-adv-x="307" d="M221 -9 C258 -9 285 -3 285 -3 L285 32 C285 32 255 26 225 26 C166 26 145 70 145 143 L145 468 L265 468 L265 503 L145 503 L145 631 L102 622 L102 503 L17 503 L17 468 L102 468 L102 144 C102 38 145 -9 221 -9 L221 -9 Z " />
<glyph glyph-name="u" unicode="u" horiz-adv-x="501" d="M221 -11 C316 -11 372 66 389 104 L391 104 L391 0 L431 0 L431 503 L388 503 L388 184 C388 127 331 26 227 26 C168 26 113 54 113 158 L113 503 L70 503 L70 161 C70 25 146 -11 221 -11 L221 -11 Z " />
<glyph glyph-name="v" unicode="v" horiz-adv-x="401" d="M179 0 L225 0 L401 503 L360 503 L206 55 L204 55 L49 503 L0 503 L179 0 Z " />
<glyph glyph-name="w" unicode="w" horiz-adv-x="613" d="M149 0 L187 0 L305 430 L307 430 L434 0 L472 0 L613 503 L573 503 L453 68 L451 68 L326 503 L288 503 L171 68 L169 68 L45 503 L0 503 L149 0 Z " />
<glyph glyph-name="x" unicode="x" horiz-adv-x="392" d="M14 0 L58 0 L193 227 L195 227 L330 0 L381 0 L220 268 L363 503 L320 503 L200 303 L198 303 L79 503 L28 503 L174 262 L14 0 Z " />
<glyph glyph-name="y" unicode="y" horiz-adv-x="401" d="M61 -178 C118 -178 166 -147 193 -72 L398 503 L357 503 L204 62 L202 62 L52 503 L4 503 L182 2 L159 -62 C140 -111 114 -142 55 -142 C29 -142 7 -134 7 -134 L7 -170 C7 -170 27 -178 61 -178 L61 -178 Z " />
<glyph glyph-name="z" unicode="z" horiz-adv-x="395" d="M18 0 L375 0 L375 35 L72 35 L72 37 L375 476 L375 503 L43 503 L43 468 L317 468 L317 466 L18 35 L18 0 Z " />
<glyph glyph-name="braceleft" unicode="&#x7b;" horiz-adv-x="249" d="M173 -167 L220 -167 L220 -132 L177 -132 C150 -132 141 -107 141 -67 L141 119 C141 220 93 255 66 260 L66 262 C94 267 141 302 141 403 L141 590 C141 627 150 654 183 654 L220 654 L220 689 L178 689 C127 689 99 654 99 594 L99 410 C99 334 89 287 22 275 L22 247 C89 235 99 188 99 112 L99 -72 C99 -133 127 -167 173 -167 L173 -167 Z " />
<glyph glyph-name="bar" unicode="&#x7c;" horiz-adv-x="196" d="M82 -247 L114 -247 L114 743 L82 743 L82 -247 Z " />
<glyph glyph-name="braceright" unicode="&#x7d;" horiz-adv-x="249" d="M26 -167 L73 -167 C119 -167 146 -133 146 -72 L146 112 C146 188 156 235 223 247 L223 275 C156 287 146 335 146 410 L146 594 C146 654 119 689 67 689 L26 689 L26 654 L63 654 C95 654 105 627 105 590 L105 403 C105 302 152 267 180 262 L180 260 C152 255 105 220 105 119 L105 -67 C105 -107 95 -132 69 -132 L26 -132 L26 -167 Z " />
<glyph glyph-name="asciitilde" unicode="&#x7e;" horiz-adv-x="588" d="M413 199 C470 199 525 240 525 340 L487 340 C487 272 462 241 416 241 C338 241 276 353 180 353 C125 353 69 309 69 212 L106 212 C106 280 131 311 177 311 C256 311 317 199 413 199 L413 199 Z " />
<glyph glyph-name="uni00A0" unicode="&#xa0;" horiz-adv-x="290" d="" />
<glyph glyph-name="exclamdown" unicode="&#xa1;" horiz-adv-x="219" d="M80 446 L137 446 L137 503 L80 503 L80 446 Z M76 -176 L141 -176 L121 354 L98 354 L76 -176 Z " />
<glyph glyph-name="cent" unicode="&#xa2;" horiz-adv-x="588" d="M281 -28 L317 -28 L317 111 C401 119 459 180 477 274 L439 280 C423 199 376 155 317 147 L317 549 C385 544 423 488 437 418 L475 425 C459 506 412 579 317 585 L317 708 L281 708 L281 584 C182 573 113 483 113 350 C113 236 161 120 281 111 L281 -28 Z M281 149 C196 158 157 240 157 350 C157 473 210 537 281 547 L281 149 Z " />
<glyph glyph-name="sterling" unicode="&#xa3;" horiz-adv-x="588" d="M5 0 L376 0 C478 0 550 34 580 107 L541 128 C518 74 466 41 371 41 L149 41 L149 43 C196 57 269 129 269 232 C269 264 263 293 257 321 L451 321 L451 357 L249 357 C237 403 224 447 224 493 C224 579 277 651 365 651 C429 651 479 609 499 556 L534 574 C504 644 439 689 364 689 C244 689 177 588 177 486 C177 440 189 400 200 357 L82 357 L82 321 L207 321 C215 289 221 256 221 216 C221 130 152 41 50 41 L5 41 L5 0 Z " />
<glyph glyph-name="currency" unicode="&#xa4;" horiz-adv-x="588" d="M97 -32 L144 49 C183 13 234 -9 296 -9 C356 -9 405 12 443 48 L489 -32 L516 -16 L466 72 C520 138 546 240 546 343 C546 446 519 543 467 607 L517 695 L489 710 L444 631 C405 667 354 689 292 689 C230 689 181 667 143 631 L97 710 L69 695 L120 606 C66 538 41 437 41 337 C41 237 67 139 122 73 L70 -16 L97 -32 Z M296 28 C143 28 89 189 89 339 C89 488 142 652 292 652 C447 652 498 484 498 338 C498 183 446 28 296 28 L296 28 Z " />
<glyph glyph-name="yen" unicode="&#xa5;" horiz-adv-x="588" d="M274 0 L321 0 L321 230 L531 230 L531 265 L321 265 L321 308 L357 371 L533 371 L533 406 L378 406 L540 679 L495 679 L303 350 L301 350 L109 679 L54 679 L215 406 L60 406 L60 371 L236 371 L274 307 L274 265 L60 265 L60 230 L274 230 L274 0 Z " />
<glyph glyph-name="brokenbar" unicode="&#xa6;" horiz-adv-x="196" d="M82 338 L114 338 L114 743 L82 743 L82 338 Z M82 -247 L114 -247 L114 158 L82 158 L82 -247 Z " />
<glyph glyph-name="section" unicode="&#xa7;" horiz-adv-x="588" d="M270 -117 C409 -117 460 -42 460 29 C460 78 440 112 400 137 C450 164 471 211 471 256 C471 340 407 385 289 402 C172 418 140 443 140 505 C140 562 183 599 269 599 C356 599 396 553 409 501 L449 509 C431 588 368 635 270 635 C171 635 97 586 97 501 C97 445 117 411 164 388 C116 368 86 329 86 274 C86 188 142 152 256 133 C381 112 416 82 416 26 C416 -27 379 -81 272 -81 C162 -81 120 -20 109 34 L66 25 C79 -36 125 -117 270 -117 L270 -117 Z M353 156 C248 186 130 182 130 278 C130 326 160 360 221 369 C324 352 426 334 426 253 C426 214 406 174 353 156 L353 156 Z " />
<glyph glyph-name="dieresis" unicode="&#xa8;" horiz-adv-x="508" d="M336 608 C353 608 368 622 368 640 C368 657 353 669 337 669 C320 669 305 657 305 640 C305 623 318 608 336 608 L336 608 Z M182 608 C200 608 215 622 215 640 C215 657 199 669 183 669 C167 669 152 657 152 640 C152 623 165 608 182 608 L182 608 Z " />
<glyph glyph-name="copyright" unicode="&#xa9;" horiz-adv-x="791" d="M396 -9 C596 -9 755 145 755 342 C755 534 596 689 396 689 C194 689 36 534 36 342 C36 146 192 -9 396 -9 L396 -9 Z M396 19 C208 19 66 162 66 342 C66 518 210 661 396 661 C580 661 725 518 725 342 C725 161 580 19 396 19 L396 19 Z M395 162 C468 162 518 213 536 286 L502 293 C488 229 444 194 395 194 C336 194 281 250 281 340 C281 432 332 492 397 492 C447 492 487 454 500 396 L535 402 C519 472 469 523 396 523 C299 523 245 433 245 340 C245 251 300 162 395 162 L395 162 Z " />
<glyph glyph-name="ordfeminine" unicode="&#xaa;" horiz-adv-x="352" d="M156 336 C227 336 261 374 269 402 L271 402 L277 344 L311 344 C311 344 304 394 304 406 L304 568 C304 665 251 689 185 689 C105 689 60 650 52 593 L82 588 C92 637 128 661 182 661 C229 661 270 646 270 571 L270 544 L203 544 C93 544 40 506 40 437 C40 379 85 336 156 336 L156 336 Z M38 254 L303 254 L303 289 L38 289 L38 254 Z M160 366 C111 366 76 394 76 436 C76 494 124 516 210 516 L270 516 L270 481 C270 407 226 366 160 366 L160 366 Z " />
<glyph glyph-name="guillemotleft" unicode="&#xab;" horiz-adv-x="302" d="M240 106 L263 106 L202 256 L263 400 L239 400 L153 256 L240 106 Z M127 106 L151 106 L89 256 L151 400 L126 400 L40 256 L127 106 Z " />
<glyph glyph-name="logicalnot" unicode="&#xac;" horiz-adv-x="588" d="M431 39 L470 39 L470 308 L40 308 L40 271 L431 271 L431 39 Z " />
<glyph glyph-name="registered" unicode="&#xae;" horiz-adv-x="791" d="M396 -9 C596 -9 755 145 755 342 C755 534 596 689 396 689 C194 689 36 534 36 342 C36 146 192 -9 396 -9 L396 -9 Z M396 19 C208 19 66 162 66 342 C66 518 210 661 396 661 C580 661 725 518 725 342 C725 161 580 19 396 19 L396 19 Z M284 159 L319 159 L319 315 L423 315 L505 159 L545 159 L458 322 C500 331 533 357 533 414 C533 483 483 511 419 511 L284 511 L284 159 Z M319 346 L319 479 L418 479 C465 479 497 462 497 414 C497 365 462 346 416 346 L319 346 Z " />
<glyph glyph-name="macron" unicode="&#xaf;" horiz-adv-x="284" d="M13 652 L267 652 L267 686 L13 686 L13 652 Z " />
<glyph glyph-name="degree" unicode="&#xb0;" horiz-adv-x="377" d="M188 401 C268 401 334 465 334 545 C334 624 268 689 188 689 C108 689 43 624 43 545 C43 465 108 401 188 401 L188 401 Z M188 437 C128 437 79 485 79 545 C79 604 128 652 188 652 C247 652 297 604 297 545 C297 485 247 437 188 437 L188 437 Z " />
<glyph glyph-name="plusminus" unicode="&#xb1;" horiz-adv-x="588" d="M273 115 L310 115 L310 347 L542 347 L542 383 L310 383 L310 615 L273 615 L273 383 L41 383 L41 347 L273 347 L273 115 Z M41 0 L542 0 L542 36 L41 36 L41 0 Z " />
<glyph glyph-name="twosuperior" unicode="&#xb2;" horiz-adv-x="336" d="M31 294 L305 294 L305 329 L95 329 L95 331 L210 418 C259 454 305 505 305 566 C305 643 241 689 172 689 C99 689 45 644 31 569 L69 560 C77 618 115 654 172 654 C220 654 265 619 265 566 C265 515 226 476 180 440 L31 322 L31 294 Z " />
<glyph glyph-name="threesuperior" unicode="&#xb3;" horiz-adv-x="336" d="M162 289 C240 289 308 329 308 404 C308 454 271 490 231 500 L231 502 C264 513 294 545 294 585 C294 657 232 689 166 689 C103 689 50 657 29 592 L65 584 C80 630 116 655 164 655 C212 655 254 633 254 583 C254 543 219 515 166 515 L108 515 L108 481 L164 481 C228 481 269 449 269 404 C269 349 217 323 161 323 C109 323 67 346 53 403 L15 391 C35 320 95 289 162 289 L162 289 Z " />
<glyph glyph-name="acute" unicode="&#xb4;" horiz-adv-x="508" d="M241 548 L421 692 L389 717 L227 565 L241 548 Z " />
<glyph glyph-name="mu" unicode="&#xb5;" horiz-adv-x="501" d="M-7 -178 C66 -178 113 -142 113 -14 L113 38 C135 1 181 -11 221 -11 C316 -11 372 66 389 104 L391 104 L391 0 L431 0 L431 503 L388 503 L388 184 C388 127 331 26 227 26 C168 26 113 54 113 158 L113 503 L70 503 L70 -16 C70 -104 49 -142 -12 -142 C-41 -142 -70 -133 -70 -133 L-70 -169 C-70 -169 -45 -178 -7 -178 L-7 -178 Z " />
<glyph glyph-name="paragraph" unicode="&#xb6;" horiz-adv-x="508" d="M245 -164 L282 -164 L282 643 L388 643 L388 -164 L425 -164 L425 643 L476 643 L476 679 L245 679 C173 679 39 615 39 440 C39 312 130 213 245 213 L245 -164 Z " />
<glyph glyph-name="periodcentered" unicode="&#xb7;" horiz-adv-x="230" d="M85 258 L145 258 L145 318 L85 318 L85 258 Z " />
<glyph glyph-name="cedilla" unicode="&#xb8;" horiz-adv-x="466" d="M246 -172 C292 -172 341 -152 341 -103 C341 -57 292 -40 238 -40 L249 0 L230 0 L209 -60 C209 -60 222 -59 232 -59 C272 -59 310 -71 310 -106 C310 -133 280 -148 244 -148 C214 -148 187 -141 166 -130 L155 -148 C182 -164 213 -172 246 -172 L246 -172 Z " />
<glyph glyph-name="onesuperior" unicode="&#xb9;" horiz-adv-x="336" d="M47 292 L311 292 L311 325 L203 325 L203 681 L174 681 C147 643 103 603 56 588 L55 548 C105 565 146 602 164 628 L166 628 L166 325 L47 325 L47 292 Z " />
<glyph glyph-name="ordmasculine" unicode="&#xba;" horiz-adv-x="353" d="M174 336 C263 336 321 405 321 514 C321 594 284 689 180 689 C91 689 33 622 33 514 C33 424 70 336 174 336 L174 336 Z M33 254 L321 254 L321 289 L33 289 L33 254 Z M175 366 C101 366 70 428 70 514 C70 614 117 660 179 660 C251 660 284 592 284 513 C284 413 236 366 175 366 L175 366 Z " />
<glyph glyph-name="guillemotright" unicode="&#xbb;" horiz-adv-x="302" d="M148 106 L172 106 L259 256 L173 400 L148 400 L210 256 L148 106 Z M35 106 L59 106 L146 256 L60 400 L35 400 L97 256 L35 106 Z " />
<glyph glyph-name="onequarter" unicode="&#xbc;" horiz-adv-x="717" d="M49 292 L313 292 L313 325 L206 325 L206 681 L176 681 C149 643 105 603 58 588 L57 548 C107 565 148 602 166 628 L168 628 L168 325 L49 325 L49 292 Z M162 0 L203 0 L614 679 L572 679 L162 0 Z M569 0 L608 0 L608 96 L676 96 L676 129 L608 129 L608 390 L567 390 L376 123 L376 96 L569 96 L569 0 Z M421 129 L421 131 L567 340 L569 340 L569 129 L421 129 Z " />
<glyph glyph-name="onehalf" unicode="&#xbd;" horiz-adv-x="768" d="M49 292 L313 292 L313 325 L206 325 L206 681 L176 681 C149 643 105 603 58 588 L57 548 C107 565 148 602 166 628 L168 628 L168 325 L49 325 L49 292 Z M162 0 L203 0 L614 679 L572 679 L162 0 Z M440 0 L714 0 L714 35 L504 35 L504 37 L619 124 C668 160 714 211 714 272 C714 348 650 395 581 395 C508 395 454 350 440 275 L479 265 C487 324 524 360 581 360 C629 360 674 324 674 272 C674 221 635 182 589 145 L440 28 L440 0 Z " />
<glyph glyph-name="threequarters" unicode="&#xbe;" horiz-adv-x="717" d="M170 289 C248 289 317 329 317 404 C317 454 279 490 239 500 L239 502 C272 513 302 545 302 585 C302 657 240 689 174 689 C111 689 58 657 37 592 L74 584 C88 630 125 655 173 655 C220 655 262 633 262 583 C262 543 227 515 175 515 L116 515 L116 481 L172 481 C236 481 277 449 277 404 C277 349 225 323 169 323 C117 323 75 346 61 403 L23 391 C43 320 103 289 170 289 L170 289 Z M164 0 L204 0 L615 679 L574 679 L164 0 Z M571 0 L610 0 L610 96 L677 96 L677 129 L610 129 L610 390 L569 390 L378 123 L378 96 L571 96 L571 0 Z M423 129 L423 131 L569 340 L571 340 L571 129 L423 129 Z " />
<glyph glyph-name="questiondown" unicode="&#xbf;" horiz-adv-x="471" d="M222 448 L278 448 L278 503 L222 503 L222 448 Z M231 -186 C346 -186 430 -107 444 7 L402 15 C389 -81 326 -147 233 -147 C145 -147 69 -96 69 -3 C69 64 110 110 190 151 C245 179 272 212 272 292 L272 349 L231 349 L231 288 C231 223 203 201 163 181 C73 136 21 78 21 -3 C21 -120 119 -186 231 -186 L231 -186 Z " />
<glyph glyph-name="Agrave" unicode="&#xc0;" horiz-adv-x="523" d="M264 739 L278 755 L116 908 L84 882 L264 739 Z M10 0 L52 0 L121 211 L394 211 L464 0 L514 0 L288 679 L234 679 L10 0 Z M133 248 L256 626 L258 626 L382 248 L133 248 Z " />
<glyph glyph-name="Aacute" unicode="&#xc1;" horiz-adv-x="523" d="M271 739 L451 882 L419 908 L257 755 L271 739 Z M10 0 L52 0 L121 211 L394 211 L464 0 L514 0 L288 679 L234 679 L10 0 Z M133 248 L256 626 L258 626 L382 248 L133 248 Z " />
<glyph glyph-name="Acircumflex" unicode="&#xc2;" horiz-adv-x="523" d="M151 737 L265 823 L377 737 L408 743 L265 870 L118 743 L151 737 Z M10 0 L52 0 L121 211 L394 211 L464 0 L514 0 L288 679 L234 679 L10 0 Z M133 248 L256 626 L258 626 L382 248 L133 248 Z " />
<glyph glyph-name="Atilde" unicode="&#xc3;" horiz-adv-x="523" d="M341 738 C372 738 404 758 417 797 L391 808 C382 787 365 774 343 774 C285 774 252 822 190 822 C159 822 128 803 114 766 L140 754 C149 775 165 785 188 785 C244 785 279 738 341 738 L341 738 Z M10 0 L52 0 L121 211 L394 211 L464 0 L514 0 L288 679 L234 679 L10 0 Z M133 248 L256 626 L258 626 L382 248 L133 248 Z " />
<glyph glyph-name="Adieresis" unicode="&#xc4;" horiz-adv-x="523" d="M336 741 C353 741 368 755 368 773 C368 790 353 802 337 802 C320 802 305 790 305 773 C305 756 318 741 336 741 L336 741 Z M182 741 C200 741 215 755 215 773 C215 790 199 802 183 802 C167 802 152 790 152 773 C152 756 165 741 182 741 L182 741 Z M10 0 L52 0 L121 211 L394 211 L464 0 L514 0 L288 679 L234 679 L10 0 Z M133 248 L256 626 L258 626 L382 248 L133 248 Z " />
<glyph glyph-name="Aring" unicode="&#xc5;" horiz-adv-x="523" d="M259 714 C310 714 352 752 352 803 C352 853 310 892 259 892 C208 892 166 853 166 803 C166 752 208 714 259 714 L259 714 Z M10 0 L52 0 L121 211 L394 211 L464 0 L514 0 L288 679 L234 679 L10 0 Z M258 734 C220 734 187 763 187 802 C187 840 217 871 258 871 C298 871 330 840 330 802 C330 763 297 734 258 734 L258 734 Z M133 248 L256 626 L258 626 L382 248 L133 248 Z " />
<glyph glyph-name="AE" unicode="&#xc6;" horiz-adv-x="801" d="M1 0 L46 0 L220 336 L366 336 L366 0 L760 0 L760 40 L413 40 L413 336 L677 336 L677 374 L413 374 L413 638 L747 638 L747 679 L348 679 L1 0 Z M235 374 L364 626 L366 626 L366 374 L235 374 Z " />
<glyph glyph-name="Ccedilla" unicode="&#xc7;" horiz-adv-x="584" d="M308 -172 C354 -172 403 -152 403 -103 C403 -57 353 -40 299 -40 L309 -9 C444 -6 520 90 549 216 L505 226 C479 102 406 30 303 30 C180 30 89 149 89 335 C89 523 170 650 308 650 C413 650 477 570 502 459 L547 468 C519 588 445 689 305 689 C119 689 40 509 40 335 C40 171 117 1 289 -9 L271 -60 C271 -60 284 -59 293 -59 C333 -59 371 -71 371 -106 C371 -133 342 -148 306 -148 C275 -148 249 -141 228 -130 L217 -148 C244 -164 275 -172 308 -172 L308 -172 Z " />
<glyph glyph-name="Egrave" unicode="&#xc8;" horiz-adv-x="551" d="M342 739 L357 755 L194 908 L162 882 L342 739 Z M80 0 L506 0 L506 40 L127 40 L127 336 L423 336 L423 374 L127 374 L127 638 L493 638 L493 679 L80 679 L80 0 Z " />
<glyph glyph-name="Eacute" unicode="&#xc9;" horiz-adv-x="551" d="M284 739 L464 882 L431 908 L269 755 L284 739 Z M80 0 L506 0 L506 40 L127 40 L127 336 L423 336 L423 374 L127 374 L127 638 L493 638 L493 679 L80 679 L80 0 Z " />
<glyph glyph-name="Ecircumflex" unicode="&#xca;" horiz-adv-x="551" d="M179 737 L293 823 L405 737 L435 743 L292 870 L146 743 L179 737 Z M80 0 L506 0 L506 40 L127 40 L127 336 L423 336 L423 374 L127 374 L127 638 L493 638 L493 679 L80 679 L80 0 Z " />
<glyph glyph-name="Edieresis" unicode="&#xcb;" horiz-adv-x="551" d="M376 741 C393 741 408 755 408 773 C408 790 393 802 377 802 C360 802 345 790 345 773 C345 756 358 741 376 741 L376 741 Z M222 741 C240 741 255 755 255 773 C255 790 239 802 223 802 C207 802 192 790 192 773 C192 756 205 741 222 741 L222 741 Z M80 0 L506 0 L506 40 L127 40 L127 336 L423 336 L423 374 L127 374 L127 638 L493 638 L493 679 L80 679 L80 0 Z " />
<glyph glyph-name="Igrave" unicode="&#xcc;" horiz-adv-x="213" d="M137 739 L152 755 L-10 908 L-43 882 L137 739 Z M84 0 L131 0 L131 679 L84 679 L84 0 Z " />
<glyph glyph-name="Iacute" unicode="&#xcd;" horiz-adv-x="213" d="M108 739 L288 882 L256 908 L94 755 L108 739 Z M84 0 L131 0 L131 679 L84 679 L84 0 Z " />
<glyph glyph-name="Icircumflex" unicode="&#xce;" horiz-adv-x="213" d="M-1 737 L113 823 L225 737 L256 743 L113 870 L-34 743 L-1 737 Z M84 0 L131 0 L131 679 L84 679 L84 0 Z " />
<glyph glyph-name="Idieresis" unicode="&#xcf;" horiz-adv-x="213" d="M182 741 C200 741 214 755 214 773 C214 790 199 802 183 802 C166 802 152 790 152 773 C152 756 165 741 182 741 L182 741 Z M28 741 C47 741 61 755 61 773 C61 790 46 802 29 802 C13 802 -1 790 -1 773 C-1 756 11 741 28 741 L28 741 Z M84 0 L131 0 L131 679 L84 679 L84 0 Z " />
<glyph glyph-name="Eth" unicode="&#xd0;" horiz-adv-x="603" d="M80 0 L290 0 C471 0 563 158 563 348 C563 509 472 679 285 679 L80 679 L80 355 L-9 355 L-9 320 L80 320 L80 0 Z M127 39 L127 320 L224 320 L224 355 L127 355 L127 639 L282 639 C420 639 515 523 515 346 C515 131 404 39 276 39 L127 39 Z " />
<glyph glyph-name="Ntilde" unicode="&#xd1;" horiz-adv-x="630" d="M395 738 C425 738 458 758 471 797 L444 808 C436 787 419 774 396 774 C339 774 305 822 243 822 C213 822 181 803 168 766 L193 754 C203 775 218 785 242 785 C297 785 333 738 395 738 L395 738 Z M80 0 L120 0 L120 623 L122 623 L505 0 L550 0 L550 679 L511 679 L511 75 L509 75 L137 679 L80 679 L80 0 Z " />
<glyph glyph-name="Ograve" unicode="&#xd2;" horiz-adv-x="615" d="M340 739 L354 755 L192 908 L159 882 L340 739 Z M310 -9 C492 -9 575 169 575 348 C575 509 494 689 308 689 C122 689 40 503 40 335 C40 164 124 -9 310 -9 L310 -9 Z M310 29 C176 29 89 154 89 335 C89 519 170 650 311 650 C453 650 526 509 526 346 C526 156 444 29 310 29 L310 29 Z " />
<glyph glyph-name="Oacute" unicode="&#xd3;" horiz-adv-x="615" d="M329 739 L510 882 L477 908 L315 755 L329 739 Z M310 -9 C492 -9 575 169 575 348 C575 509 494 689 308 689 C122 689 40 503 40 335 C40 164 124 -9 310 -9 L310 -9 Z M310 29 C176 29 89 154 89 335 C89 519 170 650 311 650 C453 650 526 509 526 346 C526 156 444 29 310 29 L310 29 Z " />
<glyph glyph-name="Ocircumflex" unicode="&#xd4;" horiz-adv-x="615" d="M198 737 L312 823 L423 737 L454 743 L311 870 L165 743 L198 737 Z M310 -9 C492 -9 575 169 575 348 C575 509 494 689 308 689 C122 689 40 503 40 335 C40 164 124 -9 310 -9 L310 -9 Z M310 29 C176 29 89 154 89 335 C89 519 170 650 311 650 C453 650 526 509 526 346 C526 156 444 29 310 29 L310 29 Z " />
<glyph glyph-name="Otilde" unicode="&#xd5;" horiz-adv-x="615" d="M400 738 C431 738 464 758 476 797 L450 808 C442 787 424 774 402 774 C344 774 311 822 249 822 C219 822 187 803 173 766 L199 754 C208 775 224 785 247 785 C303 785 338 738 400 738 L400 738 Z M310 -9 C492 -9 575 169 575 348 C575 509 494 689 308 689 C122 689 40 503 40 335 C40 164 124 -9 310 -9 L310 -9 Z M310 29 C176 29 89 154 89 335 C89 519 170 650 311 650 C453 650 526 509 526 346 C526 156 444 29 310 29 L310 29 Z " />
<glyph glyph-name="Odieresis" unicode="&#xd6;" horiz-adv-x="615" d="M388 741 C405 741 420 755 420 773 C420 790 405 802 389 802 C372 802 357 790 357 773 C357 756 371 741 388 741 L388 741 Z M234 741 C252 741 267 755 267 773 C267 790 251 802 235 802 C219 802 204 790 204 773 C204 756 217 741 234 741 L234 741 Z M310 -9 C492 -9 575 169 575 348 C575 509 494 689 308 689 C122 689 40 503 40 335 C40 164 124 -9 310 -9 L310 -9 Z M310 29 C176 29 89 154 89 335 C89 519 170 650 311 650 C453 650 526 509 526 346 C526 156 444 29 310 29 L310 29 Z " />
<glyph glyph-name="multiply" unicode="&#xd7;" horiz-adv-x="588" d="M126 99 L291 264 L454 99 L480 126 L316 289 L480 453 L454 480 L290 315 L126 480 L100 453 L264 290 L100 126 L126 99 Z " />
<glyph glyph-name="Oslash" unicode="&#xd8;" horiz-adv-x="615" d="M21 -37 L60 -37 L132 67 C176 20 235 -9 310 -9 C492 -9 575 169 575 348 C575 434 552 526 502 592 L592 720 L553 720 L480 616 C437 661 381 689 308 689 C122 689 40 503 40 335 C40 246 63 156 110 90 L21 -37 Z M139 131 C106 184 89 254 89 335 C89 519 170 650 311 650 C372 650 420 624 455 581 L139 131 Z M310 29 C248 29 196 57 158 103 L475 553 C509 498 526 424 526 346 C526 156 444 29 310 29 L310 29 Z " />
<glyph glyph-name="Ugrave" unicode="&#xd9;" horiz-adv-x="612" d="M335 739 L350 755 L187 908 L155 882 L335 739 Z M305 -9 C440 -9 532 69 532 227 L532 679 L492 679 L492 227 C492 86 411 32 308 32 C206 32 127 84 127 223 L127 679 L80 679 L80 227 C80 66 168 -9 305 -9 L305 -9 Z " />
<glyph glyph-name="Uacute" unicode="&#xda;" horiz-adv-x="612" d="M294 739 L474 882 L442 908 L279 755 L294 739 Z M305 -9 C440 -9 532 69 532 227 L532 679 L492 679 L492 227 C492 86 411 32 308 32 C206 32 127 84 127 223 L127 679 L80 679 L80 227 C80 66 168 -9 305 -9 L305 -9 Z " />
<glyph glyph-name="Ucircumflex" unicode="&#xdb;" horiz-adv-x="612" d="M198 737 L313 823 L424 737 L455 743 L312 870 L166 743 L198 737 Z M305 -9 C440 -9 532 69 532 227 L532 679 L492 679 L492 227 C492 86 411 32 308 32 C206 32 127 84 127 223 L127 679 L80 679 L80 227 C80 66 168 -9 305 -9 L305 -9 Z " />
<glyph glyph-name="Udieresis" unicode="&#xdc;" horiz-adv-x="612" d="M389 741 C406 741 421 755 421 773 C421 790 406 802 390 802 C373 802 358 790 358 773 C358 756 372 741 389 741 L389 741 Z M235 741 C253 741 268 755 268 773 C268 790 252 802 236 802 C220 802 205 790 205 773 C205 756 218 741 235 741 L235 741 Z M305 -9 C440 -9 532 69 532 227 L532 679 L492 679 L492 227 C492 86 411 32 308 32 C206 32 127 84 127 223 L127 679 L80 679 L80 227 C80 66 168 -9 305 -9 L305 -9 Z " />
<glyph glyph-name="Yacute" unicode="&#xdd;" horiz-adv-x="488" d="M230 739 L410 882 L378 908 L216 755 L230 739 Z M221 0 L267 0 L267 308 L487 679 L441 679 L250 348 L248 348 L56 679 L1 679 L221 307 L221 0 Z " />
<glyph glyph-name="Thorn" unicode="&#xde;" horiz-adv-x="508" d="M80 0 L127 0 L127 186 L279 186 C395 186 495 245 495 382 C495 512 401 573 279 573 L127 573 L127 679 L80 679 L80 0 Z M127 225 L127 533 L278 533 C380 533 448 486 448 381 C448 273 372 225 274 225 L127 225 Z " />
<glyph glyph-name="germandbls" unicode="&#xdf;" horiz-adv-x="552" d="M69 -50 L112 -50 L112 477 C112 597 190 655 281 655 C321 655 404 629 404 557 C404 469 279 441 209 441 C183 441 160 420 160 378 C160 296 212 260 330 241 C456 220 490 190 490 134 C490 81 453 27 346 27 C236 27 194 88 183 142 L140 133 C153 72 199 -9 344 -9 C483 -9 535 66 535 137 C535 221 473 266 353 283 C239 298 204 325 204 377 C204 411 224 412 274 419 C353 427 451 466 451 554 C451 643 358 689 283 689 C177 689 69 618 69 475 L69 427 L16 427 L16 392 L69 392 L69 -50 Z " />
<glyph glyph-name="agrave" unicode="&#xe0;" horiz-adv-x="500" d="M315 548 L330 565 L167 717 L135 692 L315 548 Z M217 -9 C329 -9 378 53 393 99 L395 99 L407 0 L451 0 C451 0 440 70 440 91 L440 337 C440 482 363 516 263 516 C145 516 77 461 64 379 L105 372 C120 446 174 481 259 481 C332 481 397 460 397 341 L397 296 L291 296 C127 296 47 241 47 139 C47 52 115 -9 217 -9 L217 -9 Z M225 26 C149 26 93 70 93 137 C93 227 169 262 302 262 L397 262 L397 206 C397 93 328 26 225 26 L225 26 Z " />
<glyph glyph-name="aacute" unicode="&#xe1;" horiz-adv-x="500" d="M235 548 L416 692 L383 717 L221 565 L235 548 Z M217 -9 C329 -9 378 53 393 99 L395 99 L407 0 L451 0 C451 0 440 70 440 91 L440 337 C440 482 363 516 263 516 C145 516 77 461 64 379 L105 372 C120 446 174 481 259 481 C332 481 397 460 397 341 L397 296 L291 296 C127 296 47 241 47 139 C47 52 115 -9 217 -9 L217 -9 Z M225 26 C149 26 93 70 93 137 C93 227 169 262 302 262 L397 262 L397 206 C397 93 328 26 225 26 L225 26 Z " />
<glyph glyph-name="acircumflex" unicode="&#xe2;" horiz-adv-x="500" d="M151 577 L265 663 L377 577 L408 583 L265 710 L118 583 L151 577 Z M217 -9 C329 -9 378 53 393 99 L395 99 L407 0 L451 0 C451 0 440 70 440 91 L440 337 C440 482 363 516 263 516 C145 516 77 461 64 379 L105 372 C120 446 174 481 259 481 C332 481 397 460 397 341 L397 296 L291 296 C127 296 47 241 47 139 C47 52 115 -9 217 -9 L217 -9 Z M225 26 C149 26 93 70 93 137 C93 227 169 262 302 262 L397 262 L397 206 C397 93 328 26 225 26 L225 26 Z " />
<glyph glyph-name="atilde" unicode="&#xe3;" horiz-adv-x="500" d="M343 602 C374 602 406 622 419 661 L393 672 C384 651 367 638 345 638 C287 638 254 686 192 686 C161 686 130 667 116 630 L142 618 C151 639 167 649 190 649 C246 649 281 602 343 602 L343 602 Z M217 -9 C329 -9 378 53 393 99 L395 99 L407 0 L451 0 C451 0 440 70 440 91 L440 337 C440 482 363 516 263 516 C145 516 77 461 64 379 L105 372 C120 446 174 481 259 481 C332 481 397 460 397 341 L397 296 L291 296 C127 296 47 241 47 139 C47 52 115 -9 217 -9 L217 -9 Z M225 26 C149 26 93 70 93 137 C93 227 169 262 302 262 L397 262 L397 206 C397 93 328 26 225 26 L225 26 Z " />
<glyph glyph-name="adieresis" unicode="&#xe4;" horiz-adv-x="500" d="M337 608 C354 608 369 622 369 640 C369 657 354 669 338 669 C321 669 306 657 306 640 C306 623 320 608 337 608 L337 608 Z M183 608 C201 608 216 622 216 640 C216 657 200 669 184 669 C168 669 153 657 153 640 C153 623 166 608 183 608 L183 608 Z M217 -9 C329 -9 378 53 393 99 L395 99 L407 0 L451 0 C451 0 440 70 440 91 L440 337 C440 482 363 516 263 516 C145 516 77 461 64 379 L105 372 C120 446 174 481 259 481 C332 481 397 460 397 341 L397 296 L291 296 C127 296 47 241 47 139 C47 52 115 -9 217 -9 L217 -9 Z M225 26 C149 26 93 70 93 137 C93 227 169 262 302 262 L397 262 L397 206 C397 93 328 26 225 26 L225 26 Z " />
<glyph glyph-name="aring" unicode="&#xe5;" horiz-adv-x="500" d="M263 560 C314 560 356 598 356 649 C356 699 314 738 263 738 C212 738 170 699 170 649 C170 598 212 560 263 560 L263 560 Z M217 -9 C329 -9 378 53 393 99 L395 99 L407 0 L451 0 C451 0 440 70 440 91 L440 337 C440 482 363 516 263 516 C145 516 77 461 64 379 L105 372 C120 446 174 481 259 481 C332 481 397 460 397 341 L397 296 L291 296 C127 296 47 241 47 139 C47 52 115 -9 217 -9 L217 -9 Z M262 580 C224 580 192 609 192 649 C192 686 222 717 262 717 C302 717 334 686 334 649 C334 609 301 580 262 580 L262 580 Z M225 26 C149 26 93 70 93 137 C93 227 169 262 302 262 L397 262 L397 206 C397 93 328 26 225 26 L225 26 Z " />
<glyph glyph-name="ae" unicode="&#xe6;" horiz-adv-x="866" d="M217 -9 C318 -9 391 50 416 149 L418 149 C441 59 497 -9 607 -9 C713 -9 791 45 821 143 L778 151 C753 63 680 27 613 27 C504 27 446 112 445 248 L826 248 L826 258 C826 392 768 516 617 516 C529 516 464 467 431 385 L429 385 C415 490 349 516 263 516 C145 516 77 461 64 379 L105 372 C120 446 174 481 259 481 C332 481 397 460 397 341 L397 281 L291 281 C127 281 47 235 47 133 C47 46 115 -9 217 -9 L217 -9 Z M447 281 C451 415 527 481 617 481 C724 481 777 396 779 281 L447 281 Z M225 26 C149 26 93 64 93 131 C93 221 169 248 302 248 L397 248 L397 223 C397 100 328 26 225 26 L225 26 Z " />
<glyph glyph-name="ccedilla" unicode="&#xe7;" horiz-adv-x="466" d="M246 -172 C292 -172 341 -152 341 -103 C341 -57 292 -40 238 -40 L247 -9 C347 -6 414 60 436 170 L393 177 C374 77 316 28 243 28 C135 28 86 122 86 256 C86 411 158 479 249 479 C331 479 375 417 391 332 L433 339 C414 433 361 516 247 516 C124 516 40 413 40 256 C40 128 92 0 227 -9 L209 -60 C209 -60 222 -59 232 -59 C272 -59 310 -71 310 -106 C310 -133 280 -148 244 -148 C214 -148 187 -141 166 -130 L155 -148 C182 -164 213 -172 246 -172 L246 -172 Z " />
<glyph glyph-name="egrave" unicode="&#xe8;" horiz-adv-x="508" d="M307 548 L321 565 L159 717 L127 692 L307 548 Z M249 -9 C356 -9 434 45 464 143 L421 151 C396 63 322 27 256 27 C146 27 89 112 88 248 L468 248 L468 258 C468 392 411 516 260 516 C131 516 40 413 40 256 C40 120 98 -9 249 -9 L249 -9 Z M89 281 C94 415 170 481 260 481 C366 481 419 394 421 281 L89 281 Z " />
<glyph glyph-name="eacute" unicode="&#xe9;" horiz-adv-x="508" d="M245 548 L426 692 L393 717 L231 565 L245 548 Z M249 -9 C356 -9 434 45 464 143 L421 151 C396 63 322 27 256 27 C146 27 89 112 88 248 L468 248 L468 258 C468 392 411 516 260 516 C131 516 40 413 40 256 C40 120 98 -9 249 -9 L249 -9 Z M89 281 C94 415 170 481 260 481 C366 481 419 394 421 281 L89 281 Z " />
<glyph glyph-name="ecircumflex" unicode="&#xea;" horiz-adv-x="508" d="M152 577 L266 663 L378 577 L408 583 L265 710 L119 583 L152 577 Z M249 -9 C356 -9 434 45 464 143 L421 151 C396 63 322 27 256 27 C146 27 89 112 88 248 L468 248 L468 258 C468 392 411 516 260 516 C131 516 40 413 40 256 C40 120 98 -9 249 -9 L249 -9 Z M89 281 C94 415 170 481 260 481 C366 481 419 394 421 281 L89 281 Z " />
<glyph glyph-name="edieresis" unicode="&#xeb;" horiz-adv-x="508" d="M343 608 C360 608 375 622 375 640 C375 657 360 669 344 669 C327 669 312 657 312 640 C312 623 325 608 343 608 L343 608 Z M189 608 C207 608 222 622 222 640 C222 657 206 669 190 669 C174 669 159 657 159 640 C159 623 172 608 189 608 L189 608 Z M249 -9 C356 -9 434 45 464 143 L421 151 C396 63 322 27 256 27 C146 27 89 112 88 248 L468 248 L468 258 C468 392 411 516 260 516 C131 516 40 413 40 256 C40 120 98 -9 249 -9 L249 -9 Z M89 281 C94 415 170 481 260 481 C366 481 419 394 421 281 L89 281 Z " />
<glyph glyph-name="igrave" unicode="&#xec;" horiz-adv-x="211" d="M136 548 L150 565 L-12 717 L-44 692 L136 548 Z M84 0 L127 0 L127 503 L84 503 L84 0 Z " />
<glyph glyph-name="iacute" unicode="&#xed;" horiz-adv-x="211" d="M117 548 L297 692 L265 717 L103 565 L117 548 Z M84 0 L127 0 L127 503 L84 503 L84 0 Z " />
<glyph glyph-name="icircumflex" unicode="&#xee;" horiz-adv-x="211" d="M-1 577 L114 663 L225 577 L256 583 L113 710 L-33 583 L-1 577 Z M84 0 L127 0 L127 503 L84 503 L84 0 Z " />
<glyph glyph-name="idieresis" unicode="&#xef;" horiz-adv-x="211" d="M182 608 C199 608 214 622 214 640 C214 657 199 669 183 669 C166 669 151 657 151 640 C151 623 165 608 182 608 L182 608 Z M28 608 C46 608 61 622 61 640 C61 657 45 669 29 669 C13 669 -2 657 -2 640 C-2 623 11 608 28 608 L28 608 Z M84 0 L127 0 L127 503 L84 503 L84 0 Z " />
<glyph glyph-name="eth" unicode="&#xf0;" horiz-adv-x="508" d="M249 -9 C382 -9 468 94 468 256 C468 401 395 530 310 615 L375 681 L350 706 L283 639 C241 677 198 702 161 713 L138 679 C177 669 219 645 258 614 L201 558 L226 532 L286 591 C327 553 363 507 382 464 L380 464 C358 493 310 516 259 516 C126 516 40 416 40 256 C40 121 95 -9 249 -9 L249 -9 Z M251 27 C138 27 87 122 87 256 C87 412 162 480 257 480 C369 480 421 378 421 254 C421 97 345 27 251 27 L251 27 Z " />
<glyph glyph-name="ntilde" unicode="&#xf1;" horiz-adv-x="503" d="M333 602 C363 602 396 622 409 661 L382 672 C374 651 357 638 334 638 C277 638 243 686 181 686 C151 686 119 667 106 630 L131 618 C140 639 156 649 180 649 C235 649 271 602 333 602 L333 602 Z M70 0 L113 0 L113 318 C113 375 173 479 277 479 C335 479 390 447 390 344 L390 0 L433 0 L433 341 C433 476 356 516 282 516 C188 516 129 437 113 400 L111 400 L111 503 L70 503 L70 0 Z " />
<glyph glyph-name="ograve" unicode="&#xf2;" horiz-adv-x="508" d="M307 548 L321 565 L159 717 L127 692 L307 548 Z M249 -9 C382 -9 468 94 468 256 C468 375 413 516 259 516 C126 516 40 416 40 256 C40 121 95 -9 249 -9 L249 -9 Z M251 27 C138 27 87 122 87 256 C87 412 162 480 257 480 C369 480 421 378 421 254 C421 97 345 27 251 27 L251 27 Z " />
<glyph glyph-name="oacute" unicode="&#xf3;" horiz-adv-x="508" d="M241 548 L421 692 L389 717 L227 565 L241 548 Z M249 -9 C382 -9 468 94 468 256 C468 375 413 516 259 516 C126 516 40 416 40 256 C40 121 95 -9 249 -9 L249 -9 Z M251 27 C138 27 87 122 87 256 C87 412 162 480 257 480 C369 480 421 378 421 254 C421 97 345 27 251 27 L251 27 Z " />
<glyph glyph-name="ocircumflex" unicode="&#xf4;" horiz-adv-x="508" d="M145 577 L259 663 L371 577 L402 583 L259 710 L112 583 L145 577 Z M249 -9 C382 -9 468 94 468 256 C468 375 413 516 259 516 C126 516 40 416 40 256 C40 121 95 -9 249 -9 L249 -9 Z M251 27 C138 27 87 122 87 256 C87 412 162 480 257 480 C369 480 421 378 421 254 C421 97 345 27 251 27 L251 27 Z " />
<glyph glyph-name="otilde" unicode="&#xf5;" horiz-adv-x="508" d="M343 602 C374 602 406 622 419 661 L393 672 C384 651 367 638 345 638 C287 638 254 686 192 686 C161 686 130 667 116 630 L142 618 C151 639 167 649 190 649 C246 649 281 602 343 602 L343 602 Z M249 -9 C382 -9 468 94 468 256 C468 375 413 516 259 516 C126 516 40 416 40 256 C40 121 95 -9 249 -9 L249 -9 Z M251 27 C138 27 87 122 87 256 C87 412 162 480 257 480 C369 480 421 378 421 254 C421 97 345 27 251 27 L251 27 Z " />
<glyph glyph-name="odieresis" unicode="&#xf6;" horiz-adv-x="508" d="M336 608 C353 608 368 622 368 640 C368 657 353 669 337 669 C320 669 305 657 305 640 C305 623 318 608 336 608 L336 608 Z M182 608 C200 608 215 622 215 640 C215 657 199 669 183 669 C167 669 152 657 152 640 C152 623 165 608 182 608 L182 608 Z M249 -9 C382 -9 468 94 468 256 C468 375 413 516 259 516 C126 516 40 416 40 256 C40 121 95 -9 249 -9 L249 -9 Z M251 27 C138 27 87 122 87 256 C87 412 162 480 257 480 C369 480 421 378 421 254 C421 97 345 27 251 27 L251 27 Z " />
<glyph glyph-name="divide" unicode="&#xf7;" horiz-adv-x="588" d="M267 431 L322 431 L322 485 L267 485 L267 431 Z M40 271 L540 271 L540 308 L40 308 L40 271 Z M267 89 L322 89 L322 144 L267 144 L267 89 Z " />
<glyph glyph-name="oslash" unicode="&#xf8;" horiz-adv-x="508" d="M4 -54 L42 -54 L113 42 C145 10 190 -9 249 -9 C382 -9 468 94 468 256 C468 321 452 393 412 444 L503 566 L463 566 L390 467 C358 497 316 516 259 516 C126 516 40 416 40 256 C40 185 56 115 93 64 L4 -54 Z M121 103 C97 143 87 196 87 256 C87 412 162 480 257 480 C302 480 339 463 365 434 L121 103 Z M251 27 C203 27 165 45 139 76 L384 407 C410 366 421 312 421 254 C421 97 345 27 251 27 L251 27 Z " />
<glyph glyph-name="ugrave" unicode="&#xf9;" horiz-adv-x="501" d="M289 548 L304 565 L142 717 L109 692 L289 548 Z M221 -11 C316 -11 372 66 389 104 L391 104 L391 0 L431 0 L431 503 L388 503 L388 184 C388 127 331 26 227 26 C168 26 113 54 113 158 L113 503 L70 503 L70 161 C70 25 146 -11 221 -11 L221 -11 Z " />
<glyph glyph-name="uacute" unicode="&#xfa;" horiz-adv-x="501" d="M228 548 L408 692 L376 717 L214 565 L228 548 Z M221 -11 C316 -11 372 66 389 104 L391 104 L391 0 L431 0 L431 503 L388 503 L388 184 C388 127 331 26 227 26 C168 26 113 54 113 158 L113 503 L70 503 L70 161 C70 25 146 -11 221 -11 L221 -11 Z " />
<glyph glyph-name="ucircumflex" unicode="&#xfb;" horiz-adv-x="501" d="M147 577 L262 663 L373 577 L404 583 L261 710 L115 583 L147 577 Z M221 -11 C316 -11 372 66 389 104 L391 104 L391 0 L431 0 L431 503 L388 503 L388 184 C388 127 331 26 227 26 C168 26 113 54 113 158 L113 503 L70 503 L70 161 C70 25 146 -11 221 -11 L221 -11 Z " />
<glyph glyph-name="udieresis" unicode="&#xfc;" horiz-adv-x="501" d="M327 608 C344 608 359 622 359 640 C359 657 344 669 328 669 C311 669 296 657 296 640 C296 623 310 608 327 608 L327 608 Z M173 608 C191 608 206 622 206 640 C206 657 190 669 174 669 C158 669 143 657 143 640 C143 623 156 608 173 608 L173 608 Z M221 -11 C316 -11 372 66 389 104 L391 104 L391 0 L431 0 L431 503 L388 503 L388 184 C388 127 331 26 227 26 C168 26 113 54 113 158 L113 503 L70 503 L70 161 C70 25 146 -11 221 -11 L221 -11 Z " />
<glyph glyph-name="yacute" unicode="&#xfd;" horiz-adv-x="401" d="M190 548 L370 692 L338 717 L175 565 L190 548 Z M61 -178 C118 -178 166 -147 193 -72 L398 503 L357 503 L204 62 L202 62 L52 503 L4 503 L182 2 L159 -62 C140 -111 114 -142 55 -142 C29 -142 7 -134 7 -134 L7 -170 C7 -170 27 -178 61 -178 L61 -178 Z " />
<glyph glyph-name="thorn" unicode="&#xfe;" horiz-adv-x="507" d="M70 -172 L113 -172 L113 110 L115 110 C132 60 180 -9 269 -9 C392 -9 468 96 468 258 C468 377 426 516 278 516 C188 516 132 444 113 384 L111 384 L111 679 L70 679 L70 -172 Z M267 27 C177 27 113 115 113 222 L113 285 C113 399 191 479 273 479 C376 479 421 380 421 256 C421 99 351 27 267 27 L267 27 Z " />
<glyph glyph-name="ydieresis" unicode="&#xff;" horiz-adv-x="401" d="M289 608 C306 608 321 622 321 640 C321 657 306 669 290 669 C273 669 258 657 258 640 C258 623 272 608 289 608 L289 608 Z M135 608 C153 608 168 622 168 640 C168 657 152 669 136 669 C120 669 105 657 105 640 C105 623 118 608 135 608 L135 608 Z M61 -178 C118 -178 166 -147 193 -72 L398 503 L357 503 L204 62 L202 62 L52 503 L4 503 L182 2 L159 -62 C140 -111 114 -142 55 -142 C29 -142 7 -134 7 -134 L7 -170 C7 -170 27 -178 61 -178 L61 -178 Z " />
<glyph glyph-name="dotlessi" unicode="&#x131;" horiz-adv-x="211" d="M84 0 L127 0 L127 503 L84 503 L84 0 Z " />
<glyph glyph-name="Lslash" unicode="&#x141;" horiz-adv-x="481" d="M80 0 L469 0 L469 41 L127 41 L127 280 L213 367 L188 392 L127 331 L127 679 L80 679 L80 284 L1 205 L26 179 L80 233 L80 0 Z " />
<glyph glyph-name="lslash" unicode="&#x142;" horiz-adv-x="207" d="M84 0 L127 0 L127 302 L212 387 L187 412 L127 352 L127 679 L84 679 L84 309 L-2 223 L24 198 L84 258 L84 0 Z " />
<glyph glyph-name="OE" unicode="&#x152;" horiz-adv-x="862" d="M318 0 L821 0 L821 40 L473 40 L473 336 L738 336 L738 374 L473 374 L473 638 L808 638 L808 679 L313 679 C132 679 40 521 40 331 C40 170 132 0 318 0 L318 0 Z M321 40 C183 40 88 156 88 333 C88 548 199 640 327 640 L426 640 L426 40 L321 40 Z " />
<glyph glyph-name="oe" unicode="&#x153;" horiz-adv-x="886" d="M249 -9 C353 -9 418 53 442 157 L444 157 C464 65 515 -9 630 -9 C736 -9 814 45 844 143 L802 151 C776 63 703 27 637 27 C527 27 470 112 468 248 L849 248 L849 258 C849 392 792 516 641 516 C538 516 472 453 447 350 L445 350 C425 436 373 516 259 516 C126 516 40 416 40 256 C40 121 95 -9 249 -9 L249 -9 Z M470 281 C475 415 551 481 640 481 C747 481 801 396 803 281 L470 281 Z M251 27 C138 27 87 122 87 256 C87 412 162 480 257 480 C369 480 421 378 421 254 C421 97 345 27 251 27 L251 27 Z " />
<glyph glyph-name="Scaron" unicode="&#x160;" horiz-adv-x="552" d="M298 737 L440 864 L410 870 L297 785 L184 870 L151 864 L298 737 Z M282 -9 C437 -9 520 67 520 183 C520 289 444 350 280 377 C141 400 106 449 106 520 C106 593 171 651 272 651 C379 651 442 589 457 504 L500 514 C484 615 403 689 275 689 C136 689 60 609 60 516 C60 420 116 358 258 333 C405 307 472 267 472 180 C472 83 400 30 282 30 C134 30 78 137 71 193 L27 184 C37 121 95 -9 282 -9 L282 -9 Z " />
<glyph glyph-name="scaron" unicode="&#x161;" horiz-adv-x="438" d="M225 569 L368 696 L337 701 L225 616 L111 701 L78 696 L225 569 Z M226 -9 C365 -9 416 66 416 137 C416 221 355 266 235 283 C117 299 86 324 86 386 C86 443 128 480 214 480 C302 480 341 434 355 382 L394 390 C376 469 314 516 216 516 C116 516 42 467 42 382 C42 296 90 261 212 241 C337 220 372 190 372 134 C372 81 335 27 228 27 C118 27 76 88 65 142 L22 133 C35 72 81 -9 226 -9 L226 -9 Z " />
<glyph glyph-name="Ydieresis" unicode="&#x178;" horiz-adv-x="488" d="M329 741 C346 741 361 755 361 773 C361 790 345 802 330 802 C313 802 298 790 298 773 C298 756 311 741 329 741 L329 741 Z M175 741 C193 741 208 755 208 773 C208 790 192 802 176 802 C160 802 145 790 145 773 C145 756 158 741 175 741 L175 741 Z M221 0 L267 0 L267 308 L487 679 L441 679 L250 348 L248 348 L56 679 L1 679 L221 307 L221 0 Z " />
<glyph glyph-name="Zcaron" unicode="&#x17d;" horiz-adv-x="542" d="M288 737 L430 864 L400 870 L287 785 L174 870 L141 864 L288 737 Z M38 0 L503 0 L503 40 L93 40 L93 43 L491 646 L491 679 L70 679 L70 640 L436 640 L436 638 L38 40 L38 0 Z " />
<glyph glyph-name="zcaron" unicode="&#x17e;" horiz-adv-x="395" d="M212 569 L355 696 L324 701 L212 616 L98 701 L65 696 L212 569 Z M18 0 L375 0 L375 35 L72 35 L72 37 L375 476 L375 503 L43 503 L43 468 L317 468 L317 466 L18 35 L18 0 Z " />
<glyph glyph-name="florin" unicode="&#x192;" horiz-adv-x="588" d="M50 -178 C123 -178 181 -142 215 -14 L303 313 L500 313 L500 348 L312 348 L362 532 C381 605 415 649 473 649 C503 649 532 642 532 642 L541 677 C541 677 516 684 478 684 C405 684 345 635 316 530 L267 348 L113 348 L113 313 L258 313 L170 -16 C146 -104 116 -142 54 -142 C25 -142 -1 -133 -1 -133 L-11 -169 C-11 -169 12 -178 50 -178 L50 -178 Z " />
<glyph glyph-name="circumflex" unicode="&#x2c6;" horiz-adv-x="508" d="M145 577 L259 663 L371 577 L402 583 L259 710 L112 583 L145 577 Z " />
<glyph glyph-name="caron" unicode="&#x2c7;" horiz-adv-x="508" d="M259 569 L401 696 L370 701 L258 616 L145 701 L112 696 L259 569 Z " />
<glyph glyph-name="breve" unicode="&#x2d8;" horiz-adv-x="456" d="M237 604 C300 604 352 633 366 702 L337 702 C320 654 283 637 237 637 C191 637 147 652 133 702 L100 702 C119 631 169 604 237 604 L237 604 Z " />
<glyph glyph-name="dotaccent" unicode="&#x2d9;" horiz-adv-x="211" d="M81 591 L131 591 L131 640 L81 640 L81 591 Z " />
<glyph glyph-name="ring" unicode="&#x2da;" horiz-adv-x="500" d="M263 560 C314 560 356 598 356 649 C356 699 314 738 263 738 C212 738 170 699 170 649 C170 598 212 560 263 560 L263 560 Z M262 580 C224 580 192 609 192 649 C192 686 222 717 262 717 C302 717 334 686 334 649 C334 609 301 580 262 580 L262 580 Z " />
<glyph glyph-name="ogonek" unicode="&#x2db;" horiz-adv-x="434" d="M219 -135 C253 -135 287 -116 302 -104 L289 -87 C277 -96 252 -108 224 -108 C189 -108 161 -92 161 -63 C161 -25 197 -12 225 -3 L225 0 L187 -5 C162 -14 126 -38 126 -69 C126 -115 176 -135 219 -135 L219 -135 Z " />
<glyph glyph-name="tilde" unicode="&#x2dc;" horiz-adv-x="508" d="M343 602 C374 602 406 622 419 661 L393 672 C384 651 367 638 345 638 C287 638 254 686 192 686 C161 686 130 667 116 630 L142 618 C151 639 167 649 190 649 C246 649 281 602 343 602 L343 602 Z " />
<glyph glyph-name="hungarumlaut" unicode="&#x2dd;" horiz-adv-x="559" d="M217 559 L397 702 L365 728 L202 575 L217 559 Z M221 546 L401 690 L368 715 L206 562 L221 546 Z " />
<glyph glyph-name="endash" unicode="&#x2013;" horiz-adv-x="450" d="M0 240 L450 240 L450 274 L0 274 L0 240 Z " />
<glyph glyph-name="emdash" unicode="&#x2014;" horiz-adv-x="934" d="M0 240 L934 240 L934 274 L0 274 L0 240 Z " />
<glyph glyph-name="quoteleft" unicode="&#x2018;" horiz-adv-x="235" d="M75 512 L135 512 L135 574 L106 574 L150 679 L131 679 L75 572 L75 512 Z " />
<glyph glyph-name="quoteright" unicode="&#x2019;" horiz-adv-x="235" d="M76 512 L95 512 L151 618 L151 679 L92 679 L92 617 L121 617 L76 512 Z " />
<glyph glyph-name="quotesinglbase" unicode="&#x201a;" horiz-adv-x="235" d="M76 -105 L95 -105 L151 1 L151 62 L92 62 L92 0 L121 0 L76 -105 Z " />
<glyph glyph-name="quotedblleft" unicode="&#x201c;" horiz-adv-x="345" d="M188 512 L247 512 L247 574 L218 574 L263 679 L244 679 L188 572 L188 512 Z M79 512 L139 512 L139 574 L110 574 L154 679 L135 679 L79 572 L79 512 Z " />
<glyph glyph-name="quotedblright" unicode="&#x201d;" horiz-adv-x="345" d="M185 512 L204 512 L260 618 L260 679 L200 679 L200 617 L229 617 L185 512 Z M76 512 L95 512 L151 618 L151 679 L92 679 L92 617 L121 617 L76 512 Z " />
<glyph glyph-name="quotedblbase" unicode="&#x201e;" horiz-adv-x="345" d="M185 -105 L204 -105 L260 1 L260 62 L200 62 L200 0 L229 0 L185 -105 Z M76 -105 L95 -105 L151 1 L151 62 L92 62 L92 0 L121 0 L76 -105 Z " />
<glyph glyph-name="dagger" unicode="&#x2020;" horiz-adv-x="535" d="M257 -169 L280 -169 L280 28 C280 229 287 350 304 410 L278 449 L278 451 L479 435 L468 462 L479 489 L278 467 L303 680 L268 666 L232 680 L259 467 L57 489 L67 462 L57 435 L259 451 L259 449 L230 410 C247 360 255 229 257 27 L257 -169 Z " />
<glyph glyph-name="daggerdbl" unicode="&#x2021;" horiz-adv-x="535" d="M257 -169 L280 -169 L280 -48 C280 134 287 223 304 284 L278 322 L278 324 L479 309 L468 336 L479 362 L281 341 L304 422 L278 460 L278 462 L479 447 L468 474 L479 500 L278 478 L303 680 L268 666 L232 680 L259 478 L57 500 L67 474 L57 447 L259 462 L259 460 L230 422 L255 341 L57 362 L67 336 L57 309 L259 324 L259 322 L230 284 C247 233 255 134 257 -49 L257 -169 Z " />
<glyph glyph-name="bullet" unicode="&#x2022;" horiz-adv-x="340" d="M169 180 C242 180 297 234 297 305 C297 377 242 432 169 432 C96 432 41 377 41 305 C41 232 96 180 169 180 L169 180 Z " />
<glyph glyph-name="ellipsis" unicode="&#x2026;" horiz-adv-x="688" d="M550 0 L610 0 L610 60 L550 60 L550 0 Z M318 0 L377 0 L377 60 L318 60 L318 0 Z M85 0 L145 0 L145 60 L85 60 L85 0 Z " />
<glyph glyph-name="perthousand" unicode="&#x2030;" horiz-adv-x="944" d="M163 347 C260 347 304 432 304 517 C304 605 261 689 161 689 C63 689 21 605 21 517 C21 432 66 347 163 347 L163 347 Z M65 0 L109 0 L554 679 L511 679 L65 0 Z M783 -9 C880 -9 924 76 924 161 C924 249 881 333 781 333 C683 333 641 249 641 161 C641 76 686 -9 783 -9 L783 -9 Z M460 -9 C557 -9 601 76 601 161 C601 249 558 333 458 333 C360 333 318 249 318 161 C318 76 363 -9 460 -9 L460 -9 Z M163 377 C83 377 57 452 57 517 C57 587 82 658 161 658 C241 658 268 587 268 517 C268 452 242 377 163 377 L163 377 Z M783 21 C704 21 677 95 677 161 C677 230 703 302 781 302 C861 302 888 230 888 161 C888 95 862 21 783 21 L783 21 Z M460 21 C381 21 354 95 354 161 C354 230 379 302 458 302 C538 302 565 230 565 161 C565 95 539 21 460 21 L460 21 Z " />
<glyph glyph-name="guilsinglleft" unicode="&#x2039;" horiz-adv-x="186" d="M127 106 L151 106 L89 256 L151 400 L126 400 L40 256 L127 106 Z " />
<glyph glyph-name="guilsinglright" unicode="&#x203a;" horiz-adv-x="186" d="M35 106 L59 106 L146 256 L60 400 L35 400 L97 256 L35 106 Z " />
<glyph glyph-name="fraction" unicode="&#x2044;" horiz-adv-x="140" d="M-154 0 L-114 0 L297 679 L256 679 L-154 0 Z " />
<glyph glyph-name="Euro" unicode="&#x20ac;" horiz-adv-x="588" d="M355 -9 C488 -9 553 95 575 216 L532 225 C511 108 459 28 355 28 C234 28 184 128 168 247 L333 247 L346 282 L166 282 C164 301 163 320 163 339 C163 356 164 374 164 390 L386 390 L399 426 L167 426 C181 547 230 652 351 652 C457 652 506 567 528 459 L573 468 C549 584 490 689 351 689 C206 689 140 568 121 426 L5 426 L5 390 L118 390 C116 373 115 355 115 337 C115 318 116 300 118 282 L4 282 L4 247 L121 247 C141 107 210 -9 355 -9 L355 -9 Z " />
<glyph glyph-name="trademark" unicode="&#x2122;" horiz-adv-x="790" d="M350 308 L380 308 L380 631 L382 631 L523 308 L550 308 L684 631 L686 631 L686 308 L723 308 L723 680 L675 680 L540 353 L538 353 L397 680 L350 680 L350 308 Z M135 308 L171 308 L171 649 L294 649 L294 680 L12 680 L12 649 L135 649 L135 308 Z " />
<glyph glyph-name="partialdiff" unicode="&#x2202;" horiz-adv-x="508" d="M249 -9 C382 -9 468 94 468 256 C468 487 281 678 161 713 L138 679 C229 655 341 555 382 464 L380 464 C358 493 310 516 259 516 C126 516 40 416 40 256 C40 121 95 -9 249 -9 L249 -9 Z M251 27 C138 27 87 122 87 256 C87 412 162 480 257 480 C369 480 421 378 421 254 C421 97 345 27 251 27 L251 27 Z " />
<glyph glyph-name="minus" unicode="&#x2212;" horiz-adv-x="588" d="M40 271 L540 271 L540 308 L40 308 L40 271 Z " />
<glyph glyph-name="integral" unicode="&#x222b;" horiz-adv-x="588" d="M50 -178 C123 -178 181 -142 215 -14 L362 532 C381 605 415 649 473 649 C503 649 532 642 532 642 L541 677 C541 677 516 684 478 684 C405 684 345 635 316 530 L170 -16 C146 -104 116 -142 54 -142 C25 -142 -1 -133 -1 -133 L-11 -169 C-11 -169 12 -178 50 -178 L50 -178 Z " />
<glyph glyph-name="fi" unicode="&#xfb01;" horiz-adv-x="463" d="M332 591 L382 591 L382 640 L332 640 L332 591 Z M100 0 L143 0 L143 468 L279 468 L279 503 L143 503 L143 532 C143 605 166 649 225 649 C255 649 286 642 286 642 L286 677 C286 677 258 684 221 684 C148 684 100 635 100 530 L100 503 L13 503 L13 468 L100 468 L100 0 Z M335 0 L379 0 L379 503 L335 503 L335 0 Z " />
<glyph glyph-name="fl" unicode="&#xfb02;" horiz-adv-x="460" d="M100 0 L143 0 L143 468 L275 468 L275 503 L143 503 L143 532 C143 605 166 649 225 649 C255 649 286 642 286 642 L286 677 C286 677 258 684 221 684 C148 684 100 635 100 530 L100 503 L13 503 L13 468 L100 468 L100 0 Z M334 0 L378 0 L378 679 L334 679 L334 0 Z " />
</font>
</svg>
