<?xml version="1.0" encoding="UTF-8"?>
<svg xmlns="http://www.w3.org/2000/svg" xmlns:xlink="http://www.w3.org/1999/xlink" version="1.2" >
<font id="TeeFranklin-MediumOblique">
<font-face  font-family="TeeFranklin" units-per-em="1000" ascent="750" descent="-250" font-style="italic" font-weight="500" font-stretch="normal" slope="-12" cap-height="700" x-height="500" underline-position="-90" underline-thickness="20" />
<missing-glyph  horiz-adv-x="500" d="" />
<glyph glyph-name="NULL" d="" />
<glyph glyph-name="CR" unicode="&#xd;" horiz-adv-x="250" d="" />
<glyph glyph-name="space" unicode="&#x20;" horiz-adv-x="290" d="" />
<glyph glyph-name="exclam" unicode="&#x21;" horiz-adv-x="264" d="M89 169 L132 169 L263 679 L142 679 L89 169 Z M30 0 L134 0 L153 105 L49 105 L30 0 Z " />
<glyph glyph-name="quotedbl" unicode="&#x22;" horiz-adv-x="411" d="M278 431 L341 431 L382 570 L401 679 L304 679 L285 570 L278 431 Z M124 431 L187 431 L228 570 L247 679 L150 679 L131 570 L124 431 Z " />
<glyph glyph-name="numbersign" unicode="&#x23;" horiz-adv-x="600" d="M52 0 L118 0 L193 204 L323 204 L250 0 L317 0 L390 204 L512 204 L523 267 L417 267 L472 424 L584 424 L595 487 L498 487 L566 679 L497 679 L428 487 L298 487 L367 679 L300 679 L231 487 L109 487 L98 424 L206 424 L151 267 L33 267 L22 204 L125 204 L52 0 Z M219 267 L274 424 L405 424 L349 267 L219 267 Z " />
<glyph glyph-name="dollar" unicode="&#x24;" horiz-adv-x="600" d="M200 -74 L260 -74 L277 23 C431 31 526 128 526 242 C526 322 464 370 342 392 L379 599 C441 586 475 539 479 493 L553 511 C551 588 493 655 390 666 L405 750 L345 750 L330 666 C195 654 112 561 112 465 C112 391 162 341 269 320 L229 93 C143 108 107 174 106 216 L32 201 C34 148 66 39 217 24 L200 -74 Z M284 404 C216 423 195 449 195 485 C195 546 252 591 319 600 L284 404 Z M289 91 L327 308 C400 290 439 266 439 220 C439 145 367 97 289 91 L289 91 Z " />
<glyph glyph-name="percent" unicode="&#x25;" horiz-adv-x="696" d="M173 335 C287 335 349 457 349 557 C349 628 315 689 233 689 C121 689 58 572 58 471 C58 400 91 335 173 335 L173 335 Z M51 0 L124 0 L654 679 L582 679 L51 0 Z M470 -10 C584 -10 646 112 646 212 C646 283 612 344 530 344 C418 344 355 227 355 126 C355 55 388 -10 470 -10 L470 -10 Z M182 386 C131 386 118 427 118 468 C118 550 153 638 224 638 C274 638 289 600 289 556 C289 492 263 386 182 386 L182 386 Z M479 41 C428 41 415 82 415 123 C415 205 450 293 521 293 C571 293 586 255 586 211 C586 147 560 41 479 41 L479 41 Z " />
<glyph glyph-name="ampersand" unicode="&#x26;" horiz-adv-x="668" d="M207 -9 C281 -9 341 10 403 54 C436 15 452 -3 510 -3 C531 -3 579 4 579 4 L591 74 C591 74 555 69 532 69 C494 69 478 78 460 101 C526 162 593 259 629 358 L558 371 C534 295 491 214 430 153 L323 370 C425 410 502 475 502 570 C502 645 442 689 363 689 C269 689 185 614 185 525 C185 483 204 440 226 395 C98 350 10 279 10 152 C10 56 80 -9 207 -9 L207 -9 Z M298 420 L294 428 C275 466 259 497 259 532 C259 581 303 626 354 626 C399 626 433 597 433 555 C433 494 397 458 298 420 L298 420 Z M229 55 C150 55 98 92 98 164 C98 263 173 319 250 345 L372 104 C330 70 281 55 229 55 L229 55 Z " />
<glyph glyph-name="quotesingle" unicode="&#x27;" horiz-adv-x="257" d="M124 431 L187 431 L228 570 L247 679 L150 679 L131 570 L124 431 Z " />
<glyph glyph-name="parenleft" unicode="&#x28;" horiz-adv-x="308" d="M127 -169 L179 -169 C140 -80 118 17 118 123 C118 316 198 523 328 680 L276 680 C142 531 44 338 44 133 C44 19 74 -86 127 -169 L127 -169 Z " />
<glyph glyph-name="parenright" unicode="&#x29;" horiz-adv-x="308" d="M-30 -169 L22 -169 C161 -30 254 181 254 368 C254 484 222 590 173 680 L121 680 C161 596 183 500 183 396 C183 197 101 -6 -30 -169 L-30 -169 Z " />
<glyph glyph-name="asterisk" unicode="&#x2a;" horiz-adv-x="451" d="M249 276 L309 293 L266 466 L450 448 L460 506 L271 490 L375 661 L323 679 L249 498 L130 620 L88 572 L232 477 L55 380 L83 333 L241 455 L249 276 Z " />
<glyph glyph-name="plus" unicode="&#x2b;" horiz-adv-x="600" d="M218 30 L284 30 L324 254 L547 254 L558 318 L335 318 L375 542 L309 542 L269 318 L46 318 L35 254 L258 254 L218 30 Z " />
<glyph glyph-name="comma" unicode="&#x2c;" horiz-adv-x="269" d="M-3 -128 L37 -128 L142 11 L160 113 L50 113 L30 0 L80 0 L-3 -128 Z " />
<glyph glyph-name="hyphen" unicode="&#x2d;" horiz-adv-x="240" d="M0 224 L212 224 L223 286 L11 286 L0 224 Z " />
<glyph glyph-name="period" unicode="&#x2e;" horiz-adv-x="289" d="M40 0 L151 0 L171 111 L60 111 L40 0 Z " />
<glyph glyph-name="slash" unicode="&#x2f;" horiz-adv-x="524" d="M-59 -169 L7 -169 L573 680 L506 680 L-59 -169 Z " />
<glyph glyph-name="zero" unicode="0" horiz-adv-x="600" d="M250 -9 C473 -9 574 264 574 440 C574 581 511 689 365 689 C143 689 44 420 44 250 C44 118 98 -9 250 -9 L250 -9 Z M262 56 C156 56 130 148 131 242 C131 401 200 624 354 624 C458 624 486 535 486 442 C486 277 422 56 262 56 L262 56 Z " />
<glyph glyph-name="one" unicode="1" horiz-adv-x="600" d="M35 0 L506 0 L517 62 L330 62 L439 679 L376 679 C315 610 224 545 140 515 L125 433 C206 466 278 520 336 576 L338 576 L247 62 L46 62 L35 0 Z " />
<glyph glyph-name="two" unicode="2" horiz-adv-x="600" d="M-2 0 L481 0 L493 70 L122 70 L123 72 L357 230 C466 304 569 403 569 522 C569 632 471 689 365 689 C237 689 132 613 85 490 L161 469 C183 550 259 621 351 621 C420 621 482 581 482 511 C482 408 397 338 288 262 L10 70 L-2 0 Z " />
<glyph glyph-name="three" unicode="3" horiz-adv-x="600" d="M238 -9 C396 -9 535 81 535 221 C535 297 480 345 403 357 L403 359 C489 373 563 447 563 541 C563 641 470 689 369 689 C260 689 154 636 101 535 L175 514 C210 584 279 623 351 623 C419 623 475 591 475 525 C475 439 405 386 305 386 L217 386 L205 320 L289 320 C375 320 443 285 444 214 C444 121 360 58 247 58 C158 58 103 93 94 181 L9 155 C24 45 121 -9 238 -9 L238 -9 Z " />
<glyph glyph-name="four" unicode="4" horiz-adv-x="600" d="M321 0 L404 0 L432 158 L542 158 L553 222 L443 222 L524 679 L416 679 L24 215 L14 158 L349 158 L321 0 Z M113 222 L113 224 L427 612 L429 612 L360 222 L113 222 Z " />
<glyph glyph-name="five" unicode="5" horiz-adv-x="600" d="M230 -9 C408 -9 538 121 538 274 C538 384 455 461 337 461 C269 461 207 430 162 388 L160 388 L217 604 L551 604 L571 679 L169 679 L79 314 L145 300 C179 351 248 393 320 393 C403 393 453 337 454 262 C454 154 376 58 246 58 C163 58 106 103 98 176 L21 151 C30 52 125 -9 230 -9 L230 -9 Z " />
<glyph glyph-name="six" unicode="6" horiz-adv-x="600" d="M252 -9 C399 -9 543 117 543 266 C543 371 467 444 356 444 C261 444 163 377 122 301 L120 301 C152 441 211 620 379 620 C454 620 497 584 505 518 L585 539 C573 638 504 689 393 689 C184 689 43 461 43 225 C43 108 94 -9 252 -9 L252 -9 Z M261 59 C180 59 125 116 125 185 C125 287 228 377 330 377 C407 377 460 324 460 252 C460 141 365 59 261 59 L261 59 Z " />
<glyph glyph-name="seven" unicode="7" horiz-adv-x="600" d="M152 0 L239 0 L243 24 C282 257 423 461 589 626 L599 679 L153 679 L130 604 L498 604 L497 602 C327 442 190 221 152 0 L152 0 Z " />
<glyph glyph-name="eight" unicode="8" horiz-adv-x="600" d="M251 -9 C380 -9 545 57 545 218 C545 296 477 335 412 368 L412 370 C501 399 575 452 575 549 C575 641 487 689 376 689 C261 689 109 626 109 491 C109 425 159 380 217 357 L217 355 C120 321 14 260 14 148 C14 38 134 -9 251 -9 L251 -9 Z M321 395 C262 409 197 440 197 506 C197 575 275 626 366 626 C433 626 500 605 500 538 C500 447 392 414 321 395 L321 395 Z M263 54 C191 54 98 76 98 155 C98 250 217 305 299 321 C367 302 457 266 457 189 C457 93 339 54 263 54 L263 54 Z " />
<glyph glyph-name="nine" unicode="9" horiz-adv-x="600" d="M212 -9 C424 -9 561 217 561 449 C561 574 505 689 353 689 C197 689 63 564 63 418 C63 311 138 236 250 236 C353 236 440 297 480 373 L482 373 C456 236 395 60 227 60 C152 60 106 97 100 151 L24 125 C37 41 101 -9 212 -9 L212 -9 Z M275 303 C196 303 144 360 144 433 C144 534 243 621 345 621 C427 621 479 556 479 486 C479 388 381 303 275 303 L275 303 Z " />
<glyph glyph-name="colon" unicode="&#x3a;" horiz-adv-x="289" d="M109 392 L219 392 L239 503 L129 503 L109 392 Z M40 0 L150 0 L170 111 L60 111 L40 0 Z " />
<glyph glyph-name="semicolon" unicode="&#x3b;" horiz-adv-x="269" d="M99 392 L210 392 L230 503 L119 503 L99 392 Z M-3 -128 L37 -128 L142 11 L160 113 L50 113 L30 0 L80 0 L-3 -128 Z " />
<glyph glyph-name="less" unicode="&#x3c;" horiz-adv-x="600" d="M497 70 L508 131 L146 285 L147 287 L563 440 L573 501 L54 302 L48 269 L497 70 Z " />
<glyph glyph-name="equal" unicode="&#x3d;" horiz-adv-x="600" d="M55 352 L560 352 L571 414 L66 414 L55 352 Z M21 160 L526 160 L537 222 L32 222 L21 160 Z " />
<glyph glyph-name="greater" unicode="&#x3e;" horiz-adv-x="600" d="M16 70 L535 269 L541 302 L92 501 L82 440 L444 287 L443 285 L27 131 L16 70 Z " />
<glyph glyph-name="question" unicode="&#x3f;" horiz-adv-x="500" d="M173 166 L244 166 L254 220 C265 281 293 291 330 308 C448 362 514 429 514 532 C514 633 428 689 323 689 C194 689 95 616 57 494 L130 478 C155 559 215 619 305 619 C372 619 424 586 424 521 C424 455 383 405 284 360 C220 330 196 298 181 211 L173 166 Z M132 0 L233 0 L250 99 L149 99 L132 0 Z " />
<glyph glyph-name="at" unicode="&#x40;" horiz-adv-x="779" d="M321 -109 C397 -109 439 -94 439 -94 L430 -50 C430 -50 395 -63 329 -63 C176 -63 85 50 85 190 C85 381 246 565 448 565 C593 565 675 473 676 326 C676 194 613 36 549 36 C534 36 525 46 525 74 C525 84 527 97 529 110 L565 314 C568 329 569 343 569 355 C569 437 501 463 422 463 C319 463 264 421 242 354 L298 344 C320 399 367 415 419 415 C465 415 508 408 508 351 C508 342 507 332 505 321 L501 300 L429 300 C284 300 195 234 195 144 C195 84 239 43 317 43 C404 43 447 90 468 125 L470 125 C467 106 465 89 465 73 C465 21 483 -10 538 -10 C659 -10 734 199 734 322 C736 498 630 609 455 609 C226 609 28 416 28 182 C28 18 142 -109 321 -109 L321 -109 Z M339 91 C291 91 263 111 263 149 C263 220 347 254 442 254 L493 254 L489 230 C477 156 417 91 339 91 L339 91 Z " />
<glyph glyph-name="A" unicode="A" horiz-adv-x="556" d="M-41 0 L30 0 L127 196 L381 196 L409 0 L499 0 L397 679 L298 679 L-41 0 Z M159 262 L322 589 L324 589 L371 262 L159 262 Z " />
<glyph glyph-name="B" unicode="B" horiz-adv-x="608" d="M30 0 L297 0 C416 0 554 70 554 217 C554 291 507 348 434 359 L435 361 C525 377 591 455 591 545 C591 635 514 679 420 679 L150 679 L30 0 Z M184 388 L223 609 L389 609 C456 609 504 584 504 523 C504 440 422 388 345 388 L184 388 Z M129 72 L173 323 L343 323 C410 323 470 292 470 221 C470 110 375 72 295 72 L129 72 Z " />
<glyph glyph-name="C" unicode="C" horiz-adv-x="610" d="M270 -9 C412 -9 505 93 557 211 L481 229 C435 116 360 61 282 61 C198 61 133 123 133 250 C133 445 235 619 384 619 C472 619 514 553 519 457 L603 473 C595 586 542 689 389 689 C142 689 42 421 42 255 C42 127 94 -9 270 -9 L270 -9 Z " />
<glyph glyph-name="D" unicode="D" horiz-adv-x="650" d="M30 0 L273 0 C498 0 626 222 626 415 C626 541 562 679 383 679 L150 679 L30 0 Z M129 71 L223 607 L363 607 C465 607 539 546 539 419 C539 205 422 71 253 71 L129 71 Z " />
<glyph glyph-name="E" unicode="E" horiz-adv-x="568" d="M30 0 L473 0 L486 73 L129 73 L172 320 L446 320 L459 389 L185 389 L223 605 L567 605 L580 679 L150 679 L30 0 Z " />
<glyph glyph-name="F" unicode="F" horiz-adv-x="486" d="M30 0 L116 0 L172 319 L443 319 L455 388 L184 388 L223 605 L553 605 L566 679 L150 679 L30 0 Z " />
<glyph glyph-name="G" unicode="G" horiz-adv-x="657" d="M270 -9 C366 -9 430 30 474 80 L476 80 L491 0 L537 0 L597 342 L333 342 L321 272 L497 272 L492 243 C473 131 402 61 289 61 C197 61 133 126 133 257 C133 463 248 619 384 619 C475 619 530 559 533 474 L617 493 C610 602 540 689 404 689 C154 689 41 432 41 250 C41 122 96 -9 270 -9 L270 -9 Z " />
<glyph glyph-name="H" unicode="H" horiz-adv-x="645" d="M30 0 L116 0 L173 321 L486 321 L429 0 L515 0 L635 679 L549 679 L499 395 L186 395 L236 679 L150 679 L30 0 Z " />
<glyph glyph-name="I" unicode="I" horiz-adv-x="255" d="M35 0 L121 0 L241 679 L155 679 L35 0 Z " />
<glyph glyph-name="J" unicode="J" horiz-adv-x="378" d="M45 -9 C163 -9 258 52 285 208 L368 679 L282 679 L197 197 C179 94 128 64 46 64 C0 64 -42 74 -42 74 L-55 2 C-55 2 -17 -9 45 -9 L45 -9 Z " />
<glyph glyph-name="K" unicode="K" horiz-adv-x="626" d="M30 0 L116 0 L149 188 L316 358 L472 0 L570 0 L383 426 L633 679 L541 679 L169 291 L167 291 L236 679 L150 679 L30 0 Z " />
<glyph glyph-name="L" unicode="L" horiz-adv-x="498" d="M30 0 L432 0 L445 75 L129 75 L236 679 L150 679 L30 0 Z " />
<glyph glyph-name="M" unicode="M" horiz-adv-x="816" d="M30 0 L100 0 L204 592 L208 592 L325 0 L382 0 L700 592 L704 592 L600 0 L686 0 L806 679 L682 679 L386 133 L384 133 L278 679 L150 679 L30 0 Z " />
<glyph glyph-name="N" unicode="N" horiz-adv-x="660" d="M30 0 L100 0 L204 590 L206 590 L447 0 L530 0 L650 679 L580 679 L482 127 L480 127 L257 679 L150 679 L30 0 Z " />
<glyph glyph-name="O" unicode="O" horiz-adv-x="638" d="M270 -9 C502 -9 616 260 616 425 C616 551 564 689 389 689 C145 689 41 410 41 250 C41 122 96 -9 270 -9 L270 -9 Z M281 59 C195 59 131 126 131 258 C131 450 240 619 384 619 C480 619 526 542 526 432 C526 208 399 59 281 59 L281 59 Z " />
<glyph glyph-name="P" unicode="P" horiz-adv-x="560" d="M30 0 L116 0 L165 276 L324 276 C453 276 579 367 579 519 C579 622 503 679 395 679 L150 679 L30 0 Z M177 345 L223 607 L379 607 C445 607 491 573 491 506 C491 398 409 345 328 345 L177 345 Z " />
<glyph glyph-name="Q" unicode="Q" horiz-adv-x="638" d="M404 -162 C450 -162 484 -149 484 -149 L495 -83 C495 -83 451 -90 406 -90 C376 -90 339 -79 339 -26 C339 -18 340 -10 341 0 C528 47 620 262 620 429 C620 554 564 689 391 689 C139 689 42 402 42 255 C42 126 96 -8 271 -9 C270 -20 269 -30 269 -39 C269 -128 326 -162 404 -162 L404 -162 Z M347 71 C360 175 301 224 246 224 C204 224 162 201 146 164 L144 164 C135 191 132 223 132 260 C132 455 253 619 386 619 C483 619 530 539 530 427 C530 246 440 108 347 71 L347 71 Z M277 59 C229 61 171 84 171 117 C171 141 186 167 227 167 C258 167 279 142 279 89 C279 80 279 70 277 59 L277 59 Z " />
<glyph glyph-name="R" unicode="R" horiz-adv-x="608" d="M30 0 L116 0 L168 294 L357 294 L429 0 L520 0 L439 312 C516 334 601 400 601 526 C601 629 522 679 413 679 L150 679 L30 0 Z M180 363 L223 607 L397 607 C465 607 512 578 512 510 C512 409 429 363 349 363 L180 363 Z " />
<glyph glyph-name="S" unicode="S" horiz-adv-x="581" d="M249 -9 C431 -9 542 101 542 229 C542 317 474 370 337 393 C217 413 182 446 182 494 C182 567 263 622 347 622 C441 622 490 562 495 502 L574 522 C571 612 495 689 364 689 C199 689 96 582 96 471 C96 389 155 335 277 313 C389 292 450 267 450 208 C450 116 361 62 262 62 C138 62 89 148 88 200 L9 184 C12 123 51 -9 249 -9 L249 -9 Z " />
<glyph glyph-name="T" unicode="T" horiz-adv-x="491" d="M153 0 L239 0 L346 604 L539 604 L552 679 L80 679 L67 604 L260 604 L153 0 Z " />
<glyph glyph-name="U" unicode="U" horiz-adv-x="629" d="M264 -9 C402 -9 510 64 540 233 L619 679 L548 679 L469 233 C447 106 376 67 285 67 C208 67 152 92 152 176 C152 192 153 209 157 229 L237 679 L150 679 L71 233 C67 209 64 182 64 160 C64 40 143 -9 264 -9 L264 -9 Z " />
<glyph glyph-name="V" unicode="V" horiz-adv-x="541" d="M180 0 L261 0 L611 679 L537 679 L251 118 L249 118 L160 679 L70 679 L180 0 Z " />
<glyph glyph-name="W" unicode="W" horiz-adv-x="793" d="M121 0 L206 0 L438 525 L440 525 L496 0 L577 0 L863 679 L790 679 L565 121 L563 121 L507 679 L438 679 L198 125 L196 125 L161 679 L70 679 L121 0 Z " />
<glyph glyph-name="X" unicode="X" horiz-adv-x="565" d="M-29 0 L47 0 L276 292 L278 292 L398 0 L495 0 L340 368 L588 679 L511 679 L316 429 L314 429 L210 679 L114 679 L251 352 L-29 0 Z " />
<glyph glyph-name="Y" unicode="Y" horiz-adv-x="541" d="M178 0 L264 0 L315 287 L610 679 L532 679 L296 360 L294 360 L171 679 L71 679 L228 286 L178 0 Z " />
<glyph glyph-name="Z" unicode="Z" horiz-adv-x="559" d="M-11 0 L470 0 L483 73 L100 73 L100 76 L567 622 L577 679 L128 679 L115 608 L462 608 L462 606 L2 73 L-11 0 Z " />
<glyph glyph-name="bracketleft" unicode="&#x5b;" horiz-adv-x="266" d="M-20 -169 L154 -169 L164 -115 L60 -115 L191 629 L295 629 L304 680 L130 680 L-20 -169 Z " />
<glyph glyph-name="backslash" unicode="&#x5c;" horiz-adv-x="524" d="M354 -169 L420 -169 L161 680 L94 680 L354 -169 Z " />
<glyph glyph-name="bracketright" unicode="&#x5d;" horiz-adv-x="266" d="M-48 -169 L126 -169 L276 680 L102 680 L93 629 L198 629 L67 -115 L-38 -115 L-48 -169 Z " />
<glyph glyph-name="asciicircum" unicode="&#x5e;" horiz-adv-x="600" d="M91 256 L153 256 L337 586 L339 586 L408 256 L470 256 L378 680 L333 680 L91 256 Z " />
<glyph glyph-name="underscore" unicode="&#x5f;" horiz-adv-x="480" d="M-72 -123 L408 -123 L417 -74 L-63 -74 L-72 -123 Z " />
<glyph glyph-name="grave" unicode="&#x60;" horiz-adv-x="531" d="M351 542 L383 572 L254 729 L193 684 L351 542 Z " />
<glyph glyph-name="a" unicode="a" horiz-adv-x="537" d="M174 -9 C283 -9 338 50 364 93 L366 93 L359 0 L438 0 C438 0 434 42 443 91 L485 329 C488 347 490 367 490 383 C490 487 421 516 324 516 C193 516 110 463 82 379 L151 367 C180 436 237 456 303 456 C360 456 414 445 414 375 C414 364 413 351 410 338 L405 312 L315 312 C133 312 23 234 23 117 C23 43 76 -9 174 -9 L174 -9 Z M203 51 C143 51 107 76 107 122 C107 220 213 254 331 254 L395 254 L389 224 C372 137 300 51 203 51 L203 51 Z " />
<glyph glyph-name="b" unicode="b" horiz-adv-x="540" d="M232 -9 C384 -9 501 132 501 327 C501 426 459 516 335 516 C257 516 203 463 174 418 L172 418 L218 679 L140 679 L20 0 L55 0 L101 85 L103 85 C115 35 164 -9 232 -9 L232 -9 Z M246 53 C173 53 116 104 135 211 L150 294 C170 404 258 454 316 454 C377 454 416 408 416 320 C416 133 319 53 246 53 L246 53 Z " />
<glyph glyph-name="c" unicode="c" horiz-adv-x="486" d="M202 -9 C309 -9 388 57 430 167 L357 180 C327 94 273 57 219 57 C151 57 113 98 113 182 C113 366 209 451 289 451 C351 451 382 408 383 329 L459 342 C457 437 413 516 296 516 C151 516 29 373 29 184 C29 79 76 -9 202 -9 L202 -9 Z " />
<glyph glyph-name="d" unicode="d" horiz-adv-x="540" d="M195 -9 C273 -9 334 44 363 89 L365 89 L349 0 L421 0 L541 679 L463 679 L420 435 L418 435 C404 475 356 516 295 516 C147 516 29 376 29 182 C29 84 70 -9 195 -9 L195 -9 Z M215 54 C153 54 114 102 114 194 C114 368 212 454 284 454 C359 454 415 406 396 299 L381 213 C362 103 273 54 215 54 L215 54 Z " />
<glyph glyph-name="e" unicode="e" horiz-adv-x="532" d="M209 -9 C322 -9 410 43 460 138 L387 153 C350 75 275 55 237 55 C169 55 116 93 116 189 C116 206 117 225 121 246 L485 246 L488 260 C493 284 496 308 496 331 C496 438 437 516 312 516 C161 516 29 376 29 194 C29 82 84 -9 209 -9 L209 -9 Z M135 303 C162 412 240 456 300 456 C363 456 410 414 410 333 C410 324 409 314 408 303 L135 303 Z " />
<glyph glyph-name="f" unicode="f" horiz-adv-x="303" d="M50 0 L128 0 L206 442 L322 442 L333 503 L217 503 L221 529 C233 605 265 626 317 626 C348 626 382 617 382 617 L393 680 C393 680 364 689 317 689 C237 689 162 655 142 523 L139 503 L52 503 L41 442 L128 442 L50 0 Z " />
<glyph glyph-name="g" unicode="g" horiz-adv-x="495" d="M157 -190 C398 -190 436 -82 436 -24 C436 32 395 79 292 82 L160 86 C114 87 83 96 83 125 C83 151 112 180 147 181 C160 181 179 173 212 173 C333 173 437 250 437 368 C437 409 423 445 405 464 C422 512 461 516 500 516 L514 516 L525 579 C525 579 508 583 497 583 C435 583 392 556 374 490 L372 490 C351 505 309 516 275 516 C181 516 49 454 49 312 C49 265 70 233 96 215 L96 213 C67 203 8 169 8 110 C8 78 23 52 40 40 L40 38 C6 29 -53 -11 -53 -80 C-53 -149 18 -190 157 -190 L157 -190 Z M225 233 C170 233 131 262 131 319 C131 388 185 454 263 454 C315 454 358 424 358 368 C358 287 295 233 225 233 L225 233 Z M172 -130 C75 -130 26 -99 26 -57 C26 -27 52 -1 87 17 L275 10 C331 8 359 -11 359 -39 C359 -103 269 -130 172 -130 L172 -130 Z " />
<glyph glyph-name="h" unicode="h" horiz-adv-x="538" d="M20 0 L98 0 L147 279 C161 359 222 450 322 450 C364 450 402 422 402 364 C402 354 401 343 399 332 L340 0 L418 0 L475 326 C478 342 479 360 479 375 C479 471 417 516 346 516 C258 516 199 459 173 415 L170 415 L217 679 L140 679 L20 0 Z " />
<glyph glyph-name="i" unicode="i" horiz-adv-x="246" d="M133 591 L221 591 L237 679 L149 679 L133 591 Z M34 0 L112 0 L201 503 L123 503 L34 0 Z " />
<glyph glyph-name="j" unicode="j" horiz-adv-x="240" d="M133 591 L221 591 L237 679 L149 679 L133 591 Z M-66 -178 C14 -178 86 -140 109 -12 L200 503 L122 503 L30 -16 C17 -90 -14 -113 -66 -113 C-97 -113 -125 -104 -125 -104 L-137 -169 C-137 -169 -113 -178 -66 -178 L-66 -178 Z " />
<glyph glyph-name="k" unicode="k" horiz-adv-x="493" d="M20 0 L98 0 L126 158 L248 270 L351 0 L435 0 L303 320 L504 503 L420 503 L143 246 L141 246 L218 679 L140 679 L20 0 Z " />
<glyph glyph-name="l" unicode="l" horiz-adv-x="242" d="M34 0 L112 0 L232 679 L154 679 L34 0 Z " />
<glyph glyph-name="m" unicode="m" horiz-adv-x="818" d="M20 0 L98 0 L147 279 C162 364 215 450 312 450 C352 450 382 421 382 366 C382 356 381 342 379 332 L320 0 L398 0 L447 279 C462 364 515 450 612 450 C652 450 682 421 682 366 C682 356 681 342 679 332 L620 0 L698 0 L755 326 C758 345 760 366 760 383 C760 471 705 516 636 516 C550 516 482 446 458 400 L456 400 C449 479 400 516 336 516 C250 516 192 453 166 409 L164 409 L181 503 L109 503 L20 0 Z " />
<glyph glyph-name="n" unicode="n" horiz-adv-x="538" d="M20 0 L98 0 L147 279 C161 359 222 450 322 450 C364 450 402 422 402 364 C402 354 401 342 399 332 L340 0 L418 0 L475 326 C478 342 479 358 479 372 C479 472 417 516 346 516 C257 516 192 453 166 409 L164 409 L181 503 L109 503 L20 0 Z " />
<glyph glyph-name="o" unicode="o" horiz-adv-x="531" d="M209 -9 C358 -9 491 129 491 314 C491 417 442 516 312 516 C161 516 29 382 29 190 C29 82 80 -9 209 -9 L209 -9 Z M225 55 C156 55 115 100 115 188 C115 352 202 453 295 453 C362 453 404 406 404 319 C404 133 302 55 225 55 L225 55 Z " />
<glyph glyph-name="p" unicode="p" horiz-adv-x="535" d="M-10 -172 L68 -172 L112 77 L114 77 C126 34 171 -9 235 -9 C383 -9 499 138 499 326 C499 425 460 516 335 516 C257 516 193 459 166 409 L164 409 L181 503 L109 503 L-10 -172 Z M244 55 C177 55 117 108 135 210 L150 294 C169 402 254 450 312 450 C373 450 411 407 411 320 C411 133 314 55 244 55 L244 55 Z " />
<glyph glyph-name="q" unicode="q" horiz-adv-x="540" d="M313 -164 L391 -164 L509 503 L475 503 L425 423 L423 423 C408 475 355 516 294 516 C146 516 28 374 28 184 C28 85 68 -9 194 -9 C270 -9 325 41 356 89 L358 89 L313 -164 Z M217 54 C155 54 113 101 113 192 C113 358 206 454 286 454 C361 454 412 398 395 299 L381 219 C362 109 275 54 217 54 L217 54 Z " />
<glyph glyph-name="r" unicode="r" horiz-adv-x="319" d="M20 0 L98 0 L143 254 C159 347 223 439 325 439 L345 439 L358 513 C358 513 337 516 328 516 C257 516 201 463 163 390 L161 390 L181 503 L109 503 L20 0 Z " />
<glyph glyph-name="s" unicode="s" horiz-adv-x="473" d="M191 -9 C365 -9 429 96 429 173 C429 246 374 285 269 297 C170 309 137 326 137 365 C137 412 175 454 260 454 C346 454 369 409 374 376 L448 390 C444 469 377 516 274 516 C160 516 54 453 54 341 C54 274 107 241 210 223 C318 205 346 187 346 153 C346 109 306 55 208 55 C119 55 75 97 74 149 L-5 133 C-2 72 39 -9 191 -9 L191 -9 Z " />
<glyph glyph-name="t" unicode="t" horiz-adv-x="336" d="M194 -9 C241 -9 271 -3 271 -3 L283 60 C283 60 248 54 217 54 C175 54 155 68 155 113 C155 124 157 138 159 151 L210 442 L322 442 L333 503 L221 503 L244 636 L164 622 L143 503 L56 503 L45 442 L132 442 L81 154 C78 137 76 118 76 103 C76 16 126 -9 194 -9 L194 -9 Z " />
<glyph glyph-name="u" unicode="u" horiz-adv-x="536" d="M181 -9 C270 -9 334 54 359 98 L361 98 L344 0 L416 0 L505 503 L427 503 L378 228 C364 148 305 57 205 57 C162 57 126 83 126 144 C126 153 127 165 129 175 L187 503 L109 503 L52 181 C49 166 47 145 47 129 C47 34 108 -9 181 -9 L181 -9 Z " />
<glyph glyph-name="v" unicode="v" horiz-adv-x="433" d="M129 0 L210 0 L472 503 L404 503 L194 94 L192 94 L126 503 L39 503 L129 0 Z " />
<glyph glyph-name="w" unicode="w" horiz-adv-x="638" d="M98 0 L164 0 L332 377 L334 377 L380 0 L446 0 L677 503 L610 503 L435 123 L433 123 L390 503 L328 503 L160 123 L158 123 L119 503 L39 503 L98 0 Z " />
<glyph glyph-name="x" unicode="x" horiz-adv-x="448" d="M-38 0 L36 0 L203 204 L205 204 L295 0 L387 0 L261 275 L450 503 L377 503 L236 331 L234 331 L158 503 L67 503 L177 260 L-38 0 Z " />
<glyph glyph-name="y" unicode="y" horiz-adv-x="433" d="M3 -179 C55 -179 120 -146 156 -78 L466 503 L397 503 L195 112 L193 112 L133 503 L49 503 L135 7 L103 -53 C87 -82 58 -113 1 -113 C-30 -113 -50 -106 -50 -106 L-61 -171 C-61 -171 -47 -179 3 -179 L3 -179 Z " />
<glyph glyph-name="z" unicode="z" horiz-adv-x="412" d="M-32 0 L342 0 L353 61 L75 61 L75 63 L423 461 L431 503 L82 503 L71 442 L315 442 L315 440 L-21 61 L-32 0 Z " />
<glyph glyph-name="braceleft" unicode="&#x7b;" horiz-adv-x="284" d="M120 -167 L173 -167 L183 -107 L140 -107 C111 -107 109 -81 116 -42 L144 119 C161 217 106 254 94 260 L94 262 C109 268 177 307 194 403 L224 570 C231 606 241 629 270 629 L313 629 L323 689 L270 689 C211 689 163 647 151 580 L123 419 C110 343 92 299 23 287 L13 235 C78 223 80 179 67 103 L40 -52 C28 -119 61 -167 120 -167 L120 -167 Z " />
<glyph glyph-name="bar" unicode="&#x7c;" horiz-adv-x="214" d="M-14 -247 L40 -247 L215 743 L161 743 L-14 -247 Z " />
<glyph glyph-name="braceright" unicode="&#x7d;" horiz-adv-x="284" d="M-51 -167 L2 -167 C61 -167 110 -119 122 -52 L149 103 C162 179 180 223 249 235 L259 287 C194 299 192 345 205 420 L233 580 C245 647 211 689 152 689 L99 689 L89 629 L132 629 C161 629 165 606 158 570 L128 403 C111 307 165 268 178 262 L178 260 C164 254 95 217 78 119 L50 -42 C43 -81 31 -107 2 -107 L-41 -107 L-51 -167 Z " />
<glyph glyph-name="asciitilde" unicode="&#x7e;" horiz-adv-x="600" d="M401 186 C460 186 529 231 548 343 L484 343 C475 287 456 260 418 260 C346 260 300 366 192 366 C135 366 62 314 44 209 L108 209 C118 265 136 292 174 292 C248 292 293 186 401 186 L401 186 Z " />
<glyph glyph-name="uni00A0" unicode="&#xa0;" horiz-adv-x="290" d="" />
<glyph glyph-name="exclamdown" unicode="&#xa1;" horiz-adv-x="264" d="M98 398 L202 398 L221 503 L117 503 L98 398 Z M-12 -176 L109 -176 L162 334 L119 334 L-12 -176 Z " />
<glyph glyph-name="cent" unicode="&#xa2;" horiz-adv-x="600" d="M216 -28 L276 -28 L301 112 C385 123 452 182 486 272 L422 283 C399 220 354 186 312 176 L373 521 C415 512 444 475 445 415 L512 427 C510 507 473 574 384 585 L406 708 L346 708 L324 584 C207 565 107 448 107 293 C107 203 146 126 241 112 L216 -28 Z M253 179 C211 193 185 231 185 296 C185 421 253 501 312 518 L253 179 Z " />
<glyph glyph-name="sterling" unicode="&#xa3;" horiz-adv-x="600" d="M-45 0 L344 0 C438 0 518 34 561 107 L501 148 C472 106 429 74 346 74 L169 74 L169 76 C204 92 265 149 283 249 C286 264 287 284 289 307 L451 307 L462 369 L291 369 C294 417 296 466 302 502 C315 580 367 622 430 622 C486 622 513 580 524 539 L592 574 C565 649 505 689 438 689 C318 689 231 590 213 486 C207 452 205 412 203 369 L100 369 L89 307 L200 307 C197 275 194 244 189 211 C177 139 110 74 13 74 L-32 74 L-45 0 Z " />
<glyph glyph-name="currency" unicode="&#xa4;" horiz-adv-x="600" d="M54 -36 L114 43 C146 11 190 -9 250 -9 C305 -9 354 9 396 39 L426 -36 L477 -9 L442 80 C535 178 573 318 573 435 C573 498 556 568 535 602 L600 689 L558 716 L502 641 C469 672 423 689 365 689 C307 689 258 670 217 640 L186 716 L134 689 L170 598 C83 502 45 371 44 252 C44 189 60 122 82 84 L11 -9 L54 -36 Z M262 56 C156 56 130 148 131 242 C131 401 200 624 354 624 C458 624 486 535 486 442 C486 277 422 56 262 56 L262 56 Z " />
<glyph glyph-name="yen" unicode="&#xa5;" horiz-adv-x="600" d="M206 0 L292 0 L330 216 L539 216 L550 278 L341 278 L343 287 L395 357 L564 357 L575 419 L442 419 L638 679 L562 679 L324 364 L322 364 L199 679 L99 679 L203 419 L70 419 L59 357 L228 357 L256 286 L255 278 L45 278 L34 216 L244 216 L206 0 Z " />
<glyph glyph-name="brokenbar" unicode="&#xa6;" horiz-adv-x="214" d="M89 335 L143 335 L215 743 L161 743 L89 335 Z M-14 -247 L40 -247 L112 161 L58 161 L-14 -247 Z " />
<glyph glyph-name="section" unicode="&#xa7;" horiz-adv-x="600" d="M213 -117 C385 -117 451 -12 451 63 C451 99 439 126 414 147 C477 185 500 247 500 295 C500 366 444 404 340 416 C243 427 208 444 208 482 C208 523 244 573 331 573 C417 573 440 528 445 495 L519 509 C515 588 448 635 345 635 C231 635 125 570 125 461 C125 425 140 398 169 379 C115 351 76 294 76 236 C76 167 127 133 232 115 C339 97 368 79 368 46 C368 -1 328 -53 230 -53 C141 -53 97 -11 96 41 L17 25 C20 -36 61 -117 213 -117 L213 -117 Z M336 181 C230 195 160 213 160 262 C160 302 195 340 264 345 C381 328 416 307 416 267 C416 235 391 197 336 181 L336 181 Z " />
<glyph glyph-name="dieresis" unicode="&#xa8;" horiz-adv-x="531" d="M401 588 C433 588 464 614 464 648 C464 672 443 689 419 689 C389 689 359 662 359 631 C359 607 376 588 401 588 L401 588 Z M248 588 C280 588 311 614 311 648 C311 672 290 689 266 689 C236 689 206 662 206 631 C206 607 223 588 248 588 L248 588 Z " />
<glyph glyph-name="copyright" unicode="&#xa9;" horiz-adv-x="791" d="M344 -9 C563 -9 770 177 770 398 C770 563 647 689 467 689 C243 689 41 497 41 280 C41 114 162 -9 344 -9 L344 -9 Z M352 36 C193 36 90 143 90 288 C90 475 265 644 460 644 C615 644 721 537 721 396 C721 203 544 36 352 36 L352 36 Z M375 156 C451 156 510 210 544 284 L487 298 C462 237 418 211 383 211 C343 211 309 241 309 307 C309 404 372 470 431 470 C470 470 498 440 501 388 L564 399 C559 471 520 525 438 525 C308 525 243 396 243 299 C243 228 279 156 375 156 L375 156 Z " />
<glyph glyph-name="ordfeminine" unicode="&#xaa;" horiz-adv-x="340" d="M158 364 C216 364 252 394 265 414 L267 414 L263 370 L323 370 C323 370 320 401 325 429 L350 572 C352 584 353 596 353 606 C353 669 310 689 249 689 C167 689 116 656 97 598 L148 590 C165 632 199 644 236 644 C267 644 297 638 297 599 C297 593 296 585 295 578 L293 567 L244 567 C130 567 62 512 62 443 C62 396 96 364 158 364 L158 364 Z M25 260 L306 260 L317 322 L36 322 L25 260 Z M176 410 C143 410 123 423 123 448 C123 503 183 523 252 523 L285 523 L283 509 C276 457 232 410 176 410 L176 410 Z " />
<glyph glyph-name="guillemotleft" unicode="&#xab;" horiz-adv-x="348" d="M226 106 L267 106 L245 256 L319 400 L277 400 L165 256 L226 106 Z M96 106 L137 106 L115 256 L189 400 L147 400 L35 256 L96 106 Z " />
<glyph glyph-name="logicalnot" unicode="&#xac;" horiz-adv-x="600" d="M387 30 L458 30 L509 318 L46 318 L35 254 L427 254 L387 30 Z " />
<glyph glyph-name="registered" unicode="&#xae;" horiz-adv-x="791" d="M344 -9 C563 -9 770 177 770 398 C770 563 647 689 467 689 C243 689 41 497 41 280 C41 114 162 -9 344 -9 L344 -9 Z M352 36 C193 36 90 143 90 288 C90 475 265 644 460 644 C615 644 721 537 721 396 C721 203 544 36 352 36 L352 36 Z M245 157 L308 157 L334 304 L433 304 L469 157 L535 157 L493 317 C533 333 572 370 572 433 C572 489 529 517 470 517 L308 517 L245 157 Z M343 359 L361 461 L458 461 C486 461 507 450 507 423 C507 382 472 359 438 359 L343 359 Z " />
<glyph glyph-name="macron" unicode="&#xaf;" horiz-adv-x="343" d="M81 651 L392 651 L402 709 L91 709 L81 651 Z " />
<glyph glyph-name="degree" unicode="&#xb0;" horiz-adv-x="377" d="M209 401 C298 401 382 479 382 571 C382 638 330 689 259 689 C171 689 87 610 87 521 C87 453 137 401 209 401 L209 401 Z M219 466 C181 466 153 495 153 531 C153 579 201 623 247 623 C286 623 314 594 314 557 C314 510 266 466 219 466 L219 466 Z " />
<glyph glyph-name="plusminus" unicode="&#xb1;" horiz-adv-x="600" d="M236 113 L302 113 L341 337 L564 337 L576 401 L353 401 L392 625 L326 625 L287 401 L64 401 L52 337 L275 337 L236 113 Z M-7 0 L505 0 L516 64 L4 64 L-7 0 Z " />
<glyph glyph-name="twosuperior" unicode="&#xb2;" horiz-adv-x="360" d="M31 281 L324 281 L334 343 L147 343 L148 345 L249 411 C313 453 374 513 374 587 C374 654 315 689 250 689 C172 689 109 642 78 559 L142 540 C155 592 193 628 239 628 C272 628 302 610 302 575 C302 520 252 484 199 447 L40 336 L31 281 Z " />
<glyph glyph-name="threesuperior" unicode="&#xb3;" horiz-adv-x="360" d="M171 276 C263 276 350 326 350 422 C350 455 327 482 301 493 L301 495 C332 509 368 541 368 593 C368 658 312 689 248 689 C182 689 118 657 81 583 L143 567 C165 610 198 629 234 629 C265 629 294 615 294 585 C294 544 262 520 213 520 L152 520 L141 460 L199 460 C241 460 277 444 277 411 C277 357 225 336 180 336 C136 336 108 353 104 409 L32 386 C42 307 101 276 171 276 L171 276 Z " />
<glyph glyph-name="acute" unicode="&#xb4;" horiz-adv-x="531" d="M293 542 L501 684 L456 729 L271 572 L293 542 Z " />
<glyph glyph-name="mu" unicode="&#xb5;" horiz-adv-x="536" d="M-79 -178 C1 -178 75 -144 96 -12 L100 13 C123 -2 151 -9 181 -9 C270 -9 334 54 359 98 L361 98 L344 0 L416 0 L505 503 L427 503 L378 228 C364 148 305 57 205 57 C162 57 126 84 126 143 C126 153 127 166 129 175 L187 503 L109 503 L17 -16 C4 -90 -27 -113 -79 -113 C-110 -113 -138 -104 -138 -104 L-150 -169 C-150 -169 -126 -178 -79 -178 L-79 -178 Z " />
<glyph glyph-name="paragraph" unicode="&#xb6;" horiz-adv-x="531" d="M166 -164 L228 -164 L366 617 L446 617 L308 -164 L371 -164 L509 617 L560 617 L571 679 L315 679 C237 679 63 594 63 396 C63 290 132 213 233 213 L166 -164 Z " />
<glyph glyph-name="periodcentered" unicode="&#xb7;" horiz-adv-x="289" d="M81 233 L192 233 L212 344 L101 344 L81 233 Z " />
<glyph glyph-name="cedilla" unicode="&#xb8;" horiz-adv-x="486" d="M183 -172 C233 -172 292 -145 292 -85 C292 -48 245 -35 203 -35 L219 0 L187 0 L152 -66 C152 -66 171 -64 184 -64 C208 -64 241 -68 241 -95 C241 -122 209 -138 184 -138 C154 -138 132 -130 115 -120 L95 -148 C119 -165 150 -172 183 -172 L183 -172 Z " />
<glyph glyph-name="onesuperior" unicode="&#xb9;" horiz-adv-x="360" d="M40 276 L327 276 L337 334 L232 334 L293 679 L241 679 C203 638 154 602 102 583 L89 512 C138 530 180 558 205 583 L207 583 L163 334 L50 334 L40 276 Z " />
<glyph glyph-name="ordmasculine" unicode="&#xba;" horiz-adv-x="339" d="M181 364 C272 364 356 444 356 563 C356 626 324 689 244 689 C150 689 68 600 68 490 C68 422 100 364 181 364 L181 364 Z M25 260 L306 260 L317 322 L36 322 L25 260 Z M191 411 C151 411 130 439 130 491 C130 584 188 642 232 642 C270 642 294 614 294 563 C294 462 235 411 191 411 L191 411 Z " />
<glyph glyph-name="guillemotright" unicode="&#xbb;" horiz-adv-x="348" d="M139 106 L180 106 L293 256 L233 400 L191 400 L213 256 L139 106 Z M9 106 L50 106 L163 256 L103 400 L61 400 L83 256 L9 106 Z " />
<glyph glyph-name="onequarter" unicode="&#xbc;" horiz-adv-x="800" d="M45 276 L332 276 L342 334 L237 334 L298 679 L246 679 C208 638 159 602 107 583 L94 512 C143 530 185 558 210 583 L212 583 L168 334 L55 334 L45 276 Z M136 0 L208 0 L739 679 L667 679 L136 0 Z M577 0 L646 0 L662 90 L724 90 L734 148 L672 148 L717 404 L639 404 L413 136 L405 90 L593 90 L577 0 Z M493 148 L493 150 L632 322 L634 322 L603 148 L493 148 Z " />
<glyph glyph-name="onehalf" unicode="&#xbd;" horiz-adv-x="840" d="M45 276 L332 276 L342 334 L237 334 L298 679 L246 679 C208 638 159 602 107 583 L94 512 C143 530 185 558 210 583 L212 583 L168 334 L55 334 L45 276 Z M136 0 L208 0 L739 679 L667 679 L136 0 Z M436 0 L729 0 L739 62 L552 62 L553 64 L654 130 C718 172 779 232 779 306 C779 373 720 408 655 408 C577 408 514 361 483 278 L547 259 C560 311 598 347 644 347 C677 347 707 329 707 294 C707 239 657 203 604 166 L445 55 L436 0 Z " />
<glyph glyph-name="threequarters" unicode="&#xbe;" horiz-adv-x="800" d="M185 276 C277 276 364 326 364 422 C364 455 341 482 315 493 L315 495 C346 509 382 541 382 593 C382 658 326 689 262 689 C196 689 132 657 95 583 L157 567 C179 610 212 629 248 629 C279 629 308 615 308 585 C308 544 276 520 227 520 L166 520 L155 460 L213 460 C255 460 291 444 291 411 C291 357 239 336 194 336 C150 336 122 353 118 409 L46 386 C56 307 115 276 185 276 L185 276 Z M140 0 L212 0 L743 679 L671 679 L140 0 Z M581 0 L650 0 L666 90 L728 90 L738 148 L676 148 L721 404 L643 404 L417 136 L409 90 L597 90 L581 0 Z M497 148 L497 150 L636 322 L638 322 L607 148 L497 148 Z " />
<glyph glyph-name="questiondown" unicode="&#xbf;" horiz-adv-x="500" d="M234 404 L335 404 L353 503 L252 503 L234 404 Z M161 -186 C290 -186 390 -113 428 9 L354 25 C330 -56 270 -116 180 -116 C114 -116 61 -84 61 -20 C61 44 101 97 200 143 C265 173 288 205 303 292 L311 337 L240 337 L231 283 C221 222 191 212 154 195 C36 141 -29 61 -29 -33 C-29 -135 57 -186 161 -186 L161 -186 Z " />
<glyph glyph-name="Agrave" unicode="&#xc0;" horiz-adv-x="556" d="M353 738 L385 768 L256 925 L195 880 L353 738 Z M-41 0 L30 0 L127 196 L381 196 L409 0 L499 0 L397 679 L298 679 L-41 0 Z M159 262 L322 589 L324 589 L371 262 L159 262 Z " />
<glyph glyph-name="Aacute" unicode="&#xc1;" horiz-adv-x="556" d="M367 738 L575 880 L530 925 L345 768 L367 738 Z M-41 0 L30 0 L127 196 L381 196 L409 0 L499 0 L397 679 L298 679 L-41 0 Z M159 262 L322 589 L324 589 L371 262 L159 262 Z " />
<glyph glyph-name="Acircumflex" unicode="&#xc2;" horiz-adv-x="556" d="M265 738 L374 807 L454 738 L516 748 L388 882 L202 748 L265 738 Z M-41 0 L30 0 L127 196 L381 196 L409 0 L499 0 L397 679 L298 679 L-41 0 Z M159 262 L322 589 L324 589 L371 262 L159 262 Z " />
<glyph glyph-name="Atilde" unicode="&#xc3;" horiz-adv-x="556" d="M439 739 C471 739 512 760 534 803 L494 824 C483 808 470 801 451 801 C398 801 368 840 309 840 C277 840 236 819 215 776 L254 755 C265 770 278 777 297 777 C350 777 380 739 439 739 L439 739 Z M-41 0 L30 0 L127 196 L381 196 L409 0 L499 0 L397 679 L298 679 L-41 0 Z M159 262 L322 589 L324 589 L371 262 L159 262 Z " />
<glyph glyph-name="Adieresis" unicode="&#xc4;" horiz-adv-x="556" d="M428 742 C460 742 491 768 491 802 C491 826 470 843 446 843 C416 843 386 816 386 785 C386 761 403 742 428 742 L428 742 Z M275 742 C307 742 338 768 338 802 C338 826 317 843 293 843 C263 843 233 816 233 785 C233 761 250 742 275 742 L275 742 Z M-41 0 L30 0 L127 196 L381 196 L409 0 L499 0 L397 679 L298 679 L-41 0 Z M159 262 L322 589 L324 589 L371 262 L159 262 Z " />
<glyph glyph-name="Aring" unicode="&#xc5;" horiz-adv-x="556" d="M349 716 C405 716 459 762 459 820 C459 863 427 894 381 894 C325 894 271 845 271 790 C271 747 303 716 349 716 L349 716 Z M-41 0 L30 0 L127 196 L381 196 L409 0 L499 0 L397 679 L298 679 L-41 0 Z M353 744 C324 744 303 765 303 794 C303 826 332 864 374 864 C406 864 426 841 426 815 C426 777 389 744 353 744 L353 744 Z M159 262 L322 589 L324 589 L371 262 L159 262 Z " />
<glyph glyph-name="AE" unicode="&#xc6;" horiz-adv-x="846" d="M-49 0 L28 0 L252 320 L383 320 L327 0 L750 0 L763 73 L426 73 L469 320 L723 320 L736 389 L482 389 L520 605 L844 605 L857 679 L416 679 L-49 0 Z M291 389 L429 589 L431 589 L396 389 L291 389 Z " />
<glyph glyph-name="Ccedilla" unicode="&#xc7;" horiz-adv-x="610" d="M251 -172 C300 -172 360 -147 360 -86 C360 -48 314 -35 271 -35 L283 -9 C417 -3 507 97 557 211 L481 229 C435 116 360 61 282 61 C198 61 133 124 133 251 C133 463 250 619 384 619 C472 619 514 553 519 457 L603 473 C595 586 542 689 389 689 C162 689 42 445 42 254 C41 132 91 2 251 -8 L220 -66 C220 -66 239 -64 252 -64 C276 -64 309 -68 309 -94 C309 -122 278 -138 252 -138 C222 -138 200 -130 183 -120 L163 -148 C187 -165 218 -172 251 -172 L251 -172 Z " />
<glyph glyph-name="Egrave" unicode="&#xc8;" horiz-adv-x="568" d="M443 738 L475 768 L346 925 L285 880 L443 738 Z M30 0 L473 0 L486 73 L129 73 L172 320 L446 320 L459 389 L185 389 L223 605 L567 605 L580 679 L150 679 L30 0 Z " />
<glyph glyph-name="Eacute" unicode="&#xc9;" horiz-adv-x="568" d="M367 738 L575 880 L530 925 L345 768 L367 738 Z M30 0 L473 0 L486 73 L129 73 L172 320 L446 320 L459 389 L185 389 L223 605 L567 605 L580 679 L150 679 L30 0 Z " />
<glyph glyph-name="Ecircumflex" unicode="&#xca;" horiz-adv-x="568" d="M291 738 L400 807 L480 738 L542 748 L414 882 L228 748 L291 738 Z M30 0 L473 0 L486 73 L129 73 L172 320 L446 320 L459 389 L185 389 L223 605 L567 605 L580 679 L150 679 L30 0 Z " />
<glyph glyph-name="Edieresis" unicode="&#xcb;" horiz-adv-x="568" d="M464 742 C496 742 527 768 527 802 C527 826 506 843 482 843 C452 843 422 816 422 785 C422 761 439 742 464 742 L464 742 Z M311 742 C343 742 374 768 374 802 C374 826 353 843 329 843 C299 843 269 816 269 785 C269 761 286 742 311 742 L311 742 Z M30 0 L473 0 L486 73 L129 73 L172 320 L446 320 L459 389 L185 389 L223 605 L567 605 L580 679 L150 679 L30 0 Z " />
<glyph glyph-name="Igrave" unicode="&#xcc;" horiz-adv-x="255" d="M229 738 L261 768 L132 925 L71 880 L229 738 Z M35 0 L121 0 L241 679 L155 679 L35 0 Z " />
<glyph glyph-name="Iacute" unicode="&#xcd;" horiz-adv-x="255" d="M211 738 L419 880 L374 925 L189 768 L211 738 Z M35 0 L121 0 L241 679 L155 679 L35 0 Z " />
<glyph glyph-name="Icircumflex" unicode="&#xce;" horiz-adv-x="255" d="M117 738 L226 807 L306 738 L368 748 L240 882 L54 748 L117 738 Z M35 0 L121 0 L241 679 L155 679 L35 0 Z " />
<glyph glyph-name="Idieresis" unicode="&#xcf;" horiz-adv-x="255" d="M284 742 C316 742 347 768 347 802 C347 826 326 843 302 843 C272 843 242 816 242 785 C242 761 259 742 284 742 L284 742 Z M131 742 C163 742 194 768 194 802 C194 826 173 843 149 843 C119 843 89 816 89 785 C89 761 106 742 131 742 L131 742 Z M35 0 L121 0 L241 679 L155 679 L35 0 Z " />
<glyph glyph-name="Eth" unicode="&#xd0;" horiz-adv-x="650" d="M30 0 L273 0 C498 0 626 222 626 415 C626 541 562 679 383 679 L150 679 L95 368 L6 368 L-5 306 L84 306 L30 0 Z M129 71 L170 306 L267 306 L278 368 L181 368 L223 607 L363 607 C465 607 539 546 539 419 C539 205 422 71 253 71 L129 71 Z " />
<glyph glyph-name="Ntilde" unicode="&#xd1;" horiz-adv-x="660" d="M489 739 C521 739 562 760 584 803 L544 824 C533 808 520 801 501 801 C448 801 418 840 359 840 C327 840 286 819 265 776 L304 755 C315 770 328 777 347 777 C400 777 430 739 489 739 L489 739 Z M30 0 L100 0 L204 590 L206 590 L447 0 L530 0 L650 679 L580 679 L482 127 L480 127 L257 679 L150 679 L30 0 Z " />
<glyph glyph-name="Ograve" unicode="&#xd2;" horiz-adv-x="638" d="M423 738 L455 768 L326 925 L265 880 L423 738 Z M270 -9 C502 -9 616 260 616 425 C616 551 564 689 389 689 C145 689 41 410 41 250 C41 122 96 -9 270 -9 L270 -9 Z M281 59 C195 59 131 126 131 258 C131 450 240 619 384 619 C480 619 526 542 526 432 C526 208 399 59 281 59 L281 59 Z " />
<glyph glyph-name="Oacute" unicode="&#xd3;" horiz-adv-x="638" d="M421 738 L629 880 L584 925 L399 768 L421 738 Z M270 -9 C502 -9 616 260 616 425 C616 551 564 689 389 689 C145 689 41 410 41 250 C41 122 96 -9 270 -9 L270 -9 Z M281 59 C195 59 131 126 131 258 C131 450 240 619 384 619 C480 619 526 542 526 432 C526 208 399 59 281 59 L281 59 Z " />
<glyph glyph-name="Ocircumflex" unicode="&#xd4;" horiz-adv-x="638" d="M308 738 L417 807 L497 738 L559 748 L431 882 L245 748 L308 738 Z M270 -9 C502 -9 616 260 616 425 C616 551 564 689 389 689 C145 689 41 410 41 250 C41 122 96 -9 270 -9 L270 -9 Z M281 59 C195 59 131 126 131 258 C131 450 240 619 384 619 C480 619 526 542 526 432 C526 208 399 59 281 59 L281 59 Z " />
<glyph glyph-name="Otilde" unicode="&#xd5;" horiz-adv-x="638" d="M489 739 C521 739 562 760 584 803 L544 824 C533 808 520 801 501 801 C448 801 418 840 359 840 C327 840 286 819 265 776 L304 755 C315 770 328 777 347 777 C400 777 430 739 489 739 L489 739 Z M270 -9 C502 -9 616 260 616 425 C616 551 564 689 389 689 C145 689 41 410 41 250 C41 122 96 -9 270 -9 L270 -9 Z M281 59 C195 59 131 126 131 258 C131 450 240 619 384 619 C480 619 526 542 526 432 C526 208 399 59 281 59 L281 59 Z " />
<glyph glyph-name="Odieresis" unicode="&#xd6;" horiz-adv-x="638" d="M484 742 C516 742 547 768 547 802 C547 826 526 843 502 843 C472 843 442 816 442 785 C442 761 459 742 484 742 L484 742 Z M331 742 C363 742 394 768 394 802 C394 826 373 843 349 843 C319 843 289 816 289 785 C289 761 306 742 331 742 L331 742 Z M270 -9 C502 -9 616 260 616 425 C616 551 564 689 389 689 C145 689 41 410 41 250 C41 122 96 -9 270 -9 L270 -9 Z M281 59 C195 59 131 126 131 258 C131 450 240 619 384 619 C480 619 526 542 526 432 C526 208 399 59 281 59 L281 59 Z " />
<glyph glyph-name="multiply" unicode="&#xd7;" horiz-adv-x="600" d="M102 82 L289 240 L418 82 L473 128 L342 285 L528 444 L490 490 L304 332 L174 490 L120 444 L251 287 L65 128 L102 82 Z " />
<glyph glyph-name="Oslash" unicode="&#xd8;" horiz-adv-x="638" d="M-33 -36 L33 -36 L108 51 C144 14 196 -9 270 -9 C485 -9 616 237 616 431 C616 487 604 546 576 592 L688 720 L621 720 L544 632 C510 667 459 689 389 689 C156 689 42 426 42 250 C42 194 52 138 77 92 L-33 -36 Z M143 168 C135 193 131 222 131 255 C131 460 248 619 384 619 C431 619 466 600 489 568 L143 168 Z M281 59 C234 59 194 79 166 118 L514 519 C522 494 526 464 526 432 C526 206 399 59 281 59 L281 59 Z " />
<glyph glyph-name="Ugrave" unicode="&#xd9;" horiz-adv-x="629" d="M413 738 L445 768 L316 925 L255 880 L413 738 Z M264 -9 C402 -9 510 64 540 233 L619 679 L548 679 L469 233 C447 106 376 67 285 67 C208 67 152 92 152 176 C152 192 153 209 157 229 L237 679 L150 679 L71 233 C67 209 64 182 64 160 C64 40 143 -9 264 -9 L264 -9 Z " />
<glyph glyph-name="Uacute" unicode="&#xda;" horiz-adv-x="629" d="M391 738 L599 880 L554 925 L369 768 L391 738 Z M264 -9 C402 -9 510 64 540 233 L619 679 L548 679 L469 233 C447 106 376 67 285 67 C208 67 152 92 152 176 C152 192 153 209 157 229 L237 679 L150 679 L71 233 C67 209 64 182 64 160 C64 40 143 -9 264 -9 L264 -9 Z " />
<glyph glyph-name="Ucircumflex" unicode="&#xdb;" horiz-adv-x="629" d="M310 738 L419 807 L499 738 L561 748 L433 882 L247 748 L310 738 Z M264 -9 C402 -9 510 64 540 233 L619 679 L548 679 L469 233 C447 106 376 67 285 67 C208 67 152 92 152 176 C152 192 153 209 157 229 L237 679 L150 679 L71 233 C67 209 64 182 64 160 C64 40 143 -9 264 -9 L264 -9 Z " />
<glyph glyph-name="Udieresis" unicode="&#xdc;" horiz-adv-x="629" d="M482 742 C514 742 545 768 545 802 C545 826 524 843 500 843 C470 843 440 816 440 785 C440 761 457 742 482 742 L482 742 Z M329 742 C361 742 392 768 392 802 C392 826 371 843 347 843 C317 843 287 816 287 785 C287 761 304 742 329 742 L329 742 Z M264 -9 C402 -9 510 64 540 233 L619 679 L548 679 L469 233 C447 106 376 67 285 67 C208 67 152 92 152 176 C152 192 153 209 157 229 L237 679 L150 679 L71 233 C67 209 64 182 64 160 C64 40 143 -9 264 -9 L264 -9 Z " />
<glyph glyph-name="Yacute" unicode="&#xdd;" horiz-adv-x="541" d="M347 738 L555 880 L510 925 L325 768 L347 738 Z M178 0 L264 0 L315 287 L610 679 L532 679 L296 360 L294 360 L171 679 L71 679 L228 286 L178 0 Z " />
<glyph glyph-name="Thorn" unicode="&#xde;" horiz-adv-x="560" d="M30 0 L116 0 L148 180 L307 180 C435 180 562 264 562 422 C562 526 487 583 378 583 L219 583 L236 679 L150 679 L30 0 Z M160 249 L206 511 L362 511 C428 511 474 477 474 409 C474 303 392 249 311 249 L160 249 Z " />
<glyph glyph-name="germandbls" unicode="&#xdf;" horiz-adv-x="604" d="M10 -50 L88 -50 L178 459 C200 584 276 629 354 629 C398 629 441 603 441 566 C441 490 331 456 256 456 C225 456 197 399 197 350 C197 274 247 241 350 223 C457 205 486 187 486 154 C486 108 446 55 348 55 C259 55 215 97 214 149 L135 133 C138 72 179 -9 331 -9 C508 -9 569 97 569 177 C569 243 512 285 409 297 C310 309 277 326 277 365 C277 400 303 404 383 422 C438 434 528 481 528 567 C528 652 432 689 368 689 C270 689 136 639 99 453 L95 433 L39 433 L29 372 L85 372 L10 -50 Z " />
<glyph glyph-name="agrave" unicode="&#xe0;" horiz-adv-x="537" d="M371 542 L403 572 L274 729 L213 684 L371 542 Z M174 -9 C283 -9 338 50 364 93 L366 93 L359 0 L438 0 C438 0 434 42 443 91 L485 329 C488 347 490 367 490 383 C490 487 421 516 324 516 C193 516 110 463 82 379 L151 367 C180 436 237 456 303 456 C360 456 414 445 414 375 C414 364 413 351 410 338 L405 312 L315 312 C133 312 23 234 23 117 C23 43 76 -9 174 -9 L174 -9 Z M203 51 C143 51 107 76 107 122 C107 220 213 254 331 254 L395 254 L389 224 C372 137 300 51 203 51 L203 51 Z " />
<glyph glyph-name="aacute" unicode="&#xe1;" horiz-adv-x="537" d="M293 542 L501 684 L456 729 L271 572 L293 542 Z M174 -9 C283 -9 338 50 364 93 L366 93 L359 0 L438 0 C438 0 434 42 443 91 L485 329 C488 347 490 367 490 383 C490 487 421 516 324 516 C193 516 110 463 82 379 L151 367 C180 436 237 456 303 456 C360 456 414 445 414 375 C414 364 413 351 410 338 L405 312 L315 312 C133 312 23 234 23 117 C23 43 76 -9 174 -9 L174 -9 Z M203 51 C143 51 107 76 107 122 C107 220 213 254 331 254 L395 254 L389 224 C372 137 300 51 203 51 L203 51 Z " />
<glyph glyph-name="acircumflex" unicode="&#xe2;" horiz-adv-x="537" d="M240 578 L349 647 L429 578 L491 588 L362 722 L177 588 L240 578 Z M174 -9 C283 -9 338 50 364 93 L366 93 L359 0 L438 0 C438 0 434 42 443 91 L485 329 C488 347 490 367 490 383 C490 487 421 516 324 516 C193 516 110 463 82 379 L151 367 C180 436 237 456 303 456 C360 456 414 445 414 375 C414 364 413 351 410 338 L405 312 L315 312 C133 312 23 234 23 117 C23 43 76 -9 174 -9 L174 -9 Z M203 51 C143 51 107 76 107 122 C107 220 213 254 331 254 L395 254 L389 224 C372 137 300 51 203 51 L203 51 Z " />
<glyph glyph-name="atilde" unicode="&#xe3;" horiz-adv-x="537" d="M409 603 C441 603 482 624 504 667 L464 688 C453 672 440 665 421 665 C368 665 338 704 279 704 C247 704 206 683 185 640 L224 619 C235 634 248 641 267 641 C320 641 350 603 409 603 L409 603 Z M174 -9 C283 -9 338 50 364 93 L366 93 L359 0 L438 0 C438 0 434 42 443 91 L485 329 C488 347 490 367 490 383 C490 487 421 516 324 516 C193 516 110 463 82 379 L151 367 C180 436 237 456 303 456 C360 456 414 445 414 375 C414 364 413 351 410 338 L405 312 L315 312 C133 312 23 234 23 117 C23 43 76 -9 174 -9 L174 -9 Z M203 51 C143 51 107 76 107 122 C107 220 213 254 331 254 L395 254 L389 224 C372 137 300 51 203 51 L203 51 Z " />
<glyph glyph-name="adieresis" unicode="&#xe4;" horiz-adv-x="537" d="M401 588 C433 588 464 614 464 648 C464 672 443 689 419 689 C389 689 359 662 359 631 C359 607 376 588 401 588 L401 588 Z M248 588 C280 588 311 614 311 648 C311 672 290 689 266 689 C236 689 206 662 206 631 C206 607 223 588 248 588 L248 588 Z M174 -9 C283 -9 338 50 364 93 L366 93 L359 0 L438 0 C438 0 434 42 443 91 L485 329 C488 347 490 367 490 383 C490 487 421 516 324 516 C193 516 110 463 82 379 L151 367 C180 436 237 456 303 456 C360 456 414 445 414 375 C414 364 413 351 410 338 L405 312 L315 312 C133 312 23 234 23 117 C23 43 76 -9 174 -9 L174 -9 Z M203 51 C143 51 107 76 107 122 C107 220 213 254 331 254 L395 254 L389 224 C372 137 300 51 203 51 L203 51 Z " />
<glyph glyph-name="aring" unicode="&#xe5;" horiz-adv-x="537" d="M331 560 C387 560 441 606 441 664 C441 707 409 738 363 738 C307 738 253 689 253 634 C253 591 285 560 331 560 L331 560 Z M174 -9 C283 -9 338 50 364 93 L366 93 L359 0 L438 0 C438 0 434 42 443 91 L485 329 C488 347 490 367 490 383 C490 487 421 516 324 516 C193 516 110 463 82 379 L151 367 C180 436 237 456 303 456 C360 456 414 445 414 375 C414 364 413 351 410 338 L405 312 L315 312 C133 312 23 234 23 117 C23 43 76 -9 174 -9 L174 -9 Z M335 588 C306 588 285 609 285 638 C285 670 314 708 356 708 C388 708 408 685 408 659 C408 621 371 588 335 588 L335 588 Z M203 51 C143 51 107 76 107 122 C107 220 213 254 331 254 L395 254 L389 224 C372 137 300 51 203 51 L203 51 Z " />
<glyph glyph-name="ae" unicode="&#xe6;" horiz-adv-x="891" d="M174 -9 C278 -9 357 54 402 133 L404 133 C418 51 468 -9 569 -9 C682 -9 770 43 820 138 L747 153 C710 75 635 55 597 55 C530 55 476 93 476 187 C476 205 477 224 481 246 L845 246 L848 260 C853 284 856 309 856 331 C856 438 799 516 672 516 C595 516 529 480 480 420 L478 420 C466 494 408 516 324 516 C193 516 110 463 82 379 L151 367 C180 436 237 456 303 456 C359 456 414 440 414 376 C414 365 412 349 410 338 L403 303 L313 303 C131 303 23 227 23 113 C23 40 76 -9 174 -9 L174 -9 Z M495 303 C522 412 600 456 660 456 C727 456 773 419 773 338 C773 327 772 314 770 303 L495 303 Z M203 51 C144 51 106 72 106 116 C106 209 209 246 329 246 L393 246 L389 224 C372 131 300 51 203 51 L203 51 Z " />
<glyph glyph-name="ccedilla" unicode="&#xe7;" horiz-adv-x="486" d="M183 -172 C232 -172 292 -145 292 -87 C292 -50 246 -35 203 -35 L215 -9 C315 -4 390 61 430 167 L357 180 C327 94 273 57 219 57 C151 57 113 99 113 184 C113 344 192 451 289 451 C351 451 382 408 383 329 L459 342 C457 438 416 516 296 516 C151 516 29 374 29 187 C29 86 71 1 183 -8 L152 -66 C152 -66 171 -64 184 -64 C208 -64 241 -68 241 -95 C241 -121 211 -138 184 -138 C154 -138 132 -130 115 -120 L95 -148 C119 -165 150 -172 183 -172 L183 -172 Z " />
<glyph glyph-name="egrave" unicode="&#xe8;" horiz-adv-x="532" d="M351 542 L383 572 L254 729 L193 684 L351 542 Z M209 -9 C322 -9 410 43 460 138 L387 153 C350 75 275 55 237 55 C169 55 116 93 116 189 C116 206 117 225 121 246 L485 246 L488 260 C493 284 496 308 496 331 C496 438 437 516 312 516 C161 516 29 376 29 194 C29 82 84 -9 209 -9 L209 -9 Z M135 303 C162 412 240 456 300 456 C363 456 410 414 410 333 C410 324 409 314 408 303 L135 303 Z " />
<glyph glyph-name="eacute" unicode="&#xe9;" horiz-adv-x="532" d="M303 542 L511 684 L466 729 L281 572 L303 542 Z M209 -9 C322 -9 410 43 460 138 L387 153 C350 75 275 55 237 55 C169 55 116 93 116 189 C116 206 117 225 121 246 L485 246 L488 260 C493 284 496 308 496 331 C496 438 437 516 312 516 C161 516 29 376 29 194 C29 82 84 -9 209 -9 L209 -9 Z M135 303 C162 412 240 456 300 456 C363 456 410 414 410 333 C410 324 409 314 408 303 L135 303 Z " />
<glyph glyph-name="ecircumflex" unicode="&#xea;" horiz-adv-x="532" d="M236 578 L345 647 L425 578 L487 588 L358 722 L173 588 L236 578 Z M209 -9 C322 -9 410 43 460 138 L387 153 C350 75 275 55 237 55 C169 55 116 93 116 189 C116 206 117 225 121 246 L485 246 L488 260 C493 284 496 308 496 331 C496 438 437 516 312 516 C161 516 29 376 29 194 C29 82 84 -9 209 -9 L209 -9 Z M135 303 C162 412 240 456 300 456 C363 456 410 414 410 333 C410 324 409 314 408 303 L135 303 Z " />
<glyph glyph-name="edieresis" unicode="&#xeb;" horiz-adv-x="532" d="M401 588 C433 588 464 614 464 648 C464 672 443 689 419 689 C389 689 359 662 359 631 C359 607 376 588 401 588 L401 588 Z M248 588 C280 588 311 614 311 648 C311 672 290 689 266 689 C236 689 206 662 206 631 C206 607 223 588 248 588 L248 588 Z M209 -9 C322 -9 410 43 460 138 L387 153 C350 75 275 55 237 55 C169 55 116 93 116 189 C116 206 117 225 121 246 L485 246 L488 260 C493 284 496 308 496 331 C496 438 437 516 312 516 C161 516 29 376 29 194 C29 82 84 -9 209 -9 L209 -9 Z M135 303 C162 412 240 456 300 456 C363 456 410 414 410 333 C410 324 409 314 408 303 L135 303 Z " />
<glyph glyph-name="igrave" unicode="&#xec;" horiz-adv-x="246" d="M201 542 L233 572 L104 729 L43 684 L201 542 Z M34 0 L112 0 L201 503 L123 503 L34 0 Z " />
<glyph glyph-name="iacute" unicode="&#xed;" horiz-adv-x="246" d="M183 542 L391 684 L346 729 L161 572 L183 542 Z M34 0 L112 0 L201 503 L123 503 L34 0 Z " />
<glyph glyph-name="icircumflex" unicode="&#xee;" horiz-adv-x="246" d="M86 578 L195 647 L275 578 L337 588 L208 722 L23 588 L86 578 Z M34 0 L112 0 L201 503 L123 503 L34 0 Z " />
<glyph glyph-name="idieresis" unicode="&#xef;" horiz-adv-x="246" d="M251 588 C283 588 314 614 314 648 C314 672 293 689 269 689 C239 689 209 662 209 631 C209 607 226 588 251 588 L251 588 Z M98 588 C130 588 161 614 161 648 C161 672 140 689 116 689 C86 689 56 662 56 631 C56 607 73 588 98 588 L98 588 Z M34 0 L112 0 L201 503 L123 503 L34 0 Z " />
<glyph glyph-name="eth" unicode="&#xf0;" horiz-adv-x="531" d="M209 -9 C364 -9 493 135 493 334 C493 450 448 551 392 622 L462 682 L426 726 L353 664 C320 697 285 719 254 729 L202 672 C233 664 269 646 302 621 L245 572 L281 528 L345 583 C373 553 395 519 403 484 L401 484 C385 503 348 516 312 516 C160 516 29 377 29 189 C29 81 81 -9 209 -9 L209 -9 Z M225 55 C156 55 115 101 115 189 C115 361 217 453 295 453 C362 453 404 407 404 319 C404 142 302 55 225 55 L225 55 Z " />
<glyph glyph-name="ntilde" unicode="&#xf1;" horiz-adv-x="538" d="M411 603 C443 603 484 624 506 667 L466 688 C455 672 442 665 423 665 C370 665 340 704 281 704 C249 704 208 683 187 640 L226 619 C237 634 250 641 269 641 C322 641 352 603 411 603 L411 603 Z M20 0 L98 0 L147 279 C161 359 222 450 322 450 C364 450 402 422 402 364 C402 354 401 342 399 332 L340 0 L418 0 L475 326 C478 342 479 358 479 372 C479 472 417 516 346 516 C257 516 192 453 166 409 L164 409 L181 503 L109 503 L20 0 Z " />
<glyph glyph-name="ograve" unicode="&#xf2;" horiz-adv-x="531" d="M351 542 L383 572 L254 729 L193 684 L351 542 Z M209 -9 C358 -9 491 129 491 314 C491 417 442 516 312 516 C161 516 29 382 29 190 C29 82 80 -9 209 -9 L209 -9 Z M225 55 C156 55 115 100 115 188 C115 352 202 453 295 453 C362 453 404 406 404 319 C404 133 302 55 225 55 L225 55 Z " />
<glyph glyph-name="oacute" unicode="&#xf3;" horiz-adv-x="531" d="M293 542 L501 684 L456 729 L271 572 L293 542 Z M209 -9 C358 -9 491 129 491 314 C491 417 442 516 312 516 C161 516 29 382 29 190 C29 82 80 -9 209 -9 L209 -9 Z M225 55 C156 55 115 100 115 188 C115 352 202 453 295 453 C362 453 404 406 404 319 C404 133 302 55 225 55 L225 55 Z " />
<glyph glyph-name="ocircumflex" unicode="&#xf4;" horiz-adv-x="531" d="M226 578 L335 647 L415 578 L477 588 L348 722 L163 588 L226 578 Z M209 -9 C358 -9 491 129 491 314 C491 417 442 516 312 516 C161 516 29 382 29 190 C29 82 80 -9 209 -9 L209 -9 Z M225 55 C156 55 115 100 115 188 C115 352 202 453 295 453 C362 453 404 406 404 319 C404 133 302 55 225 55 L225 55 Z " />
<glyph glyph-name="otilde" unicode="&#xf5;" horiz-adv-x="531" d="M409 603 C441 603 482 624 504 667 L464 688 C453 672 440 665 421 665 C368 665 338 704 279 704 C247 704 206 683 185 640 L224 619 C235 634 248 641 267 641 C320 641 350 603 409 603 L409 603 Z M209 -9 C358 -9 491 129 491 314 C491 417 442 516 312 516 C161 516 29 382 29 190 C29 82 80 -9 209 -9 L209 -9 Z M225 55 C156 55 115 100 115 188 C115 352 202 453 295 453 C362 453 404 406 404 319 C404 133 302 55 225 55 L225 55 Z " />
<glyph glyph-name="odieresis" unicode="&#xf6;" horiz-adv-x="531" d="M401 588 C433 588 464 614 464 648 C464 672 443 689 419 689 C389 689 359 662 359 631 C359 607 376 588 401 588 L401 588 Z M248 588 C280 588 311 614 311 648 C311 672 290 689 266 689 C236 689 206 662 206 631 C206 607 223 588 248 588 L248 588 Z M209 -9 C358 -9 491 129 491 314 C491 417 442 516 312 516 C161 516 29 382 29 190 C29 82 80 -9 209 -9 L209 -9 Z M225 55 C156 55 115 100 115 188 C115 352 202 453 295 453 C362 453 404 406 404 319 C404 133 302 55 225 55 L225 55 Z " />
<glyph glyph-name="divide" unicode="&#xf7;" horiz-adv-x="600" d="M276 429 L374 429 L391 528 L293 528 L276 429 Z M35 254 L547 254 L558 318 L46 318 L35 254 Z M208 46 L306 46 L324 145 L226 145 L208 46 Z " />
<glyph glyph-name="oslash" unicode="&#xf8;" horiz-adv-x="531" d="M-63 -53 L3 -53 L85 35 C113 7 154 -9 209 -9 C358 -9 491 127 491 316 C491 360 482 403 461 437 L582 567 L515 567 L430 475 C401 501 363 516 312 516 C161 516 29 374 29 193 C29 149 37 107 55 73 L-63 -53 Z M120 143 C117 158 116 174 116 191 C116 364 217 453 295 453 C329 453 357 441 376 417 L120 143 Z M225 55 C188 55 159 68 141 94 L398 370 C402 356 404 340 404 323 C404 135 302 55 225 55 L225 55 Z " />
<glyph glyph-name="ugrave" unicode="&#xf9;" horiz-adv-x="536" d="M351 542 L383 572 L254 729 L193 684 L351 542 Z M181 -9 C270 -9 334 54 359 98 L361 98 L344 0 L416 0 L505 503 L427 503 L378 228 C364 148 305 57 205 57 C162 57 126 83 126 144 C126 153 127 165 129 175 L187 503 L109 503 L52 181 C49 166 47 145 47 129 C47 34 108 -9 181 -9 L181 -9 Z " />
<glyph glyph-name="uacute" unicode="&#xfa;" horiz-adv-x="536" d="M303 542 L511 684 L466 729 L281 572 L303 542 Z M181 -9 C270 -9 334 54 359 98 L361 98 L344 0 L416 0 L505 503 L427 503 L378 228 C364 148 305 57 205 57 C162 57 126 83 126 144 C126 153 127 165 129 175 L187 503 L109 503 L52 181 C49 166 47 145 47 129 C47 34 108 -9 181 -9 L181 -9 Z " />
<glyph glyph-name="ucircumflex" unicode="&#xfb;" horiz-adv-x="536" d="M231 578 L340 647 L420 578 L482 588 L353 722 L168 588 L231 578 Z M181 -9 C270 -9 334 54 359 98 L361 98 L344 0 L416 0 L505 503 L427 503 L378 228 C364 148 305 57 205 57 C162 57 126 83 126 144 C126 153 127 165 129 175 L187 503 L109 503 L52 181 C49 166 47 145 47 129 C47 34 108 -9 181 -9 L181 -9 Z " />
<glyph glyph-name="udieresis" unicode="&#xfc;" horiz-adv-x="536" d="M401 588 C433 588 464 614 464 648 C464 672 443 689 419 689 C389 689 359 662 359 631 C359 607 376 588 401 588 L401 588 Z M248 588 C280 588 311 614 311 648 C311 672 290 689 266 689 C236 689 206 662 206 631 C206 607 223 588 248 588 L248 588 Z M181 -9 C270 -9 334 54 359 98 L361 98 L344 0 L416 0 L505 503 L427 503 L378 228 C364 148 305 57 205 57 C162 57 126 83 126 144 C126 153 127 165 129 175 L187 503 L109 503 L52 181 C49 166 47 145 47 129 C47 34 108 -9 181 -9 L181 -9 Z " />
<glyph glyph-name="yacute" unicode="&#xfd;" horiz-adv-x="433" d="M253 542 L461 684 L416 729 L231 572 L253 542 Z M3 -179 C55 -179 120 -146 156 -78 L466 503 L397 503 L195 112 L193 112 L133 503 L49 503 L135 7 L103 -53 C87 -82 58 -113 1 -113 C-30 -113 -50 -106 -50 -106 L-61 -171 C-61 -171 -47 -179 3 -179 L3 -179 Z " />
<glyph glyph-name="thorn" unicode="&#xfe;" horiz-adv-x="535" d="M-10 -172 L68 -172 L112 77 L114 77 C126 34 171 -9 235 -9 C383 -9 498 130 498 324 C498 425 461 516 335 516 C257 516 193 459 166 409 L164 409 L212 679 L140 679 L-10 -172 Z M244 55 C177 55 117 108 135 210 L150 294 C169 402 254 450 312 450 C373 450 411 407 411 317 C411 127 314 55 244 55 L244 55 Z " />
<glyph glyph-name="ydieresis" unicode="&#xff;" horiz-adv-x="433" d="M356 588 C388 588 419 614 419 648 C419 672 398 689 374 689 C344 689 314 662 314 631 C314 607 331 588 356 588 L356 588 Z M203 588 C235 588 266 614 266 648 C266 672 245 689 221 689 C191 689 161 662 161 631 C161 607 178 588 203 588 L203 588 Z M3 -179 C55 -179 120 -146 156 -78 L466 503 L397 503 L195 112 L193 112 L133 503 L49 503 L135 7 L103 -53 C87 -82 58 -113 1 -113 C-30 -113 -50 -106 -50 -106 L-61 -171 C-61 -171 -47 -179 3 -179 L3 -179 Z " />
<glyph glyph-name="dotlessi" unicode="&#x131;" horiz-adv-x="246" d="M34 0 L112 0 L201 503 L123 503 L34 0 Z " />
<glyph glyph-name="Lslash" unicode="&#x141;" horiz-adv-x="498" d="M30 0 L432 0 L445 75 L129 75 L169 302 L292 406 L255 450 L185 390 L236 679 L150 679 L84 304 L-33 205 L3 161 L68 216 L30 0 Z " />
<glyph glyph-name="lslash" unicode="&#x142;" horiz-adv-x="242" d="M34 0 L112 0 L170 331 L299 440 L262 484 L186 419 L232 679 L154 679 L94 341 L-31 235 L6 191 L79 253 L34 0 Z " />
<glyph glyph-name="OE" unicode="&#x152;" horiz-adv-x="905" d="M288 0 L808 0 L821 73 L484 73 L527 320 L781 320 L794 389 L540 389 L578 605 L902 605 L915 679 L418 679 C193 679 43 471 43 262 C43 136 110 0 288 0 L288 0 Z M308 72 C206 72 131 133 131 262 C131 485 261 608 418 608 L492 608 L398 72 L308 72 Z " />
<glyph glyph-name="oe" unicode="&#x153;" horiz-adv-x="899" d="M209 -9 C292 -9 363 31 413 101 L415 101 C436 36 486 -9 573 -9 C686 -9 774 43 824 138 L751 153 C714 75 639 55 601 55 C533 55 480 92 480 191 C480 208 482 226 485 246 L849 246 L852 260 C857 283 860 309 860 331 C860 438 803 516 676 516 C592 516 522 475 471 405 L469 405 C450 468 401 516 312 516 C160 516 29 378 29 188 C29 80 81 -9 209 -9 L209 -9 Z M499 303 C526 412 604 456 664 456 C731 456 777 419 777 337 C777 326 776 315 774 303 L499 303 Z M225 55 C156 55 115 100 115 187 C115 363 217 453 295 453 C362 453 404 407 404 318 C404 131 302 55 225 55 L225 55 Z " />
<glyph glyph-name="Scaron" unicode="&#x160;" horiz-adv-x="581" d="M378 735 L553 869 L495 879 L391 810 L306 879 L239 869 L378 735 Z M249 -9 C431 -9 542 101 542 229 C542 317 474 370 337 393 C217 413 182 446 182 494 C182 567 263 622 347 622 C441 622 490 562 495 502 L574 522 C571 612 495 689 364 689 C199 689 96 582 96 471 C96 389 155 335 277 313 C389 292 450 267 450 208 C450 116 361 62 262 62 C138 62 89 148 88 200 L9 184 C12 123 51 -9 249 -9 L249 -9 Z " />
<glyph glyph-name="scaron" unicode="&#x161;" horiz-adv-x="473" d="M292 571 L467 705 L409 715 L305 646 L220 715 L153 705 L292 571 Z M191 -9 C365 -9 429 96 429 173 C429 246 374 285 269 297 C170 309 137 326 137 365 C137 412 175 454 260 454 C346 454 369 409 374 376 L448 390 C444 469 377 516 274 516 C160 516 54 453 54 341 C54 274 107 241 210 223 C318 205 346 187 346 153 C346 109 306 55 208 55 C119 55 75 97 74 149 L-5 133 C-2 72 39 -9 191 -9 L191 -9 Z " />
<glyph glyph-name="Ydieresis" unicode="&#x178;" horiz-adv-x="541" d="M438 742 C470 742 501 768 501 802 C501 826 480 843 456 843 C426 843 396 816 396 785 C396 761 413 742 438 742 L438 742 Z M285 742 C317 742 348 768 348 802 C348 826 327 843 303 843 C273 843 243 816 243 785 C243 761 260 742 285 742 L285 742 Z M178 0 L264 0 L315 287 L610 679 L532 679 L296 360 L294 360 L171 679 L71 679 L228 286 L178 0 Z " />
<glyph glyph-name="Zcaron" unicode="&#x17d;" horiz-adv-x="559" d="M368 735 L543 869 L485 879 L381 810 L296 879 L229 869 L368 735 Z M-11 0 L470 0 L483 73 L100 73 L100 76 L567 622 L577 679 L128 679 L115 608 L462 608 L462 606 L2 73 L-11 0 Z " />
<glyph glyph-name="zcaron" unicode="&#x17e;" horiz-adv-x="412" d="M272 571 L447 705 L389 715 L285 646 L200 715 L133 705 L272 571 Z M-32 0 L342 0 L353 61 L75 61 L75 63 L423 461 L431 503 L82 503 L71 442 L315 442 L315 440 L-21 61 L-32 0 Z " />
<glyph glyph-name="florin" unicode="&#x192;" horiz-adv-x="600" d="M-24 -178 C56 -178 141 -140 198 -12 L337 300 L509 300 L520 361 L364 361 L438 529 C471 603 505 626 557 626 C588 626 620 617 620 617 L648 680 C648 680 621 689 574 689 C494 689 412 651 355 523 L283 361 L128 361 L117 300 L256 300 L115 -16 C82 -89 45 -113 -7 -113 C-38 -113 -63 -104 -63 -104 L-93 -169 C-93 -169 -71 -178 -24 -178 L-24 -178 Z " />
<glyph glyph-name="circumflex" unicode="&#x2c6;" horiz-adv-x="531" d="M226 578 L335 647 L415 578 L477 588 L348 722 L163 588 L226 578 Z " />
<glyph glyph-name="caron" unicode="&#x2c7;" horiz-adv-x="531" d="M322 571 L497 705 L439 715 L335 646 L250 715 L183 705 L322 571 Z " />
<glyph glyph-name="breve" unicode="&#x2d8;" horiz-adv-x="456" d="M292 589 C368 589 436 624 469 707 L415 707 C385 660 348 648 301 648 C257 648 214 659 207 707 L147 707 C154 618 209 589 292 589 L292 589 Z " />
<glyph glyph-name="dotaccent" unicode="&#x2d9;" horiz-adv-x="246" d="M133 591 L221 591 L237 679 L149 679 L133 591 Z " />
<glyph glyph-name="ring" unicode="&#x2da;" horiz-adv-x="537" d="M331 560 C387 560 441 606 441 664 C441 707 409 738 363 738 C307 738 253 689 253 634 C253 591 285 560 331 560 L331 560 Z M335 588 C306 588 285 609 285 638 C285 670 314 708 356 708 C388 708 408 685 408 659 C408 621 371 588 335 588 L335 588 Z " />
<glyph glyph-name="ogonek" unicode="&#x2db;" horiz-adv-x="410" d="M143 -135 C177 -135 212 -118 233 -103 L219 -78 C205 -87 186 -94 162 -94 C142 -94 122 -85 122 -65 C122 -35 141 -16 172 -3 L173 0 L134 -5 C98 -18 63 -50 63 -80 C63 -119 107 -135 143 -135 L143 -135 Z " />
<glyph glyph-name="tilde" unicode="&#x2dc;" horiz-adv-x="531" d="M409 603 C441 603 482 624 504 667 L464 688 C453 672 440 665 421 665 C368 665 338 704 279 704 C247 704 206 683 185 640 L224 619 C235 634 248 641 267 641 C320 641 350 603 409 603 L409 603 Z " />
<glyph glyph-name="hungarumlaut" unicode="&#x2dd;" horiz-adv-x="571" d="M349 542 L557 684 L512 729 L327 572 L349 542 Z M201 542 L409 684 L364 729 L179 572 L201 542 Z " />
<glyph glyph-name="endash" unicode="&#x2013;" horiz-adv-x="485" d="M-10 227 L475 227 L485 286 L0 286 L-10 227 Z " />
<glyph glyph-name="emdash" unicode="&#x2014;" horiz-adv-x="980" d="M-10 227 L970 227 L980 286 L0 286 L-10 227 Z " />
<glyph glyph-name="quoteleft" unicode="&#x2018;" horiz-adv-x="302" d="M114 457 L218 457 L236 562 L184 562 L257 679 L221 679 L132 562 L114 457 Z " />
<glyph glyph-name="quoteright" unicode="&#x2019;" horiz-adv-x="302" d="M130 457 L166 457 L254 574 L273 679 L169 679 L150 574 L202 574 L130 457 Z " />
<glyph glyph-name="quotesinglbase" unicode="&#x201a;" horiz-adv-x="302" d="M28 -117 L64 -117 L153 0 L172 105 L68 105 L49 0 L101 0 L28 -117 Z " />
<glyph glyph-name="quotedblleft" unicode="&#x201c;" horiz-adv-x="449" d="M275 457 L379 457 L397 562 L345 562 L418 679 L382 679 L293 562 L275 457 Z M121 457 L225 457 L243 562 L191 562 L264 679 L228 679 L139 562 L121 457 Z " />
<glyph glyph-name="quotedblright" unicode="&#x201d;" horiz-adv-x="449" d="M284 457 L320 457 L408 574 L427 679 L323 679 L304 574 L356 574 L284 457 Z M130 457 L166 457 L254 574 L273 679 L169 679 L150 574 L202 574 L130 457 Z " />
<glyph glyph-name="quotedblbase" unicode="&#x201e;" horiz-adv-x="449" d="M182 -117 L218 -117 L307 0 L326 105 L222 105 L203 0 L255 0 L182 -117 Z M28 -117 L64 -117 L153 0 L172 105 L68 105 L49 0 L101 0 L28 -117 Z " />
<glyph glyph-name="dagger" unicode="&#x2020;" horiz-adv-x="535" d="M172 -169 L205 -169 L213 -122 C247 77 309 317 343 393 L312 437 L312 439 L516 414 L511 460 L532 503 L317 467 L394 680 L335 664 L280 680 L284 467 L82 503 L86 460 L66 414 L279 439 L279 437 L229 393 C238 339 209 76 179 -123 L172 -169 Z " />
<glyph glyph-name="daggerdbl" unicode="&#x2021;" horiz-adv-x="535" d="M172 -169 L205 -169 L213 -122 C239 32 288 198 322 274 L291 318 L291 320 L495 295 L490 341 L511 384 L305 349 L348 420 L317 464 L317 466 L521 441 L516 487 L536 530 L322 494 L394 680 L335 664 L280 680 L289 494 L86 530 L91 487 L71 441 L284 466 L284 464 L234 420 L254 350 L61 384 L65 341 L45 295 L258 320 L258 318 L208 274 C217 220 202 31 179 -123 L172 -169 Z " />
<glyph glyph-name="bullet" unicode="&#x2022;" horiz-adv-x="411" d="M182 151 C289 151 379 243 379 348 C379 424 322 479 239 479 C133 479 41 388 41 282 C41 204 98 151 182 151 L182 151 Z " />
<glyph glyph-name="ellipsis" unicode="&#x2026;" horiz-adv-x="875" d="M624 0 L735 0 L755 111 L644 111 L624 0 Z M332 0 L443 0 L463 111 L352 111 L332 0 Z M40 0 L151 0 L171 111 L60 111 L40 0 Z " />
<glyph glyph-name="perthousand" unicode="&#x2030;" horiz-adv-x="980" d="M173 335 C287 335 349 457 349 557 C349 628 315 689 233 689 C121 689 58 572 58 471 C58 400 91 335 173 335 L173 335 Z M31 0 L104 0 L634 679 L562 679 L31 0 Z M767 -10 C881 -10 943 112 943 212 C943 283 909 344 827 344 C715 344 652 227 652 126 C652 55 685 -10 767 -10 L767 -10 Z M450 -10 C564 -10 626 112 626 212 C626 283 592 344 510 344 C398 344 335 227 335 126 C335 55 368 -10 450 -10 L450 -10 Z M182 386 C131 386 118 427 118 468 C118 550 153 638 224 638 C274 638 289 600 289 556 C289 492 263 386 182 386 L182 386 Z M776 41 C725 41 712 82 712 123 C712 205 747 293 818 293 C868 293 883 255 883 211 C883 147 857 41 776 41 L776 41 Z M459 41 C408 41 395 82 395 123 C395 205 430 293 501 293 C551 293 566 255 566 211 C566 147 540 41 459 41 L459 41 Z " />
<glyph glyph-name="guilsinglleft" unicode="&#x2039;" horiz-adv-x="213" d="M96 106 L137 106 L115 256 L189 400 L147 400 L35 256 L96 106 Z " />
<glyph glyph-name="guilsinglright" unicode="&#x203a;" horiz-adv-x="213" d="M9 106 L50 106 L163 256 L103 400 L61 400 L83 256 L9 106 Z " />
<glyph glyph-name="fraction" unicode="&#x2044;" horiz-adv-x="140" d="M-224 0 L-152 0 L379 679 L307 679 L-224 0 Z " />
<glyph glyph-name="Euro" unicode="&#x20ac;" horiz-adv-x="600" d="M315 -9 C445 -9 541 100 581 211 L501 229 C476 141 408 56 322 56 C214 56 194 154 199 250 L345 250 L378 312 L206 312 C207 324 209 335 211 345 C213 354 214 363 216 372 L411 372 L444 434 L231 434 C258 527 310 624 414 624 C514 624 535 545 539 457 L619 471 C616 560 580 689 421 689 C272 689 187 564 146 434 L36 434 L25 372 L129 372 C126 361 124 350 122 339 C120 330 119 321 118 312 L14 312 L3 250 L113 250 C111 133 156 -9 315 -9 L315 -9 Z " />
<glyph glyph-name="trademark" unicode="&#x2122;" horiz-adv-x="825" d="M351 279 L399 279 L461 628 L463 628 L533 279 L577 279 L765 628 L767 628 L705 279 L767 279 L838 680 L748 680 L575 359 L573 359 L512 680 L422 680 L351 279 Z M122 279 L184 279 L246 631 L357 631 L366 680 L82 680 L73 631 L184 631 L122 279 Z " />
<glyph glyph-name="partialdiff" unicode="&#x2202;" horiz-adv-x="531" d="M209 -9 C364 -9 493 135 493 334 C493 540 352 698 254 729 L202 672 C278 652 383 572 403 484 L401 484 C385 503 348 516 312 516 C160 516 29 377 29 189 C29 81 81 -9 209 -9 L209 -9 Z M225 55 C156 55 115 101 115 189 C115 361 217 453 295 453 C362 453 404 407 404 319 C404 142 302 55 225 55 L225 55 Z " />
<glyph glyph-name="product" unicode="&#x220f;" horiz-adv-x="638" d="M404 -162 C450 -162 484 -149 484 -149 L495 -83 C495 -83 451 -90 406 -90 C376 -90 339 -78 339 -26 C339 -18 340 -10 341 0 C527 47 620 269 620 426 C620 552 566 689 391 689 C157 689 42 425 42 256 C41 127 96 -8 271 -9 C271 -16 269 -29 269 -35 C269 -113 306 -162 404 -162 L404 -162 Z M283 59 C197 59 132 126 132 258 C132 461 253 619 386 619 C483 619 530 541 530 429 C530 203 404 59 283 59 L283 59 Z " />
<glyph glyph-name="minus" unicode="&#x2212;" horiz-adv-x="600" d="M35 254 L547 254 L558 318 L46 318 L35 254 Z " />
<glyph glyph-name="integral" unicode="&#x222b;" horiz-adv-x="600" d="M-24 -178 C56 -178 141 -140 198 -12 L438 529 C471 603 505 626 557 626 C588 626 620 617 620 617 L648 680 C648 680 621 689 574 689 C494 689 412 651 355 523 L115 -16 C82 -89 45 -113 -7 -113 C-38 -113 -63 -104 -63 -104 L-93 -169 C-93 -169 -71 -178 -24 -178 L-24 -178 Z " />
<glyph glyph-name="fi" unicode="&#xfb01;" horiz-adv-x="522" d="M403 591 L491 591 L507 679 L419 679 L403 591 Z M50 0 L128 0 L206 442 L342 442 L353 503 L217 503 L221 529 C233 605 265 626 317 626 C348 626 382 617 382 617 L393 680 C393 680 364 689 317 689 C237 689 162 655 142 523 L139 503 L52 503 L41 442 L128 442 L50 0 Z M304 0 L382 0 L471 503 L393 503 L304 0 Z " />
<glyph glyph-name="fl" unicode="&#xfb02;" horiz-adv-x="514" d="M50 0 L128 0 L206 442 L332 442 L343 503 L217 503 L221 529 C233 605 265 626 317 626 C348 626 382 617 382 617 L393 680 C393 680 364 689 317 689 C237 689 162 655 142 523 L139 503 L52 503 L41 442 L128 442 L50 0 Z M302 0 L380 0 L500 679 L422 679 L302 0 Z " />
</font>
</svg>
