<?xml version="1.0" encoding="UTF-8"?>
<svg xmlns="http://www.w3.org/2000/svg" xmlns:xlink="http://www.w3.org/1999/xlink" version="1.2" >
<font id="TeeFranklin-BoldOblique">
<font-face  font-family="TeeFranklin" units-per-em="1000" ascent="750" descent="-250" font-style="italic" font-weight="700" font-stretch="normal" slope="-12" cap-height="700" x-height="500" underline-position="-90" underline-thickness="20" />
<missing-glyph  horiz-adv-x="500" d="" />
<glyph glyph-name="NULL" d="" />
<glyph glyph-name="CR" unicode="&#xd;" horiz-adv-x="250" d="" />
<glyph glyph-name="space" unicode="&#x20;" horiz-adv-x="290" d="" />
<glyph glyph-name="exclam" unicode="&#x21;" horiz-adv-x="285" d="M86 194 L163 194 L297 679 L128 679 L86 194 Z M21 0 L163 0 L188 138 L46 138 L21 0 Z " />
<glyph glyph-name="quotedbl" unicode="&#x22;" horiz-adv-x="480" d="M313 427 L416 427 L458 561 L478 679 L338 679 L317 561 L313 427 Z M116 427 L219 427 L261 561 L282 679 L141 679 L121 561 L116 427 Z " />
<glyph glyph-name="numbersign" unicode="&#x23;" horiz-adv-x="600" d="M30 0 L130 0 L197 183 L309 183 L243 0 L344 0 L409 183 L517 183 L533 273 L444 273 L489 404 L592 404 L607 494 L523 494 L589 679 L487 679 L421 494 L309 494 L375 679 L275 679 L209 494 L101 494 L85 404 L175 404 L130 273 L24 273 L8 183 L96 183 L30 0 Z M231 273 L277 404 L389 404 L343 273 L231 273 Z " />
<glyph glyph-name="dollar" unicode="&#x24;" horiz-adv-x="600" d="M201 -74 L273 -74 L291 24 C456 37 546 142 546 253 C546 334 486 387 358 408 L385 559 C429 548 454 514 458 476 L574 507 C569 579 515 649 402 661 L418 750 L346 750 L330 661 C190 648 97 552 97 444 C97 373 145 319 266 293 L237 129 C173 142 146 191 144 229 L23 206 C26 136 68 37 218 24 L201 -74 Z M289 424 C245 438 231 455 231 480 C231 521 267 553 313 561 L289 424 Z M309 128 L335 277 C382 264 406 248 406 218 C406 169 363 136 309 128 L309 128 Z " />
<glyph glyph-name="percent" unicode="&#x25;" horiz-adv-x="685" d="M170 335 C285 335 346 459 346 557 C346 628 312 689 230 689 C118 689 55 571 55 471 C55 400 88 335 170 335 L170 335 Z M36 0 L126 0 L658 679 L569 679 L36 0 Z M466 -10 C581 -10 642 114 642 213 C642 283 608 344 526 344 C414 344 351 226 351 126 C351 55 384 -10 466 -10 L466 -10 Z M182 401 C143 401 134 433 134 465 C134 540 161 623 219 623 C257 623 268 594 268 559 C268 500 247 401 182 401 L182 401 Z M478 56 C439 56 430 88 430 121 C430 195 457 278 515 278 C553 278 564 249 564 214 C564 155 542 56 478 56 L478 56 Z " />
<glyph glyph-name="ampersand" unicode="&#x26;" horiz-adv-x="696" d="M218 -9 C294 -9 359 10 422 50 C459 13 489 -5 546 -5 C576 -5 619 4 619 4 L636 106 C636 106 600 101 577 101 C548 101 533 109 517 125 C580 187 638 274 672 361 L562 383 C542 323 507 258 459 207 L373 364 C470 404 543 465 543 561 C543 646 470 689 380 689 C267 689 171 610 171 509 C171 468 188 431 209 392 C92 349 2 277 2 157 C2 64 72 -9 218 -9 L218 -9 Z M330 433 L325 441 C306 475 293 499 293 526 C293 565 326 601 371 601 C407 601 435 579 435 543 C435 494 404 464 330 433 L330 433 Z M250 89 C182 89 141 119 141 178 C141 253 195 298 253 320 L365 126 C329 101 290 89 250 89 L250 89 Z " />
<glyph glyph-name="quotesingle" unicode="&#x27;" horiz-adv-x="283" d="M116 427 L219 427 L261 561 L282 679 L141 679 L121 561 L116 427 Z " />
<glyph glyph-name="parenleft" unicode="&#x28;" horiz-adv-x="330" d="M114 -169 L210 -169 C170 -80 149 17 149 123 C149 317 229 523 359 680 L263 680 C130 531 31 338 31 135 C31 20 61 -86 114 -169 L114 -169 Z " />
<glyph glyph-name="parenright" unicode="&#x29;" horiz-adv-x="330" d="M-39 -169 L56 -169 C195 -30 288 176 288 367 C288 484 256 590 207 680 L112 680 C153 594 174 496 174 389 C174 191 91 -8 -39 -169 L-39 -169 Z " />
<glyph glyph-name="asterisk" unicode="&#x2a;" horiz-adv-x="475" d="M250 252 L334 277 L293 443 L470 426 L485 508 L302 492 L402 658 L329 683 L257 508 L142 626 L83 559 L222 467 L51 373 L90 307 L242 424 L250 252 Z " />
<glyph glyph-name="plus" unicode="&#x2b;" horiz-adv-x="600" d="M201 30 L301 30 L338 237 L544 237 L561 335 L355 335 L392 542 L292 542 L255 335 L49 335 L32 237 L238 237 L201 30 Z " />
<glyph glyph-name="comma" unicode="&#x2c;" horiz-adv-x="269" d="M-19 -147 L39 -147 L159 11 L183 144 L38 144 L13 0 L77 0 L-19 -147 Z " />
<glyph glyph-name="hyphen" unicode="&#x2d;" horiz-adv-x="257" d="M-2 211 L227 211 L245 312 L16 312 L-2 211 Z " />
<glyph glyph-name="period" unicode="&#x2e;" horiz-adv-x="289" d="M23 0 L168 0 L194 142 L48 142 L23 0 Z " />
<glyph glyph-name="slash" unicode="&#x2f;" horiz-adv-x="558" d="M-68 -169 L29 -169 L616 680 L519 680 L-68 -169 Z " />
<glyph glyph-name="zero" unicode="0" horiz-adv-x="600" d="M250 -9 C470 -9 578 250 578 439 C578 583 512 689 365 689 C143 689 39 427 39 245 C39 108 98 -9 250 -9 L250 -9 Z M268 91 C189 91 170 162 170 237 C170 381 228 589 348 589 C425 589 446 521 446 447 C446 288 393 91 268 91 L268 91 Z " />
<glyph glyph-name="one" unicode="1" horiz-adv-x="600" d="M17 0 L514 0 L532 101 L356 101 L457 679 L355 679 C295 608 204 557 128 536 L107 421 C193 445 262 495 299 533 L301 533 L225 101 L35 101 L17 0 Z " />
<glyph glyph-name="two" unicode="2" horiz-adv-x="600" d="M-5 0 L491 0 L516 113 L193 113 L194 115 L364 230 C482 308 579 394 579 519 C579 632 473 689 367 689 C229 689 120 601 76 477 L188 446 C208 524 271 585 345 585 C401 585 443 551 443 499 C443 419 383 359 278 287 L14 109 L-5 0 Z " />
<glyph glyph-name="three" unicode="3" horiz-adv-x="600" d="M241 -9 C405 -9 548 80 548 221 C548 298 493 345 424 356 L424 358 C501 370 576 447 576 538 C576 640 475 689 369 689 C250 689 144 622 93 517 L201 490 C226 546 279 589 345 589 C398 589 441 563 441 512 C441 440 382 399 306 399 L223 399 L206 303 L280 303 C352 303 409 278 410 217 C410 144 345 91 257 91 C181 91 139 126 134 203 L8 175 C19 67 104 -9 241 -9 L241 -9 Z " />
<glyph glyph-name="four" unicode="4" horiz-adv-x="600" d="M295 0 L421 0 L448 154 L550 154 L567 253 L466 253 L541 679 L390 679 L25 246 L9 154 L322 154 L295 0 Z M140 253 L141 255 L393 566 L395 566 L339 253 L140 253 Z " />
<glyph glyph-name="five" unicode="5" horiz-adv-x="600" d="M236 -9 C406 -9 549 114 549 271 C549 381 467 458 355 458 C290 458 232 430 198 400 L196 400 L240 565 L550 565 L583 679 L163 679 L69 305 L170 285 C196 325 251 357 308 357 C374 357 415 314 416 255 C416 170 355 95 255 95 C183 95 140 134 135 195 L14 168 C19 67 107 -9 236 -9 L236 -9 Z " />
<glyph glyph-name="six" unicode="6" horiz-adv-x="600" d="M252 -9 C416 -9 552 119 552 267 C552 369 480 439 370 439 C286 439 209 388 174 330 L172 330 C202 471 255 589 371 589 C430 589 462 557 465 494 L587 518 C581 622 511 689 391 689 C185 689 36 475 36 233 C36 107 92 -9 252 -9 L252 -9 Z M268 88 C205 88 164 133 164 189 C164 269 240 340 320 340 C379 340 420 299 420 242 C420 155 348 88 268 88 L268 88 Z " />
<glyph glyph-name="seven" unicode="7" horiz-adv-x="600" d="M127 0 L272 0 L276 24 C315 254 425 429 590 591 L606 679 L143 679 L109 561 L457 561 L457 559 C290 416 165 221 127 0 L127 0 Z " />
<glyph glyph-name="eight" unicode="8" horiz-adv-x="600" d="M247 -9 C382 -9 554 58 554 224 C554 303 494 344 440 368 L440 370 C509 394 585 445 585 545 C585 641 489 689 374 689 C253 689 95 617 95 473 C95 409 137 365 185 346 L185 344 C110 319 8 258 8 148 C8 36 124 -9 247 -9 L247 -9 Z M339 406 C280 424 228 447 228 500 C228 555 288 596 356 596 C412 596 465 576 465 520 C465 454 395 423 339 406 L339 406 Z M268 82 C209 82 135 99 135 164 C135 238 219 284 276 296 C343 271 417 248 417 187 C417 114 330 82 268 82 L268 82 Z " />
<glyph glyph-name="nine" unicode="9" horiz-adv-x="600" d="M217 -9 C427 -9 573 203 573 445 C573 574 514 689 358 689 C188 689 59 561 59 416 C59 312 132 239 243 239 C332 239 402 288 434 345 L436 345 C409 206 355 91 239 91 C180 91 148 122 146 172 L24 141 C31 47 99 -9 217 -9 L217 -9 Z M288 337 C227 337 188 382 188 440 C188 519 263 591 341 591 C405 591 444 542 444 485 C444 407 370 337 288 337 L288 337 Z " />
<glyph glyph-name="colon" unicode="&#x3a;" horiz-adv-x="289" d="M86 361 L231 361 L257 503 L112 503 L86 361 Z M23 0 L168 0 L193 142 L48 142 L23 0 Z " />
<glyph glyph-name="semicolon" unicode="&#x3b;" horiz-adv-x="269" d="M76 361 L222 361 L247 503 L102 503 L76 361 Z M-19 -147 L39 -147 L159 11 L183 144 L38 144 L13 0 L77 0 L-19 -147 Z " />
<glyph glyph-name="less" unicode="&#x3c;" horiz-adv-x="600" d="M494 48 L512 153 L189 285 L190 287 L559 418 L577 523 L58 324 L45 247 L494 48 Z " />
<glyph glyph-name="equal" unicode="&#x3d;" horiz-adv-x="600" d="M52 343 L560 343 L577 440 L69 440 L52 343 Z M15 133 L523 133 L540 231 L32 231 L15 133 Z " />
<glyph glyph-name="greater" unicode="&#x3e;" horiz-adv-x="600" d="M18 48 L537 247 L550 324 L101 523 L84 418 L406 287 L405 285 L36 153 L18 48 Z " />
<glyph glyph-name="question" unicode="&#x3f;" horiz-adv-x="515" d="M175 187 L287 187 L294 221 C301 269 334 286 370 304 C475 356 536 426 536 525 C536 632 440 689 337 689 C192 689 88 605 51 483 L165 457 C188 538 234 590 307 590 C358 590 395 564 395 513 C395 458 359 410 284 370 C218 332 196 303 181 219 L175 187 Z M131 0 L271 0 L295 135 L155 135 L131 0 Z " />
<glyph glyph-name="at" unicode="&#x40;" horiz-adv-x="825" d="M346 -118 C417 -118 467 -103 467 -103 L458 -39 C458 -39 420 -50 358 -50 C203 -50 120 57 120 192 C120 378 278 553 469 553 C609 553 689 474 690 330 C690 196 633 60 584 60 C571 60 563 69 563 92 C563 103 565 120 568 135 L599 314 C602 326 603 340 603 351 C603 436 533 461 452 461 C330 461 271 414 249 346 L340 332 C357 373 388 391 435 391 C471 391 500 382 500 342 C500 336 500 329 498 321 L495 306 L440 306 C296 306 204 237 204 147 C204 89 247 49 324 49 C404 49 444 88 465 122 L467 122 C465 108 463 95 463 83 C463 23 501 -10 563 -10 C687 -10 791 162 791 322 C792 513 661 620 480 620 C238 620 19 429 19 180 C19 1 153 -118 346 -118 L346 -118 Z M370 118 C339 118 315 131 315 161 C315 212 374 246 451 246 L485 246 L482 232 C471 163 426 118 370 118 L370 118 Z " />
<glyph glyph-name="A" unicode="A" horiz-adv-x="602" d="M-41 0 L74 0 L155 169 L378 169 L398 0 L545 0 L445 679 L295 679 L-41 0 Z M200 270 L330 540 L332 540 L366 270 L200 270 Z " />
<glyph glyph-name="B" unicode="B" horiz-adv-x="626" d="M17 0 L314 0 C437 0 579 66 579 219 C579 290 534 343 464 356 L465 358 C546 374 615 443 615 538 C615 635 529 679 428 679 L137 679 L17 0 Z M222 400 L253 575 L374 575 C433 575 476 555 476 508 C476 440 412 400 339 400 L222 400 Z M170 107 L204 299 L334 299 C397 299 445 277 445 221 C445 140 372 107 301 107 L170 107 Z " />
<glyph glyph-name="C" unicode="C" horiz-adv-x="626" d="M279 -9 C434 -9 532 94 582 226 L456 243 C424 150 365 97 297 97 C226 97 182 151 182 250 C182 422 268 584 385 584 C459 584 486 522 487 434 L622 452 C618 580 555 689 397 689 C154 689 36 444 36 255 C36 118 100 -9 279 -9 L279 -9 Z " />
<glyph glyph-name="D" unicode="D" horiz-adv-x="662" d="M17 0 L277 0 C504 0 645 211 645 415 C645 552 563 679 389 679 L137 679 L17 0 Z M177 109 L258 570 L360 570 C442 570 499 516 499 412 C499 234 405 109 270 109 L177 109 Z " />
<glyph glyph-name="E" unicode="E" horiz-adv-x="577" d="M17 0 L488 0 L508 113 L177 113 L209 298 L465 298 L485 405 L229 405 L258 568 L579 568 L599 679 L137 679 L17 0 Z " />
<glyph glyph-name="F" unicode="F" horiz-adv-x="506" d="M17 0 L157 0 L208 289 L458 289 L477 396 L227 396 L258 568 L567 568 L587 679 L137 679 L17 0 Z " />
<glyph glyph-name="G" unicode="G" horiz-adv-x="670" d="M274 -9 C368 -9 436 30 474 76 L476 76 L497 0 L561 0 L624 360 L342 360 L324 258 L473 258 L469 236 C453 148 392 99 308 99 C228 99 182 155 182 257 C182 435 276 584 387 584 C458 584 505 536 506 455 L641 478 C635 601 556 689 407 689 C161 689 35 444 35 250 C35 114 101 -9 274 -9 L274 -9 Z " />
<glyph glyph-name="H" unicode="H" horiz-adv-x="660" d="M17 0 L157 0 L210 296 L455 296 L403 0 L544 0 L664 679 L523 679 L475 409 L229 409 L277 679 L137 679 L17 0 Z " />
<glyph glyph-name="I" unicode="I" horiz-adv-x="284" d="M22 0 L162 0 L282 679 L142 679 L22 0 Z " />
<glyph glyph-name="J" unicode="J" horiz-adv-x="403" d="M78 -9 C189 -9 293 44 323 212 L405 679 L265 679 L185 224 C169 130 124 103 57 103 C15 103 -27 114 -27 114 L-46 3 C-46 3 -8 -9 78 -9 L78 -9 Z " />
<glyph glyph-name="K" unicode="K" horiz-adv-x="661" d="M30 0 L170 0 L203 185 L332 318 L453 0 L608 0 L437 423 L682 679 L546 679 L231 334 L229 334 L290 679 L150 679 L30 0 Z " />
<glyph glyph-name="L" unicode="L" horiz-adv-x="514" d="M17 0 L449 0 L470 114 L177 114 L277 679 L137 679 L17 0 Z " />
<glyph glyph-name="M" unicode="M" horiz-adv-x="826" d="M17 0 L121 0 L217 545 L221 545 L310 0 L399 0 L666 545 L670 545 L575 0 L710 0 L830 679 L641 679 L404 210 L402 210 L326 679 L137 679 L17 0 Z " />
<glyph glyph-name="N" unicode="N" horiz-adv-x="669" d="M17 0 L131 0 L219 501 L221 501 L431 0 L552 0 L672 679 L560 679 L477 213 L475 213 L283 679 L137 679 L17 0 Z " />
<glyph glyph-name="O" unicode="O" horiz-adv-x="664" d="M283 -9 C516 -9 649 234 649 422 C649 560 581 689 402 689 C159 689 35 438 35 253 C35 116 105 -9 283 -9 L283 -9 Z M301 96 C227 96 181 155 181 259 C181 433 276 584 389 584 C466 584 501 520 501 427 C501 247 408 96 301 96 L301 96 Z " />
<glyph glyph-name="P" unicode="P" horiz-adv-x="588" d="M17 0 L157 0 L204 264 L348 264 C482 264 614 358 614 511 C614 623 524 679 413 679 L137 679 L17 0 Z M222 366 L258 570 L375 570 C436 570 474 542 474 491 C474 409 414 366 334 366 L222 366 Z " />
<glyph glyph-name="Q" unicode="Q" horiz-adv-x="664" d="M426 -163 C482 -163 532 -147 532 -147 L549 -49 C549 -49 502 -54 452 -54 C420 -54 394 -42 394 -4 C394 1 395 6 395 12 C561 69 651 261 651 426 C651 563 580 689 403 689 C156 689 36 433 36 257 C36 119 105 -8 283 -9 C282 -20 281 -29 281 -38 C281 -127 338 -163 426 -163 L426 -163 Z M392 160 C390 234 341 275 282 275 C241 275 205 253 191 227 L189 227 C184 242 184 268 184 292 C195 462 289 584 390 584 C468 584 505 518 505 424 C505 299 450 200 392 160 L392 160 Z M297 94 C253 95 205 121 205 155 C205 176 220 196 249 196 C279 196 299 174 299 123 C299 114 299 103 297 94 L297 94 Z " />
<glyph glyph-name="R" unicode="R" horiz-adv-x="638" d="M17 0 L157 0 L206 278 L343 278 L406 0 L560 0 L482 304 C564 332 640 403 640 520 C640 628 550 679 441 679 L137 679 L17 0 Z M224 380 L258 573 L395 573 C458 573 497 548 497 497 C497 418 435 380 356 380 L224 380 Z " />
<glyph glyph-name="S" unicode="S" horiz-adv-x="614" d="M258 -9 C462 -9 576 111 576 241 C576 329 511 388 376 410 C261 428 229 453 229 491 C229 546 288 586 357 586 C431 586 477 545 483 488 L608 522 C602 605 530 689 381 689 C205 689 88 581 88 451 C88 371 145 312 287 285 C383 267 426 247 426 205 C426 141 369 99 283 99 C179 99 138 163 135 214 L5 189 C11 109 62 -9 258 -9 L258 -9 Z " />
<glyph glyph-name="T" unicode="T" horiz-adv-x="496" d="M130 0 L271 0 L371 565 L536 565 L556 679 L80 679 L60 565 L230 565 L130 0 Z " />
<glyph glyph-name="U" unicode="U" horiz-adv-x="640" d="M272 -9 C420 -9 534 63 564 231 L644 679 L535 679 L457 238 C441 143 388 102 303 102 C235 102 195 127 195 192 C195 207 197 225 200 241 L278 679 L137 679 L59 236 C55 214 52 186 52 165 C52 42 132 -9 272 -9 L272 -9 Z " />
<glyph glyph-name="V" unicode="V" horiz-adv-x="586" d="M176 0 L311 0 L656 679 L540 679 L290 171 L288 171 L218 679 L70 679 L176 0 Z " />
<glyph glyph-name="W" unicode="W" horiz-adv-x="842" d="M125 0 L252 0 L451 462 L453 462 L496 0 L619 0 L912 679 L799 679 L603 189 L601 189 L556 679 L446 679 L240 191 L238 191 L208 679 L70 679 L125 0 Z " />
<glyph glyph-name="X" unicode="X" horiz-adv-x="626" d="M-34 0 L94 0 L292 259 L294 259 L400 0 L560 0 L400 366 L651 679 L527 679 L355 456 L353 456 L262 679 L105 679 L248 352 L-34 0 Z " />
<glyph glyph-name="Y" unicode="Y" horiz-adv-x="586" d="M176 0 L316 0 L367 290 L656 679 L533 679 L333 397 L331 397 L229 679 L71 679 L227 289 L176 0 Z " />
<glyph glyph-name="Z" unicode="Z" horiz-adv-x="594" d="M-11 0 L507 0 L527 112 L179 112 L179 115 L598 586 L614 679 L128 679 L108 569 L426 569 L426 567 L7 102 L-11 0 Z " />
<glyph glyph-name="bracketleft" unicode="&#x5b;" horiz-adv-x="297" d="M-20 -169 L180 -169 L193 -98 L98 -98 L223 612 L318 612 L330 680 L130 680 L-20 -169 Z " />
<glyph glyph-name="backslash" unicode="&#x5c;" horiz-adv-x="558" d="M367 -169 L464 -169 L181 680 L83 680 L367 -169 Z " />
<glyph glyph-name="bracketright" unicode="&#x5d;" horiz-adv-x="297" d="M-47 -169 L153 -169 L303 680 L103 680 L91 612 L187 612 L62 -98 L-34 -98 L-47 -169 Z " />
<glyph glyph-name="asciicircum" unicode="&#x5e;" horiz-adv-x="600" d="M61 238 L166 238 L336 542 L338 542 L402 238 L507 238 L404 680 L321 680 L61 238 Z " />
<glyph glyph-name="underscore" unicode="&#x5f;" horiz-adv-x="480" d="M-74 -136 L406 -136 L418 -65 L-62 -65 L-74 -136 Z " />
<glyph glyph-name="grave" unicode="&#x60;" horiz-adv-x="562" d="M360 542 L401 579 L276 739 L200 678 L360 542 Z " />
<glyph glyph-name="a" unicode="a" horiz-adv-x="553" d="M161 -9 C262 -9 317 40 343 83 L345 83 L341 0 L468 0 C468 0 464 42 473 91 L515 329 C517 345 519 364 519 379 C519 486 439 516 336 516 C180 516 97 456 69 372 L182 355 C204 406 243 430 306 430 C354 430 389 414 389 364 C389 357 389 347 387 338 L383 316 L311 316 C129 316 10 234 10 117 C10 43 63 -9 161 -9 L161 -9 Z M221 76 C182 76 149 93 149 132 C149 205 225 244 325 244 L370 244 L366 224 C344 134 294 76 221 76 L221 76 Z " />
<glyph glyph-name="b" unicode="b" horiz-adv-x="557" d="M261 -9 C409 -9 527 134 527 324 C527 424 485 516 371 516 C294 516 239 465 214 427 L212 427 L257 679 L127 679 L7 0 L72 0 L116 76 L118 76 C130 35 187 -9 261 -9 L261 -9 Z M254 79 C198 79 158 121 174 211 L187 285 C206 387 268 426 315 426 C362 426 390 388 390 317 C390 167 319 79 254 79 L254 79 Z " />
<glyph glyph-name="c" unicode="c" horiz-adv-x="511" d="M215 -9 C331 -9 425 70 464 171 L351 191 C328 124 285 88 238 88 C184 88 157 123 157 187 C157 326 226 420 295 420 C344 420 370 384 370 315 L490 336 C487 430 429 516 309 516 C157 516 20 374 20 190 C20 80 76 -9 215 -9 L215 -9 Z " />
<glyph glyph-name="d" unicode="d" horiz-adv-x="557" d="M177 -9 C255 -9 317 38 343 80 L345 80 L331 0 L451 0 L571 679 L441 679 L400 451 L398 451 C383 482 339 516 285 516 C139 516 20 376 20 184 C20 85 61 -9 177 -9 L177 -9 Z M233 82 C186 82 157 120 157 194 C157 331 228 428 293 428 C351 428 390 391 375 305 L359 214 C342 118 280 82 233 82 L233 82 Z " />
<glyph glyph-name="e" unicode="e" horiz-adv-x="557" d="M223 -9 C346 -9 447 48 495 146 L382 169 C354 107 293 85 257 85 C200 85 158 118 159 192 C159 205 159 218 162 233 L516 233 L520 254 C524 273 526 296 526 316 C526 430 457 516 322 516 C168 516 21 377 21 198 C21 84 87 -9 223 -9 L223 -9 Z M177 307 C196 391 255 430 309 430 C361 430 396 396 396 334 C396 326 395 315 394 307 L177 307 Z " />
<glyph glyph-name="f" unicode="f" horiz-adv-x="342" d="M37 0 L167 0 L240 409 L357 409 L373 497 L255 497 L259 521 C268 580 296 595 337 595 C374 595 414 587 414 587 L430 678 C430 678 372 689 320 689 C235 689 150 651 129 523 L125 497 L46 497 L31 409 L110 409 L37 0 Z " />
<glyph glyph-name="g" unicode="g" horiz-adv-x="537" d="M182 -190 C431 -190 482 -72 482 -7 C482 53 439 106 332 109 L200 113 C151 115 130 122 130 144 C130 168 154 187 187 188 C197 188 215 182 248 182 C369 182 486 250 486 371 C486 414 469 446 450 465 C465 499 498 504 539 504 L560 504 L576 596 C576 596 546 600 534 600 C468 600 419 566 400 496 L398 496 C382 506 339 516 306 516 C181 516 53 455 53 320 C53 266 88 236 113 224 L113 222 C73 212 8 169 8 110 C8 78 25 52 43 43 L43 41 C9 32 -53 -7 -53 -75 C-53 -148 27 -190 182 -190 L182 -190 Z M258 259 C209 259 182 283 182 327 C182 390 228 437 288 437 C331 437 365 414 365 369 C365 306 322 259 258 259 L258 259 Z M199 -112 C105 -112 65 -86 65 -50 C65 -21 88 0 120 13 L278 7 C334 5 359 -9 359 -34 C359 -82 295 -112 199 -112 L199 -112 Z " />
<glyph glyph-name="h" unicode="h" horiz-adv-x="555" d="M7 0 L137 0 L188 290 C199 352 240 419 318 419 C354 419 378 395 378 354 C378 345 377 334 376 326 L318 0 L449 0 L506 326 C509 342 510 360 510 376 C510 472 451 516 377 516 C288 516 234 459 214 425 L211 425 L257 679 L127 679 L7 0 Z " />
<glyph glyph-name="i" unicode="i" horiz-adv-x="269" d="M115 574 L255 574 L275 683 L135 683 L115 574 Z M19 0 L149 0 L238 503 L108 503 L19 0 Z " />
<glyph glyph-name="j" unicode="j" horiz-adv-x="265" d="M115 574 L255 574 L275 683 L135 683 L115 574 Z M-48 -178 C39 -178 123 -141 148 -3 L238 503 L108 503 L21 15 C9 -58 -16 -78 -66 -78 C-88 -78 -116 -69 -116 -69 L-134 -169 C-134 -169 -108 -178 -48 -178 L-48 -178 Z " />
<glyph glyph-name="k" unicode="k" horiz-adv-x="536" d="M7 0 L137 0 L164 153 L254 236 L343 0 L480 0 L349 317 L548 503 L424 503 L188 276 L186 276 L257 679 L127 679 L7 0 Z " />
<glyph glyph-name="l" unicode="l" horiz-adv-x="267" d="M19 0 L149 0 L269 679 L139 679 L19 0 Z " />
<glyph glyph-name="m" unicode="m" horiz-adv-x="835" d="M7 0 L137 0 L188 290 C200 355 236 419 309 419 C343 419 363 394 363 355 C363 346 362 334 361 326 L303 0 L433 0 L484 290 C496 355 532 419 605 419 C639 419 658 394 658 355 C658 346 657 334 656 326 L598 0 L729 0 L786 326 C788 343 791 363 791 379 C791 472 734 516 664 516 C581 516 515 453 492 413 L490 413 C479 484 430 516 368 516 C285 516 228 457 205 418 L203 418 L218 503 L96 503 L7 0 Z " />
<glyph glyph-name="n" unicode="n" horiz-adv-x="555" d="M7 0 L137 0 L188 290 C199 352 240 419 318 419 C354 419 378 395 378 355 C378 345 377 335 376 326 L318 0 L449 0 L506 326 C508 341 510 360 510 375 C510 473 451 516 377 516 C288 516 228 457 205 418 L203 418 L218 503 L96 503 L7 0 Z " />
<glyph glyph-name="o" unicode="o" horiz-adv-x="562" d="M224 -9 C379 -9 530 119 530 308 C530 420 460 516 327 516 C178 516 21 396 21 196 C21 78 92 -9 224 -9 L224 -9 Z M244 79 C191 79 158 108 158 184 C158 326 227 427 305 427 C356 427 392 394 392 318 C392 166 318 79 244 79 L244 79 Z " />
<glyph glyph-name="p" unicode="p" horiz-adv-x="555" d="M-23 -172 L107 -172 L147 56 L149 56 C163 24 204 -9 265 -9 C403 -9 526 135 526 327 C526 428 485 516 369 516 C293 516 227 465 203 421 L201 421 L216 503 L96 503 L-23 -172 Z M253 80 C200 80 158 120 173 204 L189 293 C206 388 266 423 312 423 C358 423 386 386 386 315 C386 163 313 80 253 80 L253 80 Z " />
<glyph glyph-name="q" unicode="q" horiz-adv-x="557" d="M291 -167 L421 -167 L540 503 L475 503 L428 431 L426 431 C411 475 353 516 291 516 C139 516 19 375 19 186 C19 86 60 -9 176 -9 C255 -9 307 36 331 76 L333 76 L291 -167 Z M234 81 C186 81 156 119 156 192 C156 328 226 429 295 429 C352 429 387 383 373 298 L360 225 C342 123 281 81 234 81 L234 81 Z " />
<glyph glyph-name="r" unicode="r" horiz-adv-x="347" d="M7 0 L137 0 L178 229 C194 322 241 396 343 396 L363 396 L384 513 C384 513 363 516 354 516 C282 516 232 468 198 394 L196 394 L215 503 L96 503 L7 0 Z " />
<glyph glyph-name="s" unicode="s" horiz-adv-x="503" d="M202 -9 C371 -9 464 84 464 183 C464 264 396 305 283 314 C197 323 173 336 173 365 C173 400 205 429 269 429 C343 429 368 396 374 364 L481 389 C473 469 397 516 289 516 C156 516 48 437 48 329 C48 253 112 218 218 201 C307 187 335 174 335 148 C335 115 305 79 223 79 C149 79 103 108 102 157 L-11 133 C-6 69 45 -9 202 -9 L202 -9 Z " />
<glyph glyph-name="t" unicode="t" horiz-adv-x="361" d="M189 -9 C238 -9 294 0 294 0 L311 97 C311 97 279 90 250 90 C215 90 197 100 197 136 C197 144 199 155 200 163 L244 416 L351 416 L367 503 L260 503 L287 655 L164 640 L130 503 L50 503 L34 416 L114 416 L69 156 C66 140 64 122 64 108 C64 20 122 -9 189 -9 L189 -9 Z " />
<glyph glyph-name="u" unicode="u" horiz-adv-x="553" d="M168 -11 C257 -11 315 47 337 86 L339 86 L324 0 L447 0 L536 503 L405 503 L353 213 C343 151 302 86 227 86 C189 86 166 109 166 152 C166 159 167 169 168 176 L226 503 L96 503 L38 177 C35 161 33 140 33 123 C33 30 93 -11 168 -11 L168 -11 Z " />
<glyph glyph-name="v" unicode="v" horiz-adv-x="472" d="M133 0 L245 0 L511 503 L413 503 L234 153 L232 153 L178 503 L39 503 L133 0 Z " />
<glyph glyph-name="w" unicode="w" horiz-adv-x="683" d="M105 0 L203 0 L349 337 L351 337 L385 0 L483 0 L722 503 L625 503 L477 178 L475 178 L442 503 L345 503 L203 178 L201 178 L170 503 L39 503 L105 0 Z " />
<glyph glyph-name="x" unicode="x" horiz-adv-x="513" d="M-38 0 L73 0 L221 183 L223 183 L302 0 L453 0 L325 278 L512 503 L402 503 L283 355 L281 355 L219 503 L68 503 L182 261 L-38 0 Z " />
<glyph glyph-name="y" unicode="y" horiz-adv-x="479" d="M21 -179 C104 -179 167 -140 220 -43 L512 503 L410 503 L238 163 L236 163 L187 503 L47 503 L141 10 L121 -28 C109 -57 78 -80 31 -80 C-6 -80 -37 -73 -37 -73 L-54 -171 C-54 -171 -29 -179 21 -179 L21 -179 Z " />
<glyph glyph-name="z" unicode="z" horiz-adv-x="443" d="M-32 0 L373 0 L388 89 L136 89 L137 91 L449 433 L462 503 L81 503 L65 416 L284 416 L284 414 L-17 83 L-32 0 Z " />
<glyph glyph-name="braceleft" unicode="&#x7b;" horiz-adv-x="323" d="M142 -167 L216 -167 L229 -90 L186 -90 C157 -90 156 -63 162 -25 L187 119 C206 223 148 257 123 260 L123 262 C149 265 220 301 237 403 L264 553 C271 589 281 612 310 612 L353 612 L366 689 L292 689 C233 689 172 647 160 580 L132 419 C118 339 96 302 24 296 L12 226 C81 220 89 181 76 103 L49 -52 C37 -119 83 -167 142 -167 L142 -167 Z " />
<glyph glyph-name="bar" unicode="&#x7c;" horiz-adv-x="240" d="M-20 -247 L73 -247 L248 743 L155 743 L-20 -247 Z " />
<glyph glyph-name="braceright" unicode="&#x7d;" horiz-adv-x="323" d="M-52 -167 L23 -167 C82 -167 144 -119 156 -52 L183 103 C196 181 219 220 290 226 L303 296 C233 302 225 340 239 420 L267 580 C279 647 232 689 173 689 L98 689 L85 612 L128 612 C157 612 160 589 154 553 L127 403 C109 301 167 265 191 262 L191 260 C165 257 95 223 77 119 L52 -25 C46 -63 33 -90 4 -90 L-39 -90 L-52 -167 Z " />
<glyph glyph-name="asciitilde" unicode="&#x7e;" horiz-adv-x="600" d="M400 178 C464 178 540 222 563 353 L482 353 C472 296 453 274 420 274 C354 274 303 384 195 384 C132 384 52 331 31 209 L112 209 C122 267 140 289 174 289 C239 289 292 178 400 178 L400 178 Z " />
<glyph glyph-name="uni00A0" unicode="&#xa0;" horiz-adv-x="290" d="" />
<glyph glyph-name="exclamdown" unicode="&#xa1;" horiz-adv-x="285" d="M83 365 L225 365 L250 503 L108 503 L83 365 Z M-26 -176 L143 -176 L185 309 L108 309 L-26 -176 Z " />
<glyph glyph-name="cent" unicode="&#xa2;" horiz-adv-x="600" d="M244 -27 L294 -27 L318 110 C413 121 491 190 524 277 L419 295 C401 245 368 215 335 206 L385 490 C415 481 435 450 435 401 L546 420 C544 504 497 576 402 586 L424 708 L374 708 L352 586 C224 571 110 451 110 295 C110 199 156 120 268 109 L244 -27 Z M285 207 C255 218 237 246 237 294 C237 390 286 473 335 490 L285 207 Z " />
<glyph glyph-name="sterling" unicode="&#xa3;" horiz-adv-x="600" d="M-43 0 L321 0 C437 0 522 52 565 137 L468 182 C441 136 398 105 323 105 L190 105 L190 107 C221 119 284 167 301 261 C303 275 304 291 305 304 L439 304 L454 387 L308 387 C309 418 310 451 314 477 C321 547 360 592 417 592 C462 592 485 557 495 515 L603 565 C577 645 506 689 425 689 C309 689 198 601 178 486 C172 454 171 422 170 387 L83 387 L68 304 L170 304 C168 286 166 254 161 221 C149 149 82 105 10 105 L-25 105 L-43 0 Z " />
<glyph glyph-name="currency" unicode="&#xa4;" horiz-adv-x="600" d="M71 -46 L128 30 C158 5 198 -9 250 -9 C298 -9 342 4 379 27 L408 -46 L497 0 L460 95 C540 186 578 321 578 437 C578 493 565 551 547 586 L617 679 L544 726 L489 652 C457 676 416 689 365 689 C315 689 273 675 235 652 L206 726 L116 679 L154 585 C77 493 39 362 39 244 C39 194 51 133 70 96 L-3 0 L71 -46 Z M268 91 C189 91 170 162 170 237 C170 381 228 589 348 589 C425 589 446 521 446 447 C446 288 393 91 268 91 L268 91 Z " />
<glyph glyph-name="yen" unicode="&#xa5;" horiz-adv-x="600" d="M183 0 L323 0 L357 191 L535 191 L551 280 L373 280 L377 299 L416 354 L564 354 L580 443 L481 443 L654 679 L532 679 L341 408 L339 408 L245 679 L87 679 L179 443 L72 443 L56 354 L214 354 L235 298 L232 280 L43 280 L27 191 L216 191 L183 0 Z " />
<glyph glyph-name="brokenbar" unicode="&#xa6;" horiz-adv-x="240" d="M85 350 L178 350 L248 743 L155 743 L85 350 Z M-20 -247 L73 -247 L142 146 L49 146 L-20 -247 Z " />
<glyph glyph-name="section" unicode="&#xa7;" horiz-adv-x="600" d="M207 -117 C375 -117 469 -24 469 73 C469 107 458 132 436 153 C495 189 524 252 524 305 C524 382 454 425 343 433 C258 441 233 455 233 482 C233 514 263 548 329 548 C403 548 428 515 434 483 L540 508 C532 588 457 635 349 635 C215 635 108 557 108 447 C108 413 122 386 146 367 C90 336 53 280 53 222 C53 145 116 110 223 93 C311 79 340 67 340 41 C340 7 308 -29 228 -29 C153 -29 107 0 106 49 L-6 25 C-1 -39 51 -117 207 -117 L207 -117 Z M327 199 C245 209 181 222 181 261 C181 293 207 319 263 323 C355 305 393 295 393 262 C393 238 373 210 327 199 L327 199 Z " />
<glyph glyph-name="dieresis" unicode="&#xa8;" horiz-adv-x="562" d="M419 584 C454 584 489 614 489 650 C489 677 466 695 440 695 C405 695 372 666 372 631 C372 605 391 584 419 584 L419 584 Z M256 584 C291 584 326 613 326 650 C326 677 303 695 276 695 C243 695 210 666 210 631 C210 605 229 584 256 584 L256 584 Z " />
<glyph glyph-name="copyright" unicode="&#xa9;" horiz-adv-x="791" d="M344 -9 C563 -9 770 179 770 397 C770 563 647 689 467 689 C243 689 41 496 41 280 C41 114 162 -9 344 -9 L344 -9 Z M356 60 C210 60 115 158 115 292 C115 465 276 620 456 620 C599 620 696 522 696 391 C696 212 534 60 356 60 L356 60 Z M378 171 C450 171 511 221 541 294 L469 305 C452 258 415 236 388 236 C356 236 333 262 333 310 C333 390 381 444 426 444 C456 444 480 418 480 375 L557 385 C554 456 512 508 435 508 C319 508 250 395 250 303 C250 234 289 171 378 171 L378 171 Z " />
<glyph glyph-name="ordfeminine" unicode="&#xaa;" horiz-adv-x="358" d="M152 364 C210 364 242 390 256 411 L258 411 L254 370 L343 370 C343 370 340 401 345 429 L370 572 C371 581 373 593 373 603 C373 669 322 689 258 689 C161 689 110 651 91 593 L168 582 C181 614 204 628 239 628 C264 628 285 620 285 593 C285 588 284 582 283 578 L281 569 L243 569 C130 569 56 512 56 443 C56 396 90 364 152 364 L152 364 Z M17 240 L321 240 L335 319 L31 319 L17 240 Z M189 425 C168 425 150 433 150 455 C150 494 193 517 250 517 L272 517 L271 506 C263 457 231 425 189 425 L189 425 Z " />
<glyph glyph-name="guillemotleft" unicode="&#xab;" horiz-adv-x="385" d="M249 106 L307 106 L285 256 L359 400 L300 400 L183 256 L249 106 Z M100 106 L159 106 L137 256 L211 400 L151 400 L35 256 L100 106 Z " />
<glyph glyph-name="logicalnot" unicode="&#xac;" horiz-adv-x="600" d="M362 30 L465 30 L519 335 L49 335 L32 237 L399 237 L362 30 Z " />
<glyph glyph-name="registered" unicode="&#xae;" horiz-adv-x="791" d="M344 -9 C563 -9 770 179 770 397 C770 563 647 689 467 689 C243 689 41 496 41 280 C41 114 162 -9 344 -9 L344 -9 Z M356 60 C210 60 115 158 115 292 C115 465 276 620 456 620 C599 620 696 522 696 391 C696 212 534 60 356 60 L356 60 Z M245 172 L323 172 L346 300 L417 300 L446 172 L532 172 L494 315 C531 331 566 362 566 420 C566 473 522 500 467 500 L302 500 L245 172 Z M356 363 L369 436 L445 436 C468 436 484 428 484 409 C484 379 460 363 430 363 L356 363 Z " />
<glyph glyph-name="macron" unicode="&#xaf;" horiz-adv-x="343" d="M79 638 L390 638 L404 722 L93 722 L79 638 Z " />
<glyph glyph-name="degree" unicode="&#xb0;" horiz-adv-x="377" d="M209 401 C298 401 382 479 382 571 C382 638 330 689 259 689 C171 689 87 608 87 521 C87 453 137 401 209 401 L209 401 Z M221 475 C187 475 164 500 164 532 C164 575 204 614 245 614 C280 614 304 589 304 557 C304 515 263 475 221 475 L221 475 Z " />
<glyph glyph-name="plusminus" unicode="&#xb1;" horiz-adv-x="600" d="M223 143 L323 143 L358 345 L564 345 L582 444 L376 444 L412 646 L312 646 L276 444 L70 444 L52 345 L259 345 L223 143 Z M-8 0 L504 0 L521 99 L9 99 L-8 0 Z " />
<glyph glyph-name="twosuperior" unicode="&#xb2;" horiz-adv-x="351" d="M29 289 L322 289 L338 370 L175 370 L176 372 L248 419 C314 462 372 513 372 586 C372 654 309 689 246 689 C165 689 101 636 73 557 L151 535 C164 583 194 614 231 614 C259 614 278 598 278 572 C278 530 244 499 191 463 L42 362 L29 289 Z " />
<glyph glyph-name="threesuperior" unicode="&#xb3;" horiz-adv-x="353" d="M170 284 C265 284 350 334 350 425 C350 461 324 487 298 496 L299 498 C329 510 366 544 366 596 C366 659 307 689 243 689 C173 689 111 650 77 579 L153 561 C168 595 195 617 227 617 C252 617 273 604 273 581 C273 546 246 528 209 528 L154 528 L141 457 L191 457 C226 457 256 446 256 418 C256 379 219 357 182 357 C144 357 122 374 120 421 L32 401 C39 328 90 284 170 284 L170 284 Z " />
<glyph glyph-name="acute" unicode="&#xb4;" horiz-adv-x="562" d="M318 542 L525 678 L471 739 L289 579 L318 542 Z " />
<glyph glyph-name="mu" unicode="&#xb5;" horiz-adv-x="553" d="M-59 -178 C24 -178 116 -135 134 -17 L137 3 C154 -5 173 -8 194 -7 C267 0 317 50 337 86 L339 86 L324 0 L447 0 L536 503 L405 503 L353 213 C343 151 302 86 227 86 C189 86 166 110 166 151 C166 159 167 170 168 176 L226 503 L96 503 L10 15 C-3 -58 -27 -78 -77 -78 C-100 -78 -128 -69 -128 -69 L-146 -169 C-146 -169 -120 -178 -59 -178 L-59 -178 Z " />
<glyph glyph-name="paragraph" unicode="&#xb6;" horiz-adv-x="531" d="M153 -164 L224 -164 L360 608 L440 608 L304 -164 L375 -164 L512 608 L563 608 L575 679 L302 679 C224 679 50 593 50 396 C50 290 119 213 220 213 L153 -164 Z " />
<glyph glyph-name="periodcentered" unicode="&#xb7;" horiz-adv-x="289" d="M64 234 L210 234 L235 376 L89 376 L64 234 Z " />
<glyph glyph-name="cedilla" unicode="&#xb8;" horiz-adv-x="511" d="M182 -184 C236 -184 299 -155 299 -94 C299 -56 255 -38 211 -38 L230 0 L190 0 L151 -73 C151 -73 167 -71 178 -71 C206 -71 232 -79 232 -103 C232 -129 206 -144 181 -144 C152 -144 131 -136 114 -126 L90 -157 C114 -174 147 -184 182 -184 L182 -184 Z " />
<glyph glyph-name="onesuperior" unicode="&#xb9;" horiz-adv-x="360" d="M40 284 L333 284 L346 358 L247 358 L304 679 L235 679 C198 638 150 610 103 596 L88 515 C141 528 177 552 193 569 L195 569 L158 358 L53 358 L40 284 Z " />
<glyph glyph-name="ordmasculine" unicode="&#xba;" horiz-adv-x="371" d="M196 364 C291 364 385 441 385 560 C385 629 341 689 259 689 C166 689 69 609 69 492 C69 418 113 364 196 364 L196 364 Z M22 240 L332 240 L346 319 L36 319 L22 240 Z M209 426 C179 426 162 444 162 487 C162 568 205 626 244 626 C273 626 292 606 292 562 C292 477 249 426 209 426 L209 426 Z " />
<glyph glyph-name="guillemotright" unicode="&#xbb;" horiz-adv-x="385" d="M156 106 L215 106 L332 256 L268 400 L208 400 L230 256 L156 106 Z M8 106 L66 106 L184 256 L119 400 L60 400 L82 256 L8 106 Z " />
<glyph glyph-name="onequarter" unicode="&#xbc;" horiz-adv-x="821" d="M43 284 L336 284 L349 358 L250 358 L307 679 L237 679 C201 638 153 610 106 596 L91 515 C144 528 179 552 196 569 L198 569 L161 358 L56 358 L43 284 Z M140 0 L234 0 L765 679 L671 679 L140 0 Z M586 0 L674 0 L689 86 L745 86 L758 158 L701 158 L743 395 L645 395 L438 148 L427 86 L601 86 L586 0 Z M524 158 L524 160 L637 298 L639 298 L614 158 L524 158 Z " />
<glyph glyph-name="onehalf" unicode="&#xbd;" horiz-adv-x="857" d="M43 284 L336 284 L349 358 L250 358 L307 679 L237 679 C201 638 153 610 106 596 L91 515 C144 528 179 552 196 569 L198 569 L161 358 L56 358 L43 284 Z M140 0 L234 0 L765 679 L671 679 L140 0 Z M463 0 L756 0 L772 80 L608 80 L609 82 L682 130 C748 173 806 224 806 297 C806 365 743 400 680 400 C598 400 535 347 507 268 L585 246 C597 294 628 325 665 325 C692 325 712 309 712 283 C712 241 678 210 625 174 L476 73 L463 0 Z " />
<glyph glyph-name="threequarters" unicode="&#xbe;" horiz-adv-x="800" d="M182 284 C277 284 362 334 362 425 C362 461 337 487 311 496 L311 498 C341 510 379 544 379 596 C379 659 319 689 256 689 C185 689 123 650 89 579 L165 561 C181 595 207 617 239 617 C264 617 286 604 286 581 C286 546 258 528 221 528 L166 528 L154 457 L204 457 C238 457 269 446 269 418 C269 379 232 357 194 357 C156 357 134 374 132 421 L44 401 C52 328 102 284 182 284 L182 284 Z M125 0 L219 0 L750 679 L656 679 L125 0 Z M571 0 L658 0 L673 86 L730 86 L742 158 L686 158 L728 395 L631 395 L423 148 L412 86 L586 86 L571 0 Z M509 158 L509 160 L622 298 L624 298 L599 158 L509 158 Z " />
<glyph glyph-name="questiondown" unicode="&#xbf;" horiz-adv-x="515" d="M208 368 L348 368 L372 503 L232 503 L208 368 Z M165 -186 C310 -186 415 -102 452 20 L338 46 C316 -35 269 -87 197 -87 C145 -87 108 -61 108 -11 C108 40 140 91 219 133 C286 171 306 200 321 284 L327 316 L215 316 L209 282 C200 234 168 217 133 199 C27 147 -34 71 -34 -24 C-34 -135 63 -186 165 -186 L165 -186 Z " />
<glyph glyph-name="Agrave" unicode="&#xc0;" horiz-adv-x="602" d="M390 733 L430 770 L305 930 L230 869 L390 733 Z M-41 0 L74 0 L155 169 L378 169 L398 0 L545 0 L445 679 L295 679 L-41 0 Z M200 270 L330 540 L332 540 L366 270 L200 270 Z " />
<glyph glyph-name="Aacute" unicode="&#xc1;" horiz-adv-x="602" d="M393 733 L601 869 L547 930 L366 770 L393 733 Z M-41 0 L74 0 L155 169 L378 169 L398 0 L545 0 L445 679 L295 679 L-41 0 Z M200 270 L330 540 L332 540 L366 270 L200 270 Z " />
<glyph glyph-name="Acircumflex" unicode="&#xc2;" horiz-adv-x="602" d="M288 732 L395 793 L477 732 L541 751 L413 889 L227 751 L288 732 Z M-41 0 L74 0 L155 169 L378 169 L398 0 L545 0 L445 679 L295 679 L-41 0 Z M200 270 L330 540 L332 540 L366 270 L200 270 Z " />
<glyph glyph-name="Atilde" unicode="&#xc3;" horiz-adv-x="602" d="M464 738 C504 738 547 766 569 809 L525 833 C514 817 499 808 481 808 C434 808 405 851 345 851 C308 851 262 823 241 780 L284 757 C295 772 310 780 328 780 C373 780 403 738 464 738 L464 738 Z M-41 0 L74 0 L155 169 L378 169 L398 0 L545 0 L445 679 L295 679 L-41 0 Z M200 270 L330 540 L332 540 L366 270 L200 270 Z " />
<glyph glyph-name="Adieresis" unicode="&#xc4;" horiz-adv-x="602" d="M460 734 C494 734 529 763 529 800 C529 827 507 845 480 845 C446 845 413 816 413 781 C413 755 432 734 460 734 L460 734 Z M297 734 C332 734 366 763 366 799 C366 826 344 845 317 845 C284 845 250 816 250 781 C250 755 269 734 297 734 L297 734 Z M-41 0 L74 0 L155 169 L378 169 L398 0 L545 0 L445 679 L295 679 L-41 0 Z M200 270 L330 540 L332 540 L366 270 L200 270 Z " />
<glyph glyph-name="Aring" unicode="&#xc5;" horiz-adv-x="602" d="M375 713 C431 713 485 759 485 816 C485 859 453 891 407 891 C351 891 297 842 297 787 C297 744 329 713 375 713 L375 713 Z M-41 0 L74 0 L155 169 L378 169 L398 0 L545 0 L445 679 L295 679 L-41 0 Z M381 750 C356 750 339 768 339 792 C339 821 364 852 399 852 C425 852 442 834 442 812 C442 779 413 750 381 750 L381 750 Z M200 270 L330 540 L332 540 L366 270 L200 270 Z " />
<glyph glyph-name="AE" unicode="&#xc6;" horiz-adv-x="871" d="M-49 0 L71 0 L269 298 L384 298 L332 0 L783 0 L803 113 L492 113 L524 298 L760 298 L779 405 L544 405 L572 568 L875 568 L894 679 L402 679 L-49 0 Z M330 405 L427 549 L429 549 L403 405 L330 405 Z " />
<glyph glyph-name="Ccedilla" unicode="&#xc7;" horiz-adv-x="626" d="M246 -184 C300 -184 363 -156 363 -95 C363 -56 320 -38 275 -38 L290 -9 C438 -4 534 98 582 226 L456 243 C424 150 365 97 297 97 C226 97 182 152 182 251 C182 432 277 584 385 584 C459 584 486 522 487 434 L622 452 C618 580 555 689 397 689 C165 689 36 457 36 255 C35 126 93 5 250 -8 L215 -73 C215 -73 231 -71 242 -71 C270 -71 297 -79 297 -103 C297 -129 271 -144 245 -144 C216 -144 195 -136 178 -126 L154 -157 C178 -174 211 -184 246 -184 L246 -184 Z " />
<glyph glyph-name="Egrave" unicode="&#xc8;" horiz-adv-x="577" d="M443 733 L483 770 L358 930 L283 869 L443 733 Z M17 0 L488 0 L508 113 L177 113 L209 298 L465 298 L485 405 L229 405 L258 568 L579 568 L599 679 L137 679 L17 0 Z " />
<glyph glyph-name="Eacute" unicode="&#xc9;" horiz-adv-x="577" d="M380 733 L588 869 L534 930 L352 770 L380 733 Z M17 0 L488 0 L508 113 L177 113 L209 298 L465 298 L485 405 L229 405 L258 568 L579 568 L599 679 L137 679 L17 0 Z " />
<glyph glyph-name="Ecircumflex" unicode="&#xca;" horiz-adv-x="577" d="M298 732 L406 793 L487 732 L551 751 L423 889 L237 751 L298 732 Z M17 0 L488 0 L508 113 L177 113 L209 298 L465 298 L485 405 L229 405 L258 568 L579 568 L599 679 L137 679 L17 0 Z " />
<glyph glyph-name="Edieresis" unicode="&#xcb;" horiz-adv-x="577" d="M471 734 C506 734 540 763 540 800 C540 827 518 845 492 845 C458 845 424 816 424 781 C424 755 443 734 471 734 L471 734 Z M308 734 C343 734 378 763 378 799 C378 826 356 845 329 845 C295 845 262 816 262 781 C262 755 281 734 308 734 L308 734 Z M17 0 L488 0 L508 113 L177 113 L209 298 L465 298 L485 405 L229 405 L258 568 L579 568 L599 679 L137 679 L17 0 Z " />
<glyph glyph-name="Igrave" unicode="&#xcc;" horiz-adv-x="284" d="M261 733 L301 770 L176 930 L102 869 L261 733 Z M22 0 L162 0 L282 679 L142 679 L22 0 Z " />
<glyph glyph-name="Iacute" unicode="&#xcd;" horiz-adv-x="284" d="M218 733 L426 869 L372 930 L190 770 L218 733 Z M22 0 L162 0 L282 679 L142 679 L22 0 Z " />
<glyph glyph-name="Icircumflex" unicode="&#xce;" horiz-adv-x="284" d="M132 732 L239 793 L321 732 L384 751 L257 889 L70 751 L132 732 Z M22 0 L162 0 L282 679 L142 679 L22 0 Z " />
<glyph glyph-name="Idieresis" unicode="&#xcf;" horiz-adv-x="284" d="M305 734 C339 734 374 763 374 800 C374 827 351 845 325 845 C290 845 257 816 257 781 C257 755 276 734 305 734 L305 734 Z M141 734 C176 734 211 763 211 799 C211 826 188 845 161 845 C128 845 95 816 95 781 C95 755 114 734 141 734 L141 734 Z M22 0 L162 0 L282 679 L142 679 L22 0 Z " />
<glyph glyph-name="Eth" unicode="&#xd0;" horiz-adv-x="662" d="M17 0 L277 0 C504 0 645 211 645 415 C645 552 563 679 389 679 L137 679 L85 384 L4 384 L-13 287 L68 287 L17 0 Z M177 109 L208 287 L299 287 L316 384 L225 384 L258 570 L360 570 C442 570 499 516 499 412 C499 234 405 109 270 109 L177 109 Z " />
<glyph glyph-name="Ntilde" unicode="&#xd1;" horiz-adv-x="669" d="M497 738 C536 738 579 766 601 809 L557 833 C546 817 531 808 513 808 C466 808 438 851 377 851 C340 851 294 823 273 780 L316 757 C327 772 342 780 360 780 C405 780 435 738 497 738 L497 738 Z M17 0 L131 0 L219 501 L221 501 L431 0 L552 0 L672 679 L560 679 L477 213 L475 213 L283 679 L137 679 L17 0 Z " />
<glyph glyph-name="Ograve" unicode="&#xd2;" horiz-adv-x="664" d="M439 733 L480 770 L355 930 L280 869 L439 733 Z M283 -9 C516 -9 649 234 649 422 C649 560 581 689 402 689 C159 689 35 438 35 253 C35 116 105 -9 283 -9 L283 -9 Z M301 96 C227 96 181 155 181 259 C181 433 276 584 389 584 C466 584 501 520 501 427 C501 247 408 96 301 96 L301 96 Z " />
<glyph glyph-name="Oacute" unicode="&#xd3;" horiz-adv-x="664" d="M423 733 L631 869 L577 930 L395 770 L423 733 Z M283 -9 C516 -9 649 234 649 422 C649 560 581 689 402 689 C159 689 35 438 35 253 C35 116 105 -9 283 -9 L283 -9 Z M301 96 C227 96 181 155 181 259 C181 433 276 584 389 584 C466 584 501 520 501 427 C501 247 408 96 301 96 L301 96 Z " />
<glyph glyph-name="Ocircumflex" unicode="&#xd4;" horiz-adv-x="664" d="M321 732 L428 793 L510 732 L573 751 L446 889 L259 751 L321 732 Z M283 -9 C516 -9 649 234 649 422 C649 560 581 689 402 689 C159 689 35 438 35 253 C35 116 105 -9 283 -9 L283 -9 Z M301 96 C227 96 181 155 181 259 C181 433 276 584 389 584 C466 584 501 520 501 427 C501 247 408 96 301 96 L301 96 Z " />
<glyph glyph-name="Otilde" unicode="&#xd5;" horiz-adv-x="664" d="M497 738 C536 738 579 766 601 809 L557 833 C546 817 531 808 513 808 C466 808 438 851 377 851 C340 851 294 823 273 780 L316 757 C327 772 342 780 360 780 C405 780 435 738 497 738 L497 738 Z M283 -9 C516 -9 649 234 649 422 C649 560 581 689 402 689 C159 689 35 438 35 253 C35 116 105 -9 283 -9 L283 -9 Z M301 96 C227 96 181 155 181 259 C181 433 276 584 389 584 C466 584 501 520 501 427 C501 247 408 96 301 96 L301 96 Z " />
<glyph glyph-name="Odieresis" unicode="&#xd6;" horiz-adv-x="664" d="M500 734 C534 734 569 763 569 800 C569 827 547 845 520 845 C486 845 453 816 453 781 C453 755 472 734 500 734 L500 734 Z M337 734 C372 734 406 763 406 799 C406 826 384 845 357 845 C324 845 291 816 291 781 C291 755 309 734 337 734 L337 734 Z M283 -9 C516 -9 649 234 649 422 C649 560 581 689 402 689 C159 689 35 438 35 253 C35 116 105 -9 283 -9 L283 -9 Z M301 96 C227 96 181 155 181 259 C181 433 276 584 389 584 C466 584 501 520 501 427 C501 247 408 96 301 96 L301 96 Z " />
<glyph glyph-name="multiply" unicode="&#xd7;" horiz-adv-x="600" d="M112 70 L284 215 L404 70 L487 140 L367 285 L538 432 L480 502 L308 357 L188 502 L106 432 L226 287 L55 140 L112 70 Z " />
<glyph glyph-name="Oslash" unicode="&#xd8;" horiz-adv-x="664" d="M-32 -33 L65 -33 L128 39 C165 9 216 -9 283 -9 C508 -9 649 224 649 430 C649 489 635 546 605 591 L714 715 L617 715 L553 643 C517 671 467 689 402 689 C166 689 36 446 36 253 C36 194 48 138 76 92 L-32 -33 Z M189 221 C185 242 183 264 184 289 C195 464 286 584 389 584 C425 584 452 570 470 546 L189 221 Z M301 96 C265 96 234 110 213 138 L495 463 C498 442 500 418 498 393 C490 215 400 96 301 96 L301 96 Z " />
<glyph glyph-name="Ugrave" unicode="&#xd9;" horiz-adv-x="640" d="M438 733 L479 770 L353 930 L279 869 L438 733 Z M272 -9 C420 -9 534 63 564 231 L644 679 L535 679 L457 238 C441 143 388 102 303 102 C235 102 195 127 195 192 C195 207 197 225 200 241 L278 679 L137 679 L59 236 C55 214 52 186 52 165 C52 42 132 -9 272 -9 L272 -9 Z " />
<glyph glyph-name="Uacute" unicode="&#xda;" horiz-adv-x="640" d="M402 733 L610 869 L557 930 L375 770 L402 733 Z M272 -9 C420 -9 534 63 564 231 L644 679 L535 679 L457 238 C441 143 388 102 303 102 C235 102 195 127 195 192 C195 207 197 225 200 241 L278 679 L137 679 L59 236 C55 214 52 186 52 165 C52 42 132 -9 272 -9 L272 -9 Z " />
<glyph glyph-name="Ucircumflex" unicode="&#xdb;" horiz-adv-x="640" d="M322 732 L429 793 L511 732 L574 751 L447 889 L260 751 L322 732 Z M272 -9 C420 -9 534 63 564 231 L644 679 L535 679 L457 238 C441 143 388 102 303 102 C235 102 195 127 195 192 C195 207 197 225 200 241 L278 679 L137 679 L59 236 C55 214 52 186 52 165 C52 42 132 -9 272 -9 L272 -9 Z " />
<glyph glyph-name="Udieresis" unicode="&#xdc;" horiz-adv-x="640" d="M499 734 C534 734 568 763 568 800 C568 827 546 845 520 845 C485 845 452 816 452 781 C452 755 471 734 499 734 L499 734 Z M336 734 C371 734 405 763 405 799 C405 826 383 845 356 845 C323 845 290 816 290 781 C290 755 308 734 336 734 L336 734 Z M272 -9 C420 -9 534 63 564 231 L644 679 L535 679 L457 238 C441 143 388 102 303 102 C235 102 195 127 195 192 C195 207 197 225 200 241 L278 679 L137 679 L59 236 C55 214 52 186 52 165 C52 42 132 -9 272 -9 L272 -9 Z " />
<glyph glyph-name="Yacute" unicode="&#xdd;" horiz-adv-x="586" d="M378 733 L586 869 L532 930 L350 770 L378 733 Z M176 0 L316 0 L367 290 L656 679 L533 679 L333 397 L331 397 L229 679 L71 679 L227 289 L176 0 Z " />
<glyph glyph-name="Thorn" unicode="&#xde;" horiz-adv-x="588" d="M17 0 L157 0 L184 152 L328 152 C463 152 595 242 595 400 C595 512 503 568 393 568 L257 568 L277 679 L137 679 L17 0 Z M202 254 L238 458 L355 458 C416 458 454 431 454 379 C454 297 394 254 314 254 L202 254 Z " />
<glyph glyph-name="germandbls" unicode="&#xdf;" horiz-adv-x="684" d="M9 -59 L139 -59 L231 464 C248 559 309 597 368 597 C407 597 439 576 439 548 C439 489 366 462 308 458 C277 454 243 406 243 339 C243 260 297 220 410 201 C497 187 523 174 523 149 C523 115 497 79 416 79 C341 79 299 108 298 157 L185 133 C190 69 240 -9 395 -9 C562 -9 652 86 652 187 C652 263 586 306 476 314 C396 322 369 338 369 368 C369 394 387 401 440 414 C490 429 569 482 569 564 C569 648 477 689 390 689 C275 689 132 625 102 465 L96 437 L36 437 L21 350 L82 350 L9 -59 Z " />
<glyph glyph-name="agrave" unicode="&#xe0;" horiz-adv-x="553" d="M368 542 L408 579 L283 739 L207 678 L368 542 Z M161 -9 C262 -9 317 40 343 83 L345 83 L341 0 L468 0 C468 0 464 42 473 91 L515 329 C517 345 519 364 519 379 C519 486 439 516 336 516 C180 516 97 456 69 372 L182 355 C204 406 243 430 306 430 C354 430 389 414 389 364 C389 357 389 347 387 338 L383 316 L311 316 C129 316 10 234 10 117 C10 43 63 -9 161 -9 L161 -9 Z M221 76 C182 76 149 93 149 132 C149 205 225 244 325 244 L370 244 L366 224 C344 134 294 76 221 76 L221 76 Z " />
<glyph glyph-name="aacute" unicode="&#xe1;" horiz-adv-x="553" d="M318 542 L525 678 L471 739 L289 579 L318 542 Z M161 -9 C262 -9 317 40 343 83 L345 83 L341 0 L468 0 C468 0 464 42 473 91 L515 329 C517 345 519 364 519 379 C519 486 439 516 336 516 C180 516 97 456 69 372 L182 355 C204 406 243 430 306 430 C354 430 389 414 389 364 C389 357 389 347 387 338 L383 316 L311 316 C129 316 10 234 10 117 C10 43 63 -9 161 -9 L161 -9 Z M221 76 C182 76 149 93 149 132 C149 205 225 244 325 244 L370 244 L366 224 C344 134 294 76 221 76 L221 76 Z " />
<glyph glyph-name="acircumflex" unicode="&#xe2;" horiz-adv-x="553" d="M249 578 L357 639 L438 578 L501 597 L374 735 L187 597 L249 578 Z M161 -9 C262 -9 317 40 343 83 L345 83 L341 0 L468 0 C468 0 464 42 473 91 L515 329 C517 345 519 364 519 379 C519 486 439 516 336 516 C180 516 97 456 69 372 L182 355 C204 406 243 430 306 430 C354 430 389 414 389 364 C389 357 389 347 387 338 L383 316 L311 316 C129 316 10 234 10 117 C10 43 63 -9 161 -9 L161 -9 Z M221 76 C182 76 149 93 149 132 C149 205 225 244 325 244 L370 244 L366 224 C344 134 294 76 221 76 L221 76 Z " />
<glyph glyph-name="atilde" unicode="&#xe3;" horiz-adv-x="553" d="M418 594 C458 594 502 621 524 664 L479 688 C468 672 453 664 436 664 C389 664 360 707 299 707 C262 707 216 679 195 636 L238 612 C249 627 264 635 282 635 C327 635 357 594 418 594 L418 594 Z M161 -9 C262 -9 317 40 343 83 L345 83 L341 0 L468 0 C468 0 464 42 473 91 L515 329 C517 345 519 364 519 379 C519 486 439 516 336 516 C180 516 97 456 69 372 L182 355 C204 406 243 430 306 430 C354 430 389 414 389 364 C389 357 389 347 387 338 L383 316 L311 316 C129 316 10 234 10 117 C10 43 63 -9 161 -9 L161 -9 Z M221 76 C182 76 149 93 149 132 C149 205 225 244 325 244 L370 244 L366 224 C344 134 294 76 221 76 L221 76 Z " />
<glyph glyph-name="adieresis" unicode="&#xe4;" horiz-adv-x="553" d="M419 584 C454 584 489 614 489 650 C489 677 466 695 440 695 C405 695 372 666 372 631 C372 605 391 584 419 584 L419 584 Z M256 584 C291 584 326 613 326 650 C326 677 303 695 276 695 C243 695 210 666 210 631 C210 605 229 584 256 584 L256 584 Z M161 -9 C262 -9 317 40 343 83 L345 83 L341 0 L468 0 C468 0 464 42 473 91 L515 329 C517 345 519 364 519 379 C519 486 439 516 336 516 C180 516 97 456 69 372 L182 355 C204 406 243 430 306 430 C354 430 389 414 389 364 C389 357 389 347 387 338 L383 316 L311 316 C129 316 10 234 10 117 C10 43 63 -9 161 -9 L161 -9 Z M221 76 C182 76 149 93 149 132 C149 205 225 244 325 244 L370 244 L366 224 C344 134 294 76 221 76 L221 76 Z " />
<glyph glyph-name="aring" unicode="&#xe5;" horiz-adv-x="553" d="M336 560 C392 560 445 606 445 664 C445 707 413 738 367 738 C312 738 257 689 257 635 C257 591 289 560 336 560 L336 560 Z M161 -9 C262 -9 317 40 343 83 L345 83 L341 0 L468 0 C468 0 464 42 473 91 L515 329 C517 345 519 364 519 379 C519 486 439 516 336 516 C180 516 97 456 69 372 L182 355 C204 406 243 430 306 430 C354 430 389 414 389 364 C389 357 389 347 387 338 L383 316 L311 316 C129 316 10 234 10 117 C10 43 63 -9 161 -9 L161 -9 Z M342 597 C316 597 299 615 299 640 C299 669 325 699 359 699 C386 699 403 681 403 659 C403 626 374 597 342 597 L342 597 Z M221 76 C182 76 149 93 149 132 C149 205 225 244 325 244 L370 244 L366 224 C344 134 294 76 221 76 L221 76 Z " />
<glyph glyph-name="ae" unicode="&#xe6;" horiz-adv-x="904" d="M161 -9 C262 -9 346 36 402 99 L404 99 C427 36 478 -9 569 -9 C691 -9 793 48 841 146 L728 169 C700 107 639 85 603 85 C547 85 504 117 504 190 C504 203 505 218 508 233 L861 233 L865 254 C869 275 871 296 871 315 C871 430 804 516 668 516 C600 516 540 488 492 441 L490 441 C469 498 412 516 336 516 C180 516 97 456 69 372 L182 355 C204 406 243 430 306 430 C353 430 389 411 389 365 C389 357 388 345 387 338 L381 307 L309 307 C127 307 10 230 10 114 C10 41 64 -9 161 -9 L161 -9 Z M523 307 C542 391 601 430 654 430 C709 430 743 398 743 337 C743 327 742 317 740 307 L523 307 Z M221 76 C182 76 149 90 149 129 C149 194 221 233 323 233 L368 233 L365 217 C351 130 294 76 221 76 L221 76 Z " />
<glyph glyph-name="ccedilla" unicode="&#xe7;" horiz-adv-x="511" d="M182 -184 C235 -184 299 -155 299 -95 C299 -57 256 -38 211 -38 L226 -9 C337 -4 427 73 464 171 L351 191 C328 124 285 88 238 88 C184 88 157 123 157 188 C157 313 217 420 295 420 C344 420 370 384 370 315 L490 336 C487 431 431 516 309 516 C157 516 20 374 20 191 C20 89 68 4 186 -8 L151 -73 C151 -73 167 -71 178 -71 C206 -71 232 -79 232 -103 C232 -129 207 -144 181 -144 C152 -144 131 -136 114 -126 L90 -157 C114 -174 147 -184 182 -184 L182 -184 Z " />
<glyph glyph-name="egrave" unicode="&#xe8;" horiz-adv-x="557" d="M352 542 L392 579 L267 739 L192 678 L352 542 Z M223 -9 C346 -9 447 48 495 146 L382 169 C354 107 293 85 257 85 C200 85 158 118 159 192 C159 205 159 218 162 233 L516 233 L520 254 C524 273 526 296 526 316 C526 430 457 516 322 516 C168 516 21 377 21 198 C21 84 87 -9 223 -9 L223 -9 Z M177 307 C196 391 255 430 309 430 C361 430 396 396 396 334 C396 326 395 315 394 307 L177 307 Z " />
<glyph glyph-name="eacute" unicode="&#xe9;" horiz-adv-x="557" d="M323 542 L531 678 L477 739 L295 579 L323 542 Z M223 -9 C346 -9 447 48 495 146 L382 169 C354 107 293 85 257 85 C200 85 158 118 159 192 C159 205 159 218 162 233 L516 233 L520 254 C524 273 526 296 526 316 C526 430 457 516 322 516 C168 516 21 377 21 198 C21 84 87 -9 223 -9 L223 -9 Z M177 307 C196 391 255 430 309 430 C361 430 396 396 396 334 C396 326 395 315 394 307 L177 307 Z " />
<glyph glyph-name="ecircumflex" unicode="&#xea;" horiz-adv-x="557" d="M247 578 L354 639 L436 578 L499 597 L371 735 L185 597 L247 578 Z M223 -9 C346 -9 447 48 495 146 L382 169 C354 107 293 85 257 85 C200 85 158 118 159 192 C159 205 159 218 162 233 L516 233 L520 254 C524 273 526 296 526 316 C526 430 457 516 322 516 C168 516 21 377 21 198 C21 84 87 -9 223 -9 L223 -9 Z M177 307 C196 391 255 430 309 430 C361 430 396 396 396 334 C396 326 395 315 394 307 L177 307 Z " />
<glyph glyph-name="edieresis" unicode="&#xeb;" horiz-adv-x="557" d="M419 584 C454 584 489 614 489 650 C489 677 466 695 440 695 C405 695 372 666 372 631 C372 605 391 584 419 584 L419 584 Z M256 584 C291 584 326 613 326 650 C326 677 303 695 276 695 C243 695 210 666 210 631 C210 605 229 584 256 584 L256 584 Z M223 -9 C346 -9 447 48 495 146 L382 169 C354 107 293 85 257 85 C200 85 158 118 159 192 C159 205 159 218 162 233 L516 233 L520 254 C524 273 526 296 526 316 C526 430 457 516 322 516 C168 516 21 377 21 198 C21 84 87 -9 223 -9 L223 -9 Z M177 307 C196 391 255 430 309 430 C361 430 396 396 396 334 C396 326 395 315 394 307 L177 307 Z " />
<glyph glyph-name="igrave" unicode="&#xec;" horiz-adv-x="269" d="M223 542 L263 579 L138 739 L63 678 L223 542 Z M19 0 L149 0 L238 503 L108 503 L19 0 Z " />
<glyph glyph-name="iacute" unicode="&#xed;" horiz-adv-x="269" d="M174 542 L381 678 L328 739 L146 579 L174 542 Z M19 0 L149 0 L238 503 L108 503 L19 0 Z " />
<glyph glyph-name="icircumflex" unicode="&#xee;" horiz-adv-x="269" d="M95 578 L203 639 L284 578 L347 597 L220 735 L33 597 L95 578 Z M19 0 L149 0 L238 503 L108 503 L19 0 Z " />
<glyph glyph-name="idieresis" unicode="&#xef;" horiz-adv-x="269" d="M269 584 C304 584 339 614 339 650 C339 677 316 695 290 695 C255 695 222 666 222 631 C222 605 241 584 269 584 L269 584 Z M106 584 C141 584 176 613 176 650 C176 677 153 695 126 695 C93 695 60 666 60 631 C60 605 79 584 106 584 L106 584 Z M19 0 L149 0 L238 503 L108 503 L19 0 Z " />
<glyph glyph-name="eth" unicode="&#xf0;" horiz-adv-x="562" d="M224 -9 C385 -9 533 125 533 338 C533 465 481 567 419 635 L478 692 L431 738 L369 680 C340 705 310 722 283 729 L216 651 C242 645 273 632 303 613 L259 572 L307 525 L359 575 C391 547 417 514 428 479 L426 479 C412 497 369 516 324 516 C178 516 21 391 21 196 C21 77 92 -9 224 -9 L224 -9 Z M244 79 C191 79 158 109 158 185 C158 329 235 427 305 427 C356 427 392 395 392 319 C392 173 320 79 244 79 L244 79 Z " />
<glyph glyph-name="ntilde" unicode="&#xf1;" horiz-adv-x="555" d="M418 594 C458 594 501 621 523 664 L479 688 C468 672 453 664 435 664 C388 664 360 707 299 707 C261 707 216 679 195 636 L238 612 C249 627 264 635 282 635 C327 635 357 594 418 594 L418 594 Z M7 0 L137 0 L188 290 C199 352 240 419 318 419 C354 419 378 395 378 355 C378 345 377 335 376 326 L318 0 L449 0 L506 326 C508 341 510 360 510 375 C510 473 451 516 377 516 C288 516 228 457 205 418 L203 418 L218 503 L96 503 L7 0 Z " />
<glyph glyph-name="ograve" unicode="&#xf2;" horiz-adv-x="562" d="M360 542 L401 579 L276 739 L200 678 L360 542 Z M224 -9 C379 -9 530 119 530 308 C530 420 460 516 327 516 C178 516 21 396 21 196 C21 78 92 -9 224 -9 L224 -9 Z M244 79 C191 79 158 108 158 184 C158 326 227 427 305 427 C356 427 392 394 392 318 C392 166 318 79 244 79 L244 79 Z " />
<glyph glyph-name="oacute" unicode="&#xf3;" horiz-adv-x="562" d="M318 542 L525 678 L471 739 L289 579 L318 542 Z M224 -9 C379 -9 530 119 530 308 C530 420 460 516 327 516 C178 516 21 396 21 196 C21 78 92 -9 224 -9 L224 -9 Z M244 79 C191 79 158 108 158 184 C158 326 227 427 305 427 C356 427 392 394 392 318 C392 166 318 79 244 79 L244 79 Z " />
<glyph glyph-name="ocircumflex" unicode="&#xf4;" horiz-adv-x="562" d="M241 578 L349 639 L430 578 L493 597 L366 735 L179 597 L241 578 Z M224 -9 C379 -9 530 119 530 308 C530 420 460 516 327 516 C178 516 21 396 21 196 C21 78 92 -9 224 -9 L224 -9 Z M244 79 C191 79 158 108 158 184 C158 326 227 427 305 427 C356 427 392 394 392 318 C392 166 318 79 244 79 L244 79 Z " />
<glyph glyph-name="otilde" unicode="&#xf5;" horiz-adv-x="562" d="M418 594 C458 594 502 621 524 664 L479 688 C468 672 453 664 436 664 C389 664 360 707 299 707 C262 707 216 679 195 636 L238 612 C249 627 264 635 282 635 C327 635 357 594 418 594 L418 594 Z M224 -9 C379 -9 530 119 530 308 C530 420 460 516 327 516 C178 516 21 396 21 196 C21 78 92 -9 224 -9 L224 -9 Z M244 79 C191 79 158 108 158 184 C158 326 227 427 305 427 C356 427 392 394 392 318 C392 166 318 79 244 79 L244 79 Z " />
<glyph glyph-name="odieresis" unicode="&#xf6;" horiz-adv-x="562" d="M419 584 C454 584 489 614 489 650 C489 677 466 695 440 695 C405 695 372 666 372 631 C372 605 391 584 419 584 L419 584 Z M256 584 C291 584 326 613 326 650 C326 677 303 695 276 695 C243 695 210 666 210 631 C210 605 229 584 256 584 L256 584 Z M224 -9 C379 -9 530 119 530 308 C530 420 460 516 327 516 C178 516 21 396 21 196 C21 78 92 -9 224 -9 L224 -9 Z M244 79 C191 79 158 108 158 184 C158 326 227 427 305 427 C356 427 392 394 392 318 C392 166 318 79 244 79 L244 79 Z " />
<glyph glyph-name="divide" unicode="&#xf7;" horiz-adv-x="600" d="M260 420 L389 420 L412 546 L282 546 L260 420 Z M32 237 L544 237 L561 335 L49 335 L32 237 Z M190 26 L319 26 L342 153 L213 153 L190 26 Z " />
<glyph glyph-name="oslash" unicode="&#xf8;" horiz-adv-x="562" d="M-51 -43 L33 -43 L99 28 C131 4 172 -9 224 -9 C379 -9 530 118 530 311 C530 358 517 403 492 437 L600 552 L516 552 L448 480 C416 503 376 516 327 516 C178 516 21 388 21 198 C21 149 33 104 56 70 L-51 -43 Z M163 180 C161 192 161 205 162 219 C171 369 246 427 305 427 C332 427 355 418 370 399 L163 180 Z M244 79 C215 79 192 88 178 108 L387 329 C389 318 389 305 389 292 C380 137 311 79 244 79 L244 79 Z " />
<glyph glyph-name="ugrave" unicode="&#xf9;" horiz-adv-x="553" d="M360 542 L401 579 L276 739 L200 678 L360 542 Z M168 -11 C257 -11 315 47 337 86 L339 86 L324 0 L447 0 L536 503 L405 503 L353 213 C343 151 302 86 227 86 C189 86 166 109 166 152 C166 159 167 169 168 176 L226 503 L96 503 L38 177 C35 161 33 140 33 123 C33 30 93 -11 168 -11 L168 -11 Z " />
<glyph glyph-name="uacute" unicode="&#xfa;" horiz-adv-x="553" d="M314 542 L522 678 L469 739 L287 579 L314 542 Z M168 -11 C257 -11 315 47 337 86 L339 86 L324 0 L447 0 L536 503 L405 503 L353 213 C343 151 302 86 227 86 C189 86 166 109 166 152 C166 159 167 169 168 176 L226 503 L96 503 L38 177 C35 161 33 140 33 123 C33 30 93 -11 168 -11 L168 -11 Z " />
<glyph glyph-name="ucircumflex" unicode="&#xfb;" horiz-adv-x="553" d="M240 578 L347 639 L429 578 L492 597 L364 735 L178 597 L240 578 Z M168 -11 C257 -11 315 47 337 86 L339 86 L324 0 L447 0 L536 503 L405 503 L353 213 C343 151 302 86 227 86 C189 86 166 109 166 152 C166 159 167 169 168 176 L226 503 L96 503 L38 177 C35 161 33 140 33 123 C33 30 93 -11 168 -11 L168 -11 Z " />
<glyph glyph-name="udieresis" unicode="&#xfc;" horiz-adv-x="553" d="M418 584 C453 584 488 614 488 650 C488 677 465 695 439 695 C404 695 371 666 371 631 C371 605 390 584 418 584 L418 584 Z M255 584 C290 584 325 613 325 650 C325 677 302 695 275 695 C242 695 209 666 209 631 C209 605 228 584 255 584 L255 584 Z M168 -11 C257 -11 315 47 337 86 L339 86 L324 0 L447 0 L536 503 L405 503 L353 213 C343 151 302 86 227 86 C189 86 166 109 166 152 C166 159 167 169 168 176 L226 503 L96 503 L38 177 C35 161 33 140 33 123 C33 30 93 -11 168 -11 L168 -11 Z " />
<glyph glyph-name="yacute" unicode="&#xfd;" horiz-adv-x="479" d="M290 542 L498 678 L445 739 L263 579 L290 542 Z M21 -179 C104 -179 167 -140 220 -43 L512 503 L410 503 L238 163 L236 163 L187 503 L47 503 L141 10 L121 -28 C109 -57 78 -80 31 -80 C-6 -80 -37 -73 -37 -73 L-54 -171 C-54 -171 -29 -179 21 -179 L21 -179 Z " />
<glyph glyph-name="thorn" unicode="&#xfe;" horiz-adv-x="555" d="M-23 -172 L107 -172 L147 56 L149 56 C163 24 204 -9 265 -9 C403 -9 526 131 526 327 C526 428 486 516 369 516 C293 516 227 465 203 421 L201 421 L247 679 L127 679 L-23 -172 Z M253 80 C200 80 158 120 173 204 L189 293 C206 388 266 423 312 423 C358 423 386 387 386 315 C386 160 314 80 253 80 L253 80 Z " />
<glyph glyph-name="ydieresis" unicode="&#xff;" horiz-adv-x="479" d="M390 584 C424 584 459 614 459 650 C459 677 436 695 410 695 C376 695 342 666 342 631 C342 605 362 584 390 584 L390 584 Z M227 584 C262 584 296 613 296 650 C296 677 274 695 247 695 C213 695 180 666 180 631 C180 605 199 584 227 584 L227 584 Z M21 -179 C104 -179 167 -140 220 -43 L512 503 L410 503 L238 163 L236 163 L187 503 L47 503 L141 10 L121 -28 C109 -57 78 -80 31 -80 C-6 -80 -37 -73 -37 -73 L-54 -171 C-54 -171 -29 -179 21 -179 L21 -179 Z " />
<glyph glyph-name="dotlessi" unicode="&#x131;" horiz-adv-x="269" d="M19 0 L149 0 L238 503 L108 503 L19 0 Z " />
<glyph glyph-name="Lslash" unicode="&#x141;" horiz-adv-x="514" d="M17 0 L449 0 L470 114 L177 114 L215 326 L348 439 L304 492 L234 431 L277 679 L137 679 L69 291 L-59 183 L-15 130 L50 185 L17 0 Z " />
<glyph glyph-name="lslash" unicode="&#x142;" horiz-adv-x="267" d="M19 0 L149 0 L209 338 L351 458 L307 511 L228 444 L269 679 L139 679 L74 313 L-59 200 L-15 147 L56 208 L19 0 Z " />
<glyph glyph-name="OE" unicode="&#x152;" horiz-adv-x="898" d="M291 0 L808 0 L828 113 L527 113 L559 298 L786 298 L805 405 L578 405 L607 568 L900 568 L920 679 L415 679 C188 679 34 473 34 265 C34 126 117 0 291 0 L291 0 Z M320 109 C239 109 180 163 180 268 C180 449 283 570 411 570 L467 570 L386 109 L320 109 Z " />
<glyph glyph-name="oe" unicode="&#x153;" horiz-adv-x="919" d="M224 -9 C302 -9 370 23 422 81 L424 81 C450 27 500 -9 583 -9 C706 -9 807 48 855 146 L742 169 C714 107 653 85 616 85 C561 85 518 117 518 192 C518 205 519 218 522 233 L876 233 L880 254 C883 272 886 295 886 314 C886 431 818 516 682 516 C604 516 539 482 488 423 L486 423 C461 478 409 516 327 516 C177 516 21 393 21 194 C21 76 93 -9 224 -9 L224 -9 Z M537 307 C556 391 615 430 668 430 C723 430 757 398 757 337 C757 327 756 317 754 307 L537 307 Z M244 79 C191 79 158 109 158 184 C158 343 240 427 305 427 C357 427 392 395 392 316 C392 159 314 79 244 79 L244 79 Z " />
<glyph glyph-name="Scaron" unicode="&#x160;" horiz-adv-x="614" d="M393 736 L569 875 L513 893 L410 833 L324 893 L255 875 L393 736 Z M258 -9 C462 -9 576 111 576 241 C576 329 511 388 376 410 C261 428 229 453 229 491 C229 546 288 586 357 586 C431 586 477 545 483 488 L608 522 C602 605 530 689 381 689 C205 689 88 581 88 451 C88 371 145 312 287 285 C383 267 426 247 426 205 C426 141 369 99 283 99 C179 99 138 163 135 214 L5 189 C11 109 62 -9 258 -9 L258 -9 Z " />
<glyph glyph-name="scaron" unicode="&#x161;" horiz-adv-x="503" d="M321 577 L498 716 L441 735 L338 674 L252 735 L184 716 L321 577 Z M202 -9 C371 -9 464 84 464 183 C464 264 396 305 283 314 C197 323 173 336 173 365 C173 400 205 429 269 429 C343 429 368 396 374 364 L481 389 C473 469 397 516 289 516 C156 516 48 437 48 329 C48 253 112 218 218 201 C307 187 335 174 335 148 C335 115 305 79 223 79 C149 79 103 108 102 157 L-11 133 C-6 69 45 -9 202 -9 L202 -9 Z " />
<glyph glyph-name="Ydieresis" unicode="&#x178;" horiz-adv-x="586" d="M470 734 C504 734 539 763 539 800 C539 827 517 845 490 845 C456 845 423 816 423 781 C423 755 442 734 470 734 L470 734 Z M307 734 C342 734 376 763 376 799 C376 826 354 845 327 845 C294 845 260 816 260 781 C260 755 279 734 307 734 L307 734 Z M176 0 L316 0 L367 290 L656 679 L533 679 L333 397 L331 397 L229 679 L71 679 L227 289 L176 0 Z " />
<glyph glyph-name="Zcaron" unicode="&#x17d;" horiz-adv-x="594" d="M392 736 L568 875 L512 893 L409 833 L323 893 L254 875 L392 736 Z M-11 0 L507 0 L527 112 L179 112 L179 115 L598 586 L614 679 L128 679 L108 569 L426 569 L426 567 L7 102 L-11 0 Z " />
<glyph glyph-name="zcaron" unicode="&#x17e;" horiz-adv-x="443" d="M296 577 L472 716 L416 735 L313 674 L227 735 L158 716 L296 577 Z M-32 0 L373 0 L388 89 L136 89 L137 91 L449 433 L462 503 L81 503 L65 416 L284 416 L284 414 L-17 83 L-32 0 Z " />
<glyph glyph-name="florin" unicode="&#x192;" horiz-adv-x="600" d="M-24 -178 C62 -178 159 -141 220 -3 L344 276 L519 276 L535 363 L383 363 L452 521 C478 578 508 595 549 595 C583 595 614 582 614 582 L658 671 C658 671 616 689 562 689 C470 689 378 651 321 523 L251 363 L107 363 L92 276 L213 276 L97 15 C64 -57 35 -78 -15 -78 C-41 -78 -63 -71 -63 -71 L-108 -160 C-108 -160 -87 -178 -24 -178 L-24 -178 Z " />
<glyph glyph-name="circumflex" unicode="&#x2c6;" horiz-adv-x="562" d="M241 578 L349 639 L430 578 L493 597 L366 735 L179 597 L241 578 Z " />
<glyph glyph-name="caron" unicode="&#x2c7;" horiz-adv-x="562" d="M338 577 L514 716 L457 735 L355 674 L268 735 L200 716 L338 577 Z " />
<glyph glyph-name="breve" unicode="&#x2d8;" horiz-adv-x="491" d="M308 582 C384 582 468 621 505 715 L443 715 C413 668 366 652 319 652 C275 652 224 667 217 715 L148 715 C157 614 225 582 308 582 L308 582 Z " />
<glyph glyph-name="dotaccent" unicode="&#x2d9;" horiz-adv-x="269" d="M115 574 L255 574 L275 683 L135 683 L115 574 Z " />
<glyph glyph-name="ring" unicode="&#x2da;" horiz-adv-x="553" d="M336 560 C392 560 445 606 445 664 C445 707 413 738 367 738 C312 738 257 689 257 635 C257 591 289 560 336 560 L336 560 Z M342 597 C316 597 299 615 299 640 C299 669 325 699 359 699 C386 699 403 681 403 659 C403 626 374 597 342 597 L342 597 Z " />
<glyph glyph-name="ogonek" unicode="&#x2db;" horiz-adv-x="467" d="M150 -143 C190 -143 230 -124 252 -108 L235 -77 C220 -86 199 -94 175 -94 C155 -94 135 -85 135 -65 C135 -38 153 -16 185 -3 L186 0 L147 -5 C96 -24 64 -59 64 -89 C64 -128 110 -143 150 -143 L150 -143 Z " />
<glyph glyph-name="tilde" unicode="&#x2dc;" horiz-adv-x="562" d="M418 594 C458 594 502 621 524 664 L479 688 C468 672 453 664 436 664 C389 664 360 707 299 707 C262 707 216 679 195 636 L238 612 C249 627 264 635 282 635 C327 635 357 594 418 594 L418 594 Z " />
<glyph glyph-name="hungarumlaut" unicode="&#x2dd;" horiz-adv-x="610" d="M384 542 L591 678 L538 739 L356 579 L384 542 Z M216 542 L424 678 L371 739 L189 579 L216 542 Z " />
<glyph glyph-name="endash" unicode="&#x2013;" horiz-adv-x="485" d="M-12 214 L473 214 L490 312 L5 312 L-12 214 Z " />
<glyph glyph-name="emdash" unicode="&#x2014;" horiz-adv-x="980" d="M-12 214 L968 214 L985 312 L5 312 L-12 214 Z " />
<glyph glyph-name="quoteleft" unicode="&#x2018;" horiz-adv-x="288" d="M86 417 L226 417 L248 547 L186 547 L268 679 L212 679 L108 542 L86 417 Z " />
<glyph glyph-name="quoteright" unicode="&#x2019;" horiz-adv-x="288" d="M101 417 L157 417 L260 553 L282 679 L143 679 L120 549 L183 549 L101 417 Z " />
<glyph glyph-name="quotesinglbase" unicode="&#x201a;" horiz-adv-x="288" d="M4 -132 L60 -132 L163 5 L186 130 L47 130 L23 0 L86 0 L4 -132 Z " />
<glyph glyph-name="quotedblleft" unicode="&#x201c;" horiz-adv-x="477" d="M283 417 L422 417 L445 547 L382 547 L464 679 L408 679 L305 542 L283 417 Z M89 417 L228 417 L251 547 L188 547 L270 679 L214 679 L111 542 L89 417 Z " />
<glyph glyph-name="quotedblright" unicode="&#x201d;" horiz-adv-x="477" d="M295 417 L351 417 L454 553 L476 679 L337 679 L314 549 L377 549 L295 417 Z M101 417 L157 417 L260 553 L282 679 L143 679 L120 549 L183 549 L101 417 Z " />
<glyph glyph-name="quotedblbase" unicode="&#x201e;" horiz-adv-x="477" d="M198 -132 L254 -132 L357 5 L380 130 L240 130 L217 0 L280 0 L198 -132 Z M4 -132 L60 -132 L163 5 L186 130 L47 130 L23 0 L86 0 L4 -132 Z " />
<glyph glyph-name="dagger" unicode="&#x2020;" horiz-adv-x="548" d="M169 -170 L220 -170 L229 -115 C262 84 320 288 356 368 L324 419 L324 421 L531 396 L525 452 L551 506 L335 470 L411 680 L340 660 L275 680 L280 470 L77 506 L82 452 L58 396 L273 421 L273 420 L219 368 C229 309 208 82 178 -116 L169 -170 Z " />
<glyph glyph-name="daggerdbl" unicode="&#x2021;" horiz-adv-x="535" d="M169 -170 L220 -170 L229 -115 C251 18 293 133 329 213 L296 264 L297 266 L504 241 L497 297 L523 351 L315 316 L360 389 L326 434 L326 436 L534 411 L528 467 L553 522 L337 485 L411 680 L340 660 L275 680 L283 485 L79 522 L85 467 L61 411 L276 436 L276 435 L223 389 L246 316 L49 351 L55 297 L30 241 L246 266 L246 265 L192 213 C201 154 198 17 178 -116 L169 -170 Z " />
<glyph glyph-name="bullet" unicode="&#x2022;" horiz-adv-x="411" d="M182 151 C289 151 379 243 379 347 C379 424 322 479 239 479 C133 479 41 386 41 283 C41 205 98 151 182 151 L182 151 Z " />
<glyph glyph-name="ellipsis" unicode="&#x2026;" horiz-adv-x="872" d="M603 0 L749 0 L774 142 L629 142 L603 0 Z M313 0 L458 0 L484 142 L338 142 L313 0 Z M23 0 L168 0 L194 142 L48 142 L23 0 Z " />
<glyph glyph-name="perthousand" unicode="&#x2030;" horiz-adv-x="990" d="M170 335 C285 335 346 459 346 557 C346 628 312 689 230 689 C118 689 55 571 55 471 C55 400 88 335 170 335 L170 335 Z M24 0 L114 0 L646 679 L557 679 L24 0 Z M774 -10 C888 -10 950 114 950 213 C950 283 916 344 834 344 C722 344 659 226 659 126 C659 55 692 -10 774 -10 L774 -10 Z M455 -10 C569 -10 631 114 631 213 C631 283 597 344 515 344 C403 344 340 226 340 126 C340 55 373 -10 455 -10 L455 -10 Z M182 401 C143 401 134 433 134 465 C134 540 161 623 219 623 C257 623 268 594 268 559 C268 500 247 401 182 401 L182 401 Z M785 56 C747 56 738 88 738 121 C738 195 765 278 822 278 C860 278 872 249 872 214 C872 155 850 56 785 56 L785 56 Z M466 56 C428 56 419 88 419 121 C419 195 445 278 503 278 C541 278 553 249 553 214 C553 155 531 56 466 56 L466 56 Z " />
<glyph glyph-name="guilsinglleft" unicode="&#x2039;" horiz-adv-x="248" d="M100 106 L159 106 L137 256 L211 400 L151 400 L35 256 L100 106 Z " />
<glyph glyph-name="guilsinglright" unicode="&#x203a;" horiz-adv-x="248" d="M17 106 L75 106 L193 256 L128 400 L69 400 L91 256 L17 106 Z " />
<glyph glyph-name="fraction" unicode="&#x2044;" horiz-adv-x="140" d="M-228 0 L-135 0 L396 679 L303 679 L-228 0 Z " />
<glyph glyph-name="Euro" unicode="&#x20ac;" horiz-adv-x="600" d="M305 -9 C441 -9 541 96 583 226 L464 242 C443 163 392 91 317 91 C242 91 223 158 223 228 L327 228 L368 313 L227 313 C228 324 230 334 232 342 C233 348 234 354 235 360 L393 360 L433 446 L258 446 C281 518 322 589 397 589 C479 589 497 522 494 436 L619 451 C620 561 566 689 409 689 C265 689 173 574 129 446 L39 446 L25 360 L105 360 C103 353 102 346 101 339 C99 330 98 322 97 313 L16 313 L1 228 L92 228 C96 108 152 -9 305 -9 L305 -9 Z " />
<glyph glyph-name="trademark" unicode="&#x2122;" horiz-adv-x="825" d="M342 279 L410 279 L460 560 L462 560 L520 279 L582 279 L730 560 L732 560 L682 279 L767 279 L838 680 L730 680 L584 408 L582 408 L525 680 L413 680 L342 279 Z M109 279 L197 279 L255 604 L353 604 L366 680 L82 680 L69 604 L167 604 L109 279 Z " />
<glyph glyph-name="partialdiff" unicode="&#x2202;" horiz-adv-x="562" d="M224 -9 C385 -9 533 125 533 338 C533 558 377 704 283 729 L216 651 C287 636 401 565 428 479 L426 479 C412 497 369 516 324 516 C178 516 21 391 21 196 C21 77 92 -9 224 -9 L224 -9 Z M244 79 C191 79 158 109 158 185 C158 329 235 427 305 427 C356 427 392 395 392 319 C392 173 320 79 244 79 L244 79 Z " />
<glyph glyph-name="minus" unicode="&#x2212;" horiz-adv-x="600" d="M32 237 L544 237 L561 335 L49 335 L32 237 Z " />
<glyph glyph-name="integral" unicode="&#x222b;" horiz-adv-x="600" d="M-24 -178 C62 -178 159 -141 220 -3 L452 521 C478 578 508 595 549 595 C583 595 614 582 614 582 L658 671 C658 671 616 689 562 689 C470 689 378 651 321 523 L97 15 C64 -58 35 -78 -15 -78 C-41 -78 -63 -71 -63 -71 L-108 -160 C-108 -160 -87 -178 -24 -178 L-24 -178 Z " />
<glyph glyph-name="fi" unicode="&#xfb01;" horiz-adv-x="593" d="M437 574 L577 574 L596 683 L456 683 L437 574 Z M37 0 L167 0 L240 409 L360 409 L375 497 L255 497 L259 521 C268 580 296 593 337 593 C354 593 414 588 414 588 L431 684 C431 684 347 689 320 689 C235 689 150 651 129 523 L125 497 L46 497 L31 409 L110 409 L37 0 Z M341 0 L471 0 L560 503 L430 503 L341 0 Z " />
<glyph glyph-name="fl" unicode="&#xfb02;" horiz-adv-x="589" d="M37 0 L167 0 L240 409 L354 409 L370 497 L255 497 L259 521 C268 580 296 595 337 595 C374 595 414 587 414 587 L430 678 C430 678 372 689 320 689 C235 689 150 651 129 523 L125 497 L46 497 L31 409 L110 409 L37 0 Z M339 0 L469 0 L589 679 L459 679 L339 0 Z " />
</font>
</svg>
