<?xml version="1.0" encoding="UTF-8"?>
<svg xmlns="http://www.w3.org/2000/svg" xmlns:xlink="http://www.w3.org/1999/xlink" version="1.2" >
<font id="TeeFranklin-Thin">
<font-face  font-family="TeeFranklin" units-per-em="1000" ascent="679" descent="-174" font-style="normal" font-weight="100" font-stretch="normal" cap-height="679" x-height="503" underline-position="-90" underline-thickness="20" />
<missing-glyph  horiz-adv-x="500" d="" />
<glyph glyph-name="NULL" d="" />
<glyph glyph-name="CR" unicode="&#xd;" horiz-adv-x="250" d="" />
<glyph glyph-name="space" unicode="&#x20;" horiz-adv-x="290" d="" />
<glyph glyph-name="exclam" unicode="&#x21;" horiz-adv-x="200" d="M92 141 L107 141 L121 679 L79 679 L92 141 Z M82 0 L119 0 L119 37 L82 37 L82 0 Z " />
<glyph glyph-name="quotedbl" unicode="&#x22;" horiz-adv-x="314" d="M215 447 L232 447 L240 555 L240 679 L207 679 L207 555 L215 447 Z M88 447 L106 447 L113 555 L113 679 L81 679 L81 555 L88 447 Z " />
<glyph glyph-name="numbersign" unicode="&#x23;" horiz-adv-x="583" d="M132 0 L157 0 L201 245 L343 245 L299 0 L324 0 L368 245 L520 245 L520 270 L373 270 L399 416 L552 416 L552 440 L404 440 L446 679 L420 679 L378 440 L237 440 L279 679 L254 679 L212 440 L58 440 L58 416 L206 416 L180 270 L27 270 L27 245 L176 245 L132 0 Z M205 270 L232 416 L373 416 L347 270 L205 270 Z " />
<glyph glyph-name="dollar" unicode="&#x24;" horiz-adv-x="583" d="M270 -74 L296 -74 L296 -3 C441 -1 519 70 519 180 C519 282 447 340 296 367 L296 660 C398 655 457 594 472 503 L499 508 C485 609 414 680 296 685 L296 750 L270 750 L270 685 C147 679 80 605 80 519 C80 428 128 368 270 342 L270 23 C130 32 82 139 76 193 L47 187 C55 127 106 6 270 -3 L270 -74 Z M270 371 C141 396 109 448 109 521 C109 594 167 656 270 660 L270 371 Z M296 22 L296 338 C427 312 488 268 488 180 C488 81 422 24 296 22 L296 22 Z " />
<glyph glyph-name="percent" unicode="&#x25;" horiz-adv-x="601" d="M156 352 C253 352 297 434 297 519 C297 607 254 689 154 689 C56 689 14 607 14 519 C14 434 59 352 156 352 L156 352 Z M52 0 L84 0 L543 679 L512 679 L52 0 Z M442 -9 C539 -9 583 74 583 159 C583 247 540 328 440 328 C342 328 300 247 300 159 C300 74 345 -9 442 -9 L442 -9 Z M156 374 C72 374 39 447 39 519 C39 594 70 667 154 667 C239 667 271 594 271 519 C271 447 239 374 156 374 L156 374 Z M442 13 C358 13 326 86 326 159 C326 233 356 306 440 306 C526 306 557 233 557 159 C557 86 526 13 442 13 L442 13 Z " />
<glyph glyph-name="ampersand" unicode="&#x26;" horiz-adv-x="627" d="M226 -9 C300 -9 365 17 419 61 C447 22 478 -3 528 -3 C557 -3 595 7 595 7 L595 31 C595 31 559 23 530 23 C495 23 467 41 439 81 C514 152 567 258 583 359 L557 363 C542 265 496 167 424 101 L250 379 C344 418 427 467 427 558 C427 637 360 689 284 689 C205 689 143 631 143 558 C143 498 174 448 212 388 C119 349 30 292 30 177 C30 74 110 -9 226 -9 L226 -9 Z M238 398 L229 412 C199 460 171 503 171 559 C171 615 221 664 284 664 C347 664 400 620 400 557 C400 479 330 437 238 398 L238 398 Z M228 16 C127 16 60 86 60 178 C60 283 141 334 224 369 L404 82 C355 40 295 16 228 16 L228 16 Z " />
<glyph glyph-name="quotesingle" unicode="&#x27;" horiz-adv-x="196" d="M88 447 L106 447 L113 555 L113 679 L81 679 L81 555 L88 447 Z " />
<glyph glyph-name="parenleft" unicode="&#x28;" horiz-adv-x="259" d="M207 -169 L226 -169 C144 -49 88 97 88 258 C88 413 146 560 225 680 L206 680 C121 562 60 416 60 257 C60 98 115 -57 207 -169 L207 -169 Z " />
<glyph glyph-name="parenright" unicode="&#x29;" horiz-adv-x="259" d="M41 -169 L60 -169 C152 -57 207 98 207 257 C207 416 146 562 61 680 L42 680 C121 560 179 413 179 258 C179 97 123 -49 41 -169 L41 -169 Z " />
<glyph glyph-name="asterisk" unicode="&#x2a;" horiz-adv-x="332" d="M186 403 L219 412 L166 537 L301 524 L301 558 L167 547 L219 669 L188 679 L158 549 L57 637 L38 609 L152 541 L38 471 L59 443 L158 533 L186 403 Z " />
<glyph glyph-name="plus" unicode="&#x2b;" horiz-adv-x="583" d="M275 43 L300 43 L300 278 L535 278 L535 303 L300 303 L300 539 L275 539 L275 303 L40 303 L40 278 L275 278 L275 43 Z " />
<glyph glyph-name="comma" unicode="&#x2c;" horiz-adv-x="201" d="M56 -103 L69 -103 L122 4 L122 41 L82 41 L82 0 L99 0 L56 -103 Z " />
<glyph glyph-name="hyphen" unicode="&#x2d;" horiz-adv-x="240" d="M11 244 L223 244 L223 269 L11 269 L11 244 Z " />
<glyph glyph-name="period" unicode="&#x2e;" horiz-adv-x="205" d="M83 0 L122 0 L122 38 L83 38 L83 0 Z " />
<glyph glyph-name="slash" unicode="&#x2f;" horiz-adv-x="475" d="M17 -169 L44 -169 L460 680 L432 680 L17 -169 Z " />
<glyph glyph-name="zero" unicode="0" horiz-adv-x="583" d="M294 -9 C463 -9 541 154 541 346 C541 526 461 689 291 689 C121 689 40 520 40 336 C40 153 123 -9 294 -9 L294 -9 Z M294 16 C138 16 71 171 71 337 C71 504 136 664 291 664 C448 664 511 503 511 344 C511 168 449 16 294 16 L294 16 Z " />
<glyph glyph-name="one" unicode="1" horiz-adv-x="583" d="M97 0 L539 0 L539 25 L345 25 L345 679 L318 679 C274 612 195 540 111 515 L111 483 C195 512 278 588 313 638 L315 638 L315 25 L97 25 L97 0 Z " />
<glyph glyph-name="two" unicode="2" horiz-adv-x="583" d="M53 0 L520 0 L520 26 L107 26 L107 28 L352 218 C440 286 519 371 519 476 C519 604 412 689 296 689 C172 689 77 613 56 493 L86 487 C103 594 181 664 295 664 C399 664 489 584 489 476 C489 383 418 304 328 234 L53 19 L53 0 Z " />
<glyph glyph-name="three" unicode="3" horiz-adv-x="583" d="M282 -9 C414 -9 531 57 531 183 C531 278 455 344 366 357 L366 359 C438 371 504 437 504 515 C504 637 402 689 290 689 C181 689 91 633 60 535 L87 528 C114 610 188 664 288 664 C390 664 474 618 474 514 C474 433 403 369 295 369 L199 369 L199 344 L291 344 C426 344 501 273 501 183 C501 72 397 16 281 16 C176 16 88 63 61 162 L34 154 C65 44 165 -9 282 -9 L282 -9 Z " />
<glyph glyph-name="four" unicode="4" horiz-adv-x="583" d="M390 0 L420 0 L420 178 L547 178 L547 203 L420 203 L420 679 L385 679 L36 202 L36 178 L390 178 L390 0 Z M67 203 L67 205 L388 645 L390 645 L390 203 L67 203 Z " />
<glyph glyph-name="five" unicode="5" horiz-adv-x="583" d="M274 -9 C422 -9 526 82 526 231 C526 364 425 453 299 453 C202 453 145 404 123 371 L121 371 L142 652 L489 652 L493 679 L116 679 L92 334 L120 327 C146 381 207 427 298 427 C408 427 497 350 497 231 C497 93 405 16 275 16 C175 16 98 74 75 158 L47 150 C74 51 167 -9 274 -9 L274 -9 Z " />
<glyph glyph-name="six" unicode="6" horiz-adv-x="583" d="M294 -9 C420 -9 534 76 534 221 C534 353 446 444 301 444 C182 444 94 366 75 301 L73 301 C77 531 152 663 303 663 C424 663 466 603 484 545 L512 552 C493 618 440 689 303 689 C145 689 48 554 48 290 C48 120 136 -9 294 -9 L294 -9 Z M293 16 C171 16 79 113 79 253 C79 332 180 419 298 419 C421 419 505 345 505 221 C505 86 405 16 293 16 L293 16 Z " />
<glyph glyph-name="seven" unicode="7" horiz-adv-x="583" d="M213 0 L244 0 L244 22 C244 234 357 485 517 656 L517 679 L86 679 L80 652 L482 652 L482 650 C334 488 213 237 213 0 L213 0 Z " />
<glyph glyph-name="eight" unicode="8" horiz-adv-x="583" d="M295 -9 C414 -9 544 46 544 176 C544 280 411 345 334 364 L334 366 C411 385 514 449 514 536 C514 640 418 689 297 689 C189 689 70 647 70 529 C70 439 184 376 251 362 L251 360 C175 341 36 265 36 168 C36 47 169 -9 295 -9 L295 -9 Z M294 375 C213 392 100 446 100 530 C100 631 199 664 297 664 C408 664 487 627 487 535 C487 449 386 397 294 375 L294 375 Z M293 16 C184 16 66 62 66 168 C66 258 197 330 293 351 C387 327 514 270 514 174 C514 62 396 16 293 16 L293 16 Z " />
<glyph glyph-name="nine" unicode="9" horiz-adv-x="583" d="M263 -9 C415 -9 522 126 522 387 C522 560 435 689 270 689 C148 689 36 607 36 462 C36 328 124 236 273 236 C393 236 476 314 495 378 L497 378 C494 157 410 17 263 17 C143 17 102 77 85 133 L57 125 C76 62 126 -9 263 -9 L263 -9 Z M275 261 C149 261 65 336 65 463 C65 597 165 664 270 664 C400 664 491 565 491 425 C491 348 394 261 275 261 L275 261 Z " />
<glyph glyph-name="colon" unicode="&#x3a;" horiz-adv-x="205" d="M83 465 L122 465 L122 503 L83 503 L83 465 Z M83 0 L122 0 L122 38 L83 38 L83 0 Z " />
<glyph glyph-name="semicolon" unicode="&#x3b;" horiz-adv-x="201" d="M82 465 L120 465 L120 503 L82 503 L82 465 Z M56 -103 L69 -103 L122 4 L122 41 L82 41 L82 0 L99 0 L56 -103 Z " />
<glyph glyph-name="less" unicode="&#x3c;" horiz-adv-x="583" d="M527 70 L527 98 L72 285 L72 287 L527 475 L527 501 L43 298 L43 273 L527 70 Z " />
<glyph glyph-name="equal" unicode="&#x3d;" horiz-adv-x="583" d="M42 362 L537 362 L537 386 L42 386 L42 362 Z M40 196 L535 196 L535 220 L40 220 L40 196 Z " />
<glyph glyph-name="greater" unicode="&#x3e;" horiz-adv-x="583" d="M48 70 L532 273 L532 298 L48 501 L48 475 L503 287 L503 285 L48 98 L48 70 Z " />
<glyph glyph-name="question" unicode="&#x3f;" horiz-adv-x="459" d="M193 149 L221 149 L221 213 C221 279 249 307 292 328 C380 372 432 430 432 509 C432 622 336 689 227 689 C117 689 35 608 22 497 L49 493 C63 595 132 663 226 663 C320 663 401 608 401 509 C401 439 357 390 277 349 C223 322 193 287 193 211 L193 149 Z M189 0 L226 0 L226 36 L189 36 L189 0 Z " />
<glyph glyph-name="at" unicode="&#x40;" horiz-adv-x="746" d="M373 -109 C449 -109 489 -94 489 -94 L482 -74 C482 -74 449 -87 373 -87 C181 -87 65 66 65 252 C65 442 188 588 381 588 C570 588 676 453 676 241 C676 135 643 12 566 12 C538 12 513 44 513 142 L513 323 C513 427 456 452 387 452 C304 452 258 411 249 349 L275 345 C285 401 324 431 388 431 C441 431 488 412 488 324 L488 290 L409 290 C294 290 237 252 237 177 C237 114 286 70 360 70 C442 70 478 116 486 145 L488 145 C488 23 521 -10 566 -10 C661 -10 701 137 701 241 C701 463 581 609 381 609 C176 609 40 454 40 252 C40 56 169 -109 373 -109 L373 -109 Z M363 91 C307 91 264 127 264 177 C264 240 313 268 413 268 L488 268 L488 222 C488 135 436 91 363 91 L363 91 Z " />
<glyph glyph-name="A" unicode="A" horiz-adv-x="509" d="M10 0 L40 0 L112 217 L393 217 L466 0 L499 0 L271 679 L237 679 L10 0 Z M120 242 L251 641 L253 641 L385 242 L120 242 Z " />
<glyph glyph-name="B" unicode="B" horiz-adv-x="557" d="M79 0 L291 0 C407 0 515 45 515 183 C515 297 429 350 335 355 L335 357 C407 367 476 416 476 516 C476 643 376 679 257 679 L79 679 L79 0 Z M109 364 L109 653 L254 653 C367 653 446 624 446 514 C446 400 356 364 247 364 L109 364 Z M109 26 L109 340 L286 340 C400 340 485 296 485 184 C485 66 396 26 286 26 L109 26 Z " />
<glyph glyph-name="C" unicode="C" horiz-adv-x="573" d="M295 -9 C433 -9 512 86 540 218 L511 224 C485 96 409 17 295 17 C163 17 71 148 71 335 C71 524 154 663 301 663 C413 663 482 577 508 460 L537 466 C509 589 434 689 300 689 C125 689 40 519 40 335 C40 155 126 -9 295 -9 L295 -9 Z " />
<glyph glyph-name="D" unicode="D" horiz-adv-x="583" d="M80 0 L276 0 C449 0 543 152 543 348 C543 519 449 679 274 679 L80 679 L80 0 Z M110 26 L110 653 L272 653 C418 653 512 524 512 347 C512 140 410 26 270 26 L110 26 Z " />
<glyph glyph-name="E" unicode="E" horiz-adv-x="544" d="M80 0 L499 0 L499 26 L110 26 L110 342 L416 342 L416 368 L110 368 L110 652 L486 652 L486 679 L80 679 L80 0 Z " />
<glyph glyph-name="F" unicode="F" horiz-adv-x="462" d="M80 0 L110 0 L110 342 L413 342 L413 368 L110 368 L110 652 L472 652 L472 679 L80 679 L80 0 Z " />
<glyph glyph-name="G" unicode="G" horiz-adv-x="616" d="M295 -9 C438 -9 501 89 517 145 L519 145 L531 0 L548 0 L548 318 L314 318 L314 292 L517 292 L517 235 C517 112 434 17 296 17 C163 17 71 142 71 335 C71 524 162 663 308 663 C417 663 488 590 512 480 L542 486 C515 602 435 689 310 689 C135 689 40 520 40 335 C40 149 126 -9 295 -9 L295 -9 Z " />
<glyph glyph-name="H" unicode="H" horiz-adv-x="588" d="M80 0 L110 0 L110 344 L479 344 L479 0 L509 0 L509 679 L479 679 L479 371 L110 371 L110 679 L80 679 L80 0 Z " />
<glyph glyph-name="I" unicode="I" horiz-adv-x="195" d="M84 0 L114 0 L114 679 L84 679 L84 0 Z " />
<glyph glyph-name="J" unicode="J" horiz-adv-x="322" d="M90 -9 C183 -9 242 46 242 191 L242 680 L212 680 L212 190 C212 67 169 17 88 17 C32 17 -5 33 -5 33 L-5 6 C-5 6 28 -9 90 -9 L90 -9 Z " />
<glyph glyph-name="K" unicode="K" horiz-adv-x="555" d="M80 0 L110 0 L110 188 L269 389 L515 0 L551 0 L289 414 L499 679 L463 679 L112 230 L110 230 L110 679 L80 679 L80 0 Z " />
<glyph glyph-name="L" unicode="L" horiz-adv-x="474" d="M80 0 L463 0 L463 27 L110 27 L110 679 L80 679 L80 0 Z " />
<glyph glyph-name="M" unicode="M" horiz-adv-x="767" d="M80 0 L107 0 L107 626 L111 626 L371 0 L400 0 L653 626 L657 626 L657 0 L687 0 L687 679 L646 679 L388 44 L386 44 L121 679 L80 679 L80 0 Z " />
<glyph glyph-name="N" unicode="N" horiz-adv-x="617" d="M80 0 L107 0 L107 637 L109 637 L508 0 L537 0 L537 679 L511 679 L511 53 L509 53 L116 679 L80 679 L80 0 Z " />
<glyph glyph-name="O" unicode="O" horiz-adv-x="605" d="M305 -9 C479 -9 565 156 565 348 C565 519 479 689 304 689 C129 689 40 516 40 335 C40 154 130 -9 305 -9 L305 -9 Z M305 16 C158 16 71 156 71 335 C71 517 154 663 305 663 C456 663 534 514 534 347 C534 157 454 16 305 16 L305 16 Z " />
<glyph glyph-name="P" unicode="P" horiz-adv-x="486" d="M80 0 L110 0 L110 300 L260 300 C376 300 476 357 476 494 C476 624 382 679 260 679 L80 679 L80 0 Z M110 325 L110 653 L259 653 C373 653 445 605 445 493 C445 376 365 325 256 325 L110 325 Z " />
<glyph glyph-name="Q" unicode="Q" horiz-adv-x="605" d="M437 -162 C478 -162 499 -149 499 -149 L499 -124 C499 -124 469 -132 430 -132 C377 -132 330 -103 330 -7 C486 7 566 163 566 348 C566 519 480 689 304 689 C129 689 40 516 40 335 C40 154 130 -8 305 -9 C307 -115 351 -162 437 -162 L437 -162 Z M328 19 C327 161 278 221 214 221 C163 221 126 186 124 126 L122 126 C92 179 71 247 71 335 C71 524 159 663 306 663 C451 663 535 519 535 347 C535 160 456 32 328 19 L328 19 Z M304 16 C228 17 140 64 140 126 C140 168 166 199 213 199 C264 199 304 150 304 16 L304 16 Z " />
<glyph glyph-name="R" unicode="R" horiz-adv-x="518" d="M80 0 L110 0 L110 319 L281 319 L462 0 L497 0 L311 324 C403 335 479 385 479 503 C479 633 385 679 263 679 L80 679 L80 0 Z M110 345 L110 653 L262 653 C376 653 449 613 449 503 C449 388 369 345 259 345 L110 345 Z " />
<glyph glyph-name="S" unicode="S" horiz-adv-x="540" d="M274 -9 C424 -9 506 63 506 178 C506 283 431 343 264 370 C125 393 90 447 90 523 C90 600 154 664 266 664 C378 664 443 600 458 505 L486 511 C471 616 394 689 267 689 C133 689 60 611 60 521 C60 427 110 366 252 341 C407 314 475 270 475 177 C475 76 404 17 274 17 C116 17 63 132 57 190 L27 184 C36 120 92 -9 274 -9 L274 -9 Z " />
<glyph glyph-name="T" unicode="T" horiz-adv-x="483" d="M227 0 L258 0 L258 652 L475 652 L475 679 L10 679 L10 652 L227 652 L227 0 Z " />
<glyph glyph-name="U" unicode="U" horiz-adv-x="605" d="M300 -9 C434 -9 525 71 525 225 L525 679 L498 679 L498 225 C498 78 409 18 302 18 C195 18 110 78 110 221 L110 679 L80 679 L80 225 C80 69 166 -9 300 -9 L300 -9 Z " />
<glyph glyph-name="V" unicode="V" horiz-adv-x="490" d="M229 0 L260 0 L490 679 L459 679 L247 43 L245 43 L33 679 L0 679 L229 0 Z " />
<glyph glyph-name="W" unicode="W" horiz-adv-x="753" d="M178 0 L209 0 L375 619 L377 619 L545 0 L576 0 L753 679 L723 679 L563 48 L561 48 L390 679 L365 679 L196 49 L194 49 L34 679 L0 679 L178 0 Z " />
<glyph glyph-name="X" unicode="X" horiz-adv-x="505" d="M23 0 L54 0 L251 331 L253 331 L448 0 L483 0 L268 359 L461 679 L430 679 L254 384 L252 384 L79 679 L44 679 L236 356 L23 0 Z " />
<glyph glyph-name="Y" unicode="Y" horiz-adv-x="466" d="M218 0 L248 0 L248 317 L464 679 L432 679 L236 343 L234 343 L37 679 L1 679 L218 316 L218 0 Z " />
<glyph glyph-name="Z" unicode="Z" horiz-adv-x="535" d="M38 0 L496 0 L496 26 L74 26 L74 29 L485 656 L485 679 L75 679 L75 653 L449 653 L449 651 L38 26 L38 0 Z " />
<glyph glyph-name="bracketleft" unicode="&#x5b;" horiz-adv-x="209" d="M60 -169 L191 -169 L191 -146 L87 -146 L87 658 L191 658 L191 680 L60 680 L60 -169 Z " />
<glyph glyph-name="backslash" unicode="&#x5c;" horiz-adv-x="475" d="M431 -169 L457 -169 L44 680 L16 680 L431 -169 Z " />
<glyph glyph-name="bracketright" unicode="&#x5d;" horiz-adv-x="209" d="M21 -169 L152 -169 L152 680 L21 680 L21 658 L125 658 L125 -146 L21 -146 L21 -169 Z " />
<glyph glyph-name="asciicircum" unicode="&#x5e;" horiz-adv-x="583" d="M99 255 L128 255 L285 650 L287 650 L446 255 L472 255 L299 679 L272 679 L99 255 Z " />
<glyph glyph-name="underscore" unicode="&#x5f;" horiz-adv-x="431" d="M0 -111 L431 -111 L431 -91 L0 -91 L0 -111 Z " />
<glyph glyph-name="grave" unicode="&#x60;" horiz-adv-x="498" d="M308 551 L316 562 L152 712 L129 695 L308 551 Z " />
<glyph glyph-name="a" unicode="a" horiz-adv-x="484" d="M214 -9 C326 -9 378 55 391 101 L393 101 L406 0 L435 0 C435 0 424 82 424 91 L424 340 C424 483 349 516 254 516 C142 516 76 460 64 379 L92 374 C106 451 160 492 253 492 C329 492 396 469 396 342 L396 289 L283 289 C121 289 46 239 46 137 C46 51 114 -9 214 -9 L214 -9 Z M217 15 C137 15 76 65 76 136 C76 227 145 265 288 265 L396 265 L396 199 C396 75 322 15 217 15 L217 15 Z " />
<glyph glyph-name="b" unicode="b" horiz-adv-x="496" d="M260 -9 C382 -9 456 97 456 259 C456 378 416 516 271 516 C177 516 121 439 101 375 L99 375 L99 679 L70 679 L70 0 L83 0 L97 126 L99 126 C114 71 161 -9 260 -9 L260 -9 Z M261 16 C160 16 99 116 99 227 L99 282 C99 399 177 491 269 491 C385 491 426 378 426 258 C426 98 356 16 261 16 L261 16 Z " />
<glyph glyph-name="c" unicode="c" horiz-adv-x="457" d="M235 -9 C337 -9 408 59 430 171 L400 175 C380 70 317 16 236 16 C119 16 70 122 70 256 C70 413 144 491 244 491 C336 491 381 420 397 334 L426 338 C408 431 355 516 244 516 C122 516 40 414 40 256 C40 125 93 -9 235 -9 L235 -9 Z " />
<glyph glyph-name="d" unicode="d" horiz-adv-x="496" d="M226 -9 C320 -9 376 68 396 132 L398 132 L398 0 L426 0 L426 679 L397 679 L397 385 L395 385 C383 437 335 516 237 516 C117 516 40 410 40 248 C40 129 81 -9 226 -9 L226 -9 Z M227 16 C111 16 70 129 70 249 C70 409 143 491 237 491 C337 491 397 396 397 281 L397 225 C397 108 319 16 227 16 L227 16 Z " />
<glyph glyph-name="e" unicode="e" horiz-adv-x="498" d="M244 -9 C348 -9 426 46 454 145 L426 150 C399 58 325 16 247 16 C125 16 72 114 71 249 L458 249 L458 257 C458 389 406 516 255 516 C128 516 40 414 40 256 C40 121 92 -9 244 -9 L244 -9 Z M71 272 C75 416 153 492 255 492 C375 492 427 389 428 272 L71 272 Z " />
<glyph glyph-name="f" unicode="f" horiz-adv-x="254" d="M100 0 L129 0 L129 479 L245 479 L245 503 L129 503 L129 534 C129 606 150 659 212 659 C241 659 270 652 270 652 L270 676 C270 676 244 682 210 682 C140 682 100 629 100 533 L100 503 L13 503 L13 479 L100 479 L100 0 Z " />
<glyph glyph-name="g" unicode="g" horiz-adv-x="446" d="M217 -190 C378 -190 445 -121 445 -48 C445 19 386 58 304 62 L168 70 C108 74 81 91 81 128 C81 161 109 182 151 182 C164 182 187 173 214 173 C324 173 392 238 392 339 C392 399 369 448 337 474 C346 522 369 533 425 533 L439 533 L439 557 C439 557 427 561 419 561 C357 561 327 531 322 486 L320 486 C300 502 259 516 217 516 C131 516 41 466 41 342 C41 258 92 213 123 197 L123 195 C98 192 55 168 55 126 C55 83 88 58 115 52 L115 50 C64 36 9 2 9 -59 C9 -141 78 -190 217 -190 L217 -190 Z M215 197 C138 197 71 244 71 343 C71 444 137 491 217 491 C305 491 363 434 363 340 C363 250 313 197 215 197 L215 197 Z M217 -166 C87 -166 38 -121 38 -57 C38 -7 76 22 137 45 L299 34 C370 30 417 -1 417 -49 C417 -119 344 -166 217 -166 L217 -166 Z " />
<glyph glyph-name="h" unicode="h" horiz-adv-x="489" d="M70 0 L99 0 L99 334 C99 381 164 491 270 491 C332 491 390 461 390 349 L390 0 L419 0 L419 347 C419 482 343 516 272 516 C176 516 117 432 101 397 L99 397 L99 679 L70 679 L70 0 Z " />
<glyph glyph-name="i" unicode="i" horiz-adv-x="197" d="M82 591 L116 591 L116 624 L82 624 L82 591 Z M84 0 L113 0 L113 503 L84 503 L84 0 Z " />
<glyph glyph-name="j" unicode="j" horiz-adv-x="191" d="M82 591 L116 591 L116 624 L82 624 L82 591 Z M2 -178 C72 -178 112 -143 112 -15 L112 503 L83 503 L83 -16 C83 -110 65 -154 0 -154 C-29 -154 -57 -145 -57 -145 L-57 -169 C-57 -169 -32 -178 2 -178 L2 -178 Z " />
<glyph glyph-name="k" unicode="k" horiz-adv-x="436" d="M70 0 L99 0 L99 195 L201 304 L394 0 L429 0 L219 323 L392 503 L357 503 L101 230 L99 230 L99 679 L70 679 L70 0 Z " />
<glyph glyph-name="l" unicode="l" horiz-adv-x="193" d="M84 0 L113 0 L113 679 L84 679 L84 0 Z " />
<glyph glyph-name="m" unicode="m" horiz-adv-x="769" d="M70 0 L99 0 L99 334 C99 382 158 491 260 491 C319 491 370 460 370 349 L370 0 L399 0 L399 339 C399 387 458 491 560 491 C619 491 670 460 670 349 L670 0 L699 0 L699 347 C699 482 630 516 562 516 C469 516 410 430 397 394 L395 394 C381 490 322 516 262 516 C170 516 115 431 100 396 L98 396 L98 503 L70 503 L70 0 Z " />
<glyph glyph-name="n" unicode="n" horiz-adv-x="489" d="M70 0 L99 0 L99 334 C99 381 164 491 270 491 C332 491 390 461 390 349 L390 0 L419 0 L419 347 C419 482 343 516 272 516 C176 516 115 431 100 396 L98 396 L98 503 L70 503 L70 0 Z " />
<glyph glyph-name="o" unicode="o" horiz-adv-x="498" d="M244 -9 C377 -9 458 94 458 256 C458 375 408 516 254 516 C121 516 40 416 40 256 C40 121 90 -9 244 -9 L244 -9 Z M245 16 C120 16 70 121 70 256 C70 414 147 491 254 491 C378 491 428 376 428 255 C428 95 351 16 245 16 L245 16 Z " />
<glyph glyph-name="p" unicode="p" horiz-adv-x="495" d="M70 -172 L99 -172 L99 124 L101 124 C116 71 162 -9 261 -9 C382 -9 455 97 455 259 C455 378 416 516 271 516 C177 516 119 438 100 373 L98 373 L98 503 L70 503 L70 -172 Z M260 16 C160 16 99 117 99 227 L99 282 C99 398 177 491 268 491 C384 491 425 378 425 258 C425 98 354 16 260 16 L260 16 Z " />
<glyph glyph-name="q" unicode="q" horiz-adv-x="496" d="M397 -174 L426 -174 L426 503 L410 503 L400 373 L398 373 C382 438 334 516 237 516 C116 516 40 410 40 248 C40 129 80 -9 225 -9 C322 -9 375 68 395 132 L397 132 L397 -174 Z M227 16 C112 16 70 129 70 249 C70 409 144 491 239 491 C337 491 397 391 397 281 L397 226 C397 109 319 16 227 16 L227 16 Z " />
<glyph glyph-name="r" unicode="r" horiz-adv-x="275" d="M70 0 L99 0 L99 288 C99 376 145 487 253 487 L274 487 L274 513 C274 513 262 516 251 516 C158 516 118 439 100 376 L98 376 L98 503 L70 503 L70 0 Z " />
<glyph glyph-name="s" unicode="s" horiz-adv-x="424" d="M219 -9 C352 -9 402 63 402 134 C402 215 341 259 221 277 C102 294 71 322 71 389 C71 453 117 491 208 491 C296 491 339 445 353 385 L380 390 C362 469 304 516 209 516 C110 516 42 468 42 387 C42 302 86 268 208 248 C332 228 373 194 373 133 C373 75 336 16 219 16 C101 16 62 84 51 139 L22 133 C35 72 77 -9 219 -9 L219 -9 Z " />
<glyph glyph-name="t" unicode="t" horiz-adv-x="295" d="M210 -9 C244 -9 270 -3 270 -3 L270 21 C270 21 241 15 212 15 C150 15 130 67 130 140 L130 479 L253 479 L253 503 L130 503 L130 629 L101 622 L101 503 L17 503 L17 479 L101 479 L101 140 C101 44 136 -9 210 -9 L210 -9 Z " />
<glyph glyph-name="u" unicode="u" horiz-adv-x="487" d="M216 -12 C313 -12 371 71 387 107 L389 107 L389 0 L417 0 L417 503 L388 503 L388 166 C388 118 325 13 219 13 C157 13 99 38 99 151 L99 503 L70 503 L70 152 C70 17 145 -12 216 -12 L216 -12 Z " />
<glyph glyph-name="v" unicode="v" horiz-adv-x="388" d="M179 0 L210 0 L388 503 L358 503 L197 39 L195 39 L33 503 L0 503 L179 0 Z " />
<glyph glyph-name="w" unicode="w" horiz-adv-x="602" d="M149 0 L176 0 L300 452 L302 452 L436 0 L462 0 L602 503 L574 503 L449 45 L447 45 L315 503 L287 503 L164 45 L162 45 L30 503 L0 503 L149 0 Z " />
<glyph glyph-name="x" unicode="x" horiz-adv-x="368" d="M15 0 L46 0 L183 237 L185 237 L324 0 L358 0 L202 265 L342 503 L312 503 L189 291 L187 291 L62 503 L28 503 L171 263 L15 0 Z " />
<glyph glyph-name="y" unicode="y" horiz-adv-x="388" d="M51 -178 C110 -178 153 -147 182 -70 L386 503 L357 503 L195 41 L193 41 L34 503 L2 503 L181 0 L157 -65 C135 -123 108 -154 48 -154 C24 -154 2 -145 2 -145 L2 -169 C2 -169 24 -178 51 -178 L51 -178 Z " />
<glyph glyph-name="z" unicode="z" horiz-adv-x="388" d="M18 0 L368 0 L368 24 L54 24 L54 26 L368 482 L368 503 L43 503 L43 479 L330 479 L330 477 L18 24 L18 0 Z " />
<glyph glyph-name="braceleft" unicode="&#x7b;" horiz-adv-x="235" d="M162 -167 L206 -167 L206 -143 L163 -143 C137 -143 127 -119 127 -78 L127 119 C127 222 86 255 52 260 L52 262 C86 267 127 300 127 403 L127 599 C127 636 137 665 172 665 L206 665 L206 689 L169 689 C121 689 99 657 99 600 L99 406 C99 330 89 282 22 270 L22 252 C89 240 99 192 99 116 L99 -80 C99 -139 121 -167 162 -167 L162 -167 Z " />
<glyph glyph-name="bar" unicode="&#x7c;" horiz-adv-x="188" d="M83 -247 L105 -247 L105 743 L83 743 L83 -247 Z " />
<glyph glyph-name="braceright" unicode="&#x7d;" horiz-adv-x="235" d="M25 -167 L70 -167 C110 -167 132 -139 132 -80 L132 116 C132 192 142 240 209 252 L209 270 C142 282 132 330 132 406 L132 600 C132 657 110 689 61 689 L25 689 L25 665 L60 665 C93 665 104 636 104 599 L104 403 C104 300 145 267 179 262 L179 260 C145 255 104 222 104 119 L104 -78 C104 -119 93 -143 68 -143 L25 -143 L25 -167 Z " />
<glyph glyph-name="asciitilde" unicode="&#x7e;" horiz-adv-x="583" d="M411 205 C467 205 519 243 519 339 L493 339 C493 266 463 233 414 233 C333 233 273 347 182 347 C127 347 74 307 74 213 L100 213 C100 286 129 319 179 319 C260 319 320 205 411 205 L411 205 Z " />
<glyph glyph-name="uni00A0" unicode="&#xa0;" horiz-adv-x="290" d="" />
<glyph glyph-name="exclamdown" unicode="&#xa1;" horiz-adv-x="200" d="M81 466 L118 466 L118 503 L81 503 L81 466 Z M79 -176 L120 -176 L107 362 L93 362 L79 -176 Z " />
<glyph glyph-name="cent" unicode="&#xa2;" horiz-adv-x="583" d="M286 -28 L311 -28 L311 110 C396 117 454 179 472 275 L446 278 C429 190 378 142 311 135 L311 560 C389 557 429 494 443 420 L470 424 C454 506 408 581 311 585 L311 708 L286 708 L286 584 C185 575 118 485 118 350 C118 234 164 117 286 110 L286 -28 Z M286 136 C188 142 147 235 147 350 C147 479 204 551 286 559 L286 136 Z " />
<glyph glyph-name="sterling" unicode="&#xa3;" horiz-adv-x="583" d="M5 0 L369 0 C473 0 545 34 575 107 L548 120 C524 60 466 27 366 27 L125 27 L125 29 C178 43 261 120 261 225 C261 264 253 297 245 327 L453 327 L453 352 L238 352 C223 397 207 439 207 489 C207 578 264 664 363 664 C431 664 486 621 507 563 L531 574 C505 642 441 689 363 689 C243 689 177 587 177 486 C177 435 192 395 205 352 L81 352 L81 327 L212 327 C221 295 229 261 229 218 C229 126 154 27 50 27 L5 27 L5 0 Z " />
<glyph glyph-name="currency" unicode="&#xa4;" horiz-adv-x="583" d="M92 -30 L139 51 C178 14 231 -9 294 -9 C356 -9 406 13 445 51 L492 -30 L511 -19 L461 69 C515 133 541 235 541 346 C541 449 514 546 462 609 L512 697 L492 708 L446 626 C407 665 355 689 291 689 C228 689 177 666 138 627 L91 708 L72 697 L122 609 C67 543 40 442 40 336 C40 231 68 133 124 68 L73 -19 L92 -30 Z M294 16 C138 16 71 171 71 337 C71 504 136 664 291 664 C448 664 511 503 511 344 C511 168 449 16 294 16 L294 16 Z " />
<glyph glyph-name="yen" unicode="&#xa5;" horiz-adv-x="583" d="M281 0 L312 0 L312 236 L523 236 L523 260 L312 260 L312 317 L347 377 L525 377 L525 401 L361 401 L528 679 L497 679 L300 344 L298 344 L100 679 L65 679 L230 401 L66 401 L66 377 L245 377 L281 316 L281 260 L66 260 L66 236 L281 236 L281 0 Z " />
<glyph glyph-name="brokenbar" unicode="&#xa6;" horiz-adv-x="188" d="M83 340 L105 340 L105 743 L83 743 L83 340 Z M83 -247 L105 -247 L105 156 L83 156 L83 -247 Z " />
<glyph glyph-name="section" unicode="&#xa7;" horiz-adv-x="583" d="M264 -117 C398 -117 447 -45 447 26 C447 75 426 109 384 133 C437 159 458 206 458 253 C458 334 394 378 278 396 C159 413 127 441 127 508 C127 572 174 610 264 610 C352 610 395 564 410 504 L436 509 C418 588 361 635 265 635 C167 635 99 587 99 506 C99 448 119 414 169 392 C118 373 87 334 87 279 C87 194 142 159 253 140 C377 120 418 86 418 25 C418 -33 381 -92 265 -92 C146 -92 107 -24 96 31 L67 25 C80 -36 122 -117 264 -117 L264 -117 Z M353 146 C252 182 116 168 116 281 C116 333 147 368 208 379 C298 363 429 348 429 252 C429 209 409 165 353 146 L353 146 Z " />
<glyph glyph-name="dieresis" unicode="&#xa8;" horiz-adv-x="498" d="M331 617 C343 617 354 627 354 640 C354 652 343 660 332 660 C319 660 308 652 308 640 C308 628 318 617 331 617 L331 617 Z M177 617 C190 617 201 627 201 640 C201 652 189 660 178 660 C166 660 155 652 155 640 C155 628 164 617 177 617 L177 617 Z " />
<glyph glyph-name="copyright" unicode="&#xa9;" horiz-adv-x="791" d="M396 -9 C596 -9 755 145 755 342 C755 534 596 689 396 689 C194 689 36 534 36 342 C36 146 192 -9 396 -9 L396 -9 Z M396 12 C204 12 58 158 58 342 C58 522 206 668 396 668 C584 668 733 522 733 342 C733 157 584 12 396 12 L396 12 Z M394 165 C466 165 516 214 533 287 L509 291 C496 226 450 187 394 187 C330 187 272 250 272 341 C272 434 326 501 397 501 C452 501 494 460 507 399 L531 404 C516 472 466 522 397 522 C306 522 248 437 248 341 C248 248 307 165 394 165 L394 165 Z " />
<glyph glyph-name="ordfeminine" unicode="&#xaa;" horiz-adv-x="357" d="M161 325 C237 325 272 366 280 397 L282 397 L289 333 L312 333 C312 333 306 391 306 396 L306 566 C306 664 253 689 188 689 C108 689 65 648 57 591 L77 587 C87 639 125 668 187 668 C238 668 281 651 281 568 L281 534 L207 534 C94 534 43 498 43 427 C43 368 90 325 161 325 L161 325 Z M42 251 L300 251 L300 275 L42 275 L42 251 Z M162 347 C109 347 69 380 69 427 C69 488 114 513 210 513 L281 513 L281 469 C281 386 233 347 162 347 L162 347 Z " />
<glyph glyph-name="guillemotleft" unicode="&#xab;" horiz-adv-x="283" d="M233 106 L249 106 L181 256 L249 400 L232 400 L146 256 L233 106 Z M127 106 L144 106 L76 256 L144 400 L126 400 L40 256 L127 106 Z " />
<glyph glyph-name="logicalnot" unicode="&#xac;" horiz-adv-x="583" d="M430 43 L456 43 L456 303 L40 303 L40 278 L430 278 L430 43 Z " />
<glyph glyph-name="registered" unicode="&#xae;" horiz-adv-x="791" d="M396 -9 C596 -9 755 145 755 342 C755 534 596 689 396 689 C194 689 36 534 36 342 C36 146 192 -9 396 -9 L396 -9 Z M396 12 C204 12 58 158 58 342 C58 522 206 668 396 668 C584 668 733 522 733 342 C733 157 584 12 396 12 L396 12 Z M291 160 L314 160 L314 320 L421 320 L511 160 L540 160 L445 324 C491 331 527 356 527 416 C527 484 478 508 414 508 L291 508 L291 160 Z M314 341 L314 486 L414 486 C468 486 503 468 503 416 C503 362 465 341 413 341 L314 341 Z " />
<glyph glyph-name="macron" unicode="&#xaf;" horiz-adv-x="259" d="M12 653 L242 653 L242 676 L12 676 L12 653 Z " />
<glyph glyph-name="degree" unicode="&#xb0;" horiz-adv-x="377" d="M188 401 C268 401 334 465 334 545 C334 624 268 689 188 689 C108 689 43 624 43 545 C43 465 108 401 188 401 L188 401 Z M188 425 C121 425 67 478 67 545 C67 611 121 665 188 665 C254 665 310 611 310 545 C310 478 254 425 188 425 L188 425 Z " />
<glyph glyph-name="plusminus" unicode="&#xb1;" horiz-adv-x="583" d="M276 116 L301 116 L301 351 L536 351 L536 376 L301 376 L301 611 L276 611 L276 376 L40 376 L40 351 L276 351 L276 116 Z M40 0 L536 0 L536 25 L40 25 L40 0 Z " />
<glyph glyph-name="twosuperior" unicode="&#xb2;" horiz-adv-x="326" d="M31 300 L297 300 L297 323 L77 323 L77 325 L203 421 C252 457 297 507 297 567 C297 641 236 689 169 689 C98 689 44 645 32 574 L58 568 C67 629 108 665 169 665 C223 665 271 624 271 567 C271 517 232 474 184 437 L31 316 L31 300 Z " />
<glyph glyph-name="threesuperior" unicode="&#xb3;" horiz-adv-x="326" d="M157 295 C233 295 299 333 299 406 C299 457 260 494 217 503 L217 505 C253 515 285 548 285 588 C285 659 226 689 161 689 C100 689 49 657 29 596 L54 591 C69 638 107 666 161 666 C214 666 259 642 259 588 C259 545 221 513 164 513 L107 513 L107 490 L162 490 C234 490 274 453 274 406 C274 347 219 318 157 318 C101 318 54 343 40 400 L16 393 C34 325 92 295 157 295 L157 295 Z " />
<glyph glyph-name="acute" unicode="&#xb4;" horiz-adv-x="498" d="M239 551 L418 695 L394 712 L230 562 L239 551 Z " />
<glyph glyph-name="mu" unicode="&#xb5;" horiz-adv-x="487" d="M-11 -178 C59 -178 99 -143 99 -15 L99 49 C119 2 172 -12 216 -12 C313 -12 371 71 387 107 L389 107 L389 0 L417 0 L417 503 L388 503 L388 166 C388 118 325 13 219 13 C157 13 99 38 99 151 L99 503 L70 503 L70 -16 C70 -110 52 -154 -13 -154 C-42 -154 -70 -145 -70 -145 L-70 -169 C-70 -169 -45 -178 -11 -178 L-11 -178 Z " />
<glyph glyph-name="paragraph" unicode="&#xb6;" horiz-adv-x="498" d="M245 -164 L271 -164 L271 654 L388 654 L388 -164 L414 -164 L414 654 L465 654 L465 679 L245 679 C173 679 39 615 39 440 C39 312 130 213 245 213 L245 -164 Z " />
<glyph glyph-name="periodcentered" unicode="&#xb7;" horiz-adv-x="205" d="M83 268 L122 268 L122 307 L83 307 L83 268 Z " />
<glyph glyph-name="cedilla" unicode="&#xb8;" horiz-adv-x="457" d="M239 -172 C285 -172 334 -151 334 -105 C334 -60 286 -42 229 -42 L241 0 L227 0 L207 -58 C207 -58 218 -57 226 -57 C272 -57 311 -72 311 -108 C311 -135 279 -153 238 -153 C208 -153 180 -146 157 -134 L148 -148 C175 -163 206 -172 239 -172 L239 -172 Z " />
<glyph glyph-name="onesuperior" unicode="&#xb9;" horiz-adv-x="326" d="M50 298 L304 298 L304 321 L195 321 L195 682 L175 682 C150 645 105 604 59 590 L58 563 C109 579 152 620 169 647 L171 647 L171 321 L50 321 L50 298 Z " />
<glyph glyph-name="ordmasculine" unicode="&#xba;" horiz-adv-x="359" d="M177 325 C269 325 326 396 326 508 C326 591 290 689 183 689 C92 689 35 620 35 508 C35 415 69 325 177 325 L177 325 Z M35 251 L326 251 L326 275 L35 275 L35 251 Z M177 347 C93 347 61 418 61 508 C61 614 111 667 183 667 C266 667 299 589 299 508 C299 402 249 347 177 347 L177 347 Z " />
<glyph glyph-name="guillemotright" unicode="&#xbb;" horiz-adv-x="283" d="M139 106 L155 106 L242 256 L156 400 L139 400 L207 256 L139 106 Z M33 106 L50 106 L137 256 L51 400 L33 400 L101 256 L33 106 Z " />
<glyph glyph-name="onequarter" unicode="&#xbc;" horiz-adv-x="682" d="M51 298 L304 298 L304 321 L196 321 L196 682 L176 682 C151 645 106 604 60 590 L59 563 C110 579 153 620 169 647 L171 647 L171 321 L51 321 L51 298 Z M152 0 L180 0 L591 679 L562 679 L152 0 Z M545 0 L571 0 L571 99 L641 99 L641 121 L571 121 L571 384 L545 384 L350 117 L350 99 L545 99 L545 0 Z M381 121 L381 123 L543 348 L545 348 L545 121 L381 121 Z " />
<glyph glyph-name="onehalf" unicode="&#xbd;" horiz-adv-x="737" d="M51 298 L304 298 L304 321 L196 321 L196 682 L176 682 C151 645 106 604 60 590 L59 563 C110 579 153 620 169 647 L171 647 L171 321 L51 321 L51 298 Z M152 0 L180 0 L591 679 L562 679 L152 0 Z M421 0 L687 0 L687 24 L468 24 L468 26 L593 121 C642 157 687 208 687 267 C687 341 627 389 559 389 C488 389 435 345 422 274 L448 268 C458 329 498 366 559 366 C613 366 661 324 661 267 C661 218 622 175 574 136 L421 17 L421 0 Z " />
<glyph glyph-name="threequarters" unicode="&#xbe;" horiz-adv-x="682" d="M163 295 C239 295 306 333 306 406 C306 457 265 494 223 503 L223 505 C259 515 291 548 291 588 C291 659 232 689 167 689 C105 689 55 657 35 596 L60 591 C74 638 114 666 167 666 C219 666 265 642 265 588 C265 545 227 513 170 513 L113 513 L113 490 L168 490 C239 490 280 453 280 406 C280 347 224 318 163 318 C107 318 60 343 46 400 L21 393 C40 325 97 295 163 295 L163 295 Z M153 0 L180 0 L591 679 L563 679 L153 0 Z M546 0 L572 0 L572 99 L642 99 L642 121 L572 121 L572 384 L546 384 L351 117 L351 99 L546 99 L546 0 Z M381 121 L381 123 L544 348 L546 348 L546 121 L381 121 Z " />
<glyph glyph-name="questiondown" unicode="&#xbf;" horiz-adv-x="459" d="M226 467 L263 467 L263 503 L226 503 L226 467 Z M225 -186 C335 -186 417 -105 430 6 L403 10 C389 -92 320 -160 226 -160 C132 -160 51 -105 51 -6 C51 64 95 113 175 154 C228 181 259 216 259 292 L259 354 L231 354 L231 290 C231 224 203 196 160 175 C72 131 20 73 20 -6 C20 -119 116 -186 225 -186 L225 -186 Z " />
<glyph glyph-name="Agrave" unicode="&#xc0;" horiz-adv-x="509" d="M260 739 L269 749 L105 901 L81 883 L260 739 Z M10 0 L40 0 L112 217 L393 217 L466 0 L499 0 L271 679 L237 679 L10 0 Z M120 242 L251 641 L253 641 L385 242 L120 242 Z " />
<glyph glyph-name="Aacute" unicode="&#xc1;" horiz-adv-x="509" d="M264 739 L443 883 L420 901 L255 749 L264 739 Z M10 0 L40 0 L112 217 L393 217 L466 0 L499 0 L271 679 L237 679 L10 0 Z M120 242 L251 641 L253 641 L385 242 L120 242 Z " />
<glyph glyph-name="Acircumflex" unicode="&#xc2;" horiz-adv-x="509" d="M137 737 L258 829 L378 737 L397 741 L258 865 L117 741 L137 737 Z M10 0 L40 0 L112 217 L393 217 L466 0 L499 0 L271 679 L237 679 L10 0 Z M120 242 L251 641 L253 641 L385 242 L120 242 Z " />
<glyph glyph-name="Atilde" unicode="&#xc3;" horiz-adv-x="509" d="M334 737 C364 737 394 757 407 795 L388 802 C379 778 359 763 336 763 C276 763 244 814 181 814 C151 814 122 797 108 761 L127 753 C136 777 154 788 179 788 C236 788 270 737 334 737 L334 737 Z M10 0 L40 0 L112 217 L393 217 L466 0 L499 0 L271 679 L237 679 L10 0 Z M120 242 L251 641 L253 641 L385 242 L120 242 Z " />
<glyph glyph-name="Adieresis" unicode="&#xc4;" horiz-adv-x="509" d="M331 741 C343 741 354 751 354 764 C354 777 343 785 332 785 C319 785 308 777 308 764 C308 752 318 741 331 741 L331 741 Z M177 741 C190 741 201 751 201 764 C201 777 189 785 178 785 C166 785 155 777 155 764 C155 752 164 741 177 741 L177 741 Z M10 0 L40 0 L112 217 L393 217 L466 0 L499 0 L271 679 L237 679 L10 0 Z M120 242 L251 641 L253 641 L385 242 L120 242 Z " />
<glyph glyph-name="Aring" unicode="&#xc5;" horiz-adv-x="509" d="M253 713 C304 713 346 751 346 802 C346 852 304 891 253 891 C202 891 160 852 160 802 C160 751 202 713 253 713 L253 713 Z M10 0 L40 0 L112 217 L393 217 L466 0 L499 0 L271 679 L237 679 L10 0 Z M252 729 C211 729 177 760 177 801 C177 842 210 874 252 874 C294 874 328 842 328 801 C328 760 294 729 252 729 L252 729 Z M120 242 L251 641 L253 641 L385 242 L120 242 Z " />
<glyph glyph-name="AE" unicode="&#xc6;" horiz-adv-x="782" d="M1 0 L33 0 L209 342 L361 342 L361 0 L743 0 L743 26 L392 26 L392 342 L660 342 L660 368 L392 368 L392 652 L730 652 L730 679 L349 679 L1 0 Z M219 368 L359 641 L361 641 L361 368 L219 368 Z " />
<glyph glyph-name="Ccedilla" unicode="&#xc7;" horiz-adv-x="573" d="M298 -172 C344 -172 393 -151 393 -105 C393 -60 344 -42 288 -42 L298 -9 C434 -8 512 87 540 218 L511 224 C485 96 409 17 295 17 C163 17 71 148 71 335 C71 524 154 663 301 663 C413 663 482 577 508 460 L537 466 C509 589 434 689 300 689 C125 689 40 519 40 335 C40 160 122 -1 283 -9 L266 -58 C266 -58 277 -57 285 -57 C331 -57 369 -72 369 -108 C369 -135 339 -153 297 -153 C266 -153 239 -146 217 -134 L207 -148 C234 -163 265 -172 298 -172 L298 -172 Z " />
<glyph glyph-name="Egrave" unicode="&#xc8;" horiz-adv-x="544" d="M333 739 L343 749 L178 901 L155 883 L333 739 Z M80 0 L499 0 L499 26 L110 26 L110 342 L416 342 L416 368 L110 368 L110 652 L486 652 L486 679 L80 679 L80 0 Z " />
<glyph glyph-name="Eacute" unicode="&#xc9;" horiz-adv-x="544" d="M282 739 L461 883 L437 901 L273 749 L282 739 Z M80 0 L499 0 L499 26 L110 26 L110 342 L416 342 L416 368 L110 368 L110 652 L486 652 L486 679 L80 679 L80 0 Z " />
<glyph glyph-name="Ecircumflex" unicode="&#xca;" horiz-adv-x="544" d="M165 737 L287 829 L407 737 L425 741 L286 865 L146 741 L165 737 Z M80 0 L499 0 L499 26 L110 26 L110 342 L416 342 L416 368 L110 368 L110 652 L486 652 L486 679 L80 679 L80 0 Z " />
<glyph glyph-name="Edieresis" unicode="&#xcb;" horiz-adv-x="544" d="M371 741 C383 741 394 751 394 764 C394 777 383 785 372 785 C359 785 348 777 348 764 C348 752 358 741 371 741 L371 741 Z M217 741 C230 741 241 751 241 764 C241 777 229 785 218 785 C206 785 195 777 195 764 C195 752 204 741 217 741 L217 741 Z M80 0 L499 0 L499 26 L110 26 L110 342 L416 342 L416 368 L110 368 L110 652 L486 652 L486 679 L80 679 L80 0 Z " />
<glyph glyph-name="Igrave" unicode="&#xcc;" horiz-adv-x="195" d="M132 739 L142 749 L-23 901 L-46 883 L132 739 Z M84 0 L114 0 L114 679 L84 679 L84 0 Z " />
<glyph glyph-name="Iacute" unicode="&#xcd;" horiz-adv-x="195" d="M98 739 L277 883 L254 901 L89 749 L98 739 Z M84 0 L114 0 L114 679 L84 679 L84 0 Z " />
<glyph glyph-name="Icircumflex" unicode="&#xce;" horiz-adv-x="195" d="M-17 737 L104 829 L224 737 L243 741 L104 865 L-36 741 L-17 737 Z M84 0 L114 0 L114 679 L84 679 L84 0 Z " />
<glyph glyph-name="Idieresis" unicode="&#xcf;" horiz-adv-x="195" d="M174 741 C187 741 197 751 197 764 C197 777 186 785 175 785 C163 785 152 777 152 764 C152 752 162 741 174 741 L174 741 Z M20 741 C34 741 44 751 44 764 C44 777 33 785 21 785 C10 785 -1 777 -1 764 C-1 752 8 741 20 741 L20 741 Z M84 0 L114 0 L114 679 L84 679 L84 0 Z " />
<glyph glyph-name="Eth" unicode="&#xd0;" horiz-adv-x="583" d="M80 0 L276 0 C449 0 543 152 543 348 C543 519 449 679 274 679 L80 679 L80 350 L-9 350 L-9 326 L80 326 L80 0 Z M110 26 L110 326 L208 326 L208 350 L110 350 L110 653 L272 653 C418 653 512 524 512 347 C512 140 410 26 270 26 L110 26 Z " />
<glyph glyph-name="Ntilde" unicode="&#xd1;" horiz-adv-x="617" d="M389 737 C419 737 449 757 462 795 L442 802 C434 778 414 763 390 763 C331 763 299 814 236 814 C206 814 176 797 163 761 L182 753 C192 777 208 788 234 788 C291 788 326 737 389 737 L389 737 Z M80 0 L107 0 L107 637 L109 637 L508 0 L537 0 L537 679 L511 679 L511 53 L509 53 L116 679 L80 679 L80 0 Z " />
<glyph glyph-name="Ograve" unicode="&#xd2;" horiz-adv-x="605" d="M338 739 L347 749 L183 901 L159 883 L338 739 Z M305 -9 C479 -9 565 156 565 348 C565 519 479 689 304 689 C129 689 40 516 40 335 C40 154 130 -9 305 -9 L305 -9 Z M305 16 C158 16 71 156 71 335 C71 517 154 663 305 663 C456 663 534 514 534 347 C534 157 454 16 305 16 L305 16 Z " />
<glyph glyph-name="Oacute" unicode="&#xd3;" horiz-adv-x="605" d="M324 739 L504 883 L480 901 L316 749 L324 739 Z M305 -9 C479 -9 565 156 565 348 C565 519 479 689 304 689 C129 689 40 516 40 335 C40 154 130 -9 305 -9 L305 -9 Z M305 16 C158 16 71 156 71 335 C71 517 154 663 305 663 C456 663 534 514 534 347 C534 157 454 16 305 16 L305 16 Z " />
<glyph glyph-name="Ocircumflex" unicode="&#xd4;" horiz-adv-x="605" d="M185 737 L306 829 L426 737 L444 741 L305 865 L166 741 L185 737 Z M305 -9 C479 -9 565 156 565 348 C565 519 479 689 304 689 C129 689 40 516 40 335 C40 154 130 -9 305 -9 L305 -9 Z M305 16 C158 16 71 156 71 335 C71 517 154 663 305 663 C456 663 534 514 534 347 C534 157 454 16 305 16 L305 16 Z " />
<glyph glyph-name="Otilde" unicode="&#xd5;" horiz-adv-x="605" d="M397 737 C427 737 458 757 470 795 L451 802 C442 778 422 763 399 763 C339 763 307 814 244 814 C214 814 185 797 171 761 L190 753 C199 777 217 788 242 788 C299 788 333 737 397 737 L397 737 Z M305 -9 C479 -9 565 156 565 348 C565 519 479 689 304 689 C129 689 40 516 40 335 C40 154 130 -9 305 -9 L305 -9 Z M305 16 C158 16 71 156 71 335 C71 517 154 663 305 663 C456 663 534 514 534 347 C534 157 454 16 305 16 L305 16 Z " />
<glyph glyph-name="Odieresis" unicode="&#xd6;" horiz-adv-x="605" d="M382 741 C394 741 405 751 405 764 C405 777 394 785 383 785 C370 785 359 777 359 764 C359 752 369 741 382 741 L382 741 Z M228 741 C241 741 252 751 252 764 C252 777 240 785 229 785 C217 785 206 777 206 764 C206 752 215 741 228 741 L228 741 Z M305 -9 C479 -9 565 156 565 348 C565 519 479 689 304 689 C129 689 40 516 40 335 C40 154 130 -9 305 -9 L305 -9 Z M305 16 C158 16 71 156 71 335 C71 517 154 663 305 663 C456 663 534 514 534 347 C534 157 454 16 305 16 L305 16 Z " />
<glyph glyph-name="multiply" unicode="&#xd7;" horiz-adv-x="583" d="M121 106 L288 274 L454 106 L472 125 L305 291 L472 457 L454 475 L288 308 L121 475 L103 457 L270 291 L103 125 L121 106 Z " />
<glyph glyph-name="Oslash" unicode="&#xd8;" horiz-adv-x="605" d="M20 -37 L47 -37 L125 73 C169 22 229 -9 305 -9 C479 -9 565 156 565 348 C565 438 542 528 493 592 L584 720 L556 720 L478 610 C435 659 378 689 304 689 C129 689 40 516 40 335 C40 242 64 154 110 89 L20 -37 Z M129 116 C91 173 71 249 71 335 C71 517 154 663 305 663 C372 663 425 634 462 587 L129 116 Z M305 16 C237 16 182 47 142 97 L476 567 C515 509 534 430 534 347 C534 157 454 16 305 16 L305 16 Z " />
<glyph glyph-name="Ugrave" unicode="&#xd9;" horiz-adv-x="605" d="M336 739 L345 749 L181 901 L157 883 L336 739 Z M300 -9 C434 -9 525 71 525 225 L525 679 L498 679 L498 225 C498 78 409 18 302 18 C195 18 110 78 110 221 L110 679 L80 679 L80 225 C80 69 166 -9 300 -9 L300 -9 Z " />
<glyph glyph-name="Uacute" unicode="&#xda;" horiz-adv-x="605" d="M287 739 L465 883 L442 901 L277 749 L287 739 Z M300 -9 C434 -9 525 71 525 225 L525 679 L498 679 L498 225 C498 78 409 18 302 18 C195 18 110 78 110 221 L110 679 L80 679 L80 225 C80 69 166 -9 300 -9 L300 -9 Z " />
<glyph glyph-name="Ucircumflex" unicode="&#xdb;" horiz-adv-x="605" d="M185 737 L307 829 L426 737 L445 741 L306 865 L166 741 L185 737 Z M300 -9 C434 -9 525 71 525 225 L525 679 L498 679 L498 225 C498 78 409 18 302 18 C195 18 110 78 110 221 L110 679 L80 679 L80 225 C80 69 166 -9 300 -9 L300 -9 Z " />
<glyph glyph-name="Udieresis" unicode="&#xdc;" horiz-adv-x="605" d="M384 741 C397 741 408 751 408 764 C408 777 397 785 385 785 C373 785 362 777 362 764 C362 752 372 741 384 741 L384 741 Z M230 741 C244 741 255 751 255 764 C255 777 243 785 231 785 C220 785 209 777 209 764 C209 752 218 741 230 741 L230 741 Z M300 -9 C434 -9 525 71 525 225 L525 679 L498 679 L498 225 C498 78 409 18 302 18 C195 18 110 78 110 221 L110 679 L80 679 L80 225 C80 69 166 -9 300 -9 L300 -9 Z " />
<glyph glyph-name="Yacute" unicode="&#xdd;" horiz-adv-x="466" d="M215 739 L393 883 L370 901 L206 749 L215 739 Z M218 0 L248 0 L248 317 L464 679 L432 679 L236 343 L234 343 L37 679 L1 679 L218 316 L218 0 Z " />
<glyph glyph-name="Thorn" unicode="&#xde;" horiz-adv-x="486" d="M80 0 L110 0 L110 189 L260 189 C376 189 476 246 476 383 C476 513 382 568 260 568 L110 568 L110 679 L80 679 L80 0 Z M110 215 L110 542 L259 542 C373 542 445 494 445 382 C445 266 365 215 256 215 L110 215 Z " />
<glyph glyph-name="germandbls" unicode="&#xdf;" horiz-adv-x="530" d="M69 -50 L98 -50 L98 485 C98 603 180 666 276 666 C312 666 409 643 409 558 C409 463 271 435 202 435 C175 435 151 418 151 376 C151 302 200 267 317 248 C442 228 481 194 481 133 C481 75 445 16 328 16 C210 16 171 84 160 139 L131 133 C144 72 186 -9 327 -9 C461 -9 511 63 511 134 C511 215 450 259 330 277 C216 293 179 323 179 376 C179 412 195 414 238 418 C330 424 439 465 439 557 C439 641 355 689 277 689 C168 689 69 612 69 484 L69 424 L18 424 L18 400 L69 400 L69 -50 Z " />
<glyph glyph-name="agrave" unicode="&#xe0;" horiz-adv-x="484" d="M311 551 L320 562 L156 712 L132 695 L311 551 Z M214 -9 C326 -9 378 55 391 101 L393 101 L406 0 L435 0 C435 0 424 82 424 91 L424 340 C424 483 349 516 254 516 C142 516 76 460 64 379 L92 374 C106 451 160 492 253 492 C329 492 396 469 396 342 L396 289 L283 289 C121 289 46 239 46 137 C46 51 114 -9 214 -9 L214 -9 Z M217 15 C137 15 76 65 76 136 C76 227 145 265 288 265 L396 265 L396 199 C396 75 322 15 217 15 L217 15 Z " />
<glyph glyph-name="aacute" unicode="&#xe1;" horiz-adv-x="484" d="M230 551 L410 695 L386 712 L222 562 L230 551 Z M214 -9 C326 -9 378 55 391 101 L393 101 L406 0 L435 0 C435 0 424 82 424 91 L424 340 C424 483 349 516 254 516 C142 516 76 460 64 379 L92 374 C106 451 160 492 253 492 C329 492 396 469 396 342 L396 289 L283 289 C121 289 46 239 46 137 C46 51 114 -9 214 -9 L214 -9 Z M217 15 C137 15 76 65 76 136 C76 227 145 265 288 265 L396 265 L396 199 C396 75 322 15 217 15 L217 15 Z " />
<glyph glyph-name="acircumflex" unicode="&#xe2;" horiz-adv-x="484" d="M136 577 L257 669 L377 577 L395 581 L256 705 L116 581 L136 577 Z M214 -9 C326 -9 378 55 391 101 L393 101 L406 0 L435 0 C435 0 424 82 424 91 L424 340 C424 483 349 516 254 516 C142 516 76 460 64 379 L92 374 C106 451 160 492 253 492 C329 492 396 469 396 342 L396 289 L283 289 C121 289 46 239 46 137 C46 51 114 -9 214 -9 L214 -9 Z M217 15 C137 15 76 65 76 136 C76 227 145 265 288 265 L396 265 L396 199 C396 75 322 15 217 15 L217 15 Z " />
<glyph glyph-name="atilde" unicode="&#xe3;" horiz-adv-x="484" d="M339 601 C369 601 400 621 412 659 L393 666 C384 642 365 627 341 627 C281 627 249 678 186 678 C156 678 127 661 114 625 L132 617 C142 641 159 652 184 652 C241 652 276 601 339 601 L339 601 Z M214 -9 C326 -9 378 55 391 101 L393 101 L406 0 L435 0 C435 0 424 82 424 91 L424 340 C424 483 349 516 254 516 C142 516 76 460 64 379 L92 374 C106 451 160 492 253 492 C329 492 396 469 396 342 L396 289 L283 289 C121 289 46 239 46 137 C46 51 114 -9 214 -9 L214 -9 Z M217 15 C137 15 76 65 76 136 C76 227 145 265 288 265 L396 265 L396 199 C396 75 322 15 217 15 L217 15 Z " />
<glyph glyph-name="adieresis" unicode="&#xe4;" horiz-adv-x="484" d="M330 617 C342 617 353 627 353 640 C353 652 342 660 331 660 C318 660 307 652 307 640 C307 628 317 617 330 617 L330 617 Z M176 617 C189 617 200 627 200 640 C200 652 188 660 177 660 C165 660 154 652 154 640 C154 628 163 617 176 617 L176 617 Z M214 -9 C326 -9 378 55 391 101 L393 101 L406 0 L435 0 C435 0 424 82 424 91 L424 340 C424 483 349 516 254 516 C142 516 76 460 64 379 L92 374 C106 451 160 492 253 492 C329 492 396 469 396 342 L396 289 L283 289 C121 289 46 239 46 137 C46 51 114 -9 214 -9 L214 -9 Z M217 15 C137 15 76 65 76 136 C76 227 145 265 288 265 L396 265 L396 199 C396 75 322 15 217 15 L217 15 Z " />
<glyph glyph-name="aring" unicode="&#xe5;" horiz-adv-x="484" d="M254 560 C305 560 347 598 347 649 C347 699 305 738 254 738 C203 738 161 699 161 649 C161 598 203 560 254 560 L254 560 Z M214 -9 C326 -9 378 55 391 101 L393 101 L406 0 L435 0 C435 0 424 82 424 91 L424 340 C424 483 349 516 254 516 C142 516 76 460 64 379 L92 374 C106 451 160 492 253 492 C329 492 396 469 396 342 L396 289 L283 289 C121 289 46 239 46 137 C46 51 114 -9 214 -9 L214 -9 Z M254 577 C213 577 179 607 179 649 C179 689 212 721 254 721 C296 721 330 689 330 649 C330 607 295 577 254 577 L254 577 Z M217 15 C137 15 76 65 76 136 C76 227 145 265 288 265 L396 265 L396 199 C396 75 322 15 217 15 L217 15 Z " />
<glyph glyph-name="ae" unicode="&#xe6;" horiz-adv-x="855" d="M214 -9 C313 -9 388 48 410 155 L412 155 C433 62 487 -9 601 -9 C704 -9 782 46 810 145 L781 150 C755 58 682 16 603 16 C481 16 428 114 427 249 L815 249 L815 257 C815 389 762 516 611 516 C518 516 451 462 421 371 L419 371 C409 488 341 516 254 516 C142 516 76 460 64 379 L92 374 C106 451 160 492 253 492 C329 492 396 469 396 342 L396 272 L283 272 C121 272 46 232 46 130 C46 44 114 -9 214 -9 L214 -9 Z M428 272 C431 416 509 492 611 492 C731 492 783 390 784 272 L428 272 Z M217 15 C137 15 76 58 76 129 C76 220 145 249 288 249 L396 249 L396 222 C396 86 322 15 217 15 L217 15 Z " />
<glyph glyph-name="ccedilla" unicode="&#xe7;" horiz-adv-x="457" d="M239 -172 C285 -172 334 -151 334 -105 C334 -60 286 -42 229 -42 L238 -9 C339 -7 408 59 430 171 L400 175 C380 70 317 16 236 16 C119 16 70 122 70 256 C70 413 144 491 244 491 C336 491 381 420 397 334 L426 338 C408 431 355 516 244 516 C122 516 40 414 40 256 C40 128 90 -2 224 -9 L207 -58 C207 -58 218 -57 226 -57 C272 -57 311 -72 311 -108 C311 -135 279 -153 238 -153 C208 -153 180 -146 157 -134 L148 -148 C175 -163 206 -172 239 -172 L239 -172 Z " />
<glyph glyph-name="egrave" unicode="&#xe8;" horiz-adv-x="498" d="M308 551 L316 562 L152 712 L129 695 L308 551 Z M244 -9 C348 -9 426 46 454 145 L426 150 C399 58 325 16 247 16 C125 16 72 114 71 249 L458 249 L458 257 C458 389 406 516 255 516 C128 516 40 414 40 256 C40 121 92 -9 244 -9 L244 -9 Z M71 272 C75 416 153 492 255 492 C375 492 427 389 428 272 L71 272 Z " />
<glyph glyph-name="eacute" unicode="&#xe9;" horiz-adv-x="498" d="M240 551 L420 695 L396 712 L232 562 L240 551 Z M244 -9 C348 -9 426 46 454 145 L426 150 C399 58 325 16 247 16 C125 16 72 114 71 249 L458 249 L458 257 C458 389 406 516 255 516 C128 516 40 414 40 256 C40 121 92 -9 244 -9 L244 -9 Z M71 272 C75 416 153 492 255 492 C375 492 427 389 428 272 L71 272 Z " />
<glyph glyph-name="ecircumflex" unicode="&#xea;" horiz-adv-x="498" d="M138 577 L260 669 L380 577 L398 581 L259 705 L119 581 L138 577 Z M244 -9 C348 -9 426 46 454 145 L426 150 C399 58 325 16 247 16 C125 16 72 114 71 249 L458 249 L458 257 C458 389 406 516 255 516 C128 516 40 414 40 256 C40 121 92 -9 244 -9 L244 -9 Z M71 272 C75 416 153 492 255 492 C375 492 427 389 428 272 L71 272 Z " />
<glyph glyph-name="edieresis" unicode="&#xeb;" horiz-adv-x="498" d="M340 617 C352 617 363 627 363 640 C363 652 352 660 341 660 C328 660 317 652 317 640 C317 628 327 617 340 617 L340 617 Z M186 617 C199 617 210 627 210 640 C210 652 198 660 187 660 C175 660 164 652 164 640 C164 628 173 617 186 617 L186 617 Z M244 -9 C348 -9 426 46 454 145 L426 150 C399 58 325 16 247 16 C125 16 72 114 71 249 L458 249 L458 257 C458 389 406 516 255 516 C128 516 40 414 40 256 C40 121 92 -9 244 -9 L244 -9 Z M71 272 C75 416 153 492 255 492 C375 492 427 389 428 272 L71 272 Z " />
<glyph glyph-name="igrave" unicode="&#xec;" horiz-adv-x="197" d="M128 551 L137 562 L-27 712 L-51 695 L128 551 Z M84 0 L113 0 L113 503 L84 503 L84 0 Z " />
<glyph glyph-name="iacute" unicode="&#xed;" horiz-adv-x="197" d="M108 551 L287 695 L264 712 L100 562 L108 551 Z M84 0 L113 0 L113 503 L84 503 L84 0 Z " />
<glyph glyph-name="icircumflex" unicode="&#xee;" horiz-adv-x="197" d="M-15 577 L107 669 L226 577 L245 581 L106 705 L-34 581 L-15 577 Z M84 0 L113 0 L113 503 L84 503 L84 0 Z " />
<glyph glyph-name="idieresis" unicode="&#xef;" horiz-adv-x="197" d="M175 617 C187 617 198 627 198 640 C198 652 187 660 176 660 C163 660 152 652 152 640 C152 628 162 617 175 617 L175 617 Z M21 617 C34 617 45 627 45 640 C45 652 33 660 22 660 C10 660 -1 652 -1 640 C-1 628 8 617 21 617 L21 617 Z M84 0 L113 0 L113 503 L84 503 L84 0 Z " />
<glyph glyph-name="eth" unicode="&#xf0;" horiz-adv-x="498" d="M244 -9 C377 -9 458 94 458 256 C458 399 385 528 300 612 L368 680 L351 697 L282 629 C239 668 193 695 155 707 L140 682 C182 671 225 645 264 611 L204 552 L221 534 L283 595 C328 553 366 502 388 455 L386 455 C363 489 311 516 254 516 C121 516 40 416 40 256 C40 121 90 -9 244 -9 L244 -9 Z M245 16 C120 16 70 121 70 256 C70 414 147 491 254 491 C378 491 428 376 428 255 C428 95 351 16 245 16 L245 16 Z " />
<glyph glyph-name="ntilde" unicode="&#xf1;" horiz-adv-x="489" d="M323 601 C353 601 384 621 396 659 L377 666 C368 642 349 627 325 627 C266 627 233 678 170 678 C141 678 111 661 98 625 L116 617 C126 641 143 652 169 652 C225 652 260 601 323 601 L323 601 Z M70 0 L99 0 L99 334 C99 381 164 491 270 491 C332 491 390 461 390 349 L390 0 L419 0 L419 347 C419 482 343 516 272 516 C176 516 115 431 100 396 L98 396 L98 503 L70 503 L70 0 Z " />
<glyph glyph-name="ograve" unicode="&#xf2;" horiz-adv-x="498" d="M308 551 L316 562 L152 712 L129 695 L308 551 Z M244 -9 C377 -9 458 94 458 256 C458 375 408 516 254 516 C121 516 40 416 40 256 C40 121 90 -9 244 -9 L244 -9 Z M245 16 C120 16 70 121 70 256 C70 414 147 491 254 491 C378 491 428 376 428 255 C428 95 351 16 245 16 L245 16 Z " />
<glyph glyph-name="oacute" unicode="&#xf3;" horiz-adv-x="498" d="M239 551 L418 695 L394 712 L230 562 L239 551 Z M244 -9 C377 -9 458 94 458 256 C458 375 408 516 254 516 C121 516 40 416 40 256 C40 121 90 -9 244 -9 L244 -9 Z M245 16 C120 16 70 121 70 256 C70 414 147 491 254 491 C378 491 428 376 428 255 C428 95 351 16 245 16 L245 16 Z " />
<glyph glyph-name="ocircumflex" unicode="&#xf4;" horiz-adv-x="498" d="M133 577 L254 669 L374 577 L393 581 L254 705 L114 581 L133 577 Z M244 -9 C377 -9 458 94 458 256 C458 375 408 516 254 516 C121 516 40 416 40 256 C40 121 90 -9 244 -9 L244 -9 Z M245 16 C120 16 70 121 70 256 C70 414 147 491 254 491 C378 491 428 376 428 255 C428 95 351 16 245 16 L245 16 Z " />
<glyph glyph-name="otilde" unicode="&#xf5;" horiz-adv-x="498" d="M339 601 C369 601 400 621 412 659 L393 666 C384 642 365 627 341 627 C281 627 249 678 186 678 C156 678 127 661 114 625 L132 617 C142 641 159 652 184 652 C241 652 276 601 339 601 L339 601 Z M244 -9 C377 -9 458 94 458 256 C458 375 408 516 254 516 C121 516 40 416 40 256 C40 121 90 -9 244 -9 L244 -9 Z M245 16 C120 16 70 121 70 256 C70 414 147 491 254 491 C378 491 428 376 428 255 C428 95 351 16 245 16 L245 16 Z " />
<glyph glyph-name="odieresis" unicode="&#xf6;" horiz-adv-x="498" d="M331 617 C343 617 354 627 354 640 C354 652 343 660 332 660 C319 660 308 652 308 640 C308 628 318 617 331 617 L331 617 Z M177 617 C190 617 201 627 201 640 C201 652 189 660 178 660 C166 660 155 652 155 640 C155 628 164 617 177 617 L177 617 Z M244 -9 C377 -9 458 94 458 256 C458 375 408 516 254 516 C121 516 40 416 40 256 C40 121 90 -9 244 -9 L244 -9 Z M245 16 C120 16 70 121 70 256 C70 414 147 491 254 491 C378 491 428 376 428 255 C428 95 351 16 245 16 L245 16 Z " />
<glyph glyph-name="divide" unicode="&#xf7;" horiz-adv-x="583" d="M274 432 L311 432 L311 467 L274 467 L274 432 Z M40 278 L535 278 L535 303 L40 303 L40 278 Z M274 107 L311 107 L311 143 L274 143 L274 107 Z " />
<glyph glyph-name="oslash" unicode="&#xf8;" horiz-adv-x="498" d="M7 -55 L34 -55 L107 45 C138 12 183 -9 244 -9 C377 -9 458 94 458 256 C458 322 443 396 403 447 L490 566 L462 566 L388 464 C356 495 313 516 254 516 C121 516 40 416 40 256 C40 183 55 112 93 61 L7 -55 Z M111 86 C82 130 70 190 70 256 C70 414 147 491 254 491 C304 491 343 472 371 441 L111 86 Z M245 16 C192 16 152 35 124 68 L384 422 C415 377 428 317 428 255 C428 95 351 16 245 16 L245 16 Z " />
<glyph glyph-name="ugrave" unicode="&#xf9;" horiz-adv-x="487" d="M283 551 L292 562 L128 712 L104 695 L283 551 Z M216 -12 C313 -12 371 71 387 107 L389 107 L389 0 L417 0 L417 503 L388 503 L388 166 C388 118 325 13 219 13 C157 13 99 38 99 151 L99 503 L70 503 L70 152 C70 17 145 -12 216 -12 L216 -12 Z " />
<glyph glyph-name="uacute" unicode="&#xfa;" horiz-adv-x="487" d="M216 551 L395 695 L371 712 L207 562 L216 551 Z M216 -12 C313 -12 371 71 387 107 L389 107 L389 0 L417 0 L417 503 L388 503 L388 166 C388 118 325 13 219 13 C157 13 99 38 99 151 L99 503 L70 503 L70 152 C70 17 145 -12 216 -12 L216 -12 Z " />
<glyph glyph-name="ucircumflex" unicode="&#xfb;" horiz-adv-x="487" d="M134 577 L256 669 L375 577 L394 581 L255 705 L115 581 L134 577 Z M216 -12 C313 -12 371 71 387 107 L389 107 L389 0 L417 0 L417 503 L388 503 L388 166 C388 118 325 13 219 13 C157 13 99 38 99 151 L99 503 L70 503 L70 152 C70 17 145 -12 216 -12 L216 -12 Z " />
<glyph glyph-name="udieresis" unicode="&#xfc;" horiz-adv-x="487" d="M318 617 C331 617 342 627 342 640 C342 652 331 660 319 660 C307 660 296 652 296 640 C296 628 306 617 318 617 L318 617 Z M164 617 C178 617 189 627 189 640 C189 652 177 660 165 660 C154 660 143 652 143 640 C143 628 152 617 164 617 L164 617 Z M216 -12 C313 -12 371 71 387 107 L389 107 L389 0 L417 0 L417 503 L388 503 L388 166 C388 118 325 13 219 13 C157 13 99 38 99 151 L99 503 L70 503 L70 152 C70 17 145 -12 216 -12 L216 -12 Z " />
<glyph glyph-name="yacute" unicode="&#xfd;" horiz-adv-x="388" d="M183 551 L361 695 L338 712 L173 562 L183 551 Z M51 -178 C110 -178 153 -147 182 -70 L386 503 L357 503 L195 41 L193 41 L34 503 L2 503 L181 0 L157 -65 C135 -123 108 -154 48 -154 C24 -154 2 -145 2 -145 L2 -169 C2 -169 24 -178 51 -178 L51 -178 Z " />
<glyph glyph-name="thorn" unicode="&#xfe;" horiz-adv-x="495" d="M70 -172 L99 -172 L99 124 L101 124 C116 71 162 -9 261 -9 C382 -9 455 97 455 259 C455 378 416 516 271 516 C177 516 119 438 100 373 L98 373 L98 679 L70 679 L70 -172 Z M260 16 C160 16 99 117 99 227 L99 282 C99 398 177 491 268 491 C384 491 425 378 425 258 C425 98 354 16 260 16 L260 16 Z " />
<glyph glyph-name="ydieresis" unicode="&#xff;" horiz-adv-x="388" d="M283 617 C296 617 307 627 307 640 C307 652 296 660 284 660 C272 660 261 652 261 640 C261 628 271 617 283 617 L283 617 Z M129 617 C143 617 154 627 154 640 C154 652 142 660 130 660 C119 660 108 652 108 640 C108 628 117 617 129 617 L129 617 Z M51 -178 C110 -178 153 -147 182 -70 L386 503 L357 503 L195 41 L193 41 L34 503 L2 503 L181 0 L157 -65 C135 -123 108 -154 48 -154 C24 -154 2 -145 2 -145 L2 -169 C2 -169 24 -178 51 -178 L51 -178 Z " />
<glyph glyph-name="dotlessi" unicode="&#x131;" horiz-adv-x="197" d="M84 0 L113 0 L113 503 L84 503 L84 0 Z " />
<glyph glyph-name="Lslash" unicode="&#x141;" horiz-adv-x="474" d="M80 0 L463 0 L463 27 L110 27 L110 271 L189 350 L172 367 L110 306 L110 679 L80 679 L80 276 L9 205 L27 187 L80 240 L80 0 Z " />
<glyph glyph-name="lslash" unicode="&#x142;" horiz-adv-x="193" d="M84 0 L113 0 L113 290 L187 365 L170 382 L113 324 L113 679 L84 679 L84 295 L7 218 L25 201 L84 260 L84 0 Z " />
<glyph glyph-name="OE" unicode="&#x152;" horiz-adv-x="844" d="M309 0 L805 0 L805 26 L453 26 L453 342 L722 342 L722 368 L453 368 L453 652 L792 652 L792 679 L307 679 C134 679 40 527 40 331 C40 160 134 0 309 0 L309 0 Z M311 26 C165 26 71 155 71 332 C71 539 173 653 313 653 L423 653 L423 26 L311 26 Z " />
<glyph glyph-name="oe" unicode="&#x153;" horiz-adv-x="880" d="M244 -9 C357 -9 422 63 441 180 L443 180 C458 77 505 -9 632 -9 C735 -9 813 46 842 145 L813 150 C787 58 713 16 635 16 C513 16 460 114 458 249 L846 249 L846 257 C846 389 794 516 643 516 C533 516 465 444 445 327 L443 327 C428 423 378 516 254 516 C121 516 40 416 40 256 C40 121 90 -9 244 -9 L244 -9 Z M459 272 C463 416 541 492 643 492 C763 492 815 390 816 272 L459 272 Z M245 16 C120 16 70 121 70 256 C70 414 147 491 254 491 C378 491 428 376 428 255 C428 95 351 16 245 16 L245 16 Z " />
<glyph glyph-name="Scaron" unicode="&#x160;" horiz-adv-x="540" d="M298 738 L436 862 L418 866 L297 774 L177 866 L157 862 L298 738 Z M274 -9 C424 -9 506 63 506 178 C506 283 431 343 264 370 C125 393 90 447 90 523 C90 600 154 664 266 664 C378 664 443 600 458 505 L486 511 C471 616 394 689 267 689 C133 689 60 611 60 521 C60 427 110 366 252 341 C407 314 475 270 475 177 C475 76 404 17 274 17 C116 17 63 132 57 190 L27 184 C36 120 92 -9 274 -9 L274 -9 Z " />
<glyph glyph-name="scaron" unicode="&#x161;" horiz-adv-x="424" d="M219 568 L357 692 L339 695 L218 603 L97 695 L78 692 L219 568 Z M219 -9 C352 -9 402 63 402 134 C402 215 341 259 221 277 C102 294 71 322 71 389 C71 453 117 491 208 491 C296 491 339 445 353 385 L380 390 C362 469 304 516 209 516 C110 516 42 468 42 387 C42 302 86 268 208 248 C332 228 373 194 373 133 C373 75 336 16 219 16 C101 16 62 84 51 139 L22 133 C35 72 77 -9 219 -9 L219 -9 Z " />
<glyph glyph-name="Ydieresis" unicode="&#x178;" horiz-adv-x="466" d="M316 741 C329 741 340 751 340 764 C340 777 328 785 317 785 C305 785 294 777 294 764 C294 752 304 741 316 741 L316 741 Z M162 741 C176 741 187 751 187 764 C187 777 175 785 163 785 C152 785 141 777 141 764 C141 752 150 741 162 741 L162 741 Z M218 0 L248 0 L248 317 L464 679 L432 679 L236 343 L234 343 L37 679 L1 679 L218 316 L218 0 Z " />
<glyph glyph-name="Zcaron" unicode="&#x17d;" horiz-adv-x="535" d="M288 738 L426 862 L408 866 L287 774 L167 866 L147 862 L288 738 Z M38 0 L496 0 L496 26 L74 26 L74 29 L485 656 L485 679 L75 679 L75 653 L449 653 L449 651 L38 26 L38 0 Z " />
<glyph glyph-name="zcaron" unicode="&#x17e;" horiz-adv-x="388" d="M209 568 L347 692 L329 695 L208 603 L87 695 L68 692 L209 568 Z M18 0 L368 0 L368 24 L54 24 L54 26 L368 482 L368 503 L43 503 L43 479 L330 479 L330 477 L18 24 L18 0 Z " />
<glyph glyph-name="florin" unicode="&#x192;" horiz-adv-x="583" d="M47 -178 C117 -178 166 -143 200 -15 L290 319 L498 319 L498 343 L296 343 L348 534 C367 606 402 659 463 659 C492 659 519 652 519 652 L526 676 C526 676 502 682 468 682 C398 682 344 629 318 533 L266 343 L113 343 L113 319 L260 319 L171 -16 C145 -110 116 -154 51 -154 C22 -154 -4 -145 -4 -145 L-10 -169 C-10 -169 13 -178 47 -178 L47 -178 Z " />
<glyph glyph-name="circumflex" unicode="&#x2c6;" horiz-adv-x="498" d="M133 577 L254 669 L374 577 L393 581 L254 705 L114 581 L133 577 Z " />
<glyph glyph-name="caron" unicode="&#x2c7;" horiz-adv-x="498" d="M254 568 L392 692 L373 695 L253 603 L132 695 L113 692 L254 568 Z " />
<glyph glyph-name="breve" unicode="&#x2d8;" horiz-adv-x="456" d="M237 610 C294 610 342 637 355 700 L335 700 C321 651 282 632 237 632 C190 632 147 649 133 700 L112 700 C129 636 175 610 237 610 L237 610 Z " />
<glyph glyph-name="dotaccent" unicode="&#x2d9;" horiz-adv-x="197" d="M82 591 L116 591 L116 624 L82 624 L82 591 Z " />
<glyph glyph-name="ring" unicode="&#x2da;" horiz-adv-x="484" d="M254 560 C305 560 347 598 347 649 C347 699 305 738 254 738 C203 738 161 699 161 649 C161 598 203 560 254 560 L254 560 Z M254 577 C213 577 179 607 179 649 C179 689 212 721 254 721 C296 721 330 689 330 649 C330 607 295 577 254 577 L254 577 Z " />
<glyph glyph-name="ogonek" unicode="&#x2db;" horiz-adv-x="444" d="M220 -135 C254 -135 289 -115 302 -104 L292 -90 C280 -99 252 -114 222 -114 C182 -114 151 -97 151 -66 C151 -23 197 -10 226 -3 L226 0 L188 -5 C165 -13 126 -36 126 -69 C126 -114 175 -135 220 -135 L220 -135 Z " />
<glyph glyph-name="tilde" unicode="&#x2dc;" horiz-adv-x="498" d="M339 601 C369 601 400 621 412 659 L393 666 C384 642 365 627 341 627 C281 627 249 678 186 678 C156 678 127 661 114 625 L132 617 C142 641 159 652 184 652 C241 652 276 601 339 601 L339 601 Z " />
<glyph glyph-name="hungarumlaut" unicode="&#x2dd;" horiz-adv-x="554" d="M181 566 L359 710 L336 727 L171 576 L181 566 Z M248 548 L427 692 L403 709 L239 558 L248 548 Z " />
<glyph glyph-name="endash" unicode="&#x2013;" horiz-adv-x="436" d="M0 245 L436 245 L436 269 L0 269 L0 245 Z " />
<glyph glyph-name="emdash" unicode="&#x2014;" horiz-adv-x="915" d="M0 245 L915 245 L915 269 L0 269 L0 245 Z " />
<glyph glyph-name="quoteleft" unicode="&#x2018;" horiz-adv-x="207" d="M72 535 L113 535 L113 579 L93 579 L135 679 L122 679 L72 577 L72 535 Z " />
<glyph glyph-name="quoteright" unicode="&#x2019;" horiz-adv-x="207" d="M66 535 L78 535 L129 637 L129 679 L89 679 L89 635 L108 635 L66 535 Z " />
<glyph glyph-name="quotesinglbase" unicode="&#x201a;" horiz-adv-x="207" d="M66 -100 L78 -100 L129 2 L129 44 L89 44 L89 0 L108 0 L66 -100 Z " />
<glyph glyph-name="quotedblleft" unicode="&#x201c;" horiz-adv-x="302" d="M164 535 L205 535 L205 579 L186 579 L227 679 L215 679 L164 577 L164 535 Z M74 535 L116 535 L116 579 L96 579 L137 679 L125 679 L74 577 L74 535 Z " />
<glyph glyph-name="quotedblright" unicode="&#x201d;" horiz-adv-x="302" d="M156 535 L168 535 L219 637 L219 679 L178 679 L178 635 L197 635 L156 535 Z M66 535 L78 535 L129 637 L129 679 L89 679 L89 635 L108 635 L66 535 Z " />
<glyph glyph-name="quotedblbase" unicode="&#x201e;" horiz-adv-x="302" d="M156 -100 L168 -100 L219 2 L219 44 L178 44 L178 0 L197 0 L156 -100 Z M66 -100 L78 -100 L129 2 L129 44 L89 44 L89 0 L108 0 L66 -100 Z " />
<glyph glyph-name="dagger" unicode="&#x2020;" horiz-adv-x="535" d="M259 -169 L278 -169 L278 91 C278 292 281 364 295 417 L275 454 L275 456 L473 444 L463 463 L473 483 L275 467 L294 680 L268 667 L242 680 L262 467 L63 483 L72 463 L63 444 L262 456 L262 454 L239 417 C255 369 258 292 259 90 L259 -169 Z " />
<glyph glyph-name="daggerdbl" unicode="&#x2021;" horiz-adv-x="535" d="M259 -169 L278 -169 L278 -17 C278 176 281 234 295 288 L275 324 L275 326 L473 315 L463 334 L473 353 L276 338 L295 423 L275 458 L275 460 L473 449 L463 468 L473 487 L275 472 L294 680 L268 667 L242 680 L262 472 L63 487 L72 468 L63 449 L262 460 L262 458 L239 423 L261 338 L63 353 L72 334 L63 315 L262 326 L262 324 L239 288 C255 239 258 176 259 -18 L259 -169 Z " />
<glyph glyph-name="bullet" unicode="&#x2022;" horiz-adv-x="310" d="M154 192 C218 192 266 239 266 301 C266 364 218 412 154 412 C90 412 42 364 42 301 C42 237 90 192 154 192 L154 192 Z " />
<glyph glyph-name="ellipsis" unicode="&#x2026;" horiz-adv-x="609" d="M498 0 L536 0 L536 38 L498 38 L498 0 Z M291 0 L329 0 L329 38 L291 38 L291 0 Z M83 0 L122 0 L122 38 L83 38 L83 0 Z " />
<glyph glyph-name="perthousand" unicode="&#x2030;" horiz-adv-x="929" d="M161 352 C258 352 302 434 302 519 C302 607 259 689 159 689 C61 689 19 607 19 519 C19 434 64 352 161 352 L161 352 Z M54 0 L86 0 L545 679 L514 679 L54 0 Z M768 -9 C865 -9 909 74 909 159 C909 247 866 328 766 328 C668 328 626 247 626 159 C626 74 671 -9 768 -9 L768 -9 Z M442 -9 C539 -9 583 74 583 159 C583 247 540 328 440 328 C342 328 300 247 300 159 C300 74 345 -9 442 -9 L442 -9 Z M161 374 C77 374 44 447 44 519 C44 594 75 667 159 667 C244 667 276 594 276 519 C276 447 244 374 161 374 L161 374 Z M768 13 C685 13 652 86 652 159 C652 233 682 306 766 306 C852 306 883 233 883 159 C883 86 852 13 768 13 L768 13 Z M442 13 C359 13 326 86 326 159 C326 233 356 306 440 306 C526 306 558 233 558 159 C558 86 526 13 442 13 L442 13 Z " />
<glyph glyph-name="guilsinglleft" unicode="&#x2039;" horiz-adv-x="175" d="M127 106 L144 106 L76 256 L144 400 L126 400 L40 256 L127 106 Z " />
<glyph glyph-name="guilsinglright" unicode="&#x203a;" horiz-adv-x="175" d="M33 106 L50 106 L137 256 L51 400 L33 400 L101 256 L33 106 Z " />
<glyph glyph-name="fraction" unicode="&#x2044;" horiz-adv-x="140" d="M-146 0 L-119 0 L292 679 L264 679 L-146 0 Z " />
<glyph glyph-name="Euro" unicode="&#x20ac;" horiz-adv-x="583" d="M352 -9 C485 -9 546 90 569 218 L541 223 C518 98 465 16 352 16 C225 16 170 117 153 245 L326 245 L335 269 L151 269 C149 291 148 314 148 337 C148 357 149 379 149 398 L383 398 L392 423 L152 423 C167 556 221 664 349 664 C459 664 513 576 536 460 L566 466 C542 587 481 689 349 689 C207 689 140 570 122 423 L3 423 L3 398 L120 398 C118 378 117 357 117 336 C117 313 118 291 120 269 L2 269 L2 245 L122 245 C142 102 210 -9 352 -9 L352 -9 Z " />
<glyph glyph-name="trademark" unicode="&#x2122;" horiz-adv-x="776" d="M349 320 L372 320 L372 633 L374 633 L518 320 L538 320 L676 633 L678 633 L678 320 L704 320 L704 680 L673 680 L530 351 L528 351 L378 680 L349 680 L349 320 Z M140 320 L165 320 L165 657 L293 657 L293 680 L12 680 L12 657 L140 657 L140 320 Z " />
<glyph glyph-name="partialdiff" unicode="&#x2202;" horiz-adv-x="498" d="M244 -9 C377 -9 458 94 458 256 C458 482 276 671 155 707 L140 682 C236 657 344 548 388 455 L386 455 C363 489 311 516 254 516 C121 516 40 416 40 256 C40 121 90 -9 244 -9 L244 -9 Z M245 16 C120 16 70 121 70 256 C70 414 147 491 254 491 C378 491 428 376 428 255 C428 95 351 16 245 16 L245 16 Z " />
<glyph glyph-name="minus" unicode="&#x2212;" horiz-adv-x="583" d="M40 278 L535 278 L535 303 L40 303 L40 278 Z " />
<glyph glyph-name="integral" unicode="&#x222b;" horiz-adv-x="583" d="M47 -178 C117 -178 166 -143 200 -15 L348 534 C367 606 402 659 463 659 C492 659 519 652 519 652 L526 676 C526 676 502 682 468 682 C398 682 344 629 318 533 L171 -16 C145 -110 116 -154 51 -154 C22 -154 -4 -145 -4 -145 L-10 -169 C-10 -169 13 -178 47 -178 L47 -178 Z " />
<glyph glyph-name="fi" unicode="&#xfb01;" horiz-adv-x="438" d="M325 591 L359 591 L359 624 L325 624 L325 591 Z M100 0 L129 0 L129 479 L265 479 L265 503 L129 503 L129 534 C129 606 150 659 212 659 C241 659 270 652 270 652 L270 676 C270 676 244 682 210 682 C140 682 100 629 100 533 L100 503 L13 503 L13 479 L100 479 L100 0 Z M327 0 L356 0 L356 503 L327 503 L327 0 Z " />
<glyph glyph-name="fl" unicode="&#xfb02;" horiz-adv-x="437" d="M100 0 L129 0 L129 479 L263 479 L263 503 L129 503 L129 534 C129 606 150 659 212 659 C241 659 270 652 270 652 L270 676 C270 676 244 682 210 682 C140 682 100 629 100 533 L100 503 L13 503 L13 479 L100 479 L100 0 Z M327 0 L356 0 L356 679 L327 679 L327 0 Z " />
</font>
</svg>
