<?xml version="1.0" encoding="UTF-8"?>
<svg xmlns="http://www.w3.org/2000/svg" xmlns:xlink="http://www.w3.org/1999/xlink" version="1.2" >
<font id="MHE LetterGotLOTBol">
<font-face  font-family="MHE LetterGotLOTBol" units-per-em="1000" ascent="733" descent="-287" font-style="normal" font-weight="700" font-stretch="normal" cap-height="720" x-height="551" underline-position="-30" underline-thickness="106" />
<missing-glyph  horiz-adv-x="600" d="" />
<glyph glyph-name="NULL" d="" />
<glyph glyph-name="CR" unicode="&#xd;" horiz-adv-x="600" d="" />
<glyph glyph-name="space" unicode="&#x20;" horiz-adv-x="600" d="" />
<glyph glyph-name="exclam" unicode="&#x21;" horiz-adv-x="600" d="M228 720 L242 225 L349 225 L367 720 L228 720 Z M301 186 C245 186 201 142 201 87 C201 32 245 -12 301 -12 C354 -12 399 33 399 86 C399 141 355 186 301 186 L301 186 Z " />
<glyph glyph-name="quotedbl" unicode="&#x22;" horiz-adv-x="600" d="M303 722 L141 739 L90 435 L215 420 L303 722 Z M513 722 L351 739 L300 435 L425 420 L513 722 Z " />
<glyph glyph-name="numbersign" unicode="&#x23;" horiz-adv-x="600" d="M240 800 L182 506 L49 506 L28 400 L162 400 L146 317 L15 317 L-10 218 L126 218 L65 -88 L178 -88 L352 800 L240 800 Z M356 -88 L417 218 L549 218 L572 317 L437 317 L453 400 L585 400 L608 506 L473 506 L530 800 L417 800 L243 -88 L356 -88 Z " />
<glyph glyph-name="dollar" unicode="&#x24;" horiz-adv-x="600" d="M242 725 C152 700 100 634 100 543 C100 468 140 409 224 359 L305 312 C386 263 405 243 405 199 C405 140 360 97 296 97 C264 97 234 109 204 136 C188 150 188 150 152 200 L62 128 C126 44 169 12 242 -6 L242 -95 L354 -95 L354 -8 C460 14 521 90 521 199 C521 288 485 336 364 408 L290 451 C241 480 216 512 216 547 C216 589 253 623 300 623 C330 623 358 613 391 590 C403 581 411 574 449 543 L519 626 C469 677 412 712 354 726 L354 811 L242 811 L242 725 Z " />
<glyph glyph-name="percent" unicode="&#x25;" horiz-adv-x="600" d="M160 746 C122 746 89 732 65 706 C40 678 29 638 29 571 C29 507 37 471 57 442 C80 411 117 392 159 392 C195 392 229 407 252 432 C278 461 288 500 288 568 C288 632 280 667 260 696 C238 727 200 746 160 746 L160 746 Z M159 650 C175 650 182 625 182 569 C182 513 175 488 159 488 C142 488 135 513 135 569 C135 626 142 650 159 650 L159 650 Z M422 732 L47 -12 L167 -12 L544 732 L422 732 Z M443 349 C405 349 372 335 348 309 C323 281 312 241 312 173 C312 109 320 73 340 44 C363 13 400 -6 442 -6 C478 -6 512 8 535 34 C561 63 571 102 571 170 C571 235 563 269 543 299 C521 330 483 349 443 349 L443 349 Z M442 253 C458 253 465 227 465 172 C465 115 458 90 442 90 C425 90 418 115 418 172 C418 229 425 253 442 253 L442 253 Z " />
<glyph glyph-name="ampersand" unicode="&#x26;" horiz-adv-x="600" d="M376 391 L376 355 L376 341 C375 326 375 322 373 278 C331 341 328 347 308 385 C374 464 395 510 395 575 C395 665 337 732 259 732 C176 732 112 656 112 558 C112 505 126 464 167 393 C88 300 62 242 62 165 C62 58 134 -12 245 -12 C302 -12 337 2 399 51 C410 38 422 26 434 12 L472 -28 L552 54 C542 64 532 74 523 84 C506 101 493 115 461 151 C482 215 492 291 494 391 L376 391 Z M243 487 C231 523 228 538 228 560 C228 593 242 623 257 623 C269 623 279 602 279 576 C279 547 273 531 243 487 L243 487 Z M231 292 C241 276 251 260 262 244 L304 181 L334 138 C298 107 277 97 247 97 C204 97 178 122 178 163 C178 203 193 244 220 277 L231 292 Z " />
<glyph glyph-name="quotesingle" unicode="&#x27;" horiz-adv-x="600" d="M393 720 L251 740 L208 435 L319 420 L393 720 Z " />
<glyph glyph-name="parenleft" unicode="&#x28;" horiz-adv-x="600" d="M438 24 C395 58 390 62 376 77 C312 141 278 239 278 357 C278 462 307 556 358 616 C377 640 388 649 438 689 L377 771 C335 743 321 732 301 712 C212 628 162 499 162 357 C162 230 203 112 274 29 C303 -5 320 -19 377 -58 L438 24 Z " />
<glyph glyph-name="parenright" unicode="&#x29;" horiz-adv-x="600" d="M223 -58 C282 -16 282 -16 300 1 C387 84 439 216 439 357 C439 481 397 603 327 685 C298 718 295 721 223 771 L162 689 C197 662 208 652 224 637 C289 571 323 475 323 356 C323 265 300 179 259 119 C240 91 223 73 189 46 C180 38 171 31 162 24 L223 -58 Z " />
<glyph glyph-name="asterisk" unicode="&#x2a;" horiz-adv-x="600" d="M243 725 L243 559 L82 606 L50 500 L211 454 L111 327 L198 260 L300 389 L404 260 L490 327 L388 454 L550 500 L516 606 L355 559 L355 725 L243 725 Z " />
<glyph glyph-name="plus" unicode="&#x2b;" horiz-adv-x="600" d="M353 639 L247 639 L247 413 L5 413 L5 307 L247 307 L247 83 L353 83 L353 307 L595 307 L595 413 L353 413 L353 639 Z " />
<glyph glyph-name="comma" unicode="&#x2c;" horiz-adv-x="600" d="M210 -96 C328 -78 406 -9 406 78 C406 139 361 186 304 186 C252 186 208 144 208 94 C208 61 227 38 265 24 C250 12 234 7 210 6 L210 -96 Z " />
<glyph glyph-name="hyphen" unicode="&#x2d;" horiz-adv-x="600" d="M445 305 L445 411 L156 411 L156 305 L445 305 Z " />
<glyph glyph-name="period" unicode="&#x2e;" horiz-adv-x="600" d="M301 186 C245 186 201 142 201 87 C201 32 245 -12 301 -12 C354 -12 399 33 399 86 C399 141 355 186 301 186 L301 186 Z " />
<glyph glyph-name="slash" unicode="&#x2f;" horiz-adv-x="600" d="M289 -24 L427 744 L311 744 L173 -24 L289 -24 Z " />
<glyph glyph-name="zero" unicode="0" horiz-adv-x="600" d="M303 732 C240 732 184 704 145 653 C102 596 84 511 84 363 C84 234 94 164 123 105 C156 33 226 -12 301 -12 C362 -12 420 17 457 66 C499 122 517 206 517 354 C517 484 506 555 478 615 C444 686 376 732 303 732 L303 732 Z M301 623 C325 623 350 607 366 580 C390 542 401 476 401 364 C401 232 390 169 359 129 C343 109 321 97 300 97 C276 97 252 113 235 140 C210 179 200 244 200 358 C200 486 212 552 242 591 C257 611 280 623 301 623 L301 623 Z " />
<glyph glyph-name="one" unicode="1" horiz-adv-x="600" d="M383 757 L135 681 L135 568 L271 609 L271 106 L142 106 L142 0 L506 0 L506 106 L383 106 L383 757 Z " />
<glyph glyph-name="two" unicode="2" horiz-adv-x="600" d="M512 106 L209 106 C216 159 238 196 297 252 C445 385 445 385 459 404 C493 447 511 496 511 545 C511 657 435 732 321 732 C230 732 161 690 126 614 C109 578 108 570 98 486 L215 486 C217 532 221 548 231 571 C246 605 276 623 317 623 C365 623 395 594 395 546 C395 525 390 507 376 484 C359 456 359 456 263 372 C219 334 179 294 156 267 C111 214 88 143 88 62 L88 35 L89 0 L512 0 L512 106 Z " />
<glyph glyph-name="three" unicode="3" horiz-adv-x="600" d="M171 522 L177 532 L189 553 C211 596 252 623 295 623 C346 623 387 584 387 535 C387 498 362 464 324 447 C303 438 303 438 240 437 L240 329 L260 329 C368 329 417 291 417 208 C417 139 373 97 300 97 C244 97 210 119 183 174 C177 185 172 196 166 208 L63 148 C95 99 95 99 104 87 C155 20 219 -12 300 -12 C439 -12 533 78 533 210 C533 291 499 353 434 392 C481 429 503 476 503 535 C503 645 412 732 298 732 C211 732 138 689 91 609 L72 578 L171 522 Z " />
<glyph glyph-name="four" unicode="4" horiz-adv-x="600" d="M447 732 L324 732 L63 250 L63 174 L335 174 L335 0 L447 0 L447 174 L544 174 L544 280 L447 280 L447 732 Z M335 280 L205 280 L335 524 L335 280 Z " />
<glyph glyph-name="five" unicode="5" horiz-adv-x="600" d="M476 720 L132 720 L100 305 L205 284 C225 314 225 314 229 319 C252 346 278 360 306 360 C363 360 402 305 402 224 C402 151 359 97 301 97 C271 97 241 112 217 137 C205 150 197 161 176 197 L83 130 C116 84 131 66 154 44 C195 7 242 -12 297 -12 C428 -12 518 87 518 230 C518 371 432 469 308 469 C273 469 253 464 222 445 L235 614 L476 614 L476 720 Z " />
<glyph glyph-name="six" unicode="6" horiz-adv-x="600" d="M519 676 C480 698 480 698 477 700 C440 720 396 732 359 732 C300 732 244 707 197 661 C122 587 81 463 81 308 C81 105 160 -12 298 -12 C425 -12 517 92 517 235 C517 378 436 476 318 476 C279 476 251 468 208 444 C227 547 291 623 358 623 C386 623 396 619 462 578 L519 676 Z M311 367 C367 367 401 319 401 241 C401 156 359 97 298 97 C242 97 203 150 203 225 C203 303 251 367 311 367 L311 367 Z " />
<glyph glyph-name="seven" unicode="7" horiz-adv-x="600" d="M86 720 L86 614 L362 614 L114 0 L237 0 L521 720 L86 720 Z " />
<glyph glyph-name="eight" unicode="8" horiz-adv-x="600" d="M449 376 C497 427 513 465 513 525 C513 649 427 732 297 732 C169 732 82 649 82 527 C82 467 99 426 145 376 C85 334 58 282 58 211 C58 139 82 81 127 44 C170 8 233 -12 302 -12 C441 -12 538 77 538 205 C538 277 507 337 449 376 L449 376 Z M300 319 C375 319 422 277 422 208 C422 139 375 97 298 97 C220 97 174 139 174 209 C174 278 221 319 300 319 L300 319 Z M298 623 C361 623 397 587 397 525 C397 463 361 427 298 427 C235 427 198 462 198 522 C198 586 234 623 298 623 L298 623 Z " />
<glyph glyph-name="nine" unicode="9" horiz-adv-x="600" d="M85 44 C123 22 123 22 127 20 C164 -1 207 -12 245 -12 C303 -12 359 13 406 59 C482 134 523 257 523 412 C523 615 443 732 306 732 C179 732 86 625 86 481 C86 341 168 244 286 244 C326 244 353 252 396 276 C377 176 312 97 248 97 C218 97 199 105 143 143 L85 44 Z M307 623 C363 623 401 569 401 490 C401 415 352 353 291 353 C236 353 202 402 202 481 C202 567 244 623 307 623 L307 623 Z " />
<glyph glyph-name="colon" unicode="&#x3a;" horiz-adv-x="600" d="M301 186 C245 186 201 142 201 87 C201 32 245 -12 301 -12 C354 -12 399 33 399 86 C399 141 355 186 301 186 L301 186 Z M301 500 C245 500 201 456 201 401 C201 346 245 302 301 302 C354 302 399 347 399 400 C399 455 355 500 301 500 L301 500 Z " />
<glyph glyph-name="semicolon" unicode="&#x3b;" horiz-adv-x="600" d="M308 500 C252 500 208 456 208 401 C208 346 252 302 308 302 C361 302 406 347 406 400 C406 455 362 500 308 500 L308 500 Z M210 -96 C328 -78 406 -9 406 78 C406 139 361 186 304 186 C252 186 208 144 208 94 C208 61 227 38 265 24 C250 12 234 7 210 6 L210 -96 Z " />
<glyph glyph-name="less" unicode="&#x3c;" horiz-adv-x="600" d="M226 328 L527 608 L461 682 L81 328 L461 -25 L527 49 L226 328 Z " />
<glyph glyph-name="equal" unicode="&#x3d;" horiz-adv-x="600" d="M595 311 L5 311 L5 205 L595 205 L595 311 Z M595 516 L5 516 L5 410 L595 410 L595 516 Z " />
<glyph glyph-name="greater" unicode="&#x3e;" horiz-adv-x="600" d="M383 328 L82 49 L148 -25 L528 328 L148 682 L82 608 L383 328 Z " />
<glyph glyph-name="question" unicode="&#x3f;" horiz-adv-x="600" d="M355 223 L355 303 C355 338 358 345 377 360 L430 402 C471 440 490 484 490 541 C490 656 414 732 299 732 C218 732 154 693 123 625 C109 596 109 596 104 522 L225 522 C228 565 230 578 238 593 C248 611 272 623 298 623 C344 623 374 591 374 542 C374 510 364 493 332 469 C261 416 243 389 243 336 L243 223 L355 223 Z M298 186 C242 186 198 142 198 87 C198 32 242 -12 298 -12 C351 -12 396 33 396 86 C396 141 352 186 298 186 L298 186 Z " />
<glyph glyph-name="at" unicode="&#x40;" horiz-adv-x="600" d="M527 177 L489 155 C418 115 355 97 288 97 C226 97 169 119 137 155 C108 186 93 240 93 309 C93 495 191 631 326 631 C389 631 451 598 485 546 C507 513 517 474 517 424 C517 338 484 273 441 273 C430 273 423 279 423 291 C423 299 425 314 428 333 L462 520 C410 522 402 522 391 522 C309 522 249 504 212 470 C168 429 134 347 134 279 C134 216 185 166 248 166 C286 166 314 176 349 203 C374 181 404 170 440 170 C546 170 623 277 623 425 C623 508 600 577 556 629 C501 695 413 734 324 734 C226 734 131 686 73 608 C11 527 -23 418 -23 306 C-23 211 3 136 55 80 C109 22 192 -12 278 -12 C379 -12 459 13 570 78 L527 177 Z M328 388 C319 337 309 311 292 291 C281 278 268 269 259 269 C254 269 250 275 250 285 C250 314 266 359 286 386 C297 402 305 406 332 411 L328 388 Z " />
<glyph glyph-name="A" unicode="A" horiz-adv-x="600" d="M400 176 L447 0 L571 0 L364 720 L237 720 L30 0 L153 0 L201 176 L400 176 Z M370 282 L231 282 L300 530 L370 282 Z " />
<glyph glyph-name="B" unicode="B" horiz-adv-x="600" d="M94 720 C96 654 100 519 100 500 L100 219 C100 200 96 68 94 0 L296 0 C360 0 394 8 432 32 C492 70 524 132 524 209 C524 285 494 339 427 381 C471 415 495 466 495 526 C495 589 469 646 425 680 C384 711 342 720 243 720 L94 720 Z M212 425 L212 614 L260 614 C292 614 319 611 333 605 C362 594 379 567 379 530 C379 465 332 425 254 425 L212 425 Z M212 106 L212 320 L271 320 C312 320 341 313 362 299 C391 278 408 244 408 205 C408 171 396 145 373 127 C354 112 331 106 289 106 L212 106 Z " />
<glyph glyph-name="C" unicode="C" horiz-adv-x="600" d="M412 212 C408 167 406 158 399 143 C386 115 354 97 316 97 C233 97 193 179 193 350 C193 536 234 623 322 623 C354 623 379 609 390 587 C396 575 397 569 399 526 L515 526 C511 575 509 589 503 608 C478 684 408 732 320 732 C161 732 77 600 77 350 C77 111 158 -12 315 -12 C399 -12 467 24 496 84 C513 120 517 137 526 212 L412 212 Z " />
<glyph glyph-name="D" unicode="D" horiz-adv-x="600" d="M83 720 C85 654 89 519 89 501 L89 219 C89 200 85 69 83 0 L260 0 C342 0 395 16 435 53 C492 104 519 203 519 354 C519 475 500 569 466 624 C423 691 361 720 260 720 L83 720 Z M201 106 L201 614 L256 614 C372 614 403 560 403 360 C403 158 373 106 256 106 L201 106 Z " />
<glyph glyph-name="E" unicode="E" horiz-adv-x="600" d="M102 720 C103 714 104 679 105 613 L108 500 L108 219 C108 215 107 181 106 136 L104 45 C103 30 103 25 102 0 L506 0 L506 106 L220 106 L220 315 L423 315 L423 421 L220 421 L220 614 L499 614 L499 720 L102 720 Z " />
<glyph glyph-name="F" unicode="F" horiz-adv-x="600" d="M220 320 L440 320 L440 426 L220 426 L220 614 L510 614 L510 720 L102 720 C105 650 108 521 108 500 L108 219 C108 198 105 68 102 0 L226 0 C224 40 220 199 220 219 L220 320 Z " />
<glyph glyph-name="G" unicode="G" horiz-adv-x="600" d="M419 276 C418 219 413 191 401 164 C381 121 347 97 303 97 C223 97 186 176 186 349 C186 431 193 493 205 533 C223 589 261 623 305 623 C351 623 378 591 378 535 L378 499 L499 499 C494 564 492 574 485 597 C458 681 390 732 305 732 C241 732 184 705 143 657 C92 596 70 501 70 341 C70 243 78 184 99 129 C132 41 207 -12 297 -12 C342 -12 383 0 419 25 L419 0 L531 0 L531 382 L259 382 L259 276 L419 276 Z " />
<glyph glyph-name="H" unicode="H" horiz-adv-x="600" d="M207 425 L207 500 C207 515 209 607 213 720 L89 720 C91 658 95 518 95 500 L95 219 C95 201 91 65 89 0 L213 0 C209 112 207 205 207 219 L207 319 L393 319 L393 219 C393 205 391 117 387 0 L511 0 C509 62 505 202 505 219 L505 500 C505 519 509 655 511 720 L387 720 C390 612 393 514 393 500 L393 425 L207 425 Z " />
<glyph glyph-name="I" unicode="I" horiz-adv-x="600" d="M242 614 C244 532 245 508 245 501 L245 219 C245 204 245 192 242 106 L151 106 L151 0 L450 0 L450 106 L360 106 C358 187 357 210 357 219 L357 501 C357 518 357 532 360 614 L450 614 L450 720 L151 720 L151 614 L242 614 Z " />
<glyph glyph-name="J" unicode="J" horiz-adv-x="600" d="M389 614 C391 535 392 513 392 501 L392 260 C392 208 389 173 384 156 C372 119 338 97 293 97 C238 97 203 133 206 189 L207 221 C209 260 210 283 215 337 L90 337 L93 299 C93 288 93 283 95 260 C96 243 96 230 96 221 L96 189 C96 64 172 -12 299 -12 C378 -12 443 21 476 78 C497 115 504 158 504 253 L504 501 L508 671 C509 683 509 695 510 720 L265 720 L265 614 L389 614 Z " />
<glyph glyph-name="K" unicode="K" horiz-adv-x="600" d="M178 282 L407 0 L561 0 L258 358 C329 410 393 501 485 679 L372 737 C325 596 270 509 178 428 L178 499 C178 514 180 606 184 720 L60 720 C62 658 66 518 66 499 L66 219 C66 201 62 65 60 0 L184 0 C180 113 178 205 178 219 L178 282 Z " />
<glyph glyph-name="L" unicode="L" horiz-adv-x="600" d="M511 0 L511 106 L223 106 C221 182 220 201 220 219 L220 500 C220 505 221 536 222 584 L225 720 L102 720 L103 683 C104 669 108 507 108 500 L108 219 C108 212 107 179 106 135 L104 45 C103 30 103 26 102 0 L511 0 Z " />
<glyph glyph-name="M" unicode="M" horiz-adv-x="600" d="M188 0 C186 40 182 199 182 219 L182 438 L301 149 L419 438 L419 219 C419 199 416 68 413 0 L537 0 L536 37 C535 62 531 207 531 219 L531 720 L425 720 L301 414 L177 720 L70 720 L70 219 C70 201 66 65 64 0 L188 0 Z " />
<glyph glyph-name="N" unicode="N" horiz-adv-x="600" d="M380 720 C383 649 386 524 386 501 L386 304 L220 720 L102 720 L102 220 C102 201 98 65 96 0 L220 0 C217 71 214 200 214 220 L214 450 L398 -7 L498 -7 L498 501 C498 521 501 649 504 720 L380 720 Z " />
<glyph glyph-name="O" unicode="O" horiz-adv-x="600" d="M303 732 C236 732 176 704 136 652 C91 595 72 511 72 363 C72 220 86 143 124 85 C164 23 228 -12 301 -12 C366 -12 427 17 465 65 C511 122 529 207 529 355 C529 497 514 576 477 635 C439 695 373 732 303 732 L303 732 Z M302 623 C337 623 371 598 388 558 C406 515 413 461 413 362 C413 252 404 190 382 151 C363 116 333 97 300 97 C264 97 231 121 213 162 C195 205 188 259 188 360 C188 467 197 529 219 569 C238 604 267 623 302 623 L302 623 Z " />
<glyph glyph-name="P" unicode="P" horiz-adv-x="600" d="M217 264 L235 264 C304 264 335 268 372 282 C457 313 501 385 501 491 C501 583 466 656 405 692 C369 713 333 720 259 720 L99 720 C102 650 105 521 105 500 L105 220 C105 199 102 69 99 0 L223 0 C221 63 217 202 217 220 L217 264 Z M217 369 L217 614 L251 614 C306 614 322 612 340 601 C368 585 385 543 385 490 C385 441 368 404 336 385 C318 374 292 369 248 369 L217 369 Z " />
<glyph glyph-name="Q" unicode="Q" horiz-adv-x="600" d="M471 74 C515 141 530 211 530 359 C530 498 515 576 478 635 C440 696 374 732 300 732 C234 732 175 704 134 652 C88 594 70 512 70 362 C70 220 84 143 122 85 C162 23 226 -12 300 -12 C329 -12 351 -8 384 4 L427 -55 L571 -55 L471 74 Z M301 623 C338 623 371 599 388 558 C407 516 414 459 414 361 C414 253 405 189 383 151 C363 116 334 97 300 97 C262 97 230 121 211 162 C193 203 186 258 186 362 C186 469 195 530 217 569 C236 604 266 623 301 623 L301 623 Z " />
<glyph glyph-name="R" unicode="R" horiz-adv-x="600" d="M211 279 L240 279 L279 279 L440 0 L579 0 L393 304 C463 348 498 415 498 501 C498 572 474 634 432 671 C392 707 349 720 267 720 L93 720 C95 653 99 518 99 499 L99 220 C99 201 95 65 93 0 L217 0 C215 67 211 199 211 220 L211 279 Z M211 384 L211 614 L241 614 C300 614 325 610 344 598 C369 583 382 551 382 507 C382 463 365 423 338 403 C322 391 294 384 264 384 L211 384 Z " />
<glyph glyph-name="S" unicode="S" horiz-adv-x="600" d="M527 626 C452 700 384 732 307 732 C191 732 108 653 108 543 C108 468 148 409 232 359 L313 312 C394 263 413 243 413 199 C413 140 368 97 304 97 C272 97 242 109 212 136 C196 150 196 150 160 200 L70 128 C107 82 107 82 119 69 C173 15 235 -12 311 -12 C442 -12 529 72 529 199 C529 288 493 337 372 408 L298 451 C249 480 224 512 224 547 C224 589 261 623 308 623 C338 623 366 613 399 590 C411 581 419 575 458 543 L527 626 Z " />
<glyph glyph-name="T" unicode="T" horiz-adv-x="600" d="M363 0 L362 37 C361 53 357 212 357 220 L357 614 L548 614 L548 720 L52 720 L52 614 L245 614 L245 220 C245 199 242 71 239 0 L363 0 Z " />
<glyph glyph-name="U" unicode="U" horiz-adv-x="600" d="M88 720 L89 683 C90 659 94 518 94 501 L94 252 C94 183 97 157 110 122 C140 42 217 -12 302 -12 C376 -12 450 30 480 90 C502 132 507 163 507 252 L507 501 C507 507 508 540 509 584 C510 635 512 680 513 720 L389 720 C391 657 395 518 395 501 L395 252 C395 222 392 186 389 172 C379 125 346 97 303 97 C267 97 236 117 220 151 C209 174 206 197 206 256 L206 501 C206 510 207 541 208 584 C210 661 210 676 212 720 L88 720 Z " />
<glyph glyph-name="V" unicode="V" horiz-adv-x="600" d="M300 232 L195 720 L71 720 C123 512 138 446 192 189 C220 56 224 36 234 -7 L366 -7 L384 77 C400 148 419 241 443 356 C467 467 488 557 529 720 L405 720 L300 232 Z " />
<glyph glyph-name="W" unicode="W" horiz-adv-x="600" d="M300 583 L207 286 L200 365 C187 516 186 528 182 720 L57 720 C60 689 64 659 67 630 C73 576 79 505 86 416 L104 190 C106 165 109 109 114 -7 L225 -7 L300 248 L374 -7 L486 -7 C490 97 493 155 495 190 C505 304 513 416 522 528 C524 555 530 605 542 720 L417 720 C414 560 412 518 399 365 L393 286 L300 583 Z " />
<glyph glyph-name="X" unicode="X" horiz-adv-x="600" d="M67 720 C171 510 173 506 241 362 C182 243 122 121 63 0 L195 0 C247 123 260 154 300 240 C342 151 360 108 405 0 L538 0 C446 185 432 212 361 365 L508 669 L532 720 L401 720 C341 578 336 566 300 489 C261 575 242 619 200 720 L67 720 Z " />
<glyph glyph-name="Y" unicode="Y" horiz-adv-x="600" d="M57 720 C139 540 201 401 244 303 L244 220 C244 197 241 78 238 0 L362 0 C361 23 361 30 360 41 C360 46 360 68 359 107 L356 220 L356 303 C433 479 437 489 543 720 L416 720 C361 589 322 497 300 447 C278 498 239 589 184 720 L57 720 Z " />
<glyph glyph-name="Z" unicode="Z" horiz-adv-x="600" d="M95 720 L95 614 L353 614 C260 419 241 379 188 279 L85 79 L85 0 L515 0 L515 106 L229 106 C343 344 374 407 493 641 L493 720 L95 720 Z " />
<glyph glyph-name="bracketleft" unicode="&#x5b;" horiz-adv-x="600" d="M480 -23 L480 76 L260 76 L260 646 L480 646 L480 745 L148 745 L148 -23 L480 -23 Z " />
<glyph glyph-name="backslash" unicode="&#x5c;" horiz-adv-x="600" d="M402 -25 L518 -25 L198 747 L82 747 L402 -25 Z " />
<glyph glyph-name="bracketright" unicode="&#x5d;" horiz-adv-x="600" d="M119 -23 L451 -23 L451 745 L119 745 L119 646 L339 646 L339 76 L119 76 L119 -23 Z " />
<glyph glyph-name="asciicircum" unicode="&#x5e;" horiz-adv-x="600" d="M357 722 L244 722 L73 329 L218 329 L301 525 L383 329 L528 329 L357 722 Z " />
<glyph glyph-name="underscore" unicode="&#x5f;" horiz-adv-x="600" d="M600 -136 L600 -30 L0 -30 L0 -136 L600 -136 Z " />
<glyph glyph-name="grave" unicode="&#x60;" horiz-adv-x="600" d="M242 816 L158 722 L379 575 L442 656 L242 816 Z " />
<glyph glyph-name="a" unicode="a" horiz-adv-x="600" d="M155 411 C259 453 261 454 294 454 C344 454 364 429 364 369 C331 380 305 385 278 385 C171 385 93 299 93 180 C93 64 162 -11 268 -11 C310 -11 333 -3 381 31 C383 25 385 19 391 3 L397 -14 L507 0 C477 87 476 91 476 182 L476 360 C476 485 408 563 298 563 C248 563 227 558 125 519 L155 411 Z M364 169 C327 116 302 98 267 98 C231 98 209 129 209 177 C209 239 239 276 287 276 C311 276 327 272 364 259 L364 169 Z " />
<glyph glyph-name="b" unicode="b" horiz-adv-x="600" d="M97 733 C98 707 100 636 103 520 L103 294 C103 136 101 112 80 40 C76 26 72 13 68 0 L180 -14 C187 7 188 11 193 25 C235 -3 260 -11 302 -11 C348 -11 395 6 435 38 C495 85 526 165 526 272 C526 441 430 563 298 563 C266 563 243 557 215 542 C219 677 219 679 221 733 L97 733 Z M215 420 C237 444 259 454 288 454 C363 454 410 383 410 271 C410 167 366 98 300 98 C265 98 243 114 215 161 L215 420 Z " />
<glyph glyph-name="c" unicode="c" horiz-adv-x="600" d="M447 187 C423 160 414 150 405 141 C373 110 342 95 309 95 C272 95 235 117 215 150 C196 180 187 221 187 273 C187 386 233 454 309 454 C341 454 369 441 389 417 C399 406 406 394 429 352 L531 419 C497 466 488 477 472 494 C432 537 372 563 310 563 C167 563 71 446 71 270 C71 97 167 -14 315 -14 C385 -14 445 15 504 79 C512 87 520 95 528 104 L447 187 Z " />
<glyph glyph-name="d" unicode="d" horiz-adv-x="600" d="M377 733 C378 705 380 641 383 542 C355 557 332 563 302 563 C251 563 198 541 157 503 C102 451 73 372 73 278 C73 193 93 123 130 74 C172 21 235 -11 297 -11 C338 -11 363 -3 406 25 C410 11 411 7 418 -14 L530 0 C495 123 495 123 495 294 L495 520 C498 642 500 713 501 733 L377 733 Z M383 162 C357 116 334 98 299 98 C233 98 189 168 189 271 C189 380 238 454 310 454 C339 454 361 444 383 420 L383 162 Z " />
<glyph glyph-name="e" unicode="e" horiz-adv-x="600" d="M523 233 L523 268 L523 279 C524 450 437 563 303 563 C164 563 69 446 69 275 C69 179 99 94 153 41 C187 7 245 -14 305 -14 C355 -14 409 -2 469 22 C474 24 474 24 530 48 L479 157 C429 129 429 129 418 123 C380 105 339 95 306 95 C266 95 230 115 210 148 C198 167 193 187 188 233 L523 233 Z M191 339 C204 411 245 454 300 454 C356 454 397 410 405 339 L191 339 Z " />
<glyph glyph-name="f" unicode="f" horiz-adv-x="600" d="M316 0 C313 77 310 213 310 234 L310 441 L476 441 L476 547 L310 547 C312 605 330 624 378 624 C410 624 419 621 532 573 L532 694 C465 723 425 733 376 733 C322 733 268 710 237 673 C209 640 198 606 198 547 L68 547 L68 441 L198 441 L198 234 C198 226 197 192 196 144 C195 93 194 45 192 0 L316 0 Z " />
<glyph glyph-name="g" unicode="g" horiz-adv-x="600" d="M417 551 L412 531 C365 556 341 563 299 563 C236 563 180 540 144 500 C101 452 76 376 76 295 C76 140 162 36 289 36 C329 36 360 44 393 62 L392 49 C388 -16 353 -54 297 -54 C250 -54 222 -37 177 17 L90 -59 C100 -68 109 -77 119 -87 C170 -137 230 -163 295 -163 C361 -163 422 -134 461 -83 C490 -45 505 6 505 69 L505 385 C505 439 510 471 529 551 L417 551 Z M393 197 C364 163 329 145 291 145 C232 145 192 208 192 300 C192 393 233 454 295 454 C331 454 366 437 393 406 L393 197 Z " />
<glyph glyph-name="h" unicode="h" horiz-adv-x="600" d="M101 733 C103 669 107 526 107 520 L107 219 C107 201 103 65 101 0 L225 0 C223 37 223 47 219 219 L219 263 C219 313 226 346 244 377 C268 419 311 454 338 454 C355 454 371 438 376 415 C380 397 382 369 382 319 L382 219 C382 214 381 180 380 136 C379 90 378 45 376 0 L500 0 C498 58 494 203 494 219 L494 341 C494 386 490 427 483 450 C462 517 404 563 339 563 C298 563 267 549 219 508 L219 582 C219 610 220 648 225 733 L101 733 Z " />
<glyph glyph-name="i" unicode="i" horiz-adv-x="600" d="M295 441 L296 411 C297 368 298 337 298 328 L298 220 C298 217 297 180 296 136 C295 88 294 42 293 0 L417 0 C416 22 416 31 415 41 C415 45 415 68 414 107 L411 220 L411 328 C411 344 412 373 413 411 L415 498 C416 517 416 518 417 547 L156 547 L156 441 L295 441 Z M357 734 C310 734 273 697 273 651 C273 604 310 567 357 567 C402 567 440 605 440 650 C440 697 403 734 357 734 L357 734 Z " />
<glyph glyph-name="j" unicode="j" horiz-adv-x="600" d="M354 439 C357 363 357 344 357 324 L357 175 C356 -2 356 -2 343 -24 C333 -41 309 -54 288 -54 C251 -54 223 -21 223 25 C223 36 224 51 226 70 L228 89 L108 89 C107 60 107 48 107 42 C107 -78 183 -163 290 -163 C366 -163 433 -116 456 -48 C468 -9 468 -9 469 175 L469 324 C469 347 473 499 475 545 L210 545 L210 439 L354 439 Z M416 734 C369 734 332 697 332 651 C332 604 369 567 416 567 C461 567 499 605 499 650 C499 697 462 734 416 734 L416 734 Z " />
<glyph glyph-name="k" unicode="k" horiz-adv-x="600" d="M90 733 C92 674 96 521 96 512 L96 220 C96 216 95 182 94 136 C93 85 91 40 90 0 L214 0 L212 37 L212 50 C210 96 210 96 208 211 L218 220 L403 0 L557 0 L295 294 C359 355 425 434 512 551 L364 551 C326 490 271 422 208 359 L208 512 C208 539 211 658 214 733 L90 733 Z " />
<glyph glyph-name="l" unicode="l" horiz-adv-x="600" d="M300 627 L301 597 C302 553 303 519 303 513 L303 220 C303 203 300 76 298 0 L421 0 L420 37 C419 57 415 207 415 220 L415 513 C415 540 419 696 421 733 L160 733 L160 627 L300 627 Z " />
<glyph glyph-name="m" unicode="m" horiz-adv-x="600" d="M366 0 L365 37 C363 81 363 104 362 137 C361 175 360 204 360 221 L360 336 L362 420 C381 444 397 454 417 454 C436 454 439 446 439 399 L439 221 C436 117 434 43 433 0 L557 0 C555 43 551 195 551 221 L551 372 C551 460 548 481 531 508 C510 542 471 563 429 563 C392 563 363 551 331 524 C310 550 280 563 242 563 C209 563 184 555 152 534 L148 551 L30 551 C34 535 37 521 41 506 C53 454 57 408 57 310 L57 221 C57 208 56 178 55 137 L53 50 C52 30 52 29 51 0 L175 0 L173 37 C173 72 172 90 171 137 C170 175 169 203 169 221 L169 336 L169 371 L171 394 L171 412 C190 439 210 454 228 454 C244 454 248 438 248 383 L248 221 C248 215 247 182 246 137 L243 46 C243 31 243 26 242 0 L366 0 Z " />
<glyph glyph-name="n" unicode="n" horiz-adv-x="600" d="M77 551 C80 538 83 523 86 507 C100 439 104 390 104 260 L104 221 C104 207 103 177 102 137 C101 89 100 43 98 0 L223 0 C222 27 222 33 221 50 L219 137 C218 178 217 209 217 221 L217 278 C217 318 225 348 246 382 C271 423 312 454 342 454 C356 454 371 443 378 426 C386 408 389 376 389 322 L389 221 C389 217 388 183 387 137 C385 69 385 65 383 0 L507 0 L505 37 C505 73 504 91 503 137 C502 175 501 204 501 221 L501 344 C501 393 498 427 490 451 C470 516 412 563 351 563 C300 563 261 546 201 498 L198 513 L193 536 L189 551 L77 551 Z " />
<glyph glyph-name="o" unicode="o" horiz-adv-x="600" d="M304 563 C231 563 167 530 127 471 C92 421 77 360 77 272 C77 188 92 128 127 78 C166 20 231 -14 301 -14 C370 -14 437 21 476 76 C509 125 524 186 524 273 C524 360 508 422 474 471 C433 529 370 563 304 563 L304 563 Z M303 454 C371 454 408 390 408 273 C408 158 370 95 300 95 C230 95 193 158 193 275 C193 393 231 454 303 454 L303 454 Z " />
<glyph glyph-name="p" unicode="p" horiz-adv-x="600" d="M72 552 C107 429 107 429 107 258 L107 31 C107 10 102 -155 100 -206 L226 -206 C224 -165 223 -140 223 -132 C222 -106 221 -59 219 9 C247 -5 269 -11 300 -11 C351 -11 404 11 445 49 C500 101 529 179 529 274 C529 359 509 429 472 478 C430 531 367 563 305 563 C264 563 239 554 196 526 C192 540 191 545 184 566 L72 552 Z M219 389 C245 436 268 454 303 454 C369 454 413 384 413 281 C413 172 364 98 292 98 C263 98 240 108 219 131 L219 389 Z " />
<glyph glyph-name="q" unicode="q" horiz-adv-x="600" d="M417 566 C410 544 409 540 404 526 C362 554 337 563 295 563 C249 563 202 546 162 514 C102 467 71 387 71 280 C71 111 167 -11 299 -11 C330 -11 353 -5 382 9 C379 -88 377 -159 375 -206 L501 -206 C498 -142 494 10 494 31 L494 258 C494 431 494 431 529 552 L417 566 Z M382 131 C360 108 338 98 309 98 C234 98 187 169 187 282 C187 385 231 454 297 454 C332 454 353 438 382 390 L382 131 Z " />
<glyph glyph-name="r" unicode="r" horiz-adv-x="600" d="M249 0 C248 38 243 210 243 222 L243 244 C243 336 313 454 368 454 C388 454 392 439 397 347 L510 347 C508 414 507 423 502 449 C487 520 437 563 371 563 C319 563 275 539 229 488 L216 551 L103 551 L111 507 C125 442 131 370 131 260 L131 222 C131 207 130 177 129 138 L127 50 C126 30 126 28 125 0 L249 0 Z " />
<glyph glyph-name="s" unicode="s" horiz-adv-x="600" d="M504 487 C479 505 469 511 459 517 C410 549 363 563 311 563 C256 563 211 546 178 513 C147 482 130 443 130 403 C130 332 179 275 272 240 L324 220 C372 202 392 182 392 151 C392 116 368 95 329 95 C270 95 230 117 157 189 L90 93 C121 67 131 59 148 47 C206 8 271 -14 328 -14 C432 -14 508 55 508 150 C508 232 460 287 354 327 L313 342 C267 359 246 379 246 402 C246 429 276 454 308 454 C348 454 368 445 450 388 L504 487 Z " />
<glyph glyph-name="t" unicode="t" horiz-adv-x="600" d="M473 440 L473 546 L292 546 L296 651 C297 672 297 673 297 701 L175 701 L176 664 C178 629 179 609 180 546 L70 546 L70 440 L180 440 L180 190 C180 110 187 77 211 43 C237 7 279 -13 330 -13 C414 -13 475 28 522 117 C529 131 537 145 544 158 L431 185 C413 149 413 149 408 142 C388 111 364 96 334 96 C301 96 292 117 292 190 L292 440 L473 440 Z " />
<glyph glyph-name="u" unicode="u" horiz-adv-x="600" d="M519 0 L510 43 C496 110 492 160 492 290 L492 329 C492 355 495 474 498 551 L373 551 C375 493 379 356 379 329 L379 285 C379 240 373 212 358 183 C333 133 289 98 254 98 C236 98 222 111 215 132 C208 152 207 165 207 228 L207 329 C207 351 210 483 213 551 L89 551 C91 517 91 514 95 329 L95 206 C95 160 99 122 106 100 C127 32 185 -11 253 -11 C302 -11 336 4 396 52 L397 49 L400 28 L406 0 L519 0 Z " />
<glyph glyph-name="v" unicode="v" horiz-adv-x="600" d="M402 551 L300 197 L199 551 L76 551 L167 264 C217 98 229 55 244 -13 L357 -13 C372 56 382 91 434 264 L525 551 L402 551 Z " />
<glyph glyph-name="w" unicode="w" horiz-adv-x="600" d="M251 426 C239 378 230 342 201 238 C185 326 174 415 162 551 L32 551 C51 480 70 367 121 32 L123 18 L127 -13 L234 -13 L300 217 L365 -13 L473 -13 C484 71 490 113 513 254 C521 291 528 336 535 386 C550 481 550 482 568 551 L438 551 C425 407 416 331 400 238 C385 287 377 316 358 389 C355 399 352 412 348 426 L251 426 Z " />
<glyph glyph-name="x" unicode="x" horiz-adv-x="600" d="M540 551 L404 551 L300 391 L193 551 L56 551 L232 293 L15 0 L162 0 L300 201 L437 0 L585 0 L367 295 L540 551 Z " />
<glyph glyph-name="y" unicode="y" horiz-adv-x="600" d="M448 551 L332 244 L222 551 L94 551 L269 82 C263 65 238 10 227 -10 C209 -45 198 -56 183 -56 C165 -56 153 -39 131 17 C128 22 126 28 124 34 L24 -18 C39 -60 42 -67 50 -81 C79 -134 128 -165 184 -165 C260 -165 313 -109 368 27 L577 551 L448 551 Z " />
<glyph glyph-name="z" unicode="z" horiz-adv-x="600" d="M118 551 L118 445 L348 445 C168 200 149 174 77 83 L77 0 L517 0 L517 106 L237 106 C313 212 328 233 396 322 C465 414 502 463 506 469 L506 551 L118 551 Z " />
<glyph glyph-name="braceleft" unicode="&#x7b;" horiz-adv-x="600" d="M247 564 C247 610 249 620 260 631 C268 639 296 646 320 646 L449 646 L449 745 L311 745 C185 745 135 699 135 585 L135 478 C135 425 131 419 78 406 L78 310 C89 307 94 305 98 304 C126 297 135 281 135 237 L135 147 C135 27 188 -23 315 -23 L449 -23 L449 76 L320 76 C298 76 270 82 263 88 C249 99 249 100 247 161 L247 239 C247 295 236 326 205 357 C234 384 247 418 247 474 L247 564 Z " />
<glyph glyph-name="bar" unicode="&#x7c;" horiz-adv-x="600" d="M247 -263 L353 -263 L353 787 L247 787 L247 -263 Z " />
<glyph glyph-name="braceright" unicode="&#x7d;" horiz-adv-x="600" d="M353 161 C351 102 351 102 339 90 C331 82 305 76 280 76 L151 76 L151 -23 L285 -23 C412 -23 465 27 465 147 L465 237 C465 281 474 297 502 304 C506 305 510 306 522 310 L522 406 C469 419 465 425 465 478 L465 585 C465 699 415 745 289 745 L151 745 L151 646 L280 646 C301 646 330 640 337 633 C351 623 353 612 353 564 L353 474 C353 418 366 384 395 357 C364 326 353 295 353 239 L353 161 Z " />
<glyph glyph-name="asciitilde" unicode="&#x7e;" horiz-adv-x="600" d="M484 475 C481 467 478 458 476 449 C463 406 441 381 415 381 C397 381 380 389 329 421 C263 461 210 481 168 481 C104 481 45 440 17 378 C3 348 3 348 -4 278 L109 252 C119 301 119 301 122 309 C132 339 149 359 165 359 C187 359 204 351 279 307 C338 272 376 259 416 259 C494 259 568 322 593 410 C595 418 596 424 605 462 L484 475 Z " />
<glyph glyph-name="exclamdown" unicode="&#xa1;" horiz-adv-x="600" d="M372 0 L358 495 L251 495 L233 0 L372 0 Z M299 732 C246 732 201 687 201 634 C201 579 245 534 299 534 C355 534 399 578 399 633 C399 688 355 732 299 732 L299 732 Z " />
<glyph glyph-name="cent" unicode="&#xa2;" horiz-adv-x="600" d="M269 -28 L381 -28 L381 100 C428 111 478 142 520 188 C528 197 536 205 544 213 L463 296 C440 270 430 259 421 250 C389 219 358 204 325 204 C288 204 251 226 231 259 C212 289 203 330 203 382 C203 494 249 563 325 563 C357 563 385 550 405 526 C415 515 422 504 445 461 L547 528 C483 620 452 646 381 666 L381 751 L269 751 L269 665 C153 634 87 530 87 379 C87 233 154 132 269 103 L269 -28 Z " />
<glyph glyph-name="sterling" unicode="&#xa3;" horiz-adv-x="600" d="M558 581 L540 616 C501 691 427 734 338 734 C219 734 128 652 128 545 C128 527 133 498 144 451 L53 451 L53 352 L174 352 C177 341 180 330 182 318 C191 286 195 260 195 242 C195 204 171 153 103 52 L163 -20 C167 -18 172 -16 177 -13 C178 -13 195 -6 226 5 C257 17 268 19 292 19 C315 19 322 17 358 4 C386 -7 413 -12 438 -12 C480 -12 519 5 557 42 L580 64 L510 138 C506 133 501 129 496 125 C469 100 452 91 434 91 C426 91 415 94 392 105 C355 121 331 128 315 128 C303 128 284 124 261 115 C295 163 307 196 307 235 C307 266 300 305 287 352 L465 352 L465 451 L258 451 C244 496 240 516 240 544 C240 597 280 631 340 631 C383 631 417 610 437 572 C441 564 443 560 450 547 L558 581 Z " />
<glyph glyph-name="currency" unicode="&#xa4;" horiz-adv-x="600" d="M99 495 C73 448 64 415 64 366 C64 317 73 284 99 237 L-3 134 L71 61 L170 162 C215 134 251 123 299 123 C347 123 383 134 428 162 L527 61 L601 134 L499 237 C527 285 535 316 535 366 C535 416 527 446 499 495 L601 597 L527 671 L428 570 C383 598 347 609 299 609 C252 609 215 598 170 570 L71 671 L-3 597 L99 495 Z M301 509 C376 509 435 446 435 366 C435 285 376 223 299 223 C223 223 164 285 164 366 C164 448 222 509 301 509 L301 509 Z " />
<glyph glyph-name="yen" unicode="&#xa5;" horiz-adv-x="600" d="M405 414 C410 424 431 471 436 483 C447 509 461 540 544 720 L416 720 C362 588 323 497 301 447 C278 498 239 589 184 720 L57 720 L165 483 L195 414 L131 414 L131 339 L227 339 L244 304 L244 282 L146 282 L146 207 L244 207 L242 107 C241 74 240 39 238 0 L363 0 L358 148 C358 164 358 183 357 207 L455 207 L455 282 L357 282 L357 304 L374 339 L470 339 L470 414 L405 414 Z " />
<glyph glyph-name="brokenbar" unicode="&#xa6;" horiz-adv-x="600" d="M247 787 L247 394 L353 394 L353 787 L247 787 Z M247 130 L247 -263 L353 -263 L353 130 L247 130 Z " />
<glyph glyph-name="section" unicode="&#xa7;" horiz-adv-x="600" d="M473 521 C474 550 475 563 475 572 C475 666 402 732 297 732 C196 732 126 671 126 581 C126 554 131 537 146 510 C107 480 89 445 89 402 C89 373 98 348 117 321 C138 290 191 247 299 171 C348 137 357 126 357 104 C357 79 334 63 299 63 C272 63 254 73 245 92 C241 103 240 107 239 166 L127 166 C125 141 124 128 124 117 C124 21 197 -46 303 -46 C403 -46 473 16 473 104 C473 131 468 149 453 177 C493 207 511 240 511 285 C511 305 506 325 497 343 C477 382 456 402 374 461 C325 497 290 523 269 537 C252 550 242 566 242 582 C242 607 265 623 300 623 C329 623 349 612 356 593 C360 582 360 573 361 521 L473 521 Z M383 250 C366 264 355 272 300 313 C218 374 205 387 205 407 C205 418 208 427 217 437 C233 424 239 420 300 374 C384 311 395 300 395 280 C395 269 392 260 383 250 L383 250 Z " />
<glyph glyph-name="dieresis" unicode="&#xa8;" horiz-adv-x="600" d="M186 777 C140 777 102 740 102 694 C102 647 139 610 186 610 C231 610 269 648 269 693 C269 739 232 777 186 777 L186 777 Z M415 777 C369 777 331 740 331 694 C331 647 368 610 415 610 C460 610 498 648 498 693 C498 739 461 777 415 777 L415 777 Z " />
<glyph glyph-name="copyright" unicode="&#xa9;" horiz-adv-x="600" d="M443 449 C440 476 440 476 438 488 C430 553 376 599 307 599 C201 599 144 513 144 351 C144 197 200 114 303 114 C379 114 433 159 442 232 C443 240 444 246 448 275 L356 275 L355 263 C352 243 352 243 351 239 C347 221 328 210 303 210 C255 210 232 256 232 352 C232 456 255 503 307 503 C329 503 346 492 347 477 L348 472 C349 464 349 460 350 449 L443 449 Z M302 733 C141 733 10 565 10 358 C10 157 142 -13 299 -13 C458 -13 590 156 590 360 C590 562 458 733 302 733 L302 733 Z M301 655 C331 655 371 641 400 619 C471 566 514 468 514 360 C514 200 415 65 299 65 C185 65 86 201 86 359 C86 520 184 655 301 655 L301 655 Z " />
<glyph glyph-name="ordfeminine" unicode="&#xaa;" horiz-adv-x="600" d="M209 546 C225 552 232 554 238 557 C266 569 279 572 295 572 C316 572 326 562 328 540 C309 545 299 546 288 546 C219 546 171 494 171 421 C171 350 214 303 279 303 C303 303 317 308 342 323 L345 315 L350 300 L430 310 C409 366 409 368 409 422 L409 525 C409 602 365 650 295 650 C264 650 258 648 188 622 L209 546 Z M328 416 C309 390 297 381 279 381 C263 381 253 396 253 419 C253 450 267 468 292 468 C303 468 312 467 328 462 L328 416 Z " />
<glyph glyph-name="guillemotleft" unicode="&#xab;" horiz-adv-x="600" d="M511 634 L237 363 L511 89 L578 163 L377 363 L578 561 L511 634 Z M293 634 L19 363 L293 89 L360 163 L159 363 L360 561 L293 634 Z " />
<glyph glyph-name="logicalnot" unicode="&#xac;" horiz-adv-x="600" d="M483 0 L595 0 L595 318 L5 318 L5 212 L483 212 L483 0 Z " />
<glyph glyph-name="registered" unicode="&#xae;" horiz-adv-x="600" d="M302 733 C141 733 9 564 9 358 C9 157 142 -13 299 -13 C458 -13 591 157 591 359 C591 561 458 733 302 733 L302 733 Z M431 129 C384 84 345 65 300 65 C256 65 210 88 171 129 L268 129 C265 213 264 257 264 261 L264 302 L273 302 L293 302 L397 129 L431 129 Z M171 261 C169 184 168 140 168 132 C114 190 85 270 85 359 C85 448 115 530 168 589 C168 584 169 542 171 464 L171 261 Z M178 599 C217 636 258 655 300 655 C415 655 515 518 515 360 C515 296 503 247 472 185 L382 328 C425 359 446 400 446 453 C446 507 422 554 383 578 C359 593 334 599 296 599 L178 599 Z M264 391 L264 508 L276 508 C342 508 358 498 358 455 C358 413 335 391 290 391 L264 391 Z " />
<glyph glyph-name="macron" unicode="&#xaf;" horiz-adv-x="600" d="M469 632 L469 738 L132 738 L132 632 L469 632 Z " />
<glyph glyph-name="degree" unicode="&#xb0;" horiz-adv-x="600" d="M304 734 C172 734 67 642 67 527 C67 410 170 317 300 317 C429 317 533 410 533 526 C533 639 429 734 304 734 L304 734 Z M302 631 C364 631 417 583 417 526 C417 468 364 420 300 420 C235 420 183 467 183 526 C183 585 236 631 302 631 L302 631 Z " />
<glyph glyph-name="plusminus" unicode="&#xb1;" horiz-adv-x="600" d="M595 106 L5 106 L5 0 L595 0 L595 106 Z M353 639 L247 639 L247 413 L5 413 L5 307 L247 307 L247 152 L353 152 L353 307 L595 307 L595 413 L353 413 L353 639 Z " />
<glyph glyph-name="twosuperior" unicode="&#xb2;" horiz-adv-x="600" d="M436 364 L252 364 C261 398 273 413 342 471 C373 497 380 504 388 511 C418 539 435 576 435 612 C435 681 386 727 312 727 C248 727 202 696 182 640 C176 623 176 623 169 571 L254 571 C256 593 256 600 258 607 C265 635 283 649 311 649 C338 649 353 635 353 612 C353 583 345 574 274 516 C187 444 164 406 164 329 L164 289 L436 289 L436 364 Z " />
<glyph glyph-name="threesuperior" unicode="&#xb3;" horiz-adv-x="600" d="M224 589 C235 607 235 608 238 613 C251 635 275 649 298 649 C327 649 349 630 349 606 C349 580 324 559 292 556 C291 556 288 556 257 555 L257 480 C302 480 304 480 320 476 C350 469 367 448 367 417 C367 381 343 360 301 360 C271 360 251 371 238 396 C236 398 224 420 221 425 L146 384 C162 361 165 357 167 353 C201 305 244 282 300 282 C388 282 449 337 449 418 C449 464 433 494 394 524 C419 547 431 573 431 607 C431 674 372 727 299 727 C244 727 198 701 167 653 C156 635 156 635 152 628 L224 589 Z " />
<glyph glyph-name="acute" unicode="&#xb4;" horiz-adv-x="600" d="M358 816 L158 656 L220 575 L442 722 L358 816 Z " />
<glyph glyph-name="mu" unicode="&#xb5;" horiz-adv-x="600" d="M90 546 L91 525 C92 486 96 340 96 327 L96 15 C96 8 95 -25 94 -69 L91 -161 L91 -179 C90 -185 90 -189 90 -204 L214 -204 C212 -142 208 4 208 15 L208 20 C241 -3 269 -12 302 -12 C336 -12 362 -3 395 21 L395 0 L507 0 L507 327 C507 347 510 466 513 546 L389 546 C391 475 395 347 395 327 L395 249 C395 183 387 149 364 123 C346 104 321 91 298 91 C280 91 261 99 245 113 C215 141 208 167 208 249 L208 327 C208 349 211 472 214 546 L90 546 Z " />
<glyph glyph-name="paragraph" unicode="&#xb6;" horiz-adv-x="600" d="M248 -103 L360 -103 L360 631 L421 631 L421 -103 L533 -103 L533 631 L578 631 L578 722 L288 722 C228 722 178 712 141 694 C72 659 28 589 28 512 C28 396 116 312 248 304 L248 -103 Z " />
<glyph glyph-name="periodcentered" unicode="&#xb7;" horiz-adv-x="600" d="M301 370 C245 370 201 326 201 271 C201 216 245 172 301 172 C354 172 399 217 399 270 C399 325 355 370 301 370 L301 370 Z " />
<glyph glyph-name="cedilla" unicode="&#xb8;" horiz-adv-x="600" d="M366 0 L258 0 L230 -72 C307 -78 338 -93 338 -126 C338 -152 318 -169 289 -169 C269 -169 258 -166 209 -145 L198 -140 L169 -211 C249 -245 268 -250 310 -250 C378 -250 431 -198 431 -131 C431 -79 403 -39 354 -23 L366 0 Z " />
<glyph glyph-name="onesuperior" unicode="&#xb9;" horiz-adv-x="600" d="M357 744 L193 696 L193 616 L276 640 L276 364 L197 364 L197 289 L432 289 L432 364 L357 364 L357 744 Z " />
<glyph glyph-name="ordmasculine" unicode="&#xba;" horiz-adv-x="600" d="M302 650 C216 650 164 584 164 475 C164 369 217 302 300 302 C342 302 383 323 407 357 C427 387 436 423 436 475 C436 527 427 564 406 594 C381 629 343 650 302 650 L302 650 Z M301 572 C335 572 354 538 354 475 C354 413 335 380 300 380 C265 380 246 413 246 477 C246 540 265 572 301 572 L301 572 Z " />
<glyph glyph-name="guillemotright" unicode="&#xbb;" horiz-adv-x="600" d="M87 634 L20 561 L221 363 L20 163 L87 89 L361 363 L87 634 Z M306 634 L239 561 L440 363 L239 163 L306 89 L580 363 L306 634 Z " />
<glyph glyph-name="onequarter" unicode="&#xbc;" horiz-adv-x="600" d="M231 296 L231 364 L156 364 L156 743 L-8 695 L-8 616 L75 640 L75 364 L-4 364 L-4 289 L228 289 L91 -12 L171 -12 L513 734 L430 734 L231 296 Z M596 438 L511 438 L348 153 L348 101 L515 101 L515 0 L596 0 L596 101 L655 101 L655 176 L596 176 L596 438 Z M515 176 L453 176 L515 285 L515 176 Z " />
<glyph glyph-name="onehalf" unicode="&#xbd;" horiz-adv-x="600" d="M231 296 L231 364 L156 364 L156 743 L-8 695 L-8 616 L75 640 L75 364 L-4 364 L-4 289 L228 289 L91 -12 L171 -12 L513 734 L430 734 L231 296 Z M635 75 L452 75 C460 109 472 124 541 182 C572 208 579 215 587 222 C617 250 634 287 634 323 C634 392 585 438 511 438 C447 438 401 407 381 351 C375 334 375 334 369 282 L453 282 C455 304 455 311 457 318 C464 346 482 360 510 360 C537 360 552 346 552 323 C552 311 549 302 541 290 C532 275 531 275 473 227 C385 155 363 117 363 39 L363 27 L363 13 L363 0 L635 0 L635 75 Z " />
<glyph glyph-name="threequarters" unicode="&#xbe;" horiz-adv-x="600" d="M23 589 C34 607 34 608 37 613 C50 635 74 649 97 649 C126 649 148 630 148 606 C148 580 123 559 91 556 C90 556 87 556 56 555 L56 480 C101 480 103 480 119 476 C149 469 166 448 166 417 C166 381 142 360 100 360 C70 360 50 371 37 396 C35 398 23 420 20 425 L-55 384 C-39 361 -36 357 -34 353 C0 305 43 282 99 282 C187 282 248 337 248 418 C248 464 232 494 193 524 C218 547 230 573 230 607 C230 674 171 727 98 727 C43 727 -3 701 -34 653 C-45 635 -45 635 -49 628 L23 589 Z M430 734 L91 -12 L172 -12 L514 734 L430 734 Z M595 438 L510 438 L348 153 L348 101 L514 101 L514 0 L595 0 L595 101 L655 101 L655 176 L595 176 L595 438 Z M514 176 L453 176 L514 285 L514 176 Z " />
<glyph glyph-name="questiondown" unicode="&#xbf;" horiz-adv-x="600" d="M245 497 L245 417 C245 382 242 375 223 360 L170 318 C129 280 110 236 110 179 C110 64 186 -12 301 -12 C382 -12 446 27 477 95 C491 124 491 124 496 198 L375 198 C372 155 370 142 362 127 C352 109 328 97 302 97 C256 97 226 129 226 178 C226 210 236 227 268 251 C339 304 357 331 357 384 L357 497 L245 497 Z M302 732 C249 732 204 687 204 634 C204 579 248 534 302 534 C358 534 402 578 402 633 C402 688 358 732 302 732 L302 732 Z " />
<glyph glyph-name="Agrave" unicode="&#xc0;" horiz-adv-x="600" d="M242 990 L158 896 L380 749 L442 830 L242 990 Z M400 176 L447 0 L571 0 L364 720 L237 720 L30 0 L153 0 L201 176 L400 176 Z M370 282 L231 282 L300 530 L370 282 Z " />
<glyph glyph-name="Aacute" unicode="&#xc1;" horiz-adv-x="600" d="M359 989 L158 829 L221 749 L442 895 L359 989 Z M400 176 L447 0 L571 0 L364 720 L237 720 L30 0 L153 0 L201 176 L400 176 Z M370 282 L231 282 L300 530 L370 282 Z " />
<glyph glyph-name="Acircumflex" unicode="&#xc2;" horiz-adv-x="600" d="M300 844 L434 746 L501 819 L300 990 L99 819 L167 746 L300 844 Z M400 176 L447 0 L571 0 L364 720 L237 720 L30 0 L153 0 L201 176 L400 176 Z M370 282 L231 282 L300 530 L370 282 Z " />
<glyph glyph-name="Atilde" unicode="&#xc3;" horiz-adv-x="600" d="M420 947 C394 893 392 891 377 891 C368 891 361 894 340 906 L315 920 C277 942 260 948 232 948 C189 948 155 929 127 890 C115 873 115 873 83 806 L184 772 C213 833 217 839 235 839 C244 839 252 836 270 825 L301 806 C329 790 354 782 382 782 C422 782 454 799 479 833 C491 849 497 862 518 909 L420 947 Z M400 176 L447 0 L571 0 L364 720 L237 720 L30 0 L153 0 L201 176 L400 176 Z M370 282 L231 282 L300 530 L370 282 Z " />
<glyph glyph-name="Adieresis" unicode="&#xc4;" horiz-adv-x="600" d="M188 951 C142 951 104 914 104 868 C104 821 141 784 188 784 C233 784 271 822 271 867 C271 913 234 951 188 951 L188 951 Z M417 951 C371 951 333 914 333 868 C333 821 370 784 417 784 C462 784 500 822 500 867 C500 913 463 951 417 951 L417 951 Z M400 176 L447 0 L571 0 L364 720 L237 720 L30 0 L153 0 L201 176 L400 176 Z M370 282 L231 282 L300 530 L370 282 Z " />
<glyph glyph-name="Aring" unicode="&#xc5;" horiz-adv-x="600" d="M302 973 C239 973 189 925 189 864 C189 803 238 754 300 754 C362 754 411 803 411 864 C411 923 361 973 302 973 L302 973 Z M301 894 C317 894 331 880 331 864 C331 847 317 833 300 833 C283 833 269 847 269 863 C269 881 283 894 301 894 L301 894 Z M400 176 L447 0 L571 0 L364 720 L237 720 L30 0 L153 0 L201 176 L400 176 Z M370 282 L231 282 L300 530 L370 282 Z " />
<glyph glyph-name="AE" unicode="&#xc6;" horiz-adv-x="600" d="M290 176 C286 63 285 4 284 0 L568 0 L568 106 L402 106 L402 315 L508 315 L508 421 L402 421 L402 614 L562 614 L562 720 L236 720 L-7 0 L116 0 L170 176 L290 176 Z M290 282 L201 282 L290 564 L290 282 Z " />
<glyph glyph-name="Ccedilla" unicode="&#xc7;" horiz-adv-x="600" d="M362 -8 C470 14 514 73 526 212 L412 212 C408 167 406 158 399 143 C386 115 354 97 316 97 C233 97 193 179 193 350 C193 536 234 623 322 623 C354 623 379 609 390 587 C396 575 397 569 399 526 L515 526 C511 575 509 589 503 608 C478 684 408 732 320 732 C161 732 77 600 77 350 C77 143 137 24 256 -5 L230 -72 C307 -78 338 -93 338 -126 C338 -152 318 -169 289 -169 C269 -169 258 -166 209 -145 L198 -140 L169 -211 C249 -245 268 -250 310 -250 C378 -250 431 -198 431 -131 C431 -79 403 -39 354 -23 L362 -8 Z " />
<glyph glyph-name="Egrave" unicode="&#xc8;" horiz-adv-x="600" d="M102 720 C103 714 104 679 105 613 L108 500 L108 219 C108 215 107 181 106 136 L104 45 C103 30 103 25 102 0 L506 0 L506 106 L220 106 L220 315 L423 315 L423 421 L220 421 L220 614 L499 614 L499 720 L102 720 Z M205 990 L121 896 L343 749 L405 830 L205 990 Z " />
<glyph glyph-name="Eacute" unicode="&#xc9;" horiz-adv-x="600" d="M102 720 C103 714 104 679 105 613 L108 500 L108 219 C108 215 107 181 106 136 L104 45 C103 30 103 25 102 0 L506 0 L506 106 L220 106 L220 315 L423 315 L423 421 L220 421 L220 614 L499 614 L499 720 L102 720 Z M390 989 L190 829 L252 749 L474 895 L390 989 Z " />
<glyph glyph-name="Ecircumflex" unicode="&#xca;" horiz-adv-x="600" d="M101 720 C102 714 103 679 104 613 L107 500 L107 219 C107 215 106 181 105 136 L103 45 C102 30 102 25 101 0 L505 0 L505 106 L219 106 L219 315 L422 315 L422 421 L219 421 L219 614 L499 614 L499 720 L101 720 Z M300 844 L434 746 L501 819 L300 990 L99 819 L166 746 L300 844 Z " />
<glyph glyph-name="Edieresis" unicode="&#xcb;" horiz-adv-x="600" d="M101 720 C102 714 103 679 104 613 L107 500 L107 219 C107 215 106 181 105 136 L103 45 C102 30 102 25 101 0 L505 0 L505 106 L219 106 L219 315 L422 315 L422 421 L219 421 L219 614 L498 614 L498 720 L101 720 Z M187 951 C141 951 103 914 103 868 C103 821 140 784 187 784 C232 784 270 822 270 867 C270 913 233 951 187 951 L187 951 Z M416 951 C370 951 332 914 332 868 C332 821 369 784 416 784 C461 784 499 822 499 867 C499 913 462 951 416 951 L416 951 Z " />
<glyph glyph-name="Igrave" unicode="&#xcc;" horiz-adv-x="600" d="M242 614 C244 532 245 508 245 501 L245 219 C245 204 245 192 242 106 L151 106 L151 0 L450 0 L450 106 L360 106 C358 187 357 210 357 219 L357 501 C357 518 357 532 360 614 L450 614 L450 720 L151 720 L151 614 L242 614 Z M243 990 L159 896 L380 749 L443 830 L243 990 Z " />
<glyph glyph-name="Iacute" unicode="&#xcd;" horiz-adv-x="600" d="M242 614 C244 532 245 508 245 501 L245 219 C245 204 245 192 242 106 L151 106 L151 0 L450 0 L450 106 L360 106 C358 187 357 210 357 219 L357 501 C357 518 357 532 360 614 L450 614 L450 720 L151 720 L151 614 L242 614 Z M358 989 L159 829 L221 749 L443 895 L358 989 Z " />
<glyph glyph-name="Icircumflex" unicode="&#xce;" horiz-adv-x="600" d="M242 614 C244 532 245 508 245 501 L245 219 C245 204 245 192 242 106 L150 106 L150 0 L450 0 L450 106 L360 106 C358 187 357 210 357 219 L357 501 C357 518 357 532 360 614 L450 614 L450 720 L150 720 L150 614 L242 614 Z M300 844 L434 746 L501 819 L300 990 L99 819 L166 746 L300 844 Z " />
<glyph glyph-name="Idieresis" unicode="&#xcf;" horiz-adv-x="600" d="M241 614 C243 532 244 508 244 501 L244 219 C244 204 244 192 241 106 L150 106 L150 0 L449 0 L449 106 L359 106 C357 187 356 210 356 219 L356 501 C356 518 356 532 359 614 L449 614 L449 720 L150 720 L150 614 L241 614 Z M192 951 C146 951 108 914 108 868 C108 821 145 784 192 784 C237 784 275 822 275 867 C275 913 238 951 192 951 L192 951 Z M409 951 C363 951 325 914 325 868 C325 821 362 784 409 784 C454 784 492 822 492 867 C492 913 455 951 409 951 L409 951 Z " />
<glyph glyph-name="Eth" unicode="&#xd0;" horiz-adv-x="600" d="M89 324 L89 220 C89 201 85 69 83 0 L261 0 C342 0 395 16 435 53 C492 104 519 204 519 355 C519 475 500 570 466 624 C423 691 362 720 261 720 L83 720 C85 654 89 519 89 501 L89 430 L16 430 L16 324 L89 324 Z M201 324 L314 324 L314 430 L201 430 L201 614 L256 614 C371 614 403 560 403 362 C403 158 373 106 256 106 L201 106 L201 324 Z " />
<glyph glyph-name="Ntilde" unicode="&#xd1;" horiz-adv-x="600" d="M380 720 C383 649 386 524 386 501 L386 304 L221 720 L103 720 L103 220 C103 201 99 65 97 0 L221 0 C218 71 215 200 215 220 L215 450 L398 -7 L498 -7 L498 501 C498 521 501 649 504 720 L380 720 Z M420 947 C394 893 392 891 377 891 C368 891 361 894 340 906 L316 920 C277 942 260 948 232 948 C189 948 155 929 127 890 C115 873 115 873 83 806 L184 772 C213 833 217 839 235 839 C244 839 252 836 270 825 L301 806 C329 790 354 782 382 782 C422 782 454 799 479 833 C491 849 497 862 518 909 L420 947 Z " />
<glyph glyph-name="Ograve" unicode="&#xd2;" horiz-adv-x="600" d="M303 732 C236 732 176 704 136 652 C91 595 72 511 72 363 C72 220 86 143 124 85 C164 23 228 -12 301 -12 C366 -12 427 17 465 65 C511 122 529 207 529 355 C529 497 514 576 477 635 C439 695 373 732 303 732 L303 732 Z M302 623 C337 623 371 598 388 558 C406 515 413 461 413 362 C413 252 404 190 382 151 C363 116 333 97 300 97 C264 97 231 121 213 162 C195 205 188 259 188 360 C188 467 197 529 219 569 C238 604 267 623 302 623 L302 623 Z M243 990 L159 896 L380 749 L442 830 L243 990 Z " />
<glyph glyph-name="Oacute" unicode="&#xd3;" horiz-adv-x="600" d="M303 732 C236 732 176 704 136 652 C91 595 72 511 72 363 C72 220 86 143 124 85 C164 23 228 -12 301 -12 C366 -12 427 17 465 65 C511 122 529 207 529 355 C529 497 514 576 477 635 C439 695 373 732 303 732 L303 732 Z M302 623 C337 623 371 598 388 558 C406 515 413 461 413 362 C413 252 404 190 382 151 C363 116 333 97 300 97 C264 97 231 121 213 162 C195 205 188 259 188 360 C188 467 197 529 219 569 C238 604 267 623 302 623 L302 623 Z M359 989 L158 829 L221 749 L443 895 L359 989 Z " />
<glyph glyph-name="Ocircumflex" unicode="&#xd4;" horiz-adv-x="600" d="M303 732 C236 732 176 704 136 652 C91 595 72 511 72 363 C72 220 86 143 124 85 C164 23 228 -12 301 -12 C366 -12 427 17 465 65 C511 122 529 207 529 355 C529 497 514 576 477 635 C439 695 373 732 303 732 L303 732 Z M302 623 C337 623 371 598 388 558 C406 515 413 461 413 362 C413 252 404 190 382 151 C363 116 333 97 300 97 C264 97 231 121 213 162 C195 205 188 259 188 360 C188 467 197 529 219 569 C238 604 267 623 302 623 L302 623 Z M300 844 L434 746 L502 819 L300 990 L99 819 L167 746 L300 844 Z " />
<glyph glyph-name="Otilde" unicode="&#xd5;" horiz-adv-x="600" d="M303 732 C236 732 176 704 136 652 C91 595 72 511 72 363 C72 220 86 143 124 85 C164 23 228 -12 301 -12 C366 -12 427 17 465 65 C511 122 529 207 529 355 C529 497 514 576 477 635 C439 695 373 732 303 732 L303 732 Z M302 623 C337 623 371 598 388 558 C406 515 413 461 413 362 C413 252 404 190 382 151 C363 116 333 97 300 97 C264 97 231 121 213 162 C195 204 188 259 188 360 C188 467 197 530 219 569 C238 604 267 623 302 623 L302 623 Z M420 947 C394 893 392 891 377 891 C369 891 360 894 340 906 L316 920 C277 942 260 948 232 948 C189 948 155 929 127 890 C116 873 116 873 83 806 L184 772 C212 831 218 839 235 839 C244 839 252 836 270 825 L301 806 C329 790 354 782 382 782 C422 782 454 799 479 833 C491 849 497 862 518 909 L420 947 Z " />
<glyph glyph-name="Odieresis" unicode="&#xd6;" horiz-adv-x="600" d="M303 732 C236 732 176 704 136 652 C91 595 72 511 72 363 C72 220 86 143 124 85 C164 23 228 -12 301 -12 C366 -12 427 17 465 65 C511 122 529 207 529 355 C529 497 514 576 477 635 C439 695 373 732 303 732 L303 732 Z M302 623 C337 623 371 598 388 558 C406 515 413 461 413 362 C413 252 404 190 382 151 C363 116 333 97 300 97 C264 97 231 121 213 162 C195 205 188 259 188 360 C188 467 197 529 219 569 C238 604 267 623 302 623 L302 623 Z M188 951 C142 951 104 914 104 868 C104 821 141 784 188 784 C233 784 271 822 271 867 C271 913 234 951 188 951 L188 951 Z M417 951 C371 951 333 914 333 868 C333 821 370 784 417 784 C462 784 500 822 500 867 C500 913 463 951 417 951 L417 951 Z " />
<glyph glyph-name="multiply" unicode="&#xd7;" horiz-adv-x="600" d="M73 653 L-4 580 L223 366 L-2 153 L75 80 L300 293 L527 78 L604 151 L377 366 L602 578 L525 652 L300 439 L73 653 Z " />
<glyph glyph-name="Oslash" unicode="&#xd8;" horiz-adv-x="600" d="M433 684 C395 715 349 732 300 732 C235 732 175 703 135 652 C89 594 71 511 71 362 C71 239 81 170 108 113 L53 17 L140 -33 L175 29 C213 1 253 -12 300 -12 C365 -12 426 17 465 65 C509 122 528 207 528 353 C528 468 518 544 497 594 L550 687 L463 737 L433 684 Z M192 243 C188 283 187 320 187 367 C187 467 197 530 218 569 C237 603 267 623 300 623 C332 623 360 606 380 573 L192 243 Z M410 458 C411 430 412 402 412 363 C412 252 403 190 381 151 C362 116 332 97 299 97 C271 97 246 110 227 137 L410 458 Z " />
<glyph glyph-name="Ugrave" unicode="&#xd9;" horiz-adv-x="600" d="M88 720 L89 683 C90 659 94 518 94 501 L94 252 C94 183 97 157 110 122 C140 42 217 -12 302 -12 C376 -12 450 30 480 90 C502 132 507 163 507 252 L507 501 C507 507 508 540 509 584 C510 635 512 680 513 720 L389 720 C391 657 395 518 395 501 L395 252 C395 222 392 186 389 172 C379 125 346 97 303 97 C267 97 236 117 220 151 C209 174 206 197 206 256 L206 501 C206 510 207 541 208 584 C210 661 210 676 212 720 L88 720 Z M242 990 L158 896 L379 749 L442 830 L242 990 Z " />
<glyph glyph-name="Uacute" unicode="&#xda;" horiz-adv-x="600" d="M88 720 L89 683 C90 659 94 518 94 501 L94 252 C94 183 97 157 110 122 C140 42 217 -12 302 -12 C376 -12 450 30 480 90 C502 132 507 163 507 252 L507 501 C507 507 508 540 509 584 C510 635 512 680 513 720 L389 720 C391 657 395 518 395 501 L395 252 C395 222 392 186 389 172 C379 125 346 97 303 97 C267 97 236 117 220 151 C209 174 206 197 206 256 L206 501 C206 510 207 541 208 584 C210 661 210 676 212 720 L88 720 Z M358 989 L158 829 L220 749 L442 895 L358 989 Z " />
<glyph glyph-name="Ucircumflex" unicode="&#xdb;" horiz-adv-x="600" d="M88 720 L89 683 C90 659 94 518 94 501 L94 252 C94 183 97 157 110 122 C140 42 217 -12 302 -12 C376 -12 450 30 480 90 C502 132 507 163 507 252 L507 501 C507 507 508 540 509 584 C510 635 512 680 513 720 L389 720 C391 657 395 518 395 501 L395 252 C395 222 392 186 389 172 C379 125 346 97 303 97 C267 97 236 117 220 151 C209 174 206 197 206 256 L206 501 C206 510 207 541 208 584 C210 661 210 676 212 720 L88 720 Z M300 844 L433 746 L501 819 L300 990 L99 819 L166 746 L300 844 Z " />
<glyph glyph-name="Udieresis" unicode="&#xdc;" horiz-adv-x="600" d="M88 720 L89 683 C90 659 94 518 94 501 L94 252 C94 183 97 157 110 122 C140 42 217 -12 302 -12 C376 -12 450 30 480 90 C502 132 507 163 507 252 L507 501 C507 507 508 540 509 584 C510 635 512 680 513 720 L389 720 C391 657 395 518 395 501 L395 252 C395 222 392 186 389 172 C379 125 346 97 303 97 C267 97 236 117 220 151 C209 174 206 197 206 256 L206 501 C206 510 207 541 208 584 C210 661 210 676 212 720 L88 720 Z M188 951 C142 951 104 914 104 868 C104 821 141 784 188 784 C233 784 271 822 271 867 C271 913 234 951 188 951 L188 951 Z M417 951 C371 951 333 914 333 868 C333 821 370 784 417 784 C462 784 500 822 500 867 C500 913 463 951 417 951 L417 951 Z " />
<glyph glyph-name="Yacute" unicode="&#xdd;" horiz-adv-x="600" d="M57 720 C139 540 201 401 244 303 L244 220 C244 197 241 78 238 0 L362 0 C361 23 361 30 360 41 C360 46 360 68 359 107 L356 220 L356 303 C433 479 437 489 543 720 L416 720 C361 589 322 497 300 447 C278 498 239 589 184 720 L57 720 Z M383 989 L183 829 L244 749 L467 895 L383 989 Z " />
<glyph glyph-name="Thorn" unicode="&#xde;" horiz-adv-x="600" d="M220 632 L220 651 L221 670 C222 692 222 695 222 720 L99 720 L100 683 C101 667 105 507 105 500 L105 220 C105 216 104 183 103 136 C102 85 100 40 99 0 L222 0 L221 37 C220 56 220 64 218 136 L217 176 L235 176 C304 176 335 180 372 194 C457 226 501 298 501 404 C501 495 466 569 405 604 C369 625 333 632 259 632 L220 632 Z M217 282 L217 527 L251 527 C306 527 322 525 340 514 C368 498 385 456 385 403 C385 354 368 317 336 298 C318 287 292 282 248 282 L217 282 Z " />
<glyph glyph-name="germandbls" unicode="&#xdf;" horiz-adv-x="600" d="M240 0 C237 73 234 199 234 221 L234 522 C234 595 250 624 290 624 C331 624 361 587 361 538 C361 481 322 441 259 435 L259 331 C352 327 388 289 388 197 C388 139 363 96 328 96 C310 96 307 97 259 127 L259 3 C285 -9 303 -13 328 -13 C433 -13 504 74 504 203 C504 296 477 353 413 392 C455 429 477 478 477 538 C477 647 398 733 297 733 C241 733 183 703 152 658 C128 623 122 596 122 522 L122 221 C122 204 118 65 116 0 L240 0 Z " />
<glyph glyph-name="agrave" unicode="&#xe0;" horiz-adv-x="600" d="M155 411 C259 453 261 454 294 454 C344 454 364 429 364 369 C331 380 305 385 278 385 C171 385 93 299 93 180 C93 64 162 -11 268 -11 C310 -11 333 -3 381 31 C383 25 385 19 391 3 L397 -14 L507 0 C477 87 476 91 476 182 L476 360 C476 485 408 563 298 563 C248 563 227 558 125 519 L155 411 Z M364 169 C327 116 302 98 267 98 C231 98 209 129 209 177 C209 239 239 276 287 276 C311 276 327 272 364 259 L364 169 Z M242 816 L158 722 L380 575 L442 656 L242 816 Z " />
<glyph glyph-name="aacute" unicode="&#xe1;" horiz-adv-x="600" d="M155 411 C259 453 261 454 294 454 C344 454 364 429 364 369 C331 380 305 385 278 385 C171 385 93 299 93 180 C93 64 162 -11 268 -11 C310 -11 333 -3 381 31 C383 25 385 19 391 3 L397 -14 L507 0 C477 87 476 91 476 182 L476 360 C476 485 408 563 298 563 C248 563 227 558 125 519 L155 411 Z M364 169 C327 116 302 98 267 98 C231 98 209 129 209 177 C209 239 239 276 287 276 C311 276 327 272 364 259 L364 169 Z M359 816 L158 656 L221 575 L442 722 L359 816 Z " />
<glyph glyph-name="acircumflex" unicode="&#xe2;" horiz-adv-x="600" d="M155 411 C259 453 261 454 294 454 C344 454 364 429 364 369 C331 380 305 385 278 385 C171 385 93 299 93 180 C93 64 162 -11 268 -11 C310 -11 333 -3 381 31 C383 25 385 19 391 3 L397 -14 L507 0 C477 87 476 91 476 182 L476 360 C476 485 408 563 298 563 C248 563 227 558 125 519 L155 411 Z M364 169 C327 116 302 98 267 98 C231 98 209 129 209 177 C209 239 239 276 287 276 C311 276 327 272 364 259 L364 169 Z M300 670 L434 573 L501 646 L300 817 L99 646 L167 573 L300 670 Z " />
<glyph glyph-name="atilde" unicode="&#xe3;" horiz-adv-x="600" d="M155 411 L192 426 C246 448 267 454 295 454 C344 454 364 429 364 369 C331 380 305 385 278 385 C171 385 93 299 93 180 C93 64 162 -11 268 -11 C310 -11 333 -3 381 31 C383 25 385 19 391 3 L397 -14 L507 0 C477 87 476 91 476 182 L476 360 C476 485 408 563 298 563 C248 563 227 558 125 519 L155 411 Z M364 169 C327 116 302 98 267 98 C231 98 209 129 209 177 C209 239 239 276 287 276 C311 276 327 272 364 259 L364 169 Z M413 774 C387 720 385 718 370 718 C362 718 352 722 333 733 L309 747 C269 770 253 775 225 775 C182 775 148 756 120 717 C109 700 109 700 76 633 L177 598 C205 659 210 666 228 666 C237 666 243 664 263 652 L294 633 C321 617 347 609 375 609 C415 609 447 626 472 660 C484 676 490 689 511 736 L413 774 Z " />
<glyph glyph-name="adieresis" unicode="&#xe4;" horiz-adv-x="600" d="M155 411 C259 453 261 454 294 454 C344 454 364 429 364 369 C331 380 305 385 278 385 C171 385 93 299 93 180 C93 64 162 -11 268 -11 C310 -11 333 -3 381 31 C383 25 385 19 391 3 L397 -14 L507 0 C477 87 476 91 476 182 L476 360 C476 485 408 563 298 563 C248 563 227 558 125 519 L155 411 Z M364 169 C327 116 302 98 267 98 C231 98 209 129 209 177 C209 239 239 276 287 276 C311 276 327 272 364 259 L364 169 Z M186 777 C140 777 102 740 102 694 C102 647 139 610 186 610 C231 610 269 648 269 693 C269 739 232 777 186 777 L186 777 Z M415 777 C369 777 331 740 331 694 C331 647 368 610 415 610 C460 610 498 648 498 693 C498 739 461 777 415 777 L415 777 Z " />
<glyph glyph-name="aring" unicode="&#xe5;" horiz-adv-x="600" d="M155 411 C259 453 261 454 294 454 C344 454 364 429 364 369 C331 380 305 385 278 385 C171 385 93 299 93 180 C93 64 162 -11 268 -11 C310 -11 333 -3 381 31 C383 25 385 19 391 3 L397 -14 L507 0 C477 87 476 91 476 182 L476 360 C476 485 408 563 298 563 C248 563 227 558 125 519 L155 411 Z M364 169 C327 116 302 98 267 98 C231 98 209 129 209 177 C209 239 239 276 287 276 C311 276 327 272 364 259 L364 169 Z M302 800 C239 800 189 752 189 691 C189 630 238 581 300 581 C362 581 411 630 411 691 C411 750 361 800 302 800 L302 800 Z M301 721 C317 721 331 707 331 691 C331 674 317 660 300 660 C283 660 269 674 269 690 C269 708 283 721 301 721 L301 721 Z " />
<glyph glyph-name="ae" unicode="&#xe6;" horiz-adv-x="600" d="M574 233 L574 269 C574 379 563 432 528 488 C498 536 449 563 393 563 C358 563 328 558 300 546 C272 558 247 563 218 563 C167 563 134 552 48 507 L76 400 C174 451 183 454 213 454 C234 454 243 442 243 416 L243 377 C226 380 218 381 205 381 C95 381 18 296 18 173 C18 58 86 -14 193 -14 C230 -14 260 -8 293 6 C322 -8 350 -14 387 -14 C440 -14 485 -1 564 36 L575 41 C580 43 585 46 591 48 L547 146 C521 135 521 135 505 128 C450 104 421 95 392 95 C364 95 355 105 355 133 L355 233 L574 233 Z M355 339 L355 419 C355 445 363 454 387 454 C403 454 419 446 433 432 C449 415 457 393 466 339 L355 339 Z M243 153 C243 121 243 117 238 110 C233 100 219 95 202 95 C158 95 134 124 134 176 C134 240 161 278 205 278 C218 278 226 276 243 267 L243 153 Z " />
<glyph glyph-name="ccedilla" unicode="&#xe7;" horiz-adv-x="600" d="M361 -10 C410 0 460 31 504 79 C512 87 520 95 528 104 L447 187 C425 161 414 150 405 141 C373 110 342 95 309 95 C272 95 235 117 215 150 C196 180 187 221 187 273 C187 386 233 454 309 454 C341 454 369 441 389 417 C399 406 406 393 429 352 L531 419 C496 467 488 477 472 494 C432 537 372 563 310 563 C167 563 71 446 71 269 C71 122 139 21 255 -8 L230 -72 C307 -78 338 -94 338 -126 C338 -152 318 -169 289 -169 C269 -169 259 -166 209 -145 L198 -140 L169 -211 C246 -244 269 -250 310 -250 C378 -250 431 -198 431 -131 C431 -79 403 -40 354 -23 L361 -10 Z " />
<glyph glyph-name="egrave" unicode="&#xe8;" horiz-adv-x="600" d="M523 233 L523 268 L523 279 C524 450 437 563 303 563 C164 563 69 446 69 275 C69 179 99 94 153 41 C187 7 245 -14 305 -14 C355 -14 409 -2 469 22 C474 24 474 24 530 48 L479 157 C429 129 429 129 418 123 C380 105 339 95 306 95 C266 95 230 115 210 148 C198 167 193 187 188 233 L523 233 Z M191 339 C204 411 245 454 300 454 C356 454 397 410 405 339 L191 339 Z M242 816 L158 722 L379 575 L441 656 L242 816 Z " />
<glyph glyph-name="eacute" unicode="&#xe9;" horiz-adv-x="600" d="M523 233 L523 268 L523 279 C524 450 437 563 303 563 C164 563 69 446 69 275 C69 179 99 94 153 41 C187 7 245 -14 305 -14 C355 -14 409 -2 469 22 C474 24 474 24 530 48 L479 157 C429 129 429 129 418 123 C380 105 339 95 306 95 C266 95 230 115 210 148 C198 167 193 187 188 233 L523 233 Z M191 339 C204 411 245 454 300 454 C356 454 397 410 405 339 L191 339 Z M372 816 L172 656 L234 575 L456 722 L372 816 Z " />
<glyph glyph-name="ecircumflex" unicode="&#xea;" horiz-adv-x="600" d="M523 233 L523 268 L523 279 C524 450 437 563 303 563 C164 563 69 446 69 275 C69 179 99 94 153 41 C187 7 245 -14 305 -14 C355 -14 409 -2 469 22 C474 24 474 24 530 48 L479 157 C429 129 429 129 418 123 C380 105 339 95 306 95 C266 95 230 115 210 148 C198 167 193 187 188 233 L523 233 Z M191 339 C204 411 245 454 300 454 C356 454 397 410 405 339 L191 339 Z M305 670 L438 573 L506 646 L305 817 L104 646 L171 573 L305 670 Z " />
<glyph glyph-name="edieresis" unicode="&#xeb;" horiz-adv-x="600" d="M523 233 L523 268 L523 279 C524 450 437 563 303 563 C164 563 69 446 69 275 C69 179 99 94 153 41 C187 7 245 -14 305 -14 C355 -14 409 -2 469 22 C474 24 474 24 530 48 L479 157 C429 129 429 129 418 123 C380 105 339 95 306 95 C266 95 230 115 210 148 C198 167 193 187 188 233 L523 233 Z M191 339 C204 411 245 454 300 454 C356 454 397 410 405 339 L191 339 Z M186 777 C140 777 102 740 102 694 C102 647 139 610 186 610 C231 610 269 648 269 693 C269 739 232 777 186 777 L186 777 Z M415 777 C369 777 331 740 331 694 C331 647 368 610 415 610 C460 610 498 648 498 693 C498 739 461 777 415 777 L415 777 Z " />
<glyph glyph-name="igrave" unicode="&#xec;" horiz-adv-x="600" d="M295 441 L296 411 C297 368 298 337 298 328 L298 220 C298 217 297 180 296 136 C295 88 294 42 293 0 L417 0 C416 22 416 31 415 41 C415 45 415 68 414 107 L411 220 L411 328 C411 344 412 373 413 411 L415 498 C416 517 416 518 417 547 L156 547 L156 441 L295 441 Z M256 816 L172 722 L393 575 L456 656 L256 816 Z " />
<glyph glyph-name="iacute" unicode="&#xed;" horiz-adv-x="600" d="M295 441 L296 411 C297 368 298 337 298 328 L298 220 C298 217 297 180 296 136 C295 88 294 42 293 0 L417 0 C416 22 416 31 415 41 C415 45 415 68 414 107 L411 220 L411 328 C411 344 412 373 413 411 L415 498 C416 517 416 518 417 547 L156 547 L156 441 L295 441 Z M390 816 L189 656 L252 575 L473 722 L390 816 Z " />
<glyph glyph-name="icircumflex" unicode="&#xee;" horiz-adv-x="600" d="M296 441 L297 411 C298 368 299 337 299 328 L299 220 C299 217 298 180 297 136 C296 88 295 42 294 0 L417 0 C416 22 416 31 415 41 C415 45 415 68 414 107 L411 220 L411 328 C411 344 412 373 413 411 L415 498 C416 517 416 518 417 547 L156 547 L156 441 L296 441 Z M335 670 L469 573 L536 646 L335 817 L134 646 L201 573 L335 670 Z " />
<glyph glyph-name="idieresis" unicode="&#xef;" horiz-adv-x="600" d="M294 441 L295 411 C296 368 297 337 297 328 L297 220 C297 217 296 180 295 136 C294 88 293 42 292 0 L416 0 C415 22 415 31 414 41 C414 45 414 68 413 107 L410 220 L410 328 C410 344 411 373 412 411 L414 498 C415 517 415 518 416 547 L155 547 L155 441 L294 441 Z M212 777 C166 777 128 740 128 694 C128 647 165 610 212 610 C257 610 295 648 295 693 C295 739 258 777 212 777 L212 777 Z M429 777 C383 777 345 740 345 694 C345 647 382 610 429 610 C474 610 512 648 512 693 C512 739 475 777 429 777 L429 777 Z " />
<glyph glyph-name="eth" unicode="&#xf0;" horiz-adv-x="600" d="M329 683 L394 730 L329 818 L229 744 C169 771 167 771 125 781 L112 784 L46 697 L66 691 C80 686 94 681 107 677 C114 674 120 672 126 670 L83 639 L151 554 L234 613 C255 597 262 591 289 563 C245 560 204 545 170 518 C107 468 77 389 77 274 C77 189 92 129 127 78 C166 20 231 -14 300 -14 C370 -14 438 21 475 77 C507 125 523 187 523 266 C523 332 512 400 493 454 C466 531 401 624 340 674 L329 683 Z M302 453 C370 453 407 389 407 273 C407 157 369 95 300 95 C230 95 193 158 193 275 C193 392 230 453 302 453 L302 453 Z " />
<glyph glyph-name="ntilde" unicode="&#xf1;" horiz-adv-x="600" d="M77 551 C80 538 83 523 86 507 C100 439 104 390 104 260 L104 221 C104 207 103 177 102 137 C101 89 100 43 98 0 L223 0 C222 27 222 33 221 50 L219 137 C218 178 217 209 217 221 L217 278 C217 318 225 348 246 382 C271 423 312 454 342 454 C356 454 371 443 378 426 C386 408 389 376 389 322 L389 221 C389 217 388 183 387 137 C385 69 385 65 383 0 L507 0 L505 37 C505 73 504 91 503 137 C502 175 501 204 501 221 L501 344 C501 393 498 427 490 451 C470 516 412 563 351 563 C300 563 261 546 201 498 L198 513 L193 536 L189 551 L77 551 Z M419 774 L412 759 C395 724 390 718 377 718 C368 718 359 722 339 733 L315 747 C275 770 260 775 231 775 C189 775 155 756 127 717 C115 700 115 700 83 633 L184 598 C212 660 217 666 234 666 C244 666 250 664 269 652 L301 633 C328 617 354 609 381 609 C421 609 454 626 478 660 C491 676 497 689 517 736 L419 774 Z " />
<glyph glyph-name="ograve" unicode="&#xf2;" horiz-adv-x="600" d="M304 563 C231 563 167 530 127 471 C92 421 77 360 77 272 C77 188 92 128 127 78 C166 20 231 -14 301 -14 C370 -14 437 21 476 76 C509 125 524 186 524 273 C524 360 508 422 474 471 C433 529 370 563 304 563 L304 563 Z M303 454 C371 454 408 390 408 273 C408 158 370 95 300 95 C230 95 193 158 193 275 C193 393 231 454 303 454 L303 454 Z M242 816 L158 722 L380 575 L442 656 L242 816 Z " />
<glyph glyph-name="oacute" unicode="&#xf3;" horiz-adv-x="600" d="M304 563 C231 563 167 530 127 471 C92 421 77 360 77 272 C77 188 92 128 127 78 C166 20 231 -14 301 -14 C370 -14 437 21 476 76 C509 125 524 186 524 273 C524 360 508 422 474 471 C433 529 370 563 304 563 L304 563 Z M303 454 C371 454 408 390 408 273 C408 158 370 95 300 95 C230 95 193 158 193 275 C193 393 231 454 303 454 L303 454 Z M359 816 L158 656 L221 575 L442 722 L359 816 Z " />
<glyph glyph-name="ocircumflex" unicode="&#xf4;" horiz-adv-x="600" d="M304 563 C231 563 167 530 127 471 C92 421 77 360 77 272 C77 188 92 128 127 78 C166 20 231 -14 301 -14 C370 -14 437 21 476 76 C509 125 524 186 524 273 C524 360 508 422 474 471 C433 529 370 563 304 563 L304 563 Z M303 454 C371 454 408 390 408 273 C408 158 370 95 300 95 C230 95 193 158 193 275 C193 393 231 454 303 454 L303 454 Z M300 670 L434 573 L501 646 L300 817 L99 646 L167 573 L300 670 Z " />
<glyph glyph-name="otilde" unicode="&#xf5;" horiz-adv-x="600" d="M304 563 C231 563 167 530 127 471 C92 421 77 360 77 272 C77 188 92 128 127 78 C166 20 231 -14 301 -14 C370 -14 437 21 476 76 C509 125 524 186 524 273 C524 360 508 422 474 471 C433 529 370 563 304 563 L304 563 Z M303 454 C371 454 408 390 408 273 C408 158 370 95 300 95 C230 95 193 158 193 275 C193 393 231 454 303 454 L303 454 Z M420 774 L412 759 C396 724 391 718 377 718 C368 718 359 722 340 733 L315 747 C276 770 260 775 232 775 C189 775 155 756 127 717 C115 700 115 700 83 633 L184 598 C212 660 217 666 234 666 C244 666 250 664 270 652 L301 633 C328 617 354 609 381 609 C422 609 454 626 479 660 C491 676 497 689 518 736 L420 774 Z " />
<glyph glyph-name="odieresis" unicode="&#xf6;" horiz-adv-x="600" d="M304 563 C231 563 167 530 127 471 C92 421 77 360 77 272 C77 188 92 128 127 78 C166 20 231 -14 301 -14 C370 -14 437 21 476 76 C509 125 524 186 524 273 C524 360 508 422 474 471 C433 529 370 563 304 563 L304 563 Z M303 454 C371 454 408 390 408 273 C408 158 370 95 300 95 C230 95 193 158 193 275 C193 393 231 454 303 454 L303 454 Z M187 777 C141 777 103 740 103 694 C103 647 140 610 187 610 C232 610 270 648 270 693 C270 739 233 777 187 777 L187 777 Z M416 777 C370 777 332 740 332 694 C332 647 369 610 416 610 C461 610 499 648 499 693 C499 739 462 777 416 777 L416 777 Z " />
<glyph glyph-name="divide" unicode="&#xf7;" horiz-adv-x="600" d="M300 616 C256 616 221 582 221 539 C221 496 255 461 298 461 C341 461 376 496 376 539 C376 581 341 616 300 616 L300 616 Z M595 413 L5 413 L5 307 L595 307 L595 413 Z M300 265 C256 265 221 231 221 188 C221 145 255 110 298 110 C341 110 376 145 376 188 C376 230 341 265 300 265 L300 265 Z " />
<glyph glyph-name="oslash" unicode="&#xf8;" horiz-adv-x="600" d="M540 531 L460 595 L414 529 C376 553 343 563 300 563 C231 563 166 529 127 471 C92 420 77 359 77 274 C77 198 88 145 115 97 L60 18 L140 -46 L186 20 C221 -3 259 -14 300 -14 C369 -14 437 21 475 76 C508 125 523 186 523 272 C523 350 511 406 485 452 L540 531 Z M400 350 C405 325 407 301 407 273 C407 158 369 95 300 95 C276 95 257 102 240 118 L400 350 Z M200 199 C195 226 193 250 193 278 C193 391 231 454 300 454 C324 454 343 447 361 431 L200 199 Z " />
<glyph glyph-name="ugrave" unicode="&#xf9;" horiz-adv-x="600" d="M519 0 L510 43 C496 110 492 160 492 290 L492 329 C492 355 495 474 498 551 L373 551 C375 493 379 356 379 329 L379 285 C379 240 373 212 358 183 C333 133 289 98 254 98 C236 98 222 111 215 132 C208 152 207 165 207 228 L207 329 C207 351 210 483 213 551 L89 551 C91 517 91 514 95 329 L95 206 C95 160 99 122 106 100 C127 32 185 -11 253 -11 C302 -11 336 4 396 52 L397 49 L400 28 L406 0 L519 0 Z M242 816 L158 722 L379 575 L442 656 L242 816 Z " />
<glyph glyph-name="uacute" unicode="&#xfa;" horiz-adv-x="600" d="M519 0 L510 43 C496 110 492 160 492 290 L492 329 C492 355 495 474 498 551 L373 551 C375 493 379 356 379 329 L379 285 C379 240 373 212 358 183 C333 133 289 98 254 98 C236 98 222 111 215 132 C208 152 207 165 207 228 L207 329 C207 351 210 483 213 551 L89 551 C91 517 91 514 95 329 L95 206 C95 160 99 122 106 100 C127 32 185 -11 253 -11 C302 -11 336 4 396 52 L397 49 L400 28 L406 0 L519 0 Z M358 816 L158 656 L220 575 L442 722 L358 816 Z " />
<glyph glyph-name="ucircumflex" unicode="&#xfb;" horiz-adv-x="600" d="M519 0 L510 43 C496 110 492 160 492 290 L492 329 C492 355 495 474 498 551 L373 551 C375 493 379 356 379 329 L379 285 C379 240 373 212 358 183 C333 133 289 98 254 98 C236 98 222 111 215 132 C208 152 207 165 207 228 L207 329 C207 351 210 483 213 551 L89 551 C91 517 91 514 95 329 L95 206 C95 160 99 122 106 100 C127 32 185 -11 253 -11 C302 -11 336 4 396 52 L397 49 L400 28 L406 0 L519 0 Z M300 670 L433 573 L501 646 L300 817 L99 646 L166 573 L300 670 Z " />
<glyph glyph-name="udieresis" unicode="&#xfc;" horiz-adv-x="600" d="M519 0 L510 43 C496 110 492 160 492 290 L492 329 C492 355 495 474 498 551 L373 551 C375 493 379 356 379 329 L379 285 C379 240 373 212 358 183 C333 133 289 98 254 98 C236 98 222 111 215 132 C208 152 207 165 207 228 L207 329 C207 351 210 483 213 551 L89 551 C91 517 91 514 95 329 L95 206 C95 160 99 122 106 100 C127 32 185 -11 253 -11 C302 -11 336 4 396 52 L397 49 L400 28 L406 0 L519 0 Z M186 777 C140 777 102 740 102 694 C102 647 139 610 186 610 C231 610 269 648 269 693 C269 739 232 777 186 777 L186 777 Z M415 777 C369 777 331 740 331 694 C331 647 368 610 415 610 C460 610 498 648 498 693 C498 739 461 777 415 777 L415 777 Z " />
<glyph glyph-name="yacute" unicode="&#xfd;" horiz-adv-x="600" d="M448 551 L332 244 L222 551 L94 551 L269 82 C263 65 238 10 227 -10 C209 -45 198 -56 183 -56 C165 -56 153 -39 131 17 C128 22 126 28 124 34 L24 -18 C39 -60 42 -67 50 -81 C79 -134 128 -165 184 -165 C260 -165 313 -109 368 27 L577 551 L448 551 Z M403 816 L202 656 L265 575 L486 722 L403 816 Z " />
<glyph glyph-name="thorn" unicode="&#xfe;" horiz-adv-x="600" d="M72 722 C107 598 107 598 107 426 L107 31 C107 10 102 -155 100 -206 L226 -206 C224 -165 223 -140 223 -132 C222 -106 221 -59 219 9 C247 -5 269 -11 300 -11 C351 -11 404 11 445 49 C500 101 529 179 529 274 C529 360 509 429 472 478 C431 530 367 563 308 563 C274 563 244 551 219 527 C215 597 206 651 184 735 L72 722 Z M219 389 C245 436 268 454 303 454 C369 454 413 384 413 281 C413 172 364 98 292 98 C263 98 240 108 219 131 L219 389 Z " />
<glyph glyph-name="ydieresis" unicode="&#xff;" horiz-adv-x="600" d="M448 551 L332 244 L222 551 L94 551 L269 82 C263 65 238 10 227 -10 C209 -45 198 -56 183 -56 C165 -56 153 -39 131 17 C128 22 126 28 124 34 L24 -18 C39 -60 42 -67 50 -81 C79 -134 128 -165 184 -165 C260 -165 313 -109 368 27 L577 551 L448 551 Z M220 777 C174 777 136 740 136 694 C136 647 173 610 220 610 C265 610 303 648 303 693 C303 739 266 777 220 777 L220 777 Z M448 777 C402 777 364 740 364 694 C364 647 401 610 448 610 C493 610 531 648 531 693 C531 739 494 777 448 777 L448 777 Z " />
<glyph glyph-name="Amacron" unicode="&#x100;" horiz-adv-x="600" d="M469 805 L469 911 L132 911 L132 805 L469 805 Z M400 176 L447 0 L571 0 L364 720 L237 720 L30 0 L153 0 L201 176 L400 176 Z M370 282 L231 282 L300 530 L370 282 Z " />
<glyph glyph-name="amacron" unicode="&#x101;" horiz-adv-x="600" d="M155 411 C259 453 261 454 294 454 C344 454 364 429 364 369 C331 380 305 385 278 385 C171 385 93 299 93 180 C93 64 162 -11 268 -11 C310 -11 333 -3 381 31 C383 25 385 19 391 3 L397 -14 L507 0 C477 87 476 91 476 182 L476 360 C476 485 408 563 298 563 C248 563 227 558 125 519 L155 411 Z M364 169 C327 116 302 98 267 98 C231 98 209 129 209 177 C209 239 239 276 287 276 C311 276 327 272 364 259 L364 169 Z M469 632 L469 738 L132 738 L132 632 L469 632 Z " />
<glyph glyph-name="Abreve" unicode="&#x102;" horiz-adv-x="600" d="M104 953 C107 898 111 881 124 855 C152 800 210 773 300 773 C382 773 437 797 469 845 C485 870 491 892 497 953 L389 953 L384 929 C376 891 359 882 300 882 C266 882 240 889 228 900 C222 905 220 912 216 929 L211 953 L104 953 Z M400 176 L447 0 L571 0 L364 720 L237 720 L30 0 L153 0 L201 176 L400 176 Z M370 282 L231 282 L300 530 L370 282 Z " />
<glyph glyph-name="abreve" unicode="&#x103;" horiz-adv-x="600" d="M155 411 C259 453 261 454 294 454 C344 454 364 429 364 369 C331 380 305 385 278 385 C171 385 93 299 93 180 C93 64 162 -11 268 -11 C310 -11 333 -3 381 31 C383 25 385 19 391 3 L397 -14 L507 0 C477 87 476 91 476 182 L476 360 C476 485 408 563 298 563 C248 563 227 558 125 519 L155 411 Z M364 169 C327 116 302 98 267 98 C231 98 209 129 209 177 C209 239 239 276 287 276 C311 276 327 272 364 259 L364 169 Z M104 779 C107 724 111 708 124 681 C152 626 210 599 300 599 C382 599 437 623 469 671 C485 696 491 719 497 779 L389 779 L384 755 C376 718 359 708 300 708 C266 708 240 715 228 726 C222 731 220 738 216 755 L211 779 L104 779 Z " />
<glyph glyph-name="Aogonek" unicode="&#x104;" horiz-adv-x="600" d="M364 720 L237 720 L30 0 L154 0 L201 176 L400 176 L447 0 C370 -11 318 -63 318 -130 C318 -197 368 -243 443 -243 C483 -243 523 -232 564 -208 L564 -121 C520 -147 496 -156 466 -156 C435 -156 417 -142 417 -118 C417 -81 451 -44 505 -20 C525 -11 536 -8 571 0 L364 720 Z M370 282 L231 282 L301 530 L370 282 Z " />
<glyph glyph-name="aogonek" unicode="&#x105;" horiz-adv-x="600" d="M476 360 C476 485 408 563 298 563 C248 563 227 558 125 519 L155 411 C259 453 261 454 294 454 C344 454 364 429 364 369 C331 380 305 385 278 385 C171 385 93 299 93 180 C93 64 162 -11 268 -11 C310 -11 333 -3 381 31 C383 25 385 19 391 3 L394 -4 C365 -9 357 -11 342 -17 C286 -38 254 -80 254 -131 C254 -197 305 -243 379 -243 C419 -243 458 -232 501 -208 L501 -121 C456 -148 432 -156 402 -156 C371 -156 353 -142 353 -118 C353 -81 387 -44 441 -20 C463 -11 467 -9 508 0 C505 8 502 16 500 24 C478 85 476 98 476 182 L476 360 Z M364 169 C327 116 302 98 267 98 C231 98 209 129 209 177 C209 239 239 276 287 276 C311 276 327 272 364 259 L364 169 Z " />
<glyph glyph-name="Cacute" unicode="&#x106;" horiz-adv-x="600" d="M412 212 C408 167 406 158 399 143 C386 115 354 97 316 97 C233 97 193 179 193 350 C193 536 234 623 322 623 C354 623 379 609 390 587 C396 575 397 569 399 526 L515 526 C511 575 509 589 503 608 C478 684 408 732 320 732 C161 732 77 600 77 350 C77 111 158 -12 315 -12 C399 -12 467 24 496 84 C513 120 517 137 526 212 L412 212 Z M388 989 L188 829 L250 749 L472 895 L388 989 Z " />
<glyph glyph-name="cacute" unicode="&#x107;" horiz-adv-x="600" d="M447 187 C423 160 414 150 405 141 C373 110 342 95 309 95 C272 95 235 117 215 150 C196 180 187 221 187 273 C187 386 233 454 309 454 C341 454 369 441 389 417 C399 406 406 394 429 352 L531 419 C497 466 488 477 472 494 C432 537 372 563 310 563 C167 563 71 446 71 270 C71 97 167 -14 315 -14 C385 -14 445 15 504 79 C512 87 520 95 528 104 L447 187 Z M367 816 L166 656 L229 575 L450 722 L367 816 Z " />
<glyph glyph-name="Ccaron" unicode="&#x10c;" horiz-adv-x="600" d="M412 212 C408 167 406 158 399 143 C386 115 354 97 316 97 C233 97 193 179 193 350 C193 536 234 623 322 623 C354 623 379 609 390 587 C396 575 397 569 399 526 L515 526 C511 575 509 589 503 608 C478 684 408 732 320 732 C161 732 77 600 77 350 C77 111 158 -12 315 -12 C399 -12 467 24 496 84 C513 120 517 137 526 212 L412 212 Z M314 892 L181 990 L113 917 L314 746 L515 917 L448 990 L314 892 Z " />
<glyph glyph-name="ccaron" unicode="&#x10d;" horiz-adv-x="600" d="M447 187 C423 160 414 150 405 141 C373 110 342 95 309 95 C272 95 235 117 215 150 C196 180 187 221 187 273 C187 386 233 454 309 454 C341 454 369 441 389 417 C399 406 406 394 429 352 L531 419 C497 466 488 477 472 494 C432 537 372 563 310 563 C167 563 71 446 71 270 C71 97 167 -14 315 -14 C385 -14 445 15 504 79 C512 87 520 95 528 104 L447 187 Z M305 720 L171 817 L104 744 L305 573 L506 744 L438 817 L305 720 Z " />
<glyph glyph-name="Dcaron" unicode="&#x10e;" horiz-adv-x="600" d="M83 720 C85 654 89 519 89 501 L89 219 C89 200 85 69 83 0 L260 0 C342 0 395 16 435 53 C492 104 519 203 519 354 C519 475 500 569 466 624 C423 691 361 720 260 720 L83 720 Z M201 106 L201 614 L256 614 C372 614 403 560 403 360 C403 158 373 106 256 106 L201 106 Z M277 892 L143 990 L76 917 L277 746 L478 917 L411 990 L277 892 Z " />
<glyph glyph-name="dcaron" unicode="&#x10f;" horiz-adv-x="600" d="M331 733 C332 705 334 641 337 542 C309 557 286 563 256 563 C205 563 152 541 111 503 C56 451 27 372 27 278 C27 193 47 123 84 74 C126 21 189 -11 251 -11 C292 -11 317 -3 360 25 C364 11 365 7 372 -14 L484 0 C449 123 449 123 449 294 L449 520 C452 642 454 713 455 733 L331 733 Z M337 162 C311 116 288 98 253 98 C187 98 143 168 143 271 C143 380 192 454 264 454 C293 454 315 444 337 420 L337 162 Z M572 732 L455 539 L545 485 L683 672 L572 732 Z " />
<glyph glyph-name="Dcroat" unicode="&#x110;" horiz-adv-x="600" d="M89 324 L89 220 C89 201 85 69 83 0 L261 0 C342 0 395 16 435 53 C492 104 519 204 519 355 C519 475 500 570 466 624 C423 691 362 720 261 720 L83 720 C85 654 89 519 89 501 L89 430 L16 430 L16 324 L89 324 Z M201 324 L314 324 L314 430 L201 430 L201 614 L256 614 C371 614 403 560 403 362 C403 158 373 106 256 106 L201 106 L201 324 Z " />
<glyph glyph-name="dcroat" unicode="&#x111;" horiz-adv-x="600" d="M498 657 L499 684 C500 704 500 705 501 733 L377 733 L378 697 L379 684 L379 670 L379 657 L220 657 L220 574 L383 574 L383 522 C354 537 333 543 302 543 C251 543 197 521 157 485 C102 435 73 359 73 268 C73 185 93 118 130 71 C172 20 235 -11 297 -11 C338 -11 363 -3 406 25 C410 11 411 7 418 -14 L530 0 C495 124 495 124 495 294 L495 574 L568 574 L568 657 L498 657 Z M383 162 C357 116 334 98 299 98 C233 98 189 164 189 261 C189 364 238 434 310 434 C339 434 361 423 383 400 L383 162 Z " />
<glyph glyph-name="Emacron" unicode="&#x112;" horiz-adv-x="600" d="M102 720 C103 714 104 679 105 613 L108 500 L108 219 C108 215 107 181 106 136 L104 45 C103 30 103 25 102 0 L506 0 L506 106 L220 106 L220 315 L423 315 L423 421 L220 421 L220 614 L499 614 L499 720 L102 720 Z M469 805 L469 911 L132 911 L132 805 L469 805 Z " />
<glyph glyph-name="emacron" unicode="&#x113;" horiz-adv-x="600" d="M523 233 L523 268 L523 279 C524 450 437 563 303 563 C164 563 69 446 69 275 C69 179 99 94 153 41 C187 7 245 -14 304 -14 C355 -14 409 -2 469 22 C474 24 474 24 530 48 L479 157 C440 135 430 129 418 123 C379 105 339 95 306 95 C266 95 230 115 210 148 C198 167 193 187 188 233 L523 233 Z M191 339 C204 411 245 454 300 454 C356 454 397 410 405 339 L191 339 Z M468 632 L468 738 L131 738 L131 632 L468 632 Z " />
<glyph glyph-name="Edotaccent" unicode="&#x116;" horiz-adv-x="600" d="M102 720 C103 714 104 679 105 613 L108 500 L108 219 C108 215 107 181 106 136 L104 45 C103 30 103 25 102 0 L506 0 L506 106 L220 106 L220 315 L423 315 L423 421 L220 421 L220 614 L499 614 L499 720 L102 720 Z M301 953 C255 953 217 916 217 870 C217 823 254 786 301 786 C346 786 384 824 384 869 C384 915 347 953 301 953 L301 953 Z " />
<glyph glyph-name="edotaccent" unicode="&#x117;" horiz-adv-x="600" d="M523 233 L523 268 L523 279 C524 450 437 563 303 563 C164 563 69 446 69 275 C69 179 99 94 153 41 C187 7 245 -14 305 -14 C355 -14 409 -2 469 22 C474 24 474 24 530 48 L479 157 C429 129 429 129 418 123 C380 105 339 95 306 95 C266 95 230 115 210 148 C198 167 193 187 188 233 L523 233 Z M191 339 C204 411 245 454 300 454 C356 454 397 410 405 339 L191 339 Z M300 777 C254 777 216 740 216 694 C216 647 253 610 300 610 C345 610 383 648 383 693 C383 739 346 777 300 777 L300 777 Z " />
<glyph glyph-name="Eogonek" unicode="&#x118;" horiz-adv-x="600" d="M506 106 L220 106 L220 315 L423 315 L423 421 L220 421 L220 614 L499 614 L499 720 L102 720 C103 714 104 679 105 613 L108 500 L108 219 C108 215 107 181 106 136 L104 45 C103 30 103 25 102 0 L383 0 C306 -11 253 -63 253 -130 C253 -197 303 -243 378 -243 C418 -243 458 -232 499 -208 L499 -121 C456 -147 431 -156 401 -156 C370 -156 352 -142 352 -118 C352 -81 386 -44 440 -20 C460 -11 472 -8 506 0 L506 106 Z " />
<glyph glyph-name="eogonek" unicode="&#x119;" horiz-adv-x="600" d="M479 157 C429 129 429 129 417 123 C379 105 339 95 306 95 C266 95 230 115 210 148 C198 167 193 187 188 233 L523 233 L523 268 L523 279 C524 450 437 563 303 563 C164 563 69 446 69 275 C69 179 99 95 153 41 C187 7 245 -14 307 -14 C324 -14 338 -13 359 -10 C301 -35 270 -77 270 -130 C270 -197 320 -243 395 -243 C435 -243 475 -232 516 -208 L516 -121 C472 -147 448 -156 418 -156 C387 -156 369 -142 369 -118 C369 -65 427 -5 530 48 L479 157 Z M191 339 C204 411 245 454 300 454 C356 454 397 410 405 339 L191 339 Z " />
<glyph glyph-name="Ecaron" unicode="&#x11a;" horiz-adv-x="600" d="M101 720 C102 714 103 679 104 613 L107 500 L107 219 C107 215 106 181 105 136 L103 45 C102 30 102 25 101 0 L505 0 L505 106 L219 106 L219 315 L422 315 L422 421 L219 421 L219 614 L499 614 L499 720 L101 720 Z M300 892 L166 990 L99 917 L300 746 L501 917 L434 990 L300 892 Z " />
<glyph glyph-name="ecaron" unicode="&#x11b;" horiz-adv-x="600" d="M523 233 L523 268 L523 279 C524 450 437 563 303 563 C164 563 69 446 69 275 C69 179 99 94 153 41 C187 7 245 -14 305 -14 C355 -14 409 -2 469 22 C474 24 474 24 530 48 L479 157 C429 129 429 129 418 123 C380 105 339 95 306 95 C266 95 230 115 210 148 C198 167 193 187 188 233 L523 233 Z M191 339 C204 411 245 454 300 454 C356 454 397 410 405 339 L191 339 Z M305 720 L171 817 L104 744 L305 573 L506 744 L438 817 L305 720 Z " />
<glyph glyph-name="Gbreve" unicode="&#x11e;" horiz-adv-x="600" d="M419 276 C418 219 413 191 401 164 C381 121 347 97 303 97 C223 97 186 176 186 349 C186 431 193 493 205 533 C223 589 261 623 305 623 C351 623 378 591 378 535 L378 499 L499 499 C494 564 492 574 485 597 C458 681 390 732 305 732 C241 732 184 705 143 657 C92 596 70 501 70 341 C70 243 78 184 99 129 C132 41 207 -12 297 -12 C342 -12 383 0 419 25 L419 0 L531 0 L531 382 L259 382 L259 276 L419 276 Z M111 953 C114 898 118 881 131 855 C159 800 217 773 307 773 C389 773 444 797 476 845 C492 870 498 892 504 953 L396 953 L391 929 C383 891 366 882 307 882 C274 882 247 889 235 900 C229 905 227 912 223 929 L218 953 L111 953 Z " />
<glyph glyph-name="gbreve" unicode="&#x11f;" horiz-adv-x="600" d="M417 551 L412 531 C365 556 341 563 299 563 C236 563 180 540 144 500 C101 452 76 376 76 295 C76 140 162 36 289 36 C329 36 360 44 393 62 L392 49 C388 -16 353 -54 297 -54 C250 -54 222 -37 177 17 L90 -59 C100 -68 109 -77 119 -87 C170 -137 230 -163 295 -163 C361 -163 422 -134 461 -83 C490 -45 505 6 505 69 L505 385 C505 439 510 471 529 551 L417 551 Z M393 197 C364 163 329 145 291 145 C232 145 192 208 192 300 C192 393 233 454 294 454 C331 454 366 437 393 406 L393 197 Z M105 779 C108 724 111 708 125 681 C153 626 211 599 300 599 C382 599 438 623 470 671 C486 696 492 719 497 779 L390 779 L385 755 C377 718 359 708 300 708 C267 708 240 715 229 726 C223 731 220 738 217 755 L212 779 L105 779 Z " />
<glyph glyph-name="Gcommaaccent" unicode="&#x122;" horiz-adv-x="600" d="M419 276 C418 219 413 191 401 164 C381 121 347 97 303 97 C223 97 186 176 186 349 C186 431 193 493 205 533 C223 589 261 623 305 623 C351 623 378 591 378 535 L378 499 L499 499 C494 564 492 574 485 597 C458 681 390 732 305 732 C241 732 184 705 143 657 C92 596 70 501 70 341 C70 243 78 184 99 129 C132 41 207 -12 297 -12 C342 -12 383 0 419 25 L419 0 L531 0 L531 382 L259 382 L259 276 L419 276 Z M300 -40 L182 -233 L273 -287 L411 -100 L300 -40 Z " />
<glyph glyph-name="gcommaaccent" unicode="&#x123;" horiz-adv-x="600" d="M417 551 L412 531 C365 556 341 563 299 563 C236 563 180 540 144 500 C101 452 76 376 76 295 C76 140 162 36 289 36 C329 36 360 44 393 62 L392 49 C388 -16 353 -54 297 -54 C250 -54 222 -37 177 17 L90 -59 C100 -68 109 -77 119 -87 C170 -137 230 -163 295 -163 C361 -163 422 -134 461 -83 C490 -45 505 6 505 69 L505 385 C505 439 510 471 529 551 L417 551 Z M393 197 C364 163 329 145 291 145 C232 145 192 208 192 300 C192 393 233 454 295 454 C331 454 366 437 393 406 L393 197 Z M329 605 L447 798 L356 852 L218 665 L329 605 Z " />
<glyph glyph-name="Imacron" unicode="&#x12a;" horiz-adv-x="600" d="M242 614 C244 532 245 508 245 501 L245 219 C245 204 245 192 242 106 L151 106 L151 0 L450 0 L450 106 L360 106 C358 187 357 210 357 219 L357 501 C357 518 357 532 360 614 L450 614 L450 720 L151 720 L151 614 L242 614 Z M469 805 L469 911 L132 911 L132 805 L469 805 Z " />
<glyph glyph-name="imacron" unicode="&#x12b;" horiz-adv-x="600" d="M296 441 L297 411 C298 368 299 337 299 328 L299 220 C299 217 298 180 297 136 C296 88 295 42 294 0 L418 0 C417 22 417 31 416 41 C416 45 416 68 415 107 L412 220 L412 328 C412 344 413 373 414 411 L416 498 C417 517 417 518 418 547 L157 547 L157 441 L296 441 Z M490 632 L490 738 L153 738 L153 632 L490 632 Z " />
<glyph glyph-name="Iogonek" unicode="&#x12e;" horiz-adv-x="600" d="M450 106 L360 106 C358 187 357 210 357 219 L357 501 C357 518 357 532 360 614 L450 614 L450 720 L151 720 L151 614 L242 614 C244 532 245 508 245 501 L245 219 C245 204 245 192 242 106 L151 106 L151 0 L327 0 C267 -11 227 -63 227 -128 C227 -197 272 -243 341 -243 C376 -243 409 -232 443 -208 L443 -121 C408 -147 388 -156 365 -156 C340 -156 326 -142 326 -118 C326 -65 372 -21 450 0 L450 106 Z " />
<glyph glyph-name="iogonek" unicode="&#x12f;" horiz-adv-x="600" d="M156 547 L156 441 L295 441 L296 411 C297 368 298 337 298 328 L298 220 C298 217 297 180 296 136 C295 88 294 42 293 0 C253 -11 224 -65 224 -125 C224 -196 273 -244 343 -244 C376 -244 402 -233 430 -208 L430 -121 C402 -149 390 -156 367 -156 C341 -156 323 -139 323 -115 C323 -82 345 -43 376 -20 C389 -11 394 -9 417 0 L415 41 C415 67 413 127 411 220 L411 328 C411 343 412 372 413 411 L415 498 C416 517 416 518 417 547 L156 547 Z M356 734 C309 734 272 697 272 651 C272 604 309 567 356 567 C401 567 439 605 439 650 C439 697 402 734 356 734 L356 734 Z " />
<glyph glyph-name="Idotaccent" unicode="&#x130;" horiz-adv-x="600" d="M242 614 C244 532 245 508 245 501 L245 219 C245 204 245 192 242 106 L151 106 L151 0 L450 0 L450 106 L360 106 C358 187 357 210 357 219 L357 501 C357 518 357 532 360 614 L450 614 L450 720 L151 720 L151 614 L242 614 Z M301 953 C255 953 217 916 217 870 C217 823 254 786 301 786 C346 786 384 824 384 869 C384 915 347 953 301 953 L301 953 Z " />
<glyph glyph-name="dotlessi" unicode="&#x131;" horiz-adv-x="600" d="M295 441 L296 411 C297 368 298 337 298 328 L298 220 C298 217 297 180 296 136 C295 88 294 42 293 0 L417 0 C416 22 416 31 415 41 C415 45 415 68 414 107 L411 220 L411 328 C411 344 412 373 413 411 L415 498 C416 517 416 518 417 547 L156 547 L156 441 L295 441 Z " />
<glyph glyph-name="Kcommaaccent" unicode="&#x136;" horiz-adv-x="600" d="M178 282 L407 0 L561 0 L258 358 C329 410 393 501 485 679 L372 737 C325 596 270 509 178 428 L178 500 C178 517 182 676 184 720 L60 720 C62 676 66 516 66 500 L66 220 C66 204 62 44 60 0 L184 0 L182 43 L180 136 L178 220 L178 282 Z M288 -40 L170 -233 L260 -287 L399 -100 L288 -40 Z " />
<glyph glyph-name="kcommaaccent" unicode="&#x137;" horiz-adv-x="600" d="M90 733 C92 674 96 521 96 512 L96 220 C96 216 95 182 94 136 C93 85 91 40 90 0 L214 0 L212 37 L212 50 C210 96 210 96 208 211 L218 220 L403 0 L557 0 L295 294 C359 355 425 434 512 551 L364 551 C326 490 271 422 208 359 L208 512 C208 539 211 658 214 733 L90 733 Z M298 -40 L180 -233 L270 -287 L409 -100 L298 -40 Z " />
<glyph glyph-name="Lacute" unicode="&#x139;" horiz-adv-x="600" d="M511 0 L511 106 L223 106 C221 182 220 201 220 219 L220 500 C220 505 221 536 222 584 L225 720 L102 720 L103 683 C104 669 108 507 108 500 L108 219 C108 212 107 179 106 135 L104 45 C103 30 103 26 102 0 L511 0 Z M358 989 L158 829 L220 749 L442 895 L358 989 Z " />
<glyph glyph-name="lacute" unicode="&#x13a;" horiz-adv-x="600" d="M299 627 L300 597 C301 553 302 519 302 513 L302 220 C302 203 299 76 297 0 L420 0 L419 37 C418 57 414 207 414 220 L414 513 C414 540 418 696 420 733 L160 733 L160 627 L299 627 Z M394 989 L194 829 L256 749 L478 895 L394 989 Z " />
<glyph glyph-name="Lcommaaccent" unicode="&#x13b;" horiz-adv-x="600" d="M511 0 L511 106 L223 106 C221 182 220 201 220 219 L220 500 C220 505 221 536 222 584 L225 720 L102 720 L103 683 C104 669 108 507 108 500 L108 219 C108 212 107 179 106 135 L104 45 C103 30 103 26 102 0 L511 0 Z M300 -40 L182 -233 L272 -287 L411 -100 L300 -40 Z " />
<glyph glyph-name="lcommaaccent" unicode="&#x13c;" horiz-adv-x="600" d="M300 627 L301 597 C302 553 303 519 303 513 L303 220 C303 203 300 76 298 0 L421 0 L420 37 C419 57 415 207 415 220 L415 513 C415 540 419 696 421 733 L160 733 L160 627 L300 627 Z M358 -40 L240 -233 L330 -287 L469 -100 L358 -40 Z " />
<glyph glyph-name="Lcaron" unicode="&#x13d;" horiz-adv-x="600" d="M512 0 L512 106 L224 106 C222 182 221 201 221 219 L221 500 C221 505 222 536 223 584 L226 720 L103 720 L104 683 C105 669 109 507 109 500 L109 219 C109 212 108 179 107 135 L105 45 C104 30 104 26 103 0 L512 0 Z M423 732 L305 539 L395 485 L534 672 L423 732 Z " />
<glyph glyph-name="lcaron" unicode="&#x13e;" horiz-adv-x="600" d="M245 627 L246 597 C247 553 248 519 248 513 L248 220 C248 203 245 76 243 0 L366 0 L365 37 C364 57 360 207 360 220 L360 513 C360 540 364 696 366 733 L106 733 L106 627 L245 627 Z M489 732 L371 539 L461 485 L600 672 L489 732 Z " />
<glyph glyph-name="Lslash" unicode="&#x141;" horiz-adv-x="600" d="M220 358 L291 386 L332 402 C336 404 332 403 344 407 C352 410 362 413 371 416 L371 540 C307 507 261 484 233 472 L220 467 L220 500 C220 505 221 536 222 584 L225 720 L102 720 L103 683 C104 665 108 509 108 500 L108 422 L82 412 L41 396 C30 392 18 388 4 384 L1 383 L1 259 C41 279 77 298 108 313 L108 219 C108 213 107 180 106 135 L104 45 C103 30 103 26 102 0 L511 0 L511 106 L223 106 C221 182 220 201 220 219 L220 358 Z " />
<glyph glyph-name="lslash" unicode="&#x142;" horiz-adv-x="600" d="M414 514 C416 594 417 652 418 687 C419 701 419 708 420 733 L160 733 L160 627 L299 627 L300 597 C301 553 302 520 302 514 L302 463 L176 406 L176 282 L302 340 L302 220 C302 203 299 76 297 0 L420 0 L419 37 C418 59 414 206 414 220 L414 390 L529 442 L529 566 L414 514 Z " />
<glyph glyph-name="Nacute" unicode="&#x143;" horiz-adv-x="600" d="M380 720 C383 649 386 524 386 501 L386 304 L220 720 L102 720 L102 220 C102 201 98 65 96 0 L220 0 C217 71 214 200 214 220 L214 450 L398 -7 L498 -7 L498 501 C498 521 501 649 504 720 L380 720 Z M381 989 L180 829 L243 749 L464 895 L381 989 Z " />
<glyph glyph-name="nacute" unicode="&#x144;" horiz-adv-x="600" d="M77 551 C80 538 83 523 86 507 C100 439 104 390 104 260 L104 221 C104 207 103 177 102 137 C101 89 100 43 98 0 L223 0 C222 27 222 33 221 50 L219 137 C218 178 217 209 217 221 L217 278 C217 318 225 348 246 382 C271 423 312 454 342 454 C356 454 371 443 378 426 C386 408 389 376 389 322 L389 221 C389 217 388 183 387 137 C385 69 385 65 383 0 L507 0 L505 37 C505 73 504 91 503 137 C502 175 501 204 501 221 L501 344 C501 393 498 427 490 451 C470 516 412 563 351 563 C300 563 261 546 201 498 L198 513 L193 536 L189 551 L77 551 Z M376 816 L176 656 L238 575 L460 722 L376 816 Z " />
<glyph glyph-name="Ncommaaccent" unicode="&#x145;" horiz-adv-x="600" d="M380 720 C383 649 386 524 386 501 L386 304 L220 720 L102 720 L102 220 C102 201 98 65 96 0 L220 0 C217 71 214 200 214 220 L214 450 L398 -7 L498 -7 L498 501 C498 521 501 649 504 720 L380 720 Z M300 -40 L182 -233 L272 -287 L411 -100 L300 -40 Z " />
<glyph glyph-name="ncommaaccent" unicode="&#x146;" horiz-adv-x="600" d="M77 551 C80 538 83 523 86 507 C100 439 104 390 104 260 L104 221 C104 207 103 177 102 137 C101 89 100 43 98 0 L223 0 C222 27 222 33 221 50 L219 137 C218 178 217 209 217 221 L217 278 C217 318 225 348 246 382 C271 423 312 454 342 454 C356 454 371 443 378 426 C386 408 389 376 389 322 L389 221 C389 217 388 183 387 137 C385 69 385 65 383 0 L507 0 L505 37 C505 73 504 91 503 137 C502 175 501 204 501 221 L501 344 C501 393 498 427 490 451 C470 516 412 563 351 563 C300 563 261 546 201 498 L198 513 L193 536 L189 551 L77 551 Z M298 -40 L180 -233 L271 -287 L409 -100 L298 -40 Z " />
<glyph glyph-name="Ncaron" unicode="&#x147;" horiz-adv-x="600" d="M380 720 C383 649 386 524 386 501 L386 304 L220 720 L102 720 L102 220 C102 201 98 65 96 0 L220 0 C217 71 214 200 214 220 L214 450 L398 -7 L498 -7 L498 501 C498 521 501 649 504 720 L380 720 Z M300 892 L166 990 L98 917 L300 746 L501 917 L433 990 L300 892 Z " />
<glyph glyph-name="ncaron" unicode="&#x148;" horiz-adv-x="600" d="M77 551 C80 538 83 523 86 507 C100 439 104 390 104 260 L104 221 C104 207 103 177 102 137 C101 89 100 43 98 0 L223 0 C222 27 222 33 221 50 L219 137 C218 178 217 209 217 221 L217 278 C217 318 225 348 246 382 C271 423 312 454 342 454 C356 454 371 443 378 426 C386 408 389 376 389 322 L389 221 C389 217 388 183 387 137 C385 69 385 65 383 0 L507 0 L505 37 C505 73 504 91 503 137 C502 175 501 204 501 221 L501 344 C501 393 498 427 490 451 C470 516 412 563 351 563 C300 563 261 546 201 498 L198 513 L193 536 L189 551 L77 551 Z M305 720 L172 817 L103 744 L305 573 L506 744 L439 817 L305 720 Z " />
<glyph glyph-name="Omacron" unicode="&#x14c;" horiz-adv-x="600" d="M303 732 C236 732 176 704 136 652 C91 595 72 511 72 363 C72 220 86 143 124 85 C164 23 228 -12 301 -12 C366 -12 427 17 465 65 C511 122 529 207 529 355 C529 497 514 576 477 635 C439 695 373 732 303 732 L303 732 Z M302 623 C337 623 371 598 388 558 C406 515 413 461 413 362 C413 252 404 190 382 151 C363 116 333 97 300 97 C264 97 231 121 213 162 C195 205 188 259 188 360 C188 467 197 529 219 569 C238 604 267 623 302 623 L302 623 Z M469 805 L469 911 L132 911 L132 805 L469 805 Z " />
<glyph glyph-name="omacron" unicode="&#x14d;" horiz-adv-x="600" d="M304 563 C231 563 167 530 127 471 C92 421 77 360 77 272 C77 188 92 128 127 78 C166 20 231 -14 301 -14 C370 -14 437 21 476 76 C509 125 524 186 524 273 C524 360 508 422 474 471 C433 529 370 563 304 563 L304 563 Z M303 454 C371 454 408 390 408 273 C408 158 370 95 300 95 C230 95 193 158 193 275 C193 393 231 454 303 454 L303 454 Z M469 632 L469 738 L132 738 L132 632 L469 632 Z " />
<glyph glyph-name="Ohungarumlaut" unicode="&#x150;" horiz-adv-x="600" d="M303 732 C236 732 176 704 136 652 C91 595 72 511 72 363 C72 220 86 143 124 85 C164 23 228 -12 301 -12 C366 -12 427 17 465 65 C511 122 529 207 529 355 C529 497 514 576 477 635 C439 695 373 732 303 732 L303 732 Z M302 623 C337 623 371 598 388 558 C406 515 413 461 413 362 C413 252 404 190 382 151 C363 116 333 97 300 97 C264 97 231 121 213 162 C195 205 188 259 188 360 C188 467 197 529 219 569 C238 604 267 623 302 623 L302 623 Z M512 999 L331 819 L400 742 L603 912 L512 999 Z M290 999 L110 818 L179 742 L382 911 L290 999 Z " />
<glyph glyph-name="ohungarumlaut" unicode="&#x151;" horiz-adv-x="600" d="M304 563 C231 563 167 530 127 471 C92 421 77 360 77 272 C77 188 92 128 127 78 C166 20 231 -14 301 -14 C370 -14 437 21 476 76 C509 125 524 186 524 273 C524 360 508 422 474 471 C433 529 370 563 304 563 L304 563 Z M303 454 C371 454 408 390 408 273 C408 158 370 95 300 95 C230 95 193 158 193 275 C193 393 231 454 303 454 L303 454 Z M503 825 L322 645 L391 568 L594 738 L503 825 Z M281 825 L101 644 L170 568 L373 737 L281 825 Z " />
<glyph glyph-name="OE" unicode="&#x152;" horiz-adv-x="600" d="M568 0 L568 106 L401 106 L401 315 L507 315 L507 421 L401 421 L401 614 L562 614 L562 720 L312 720 C277 729 256 732 235 732 C181 732 120 700 82 652 C36 594 18 511 18 362 C18 220 32 143 70 85 C110 23 174 -12 246 -12 C271 -12 294 -8 318 0 L568 0 Z M286 108 C272 100 260 97 246 97 C210 97 177 122 159 162 C141 204 134 259 134 359 C134 467 143 529 165 569 C183 603 214 623 246 623 C260 623 272 620 286 612 L287 598 L287 584 C288 535 289 504 289 500 L289 219 L286 108 Z " />
<glyph glyph-name="oe" unicode="&#x153;" horiz-adv-x="600" d="M547 146 C447 101 428 95 392 95 C365 95 355 105 355 133 L355 233 L575 233 L575 288 C575 463 508 563 391 563 C360 563 335 559 304 549 C275 558 249 563 225 563 C184 563 144 547 107 516 C48 465 20 388 20 275 C20 176 41 104 85 54 C123 12 174 -14 222 -14 C245 -14 271 -8 298 2 C325 -9 352 -14 387 -14 C441 -14 486 -2 564 36 C576 41 577 42 591 48 L547 146 Z M243 95 L228 95 L222 95 C208 95 196 101 181 116 C151 144 136 197 136 275 C136 385 171 454 227 454 C231 454 235 454 243 453 L243 95 Z M355 339 L355 419 C355 445 364 454 387 454 C403 454 420 446 433 432 C449 415 457 393 466 339 L355 339 Z " />
<glyph glyph-name="Racute" unicode="&#x154;" horiz-adv-x="600" d="M211 279 L240 279 L279 279 L440 0 L579 0 L393 304 C463 348 498 415 498 501 C498 572 474 634 432 671 C392 707 349 720 267 720 L93 720 C95 653 99 518 99 499 L99 220 C99 201 95 65 93 0 L217 0 C215 67 211 199 211 220 L211 279 Z M211 384 L211 614 L241 614 C300 614 325 610 344 598 C369 583 382 551 382 507 C382 463 365 423 338 403 C322 391 294 384 264 384 L211 384 Z M358 989 L158 829 L220 749 L442 895 L358 989 Z " />
<glyph glyph-name="racute" unicode="&#x155;" horiz-adv-x="600" d="M249 0 C248 38 243 210 243 222 L243 244 C243 336 313 454 368 454 C388 454 392 439 397 347 L510 347 C508 414 507 423 502 449 C487 520 437 563 371 563 C319 563 275 539 229 488 L216 551 L103 551 L111 507 C125 442 131 370 131 260 L131 222 C131 207 130 177 129 138 L127 50 C126 30 126 28 125 0 L249 0 Z M411 816 L211 656 L273 575 L495 722 L411 816 Z " />
<glyph glyph-name="Rcommaaccent" unicode="&#x156;" horiz-adv-x="600" d="M211 279 L242 279 L280 279 L442 0 L580 0 L395 304 C464 348 500 415 500 501 C500 572 476 634 434 671 C394 707 350 720 269 720 L93 720 C95 653 99 518 99 499 L99 220 C99 201 95 65 93 0 L218 0 C216 55 211 200 211 220 L211 279 Z M211 384 L211 614 L243 614 C301 614 327 610 346 598 C371 583 384 551 384 507 C384 463 367 423 339 403 C324 391 295 384 266 384 L211 384 Z M300 -40 L182 -233 L273 -287 L411 -100 L300 -40 Z " />
<glyph glyph-name="rcommaaccent" unicode="&#x157;" horiz-adv-x="600" d="M249 0 C248 38 243 210 243 222 L243 244 C243 336 313 454 368 454 C388 454 392 439 397 347 L510 347 C508 414 507 423 502 449 C487 520 437 563 371 563 C319 563 275 539 229 488 L216 551 L103 551 L111 507 C125 442 131 370 131 260 L131 222 C131 207 130 177 129 138 L127 50 C126 30 126 28 125 0 L249 0 Z M191 -40 L73 -233 L163 -287 L302 -100 L191 -40 Z " />
<glyph glyph-name="Rcaron" unicode="&#x158;" horiz-adv-x="600" d="M211 279 L240 279 L279 279 L440 0 L579 0 L393 304 C463 348 498 415 498 501 C498 572 474 634 432 671 C392 707 349 720 267 720 L93 720 C95 653 99 518 99 499 L99 220 C99 201 95 65 93 0 L217 0 C215 67 211 199 211 220 L211 279 Z M211 384 L211 614 L241 614 C300 614 325 610 344 598 C369 583 382 551 382 507 C382 463 365 423 338 403 C322 391 294 384 264 384 L211 384 Z M282 892 L148 990 L81 917 L282 746 L483 917 L416 990 L282 892 Z " />
<glyph glyph-name="rcaron" unicode="&#x159;" horiz-adv-x="600" d="M249 0 C248 38 243 210 243 222 L243 244 C243 336 313 454 368 454 C388 454 392 439 397 347 L510 347 C508 414 507 423 502 449 C487 520 437 563 371 563 C319 563 275 539 229 488 L216 551 L103 551 C106 538 108 523 111 507 C125 442 131 370 131 260 L131 222 C131 207 130 177 129 138 L127 50 C126 30 126 28 125 0 L249 0 Z M300 720 L166 817 L99 744 L300 573 L501 744 L434 817 L300 720 Z " />
<glyph glyph-name="Sacute" unicode="&#x15a;" horiz-adv-x="600" d="M527 626 C452 700 384 732 307 732 C191 732 108 653 108 543 C108 468 148 409 232 359 L313 312 C394 263 413 243 413 199 C413 140 368 97 304 97 C272 97 242 109 212 136 C196 150 196 150 160 200 L70 128 C107 82 107 82 119 69 C173 15 235 -12 311 -12 C442 -12 529 72 529 199 C529 288 493 337 372 408 L298 451 C249 480 224 512 224 547 C224 589 261 623 308 623 C338 623 366 613 399 590 C411 581 419 575 458 543 L527 626 Z M394 989 L194 829 L256 749 L478 895 L394 989 Z " />
<glyph glyph-name="sacute" unicode="&#x15b;" horiz-adv-x="600" d="M504 487 C479 505 469 511 459 517 C410 549 363 563 311 563 C256 563 211 546 178 513 C147 482 130 443 130 403 C130 332 179 275 272 240 L324 220 C372 202 392 182 392 151 C392 116 368 95 329 95 C270 95 230 117 157 189 L90 93 C121 67 131 59 148 47 C206 8 271 -14 328 -14 C432 -14 508 55 508 150 C508 232 460 287 354 327 L313 342 C267 359 246 379 246 402 C246 429 276 454 308 454 C348 454 368 445 450 388 L504 487 Z M387 816 L186 656 L249 575 L470 722 L387 816 Z " />
<glyph glyph-name="Scedilla" unicode="&#x15e;" horiz-adv-x="600" d="M362 -7 C467 13 529 90 529 199 C529 288 493 337 372 408 L298 451 C249 480 224 512 224 547 C224 589 261 623 308 623 C338 623 366 613 399 590 C411 581 419 575 458 543 L527 626 C452 700 384 732 307 732 C191 732 108 653 108 543 C108 468 148 409 232 359 L313 312 C394 263 413 243 413 199 C413 140 368 97 304 97 C272 97 242 109 212 136 C196 150 196 150 160 200 L70 128 C136 42 180 10 256 -7 L230 -72 C307 -78 338 -93 338 -126 C338 -152 318 -169 289 -169 C269 -169 258 -166 209 -145 L198 -140 L169 -211 C249 -245 268 -250 310 -250 C378 -250 431 -198 431 -131 C431 -79 403 -39 354 -23 L362 -7 Z " />
<glyph glyph-name="scedilla" unicode="&#x15f;" horiz-adv-x="600" d="M360 -12 C451 3 508 65 508 149 C508 231 460 286 354 326 L313 342 C268 359 246 379 246 402 C246 429 275 454 308 454 C335 454 365 444 396 425 C405 419 405 419 450 388 L504 487 C477 506 469 511 459 517 C411 548 363 563 311 563 C256 563 211 546 178 513 C147 482 130 443 130 403 C130 332 179 275 272 240 L324 220 C372 202 392 182 392 151 C392 116 368 95 329 95 C270 95 230 117 157 189 L90 93 C149 40 196 13 257 -4 L230 -72 C308 -78 339 -94 339 -126 C339 -152 319 -169 290 -169 C269 -169 260 -166 210 -145 L198 -140 L169 -211 C246 -244 269 -250 310 -250 C379 -250 432 -198 432 -131 C432 -79 403 -39 354 -23 L360 -12 Z " />
<glyph glyph-name="Scaron" unicode="&#x160;" horiz-adv-x="600" d="M527 626 C452 700 384 732 307 732 C191 732 108 653 108 543 C108 468 148 409 232 359 L313 312 C394 263 413 243 413 199 C413 140 368 97 304 97 C272 97 242 109 212 136 C196 150 196 150 160 200 L70 128 C107 82 107 82 119 69 C173 15 235 -12 311 -12 C442 -12 529 72 529 199 C529 288 493 337 372 408 L298 451 C249 480 224 512 224 547 C224 589 261 623 308 623 C338 623 366 613 399 590 C411 581 419 575 458 543 L527 626 Z M307 892 L174 990 L106 917 L307 746 L508 917 L441 990 L307 892 Z " />
<glyph glyph-name="scaron" unicode="&#x161;" horiz-adv-x="600" d="M504 487 C479 505 469 511 459 517 C410 549 363 563 311 563 C256 563 211 546 178 513 C147 482 130 443 130 403 C130 332 179 275 272 240 L324 220 C372 202 392 182 392 151 C392 116 368 95 329 95 C270 95 230 117 157 189 L90 93 C121 67 131 59 148 47 C206 8 271 -14 328 -14 C432 -14 508 55 508 150 C508 232 460 287 354 327 L313 342 C267 359 246 379 246 402 C246 429 276 454 308 454 C348 454 368 445 450 388 L504 487 Z M311 720 L177 817 L110 744 L311 573 L512 744 L444 817 L311 720 Z " />
<glyph glyph-name="Tcommaaccent" unicode="&#x162;" horiz-adv-x="600" d="M363 0 L362 37 C361 53 357 212 357 220 L357 614 L548 614 L548 720 L52 720 L52 614 L245 614 L245 220 C245 199 242 71 239 0 L363 0 Z M300 -40 L182 -233 L273 -287 L411 -100 L300 -40 Z " />
<glyph glyph-name="tcommaaccent" unicode="&#x163;" horiz-adv-x="600" d="M473 440 L473 546 L292 546 L296 651 C297 672 297 673 297 701 L175 701 L176 664 C178 629 179 609 180 546 L70 546 L70 440 L180 440 L180 190 C180 110 187 77 211 43 C237 7 279 -13 330 -13 C414 -13 475 28 522 117 C529 131 537 145 544 158 L431 185 C413 149 413 149 408 142 C388 111 364 96 334 96 C301 96 292 117 292 190 L292 440 L473 440 Z M298 -40 L180 -233 L270 -287 L409 -100 L298 -40 Z " />
<glyph glyph-name="Tcaron" unicode="&#x164;" horiz-adv-x="600" d="M363 0 L362 37 C361 53 357 212 357 220 L357 614 L548 614 L548 720 L52 720 L52 614 L245 614 L245 220 C245 199 242 71 239 0 L363 0 Z M300 892 L166 990 L99 917 L300 746 L501 917 L434 990 L300 892 Z " />
<glyph glyph-name="tcaron" unicode="&#x165;" horiz-adv-x="600" d="M473 440 L473 546 L292 546 L296 651 C297 672 297 673 297 701 L175 701 L176 664 C178 629 179 609 180 546 L70 546 L70 440 L180 440 L180 190 C180 110 187 77 211 43 C237 7 279 -13 330 -13 C414 -13 475 28 522 117 C529 131 537 145 544 158 L431 185 C413 149 413 149 408 142 C388 111 364 96 334 96 C301 96 292 117 292 190 L292 440 L473 440 Z M452 832 L334 639 L425 585 L563 772 L452 832 Z " />
<glyph glyph-name="Umacron" unicode="&#x16a;" horiz-adv-x="600" d="M88 720 L89 683 C90 659 94 518 94 501 L94 252 C94 183 97 157 110 122 C140 42 217 -12 302 -12 C376 -12 450 30 480 90 C502 132 507 163 507 252 L507 501 C507 507 508 540 509 584 C510 635 512 680 513 720 L389 720 C391 657 395 518 395 501 L395 252 C395 222 392 186 389 172 C379 125 346 97 303 97 C267 97 236 117 220 151 C209 174 206 197 206 256 L206 501 C206 510 207 541 208 584 C210 661 210 676 212 720 L88 720 Z M469 805 L469 911 L132 911 L132 805 L469 805 Z " />
<glyph glyph-name="umacron" unicode="&#x16b;" horiz-adv-x="600" d="M519 0 L510 43 C496 110 492 160 492 290 L492 329 C492 355 495 474 498 551 L373 551 C375 493 379 356 379 329 L379 285 C379 240 373 212 358 183 C333 133 289 98 254 98 C236 98 222 111 215 132 C208 152 207 165 207 228 L207 329 C207 351 210 483 213 551 L89 551 C91 517 91 514 95 329 L95 206 C95 160 99 122 106 100 C127 32 185 -11 253 -11 C302 -11 336 4 396 52 L397 49 L400 28 L406 0 L519 0 Z M468 632 L468 738 L131 738 L131 632 L468 632 Z " />
<glyph glyph-name="Uring" unicode="&#x16e;" horiz-adv-x="600" d="M88 720 L89 683 C90 659 94 518 94 501 L94 252 C94 183 97 157 110 122 C140 42 217 -12 302 -12 C376 -12 450 30 480 90 C502 132 507 163 507 252 L507 501 C507 507 508 540 509 584 C510 635 512 680 513 720 L389 720 C391 657 395 518 395 501 L395 252 C395 222 392 186 389 172 C379 125 346 97 303 97 C267 97 236 117 220 151 C209 174 206 197 206 256 L206 501 C206 510 207 541 208 584 C210 661 210 676 212 720 L88 720 Z M302 973 C239 973 189 925 189 864 C189 803 238 754 300 754 C362 754 411 803 411 864 C411 923 361 973 302 973 L302 973 Z M301 894 C317 894 331 880 331 864 C331 847 317 833 300 833 C283 833 269 847 269 863 C269 881 283 894 301 894 L301 894 Z " />
<glyph glyph-name="uring" unicode="&#x16f;" horiz-adv-x="600" d="M519 0 L510 43 C496 110 492 160 492 290 L492 329 C492 355 495 474 498 551 L373 551 C375 493 379 356 379 329 L379 285 C379 240 373 212 358 183 C333 133 289 98 254 98 C236 98 222 111 215 132 C208 152 207 165 207 228 L207 329 C207 351 210 483 213 551 L89 551 C91 517 91 514 95 329 L95 206 C95 160 99 122 106 100 C127 32 185 -11 253 -11 C302 -11 336 4 396 52 L397 49 L400 28 L406 0 L519 0 Z M302 800 C239 800 189 752 189 691 C189 630 238 581 300 581 C362 581 411 630 411 691 C411 750 361 800 302 800 L302 800 Z M301 721 C317 721 331 707 331 691 C331 674 317 660 300 660 C283 660 269 674 269 690 C269 708 283 721 301 721 L301 721 Z " />
<glyph glyph-name="Uhungarumlaut" unicode="&#x170;" horiz-adv-x="600" d="M88 720 L89 683 C90 659 94 518 94 501 L94 252 C94 183 97 157 110 122 C140 42 217 -12 302 -12 C376 -12 450 30 480 90 C502 132 507 163 507 252 L507 501 C507 507 508 540 509 584 C510 635 512 680 513 720 L389 720 C391 657 395 518 395 501 L395 252 C395 222 392 186 389 172 C379 125 346 97 303 97 C267 97 236 117 220 151 C209 174 206 197 206 256 L206 501 C206 510 207 541 208 584 C210 661 210 676 212 720 L88 720 Z M494 999 L313 819 L382 742 L585 912 L494 999 Z M272 999 L92 818 L161 742 L364 911 L272 999 Z " />
<glyph glyph-name="uhungarumlaut" unicode="&#x171;" horiz-adv-x="600" d="M519 0 L510 43 C496 110 492 160 492 290 L492 329 C492 355 495 474 498 551 L373 551 C375 493 379 356 379 329 L379 285 C379 240 373 212 358 183 C333 133 289 98 254 98 C236 98 222 111 215 132 C208 152 207 165 207 228 L207 329 C207 351 210 483 213 551 L89 551 C91 517 91 514 95 329 L95 206 C95 160 99 122 106 100 C127 32 185 -11 253 -11 C302 -11 336 4 396 52 L397 49 L400 28 L406 0 L519 0 Z M493 825 L313 645 L382 568 L585 738 L493 825 Z M272 825 L92 644 L161 568 L363 737 L272 825 Z " />
<glyph glyph-name="Uogonek" unicode="&#x172;" horiz-adv-x="600" d="M389 720 C391 657 395 518 395 501 L395 252 C395 222 392 186 389 172 C379 125 346 97 303 97 C267 97 236 117 220 151 C209 174 206 197 206 256 L206 501 C206 510 207 541 208 584 C210 661 210 676 212 720 L88 720 L89 683 C90 659 94 518 94 501 L94 252 C94 183 97 157 110 122 C140 42 217 -12 302 -12 C325 -12 344 -9 370 0 L363 -3 C321 -23 304 -33 291 -44 C266 -67 253 -95 253 -129 C253 -198 303 -243 378 -243 C418 -243 458 -232 499 -208 L499 -121 C456 -147 431 -156 401 -156 C370 -156 352 -141 352 -117 C352 -88 360 -74 415 -7 C493 89 507 129 507 252 L507 501 C507 507 508 540 509 584 C510 635 512 680 513 720 L389 720 Z " />
<glyph glyph-name="uogonek" unicode="&#x173;" horiz-adv-x="600" d="M397 49 L400 28 L406 2 C313 -17 266 -61 266 -130 C266 -197 316 -243 391 -243 C431 -243 471 -232 512 -208 L512 -121 C468 -147 444 -156 414 -156 C383 -156 365 -142 365 -118 C365 -82 397 -46 449 -22 C469 -13 484 -8 519 0 L510 43 C496 110 492 160 492 290 L492 329 C492 355 495 474 498 551 L373 551 C375 493 379 356 379 329 L379 285 C379 240 373 212 358 183 C333 133 289 98 254 98 C236 98 222 111 215 132 C208 152 207 165 207 228 L207 329 C207 351 210 483 213 551 L89 551 C91 517 91 514 95 329 L95 206 C95 160 99 122 106 100 C127 32 185 -11 253 -11 C302 -11 336 4 396 52 L397 49 Z " />
<glyph glyph-name="Ydieresis" unicode="&#x178;" horiz-adv-x="600" d="M57 720 C139 540 201 401 244 303 L244 220 C244 197 241 78 238 0 L362 0 C361 23 361 30 360 41 C360 46 360 68 359 107 L356 220 L356 303 C433 479 437 489 543 720 L416 720 C361 589 322 497 300 447 C278 498 239 589 184 720 L57 720 Z M188 951 C142 951 104 914 104 868 C104 821 141 784 188 784 C233 784 271 822 271 867 C271 913 234 951 188 951 L188 951 Z M417 951 C371 951 333 914 333 868 C333 821 370 784 417 784 C462 784 500 822 500 867 C500 913 463 951 417 951 L417 951 Z " />
<glyph glyph-name="Zacute" unicode="&#x179;" horiz-adv-x="600" d="M95 720 L95 614 L353 614 C260 419 241 379 188 279 L85 79 L85 0 L515 0 L515 106 L229 106 C343 344 374 407 493 641 L493 720 L95 720 Z M367 989 L167 829 L229 749 L451 895 L367 989 Z " />
<glyph glyph-name="zacute" unicode="&#x17a;" horiz-adv-x="600" d="M118 551 L118 445 L348 445 C168 200 149 174 77 83 L77 0 L517 0 L517 106 L237 106 C313 212 328 233 396 322 C465 414 502 463 506 469 L506 551 L118 551 Z M378 816 L178 656 L240 575 L462 722 L378 816 Z " />
<glyph glyph-name="Zdotaccent" unicode="&#x17b;" horiz-adv-x="600" d="M95 720 L95 614 L353 614 C260 419 241 379 188 279 L85 79 L85 0 L515 0 L515 106 L229 106 C343 344 374 407 493 641 L493 720 L95 720 Z M301 953 C255 953 217 916 217 870 C217 823 254 786 301 786 C346 786 384 824 384 869 C384 915 347 953 301 953 L301 953 Z " />
<glyph glyph-name="zdotaccent" unicode="&#x17c;" horiz-adv-x="600" d="M118 551 L118 445 L348 445 C168 200 149 174 77 83 L77 0 L517 0 L517 106 L237 106 C313 212 328 233 396 322 C465 414 502 463 506 469 L506 551 L118 551 Z M314 777 C268 777 230 740 230 694 C230 647 267 610 314 610 C359 610 397 648 397 693 C397 739 360 777 314 777 L314 777 Z " />
<glyph glyph-name="Zcaron" unicode="&#x17d;" horiz-adv-x="600" d="M95 720 L95 614 L353 614 C260 419 241 379 188 279 L85 79 L85 0 L515 0 L515 106 L229 106 C343 344 374 407 493 641 L493 720 L95 720 Z M300 892 L166 990 L99 917 L300 746 L501 917 L434 990 L300 892 Z " />
<glyph glyph-name="zcaron" unicode="&#x17e;" horiz-adv-x="600" d="M118 551 L118 445 L348 445 C168 200 149 174 77 83 L77 0 L517 0 L517 106 L237 106 C313 212 328 233 396 322 C465 414 502 463 506 469 L506 551 L118 551 Z M311 720 L177 817 L110 744 L311 573 L512 744 L444 817 L311 720 Z " />
<glyph glyph-name="florin" unicode="&#x192;" horiz-adv-x="600" d="M381 515 L386 552 C392 598 398 619 408 628 C420 639 433 643 457 643 L529 643 L529 749 L463 749 C412 749 374 737 341 712 C304 682 287 645 276 566 L270 515 L147 515 L147 416 L256 416 L212 78 C206 31 199 8 189 0 C180 -8 159 -14 140 -14 L70 -14 L70 -119 L134 -119 C182 -119 225 -106 255 -83 C294 -53 310 -17 321 63 L368 416 L490 416 L490 515 L381 515 Z " />
<glyph glyph-name="Scommaaccent" unicode="&#x218;" horiz-adv-x="600" d="M527 626 C452 700 384 732 307 732 C191 732 108 653 108 543 C108 468 148 409 232 359 L313 312 C394 263 413 243 413 199 C413 140 368 97 304 97 C272 97 242 109 212 136 C196 150 196 150 160 200 L70 128 C107 82 107 82 119 69 C173 15 235 -12 311 -12 C442 -12 529 72 529 199 C529 288 493 337 372 408 L298 451 C249 480 224 512 224 547 C224 589 261 623 308 623 C338 623 366 613 399 590 C411 581 419 575 458 543 L527 626 Z M298 -40 L180 -233 L270 -287 L409 -100 L298 -40 Z " />
<glyph glyph-name="scommaaccent" unicode="&#x219;" horiz-adv-x="600" d="M504 487 C479 505 469 511 459 517 C410 549 363 563 311 563 C256 563 211 546 178 513 C147 482 130 443 130 403 C130 332 179 275 272 240 L324 220 C372 202 392 182 392 151 C392 116 368 95 329 95 C270 95 230 117 157 189 L90 93 C121 67 131 59 148 47 C206 8 271 -14 328 -14 C432 -14 508 55 508 150 C508 232 460 287 354 327 L313 342 C267 359 246 379 246 402 C246 429 276 454 308 454 C348 454 368 445 450 388 L504 487 Z M298 -40 L180 -233 L271 -287 L409 -100 L298 -40 Z " />
<glyph glyph-name="circumflex" unicode="&#x2c6;" horiz-adv-x="600" d="M300 670 L434 573 L501 646 L300 817 L99 646 L166 573 L300 670 Z " />
<glyph glyph-name="caron" unicode="&#x2c7;" horiz-adv-x="600" d="M300 720 L166 817 L99 744 L300 573 L501 744 L434 817 L300 720 Z " />
<glyph glyph-name="breve" unicode="&#x2d8;" horiz-adv-x="600" d="M104 779 C107 724 111 708 124 681 C152 626 210 599 300 599 C382 599 437 623 469 671 C485 696 491 719 497 779 L389 779 L384 755 C376 718 359 708 300 708 C266 708 240 715 228 726 C222 731 220 738 216 755 L211 779 L104 779 Z " />
<glyph glyph-name="dotaccent" unicode="&#x2d9;" horiz-adv-x="600" d="M301 777 C255 777 217 740 217 694 C217 647 254 610 301 610 C346 610 384 648 384 693 C384 739 347 777 301 777 L301 777 Z " />
<glyph glyph-name="ring" unicode="&#x2da;" horiz-adv-x="600" d="M302 800 C239 800 189 752 189 691 C189 630 238 581 300 581 C362 581 411 630 411 691 C411 750 361 800 302 800 L302 800 Z M301 721 C317 721 331 707 331 691 C331 674 317 660 300 660 C283 660 269 674 269 690 C269 708 283 721 301 721 L301 721 Z " />
<glyph glyph-name="ogonek" unicode="&#x2db;" horiz-adv-x="600" d="M381 0 C304 -11 252 -63 252 -130 C252 -197 302 -243 377 -243 C417 -243 457 -232 498 -208 L498 -121 C454 -147 430 -156 400 -156 C369 -156 351 -142 351 -118 C351 -66 408 -22 505 0 L381 0 Z " />
<glyph glyph-name="tilde" unicode="&#x2dc;" horiz-adv-x="600" d="M420 774 C394 720 392 718 377 718 C369 718 359 722 340 733 L316 747 C276 770 260 775 232 775 C189 775 155 756 127 717 C116 700 116 700 83 633 L184 598 C213 660 217 666 235 666 C244 666 250 664 270 652 L301 633 C328 617 354 609 382 609 C422 609 454 626 479 660 C491 676 497 689 518 736 L420 774 Z " />
<glyph glyph-name="hungarumlaut" unicode="&#x2dd;" horiz-adv-x="600" d="M456 825 L275 645 L344 568 L547 738 L456 825 Z M234 825 L54 644 L123 568 L326 737 L234 825 Z " />
<glyph glyph-name="endash" unicode="&#x2013;" horiz-adv-x="600" d="M496 310 L496 409 L104 409 L104 310 L496 310 Z " />
<glyph glyph-name="emdash" unicode="&#x2014;" horiz-adv-x="600" d="M603 305 L603 411 L-4 411 L-4 305 L603 305 Z " />
<glyph glyph-name="quoteleft" unicode="&#x2018;" horiz-adv-x="600" d="M390 739 C272 721 194 652 194 565 C194 504 239 457 296 457 C348 457 392 499 392 549 C392 582 373 605 335 619 C350 630 366 636 390 637 L390 739 Z " />
<glyph glyph-name="quoteright" unicode="&#x2019;" horiz-adv-x="600" d="M210 450 C328 468 406 537 406 624 C406 685 361 732 304 732 C252 732 208 690 208 640 C208 607 227 584 265 570 C250 558 234 553 210 552 L210 450 Z " />
<glyph glyph-name="quotesinglbase" unicode="&#x201a;" horiz-adv-x="600" d="M210 -96 C328 -78 406 -9 406 78 C406 139 361 186 304 186 C252 186 208 144 208 94 C208 61 227 38 265 24 C250 12 234 7 210 6 L210 -96 Z " />
<glyph glyph-name="quotedblleft" unicode="&#x201c;" horiz-adv-x="600" d="M507 739 C389 721 311 652 311 565 C311 504 356 457 413 457 C465 457 509 499 509 549 C509 582 490 605 452 619 C467 630 483 636 507 637 L507 739 Z M275 739 C157 721 79 652 79 565 C79 504 124 457 181 457 C233 457 277 499 277 549 C277 582 258 605 220 619 C235 630 251 636 275 637 L275 739 Z " />
<glyph glyph-name="quotedblright" unicode="&#x201d;" horiz-adv-x="600" d="M94 450 C212 468 290 537 290 624 C290 685 245 732 188 732 C136 732 92 690 92 640 C92 607 111 584 149 570 C134 558 118 553 94 552 L94 450 Z M326 450 C444 468 522 537 522 624 C522 685 477 732 420 732 C368 732 324 690 324 640 C324 607 343 584 381 570 C366 558 350 553 326 552 L326 450 Z " />
<glyph glyph-name="quotedblbase" unicode="&#x201e;" horiz-adv-x="600" d="M94 -96 C212 -78 290 -9 290 78 C290 139 245 186 188 186 C136 186 92 144 92 94 C92 61 111 38 149 24 C134 12 118 7 94 6 L94 -96 Z M326 -96 C444 -78 522 -9 522 78 C522 139 477 186 420 186 C368 186 324 144 324 94 C324 61 343 38 381 24 C366 12 350 7 326 6 L326 -96 Z " />
<glyph glyph-name="dagger" unicode="&#x2020;" horiz-adv-x="600" d="M114 542 L114 425 L241 431 L236 388 L249 0 L351 0 L364 388 L359 431 L486 425 L486 542 L357 536 L364 722 L236 722 L243 536 L114 542 Z " />
<glyph glyph-name="daggerdbl" unicode="&#x2021;" horiz-adv-x="600" d="M363 722 L237 722 L244 551 L115 558 L115 441 L247 448 L247 275 L115 281 L115 164 L244 170 L237 0 L363 0 L356 170 L486 164 L486 281 L353 275 L353 448 L486 441 L486 558 L356 551 L363 722 Z " />
<glyph glyph-name="bullet" unicode="&#x2022;" horiz-adv-x="600" d="M302 399 C245 399 200 355 200 300 C200 244 244 199 300 199 C355 199 400 244 400 299 C400 353 355 399 302 399 L302 399 Z " />
<glyph glyph-name="ellipsis" unicode="&#x2026;" horiz-adv-x="600" d="M301 186 C261 186 231 144 231 87 C231 31 261 -12 301 -12 C339 -12 369 32 369 87 C369 141 339 186 301 186 L301 186 Z M501 186 C461 186 431 144 431 87 C431 31 461 -12 501 -12 C539 -12 569 32 569 87 C569 141 539 186 501 186 L501 186 Z M101 186 C61 186 31 144 31 87 C31 31 61 -12 101 -12 C139 -12 169 32 169 87 C169 141 139 186 101 186 L101 186 Z " />
<glyph glyph-name="perthousand" unicode="&#x2030;" horiz-adv-x="600" d="M-18 -12 L55 -12 L177 230 C181 277 201 316 232 339 L432 732 L357 732 L243 506 C239 464 220 427 192 405 L-18 -12 Z M394 285 C370 329 341 349 301 349 C271 349 241 334 221 309 C197 280 188 241 188 172 C188 109 195 73 213 44 C233 13 267 -6 302 -6 C341 -6 372 16 394 59 C415 17 447 -6 486 -6 C517 -6 547 9 567 34 C591 64 600 102 600 171 C600 235 593 269 574 299 C555 330 521 349 486 349 C447 349 415 327 394 285 L394 285 Z M305 253 C319 253 325 228 325 172 C325 115 319 90 305 90 C291 90 285 115 285 172 C285 229 291 253 305 253 L305 253 Z M484 253 C497 253 503 227 503 172 C503 115 497 90 484 90 C470 90 464 115 464 172 C464 228 470 253 484 253 L484 253 Z M118 746 C84 746 54 732 33 706 C10 678 0 638 0 570 C0 507 7 471 25 442 C46 411 79 392 117 392 C150 392 180 406 200 432 C224 461 233 499 233 568 C233 632 226 667 208 696 C188 727 154 746 118 746 L118 746 Z M117 650 C130 650 136 625 136 570 C136 513 130 488 117 488 C103 488 97 513 97 569 C97 626 103 650 117 650 L117 650 Z " />
<glyph glyph-name="guilsinglleft" unicode="&#x2039;" horiz-adv-x="600" d="M393 634 L89 363 L393 89 L468 163 L245 363 L468 561 L393 634 Z " />
<glyph glyph-name="guilsinglright" unicode="&#x203a;" horiz-adv-x="600" d="M207 634 L132 561 L356 363 L132 163 L207 89 L512 363 L207 634 Z " />
<glyph glyph-name="fraction" unicode="&#x2044;" horiz-adv-x="600" d="M431 734 L92 -12 L173 -12 L514 734 L431 734 Z " />
<glyph glyph-name="Euro" unicode="&#x20ac;" horiz-adv-x="600" d="M77 327 L33 327 L11 247 L83 247 C93 175 103 140 126 98 C166 24 228 -12 315 -12 C398 -12 466 24 496 84 C513 120 517 137 526 212 L411 212 C407 167 406 158 399 143 C386 115 354 97 316 97 C250 97 217 139 200 247 L374 247 L398 327 L193 327 L193 352 L193 373 L411 373 L435 453 L198 453 C209 565 251 623 322 623 C353 623 379 609 390 587 C395 575 396 569 399 526 L515 526 C510 575 508 589 502 608 C478 684 408 732 320 732 C235 732 162 688 125 613 C101 565 91 527 82 453 L32 453 L10 373 L77 373 L77 352 L77 327 Z " />
<glyph glyph-name="trademark" unicode="&#x2122;" horiz-adv-x="600" d="M359 722 L15 722 L15 623 L117 623 L117 403 C117 401 117 382 116 350 C115 319 114 290 113 264 L214 264 C212 310 210 391 210 403 L210 623 L274 623 L274 403 L273 350 C272 320 271 291 270 264 L371 264 L370 287 L370 295 L367 403 L367 460 L427 331 L485 460 L485 403 C483 332 482 286 481 264 L582 264 C580 306 578 391 578 403 L578 722 L494 722 L427 566 L359 722 Z " />
<glyph glyph-name="partialdiff" unicode="&#x2202;" horiz-adv-x="600" d="M53 629 C178 626 181 626 219 618 C288 601 330 574 386 509 C348 521 327 524 294 524 C133 524 20 415 20 258 C20 99 133 -12 296 -12 C468 -12 580 106 580 288 C580 408 532 527 448 614 C367 699 276 734 136 734 C123 734 93 733 46 732 L53 629 Z M293 415 C385 415 458 344 458 254 C458 213 440 166 415 141 C387 113 344 97 297 97 C202 97 142 159 142 256 C142 352 202 415 293 415 L293 415 Z " />
<glyph glyph-name="Delta" unicode="&#x2206;" horiz-adv-x="600" d="M571 0 L367 722 L234 722 L30 0 L571 0 Z M300 529 L414 106 L186 106 L300 529 Z " />
<glyph glyph-name="summation" unicode="&#x2211;" horiz-adv-x="600" d="M584 821 L23 821 L23 727 L253 380 L23 -4 L23 -99 L593 -99 L593 170 L487 170 L480 7 L155 7 L386 380 L164 715 L467 715 L480 553 L584 553 L584 821 Z " />
<glyph glyph-name="minus" unicode="&#x2212;" horiz-adv-x="600" d="M595 413 L5 413 L5 307 L595 307 L595 413 Z " />
<glyph glyph-name="radical" unicode="&#x221a;" horiz-adv-x="600" d="M2 454 L2 348 L98 348 L225 -44 L492 804 L598 804 L598 910 L415 910 L228 288 L178 454 L2 454 Z " />
<glyph glyph-name="notequal" unicode="&#x2260;" horiz-adv-x="600" d="M445 516 L486 591 L394 640 L327 516 L5 516 L5 410 L271 410 L216 311 L5 311 L5 205 L160 205 L114 120 L206 71 L278 205 L595 205 L595 311 L334 311 L389 410 L595 410 L595 516 L445 516 Z " />
<glyph glyph-name="lessequal" unicode="&#x2264;" horiz-adv-x="600" d="M69 0 L525 0 L525 103 L69 103 L69 0 Z M46 420 L481 105 L549 184 L222 420 L549 655 L481 734 L46 420 Z " />
<glyph glyph-name="greaterequal" unicode="&#x2265;" horiz-adv-x="600" d="M529 0 L529 103 L73 103 L73 0 L529 0 Z M554 420 L119 734 L51 655 L377 420 L51 184 L119 105 L554 420 Z " />
<glyph glyph-name="lozenge" unicode="&#x25ca;" horiz-adv-x="600" d="M298 735 L30 361 L298 -14 L570 361 L298 735 Z M298 665 L514 361 L298 59 L85 361 L298 665 Z " />
<glyph glyph-name="commaaccent" unicode="&#xf6c3;" horiz-adv-x="600" d="M298 -40 L180 -233 L270 -287 L409 -100 L298 -40 Z " />
<glyph glyph-name="fi" unicode="&#xfb01;" horiz-adv-x="600" d="M524 0 L523 37 C522 53 518 212 518 219 L518 547 L261 547 C262 578 265 591 273 602 C282 615 303 624 324 624 C359 624 369 620 508 559 L508 689 C406 724 370 733 325 733 C270 733 214 706 182 665 C158 633 149 602 149 547 L56 547 L56 441 L149 441 L149 219 C149 204 145 60 143 0 L267 0 C263 106 261 204 261 219 L261 441 L406 441 L406 219 C403 99 401 26 400 0 L524 0 Z " />
<glyph glyph-name="fl" unicode="&#xfb02;" horiz-adv-x="600" d="M263 0 L262 37 C260 65 257 194 257 218 L257 441 L393 441 L393 547 L257 547 C259 578 262 590 270 602 C279 615 300 624 321 624 C343 624 369 616 409 598 L410 569 L411 512 L411 218 C411 196 407 56 405 0 L530 0 C526 90 523 188 523 218 L523 512 C523 575 525 628 530 672 C413 720 368 733 325 733 C266 733 211 707 179 665 C155 634 147 605 145 547 L52 547 L52 441 L145 441 L145 218 C145 208 144 177 143 135 C142 88 141 43 139 0 L263 0 Z " />
</font>
</svg>
