<?xml version="1.0" encoding="UTF-8"?>
<svg xmlns="http://www.w3.org/2000/svg" xmlns:xlink="http://www.w3.org/1999/xlink" version="1.2" >
<font id="MHE LetterGotLOTBol Italic">
<font-face  font-family="MHE LetterGotLOTBol" units-per-em="1000" ascent="733" descent="-287" font-style="italic" font-weight="700" font-stretch="normal" slope="-12" cap-height="720" x-height="551" underline-position="-30" underline-thickness="106" />
<missing-glyph  horiz-adv-x="600" d="" />
<glyph glyph-name="NULL" d="" />
<glyph glyph-name="CR" unicode="&#xd;" horiz-adv-x="600" d="" />
<glyph glyph-name="space" unicode="&#x20;" horiz-adv-x="600" d="" />
<glyph glyph-name="exclam" unicode="&#x21;" horiz-adv-x="600" d="M323 720 L232 225 L339 225 L463 720 L323 720 Z M283 186 C220 186 160 128 160 67 C160 21 194 -12 240 -12 C302 -12 362 46 362 106 C362 153 330 186 283 186 L283 186 Z " />
<glyph glyph-name="quotedbl" unicode="&#x22;" horiz-adv-x="600" d="M398 722 L239 739 L124 435 L246 420 L398 722 Z M608 722 L449 739 L334 435 L456 420 L608 722 Z " />
<glyph glyph-name="numbersign" unicode="&#x23;" horiz-adv-x="600" d="M352 800 L231 506 L98 506 L55 400 L189 400 L155 317 L24 317 L-22 218 L114 218 L-12 -88 L101 -88 L464 800 L352 800 Z M279 -88 L405 218 L537 218 L581 317 L446 317 L480 400 L611 400 L657 506 L522 506 L642 800 L529 800 L166 -88 L279 -88 Z " />
<glyph glyph-name="dollar" unicode="&#x24;" horiz-adv-x="600" d="M337 725 C227 696 152 606 152 503 C152 448 182 399 241 359 L312 312 C373 270 390 250 390 220 C390 154 329 97 258 97 C225 97 198 109 173 136 C160 150 160 150 136 200 L30 128 C77 43 112 13 182 -6 L163 -95 L275 -95 L293 -8 C327 -1 348 6 373 20 C454 64 509 156 509 247 C509 308 480 348 391 408 L327 451 C290 476 271 503 271 532 C271 580 320 623 375 623 C404 623 430 612 457 590 C468 580 479 569 506 543 L593 626 C554 677 504 712 449 726 L467 811 L355 811 L337 725 Z " />
<glyph glyph-name="percent" unicode="&#x25;" horiz-adv-x="600" d="M260 746 C205 746 156 717 126 668 C103 630 82 546 82 493 C82 432 122 392 183 392 C237 392 286 421 316 470 C339 507 361 593 361 645 C361 706 321 746 260 746 L260 746 Z M239 650 C248 650 253 642 253 628 C253 602 245 557 234 525 C225 499 216 488 204 488 C195 488 190 496 190 510 C190 536 199 581 209 613 C219 639 227 650 239 650 L239 650 Z M519 732 L-14 -12 L106 -12 L641 732 L519 732 Z M458 349 C404 349 354 320 325 271 C301 232 280 148 280 94 C280 34 321 -6 381 -6 C435 -6 484 23 514 72 C537 109 559 196 559 248 C559 309 519 349 458 349 L458 349 Z M437 253 C446 253 451 245 451 231 C451 205 442 159 431 127 C422 101 414 90 402 90 C393 90 388 98 388 112 C388 138 396 183 408 215 C417 242 425 253 437 253 L437 253 Z " />
<glyph glyph-name="ampersand" unicode="&#x26;" horiz-adv-x="600" d="M400 391 C397 377 394 364 391 351 C389 339 387 334 383 316 L373 278 C346 339 342 348 331 385 C428 477 463 540 463 618 C463 685 418 732 356 732 C321 732 282 716 248 688 C199 648 166 577 166 512 C166 476 173 442 192 393 C136 340 113 315 86 276 C52 226 33 169 33 119 C33 39 91 -12 183 -12 C240 -12 279 2 351 51 C359 38 368 25 377 12 C381 8 384 3 387 -1 L407 -28 L504 54 C469 99 467 102 434 151 C469 215 495 291 518 391 L400 391 Z M288 487 C285 506 284 517 284 527 C284 572 308 623 330 623 C339 623 345 611 345 596 C345 562 332 537 288 487 L288 487 Z M234 292 C241 276 248 261 254 244 L284 181 C291 166 297 152 304 138 C262 107 238 97 209 97 C174 97 152 115 152 144 C152 183 180 238 220 277 L234 292 Z " />
<glyph glyph-name="quotesingle" unicode="&#x27;" horiz-adv-x="600" d="M488 720 L349 740 L242 435 L350 420 L488 720 Z " />
<glyph glyph-name="parenleft" unicode="&#x28;" horiz-adv-x="600" d="M384 24 C362 45 355 52 350 58 C305 105 283 165 283 245 C283 372 332 510 408 594 C438 627 455 641 525 689 L482 771 C405 725 375 702 331 655 C229 545 166 385 166 237 C166 128 201 37 265 -24 C274 -32 284 -40 306 -58 L384 24 Z " />
<glyph glyph-name="parenright" unicode="&#x29;" horiz-adv-x="600" d="M152 -58 C247 1 258 9 303 59 C406 170 469 328 469 476 C469 586 433 679 369 738 C363 742 363 742 328 771 L249 689 C268 672 275 665 284 656 C331 605 352 549 352 468 C352 374 326 276 278 193 C242 130 206 91 139 46 C129 38 118 31 108 24 L152 -58 Z " />
<glyph glyph-name="asterisk" unicode="&#x2a;" horiz-adv-x="600" d="M339 725 L304 559 L153 606 L98 500 L250 454 L122 327 L195 260 L324 389 L401 260 L501 327 L426 454 L598 500 L586 606 L416 559 L451 725 L339 725 Z " />
<glyph glyph-name="plus" unicode="&#x2b;" horiz-adv-x="600" d="M431 639 L325 639 L277 413 L35 413 L12 307 L254 307 L206 83 L312 83 L360 307 L602 307 L625 413 L383 413 L431 639 Z " />
<glyph glyph-name="comma" unicode="&#x2c;" horiz-adv-x="600" d="M131 -96 C267 -76 367 9 367 104 C367 151 333 186 286 186 C227 186 168 133 168 78 C168 53 182 36 212 24 C194 12 177 7 153 6 L131 -96 Z " />
<glyph glyph-name="hyphen" unicode="&#x2d;" horiz-adv-x="600" d="M451 305 L474 411 L185 411 L162 305 L451 305 Z " />
<glyph glyph-name="period" unicode="&#x2e;" horiz-adv-x="600" d="M283 186 C220 186 160 128 160 67 C160 21 194 -12 240 -12 C302 -12 362 46 362 106 C362 153 330 186 283 186 L283 186 Z " />
<glyph glyph-name="slash" unicode="&#x2f;" horiz-adv-x="600" d="M225 -24 L526 744 L411 744 L109 -24 L225 -24 Z " />
<glyph glyph-name="zero" unicode="0" horiz-adv-x="600" d="M398 732 C308 732 225 675 172 578 C126 494 77 287 77 179 C77 61 138 -12 237 -12 C331 -12 412 42 465 141 C510 225 559 432 559 540 C559 659 498 732 398 732 L398 732 Z M375 623 C416 623 441 583 441 517 C441 480 435 432 420 365 C398 260 380 205 353 161 C330 123 293 97 263 97 C221 97 196 137 196 202 C196 238 203 290 218 358 C239 459 257 514 285 559 C307 598 344 623 375 623 L375 623 Z " />
<glyph glyph-name="one" unicode="1" horiz-adv-x="600" d="M485 757 L221 681 L197 568 L341 609 L235 106 L106 106 L83 0 L447 0 L470 106 L347 106 L485 757 Z " />
<glyph glyph-name="two" unicode="2" horiz-adv-x="600" d="M476 106 L173 106 C191 159 221 195 292 252 C395 330 451 373 460 380 C531 438 573 515 573 590 C573 680 516 732 417 732 C327 732 249 690 198 614 C173 578 170 569 143 486 L260 486 C272 533 278 548 294 571 C317 605 350 623 391 623 C432 623 455 603 455 566 C455 548 448 526 438 509 C412 467 410 465 284 372 C116 248 73 192 41 56 L37 35 C35 22 33 10 30 0 L453 0 L476 106 Z " />
<glyph glyph-name="three" unicode="3" horiz-adv-x="600" d="M224 522 C231 532 239 542 248 553 C280 596 327 623 370 623 C414 623 445 594 445 553 C445 516 420 478 379 456 C348 439 348 439 274 437 L251 329 L272 329 C367 329 406 303 406 240 C406 156 346 97 262 97 C206 97 177 119 162 174 C159 185 155 196 152 208 L36 148 C58 98 58 98 64 87 C100 21 158 -12 239 -12 C397 -12 525 110 525 262 C525 319 503 361 459 392 C525 438 563 504 563 575 C563 666 494 732 398 732 C309 732 227 689 162 609 C154 599 145 588 136 578 L224 522 Z " />
<glyph glyph-name="four" unicode="4" horiz-adv-x="600" d="M544 732 L420 732 L57 250 L41 174 L313 174 L276 0 L388 0 L425 174 L522 174 L545 280 L448 280 L544 732 Z M336 280 L205 280 L387 524 L336 280 Z " />
<glyph glyph-name="five" unicode="5" horiz-adv-x="600" d="M570 720 L226 720 L106 305 L207 284 C232 313 232 313 237 318 C267 346 295 360 324 360 C368 360 395 326 395 271 C395 176 334 97 262 97 C233 97 205 112 187 137 C178 150 173 161 159 197 L52 130 C75 84 86 66 105 44 C137 7 181 -12 234 -12 C388 -12 515 127 515 297 C515 402 450 469 347 469 C313 469 293 464 257 445 L307 614 L548 614 L570 720 Z " />
<glyph glyph-name="six" unicode="6" horiz-adv-x="600" d="M604 676 C569 699 569 699 567 700 C535 720 493 732 455 732 C369 732 275 676 206 585 C127 479 73 314 73 177 C73 58 134 -12 237 -12 C387 -12 516 134 516 306 C516 410 456 476 362 476 C322 476 293 468 244 444 C285 548 365 623 433 623 C459 623 469 618 526 578 L604 676 Z M331 367 C374 367 399 338 399 287 C399 186 333 97 259 97 C214 97 188 130 188 187 C188 277 259 367 331 367 L331 367 Z " />
<glyph glyph-name="seven" unicode="7" horiz-adv-x="600" d="M180 720 L158 614 L434 614 L55 0 L179 0 L616 720 L180 720 Z " />
<glyph glyph-name="eight" unicode="8" horiz-adv-x="600" d="M476 376 C547 438 577 497 577 575 C577 672 510 732 401 732 C254 732 136 620 136 480 C136 441 146 414 173 376 C87 324 44 249 44 153 C44 105 57 71 83 44 C119 8 178 -12 246 -12 C334 -12 411 21 466 82 C509 130 534 192 534 249 C534 305 515 345 476 376 L476 376 Z M315 319 C379 319 417 288 417 236 C417 155 354 97 266 97 C200 97 163 127 163 180 C163 262 225 319 315 319 L315 319 Z M378 623 C431 623 459 598 459 552 C459 479 408 427 335 427 C283 427 253 452 253 496 C253 525 265 558 284 582 C307 610 336 623 378 623 L378 623 Z " />
<glyph glyph-name="nine" unicode="9" horiz-adv-x="600" d="M35 44 C68 22 68 22 72 20 C105 0 146 -12 183 -12 C269 -12 363 44 432 135 C512 241 566 406 566 543 C566 661 505 732 402 732 C253 732 122 583 122 413 C122 310 183 244 279 244 C319 244 347 252 395 276 C354 174 274 97 208 97 C180 97 163 105 114 143 L35 44 Z M380 623 C425 623 450 590 450 533 C450 440 381 353 306 353 C265 353 240 383 240 433 C240 536 304 623 380 623 L380 623 Z " />
<glyph glyph-name="colon" unicode="&#x3a;" horiz-adv-x="600" d="M283 186 C220 186 160 128 160 67 C160 21 194 -12 240 -12 C302 -12 362 46 362 106 C362 153 330 186 283 186 L283 186 Z M350 500 C287 500 227 442 227 381 C227 335 261 302 307 302 C369 302 429 360 429 420 C429 467 397 500 350 500 L350 500 Z " />
<glyph glyph-name="semicolon" unicode="&#x3b;" horiz-adv-x="600" d="M355 500 C291 500 232 442 232 381 C232 335 266 302 312 302 C374 302 434 360 434 420 C434 467 402 500 355 500 L355 500 Z M131 -96 C267 -76 367 9 367 104 C367 151 333 186 286 186 C227 186 168 133 168 78 C168 53 182 36 212 24 C194 12 177 7 153 6 L131 -96 Z " />
<glyph glyph-name="less" unicode="&#x3c;" horiz-adv-x="600" d="M237 328 L598 608 L547 682 L92 328 L397 -25 L479 49 L237 328 Z " />
<glyph glyph-name="equal" unicode="&#x3d;" horiz-adv-x="600" d="M603 311 L13 311 L-10 205 L580 205 L603 311 Z M646 516 L56 516 L34 410 L624 410 L646 516 Z " />
<glyph glyph-name="greater" unicode="&#x3e;" horiz-adv-x="600" d="M395 328 L34 49 L84 -25 L540 328 L235 682 L153 608 L395 328 Z " />
<glyph glyph-name="question" unicode="&#x3f;" horiz-adv-x="600" d="M344 223 L361 303 C369 338 371 343 395 360 C469 410 471 411 491 433 C529 473 552 531 552 588 C552 679 494 732 396 732 C316 732 244 693 198 626 C178 596 178 596 157 522 L278 522 C289 564 295 578 306 593 C320 611 346 623 372 623 C411 623 433 601 433 563 C433 522 417 497 373 469 C287 412 268 390 256 336 L232 223 L344 223 Z M279 186 C215 186 156 129 156 67 C156 21 190 -12 236 -12 C298 -12 358 46 358 106 C358 153 326 186 279 186 L279 186 Z " />
<glyph glyph-name="at" unicode="&#x40;" horiz-adv-x="600" d="M513 177 C497 169 497 169 470 155 C390 114 323 96 254 96 C196 96 142 119 118 155 C105 174 99 198 99 231 C99 305 126 396 169 468 C232 572 319 631 411 631 C497 631 562 567 562 485 C562 381 503 273 447 273 C440 273 433 278 433 284 C433 291 438 310 447 333 L521 520 C499 521 457 522 450 522 C347 522 276 495 225 437 C175 379 139 303 139 254 C139 204 178 166 230 166 C269 166 300 177 341 203 C361 181 389 170 424 170 C554 170 671 331 671 509 C671 640 571 734 432 734 C311 734 196 672 109 561 C30 459 -19 327 -19 215 C-19 161 -6 117 21 80 C63 22 138 -12 223 -12 C325 -12 409 12 535 78 L513 177 Z M359 388 C339 337 324 312 302 291 C288 278 273 269 265 269 C260 269 258 272 258 278 C258 298 281 344 309 378 C327 400 337 406 368 411 L359 388 Z " />
<glyph glyph-name="A" unicode="A" horiz-adv-x="600" d="M378 176 L388 0 L512 0 L458 720 L331 720 L-29 0 L94 0 L179 176 L378 176 Z M371 282 L232 282 L354 530 L371 282 Z " />
<glyph glyph-name="B" unicode="B" horiz-adv-x="600" d="M189 720 C180 669 166 596 148 500 L88 219 C67 130 50 57 36 0 L238 0 C309 0 351 11 399 43 C472 91 516 173 516 258 C516 310 496 348 450 381 C515 425 553 496 553 572 C553 626 533 666 495 692 C463 713 425 720 338 720 L189 720 Z M244 425 L284 614 L332 614 C408 614 435 598 435 552 C435 479 372 425 286 425 L244 425 Z M176 106 L222 320 L281 320 C359 320 397 291 397 232 C397 194 381 159 354 135 C328 114 302 106 253 106 L176 106 Z " />
<glyph glyph-name="C" unicode="C" horiz-adv-x="600" d="M399 212 C385 167 381 157 371 143 C351 114 317 97 279 97 C222 97 193 135 193 210 C193 327 237 488 289 563 C315 601 355 623 396 623 C435 623 459 604 459 573 C459 565 458 554 453 526 L569 526 C574 562 575 577 575 591 C575 676 512 732 417 732 C333 732 250 687 198 614 C127 513 75 335 75 190 C75 59 138 -12 254 -12 C338 -12 414 24 456 85 C480 119 489 139 513 212 L399 212 Z " />
<glyph glyph-name="D" unicode="D" horiz-adv-x="600" d="M178 720 L169 671 C159 614 148 558 137 501 L77 219 C57 131 39 58 25 0 L202 0 C319 0 397 37 448 117 C510 214 557 391 557 526 C557 597 538 647 499 680 C466 709 425 720 355 720 L178 720 Z M165 106 L273 614 L328 614 C412 614 442 587 442 510 C442 471 436 426 422 360 C403 269 386 220 362 176 C334 127 292 106 220 106 L165 106 Z " />
<glyph glyph-name="E" unicode="E" horiz-adv-x="600" d="M196 720 C194 708 191 696 189 683 C184 657 181 638 155 500 L95 219 L55 49 C50 29 49 28 43 0 L447 0 L469 106 L183 106 L228 315 L431 315 L453 421 L250 421 L291 614 L570 614 L593 720 L196 720 Z " />
<glyph glyph-name="F" unicode="F" horiz-adv-x="600" d="M229 320 L449 320 L471 426 L251 426 L291 614 L581 614 L604 720 L196 720 C187 670 173 597 155 500 L95 219 C76 135 58 62 43 0 L167 0 C177 59 191 132 207 219 L229 320 Z " />
<glyph glyph-name="G" unicode="G" horiz-adv-x="600" d="M419 276 C406 219 395 191 377 163 C348 121 309 97 265 97 C212 97 184 135 184 209 C184 271 204 378 230 460 C266 568 316 623 381 623 C414 623 436 600 436 564 C436 551 436 551 425 499 L547 499 C553 550 554 562 554 581 C554 669 491 732 403 732 C338 732 275 706 224 657 C166 601 127 522 95 389 C73 302 63 235 63 184 C63 61 127 -12 233 -12 C280 -12 324 0 366 25 L360 0 L472 0 L553 382 L281 382 L259 276 L419 276 Z " />
<glyph glyph-name="H" unicode="H" horiz-adv-x="600" d="M239 425 L255 500 C281 608 293 657 308 720 L184 720 C180 696 177 679 175 671 C169 635 150 533 143 500 L84 219 C65 139 47 66 31 0 L155 0 C168 72 181 145 196 219 L217 319 L403 319 L382 219 C361 134 344 61 329 0 L453 0 C462 49 475 122 494 219 L553 500 C571 577 589 650 606 720 L482 720 C468 645 455 571 441 500 L425 425 L239 425 Z " />
<glyph glyph-name="I" unicode="I" horiz-adv-x="600" d="M314 614 L308 584 C303 555 298 527 292 501 L233 219 L206 106 L115 106 L92 0 L391 0 L414 106 L323 106 C336 173 342 203 345 219 L404 501 C410 525 414 542 431 614 L522 614 L544 720 L245 720 L223 614 L314 614 Z " />
<glyph glyph-name="J" unicode="J" horiz-adv-x="600" d="M461 614 C448 543 443 520 440 501 L388 260 C378 209 367 172 358 156 C339 120 300 97 255 97 C211 97 184 121 184 159 C184 166 186 185 187 189 L195 221 C207 265 209 275 227 337 L103 337 C96 289 90 251 84 221 L77 189 C73 168 71 151 71 134 C71 42 132 -12 236 -12 C317 -12 388 21 433 78 C463 115 479 158 499 253 L552 501 C580 619 597 692 604 720 L359 720 L337 614 L461 614 Z " />
<glyph glyph-name="K" unicode="K" horiz-adv-x="600" d="M179 282 L348 0 L502 0 L275 358 C357 410 440 501 570 679 L470 737 C392 596 320 510 210 428 L225 499 C231 527 238 555 245 583 C252 614 259 644 267 675 C271 691 271 695 278 720 L154 720 C147 683 147 683 145 670 L113 499 L53 219 C35 143 18 69 1 0 L125 0 C137 70 151 143 165 219 L179 282 Z " />
<glyph glyph-name="L" unicode="L" horiz-adv-x="600" d="M44 0 L453 0 L475 106 L188 106 C199 173 204 197 208 219 L268 500 L287 584 C299 631 309 676 320 720 L197 720 C188 670 174 597 156 500 L96 219 C90 191 83 163 76 135 L44 0 Z " />
<glyph glyph-name="M" unicode="M" horiz-adv-x="600" d="M129 0 C131 12 133 24 135 37 C144 82 149 112 154 136 C159 165 164 193 170 219 L216 438 L273 149 L453 438 L407 219 L354 0 L478 0 C490 66 503 140 519 219 L625 720 L519 720 L329 414 L270 720 L164 720 L58 219 C38 139 21 66 5 0 L129 0 Z " />
<glyph glyph-name="N" unicode="N" horiz-adv-x="600" d="M475 720 C473 708 471 696 469 683 C466 672 463 659 461 642 C447 567 438 520 434 501 L393 304 L315 720 L197 720 L91 220 C72 141 54 68 38 0 L161 0 C173 61 186 135 203 220 L252 450 L338 -7 L438 -7 L546 501 C567 586 584 660 599 720 L475 720 Z " />
<glyph glyph-name="O" unicode="O" horiz-adv-x="600" d="M399 732 C302 732 217 677 162 579 C113 494 65 290 65 172 C65 64 136 -12 236 -12 C361 -12 463 74 510 220 C544 326 571 468 571 544 C571 657 503 732 399 732 L399 732 Z M375 623 C424 623 452 583 452 513 C452 446 419 285 391 216 C359 139 313 97 261 97 C212 97 184 138 184 207 C184 274 218 436 246 504 C277 582 322 623 375 623 L375 623 Z " />
<glyph glyph-name="P" unicode="P" horiz-adv-x="600" d="M215 264 L233 264 C338 264 393 279 448 321 C512 372 554 464 554 557 C554 618 532 666 493 692 C461 713 427 720 354 720 L194 720 L185 671 C172 602 162 549 153 500 L94 220 C71 125 64 96 41 0 L165 0 L174 50 C185 110 194 159 206 220 L215 264 Z M237 369 L289 614 L323 614 C374 614 388 612 404 605 C425 594 436 570 436 534 C436 477 412 422 374 394 C349 376 321 369 268 369 L237 369 Z " />
<glyph glyph-name="Q" unicode="Q" horiz-adv-x="600" d="M428 74 C459 109 474 132 493 175 C533 261 573 448 573 543 L573 546 C573 658 503 732 398 732 C302 732 216 677 160 579 C113 495 64 289 64 172 C64 63 135 -12 239 -12 C268 -12 291 -8 326 4 L357 -55 L501 -55 L428 74 Z M375 623 C425 623 454 583 454 513 C454 445 421 287 393 216 C362 139 316 97 262 97 C212 97 183 137 183 207 C183 273 217 436 244 504 C276 582 321 623 375 623 L375 623 Z " />
<glyph glyph-name="R" unicode="R" horiz-adv-x="600" d="M212 279 L242 279 L280 279 L382 0 L521 0 L400 304 C497 359 553 453 553 563 C553 621 532 666 493 692 C461 713 427 720 362 720 L188 720 C179 667 165 593 147 499 L88 220 C69 141 51 67 35 0 L159 0 C169 56 182 129 200 220 L212 279 Z M234 384 L283 614 L314 614 C411 614 436 600 436 543 C436 494 413 441 377 411 C356 394 324 384 288 384 L234 384 Z " />
<glyph glyph-name="S" unicode="S" horiz-adv-x="600" d="M602 626 C542 700 482 732 405 732 C273 732 161 627 161 503 C161 448 191 399 250 359 L321 312 C382 270 399 250 399 220 C399 154 338 97 267 97 C221 97 182 124 160 170 L145 200 L39 128 C63 87 66 82 76 70 C117 15 175 -12 250 -12 C399 -12 518 103 518 248 C518 308 488 348 400 408 L336 451 C300 475 280 503 280 531 C280 580 328 623 384 623 C413 623 439 613 466 590 C477 580 486 571 515 543 L602 626 Z " />
<glyph glyph-name="T" unicode="T" horiz-adv-x="600" d="M304 0 C313 47 326 120 345 220 L429 614 L620 614 L643 720 L147 720 L124 614 L317 614 L233 220 C210 122 193 49 181 0 L304 0 Z " />
<glyph glyph-name="U" unicode="U" horiz-adv-x="600" d="M183 720 C180 708 178 696 176 683 C169 647 152 556 142 501 L89 252 C77 196 75 182 75 153 C75 58 144 -12 237 -12 C314 -12 396 29 440 89 C471 130 483 164 502 252 L555 501 C561 525 568 553 574 584 C586 633 597 678 607 720 L484 720 C468 633 454 560 443 501 L390 252 C384 223 373 186 367 171 C347 125 308 97 263 97 C220 97 190 130 190 175 C190 198 192 208 202 256 L254 501 C277 598 294 672 306 720 L183 720 Z " />
<glyph glyph-name="V" unicode="V" horiz-adv-x="600" d="M290 232 L289 720 L165 720 C173 503 174 478 174 269 L173 47 C173 40 173 20 174 -7 L306 -7 C318 22 330 50 342 77 C382 172 419 260 460 356 C506 465 549 560 623 720 L499 720 L290 232 Z " />
<glyph glyph-name="W" unicode="W" horiz-adv-x="600" d="M365 583 L209 286 L219 365 C238 515 241 533 277 720 L152 720 C149 691 146 661 143 630 C137 576 128 505 116 416 C106 341 96 266 86 190 C83 164 74 108 54 -7 L166 -7 L294 248 L314 -7 L426 -7 C452 98 468 157 477 190 C511 303 544 416 576 528 C584 555 600 605 637 720 L512 720 C474 556 464 519 419 365 L395 286 L365 583 Z " />
<glyph glyph-name="X" unicode="X" horiz-adv-x="600" d="M161 720 L191 615 C223 502 225 493 259 362 C174 242 89 121 4 0 L136 0 C211 119 233 153 292 240 C315 151 325 107 346 0 L479 0 C426 184 418 213 379 365 C461 483 544 601 626 720 L495 720 C465 674 430 619 391 557 C376 535 360 512 345 489 C323 578 312 627 294 720 L161 720 Z " />
<glyph glyph-name="Y" unicode="Y" horiz-adv-x="600" d="M151 720 C195 538 228 399 249 303 L232 220 C211 132 194 59 179 0 L303 0 L312 50 C322 107 333 163 344 220 L361 303 C474 476 474 477 637 720 L510 720 C427 588 369 497 336 447 C324 498 305 589 278 720 L151 720 Z " />
<glyph glyph-name="Z" unicode="Z" horiz-adv-x="600" d="M189 720 L167 614 L425 614 C291 420 262 379 188 279 L43 79 L26 0 L456 0 L479 106 L192 106 C356 343 374 368 570 641 L587 720 L189 720 Z " />
<glyph glyph-name="bracketleft" unicode="&#x5b;" horiz-adv-x="600" d="M416 -23 L437 76 L217 76 L338 646 L558 646 L579 745 L247 745 L84 -23 L416 -23 Z " />
<glyph glyph-name="backslash" unicode="&#x5c;" horiz-adv-x="600" d="M338 -25 L454 -25 L298 747 L182 747 L338 -25 Z " />
<glyph glyph-name="bracketright" unicode="&#x5d;" horiz-adv-x="600" d="M55 -23 L387 -23 L550 745 L218 745 L197 646 L417 646 L296 76 L76 76 L55 -23 Z " />
<glyph glyph-name="asciicircum" unicode="&#x5e;" horiz-adv-x="600" d="M452 722 L339 722 L84 329 L229 329 L353 525 L394 329 L539 329 L452 722 Z " />
<glyph glyph-name="underscore" unicode="&#x5f;" horiz-adv-x="600" d="M513 -136 L536 -30 L-64 -30 L-87 -136 L513 -136 Z " />
<glyph glyph-name="grave" unicode="&#x60;" horiz-adv-x="600" d="M357 816 L253 722 L443 575 L523 656 L357 816 Z " />
<glyph glyph-name="a" unicode="a" horiz-adv-x="600" d="M184 411 C197 416 211 421 225 426 C282 448 305 454 333 454 C368 454 389 436 389 406 C389 397 388 387 384 369 C354 380 329 385 304 385 C176 385 67 266 67 126 C67 41 120 -11 208 -11 C249 -11 275 -2 330 31 C330 25 330 25 333 3 L336 -14 L449 0 C442 52 441 59 441 76 C441 104 444 122 456 182 L494 360 C499 384 502 407 502 426 C502 508 445 563 360 563 C309 563 289 558 177 519 L184 411 Z M341 169 C293 116 264 98 229 98 C202 98 185 118 185 150 C185 181 199 220 219 244 C236 264 261 276 288 276 C311 276 327 272 361 259 L341 169 Z " />
<glyph glyph-name="b" unicode="b" horiz-adv-x="600" d="M195 733 C191 711 178 640 155 520 L107 294 C71 124 68 114 10 0 L119 -14 C131 8 131 9 140 25 C177 -3 200 -11 240 -11 C304 -11 377 22 428 73 C492 138 536 256 536 362 C536 481 464 563 359 563 C328 563 304 557 272 542 C301 664 305 678 319 733 L195 733 Z M246 420 C273 444 298 454 326 454 C382 454 418 411 418 345 C418 212 346 98 262 98 C228 98 209 115 191 161 L246 420 Z " />
<glyph glyph-name="c" unicode="c" horiz-adv-x="600" d="M428 187 C399 161 387 150 376 141 C337 109 303 95 268 95 C215 95 178 138 178 202 C178 257 195 324 220 369 C251 423 297 454 348 454 C378 454 404 441 419 417 C426 406 430 395 445 352 L561 419 C536 468 531 478 519 494 C488 537 433 563 374 563 C286 563 200 517 144 441 C92 372 60 271 60 182 C60 62 135 -14 253 -14 C323 -14 390 16 462 79 L491 104 L428 187 Z " />
<glyph glyph-name="d" unicode="d" horiz-adv-x="600" d="M474 733 C469 706 458 642 440 542 C415 557 394 563 365 563 C202 563 63 388 63 182 C63 67 133 -11 237 -11 C277 -11 303 -3 352 25 L357 -14 L471 0 C466 67 466 67 466 84 C466 131 471 161 499 294 L547 520 C576 642 593 713 598 733 L474 733 Z M359 162 C324 116 296 98 261 98 C213 98 181 141 181 204 C181 337 259 454 349 454 C377 454 397 443 414 420 L359 162 Z " />
<glyph glyph-name="e" unicode="e" horiz-adv-x="600" d="M515 233 C532 307 536 337 536 378 C536 489 468 563 367 563 C200 563 60 391 60 185 C60 59 126 -14 240 -14 C294 -14 350 -2 416 22 C419 23 441 32 483 48 L455 157 C399 129 399 129 386 123 C345 105 301 95 269 95 C211 95 177 131 177 191 C177 202 178 212 180 233 L515 233 Z M206 339 C234 412 283 454 340 454 C386 454 421 415 421 362 C421 357 421 350 420 339 L206 339 Z " />
<glyph glyph-name="f" unicode="f" horiz-adv-x="600" d="M257 0 L264 37 L266 51 C278 112 289 172 301 234 L345 441 L511 441 L534 547 L368 547 C382 605 404 624 452 624 C483 624 491 621 595 573 L621 694 C561 723 522 733 476 733 C419 733 361 710 321 673 C286 641 269 606 256 547 L126 547 L103 441 L233 441 L189 234 L168 144 C160 111 152 78 145 46 C141 32 139 22 134 0 L257 0 Z " />
<glyph glyph-name="g" unicode="g" horiz-adv-x="600" d="M477 551 L467 531 C425 557 403 563 359 563 C289 563 224 535 176 484 C113 418 72 313 72 218 C72 105 135 36 238 36 C280 36 311 43 348 62 L345 49 C327 -16 284 -54 227 -54 C181 -54 157 -37 123 17 L20 -59 C28 -68 35 -77 42 -87 C83 -137 138 -163 203 -163 C268 -163 337 -133 385 -83 C423 -44 448 6 462 69 L529 385 C540 436 554 475 589 551 L477 551 Z M377 197 C341 163 301 145 263 145 C219 145 191 183 191 242 C191 357 257 454 334 454 C369 454 401 437 422 406 L377 197 Z " />
<glyph glyph-name="h" unicode="h" horiz-adv-x="600" d="M198 733 C191 696 180 635 158 520 L95 219 C71 120 67 105 42 0 L166 0 C176 57 190 131 207 219 L216 263 C227 313 241 346 265 377 C297 419 348 454 375 454 C393 454 405 437 405 412 C405 396 400 362 391 319 L370 219 C352 145 334 71 317 0 L441 0 C447 33 460 107 482 219 L507 341 C515 375 520 416 520 438 C520 508 468 563 401 563 C358 563 325 549 268 508 L284 582 C289 607 302 659 321 733 L198 733 Z " />
<glyph glyph-name="i" unicode="i" horiz-adv-x="600" d="M330 441 L324 411 C320 385 315 357 309 328 L286 220 C280 191 273 163 266 136 C255 87 244 42 234 0 L358 0 C363 26 365 37 367 50 C376 99 387 157 399 220 L422 328 C429 357 443 416 464 506 C467 515 469 523 475 547 L214 547 L191 441 L330 441 Z M455 734 C401 734 351 685 351 633 C351 595 379 567 418 567 C471 567 521 616 521 667 C521 707 494 734 455 734 L455 734 Z " />
<glyph glyph-name="j" unicode="j" horiz-adv-x="600" d="M388 439 C376 369 371 345 367 324 L335 175 C296 -2 296 -2 279 -23 C265 -41 239 -54 218 -54 C186 -54 167 -32 167 3 C167 20 170 35 182 70 L188 89 L68 89 C52 25 51 17 51 -13 C51 -105 108 -163 196 -163 C272 -163 347 -117 386 -48 C407 -10 407 -10 447 175 L479 324 C501 418 512 462 532 545 L267 545 L244 439 L388 439 Z M514 734 C460 734 410 685 410 633 C410 595 438 567 477 567 C530 567 580 616 580 666 C580 707 553 734 514 734 L514 734 Z " />
<glyph glyph-name="k" unicode="k" horiz-adv-x="600" d="M187 733 C185 720 182 707 180 696 C170 644 164 612 161 596 C157 564 151 536 146 512 L84 220 C77 193 70 165 64 136 C52 86 41 40 31 0 L154 0 C171 95 172 97 194 211 L205 220 L344 0 L498 0 L299 294 C376 356 458 434 570 551 L422 551 L404 530 C366 485 287 409 225 359 L258 512 C276 592 294 665 310 733 L187 733 Z " />
<glyph glyph-name="l" unicode="l" horiz-adv-x="600" d="M374 627 L368 597 L353 513 L291 220 C271 138 254 65 239 0 L362 0 C364 13 366 25 368 37 C379 97 391 158 403 220 L465 513 L505 683 C508 697 511 707 517 733 L257 733 L234 627 L374 627 Z " />
<glyph glyph-name="m" unicode="m" horiz-adv-x="600" d="M307 0 C309 12 311 24 313 37 C322 84 327 108 332 137 C337 165 342 193 348 221 L372 336 C380 366 385 389 392 420 C416 444 435 454 454 454 C464 454 471 448 471 439 C471 434 468 413 465 399 L427 221 C403 120 385 46 374 0 L498 0 C502 27 503 33 507 50 C512 77 518 106 523 137 C528 164 534 192 539 221 L571 372 C585 436 587 451 587 472 C587 525 547 563 492 563 C453 563 422 552 383 524 C368 550 340 563 303 563 C269 563 244 555 207 534 L206 551 L89 551 L89 506 C90 495 90 486 90 484 C90 450 81 392 64 310 L45 221 C39 195 32 167 25 137 L4 50 C-1 30 -1 29 -8 0 L116 0 L122 37 C129 72 132 89 141 137 C146 163 152 191 157 221 L181 336 C184 347 186 359 189 371 L195 394 L200 412 C223 439 247 454 265 454 C274 454 278 448 278 437 C278 425 275 406 270 383 L236 221 C230 195 223 167 216 137 C209 106 201 75 194 46 C190 31 189 26 183 0 L307 0 Z " />
<glyph glyph-name="n" unicode="n" horiz-adv-x="600" d="M135 551 L135 507 L135 497 C135 442 125 377 100 260 L92 221 C90 210 70 128 51 50 C46 30 46 27 39 0 L164 0 C168 27 169 32 173 50 C176 69 175 59 178 79 C182 98 186 118 189 137 C194 166 199 194 205 221 L217 278 C225 319 240 348 268 382 C302 423 350 454 379 454 C398 454 411 436 411 410 C411 392 407 362 398 322 L377 221 L357 137 L324 0 L447 0 C449 12 452 24 454 37 C461 70 464 87 473 137 L478 165 L489 221 L515 344 C522 378 527 416 527 438 C527 507 476 563 414 563 C360 563 319 547 248 498 L248 516 C248 521 248 521 247 536 L247 551 L135 551 Z " />
<glyph glyph-name="o" unicode="o" horiz-adv-x="600" d="M358 563 C279 563 196 516 142 439 C97 374 64 262 64 170 C64 62 135 -14 236 -14 C321 -14 405 32 458 108 C500 168 535 288 535 368 C535 489 468 563 358 563 L358 563 Z M339 454 C388 454 416 419 416 359 C416 302 399 228 376 180 C348 124 308 95 260 95 C211 95 183 130 183 190 C183 247 200 323 223 369 C251 425 291 454 339 454 L339 454 Z " />
<glyph glyph-name="p" unicode="p" horiz-adv-x="600" d="M130 552 C134 496 135 484 135 467 C135 420 130 388 102 258 L54 31 C33 -57 14 -136 -3 -206 L123 -206 C130 -162 131 -154 135 -132 C144 -87 153 -36 161 9 C186 -5 207 -11 236 -11 C399 -11 538 164 538 370 C538 486 468 563 365 563 C324 563 297 555 249 526 L244 566 L130 552 Z M242 389 C278 436 304 454 340 454 C388 454 420 412 420 347 C420 215 341 98 253 98 C225 98 204 109 187 131 L242 389 Z " />
<glyph glyph-name="q" unicode="q" horiz-adv-x="600" d="M479 566 L464 537 L458 526 C421 554 398 563 358 563 C294 563 221 530 170 479 C106 414 62 296 62 190 C62 71 134 -11 238 -11 C269 -11 293 -5 325 9 L322 -7 C318 -19 315 -32 312 -45 C301 -91 296 -114 290 -136 C285 -157 279 -181 273 -206 L399 -206 C405 -170 419 -91 442 31 L490 258 C526 427 530 439 588 552 L479 566 Z M351 131 C324 108 300 98 271 98 C216 98 180 141 180 207 C180 340 252 454 336 454 C370 454 388 437 406 390 L351 131 Z " />
<glyph glyph-name="r" unicode="r" horiz-adv-x="600" d="M190 0 C196 36 199 51 231 222 L236 244 C256 337 350 454 405 454 C416 454 422 446 422 432 C422 417 419 394 411 347 L525 347 C536 408 538 425 538 450 C538 519 497 563 433 563 C380 563 332 540 274 488 L274 551 L161 551 L160 507 L160 497 C160 443 149 360 127 260 L119 222 C113 195 106 167 99 138 C92 109 85 80 78 50 C73 30 73 29 66 0 L190 0 Z " />
<glyph glyph-name="s" unicode="s" horiz-adv-x="600" d="M549 487 C525 506 517 513 510 517 C468 549 424 563 373 563 C257 563 154 474 154 374 C154 315 190 271 264 240 L312 220 C351 204 367 188 367 163 C367 123 335 95 289 95 C232 95 196 117 138 189 L51 93 C77 66 85 58 100 47 C149 8 210 -14 266 -14 C385 -14 485 77 485 185 C485 250 449 292 365 327 L327 342 C290 358 272 374 272 395 C272 424 310 454 347 454 C372 454 401 444 428 424 C436 419 443 413 474 388 L549 487 Z " />
<glyph glyph-name="t" unicode="t" horiz-adv-x="600" d="M508 440 L531 546 L350 546 C355 569 352 558 358 581 C364 605 369 628 375 651 C381 672 381 673 388 701 L265 701 L259 664 C253 629 249 609 238 546 L128 546 L105 440 L215 440 L162 190 C151 138 149 126 149 99 C149 31 195 -13 267 -13 C353 -13 422 28 488 117 C499 131 509 144 519 158 L412 185 C386 149 386 149 379 142 C353 111 326 96 296 96 C276 96 265 107 265 126 C265 137 270 170 274 190 L327 440 L508 440 Z " />
<glyph glyph-name="u" unicode="u" horiz-adv-x="600" d="M461 0 L461 43 C461 109 468 161 496 290 L504 329 C522 406 540 480 557 551 L432 551 C416 464 408 417 391 329 L382 285 C372 241 360 211 339 183 C303 133 252 98 216 98 C196 98 184 115 184 143 C184 163 186 173 198 228 L219 329 C247 446 265 520 272 551 L148 551 C144 523 143 518 139 500 C133 475 128 446 123 413 C117 389 112 361 107 329 L81 206 C72 165 68 134 68 111 C68 41 121 -11 192 -11 C242 -11 278 4 349 52 L349 49 L349 28 L349 0 L461 0 Z " />
<glyph glyph-name="v" unicode="v" horiz-adv-x="600" d="M460 551 L283 197 L257 551 L134 551 L164 264 C179 98 182 54 182 -13 L295 -13 C324 55 342 91 431 264 L583 551 L460 551 Z " />
<glyph glyph-name="w" unicode="w" horiz-adv-x="600" d="M283 426 C256 367 239 332 192 238 C195 327 203 417 220 551 L90 551 C92 512 92 497 92 482 C92 445 73 84 69 32 L67 18 L65 -13 L172 -13 L287 217 L304 -13 L411 -13 C444 81 448 93 508 254 C525 299 542 343 558 386 C581 449 593 478 602 499 C608 512 614 526 626 551 L496 551 C452 405 428 333 391 238 C386 290 384 323 382 389 L381 399 L380 426 L283 426 Z " />
<glyph glyph-name="x" unicode="x" horiz-adv-x="600" d="M598 551 L463 551 L324 391 L251 551 L114 551 L235 293 L-44 0 L103 0 L283 201 L378 0 L526 0 L371 295 L598 551 Z " />
<glyph glyph-name="y" unicode="y" horiz-adv-x="600" d="M507 551 L326 244 L281 551 L153 551 L228 82 C218 65 183 11 167 -10 C141 -45 128 -56 113 -56 C94 -56 86 -40 76 17 L73 34 L-38 -18 C-33 -57 -31 -67 -26 -81 C-8 -134 35 -165 90 -165 C166 -165 232 -109 315 27 L636 551 L507 551 Z " />
<glyph glyph-name="z" unicode="z" horiz-adv-x="600" d="M176 551 L154 445 L383 445 C151 199 125 172 36 83 L18 0 L458 0 L481 106 L200 106 L339 254 L538 459 L547 469 L564 551 L176 551 Z " />
<glyph glyph-name="braceleft" unicode="&#x7b;" horiz-adv-x="600" d="M308 564 C318 610 322 620 336 631 C345 639 375 646 399 646 L528 646 L549 745 L411 745 C285 745 225 699 201 585 L178 478 C166 425 157 417 105 406 L85 310 C96 307 102 305 104 304 C123 299 131 289 131 270 C131 262 130 251 127 237 L107 147 C103 125 100 103 100 86 C100 11 148 -23 251 -23 L385 -23 L406 76 L278 76 C235 76 213 87 214 109 C214 118 218 140 222 161 L239 239 C243 256 245 277 245 291 C245 317 238 335 222 357 C255 380 275 415 289 474 L308 564 Z " />
<glyph glyph-name="bar" unicode="&#x7c;" horiz-adv-x="600" d="M132 -263 L238 -263 L461 787 L355 787 L132 -263 Z " />
<glyph glyph-name="braceright" unicode="&#x7d;" horiz-adv-x="600" d="M328 161 C314 102 314 102 299 90 C290 82 262 76 237 76 L108 76 L87 -23 L221 -23 C348 -23 411 27 437 147 L456 237 C466 283 476 295 507 304 C512 305 517 306 529 310 L549 406 C528 411 524 413 521 414 C509 420 503 429 503 443 C503 452 505 464 508 478 L530 585 C535 608 537 623 537 640 C537 714 493 745 388 745 L250 745 L229 646 L358 646 C376 646 402 641 411 635 C416 631 421 621 421 613 C421 604 418 584 414 564 L395 474 C391 457 389 438 389 422 C389 392 394 376 412 357 C375 327 358 297 345 239 L328 161 Z " />
<glyph glyph-name="asciitilde" unicode="&#x7e;" horiz-adv-x="600" d="M527 475 C513 448 504 433 502 428 C483 400 458 381 437 381 C420 381 404 389 360 421 C302 462 254 481 212 481 C148 481 80 441 39 378 C19 349 19 349 -3 278 L104 252 C118 285 127 304 130 309 C146 339 167 359 183 359 C205 359 220 351 286 307 C337 273 373 259 411 259 C491 259 579 322 622 410 C626 418 636 440 646 462 L527 475 Z " />
<glyph glyph-name="exclamdown" unicode="&#xa1;" horiz-adv-x="600" d="M314 0 L405 495 L298 495 L174 0 L314 0 Z M397 732 C335 732 275 674 275 614 C275 567 307 534 354 534 C418 534 477 591 477 653 C477 699 443 732 397 732 L397 732 Z " />
<glyph glyph-name="cent" unicode="&#xa2;" horiz-adv-x="600" d="M204 -28 L316 -28 L343 100 C393 111 449 142 501 188 C511 196 521 205 530 213 L467 296 C439 271 426 259 415 250 C376 218 342 204 307 204 C254 204 217 247 217 311 C217 366 234 433 259 478 C290 532 336 563 387 563 C417 563 443 550 458 526 C465 515 469 505 484 461 L600 528 C555 620 530 646 463 666 L481 751 L369 751 L351 665 C296 651 248 622 208 580 C143 511 99 396 99 291 C99 194 147 125 232 103 L204 -28 Z " />
<glyph glyph-name="sterling" unicode="&#xa3;" horiz-adv-x="600" d="M622 581 L616 602 L611 616 C588 691 524 734 435 734 C345 734 264 691 217 619 C189 577 180 545 180 491 L180 480 L181 451 L90 451 L69 352 L190 352 C191 322 192 306 192 291 C192 224 180 200 92 95 C75 75 70 69 55 52 L99 -20 C155 4 206 19 238 19 C259 19 265 18 299 4 C326 -7 351 -12 374 -12 C419 -12 460 5 506 42 L535 64 L481 138 C475 133 469 129 463 125 C432 101 412 91 394 91 C386 91 376 94 355 105 C321 121 299 128 282 128 C269 128 250 124 227 115 C287 182 304 222 304 298 C304 311 304 326 302 352 L481 352 L502 451 L295 451 C292 474 291 486 291 498 C291 538 301 571 318 591 C339 615 380 631 416 631 C458 631 488 609 500 572 C501 566 503 560 507 547 L622 581 Z " />
<glyph glyph-name="currency" unicode="&#xa4;" horiz-adv-x="600" d="M145 495 C98 433 77 376 77 311 C77 285 80 268 91 237 L-33 134 L26 61 L146 162 C185 134 219 123 267 123 C314 123 354 134 404 162 L481 61 L571 134 L491 237 C540 300 560 354 560 421 C560 446 557 462 546 495 L670 597 L611 671 L491 570 C452 598 417 609 369 609 C323 609 283 598 233 570 L155 671 L65 597 L145 495 Z M351 509 C414 509 458 464 458 399 C458 307 377 223 289 223 C224 223 180 268 180 333 C180 426 260 509 351 509 L351 509 Z " />
<glyph glyph-name="yen" unicode="&#xa5;" horiz-adv-x="600" d="M434 414 L479 483 C534 565 588 645 638 720 L510 720 C427 588 369 497 336 447 C324 498 305 589 279 720 L151 720 L209 483 L224 414 L160 414 L144 339 L240 339 L250 304 L245 282 L147 282 L131 207 L229 207 C223 177 215 144 205 107 C197 71 188 35 179 0 L304 0 C306 12 308 24 310 37 C313 50 315 64 318 78 L342 207 L440 207 L456 282 L358 282 L363 304 L387 339 L483 339 L499 414 L434 414 Z " />
<glyph glyph-name="brokenbar" unicode="&#xa6;" horiz-adv-x="600" d="M355 787 L272 394 L378 394 L461 787 L355 787 Z M216 130 L132 -263 L238 -263 L322 130 L216 130 Z " />
<glyph glyph-name="section" unicode="&#xa7;" horiz-adv-x="600" d="M525 521 C539 574 542 588 542 609 C542 682 482 732 394 732 C280 732 187 651 187 552 C187 537 189 529 196 510 C142 474 113 427 113 376 C113 343 128 308 155 280 C177 257 235 205 276 171 C314 141 321 131 321 112 C321 84 292 63 254 63 C224 63 205 77 205 100 C205 110 207 122 213 152 L215 166 L103 166 C89 119 86 103 86 80 C86 4 145 -46 235 -46 C347 -46 440 36 440 135 C440 149 438 158 432 177 C487 213 516 259 516 311 C516 361 495 392 414 461 C350 515 350 515 325 537 C313 547 306 560 306 573 C306 603 334 623 374 623 C406 623 424 610 424 586 C424 575 422 564 413 521 L525 521 Z M377 250 C361 266 350 276 307 313 C246 368 232 384 232 400 C232 412 239 425 251 437 C266 423 275 415 321 374 C385 317 397 303 397 286 C397 274 390 262 377 250 L377 250 Z " />
<glyph glyph-name="dieresis" unicode="&#xa8;" horiz-adv-x="600" d="M295 777 C241 777 191 729 191 676 C191 638 219 610 258 610 C311 610 361 659 361 710 C361 750 334 777 295 777 L295 777 Z M524 777 C470 777 420 729 420 676 C420 638 448 610 487 610 C540 610 590 659 590 710 C590 750 563 777 524 777 L524 777 Z " />
<glyph glyph-name="copyright" unicode="&#xa9;" horiz-adv-x="600" d="M489 449 C492 485 493 492 493 499 C493 558 449 599 386 599 C300 599 231 540 193 434 C172 375 158 304 158 254 C158 163 200 114 278 114 C354 114 417 159 442 232 C447 245 452 259 457 275 L365 275 L358 252 C356 247 356 245 355 243 C348 222 325 209 297 209 C265 209 249 232 249 278 C249 324 265 396 285 440 C306 484 330 503 365 503 C386 503 400 494 400 481 L400 477 L399 472 C398 464 398 460 396 449 L489 449 Z M408 733 C217 733 27 498 27 262 C27 102 119 -13 248 -13 C438 -13 628 222 628 458 C628 617 535 733 408 733 L408 733 Z M390 655 C482 655 550 564 550 442 C550 256 405 65 264 65 C172 65 105 155 105 278 C105 464 250 655 390 655 L390 655 Z " />
<glyph glyph-name="ordfeminine" unicode="&#xaa;" horiz-adv-x="600" d="M266 546 C284 552 292 555 297 557 C328 569 342 572 358 572 C375 572 385 564 385 550 C385 547 385 544 384 540 C366 544 356 546 345 546 C265 546 198 474 198 387 C198 335 231 303 285 303 C308 303 323 307 352 323 L352 322 L353 315 L355 300 L437 310 C431 346 431 350 431 362 C431 378 432 386 440 422 L462 525 C465 539 466 551 466 564 C466 616 430 650 375 650 C343 650 339 649 262 622 L266 546 Z M358 416 C333 390 319 381 302 381 C289 381 282 390 282 406 C282 441 304 468 333 468 C344 468 352 466 367 462 L358 416 Z " />
<glyph glyph-name="guillemotleft" unicode="&#xab;" horiz-adv-x="600" d="M587 634 L256 363 L471 89 L555 163 L396 363 L639 561 L587 634 Z M369 634 L38 363 L253 89 L336 163 L178 363 L421 561 L369 634 Z " />
<glyph glyph-name="logicalnot" unicode="&#xac;" horiz-adv-x="600" d="M425 0 L537 0 L605 318 L15 318 L-8 212 L470 212 L425 0 Z " />
<glyph glyph-name="registered" unicode="&#xae;" horiz-adv-x="600" d="M408 733 C216 733 26 498 26 263 C26 102 119 -13 248 -13 C437 -13 628 222 628 456 C628 616 535 733 408 733 L408 733 Z M409 129 C353 85 309 65 265 65 C220 65 179 88 149 129 L247 129 C254 173 257 187 270 261 L279 302 L288 302 L308 302 L375 129 L409 129 Z M177 261 C159 184 149 140 147 132 C118 172 104 220 104 281 C104 394 158 512 244 589 C243 584 235 543 220 464 L177 261 Z M257 599 C303 636 348 655 389 655 C482 655 550 564 550 440 C550 350 522 270 462 185 L402 328 C464 366 497 423 497 489 C497 562 455 599 374 599 L257 599 Z M298 391 L323 508 L335 508 C395 508 408 502 408 472 C408 447 396 421 376 405 C365 396 346 391 324 391 L298 391 Z " />
<glyph glyph-name="macron" unicode="&#xaf;" horiz-adv-x="600" d="M544 632 L567 738 L230 738 L207 632 L544 632 Z " />
<glyph glyph-name="degree" unicode="&#xb0;" horiz-adv-x="600" d="M405 734 C255 734 120 616 120 486 C120 389 202 317 312 317 C459 317 595 436 595 565 C595 661 514 734 405 734 L405 734 Z M381 631 C436 631 477 594 477 545 C477 480 408 420 334 420 C279 420 238 456 238 505 C238 571 306 631 381 631 L381 631 Z " />
<glyph glyph-name="plusminus" unicode="&#xb1;" horiz-adv-x="600" d="M559 106 L-31 106 L-54 0 L536 0 L559 106 Z M430 639 L324 639 L276 413 L34 413 L11 307 L253 307 L220 152 L326 152 L359 307 L601 307 L624 413 L382 413 L430 639 Z " />
<glyph glyph-name="twosuperior" unicode="&#xb2;" horiz-adv-x="600" d="M455 364 L271 364 C286 398 302 413 383 471 C438 510 443 514 455 526 C490 560 509 599 509 638 C509 694 472 727 408 727 C344 727 291 696 259 640 C253 629 244 606 232 571 L317 571 C333 631 350 649 390 649 C413 649 425 639 425 621 C425 612 421 601 416 592 C402 570 399 568 325 516 C209 435 188 404 167 289 L439 289 L455 364 Z " />
<glyph glyph-name="threesuperior" unicode="&#xb3;" horiz-adv-x="600" d="M291 589 C305 606 306 608 310 613 C328 635 354 649 378 649 C403 649 420 634 420 614 C420 592 402 571 374 561 C362 557 362 557 317 555 L300 480 C335 480 337 480 345 479 C382 475 399 460 399 432 C399 389 367 360 319 360 C287 360 271 371 262 400 C261 401 256 418 253 425 L169 384 C179 364 183 353 183 353 C208 305 246 282 302 282 C402 282 483 356 483 447 C483 480 474 500 446 524 C484 552 504 589 504 629 C504 686 459 727 396 727 C343 727 290 702 252 658 C251 656 242 647 227 628 L291 589 Z " />
<glyph glyph-name="acute" unicode="&#xb4;" horiz-adv-x="600" d="M473 816 L239 656 L284 575 L537 722 L473 816 Z " />
<glyph glyph-name="mu" unicode="&#xb5;" horiz-adv-x="600" d="M147 546 L144 525 L141 513 L139 500 C110 343 108 334 107 327 L41 15 L-4 -170 L-7 -183 L-12 -204 L112 -204 C123 -142 137 -69 153 15 L154 20 C181 -2 208 -12 239 -12 C274 -12 303 -3 341 21 L336 0 L448 0 L518 327 C538 412 555 484 571 546 L446 546 L443 525 L440 513 L438 500 C432 471 427 441 422 412 C415 372 409 342 406 327 L389 249 C375 182 360 149 331 123 C310 104 281 91 259 91 C221 91 190 126 190 171 C190 184 194 210 202 249 L219 327 C239 411 256 484 271 546 L147 546 Z " />
<glyph glyph-name="paragraph" unicode="&#xb6;" horiz-adv-x="600" d="M172 -103 L284 -103 L440 631 L501 631 L345 -103 L457 -103 L613 631 L658 631 L677 722 L388 722 C304 722 241 705 189 668 C121 620 78 543 78 470 C78 373 145 311 258 304 L172 -103 Z " />
<glyph glyph-name="periodcentered" unicode="&#xb7;" horiz-adv-x="600" d="M323 370 C260 370 200 312 200 251 C200 205 234 172 280 172 C342 172 402 230 402 290 C402 337 370 370 323 370 L323 370 Z " />
<glyph glyph-name="cedilla" unicode="&#xb8;" horiz-adv-x="600" d="M307 0 L199 0 L156 -72 C225 -77 253 -90 253 -118 C253 -146 226 -169 195 -169 C175 -169 162 -165 120 -145 L109 -140 L65 -211 C135 -243 157 -250 194 -250 C276 -250 347 -183 347 -106 C347 -64 328 -36 290 -23 L307 0 Z " />
<glyph glyph-name="onesuperior" unicode="&#xb9;" horiz-adv-x="600" d="M457 744 L282 696 L266 616 L354 640 L295 364 L216 364 L200 289 L435 289 L451 364 L376 364 L457 744 Z " />
<glyph glyph-name="ordmasculine" unicode="&#xba;" horiz-adv-x="600" d="M380 650 C280 650 199 545 199 414 C199 348 242 302 304 302 C356 302 407 330 439 377 C466 415 485 483 485 539 C485 604 442 650 380 650 L380 650 Z M363 572 C387 572 401 554 401 523 C401 492 392 450 379 424 C365 395 345 380 321 380 C297 380 283 397 283 429 C283 509 318 572 363 572 L363 572 Z " />
<glyph glyph-name="guillemotright" unicode="&#xbb;" horiz-adv-x="600" d="M163 634 L81 561 L239 363 L-4 163 L48 89 L379 363 L163 634 Z M383 634 L300 561 L458 363 L215 163 L267 89 L598 363 L383 634 Z " />
<glyph glyph-name="onequarter" unicode="&#xbc;" horiz-adv-x="600" d="M236 296 L250 364 L175 364 L256 743 L81 695 L64 616 L153 640 L94 364 L15 364 L-1 289 L231 289 L30 -12 L110 -12 L611 734 L527 734 L236 296 Z M631 438 L546 438 L322 153 L311 101 L478 101 L457 0 L538 0 L559 101 L618 101 L634 176 L575 176 L631 438 Z M494 176 L432 176 L517 285 L494 176 Z " />
<glyph glyph-name="onehalf" unicode="&#xbd;" horiz-adv-x="600" d="M236 296 L250 364 L175 364 L256 743 L81 695 L64 616 L153 640 L94 364 L15 364 L-1 289 L231 289 L30 -12 L110 -12 L610 734 L527 734 L236 296 Z M593 75 L409 75 C424 109 441 124 522 182 C575 221 581 225 593 237 C628 271 647 310 647 349 C647 405 610 438 546 438 C482 438 429 407 397 351 C388 335 385 328 370 282 L455 282 C470 341 488 360 528 360 C551 360 563 350 563 332 C563 323 560 312 554 303 C540 281 537 279 463 227 C347 146 326 115 305 0 L577 0 L593 75 Z " />
<glyph glyph-name="threequarters" unicode="&#xbe;" horiz-adv-x="600" d="M90 589 C104 606 105 608 109 613 C127 635 153 649 177 649 C202 649 219 634 219 614 C219 592 201 571 173 561 C161 557 161 557 116 555 L99 480 C134 480 136 480 144 479 C181 475 198 460 198 432 C198 389 166 360 118 360 C86 360 70 371 61 400 C60 401 55 418 52 425 L-32 384 C-22 364 -18 353 -18 353 C7 305 45 282 101 282 C201 282 282 356 282 447 C282 480 273 500 245 524 C283 552 303 589 303 629 C303 686 258 727 195 727 C142 727 89 702 51 658 C50 656 41 647 26 628 L90 589 Z M527 734 L30 -12 L110 -12 L611 734 L527 734 Z M630 438 L545 438 L322 153 L311 101 L477 101 L455 0 L536 0 L558 101 L618 101 L634 176 L574 176 L630 438 Z M493 176 L431 176 L516 285 L493 176 Z " />
<glyph glyph-name="questiondown" unicode="&#xbf;" horiz-adv-x="600" d="M293 497 L276 417 C268 382 265 377 242 360 C168 310 166 309 146 287 C108 247 85 189 85 132 C85 41 143 -12 241 -12 C321 -12 393 27 439 94 C459 123 459 123 480 198 L359 198 C348 156 342 142 331 127 C317 109 291 97 265 97 C226 97 204 119 204 157 C204 198 220 223 263 251 C349 307 369 329 381 384 L405 497 L293 497 Z M401 732 C339 732 279 674 279 614 C279 567 311 534 358 534 C421 534 481 592 481 653 C481 699 448 732 401 732 L401 732 Z " />
<glyph glyph-name="Agrave" unicode="&#xc0;" horiz-adv-x="600" d="M394 990 L290 896 L480 749 L560 830 L394 990 Z M378 176 L388 0 L512 0 L458 720 L331 720 L-29 0 L94 0 L179 176 L378 176 Z M371 282 L232 282 L354 530 L371 282 Z " />
<glyph glyph-name="Aacute" unicode="&#xc1;" horiz-adv-x="600" d="M510 989 L276 829 L321 749 L574 895 L510 989 Z M378 176 L388 0 L512 0 L458 720 L331 720 L-29 0 L94 0 L179 176 L378 176 Z M371 282 L232 282 L354 530 L371 282 Z " />
<glyph glyph-name="Acircumflex" unicode="&#xc2;" horiz-adv-x="600" d="M421 844 L533 746 L616 819 L452 990 L214 819 L266 746 L421 844 Z M378 176 L388 0 L512 0 L458 720 L331 720 L-29 0 L94 0 L179 176 L378 176 Z M371 282 L232 282 L354 530 L371 282 Z " />
<glyph glyph-name="Atilde" unicode="&#xc3;" horiz-adv-x="600" d="M562 947 C525 893 522 891 507 891 C499 891 491 895 473 906 L452 920 C418 942 403 948 375 948 C331 948 294 929 258 890 C242 873 242 873 195 806 L289 772 C331 834 336 839 354 839 C364 839 371 836 386 825 L413 806 C437 790 462 782 489 782 C529 782 565 799 597 833 C613 850 622 863 652 909 L562 947 Z M378 176 L388 0 L512 0 L458 720 L331 720 L-29 0 L94 0 L179 176 L378 176 Z M371 282 L232 282 L354 530 L371 282 Z " />
<glyph glyph-name="Adieresis" unicode="&#xc4;" horiz-adv-x="600" d="M331 951 C278 951 227 902 227 851 C227 812 256 784 295 784 C347 784 398 833 398 883 C398 923 371 951 331 951 L331 951 Z M560 951 C506 951 456 902 456 851 C456 812 485 784 523 784 C576 784 626 833 626 883 C626 924 599 951 560 951 L560 951 Z M378 176 L388 0 L512 0 L458 720 L331 720 L-29 0 L94 0 L179 176 L378 176 Z M371 282 L232 282 L354 530 L371 282 Z " />
<glyph glyph-name="Aring" unicode="&#xc5;" horiz-adv-x="600" d="M449 973 C377 973 311 910 311 841 C311 791 349 754 400 754 C472 754 538 817 538 886 C538 936 501 973 449 973 L449 973 Z M431 894 C446 894 456 884 456 870 C456 851 438 833 418 833 C404 833 393 843 393 857 C393 877 411 894 431 894 L431 894 Z M378 176 L388 0 L512 0 L458 720 L331 720 L-29 0 L94 0 L179 176 L378 176 Z M371 282 L232 282 L354 530 L371 282 Z " />
<glyph glyph-name="AE" unicode="&#xc6;" horiz-adv-x="600" d="M268 176 C265 163 262 149 258 135 C252 107 245 78 238 49 C232 29 232 28 225 0 L509 0 L532 106 L366 106 L410 315 L516 315 L538 421 L432 421 L474 614 L634 614 L656 720 L330 720 L-66 0 L57 0 L148 176 L268 176 Z M291 282 L202 282 L351 564 L291 282 Z " />
<glyph glyph-name="Ccedilla" unicode="&#xc7;" horiz-adv-x="600" d="M301 -8 C414 14 470 73 512 212 L398 212 C383 163 381 158 370 143 C350 114 316 97 278 97 C221 97 192 135 192 211 C192 327 236 487 288 563 C314 601 354 623 395 623 C434 623 458 604 458 573 C458 566 457 556 452 526 L568 526 C573 562 574 577 574 591 C574 676 511 732 416 732 C332 732 249 687 197 614 C126 513 74 335 74 190 C74 83 116 15 196 -5 L156 -72 C225 -77 253 -90 253 -117 C253 -146 227 -169 196 -169 C174 -169 164 -166 120 -145 L109 -140 L65 -211 C135 -243 157 -250 194 -250 C276 -250 347 -183 347 -105 C347 -64 328 -36 290 -23 L301 -8 Z " />
<glyph glyph-name="Egrave" unicode="&#xc8;" horiz-adv-x="600" d="M196 720 C194 708 191 696 189 683 C184 657 181 638 155 500 L95 219 L55 49 C50 29 49 28 43 0 L447 0 L469 106 L183 106 L228 315 L431 315 L453 421 L250 421 L291 614 L570 614 L593 720 L196 720 Z M357 990 L253 896 L443 749 L523 830 L357 990 Z " />
<glyph glyph-name="Eacute" unicode="&#xc9;" horiz-adv-x="600" d="M196 720 C194 708 191 696 189 683 C184 657 181 638 155 500 L95 219 L55 49 C50 29 49 28 43 0 L447 0 L469 106 L183 106 L228 315 L431 315 L453 421 L250 421 L291 614 L570 614 L593 720 L196 720 Z M541 989 L307 829 L352 749 L605 895 L541 989 Z " />
<glyph glyph-name="Ecircumflex" unicode="&#xca;" horiz-adv-x="600" d="M196 720 C194 708 191 696 189 683 C184 657 181 638 155 500 L95 219 L55 49 C50 29 49 28 43 0 L447 0 L469 106 L183 106 L228 315 L431 315 L453 421 L250 421 L291 614 L571 614 L594 720 L196 720 Z M421 844 L534 746 L617 819 L452 990 L215 819 L267 746 L421 844 Z " />
<glyph glyph-name="Edieresis" unicode="&#xcb;" horiz-adv-x="600" d="M196 720 C194 708 191 696 189 683 C184 657 181 638 155 500 L95 219 L55 49 C50 29 49 28 43 0 L447 0 L469 106 L183 106 L228 315 L431 315 L453 421 L250 421 L291 614 L570 614 L593 720 L196 720 Z M332 951 C278 951 228 902 228 851 C228 812 256 784 295 784 C347 784 398 833 398 883 C398 923 371 951 332 951 L332 951 Z M560 951 C507 951 456 902 456 851 C456 812 485 784 524 784 C576 784 627 833 627 883 C627 924 600 951 560 951 L560 951 Z " />
<glyph glyph-name="Igrave" unicode="&#xcc;" horiz-adv-x="600" d="M314 614 L308 584 C303 555 298 527 292 501 L233 219 L206 106 L115 106 L92 0 L391 0 L414 106 L323 106 C336 173 342 203 345 219 L404 501 C410 525 414 542 431 614 L522 614 L544 720 L245 720 L223 614 L314 614 Z M394 990 L290 896 L480 749 L560 830 L394 990 Z " />
<glyph glyph-name="Iacute" unicode="&#xcd;" horiz-adv-x="600" d="M314 614 L308 584 C303 555 298 527 292 501 L233 219 L206 106 L115 106 L92 0 L391 0 L414 106 L323 106 C336 173 342 203 345 219 L404 501 C410 525 414 542 431 614 L522 614 L544 720 L245 720 L223 614 L314 614 Z M509 989 L276 829 L321 749 L574 895 L509 989 Z " />
<glyph glyph-name="Icircumflex" unicode="&#xce;" horiz-adv-x="600" d="M314 614 L308 584 C303 555 298 527 292 501 L233 219 L206 106 L114 106 L91 0 L391 0 L414 106 L323 106 C336 173 342 203 345 219 L404 501 C410 525 414 542 431 614 L522 614 L544 720 L244 720 L222 614 L314 614 Z M420 844 L533 746 L616 819 L451 990 L214 819 L266 746 L420 844 Z " />
<glyph glyph-name="Idieresis" unicode="&#xcf;" horiz-adv-x="600" d="M313 614 L307 584 C302 555 297 527 291 501 L232 219 L205 106 L114 106 L91 0 L390 0 L413 106 L322 106 C335 173 341 203 344 219 L403 501 C409 525 413 542 430 614 L521 614 L543 720 L244 720 L222 614 L313 614 Z M336 951 C282 951 232 902 232 850 C232 812 260 784 299 784 C352 784 402 833 402 883 C402 924 375 951 336 951 L336 951 Z M553 951 C499 951 449 902 449 850 C449 812 477 784 516 784 C569 784 619 833 619 883 C619 924 592 951 553 951 L553 951 Z " />
<glyph glyph-name="Eth" unicode="&#xd0;" horiz-adv-x="600" d="M100 324 L78 220 C57 131 39 57 25 0 L202 0 C319 0 397 37 448 117 C510 215 557 392 557 526 C557 597 538 647 500 680 C466 709 426 720 356 720 L178 720 L169 671 C159 614 148 557 137 501 L122 430 L49 430 L27 324 L100 324 Z M212 324 L325 324 L347 430 L234 430 L273 614 L329 614 C412 614 442 587 442 510 C442 472 436 426 422 361 C403 271 387 221 362 177 C334 127 292 106 221 106 L165 106 L212 324 Z " />
<glyph glyph-name="Ntilde" unicode="&#xd1;" horiz-adv-x="600" d="M474 720 C472 708 470 696 468 683 C465 672 462 659 460 642 C446 567 437 520 433 501 L392 304 L315 720 L197 720 L91 220 C72 141 54 68 38 0 L161 0 C173 61 186 135 203 220 L252 450 L337 -7 L437 -7 L545 501 C566 586 583 660 598 720 L474 720 Z M562 947 C525 893 522 891 507 891 C499 891 491 895 473 906 L452 920 C418 942 403 948 375 948 C331 948 294 929 257 890 C242 873 242 873 195 806 L289 772 C331 833 336 839 354 839 C363 839 371 836 386 825 L413 806 C437 790 462 782 489 782 C529 782 565 799 597 833 C613 850 622 863 652 909 L562 947 Z " />
<glyph glyph-name="Ograve" unicode="&#xd2;" horiz-adv-x="600" d="M399 732 C333 732 267 703 216 652 C164 600 130 529 101 409 C80 325 65 227 65 175 C65 63 134 -12 237 -12 C336 -12 420 42 475 140 C522 225 571 430 571 545 C571 657 502 732 399 732 L399 732 Z M375 623 C424 623 452 583 452 512 C452 445 419 285 391 216 C359 139 314 97 261 97 C212 97 184 137 184 208 C184 275 218 436 246 504 C277 581 323 623 375 623 L375 623 Z M394 990 L290 896 L480 749 L560 830 L394 990 Z " />
<glyph glyph-name="Oacute" unicode="&#xd3;" horiz-adv-x="600" d="M399 732 C333 732 267 703 216 652 C164 600 130 529 101 409 C80 325 65 227 65 175 C65 63 134 -12 237 -12 C336 -12 420 42 475 140 C522 225 571 430 571 545 C571 657 502 732 399 732 L399 732 Z M375 623 C424 623 452 583 452 512 C452 445 419 285 391 216 C359 139 314 97 261 97 C212 97 184 137 184 208 C184 275 218 436 246 504 C277 581 323 623 375 623 L375 623 Z M510 989 L276 829 L321 749 L574 895 L510 989 Z " />
<glyph glyph-name="Ocircumflex" unicode="&#xd4;" horiz-adv-x="600" d="M399 732 C333 732 267 703 216 652 C164 600 130 529 101 409 C80 325 65 227 65 175 C65 63 134 -12 237 -12 C336 -12 420 42 475 140 C522 225 571 430 571 545 C571 657 502 732 399 732 L399 732 Z M375 623 C424 623 452 583 452 512 C452 445 419 285 391 216 C359 139 314 97 261 97 C212 97 184 137 184 208 C184 275 218 436 246 504 C277 581 323 623 375 623 L375 623 Z M421 844 L533 746 L617 819 L452 990 L214 819 L266 746 L421 844 Z " />
<glyph glyph-name="Otilde" unicode="&#xd5;" horiz-adv-x="600" d="M399 732 C333 732 267 703 216 652 C164 600 130 529 101 409 C80 325 65 227 65 175 C65 63 134 -12 237 -12 C336 -12 420 42 475 140 C522 225 571 430 571 545 C571 657 502 732 399 732 L399 732 Z M375 623 C424 623 452 583 452 512 C452 445 419 284 391 216 C359 139 314 97 261 97 C212 97 184 137 184 208 C184 275 217 436 246 504 C277 581 323 623 375 623 L375 623 Z M562 947 C525 893 523 891 507 891 C499 891 491 895 473 906 L452 920 C419 942 402 948 374 948 C332 948 294 929 258 890 C242 873 242 873 195 806 L289 772 C329 831 337 839 354 839 C363 839 371 836 386 825 L413 806 C437 790 462 782 489 782 C529 782 565 799 597 833 C612 849 621 861 652 909 L562 947 Z " />
<glyph glyph-name="Odieresis" unicode="&#xd6;" horiz-adv-x="600" d="M399 732 C333 732 267 703 216 652 C164 600 130 529 101 409 C80 325 65 227 65 175 C65 63 134 -12 237 -12 C336 -12 420 42 475 140 C522 225 571 430 571 545 C571 657 502 732 399 732 L399 732 Z M375 623 C424 623 452 583 452 512 C452 445 419 285 391 216 C359 139 314 97 261 97 C212 97 184 137 184 208 C184 275 218 436 246 504 C277 581 323 623 375 623 L375 623 Z M332 951 C278 951 228 903 228 850 C228 812 256 784 295 784 C348 784 398 833 398 884 C398 924 371 951 332 951 L332 951 Z M560 951 C506 951 456 903 456 850 C456 812 484 784 523 784 C576 784 626 833 626 884 C626 924 599 951 560 951 L560 951 Z " />
<glyph glyph-name="multiply" unicode="&#xd7;" horiz-adv-x="600" d="M154 653 L61 580 L242 366 L-28 153 L34 80 L304 293 L485 78 L578 151 L396 366 L666 578 L605 652 L335 439 L154 653 Z " />
<glyph glyph-name="Oslash" unicode="&#xd8;" horiz-adv-x="600" d="M520 684 C490 715 446 732 397 732 C331 732 266 703 215 652 C162 600 129 530 99 409 C79 326 64 225 64 173 C64 154 67 135 73 113 L-2 17 L74 -33 L123 29 C153 2 192 -12 236 -12 C303 -12 370 16 419 65 C471 117 505 189 534 308 C554 391 570 497 570 548 C570 560 568 575 565 594 L638 687 L562 737 L520 684 Z M185 243 C221 504 281 623 376 623 C406 623 430 605 443 573 L185 243 Z M448 458 C433 363 409 262 390 216 C358 139 313 97 260 97 C233 97 210 112 197 137 L448 458 Z " />
<glyph glyph-name="Ugrave" unicode="&#xd9;" horiz-adv-x="600" d="M183 720 C180 708 178 696 176 683 C169 647 152 556 142 501 L89 252 C77 196 75 182 75 153 C75 58 144 -12 238 -12 C315 -12 396 29 440 89 C470 130 483 164 502 252 L555 501 C561 525 568 553 574 584 C586 633 597 678 607 720 L484 720 C468 633 454 560 443 501 L390 252 C384 223 373 186 367 171 C347 125 308 97 263 97 C220 97 190 129 190 177 C190 197 192 209 202 256 L254 501 C277 598 294 672 306 720 L183 720 Z M394 990 L290 896 L480 749 L560 830 L394 990 Z " />
<glyph glyph-name="Uacute" unicode="&#xda;" horiz-adv-x="600" d="M183 720 C180 708 178 696 176 683 C169 647 152 556 142 501 L89 252 C77 196 75 182 75 153 C75 58 144 -12 238 -12 C315 -12 396 29 440 89 C470 130 483 164 502 252 L555 501 C561 525 568 553 574 584 C586 633 597 678 607 720 L484 720 C468 633 454 560 443 501 L390 252 C384 223 373 186 367 171 C347 125 308 97 263 97 C220 97 190 129 190 177 C190 197 192 209 202 256 L254 501 C277 598 294 672 306 720 L183 720 Z M510 989 L276 829 L321 749 L574 895 L510 989 Z " />
<glyph glyph-name="Ucircumflex" unicode="&#xdb;" horiz-adv-x="600" d="M183 720 C180 708 178 696 176 683 C169 647 152 556 142 501 L89 252 C77 196 75 182 75 153 C75 58 144 -12 238 -12 C315 -12 396 29 440 89 C470 130 483 164 502 252 L555 501 C561 525 568 553 574 584 C586 633 597 678 607 720 L484 720 C468 633 454 560 443 501 L390 252 C384 223 373 186 367 171 C347 125 308 97 263 97 C220 97 190 129 190 177 C190 197 192 209 202 256 L254 501 C277 598 294 672 306 720 L183 720 Z M421 844 L533 746 L617 819 L452 990 L215 819 L266 746 L421 844 Z " />
<glyph glyph-name="Udieresis" unicode="&#xdc;" horiz-adv-x="600" d="M183 720 C180 708 178 696 176 683 C169 647 152 556 142 501 L89 252 C77 196 75 182 75 153 C75 58 144 -12 238 -12 C315 -12 396 29 440 89 C470 130 483 164 502 252 L555 501 C561 525 568 553 574 584 C586 633 597 678 607 720 L484 720 C468 633 454 560 443 501 L390 252 C384 223 373 186 367 171 C347 125 308 97 263 97 C220 97 190 129 190 177 C190 197 192 209 202 256 L254 501 C277 598 294 672 306 720 L183 720 Z M332 951 C278 951 228 902 228 850 C228 812 256 784 295 784 C348 784 398 833 398 883 C398 924 371 951 332 951 L332 951 Z M561 951 C507 951 457 902 457 850 C457 812 485 784 524 784 C577 784 627 833 627 883 C627 924 600 951 561 951 L561 951 Z " />
<glyph glyph-name="Yacute" unicode="&#xdd;" horiz-adv-x="600" d="M151 720 C195 538 228 399 249 303 L232 220 C211 132 194 59 179 0 L303 0 L312 50 C322 107 333 163 344 220 L361 303 C474 476 474 477 637 720 L510 720 C427 588 369 497 336 447 C324 498 305 589 278 720 L151 720 Z M535 989 L300 829 L345 749 L598 895 L535 989 Z " />
<glyph glyph-name="Thorn" unicode="&#xde;" horiz-adv-x="600" d="M296 632 L300 651 L305 670 C311 692 311 695 317 720 L194 720 C192 708 190 695 187 683 L180 641 L153 500 L94 220 C87 191 81 163 74 136 C62 88 51 43 41 0 L164 0 C166 11 169 23 171 37 C174 61 177 77 189 136 L192 156 L196 176 L214 176 C320 176 374 191 430 234 C494 284 536 378 536 470 C536 530 514 578 475 604 C443 625 409 632 335 632 L296 632 Z M219 282 L271 527 L305 527 C356 527 369 525 385 518 C406 507 417 483 417 447 C417 389 393 335 355 307 C330 289 303 282 250 282 L219 282 Z " />
<glyph glyph-name="germandbls" unicode="&#xdf;" horiz-adv-x="600" d="M181 0 C193 68 207 142 222 221 L286 522 C301 595 324 624 363 624 C396 624 418 599 418 561 C418 495 366 442 292 435 L270 331 C347 328 376 304 376 244 C376 166 335 96 289 96 C272 96 269 98 227 127 L201 3 C224 -9 241 -13 265 -13 C392 -13 496 116 496 275 C496 328 478 363 437 392 C500 438 537 510 537 586 C537 671 477 733 393 733 C337 733 273 703 233 658 C201 623 190 596 174 522 L110 221 L69 50 C66 37 64 27 57 0 L181 0 Z " />
<glyph glyph-name="agrave" unicode="&#xe0;" horiz-adv-x="600" d="M184 411 C197 416 211 421 225 426 C282 448 305 454 333 454 C368 454 389 436 389 406 C389 397 388 387 384 369 C354 380 329 385 304 385 C176 385 67 266 67 126 C67 41 120 -11 208 -11 C249 -11 275 -2 330 31 C330 25 330 25 333 3 L336 -14 L449 0 C442 52 441 59 441 76 C441 104 444 122 456 182 L494 360 C499 384 502 407 502 426 C502 508 445 563 360 563 C309 563 289 558 177 519 L184 411 Z M341 169 C293 116 264 98 229 98 C202 98 185 118 185 150 C185 181 199 220 219 244 C236 264 261 276 288 276 C311 276 327 272 361 259 L341 169 Z M358 816 L254 722 L444 575 L523 656 L358 816 Z " />
<glyph glyph-name="aacute" unicode="&#xe1;" horiz-adv-x="600" d="M184 411 C197 416 211 421 225 426 C282 448 305 454 333 454 C368 454 389 436 389 406 C389 397 388 387 384 369 C354 380 329 385 304 385 C176 385 67 266 67 126 C67 41 120 -11 208 -11 C249 -11 275 -2 330 31 C330 25 330 25 333 3 L336 -14 L449 0 C442 52 441 59 441 76 C441 104 444 122 456 182 L494 360 C499 384 502 407 502 426 C502 508 445 563 360 563 C309 563 289 558 177 519 L184 411 Z M341 169 C293 116 264 98 229 98 C202 98 185 118 185 150 C185 181 199 220 219 244 C236 264 261 276 288 276 C311 276 327 272 361 259 L341 169 Z M474 816 L239 656 L285 575 L537 722 L474 816 Z " />
<glyph glyph-name="acircumflex" unicode="&#xe2;" horiz-adv-x="600" d="M184 411 C197 416 211 421 225 426 C282 448 305 454 333 454 C368 454 389 436 389 406 C389 397 388 387 384 369 C354 380 329 385 304 385 C176 385 67 266 67 126 C67 41 120 -11 208 -11 C249 -11 275 -2 330 31 C330 25 330 25 333 3 L336 -14 L449 0 C442 52 441 59 441 76 C441 104 444 122 456 182 L494 360 C499 384 502 407 502 426 C502 508 445 563 360 563 C309 563 289 558 177 519 L184 411 Z M341 169 C293 116 264 98 229 98 C202 98 185 118 185 150 C185 181 199 220 219 244 C236 264 261 276 288 276 C311 276 327 272 361 259 L341 169 Z M384 670 L497 573 L580 646 L416 817 L178 646 L230 573 L384 670 Z " />
<glyph glyph-name="atilde" unicode="&#xe3;" horiz-adv-x="600" d="M183 411 L224 426 C282 448 303 454 332 454 C367 454 388 436 388 406 C388 397 387 387 383 369 C353 380 328 385 303 385 C175 385 66 266 66 126 C66 41 119 -11 207 -11 C248 -11 274 -2 329 31 C329 25 329 25 332 3 L335 -14 L448 0 C441 52 440 59 440 76 C440 104 443 122 455 182 L493 360 C498 384 501 407 501 426 C501 508 444 563 359 563 C308 563 288 558 176 519 L183 411 Z M340 169 C292 116 263 98 228 98 C201 98 184 118 184 150 C184 181 198 220 218 244 C235 264 260 276 287 276 C310 276 326 272 360 259 L340 169 Z M518 774 C480 720 479 718 463 718 C455 718 446 722 429 733 L408 747 C373 770 359 775 330 775 C287 775 250 756 213 717 C198 700 198 700 151 633 L245 598 C285 659 293 666 310 666 C320 666 325 664 342 652 L369 633 C392 617 417 609 445 609 C485 609 521 626 553 660 C568 676 577 689 608 736 L518 774 Z " />
<glyph glyph-name="adieresis" unicode="&#xe4;" horiz-adv-x="600" d="M184 411 C197 416 211 421 225 426 C282 448 305 454 333 454 C368 454 389 436 389 406 C389 397 388 387 384 369 C354 380 329 385 304 385 C176 385 67 266 67 126 C67 41 120 -11 208 -11 C249 -11 275 -2 330 31 C330 25 330 25 333 3 L336 -14 L449 0 C442 52 441 59 441 76 C441 104 444 122 456 182 L494 360 C499 384 502 407 502 426 C502 508 445 563 360 563 C309 563 289 558 177 519 L184 411 Z M341 169 C293 116 264 98 229 98 C202 98 185 118 185 150 C185 181 199 220 219 244 C236 264 261 276 288 276 C311 276 327 272 361 259 L341 169 Z M294 777 C240 777 190 729 190 676 C190 638 218 610 257 610 C310 610 360 659 360 709 C360 749 333 777 294 777 L294 777 Z M522 777 C468 777 418 729 418 676 C418 638 446 610 486 610 C538 610 589 659 589 709 C589 750 562 777 522 777 L522 777 Z " />
<glyph glyph-name="aring" unicode="&#xe5;" horiz-adv-x="600" d="M184 411 C197 416 211 421 225 426 C282 448 305 454 333 454 C368 454 389 436 389 406 C389 397 388 387 384 369 C354 380 329 385 304 385 C176 385 67 266 67 126 C67 41 120 -11 208 -11 C249 -11 275 -2 330 31 C330 25 330 25 333 3 L336 -14 L449 0 C442 52 441 59 441 76 C441 104 444 122 456 182 L494 360 C499 384 502 407 502 426 C502 508 445 563 360 563 C309 563 289 558 177 519 L184 411 Z M341 169 C293 116 264 98 229 98 C202 98 185 118 185 150 C185 181 199 220 219 244 C236 264 261 276 288 276 C311 276 327 272 361 259 L341 169 Z M413 800 C341 800 275 737 275 668 C275 618 313 581 364 581 C436 581 502 644 502 713 C502 763 465 800 413 800 L413 800 Z M395 721 C409 721 420 710 420 697 C420 678 401 660 382 660 C368 660 357 670 357 684 C357 703 375 721 395 721 L395 721 Z " />
<glyph glyph-name="ae" unicode="&#xe6;" horiz-adv-x="600" d="M570 233 L578 269 C591 330 595 361 595 398 C595 502 544 563 458 563 C424 563 393 558 362 546 C337 558 312 563 284 563 C233 563 198 552 102 507 L108 400 C217 451 226 454 256 454 C271 454 280 446 280 433 C280 428 279 422 278 416 L270 377 C253 380 245 381 232 381 C170 381 111 354 68 306 C23 256 -4 186 -4 122 C-4 35 46 -14 135 -14 C173 -14 205 -8 241 6 C267 -8 294 -14 331 -14 C383 -14 431 -1 518 36 C529 40 538 44 548 48 L524 146 L504 138 C418 103 390 95 359 95 C340 95 327 103 327 114 C327 117 328 125 330 133 L351 233 L570 233 Z M374 339 L391 419 C396 445 406 454 429 454 C464 454 485 424 485 373 L485 339 L374 339 Z M222 153 C215 121 214 117 208 110 C200 100 186 95 168 95 C134 95 115 113 115 146 C115 218 158 278 211 278 C223 278 231 276 246 267 L222 153 Z " />
<glyph glyph-name="ccedilla" unicode="&#xe7;" horiz-adv-x="600" d="M300 -10 C351 -1 409 31 462 79 C472 87 482 95 491 104 L428 187 C401 162 388 150 376 141 C337 109 303 95 268 95 C215 95 178 138 178 202 C178 257 195 324 220 369 C251 423 297 454 348 454 C378 454 404 441 419 417 C426 406 430 396 445 352 L561 419 C536 468 531 478 519 494 C488 537 433 563 374 563 C286 563 200 517 144 441 C92 372 60 271 60 181 C60 83 109 15 195 -8 L156 -72 C224 -77 253 -91 253 -117 C253 -146 227 -169 195 -169 C174 -169 164 -166 120 -145 L109 -140 L65 -211 C134 -243 157 -250 194 -250 C276 -250 347 -183 347 -106 C347 -64 328 -37 290 -23 L300 -10 Z " />
<glyph glyph-name="egrave" unicode="&#xe8;" horiz-adv-x="600" d="M515 233 C532 307 536 337 536 378 C536 489 468 563 367 563 C200 563 60 391 60 185 C60 59 126 -14 240 -14 C294 -14 350 -2 416 22 C419 23 441 32 483 48 L455 157 C399 129 399 129 386 123 C345 105 301 95 269 95 C211 95 177 131 177 191 C177 202 178 212 180 233 L515 233 Z M206 339 C234 412 283 454 340 454 C386 454 421 415 421 362 C421 357 421 350 420 339 L206 339 Z M358 816 L253 722 L444 575 L523 656 L358 816 Z " />
<glyph glyph-name="eacute" unicode="&#xe9;" horiz-adv-x="600" d="M515 233 C532 307 536 337 536 378 C536 489 468 563 367 563 C200 563 60 391 60 185 C60 59 126 -14 240 -14 C294 -14 350 -2 416 22 C419 23 441 32 483 48 L455 157 C399 129 399 129 386 123 C345 105 301 95 269 95 C211 95 177 131 177 191 C177 202 178 212 180 233 L515 233 Z M206 339 C234 412 283 454 340 454 C386 454 421 415 421 362 C421 357 421 350 420 339 L206 339 Z M488 816 L253 656 L299 575 L551 722 L488 816 Z " />
<glyph glyph-name="ecircumflex" unicode="&#xea;" horiz-adv-x="600" d="M515 233 C532 307 536 337 536 378 C536 489 468 563 367 563 C200 563 60 391 60 185 C60 59 126 -14 240 -14 C294 -14 350 -2 416 22 C419 23 441 32 483 48 L455 157 C399 129 399 129 386 123 C345 105 301 95 269 95 C211 95 177 131 177 191 C177 202 178 212 180 233 L515 233 Z M206 339 C234 412 283 454 340 454 C386 454 421 415 421 362 C421 357 421 350 420 339 L206 339 Z M390 670 L502 573 L585 646 L421 817 L183 646 L235 573 L390 670 Z " />
<glyph glyph-name="edieresis" unicode="&#xeb;" horiz-adv-x="600" d="M515 233 C532 307 536 337 536 378 C536 489 468 563 367 563 C200 563 60 391 60 185 C60 59 126 -14 240 -14 C294 -14 350 -2 416 22 C419 23 441 32 483 48 L455 157 C399 129 399 129 386 123 C345 105 301 95 269 95 C211 95 177 131 177 191 C177 202 178 212 180 233 L515 233 Z M206 339 C234 412 283 454 340 454 C386 454 421 415 421 362 C421 357 421 350 420 339 L206 339 Z M294 777 C240 777 190 729 190 676 C190 638 218 610 257 610 C310 610 360 659 360 709 C360 750 333 777 294 777 L294 777 Z M523 777 C469 777 419 729 419 676 C419 638 447 610 486 610 C539 610 589 659 589 709 C589 750 562 777 523 777 L523 777 Z " />
<glyph glyph-name="igrave" unicode="&#xec;" horiz-adv-x="600" d="M330 441 L324 411 C320 385 315 357 309 328 L286 220 C280 191 273 163 266 136 C255 87 244 42 234 0 L358 0 C363 26 365 37 367 50 C376 99 387 157 399 220 L422 328 C429 357 443 416 464 506 C467 515 469 523 475 547 L214 547 L191 441 L330 441 Z M371 816 L267 722 L457 575 L536 656 L371 816 Z " />
<glyph glyph-name="iacute" unicode="&#xed;" horiz-adv-x="600" d="M330 441 L324 411 C320 385 315 357 309 328 L286 220 C280 191 273 163 266 136 C255 87 244 42 234 0 L358 0 C363 26 365 37 367 50 C376 99 387 157 399 220 L422 328 C429 357 443 416 464 506 C467 515 469 523 475 547 L214 547 L191 441 L330 441 Z M504 816 L270 656 L315 575 L568 722 L504 816 Z " />
<glyph glyph-name="icircumflex" unicode="&#xee;" horiz-adv-x="600" d="M331 441 L325 411 C321 385 316 357 310 328 L287 220 C281 191 274 163 267 136 C256 87 245 42 235 0 L358 0 C363 26 365 37 367 50 C376 99 387 157 399 220 L422 328 C429 357 443 416 464 506 C467 515 469 523 475 547 L214 547 L191 441 L331 441 Z M419 670 L531 573 L615 646 L450 817 L213 646 L264 573 L419 670 Z " />
<glyph glyph-name="idieresis" unicode="&#xef;" horiz-adv-x="600" d="M330 441 L324 411 C320 385 315 357 309 328 L286 220 C280 191 273 163 266 136 C255 87 244 42 234 0 L358 0 C363 26 365 37 367 50 C376 99 387 157 399 220 L422 328 C429 357 443 416 464 506 C467 515 469 523 475 547 L214 547 L191 441 L330 441 Z M320 777 C266 777 216 729 216 676 C216 638 244 610 283 610 C336 610 386 659 386 709 C386 749 359 777 320 777 L320 777 Z M536 777 C482 777 432 729 432 676 C432 638 460 610 500 610 C552 610 603 659 603 709 C603 750 576 777 536 777 L536 777 Z " />
<glyph glyph-name="eth" unicode="&#xf0;" horiz-adv-x="600" d="M416 683 L490 730 L445 818 L329 744 C275 771 273 771 233 781 L221 784 L136 697 C142 695 148 693 155 691 C166 686 179 681 193 677 C199 674 205 672 210 670 L161 639 L210 554 L306 613 C324 597 329 591 351 563 C246 557 149 480 105 368 C80 305 65 230 65 170 C65 62 135 -14 237 -14 C348 -14 448 61 495 181 C521 245 535 323 535 397 C535 440 528 482 516 520 C498 573 458 642 425 674 L416 683 Z M340 453 C388 453 416 418 416 358 C416 301 399 227 376 180 C348 124 309 95 261 95 C212 95 184 130 184 190 C184 247 201 322 224 368 C252 424 291 453 340 453 L340 453 Z " />
<glyph glyph-name="ntilde" unicode="&#xf1;" horiz-adv-x="600" d="M135 551 L135 507 L135 497 C135 442 125 377 100 260 L92 221 C90 210 70 128 51 50 C46 30 46 27 39 0 L164 0 C168 27 169 32 173 50 C176 69 175 59 178 79 C182 98 186 118 189 137 C194 166 199 194 205 221 L217 278 C225 318 240 348 268 382 C302 423 350 454 379 454 C398 454 411 436 411 410 C411 393 406 361 398 322 L377 221 L357 137 L324 0 L447 0 C449 12 452 24 454 37 C461 70 464 87 473 137 L478 165 L489 221 L515 344 C522 378 527 416 527 438 C527 507 476 563 414 563 C360 563 319 547 248 498 L248 516 C248 521 248 521 247 536 L247 551 L135 551 Z M525 774 C521 769 518 763 514 759 C490 723 484 718 470 718 C462 718 453 722 436 733 L415 747 C380 770 366 775 337 775 C294 775 257 756 221 717 C205 700 205 700 158 633 L252 598 C294 660 300 666 317 666 C327 666 332 664 349 652 L376 633 C399 617 425 609 452 609 C492 609 528 626 560 660 C575 676 584 688 615 736 L525 774 Z " />
<glyph glyph-name="ograve" unicode="&#xf2;" horiz-adv-x="600" d="M358 563 C279 563 196 516 142 439 C97 374 64 262 64 170 C64 62 135 -14 236 -14 C321 -14 405 32 458 108 C500 168 535 288 535 368 C535 489 468 563 358 563 L358 563 Z M339 454 C388 454 416 419 416 359 C416 302 399 228 376 180 C348 124 308 95 260 95 C211 95 183 130 183 190 C183 247 200 323 223 369 C251 425 291 454 339 454 L339 454 Z M357 816 L253 722 L443 575 L522 656 L357 816 Z " />
<glyph glyph-name="oacute" unicode="&#xf3;" horiz-adv-x="600" d="M358 563 C279 563 196 516 142 439 C97 374 64 262 64 170 C64 62 135 -14 236 -14 C321 -14 405 32 458 108 C500 168 535 288 535 368 C535 489 468 563 358 563 L358 563 Z M339 454 C388 454 416 419 416 359 C416 302 399 228 376 180 C348 124 308 95 260 95 C211 95 183 130 183 190 C183 247 200 323 223 369 C251 425 291 454 339 454 L339 454 Z M473 816 L238 656 L284 575 L537 722 L473 816 Z " />
<glyph glyph-name="ocircumflex" unicode="&#xf4;" horiz-adv-x="600" d="M358 563 C279 563 196 516 142 439 C97 374 64 262 64 170 C64 62 135 -14 236 -14 C321 -14 405 32 458 108 C500 168 535 288 535 368 C535 489 468 563 358 563 L358 563 Z M339 454 C388 454 416 419 416 359 C416 302 399 228 376 180 C348 124 308 95 260 95 C211 95 183 130 183 190 C183 247 200 323 223 369 C251 425 291 454 339 454 L339 454 Z M383 670 L496 573 L579 646 L415 817 L177 646 L229 573 L383 670 Z " />
<glyph glyph-name="otilde" unicode="&#xf5;" horiz-adv-x="600" d="M358 563 C279 563 196 516 142 439 C97 374 64 262 64 170 C64 62 135 -14 236 -14 C321 -14 405 32 458 108 C500 168 535 288 535 368 C535 489 468 563 358 563 L358 563 Z M339 454 C388 454 416 419 416 359 C416 302 399 228 376 180 C348 124 308 95 260 95 C211 95 183 130 183 190 C183 247 200 323 223 369 C251 425 291 454 339 454 L339 454 Z M525 774 C488 721 485 718 470 718 C462 718 452 722 436 733 L415 747 C380 770 366 775 337 775 C294 775 257 756 220 717 C205 700 205 700 158 633 L252 598 C294 660 299 666 317 666 C327 666 332 664 349 652 L376 633 C399 617 424 609 452 609 C492 609 528 626 560 660 C575 676 584 688 615 736 L525 774 Z " />
<glyph glyph-name="odieresis" unicode="&#xf6;" horiz-adv-x="600" d="M358 563 C279 563 196 516 142 439 C97 374 64 262 64 170 C64 62 135 -14 236 -14 C321 -14 405 32 458 108 C500 168 535 288 535 368 C535 489 468 563 358 563 L358 563 Z M339 454 C388 454 416 419 416 359 C416 302 399 228 376 180 C348 124 308 95 260 95 C211 95 183 130 183 190 C183 247 200 323 223 369 C251 425 291 454 339 454 L339 454 Z M293 777 C239 777 189 729 189 676 C189 638 217 610 256 610 C309 610 359 659 359 709 C359 750 332 777 293 777 L293 777 Z M522 777 C468 777 418 729 418 676 C418 638 446 610 485 610 C538 610 588 659 588 709 C588 750 561 777 522 777 L522 777 Z " />
<glyph glyph-name="divide" unicode="&#xf7;" horiz-adv-x="600" d="M372 616 C321 616 275 571 275 522 C275 487 301 461 337 461 C387 461 434 506 434 555 C434 590 408 616 372 616 L372 616 Z M625 413 L35 413 L12 307 L602 307 L625 413 Z M297 265 C247 265 201 220 201 171 C201 136 227 110 263 110 C313 110 359 155 359 204 C359 239 333 265 297 265 L297 265 Z " />
<glyph glyph-name="oslash" unicode="&#xf8;" horiz-adv-x="600" d="M595 531 L528 595 L468 529 C436 553 404 563 363 563 C279 563 198 517 143 439 C97 374 64 262 64 170 C64 143 68 121 77 97 L5 18 L72 -46 L131 20 C160 -2 198 -14 236 -14 C348 -14 450 62 496 180 C520 242 535 321 535 381 C535 406 531 428 522 452 L595 531 Z M416 350 C415 304 403 247 385 200 C358 132 314 95 261 95 C238 95 220 103 206 118 L416 350 Z M183 199 C189 349 253 454 338 454 C361 454 381 446 394 431 L183 199 Z " />
<glyph glyph-name="ugrave" unicode="&#xf9;" horiz-adv-x="600" d="M461 0 L461 43 C461 109 468 161 496 290 L504 329 C522 406 540 480 557 551 L432 551 C416 464 408 417 391 329 L382 285 C372 241 360 211 339 183 C303 133 252 98 216 98 C196 98 184 115 184 143 C184 163 186 173 198 228 L219 329 C247 446 265 520 272 551 L148 551 C144 523 143 518 139 500 C133 475 128 446 123 413 C117 389 112 361 107 329 L81 206 C72 165 68 134 68 111 C68 41 121 -11 192 -11 C242 -11 278 4 349 52 L349 49 L349 28 L349 0 L461 0 Z M357 816 L253 722 L443 575 L523 656 L357 816 Z " />
<glyph glyph-name="uacute" unicode="&#xfa;" horiz-adv-x="600" d="M461 0 L461 43 C461 109 468 161 496 290 L504 329 C522 406 540 480 557 551 L432 551 C416 464 408 417 391 329 L382 285 C372 241 360 211 339 183 C303 133 252 98 216 98 C196 98 184 115 184 143 C184 163 186 173 198 228 L219 329 C247 446 265 520 272 551 L148 551 C144 523 143 518 139 500 C133 475 128 446 123 413 C117 389 112 361 107 329 L81 206 C72 165 68 134 68 111 C68 41 121 -11 192 -11 C242 -11 278 4 349 52 L349 49 L349 28 L349 0 L461 0 Z M473 816 L239 656 L284 575 L537 722 L473 816 Z " />
<glyph glyph-name="ucircumflex" unicode="&#xfb;" horiz-adv-x="600" d="M461 0 L461 43 C461 109 468 161 496 290 L504 329 C522 406 540 480 557 551 L432 551 C416 464 408 417 391 329 L382 285 C372 241 360 211 339 183 C303 133 252 98 216 98 C196 98 184 115 184 143 C184 163 186 173 198 228 L219 329 C247 446 265 520 272 551 L148 551 C144 523 143 518 139 500 C133 475 128 446 123 413 C117 389 112 361 107 329 L81 206 C72 165 68 134 68 111 C68 41 121 -11 192 -11 C242 -11 278 4 349 52 L349 49 L349 28 L349 0 L461 0 Z M384 670 L497 573 L580 646 L415 817 L178 646 L230 573 L384 670 Z " />
<glyph glyph-name="udieresis" unicode="&#xfc;" horiz-adv-x="600" d="M461 0 L461 43 C461 109 468 161 496 290 L504 329 C522 406 540 480 557 551 L432 551 C416 464 408 417 391 329 L382 285 C372 241 360 211 339 183 C303 133 252 98 216 98 C196 98 184 115 184 143 C184 163 186 173 198 228 L219 329 C247 446 265 520 272 551 L148 551 C144 523 143 518 139 500 C133 475 128 446 123 413 C117 389 112 361 107 329 L81 206 C72 165 68 134 68 111 C68 41 121 -11 192 -11 C242 -11 278 4 349 52 L349 49 L349 28 L349 0 L461 0 Z M294 777 C240 777 190 729 190 676 C190 638 218 610 257 610 C310 610 360 659 360 710 C360 750 333 777 294 777 L294 777 Z M522 777 C468 777 418 729 418 676 C418 638 446 610 485 610 C538 610 588 659 588 710 C588 750 561 777 522 777 L522 777 Z " />
<glyph glyph-name="yacute" unicode="&#xfd;" horiz-adv-x="600" d="M507 551 L326 244 L281 551 L153 551 L228 82 C218 65 183 11 167 -10 C141 -45 128 -56 113 -56 C94 -56 86 -40 76 17 L73 34 L-38 -18 C-33 -57 -31 -67 -26 -81 C-8 -134 35 -165 90 -165 C166 -165 232 -109 315 27 L636 551 L507 551 Z M518 816 L284 656 L329 575 L582 722 L518 816 Z " />
<glyph glyph-name="thorn" unicode="&#xfe;" horiz-adv-x="600" d="M166 722 C170 655 170 655 170 637 C170 590 162 540 138 426 L54 31 C33 -58 14 -137 -3 -206 L123 -206 C130 -162 131 -154 135 -132 C144 -87 153 -36 161 9 C186 -5 207 -11 236 -11 C399 -11 538 164 538 370 C538 424 527 462 501 496 C470 537 419 563 370 563 C335 563 301 550 271 527 C279 576 282 616 282 666 C282 684 282 702 280 735 L166 722 Z M242 389 C278 436 305 454 340 454 C388 454 420 412 420 347 C420 215 341 98 253 98 C225 98 204 109 187 131 L242 389 Z " />
<glyph glyph-name="ydieresis" unicode="&#xff;" horiz-adv-x="600" d="M507 551 L326 244 L281 551 L153 551 L228 82 C218 65 183 11 167 -10 C141 -45 128 -56 113 -56 C94 -56 86 -40 76 17 L73 34 L-38 -18 C-33 -57 -31 -67 -26 -81 C-8 -134 35 -165 90 -165 C166 -165 232 -109 315 27 L636 551 L507 551 Z M327 777 C273 777 223 729 223 676 C223 638 251 610 290 610 C343 610 393 659 393 709 C393 750 366 777 327 777 L327 777 Z M556 777 C502 777 452 729 452 676 C452 638 480 610 519 610 C572 610 622 659 622 709 C622 750 595 777 556 777 L556 777 Z " />
<glyph glyph-name="Amacron" unicode="&#x100;" horiz-adv-x="600" d="M581 805 L604 911 L267 911 L244 805 L581 805 Z M378 176 L388 0 L512 0 L458 720 L331 720 L-29 0 L94 0 L179 176 L378 176 Z M371 282 L232 282 L354 530 L371 282 Z " />
<glyph glyph-name="amacron" unicode="&#x101;" horiz-adv-x="600" d="M184 411 C197 416 211 421 225 426 C282 448 305 454 333 454 C368 454 389 436 389 406 C389 397 388 387 384 369 C354 380 329 385 304 385 C176 385 67 266 67 126 C67 41 120 -11 208 -11 C249 -11 275 -2 330 31 C330 25 330 25 333 3 L336 -14 L449 0 C442 52 441 59 441 76 C441 104 444 122 456 182 L494 360 C499 384 502 407 502 426 C502 508 445 563 360 563 C309 563 289 558 177 519 L184 411 Z M341 169 C293 116 264 98 229 98 C202 98 185 118 185 150 C185 181 199 220 219 244 C236 264 261 276 288 276 C311 276 327 272 361 259 L341 169 Z M545 632 L567 738 L230 738 L208 632 L545 632 Z " />
<glyph glyph-name="Abreve" unicode="&#x102;" horiz-adv-x="600" d="M248 953 C242 919 241 907 241 894 C241 814 297 773 404 773 C487 773 547 796 589 845 C612 871 622 892 640 953 L533 953 L522 929 C506 891 487 882 428 882 C395 882 370 889 360 900 C356 905 354 912 354 929 L354 953 L248 953 Z M378 176 L388 0 L512 0 L458 720 L331 720 L-29 0 L94 0 L179 176 L378 176 Z M371 282 L232 282 L354 530 L371 282 Z " />
<glyph glyph-name="abreve" unicode="&#x103;" horiz-adv-x="600" d="M184 411 C197 416 211 421 225 426 C282 448 305 454 333 454 C368 454 389 436 389 406 C389 397 388 387 384 369 C354 380 329 385 304 385 C176 385 67 266 67 126 C67 41 120 -11 208 -11 C249 -11 275 -2 330 31 C330 25 330 25 333 3 L336 -14 L449 0 C442 52 441 59 441 76 C441 104 444 122 456 182 L494 360 C499 384 502 407 502 426 C502 508 445 563 360 563 C309 563 289 558 177 519 L184 411 Z M341 169 C293 116 264 98 229 98 C202 98 185 118 185 150 C185 181 199 220 219 244 C236 264 261 276 288 276 C311 276 327 272 361 259 L341 169 Z M211 779 C206 747 205 734 205 721 C205 640 260 599 367 599 C451 599 511 622 553 671 C575 697 585 718 604 779 L496 779 L486 755 C470 718 451 708 391 708 C359 708 333 715 324 726 C319 731 318 738 318 755 L318 779 L211 779 Z " />
<glyph glyph-name="Aogonek" unicode="&#x104;" horiz-adv-x="600" d="M458 720 L331 720 L-29 0 L94 0 L179 176 L378 176 L388 0 C297 -12 228 -80 228 -156 C228 -209 268 -243 330 -243 C372 -243 414 -232 461 -208 L479 -121 C429 -148 404 -156 372 -156 C346 -156 332 -145 332 -124 C332 -94 368 -55 419 -30 C448 -16 465 -10 512 0 L458 720 Z M371 282 L232 282 L354 530 L371 282 Z " />
<glyph glyph-name="aogonek" unicode="&#x105;" horiz-adv-x="600" d="M494 360 C499 384 502 407 502 426 C502 508 445 563 360 563 C309 563 289 558 177 519 L184 411 C197 416 211 421 225 426 C282 448 305 454 333 454 C368 454 389 436 389 406 C389 397 388 387 384 369 C354 380 329 385 304 385 C176 385 67 266 67 126 C67 41 120 -11 208 -11 C249 -11 275 -2 330 31 C330 25 330 25 333 3 L334 -4 C230 -20 165 -78 165 -156 C165 -209 205 -243 266 -243 C309 -243 351 -232 398 -208 L416 -121 C368 -147 341 -156 311 -156 C283 -156 269 -145 269 -124 C269 -95 307 -54 357 -30 C386 -15 400 -11 449 0 C442 54 441 59 441 76 C441 104 444 122 456 182 L494 360 Z M341 169 C293 116 264 98 229 98 C202 98 185 118 185 150 C185 181 199 220 219 244 C236 264 261 276 288 276 C311 276 327 272 361 259 L341 169 Z " />
<glyph glyph-name="Cacute" unicode="&#x106;" horiz-adv-x="600" d="M399 212 C385 167 381 157 371 143 C351 114 317 97 279 97 C222 97 193 135 193 210 C193 327 237 488 289 563 C315 601 355 623 396 623 C435 623 459 604 459 573 C459 565 458 554 453 526 L569 526 C574 562 575 577 575 591 C575 676 512 732 417 732 C333 732 250 687 198 614 C127 513 75 335 75 190 C75 59 138 -12 254 -12 C338 -12 414 24 456 85 C480 119 489 139 513 212 L399 212 Z M540 989 L306 829 L351 749 L604 895 L540 989 Z " />
<glyph glyph-name="cacute" unicode="&#x107;" horiz-adv-x="600" d="M428 187 C399 161 387 150 376 141 C337 109 303 95 268 95 C215 95 178 138 178 202 C178 257 195 324 220 369 C251 423 297 454 348 454 C378 454 404 441 419 417 C426 406 430 395 445 352 L561 419 C536 468 531 478 519 494 C488 537 433 563 374 563 C286 563 200 517 144 441 C92 372 60 271 60 182 C60 62 135 -14 253 -14 C323 -14 390 16 462 79 L491 104 L428 187 Z M481 816 L247 656 L292 575 L545 722 L481 816 Z " />
<glyph glyph-name="Ccaron" unicode="&#x10c;" horiz-adv-x="600" d="M399 212 C385 167 381 157 371 143 C351 114 317 97 279 97 C222 97 193 135 193 210 C193 327 237 488 289 563 C315 601 355 623 396 623 C435 623 459 604 459 573 C459 565 458 554 453 526 L569 526 C574 562 575 577 575 591 C575 676 512 732 417 732 C333 732 250 687 198 614 C127 513 75 335 75 190 C75 59 138 -12 254 -12 C338 -12 414 24 456 85 C480 119 489 139 513 212 L399 212 Z M446 892 L333 990 L250 917 L415 746 L652 917 L600 990 L446 892 Z " />
<glyph glyph-name="ccaron" unicode="&#x10d;" horiz-adv-x="600" d="M428 187 C399 161 387 150 376 141 C337 109 303 95 268 95 C215 95 178 138 178 202 C178 257 195 324 220 369 C251 423 297 454 348 454 C378 454 404 441 419 417 C426 406 430 395 445 352 L561 419 C536 468 531 478 519 494 C488 537 433 563 374 563 C286 563 200 517 144 441 C92 372 60 271 60 182 C60 62 135 -14 253 -14 C323 -14 390 16 462 79 L491 104 L428 187 Z M399 720 L286 817 L203 744 L368 573 L605 744 L553 817 L399 720 Z " />
<glyph glyph-name="Dcaron" unicode="&#x10e;" horiz-adv-x="600" d="M178 720 L169 671 C159 614 148 558 137 501 L77 219 C57 131 39 58 25 0 L202 0 C319 0 397 37 448 117 C510 214 557 391 557 526 C557 597 538 647 499 680 C466 709 425 720 355 720 L178 720 Z M165 106 L273 614 L328 614 C412 614 442 587 442 510 C442 471 436 426 422 360 C403 269 386 220 362 176 C334 127 292 106 220 106 L165 106 Z M409 892 L296 990 L213 917 L378 746 L615 917 L563 990 L409 892 Z " />
<glyph glyph-name="dcaron" unicode="&#x10f;" horiz-adv-x="600" d="M428 733 C423 706 412 642 394 542 C369 557 348 563 319 563 C156 563 17 388 17 182 C17 67 87 -11 191 -11 C231 -11 257 -3 306 25 L311 -14 L425 0 C420 67 420 67 420 84 C420 131 425 161 453 294 L501 520 C530 642 547 713 552 733 L428 733 Z M313 162 C278 116 250 98 215 98 C167 98 135 141 135 204 C135 337 213 454 303 454 C331 454 351 443 368 420 L313 162 Z M669 732 L511 539 L590 485 L768 672 L669 732 Z " />
<glyph glyph-name="Dcroat" unicode="&#x110;" horiz-adv-x="600" d="M100 324 L78 220 C57 131 39 57 25 0 L202 0 C319 0 397 37 448 117 C510 215 557 392 557 526 C557 597 538 647 500 680 C466 709 426 720 356 720 L178 720 L169 671 C159 614 148 557 137 501 L122 430 L49 430 L27 324 L100 324 Z M212 324 L325 324 L347 430 L234 430 L273 614 L329 614 C412 614 442 587 442 510 C442 472 436 426 422 361 C403 271 387 221 362 177 C334 127 292 106 221 106 L165 106 L212 324 Z " />
<glyph glyph-name="dcroat" unicode="&#x111;" horiz-adv-x="600" d="M579 657 L597 733 L474 733 C469 706 467 697 465 684 L462 670 L460 657 L301 657 L283 574 L446 574 L435 522 C410 537 389 543 360 543 C198 543 61 376 61 177 C61 125 73 86 99 53 C132 12 181 -11 236 -11 C276 -11 303 -3 352 25 C353 11 354 7 356 -14 L470 0 L468 40 C466 62 466 71 466 85 C466 131 472 169 498 294 L558 574 L631 574 L649 657 L579 657 Z M358 162 C322 115 296 98 260 98 C212 98 179 139 179 200 C179 326 255 434 343 434 C372 434 392 424 409 400 L358 162 Z " />
<glyph glyph-name="Emacron" unicode="&#x112;" horiz-adv-x="600" d="M196 720 C194 708 191 696 189 683 C184 657 181 638 155 500 L95 219 L55 49 C50 29 49 28 43 0 L447 0 L469 106 L183 106 L228 315 L431 315 L453 421 L250 421 L291 614 L570 614 L593 720 L196 720 Z M581 805 L603 911 L266 911 L244 805 L581 805 Z " />
<glyph glyph-name="emacron" unicode="&#x113;" horiz-adv-x="600" d="M515 233 C532 307 536 337 536 378 C536 489 468 563 367 563 C200 563 60 391 60 185 C60 59 126 -14 242 -14 C294 -14 350 -2 416 22 C419 23 441 32 483 48 L455 157 L386 123 C344 105 302 95 269 95 C211 95 177 131 177 191 C177 202 178 212 180 233 L515 233 Z M206 339 C234 412 283 454 340 454 C386 454 421 415 421 362 C421 357 421 350 420 339 L206 339 Z M545 632 L567 738 L230 738 L208 632 L545 632 Z " />
<glyph glyph-name="Edotaccent" unicode="&#x116;" horiz-adv-x="600" d="M196 720 C194 708 191 696 189 683 C184 657 181 638 155 500 L95 219 L55 49 C50 29 49 28 43 0 L447 0 L469 106 L183 106 L228 315 L431 315 L453 421 L250 421 L291 614 L570 614 L593 720 L196 720 Z M445 953 C391 953 341 905 341 852 C341 814 369 786 408 786 C461 786 511 835 511 885 C511 926 484 953 445 953 L445 953 Z " />
<glyph glyph-name="edotaccent" unicode="&#x117;" horiz-adv-x="600" d="M515 233 C532 307 536 337 536 378 C536 489 468 563 367 563 C200 563 60 391 60 185 C60 59 126 -14 240 -14 C294 -14 350 -2 416 22 C419 23 441 32 483 48 L455 157 C399 129 399 129 386 123 C345 105 301 95 269 95 C211 95 177 131 177 191 C177 202 178 212 180 233 L515 233 Z M206 339 C234 412 283 454 340 454 C386 454 421 415 421 362 C421 357 421 350 420 339 L206 339 Z M408 777 C354 777 304 729 304 676 C304 638 332 610 371 610 C424 610 474 659 474 709 C474 750 447 777 408 777 L408 777 Z " />
<glyph glyph-name="Eogonek" unicode="&#x118;" horiz-adv-x="600" d="M469 106 L183 106 L228 315 L431 315 L453 421 L250 421 L291 614 L570 614 L593 720 L196 720 C194 708 191 696 189 683 C184 657 181 638 155 500 L95 219 L55 49 C50 29 49 28 43 0 L323 0 C232 -12 163 -80 163 -156 C163 -209 203 -243 264 -243 C307 -243 349 -232 396 -208 L414 -121 C367 -146 338 -156 311 -156 C281 -156 267 -146 267 -124 C267 -94 305 -54 354 -30 C383 -16 400 -10 447 0 L469 106 Z " />
<glyph glyph-name="eogonek" unicode="&#x119;" horiz-adv-x="600" d="M455 157 C399 129 399 129 386 123 C345 105 301 95 269 95 C211 95 177 131 177 191 C177 202 178 212 180 233 L515 233 C532 307 536 337 536 378 C536 489 468 563 367 563 C200 563 60 391 60 185 C60 57 126 -14 245 -14 C263 -14 277 -13 299 -10 C225 -39 182 -93 182 -156 C182 -209 221 -243 283 -243 C325 -243 368 -232 414 -208 L433 -121 C384 -147 357 -156 328 -156 C300 -156 286 -145 286 -124 C286 -100 315 -60 357 -26 C388 -1 428 23 483 48 L455 157 Z M206 339 C234 412 283 454 340 454 C386 454 421 415 421 362 C421 357 421 350 420 339 L206 339 Z " />
<glyph glyph-name="Ecaron" unicode="&#x11a;" horiz-adv-x="600" d="M196 720 C194 708 191 696 189 683 C184 657 181 638 155 500 L95 219 L55 49 C50 29 49 28 43 0 L447 0 L469 106 L183 106 L228 315 L431 315 L453 421 L250 421 L291 614 L571 614 L594 720 L196 720 Z M431 892 L318 990 L236 917 L400 746 L638 917 L586 990 L431 892 Z " />
<glyph glyph-name="ecaron" unicode="&#x11b;" horiz-adv-x="600" d="M515 233 C532 307 536 337 536 378 C536 489 468 563 367 563 C200 563 60 391 60 185 C60 59 126 -14 240 -14 C294 -14 350 -2 416 22 C419 23 441 32 483 48 L455 157 C399 129 399 129 386 123 C345 105 301 95 269 95 C211 95 177 131 177 191 C177 202 178 212 180 233 L515 233 Z M206 339 C234 412 283 454 340 454 C386 454 421 415 421 362 C421 357 421 350 420 339 L206 339 Z M400 720 L287 817 L204 744 L369 573 L606 744 L554 817 L400 720 Z " />
<glyph glyph-name="Gbreve" unicode="&#x11e;" horiz-adv-x="600" d="M419 276 C406 219 395 191 377 163 C348 121 308 97 265 97 C211 97 183 135 183 209 C183 315 230 493 274 558 C303 599 341 623 379 623 C414 623 436 600 436 564 C436 552 436 549 425 499 L546 499 C552 545 554 563 554 579 C554 669 492 732 403 732 C338 732 275 706 224 657 C165 601 127 522 95 389 C73 301 63 236 63 184 C63 61 126 -12 234 -12 C280 -12 324 0 365 25 L360 0 L472 0 L553 382 L281 382 L259 276 L419 276 Z M255 953 C249 920 248 908 248 895 C248 814 303 773 411 773 C494 773 555 796 596 845 C619 871 629 893 648 953 L540 953 L530 929 C514 892 494 882 435 882 C402 882 377 889 368 900 C363 905 362 912 362 929 L362 953 L255 953 Z " />
<glyph glyph-name="gbreve" unicode="&#x11f;" horiz-adv-x="600" d="M477 551 L467 531 C425 557 403 563 359 563 C289 563 224 535 176 484 C113 418 72 313 72 218 C72 105 135 36 238 36 C280 36 311 43 348 62 L345 49 C327 -16 284 -54 227 -54 C181 -54 157 -37 123 17 L20 -59 C28 -68 35 -77 42 -87 C83 -137 138 -163 203 -163 C268 -163 337 -133 385 -83 C423 -44 448 6 462 69 L529 385 C540 436 554 475 589 551 L477 551 Z M377 197 C341 163 301 145 263 145 C219 145 191 183 191 242 C191 357 257 454 334 454 C369 454 401 437 422 406 L377 197 Z M213 779 C207 747 206 735 206 721 C206 640 261 599 369 599 C452 599 513 622 554 671 C576 697 587 718 605 779 L498 779 L487 755 C472 718 452 708 392 708 C360 708 335 715 325 726 C321 731 319 738 319 755 L319 779 L213 779 Z " />
<glyph glyph-name="Gcommaaccent" unicode="&#x122;" horiz-adv-x="600" d="M419 276 C406 219 395 191 377 163 C348 121 308 97 265 97 C211 97 183 135 183 209 C183 315 230 493 274 558 C303 599 341 623 379 623 C414 623 436 600 436 564 C436 552 436 549 425 499 L546 499 C552 545 554 563 554 579 C554 669 492 732 403 732 C338 732 275 706 224 657 C165 601 127 522 95 389 C73 301 63 236 63 184 C63 61 126 -12 234 -12 C280 -12 324 0 365 25 L360 0 L472 0 L553 382 L281 382 L259 276 L419 276 Z M233 -40 L74 -233 L153 -287 L331 -100 L233 -40 Z " />
<glyph glyph-name="gcommaaccent" unicode="&#x123;" horiz-adv-x="600" d="M477 551 L467 531 C425 557 403 563 359 563 C289 563 224 535 176 484 C113 418 72 313 72 218 C72 105 135 36 238 36 C280 36 311 43 348 62 L345 49 C327 -16 284 -54 227 -54 C181 -54 157 -37 123 17 L20 -59 C28 -68 35 -77 42 -87 C83 -137 138 -163 203 -163 C268 -163 337 -133 385 -83 C423 -44 448 6 462 69 L529 385 C540 436 554 475 589 551 L477 551 Z M377 197 C341 163 301 145 263 145 C219 145 191 183 191 242 C191 357 257 454 334 454 C369 454 401 437 422 406 L377 197 Z M400 605 L558 798 L479 852 L301 665 L400 605 Z " />
<glyph glyph-name="Imacron" unicode="&#x12a;" horiz-adv-x="600" d="M314 614 L308 584 C303 555 298 527 292 501 L233 219 L206 106 L115 106 L92 0 L391 0 L414 106 L323 106 C336 173 342 203 345 219 L404 501 C410 525 414 542 431 614 L522 614 L544 720 L245 720 L223 614 L314 614 Z M581 805 L604 911 L267 911 L244 805 L581 805 Z " />
<glyph glyph-name="imacron" unicode="&#x12b;" horiz-adv-x="600" d="M331 441 L325 411 C321 385 316 357 310 328 L287 220 C281 191 274 163 267 136 C256 87 245 42 235 0 L359 0 C364 26 366 37 368 50 C377 99 388 157 400 220 L423 328 C430 357 444 416 465 506 C468 515 470 523 476 547 L215 547 L192 441 L331 441 Z M566 632 L588 738 L251 738 L229 632 L566 632 Z " />
<glyph glyph-name="Iogonek" unicode="&#x12e;" horiz-adv-x="600" d="M414 106 L323 106 C336 173 342 203 345 219 L404 501 C410 525 414 542 431 614 L522 614 L544 720 L245 720 L223 614 L314 614 L308 584 C303 555 298 527 292 501 L233 219 L206 106 L115 106 L92 0 L268 0 C195 -13 137 -84 137 -159 C137 -211 173 -244 228 -244 C264 -244 300 -233 340 -208 L359 -121 C318 -147 296 -156 272 -156 C251 -156 241 -146 241 -126 C241 -96 273 -55 315 -30 C339 -16 353 -10 391 0 L414 106 Z " />
<glyph glyph-name="iogonek" unicode="&#x12f;" horiz-adv-x="600" d="M216 547 L194 441 L333 441 L327 411 C323 380 317 352 312 328 L289 220 L237 0 C186 -14 138 -90 138 -158 C138 -209 178 -244 237 -244 C269 -244 296 -233 330 -208 L349 -121 C314 -150 301 -156 278 -156 C256 -156 242 -143 242 -123 C242 -98 270 -55 303 -30 C321 -16 333 -10 361 0 C367 31 367 33 368 41 L402 220 L425 328 C453 445 465 496 478 547 L216 547 Z M457 734 C403 734 353 686 353 633 C353 595 381 567 420 567 C473 567 523 616 523 666 C523 707 496 734 457 734 L457 734 Z " />
<glyph glyph-name="Idotaccent" unicode="&#x130;" horiz-adv-x="600" d="M314 614 L308 584 C303 555 298 527 292 501 L233 219 L206 106 L115 106 L92 0 L391 0 L414 106 L323 106 C336 173 342 203 345 219 L404 501 C410 525 414 542 431 614 L522 614 L544 720 L245 720 L223 614 L314 614 Z M445 953 C391 953 341 905 341 852 C341 814 369 786 408 786 C461 786 511 835 511 885 C511 926 484 953 445 953 L445 953 Z " />
<glyph glyph-name="dotlessi" unicode="&#x131;" horiz-adv-x="600" d="M330 441 L324 411 C320 385 315 357 309 328 L286 220 C280 191 273 163 266 136 C255 87 244 42 234 0 L358 0 C363 26 365 37 367 50 C376 99 387 157 399 220 L422 328 C429 357 443 416 464 506 C467 515 469 523 475 547 L214 547 L191 441 L330 441 Z " />
<glyph glyph-name="Kcommaaccent" unicode="&#x136;" horiz-adv-x="600" d="M179 282 L348 0 L502 0 L275 358 C357 410 440 501 570 679 L470 737 C392 596 320 510 210 428 L225 500 C245 585 263 659 278 720 L154 720 C141 651 128 578 113 500 L54 220 C14 52 12 43 1 0 L125 0 C132 39 132 40 138 74 C145 114 158 181 166 220 L179 282 Z M220 -40 L61 -233 L140 -287 L318 -100 L220 -40 Z " />
<glyph glyph-name="kcommaaccent" unicode="&#x137;" horiz-adv-x="600" d="M187 733 C185 720 182 707 180 696 C170 644 164 612 161 596 C157 564 151 536 146 512 L84 220 C77 193 70 165 64 136 C52 86 41 40 31 0 L154 0 C171 95 172 97 194 211 L205 220 L344 0 L498 0 L299 294 C376 356 458 434 570 551 L422 551 L404 530 C366 485 287 409 225 359 L258 512 C276 592 294 665 310 733 L187 733 Z M230 -40 L71 -233 L150 -287 L328 -100 L230 -40 Z " />
<glyph glyph-name="Lacute" unicode="&#x139;" horiz-adv-x="600" d="M44 0 L453 0 L475 106 L188 106 C199 173 204 197 208 219 L268 500 L287 584 C299 631 309 676 320 720 L197 720 C188 670 174 597 156 500 L96 219 C90 191 83 163 76 135 L44 0 Z M510 989 L276 829 L321 749 L574 895 L510 989 Z " />
<glyph glyph-name="lacute" unicode="&#x13a;" horiz-adv-x="600" d="M373 627 L367 597 L352 513 L290 220 C270 138 253 65 238 0 L361 0 C363 13 365 25 367 37 C378 97 390 158 402 220 L464 513 L504 683 C507 697 510 707 516 733 L257 733 L234 627 L373 627 Z M545 989 L311 829 L356 749 L609 895 L545 989 Z " />
<glyph glyph-name="Lcommaaccent" unicode="&#x13b;" horiz-adv-x="600" d="M44 0 L453 0 L475 106 L188 106 C199 173 204 197 208 219 L268 500 L287 584 C299 631 309 676 320 720 L197 720 C188 670 174 597 156 500 L96 219 C90 191 83 163 76 135 L44 0 Z M233 -40 L74 -233 L154 -287 L332 -100 L233 -40 Z " />
<glyph glyph-name="lcommaaccent" unicode="&#x13c;" horiz-adv-x="600" d="M375 627 L369 597 L354 513 L291 220 C272 138 255 65 239 0 L363 0 L369 37 C384 119 386 126 403 220 L466 513 L472 541 L485 597 C492 625 499 654 506 683 C510 700 511 706 518 733 L257 733 L235 627 L375 627 Z M291 -40 L132 -233 L211 -287 L389 -100 L291 -40 Z " />
<glyph glyph-name="Lcaron" unicode="&#x13d;" horiz-adv-x="600" d="M44 0 L453 0 L475 106 L188 106 C199 173 204 197 208 219 L268 500 L287 584 C299 631 309 676 320 720 L197 720 C188 670 174 597 156 500 L96 219 C90 191 83 163 76 135 L44 0 Z M519 732 L360 539 L440 485 L618 672 L519 732 Z " />
<glyph glyph-name="lcaron" unicode="&#x13e;" horiz-adv-x="600" d="M320 627 L314 597 L299 513 L237 220 C217 138 200 65 185 0 L308 0 C310 13 312 25 314 37 C325 97 337 158 349 220 L411 513 L451 683 C454 697 457 707 463 733 L204 733 L181 627 L320 627 Z M586 732 L427 539 L506 485 L684 672 L586 732 Z " />
<glyph glyph-name="Lslash" unicode="&#x141;" horiz-adv-x="600" d="M237 358 L314 386 C324 390 334 393 343 397 C352 401 361 405 371 407 C382 410 391 413 400 416 L427 540 C356 508 306 485 275 472 L260 467 L267 500 C274 527 280 554 287 584 C294 613 301 643 308 675 C312 690 313 695 319 720 L196 720 C194 707 192 695 190 683 C186 663 185 659 155 500 L139 422 L110 412 C90 404 69 396 53 392 C41 388 31 385 23 383 L-3 259 L116 313 L95 219 C89 189 82 162 76 135 C62 76 55 50 43 0 L452 0 L475 106 L187 106 C199 174 203 198 207 219 L237 358 Z " />
<glyph glyph-name="lslash" unicode="&#x142;" horiz-adv-x="600" d="M464 514 C491 625 508 698 517 733 L257 733 L234 627 L373 627 L368 597 C363 570 358 542 352 514 L342 463 L203 406 L177 282 L315 340 L290 220 L238 0 L361 0 C363 12 365 24 368 37 C379 96 390 159 402 220 L438 390 L564 442 L590 566 L464 514 Z " />
<glyph glyph-name="Nacute" unicode="&#x143;" horiz-adv-x="600" d="M475 720 C473 708 471 696 469 683 C466 672 463 659 461 642 C447 567 438 520 434 501 L393 304 L315 720 L197 720 L91 220 C72 141 54 68 38 0 L161 0 C173 61 186 135 203 220 L252 450 L338 -7 L438 -7 L546 501 C567 586 584 660 599 720 L475 720 Z M533 989 L299 829 L344 749 L597 895 L533 989 Z " />
<glyph glyph-name="nacute" unicode="&#x144;" horiz-adv-x="600" d="M135 551 L135 507 L135 497 C135 442 125 377 100 260 L92 221 C90 210 70 128 51 50 C46 30 46 27 39 0 L164 0 C168 27 169 32 173 50 C176 69 175 59 178 79 C182 98 186 118 189 137 C194 166 199 194 205 221 L217 278 C225 319 240 348 268 382 C302 423 350 454 379 454 C398 454 411 436 411 410 C411 392 407 362 398 322 L377 221 L357 137 L324 0 L447 0 C449 12 452 24 454 37 C461 70 464 87 473 137 L478 165 L489 221 L515 344 C522 378 527 416 527 438 C527 507 476 563 414 563 C360 563 319 547 248 498 L248 516 C248 521 248 521 247 536 L247 551 L135 551 Z M490 816 L256 656 L301 575 L554 722 L490 816 Z " />
<glyph glyph-name="Ncommaaccent" unicode="&#x145;" horiz-adv-x="600" d="M475 720 C473 708 471 696 469 683 C466 672 463 659 461 642 C447 567 438 520 434 501 L393 304 L315 720 L197 720 L91 220 C72 141 54 68 38 0 L161 0 C173 61 186 135 203 220 L252 450 L338 -7 L438 -7 L546 501 C567 586 584 660 599 720 L475 720 Z M233 -40 L74 -233 L154 -287 L332 -100 L233 -40 Z " />
<glyph glyph-name="ncommaaccent" unicode="&#x146;" horiz-adv-x="600" d="M135 551 L135 507 L135 497 C135 442 125 377 100 260 L92 221 C90 210 70 128 51 50 C46 30 46 27 39 0 L164 0 C168 27 169 32 173 50 C176 69 175 59 178 79 C182 98 186 118 189 137 C194 166 199 194 205 221 L217 278 C225 319 240 348 268 382 C302 423 350 454 379 454 C398 454 411 436 411 410 C411 392 407 362 398 322 L377 221 L357 137 L324 0 L447 0 C449 12 452 24 454 37 C461 70 464 87 473 137 L478 165 L489 221 L515 344 C522 378 527 416 527 438 C527 507 476 563 414 563 C360 563 319 547 248 498 L248 516 C248 521 248 521 247 536 L247 551 L135 551 Z M231 -40 L72 -233 L151 -287 L329 -100 L231 -40 Z " />
<glyph glyph-name="Ncaron" unicode="&#x147;" horiz-adv-x="600" d="M475 720 C473 708 471 696 469 683 C466 672 463 659 461 642 C447 567 438 520 434 501 L393 304 L315 720 L197 720 L91 220 C72 141 54 68 38 0 L161 0 C173 61 186 135 203 220 L252 450 L338 -7 L438 -7 L546 501 C567 586 584 660 599 720 L475 720 Z M431 892 L318 990 L235 917 L400 746 L637 917 L586 990 L431 892 Z " />
<glyph glyph-name="ncaron" unicode="&#x148;" horiz-adv-x="600" d="M135 551 L135 507 L135 497 C135 442 125 377 100 260 L92 221 C90 210 70 128 51 50 C46 30 46 27 39 0 L164 0 C168 27 169 32 173 50 C176 69 175 59 178 79 C182 98 186 118 189 137 C194 166 199 194 205 221 L217 278 C225 319 240 348 268 382 C302 423 350 454 379 454 C398 454 411 436 411 410 C411 392 407 362 398 322 L377 221 L357 137 L324 0 L447 0 C449 12 452 24 454 37 C461 70 464 87 473 137 L478 165 L489 221 L515 344 C522 378 527 416 527 438 C527 507 476 563 414 563 C360 563 319 547 248 498 L248 516 C248 521 248 521 247 536 L247 551 L135 551 Z M399 720 L286 817 L202 744 L368 573 L605 744 L554 817 L399 720 Z " />
<glyph glyph-name="Omacron" unicode="&#x14c;" horiz-adv-x="600" d="M399 732 C333 732 267 703 216 652 C164 600 130 529 101 409 C80 325 65 227 65 175 C65 63 134 -12 237 -12 C336 -12 420 42 475 140 C522 225 571 430 571 545 C571 657 502 732 399 732 L399 732 Z M375 623 C424 623 452 583 452 512 C452 445 419 285 391 216 C359 139 314 97 261 97 C212 97 184 137 184 208 C184 275 218 436 246 504 C277 581 323 623 375 623 L375 623 Z M581 805 L604 911 L267 911 L244 805 L581 805 Z " />
<glyph glyph-name="omacron" unicode="&#x14d;" horiz-adv-x="600" d="M358 563 C279 563 196 516 142 439 C97 374 64 262 64 170 C64 62 135 -14 236 -14 C321 -14 405 32 458 108 C500 168 535 288 535 368 C535 489 468 563 358 563 L358 563 Z M339 454 C388 454 416 419 416 359 C416 302 399 228 376 180 C348 124 308 95 260 95 C211 95 183 130 183 190 C183 247 200 323 223 369 C251 425 291 454 339 454 L339 454 Z M544 632 L567 738 L230 738 L207 632 L544 632 Z " />
<glyph glyph-name="Ohungarumlaut" unicode="&#x150;" horiz-adv-x="600" d="M399 732 C333 732 267 703 216 652 C164 600 130 529 101 409 C80 325 65 227 65 175 C65 63 134 -12 237 -12 C336 -12 420 42 475 140 C522 225 571 430 571 545 C571 657 502 732 399 732 L399 732 Z M375 623 C424 623 452 583 452 512 C452 445 419 285 391 216 C359 139 314 97 261 97 C212 97 184 137 184 208 C184 275 218 436 246 504 C277 581 323 623 375 623 L375 623 Z M665 999 L446 819 L499 742 L738 912 L665 999 Z M444 999 L225 818 L278 742 L516 911 L444 999 Z " />
<glyph glyph-name="ohungarumlaut" unicode="&#x151;" horiz-adv-x="600" d="M358 563 C279 563 196 516 142 439 C97 374 64 262 64 170 C64 62 135 -14 236 -14 C321 -14 405 32 458 108 C500 168 535 288 535 368 C535 489 468 563 358 563 L358 563 Z M339 454 C388 454 416 419 416 359 C416 302 399 228 376 180 C348 124 308 95 260 95 C211 95 183 130 183 190 C183 247 200 323 223 369 C251 425 291 454 339 454 L339 454 Z M619 825 L400 645 L453 568 L692 738 L619 825 Z M398 825 L179 644 L232 568 L470 737 L398 825 Z " />
<glyph glyph-name="OE" unicode="&#x152;" horiz-adv-x="600" d="M509 0 L531 106 L364 106 L409 315 L515 315 L537 421 L431 421 L472 614 L633 614 L656 720 L406 720 C373 729 353 732 333 732 C278 732 210 700 162 652 C109 599 76 528 46 408 C26 326 11 224 11 172 C11 64 82 -12 182 -12 C208 -12 232 -8 259 0 L509 0 Z M276 219 C268 182 259 145 250 108 C234 100 221 97 206 97 C159 97 130 138 130 207 C130 274 164 436 192 504 C223 581 269 623 320 623 C333 623 345 620 357 612 C354 594 347 556 336 500 L276 219 Z " />
<glyph glyph-name="oe" unicode="&#x153;" horiz-adv-x="600" d="M520 146 C411 101 390 95 354 95 C334 95 322 103 323 115 C323 121 324 127 325 133 L347 233 L567 233 L578 288 C587 331 592 368 592 399 C592 503 541 563 452 563 C422 563 396 559 363 549 C335 558 311 563 287 563 C216 563 134 513 84 438 C40 372 8 258 8 169 C8 65 73 -14 159 -14 C184 -14 211 -9 240 2 C265 -9 292 -14 326 -14 C380 -14 428 -1 514 36 C525 41 528 42 543 48 L520 146 Z M205 95 L190 95 L184 95 C151 95 126 135 126 188 C126 243 143 320 166 368 C192 422 229 454 265 454 C269 454 273 454 281 453 L205 95 Z M369 339 L386 419 C392 445 402 454 426 454 C461 454 482 423 482 373 L481 339 L369 339 Z " />
<glyph glyph-name="Racute" unicode="&#x154;" horiz-adv-x="600" d="M212 279 L242 279 L280 279 L382 0 L521 0 L400 304 C497 358 553 454 553 562 C553 621 532 666 493 692 C461 713 427 720 362 720 L188 720 C179 667 165 593 147 499 L88 220 C69 141 51 67 35 0 L159 0 C169 56 182 129 200 220 L212 279 Z M234 384 L283 614 L314 614 C411 614 436 600 436 544 C436 493 413 442 377 411 C356 394 324 384 288 384 L234 384 Z M510 989 L276 829 L321 749 L574 895 L510 989 Z " />
<glyph glyph-name="racute" unicode="&#x155;" horiz-adv-x="600" d="M190 0 C196 36 199 51 231 222 L236 244 C256 337 350 454 405 454 C416 454 422 446 422 432 C422 417 419 394 411 347 L525 347 C536 408 538 425 538 450 C538 519 497 563 433 563 C380 563 332 540 274 488 L274 551 L161 551 L160 507 L160 497 C160 443 149 360 127 260 L119 222 C113 195 106 167 99 138 C92 109 85 80 78 50 C73 30 73 29 66 0 L190 0 Z M525 816 L291 656 L336 575 L589 722 L525 816 Z " />
<glyph glyph-name="Rcommaaccent" unicode="&#x156;" horiz-adv-x="600" d="M211 279 L242 279 L280 279 L382 0 L521 0 L400 304 C497 358 554 453 554 562 C554 621 533 666 493 692 C462 713 428 720 363 720 L187 720 C178 667 164 593 146 499 L87 220 C68 141 50 67 34 0 L159 0 C169 59 182 132 199 220 L211 279 Z M233 384 L282 614 L314 614 C412 614 437 600 437 543 C437 493 414 442 378 411 C357 394 325 384 288 384 L233 384 Z M233 -40 L74 -233 L153 -287 L331 -100 L233 -40 Z " />
<glyph glyph-name="rcommaaccent" unicode="&#x157;" horiz-adv-x="600" d="M190 0 C196 36 199 51 231 222 L236 244 C256 337 350 454 405 454 C416 454 422 446 422 431 C422 417 419 394 411 347 L525 347 C536 408 538 425 538 450 C538 519 497 563 433 563 C380 563 332 540 274 488 L274 551 L161 551 L160 507 L160 497 C160 443 149 361 127 260 L119 222 C92 110 79 53 66 0 L190 0 Z M124 -40 L-35 -233 L44 -287 L222 -100 L124 -40 Z " />
<glyph glyph-name="Rcaron" unicode="&#x158;" horiz-adv-x="600" d="M212 279 L242 279 L280 279 L382 0 L521 0 L400 304 C497 358 553 454 553 562 C553 621 532 666 493 692 C461 713 427 720 362 720 L188 720 C179 667 165 593 147 499 L88 220 C69 141 51 67 35 0 L159 0 C169 56 182 129 200 220 L212 279 Z M234 384 L283 614 L314 614 C411 614 436 600 436 544 C436 493 413 442 377 411 C356 394 324 384 288 384 L234 384 Z M414 892 L301 990 L218 917 L383 746 L620 917 L568 990 L414 892 Z " />
<glyph glyph-name="rcaron" unicode="&#x159;" horiz-adv-x="600" d="M191 0 C197 36 200 51 232 222 L237 244 C257 337 351 454 406 454 C417 454 423 446 423 432 C423 417 420 394 412 347 L526 347 C537 408 539 425 539 450 C539 519 498 563 434 563 C381 563 333 540 275 488 L275 551 L162 551 L161 507 L161 497 C161 443 150 360 128 260 L120 222 C114 195 107 167 100 138 C93 109 86 80 79 50 C74 30 74 29 67 0 L191 0 Z M395 720 L282 817 L199 744 L364 573 L601 744 L549 817 L395 720 Z " />
<glyph glyph-name="Sacute" unicode="&#x15a;" horiz-adv-x="600" d="M602 626 C542 700 482 732 405 732 C273 732 161 627 161 503 C161 448 191 399 250 359 L321 312 C382 270 399 250 399 220 C399 154 338 97 267 97 C234 97 207 109 182 136 C169 150 169 150 145 200 L39 128 C63 87 66 82 76 70 C118 15 175 -12 250 -12 C325 -12 392 15 442 65 C489 114 518 182 518 246 C518 308 489 348 400 408 L336 451 C299 476 280 503 280 532 C280 580 329 623 384 623 C413 623 439 612 466 590 C477 580 488 569 515 543 L602 626 Z M546 989 L312 829 L357 749 L610 895 L546 989 Z " />
<glyph glyph-name="sacute" unicode="&#x15b;" horiz-adv-x="600" d="M549 487 C525 506 517 513 510 517 C468 549 424 563 373 563 C257 563 154 474 154 374 C154 315 190 271 264 240 L312 220 C351 204 367 188 367 163 C367 123 335 95 289 95 C232 95 196 117 138 189 L51 93 C77 66 85 58 100 47 C149 8 210 -14 266 -14 C385 -14 485 77 485 185 C485 250 449 292 365 327 L327 342 C290 358 272 374 272 395 C272 424 310 454 347 454 C372 454 401 444 428 424 C436 419 443 413 474 388 L549 487 Z M501 816 L267 656 L312 575 L565 722 L501 816 Z " />
<glyph glyph-name="Scedilla" unicode="&#x15e;" horiz-adv-x="600" d="M302 -7 C335 -1 356 6 382 20 C463 64 518 156 518 246 C518 308 489 348 400 408 L336 451 C299 476 280 503 280 532 C280 580 329 623 384 623 C413 623 439 612 466 590 C477 580 488 569 515 543 L602 626 C542 700 482 732 405 732 C273 732 161 627 161 503 C161 448 191 399 250 359 L321 312 C382 270 399 250 399 220 C399 154 338 97 267 97 C234 97 207 109 182 136 C169 150 169 150 145 200 L39 128 C87 42 124 10 196 -7 L157 -72 C225 -77 254 -91 254 -117 C254 -146 228 -169 196 -169 C176 -169 163 -165 120 -145 L110 -140 L66 -211 C136 -243 157 -250 195 -250 C277 -250 348 -183 348 -106 C348 -64 329 -36 291 -23 L302 -7 Z " />
<glyph glyph-name="scedilla" unicode="&#x15f;" horiz-adv-x="600" d="M299 -12 C407 5 485 88 485 185 C485 249 449 292 365 326 L327 342 C290 357 272 374 272 395 C272 424 310 454 347 454 C372 454 401 443 428 424 C436 419 436 419 474 388 L549 487 C526 506 517 512 510 517 C468 549 424 563 373 563 C304 563 245 537 200 485 C170 450 154 413 154 374 C154 314 190 270 264 240 L312 220 C351 204 367 188 367 163 C367 123 335 95 289 95 C232 95 196 117 138 189 L51 93 C99 40 140 13 198 -4 L156 -72 C227 -78 254 -91 254 -118 C254 -146 228 -169 196 -169 C175 -169 164 -165 120 -145 L110 -140 L66 -211 C134 -243 158 -250 195 -250 C277 -250 348 -183 348 -106 C348 -64 329 -37 290 -23 L299 -12 Z " />
<glyph glyph-name="Scaron" unicode="&#x160;" horiz-adv-x="600" d="M602 626 C542 700 482 732 405 732 C273 732 161 627 161 503 C161 448 191 399 250 359 L321 312 C382 270 399 250 399 220 C399 154 338 97 267 97 C234 97 207 109 182 136 C169 150 169 150 145 200 L39 128 C63 87 66 82 76 70 C118 15 175 -12 250 -12 C325 -12 392 15 442 65 C489 114 518 182 518 246 C518 308 489 348 400 408 L336 451 C299 476 280 503 280 532 C280 580 329 623 384 623 C413 623 439 612 466 590 C477 580 488 569 515 543 L602 626 Z M439 892 L326 990 L243 917 L408 746 L645 917 L593 990 L439 892 Z " />
<glyph glyph-name="scaron" unicode="&#x161;" horiz-adv-x="600" d="M549 487 C525 506 517 513 510 517 C468 549 424 563 373 563 C257 563 154 474 154 374 C154 315 190 271 264 240 L312 220 C351 204 367 188 367 163 C367 123 335 95 289 95 C232 95 196 117 138 189 L51 93 C77 66 85 58 100 47 C149 8 210 -14 266 -14 C385 -14 485 77 485 185 C485 250 449 292 365 327 L327 342 C290 358 272 374 272 395 C272 424 310 454 347 454 C372 454 401 444 428 424 C436 419 443 413 474 388 L549 487 Z M405 720 L292 817 L209 744 L374 573 L611 744 L559 817 L405 720 Z " />
<glyph glyph-name="Tcommaaccent" unicode="&#x162;" horiz-adv-x="600" d="M304 0 C310 34 324 107 345 220 L429 614 L620 614 L642 720 L146 720 L124 614 L317 614 L233 220 C213 134 195 61 181 0 L304 0 Z M233 -40 L74 -233 L153 -287 L331 -100 L233 -40 Z " />
<glyph glyph-name="tcommaaccent" unicode="&#x163;" horiz-adv-x="600" d="M508 440 L531 546 L350 546 C355 569 352 558 358 581 C364 605 370 628 376 651 C381 672 381 673 388 701 L265 701 L259 664 C253 629 249 609 238 546 L128 546 L105 440 L215 440 L162 190 C150 135 149 126 149 99 C149 30 195 -13 267 -13 C353 -13 422 28 489 117 C499 130 509 144 519 158 L412 185 C386 149 386 149 380 142 C353 111 326 96 296 96 C276 96 265 107 265 126 C265 137 270 169 274 190 L327 440 L508 440 Z M231 -40 L72 -233 L151 -287 L329 -100 L231 -40 Z " />
<glyph glyph-name="Tcaron" unicode="&#x164;" horiz-adv-x="600" d="M304 0 C313 47 326 120 345 220 L429 614 L620 614 L643 720 L147 720 L124 614 L317 614 L233 220 C210 122 193 49 181 0 L304 0 Z M431 892 L318 990 L235 917 L400 746 L637 917 L586 990 L431 892 Z " />
<glyph glyph-name="tcaron" unicode="&#x165;" horiz-adv-x="600" d="M507 440 L530 546 L349 546 C354 569 351 558 357 581 C363 605 368 628 374 651 C380 672 380 673 387 701 L264 701 L258 664 C252 629 248 609 237 546 L127 546 L104 440 L214 440 L161 190 C150 138 148 126 148 99 C148 31 194 -13 266 -13 C352 -13 421 28 487 117 C498 131 508 144 518 158 L411 185 C385 149 385 149 378 142 C352 111 325 96 295 96 C275 96 264 107 264 126 C264 137 269 170 273 190 L326 440 L507 440 Z M569 832 L411 639 L490 585 L668 772 L569 832 Z " />
<glyph glyph-name="Umacron" unicode="&#x16a;" horiz-adv-x="600" d="M183 720 C180 708 178 696 176 683 C169 647 152 556 142 501 L89 252 C77 196 75 182 75 153 C75 58 144 -12 238 -12 C315 -12 396 29 440 89 C470 130 483 164 502 252 L555 501 C561 525 568 553 574 584 C586 633 597 678 607 720 L484 720 C468 633 454 560 443 501 L390 252 C384 223 373 186 367 171 C347 125 308 97 263 97 C220 97 190 129 190 177 C190 197 192 209 202 256 L254 501 C277 598 294 672 306 720 L183 720 Z M581 805 L604 911 L267 911 L244 805 L581 805 Z " />
<glyph glyph-name="umacron" unicode="&#x16b;" horiz-adv-x="600" d="M461 0 L461 43 C461 109 468 161 496 290 L504 329 C522 406 540 480 557 551 L432 551 C416 464 408 417 391 329 L382 285 C372 241 360 211 339 183 C303 133 252 98 216 98 C196 98 184 115 184 143 C184 163 186 173 198 228 L219 329 C247 446 265 520 272 551 L148 551 C144 523 143 518 139 500 C133 475 128 446 123 413 C117 389 112 361 107 329 L81 206 C72 165 68 134 68 111 C68 41 121 -11 192 -11 C242 -11 278 4 349 52 L349 49 L349 28 L349 0 L461 0 Z M544 632 L567 738 L230 738 L207 632 L544 632 Z " />
<glyph glyph-name="Uring" unicode="&#x16e;" horiz-adv-x="600" d="M183 720 C180 708 178 696 176 683 C169 647 152 556 142 501 L89 252 C77 196 75 182 75 153 C75 58 144 -12 238 -12 C315 -12 396 29 440 89 C470 130 483 164 502 252 L555 501 C561 525 568 553 574 584 C586 633 597 678 607 720 L484 720 C468 633 454 560 443 501 L390 252 C384 223 373 186 367 171 C347 125 308 97 263 97 C220 97 190 129 190 177 C190 197 192 209 202 256 L254 501 C277 598 294 672 306 720 L183 720 Z M450 973 C378 973 312 910 312 841 C312 791 350 754 401 754 C473 754 539 817 539 886 C539 936 501 973 450 973 L450 973 Z M432 894 C446 894 457 884 457 870 C457 851 439 833 419 833 C405 833 394 843 394 857 C394 876 412 894 432 894 L432 894 Z " />
<glyph glyph-name="uring" unicode="&#x16f;" horiz-adv-x="600" d="M461 0 L461 43 C461 109 468 161 496 290 L504 329 C522 406 540 480 557 551 L432 551 C416 464 408 417 391 329 L382 285 C372 241 360 211 339 183 C303 133 252 98 216 98 C196 98 184 115 184 143 C184 163 186 173 198 228 L219 329 C247 446 265 520 272 551 L148 551 C144 523 143 518 139 500 C133 475 128 446 123 413 C117 389 112 361 107 329 L81 206 C72 165 68 134 68 111 C68 41 121 -11 192 -11 C242 -11 278 4 349 52 L349 49 L349 28 L349 0 L461 0 Z M413 800 C341 800 275 737 275 668 C275 618 313 581 364 581 C436 581 502 644 502 713 C502 763 465 800 413 800 L413 800 Z M395 721 C409 721 420 711 420 697 C420 678 402 660 382 660 C368 660 357 670 357 684 C357 703 375 721 395 721 L395 721 Z " />
<glyph glyph-name="Uhungarumlaut" unicode="&#x170;" horiz-adv-x="600" d="M183 720 C180 708 178 696 176 683 C169 647 152 556 142 501 L89 252 C77 196 75 182 75 153 C75 58 144 -12 238 -12 C315 -12 396 29 440 89 C470 130 483 164 502 252 L555 501 C561 525 568 553 574 584 C586 633 597 678 607 720 L484 720 C468 633 454 560 443 501 L390 252 C384 223 373 186 367 171 C347 125 308 97 263 97 C220 97 190 129 190 177 C190 197 192 209 202 256 L254 501 C277 598 294 672 306 720 L183 720 Z M648 999 L429 819 L481 742 L720 912 L648 999 Z M426 999 L208 818 L260 742 L499 911 L426 999 Z " />
<glyph glyph-name="uhungarumlaut" unicode="&#x171;" horiz-adv-x="600" d="M461 0 L461 43 C461 109 468 161 496 290 L504 329 C522 406 540 480 557 551 L432 551 C416 464 408 417 391 329 L382 285 C372 241 360 211 339 183 C303 133 252 98 216 98 C196 98 184 115 184 143 C184 163 186 173 198 228 L219 329 C247 446 265 520 272 551 L148 551 C144 523 143 518 139 500 C133 475 128 446 123 413 C117 389 112 361 107 329 L81 206 C72 165 68 134 68 111 C68 41 121 -11 192 -11 C242 -11 278 4 349 52 L349 49 L349 28 L349 0 L461 0 Z M611 825 L392 645 L445 568 L683 738 L611 825 Z M389 825 L171 644 L223 568 L462 737 L389 825 Z " />
<glyph glyph-name="Uogonek" unicode="&#x172;" horiz-adv-x="600" d="M484 720 C468 633 454 560 443 501 L390 252 C384 223 373 186 367 171 C347 125 308 97 263 97 C220 97 190 129 190 177 C190 197 192 209 202 256 L254 501 C277 598 294 672 306 720 L183 720 C180 708 178 696 176 683 C169 647 152 556 142 501 L89 252 C77 196 75 182 75 153 C75 57 144 -12 241 -12 C263 -12 282 -9 311 0 C253 -25 238 -33 223 -44 C185 -72 164 -112 164 -156 C164 -209 203 -243 265 -243 C307 -243 350 -232 396 -208 L415 -121 C365 -148 340 -156 309 -156 C282 -156 268 -145 268 -123 C268 -117 270 -109 274 -99 C283 -78 295 -65 355 -7 C457 96 478 133 502 252 L555 501 C561 525 568 553 574 584 C586 633 597 678 607 720 L484 720 Z " />
<glyph glyph-name="uogonek" unicode="&#x173;" horiz-adv-x="600" d="M349 49 L349 28 L349 2 C240 -19 177 -77 177 -156 C177 -209 217 -243 279 -243 C321 -243 364 -232 410 -208 L428 -121 C382 -146 352 -156 325 -156 C295 -156 281 -146 281 -124 C281 -95 319 -54 369 -30 C396 -16 418 -9 461 0 L461 43 C461 109 468 161 496 290 L504 329 C522 406 540 480 557 551 L432 551 C416 464 408 417 391 329 L382 285 C372 241 360 211 339 183 C303 133 252 98 216 98 C196 98 184 115 184 143 C184 163 186 173 198 228 L219 329 C247 446 265 520 272 551 L148 551 C144 523 143 518 139 500 C133 475 128 446 123 413 C117 389 112 361 107 329 L81 206 C72 165 68 134 68 111 C68 41 121 -11 192 -11 C242 -11 278 4 349 52 L349 49 Z " />
<glyph glyph-name="Ydieresis" unicode="&#x178;" horiz-adv-x="600" d="M151 720 C195 538 228 399 249 303 L232 220 C211 132 194 59 179 0 L303 0 L312 50 C322 107 333 163 344 220 L361 303 C474 476 474 477 637 720 L510 720 C427 588 369 497 336 447 C324 498 305 589 278 720 L151 720 Z M331 951 C277 951 227 903 227 850 C227 812 255 784 295 784 C347 784 398 833 398 883 C398 924 371 951 331 951 L331 951 Z M560 951 C506 951 456 903 456 850 C456 812 484 784 523 784 C576 784 626 833 626 883 C626 924 599 951 560 951 L560 951 Z " />
<glyph glyph-name="Zacute" unicode="&#x179;" horiz-adv-x="600" d="M189 720 L167 614 L425 614 C291 420 262 379 188 279 L43 79 L26 0 L456 0 L479 106 L192 106 C356 343 374 368 570 641 L587 720 L189 720 Z M518 989 L284 829 L329 749 L582 895 L518 989 Z " />
<glyph glyph-name="zacute" unicode="&#x17a;" horiz-adv-x="600" d="M176 551 L154 445 L383 445 C151 199 125 172 36 83 L18 0 L458 0 L481 106 L200 106 L339 254 L538 459 L547 469 L564 551 L176 551 Z M492 816 L258 656 L303 575 L556 722 L492 816 Z " />
<glyph glyph-name="Zdotaccent" unicode="&#x17b;" horiz-adv-x="600" d="M189 720 L167 614 L425 614 C291 420 262 379 188 279 L43 79 L26 0 L456 0 L479 106 L192 106 C356 343 374 368 570 641 L587 720 L189 720 Z M445 953 C391 953 341 905 341 852 C341 814 369 786 408 786 C461 786 511 835 511 885 C511 926 484 953 445 953 L445 953 Z " />
<glyph glyph-name="zdotaccent" unicode="&#x17c;" horiz-adv-x="600" d="M176 551 L154 445 L383 445 C151 199 125 172 36 83 L18 0 L458 0 L481 106 L200 106 L339 254 L538 459 L547 469 L564 551 L176 551 Z M421 777 C367 777 317 728 317 676 C317 638 345 610 384 610 C437 610 487 659 487 709 C487 750 460 777 421 777 L421 777 Z " />
<glyph glyph-name="Zcaron" unicode="&#x17d;" horiz-adv-x="600" d="M189 720 L167 614 L425 614 C291 420 262 379 188 279 L43 79 L26 0 L456 0 L479 106 L192 106 C356 343 374 368 570 641 L587 720 L189 720 Z M431 892 L318 990 L235 917 L400 746 L637 917 L585 990 L431 892 Z " />
<glyph glyph-name="zcaron" unicode="&#x17e;" horiz-adv-x="600" d="M176 551 L154 445 L383 445 C151 199 125 172 36 83 L18 0 L458 0 L481 106 L200 106 L339 254 L538 459 L547 469 L564 551 L176 551 Z M405 720 L292 817 L209 744 L374 573 L611 744 L559 817 L405 720 Z " />
<glyph glyph-name="florin" unicode="&#x192;" horiz-adv-x="600" d="M432 515 L444 552 C461 599 471 620 483 628 C498 639 511 643 535 643 L607 643 L629 749 L563 749 C513 749 471 737 434 712 C390 682 365 645 338 566 L320 515 L198 515 L177 416 L286 416 L170 78 C143 1 129 -14 78 -14 L8 -14 L-14 -119 L50 -119 C98 -119 143 -106 179 -83 C224 -53 248 -17 276 63 L398 416 L520 416 L541 515 L432 515 Z " />
<glyph glyph-name="Scommaaccent" unicode="&#x218;" horiz-adv-x="600" d="M602 626 C542 700 482 732 405 732 C273 732 161 627 161 503 C161 448 191 399 250 359 L321 312 C382 270 399 250 399 220 C399 154 338 97 267 97 C234 97 207 109 182 136 C169 150 169 150 145 200 L39 128 C63 87 66 82 76 70 C118 15 175 -12 250 -12 C325 -12 392 15 442 65 C489 114 518 182 518 246 C518 308 489 348 400 408 L336 451 C299 476 280 503 280 532 C280 580 329 623 384 623 C413 623 439 612 466 590 C477 580 488 569 515 543 L602 626 Z M231 -40 L72 -233 L151 -287 L329 -100 L231 -40 Z " />
<glyph glyph-name="scommaaccent" unicode="&#x219;" horiz-adv-x="600" d="M549 487 C525 506 517 513 510 517 C468 549 424 563 373 563 C257 563 154 474 154 374 C154 315 190 271 264 240 L312 220 C351 204 367 188 367 163 C367 123 335 95 289 95 C232 95 196 117 138 189 L51 93 C77 66 85 58 100 47 C149 8 210 -14 266 -14 C385 -14 485 77 485 185 C485 250 449 292 365 327 L327 342 C290 358 272 374 272 395 C272 424 310 454 347 454 C372 454 401 444 428 424 C436 419 443 413 474 388 L549 487 Z M231 -40 L72 -233 L151 -287 L329 -100 L231 -40 Z " />
<glyph glyph-name="circumflex" unicode="&#x2c6;" horiz-adv-x="600" d="M384 670 L497 573 L580 646 L415 817 L178 646 L230 573 L384 670 Z " />
<glyph glyph-name="caron" unicode="&#x2c7;" horiz-adv-x="600" d="M394 720 L281 817 L198 744 L363 573 L600 744 L548 817 L394 720 Z " />
<glyph glyph-name="breve" unicode="&#x2d8;" horiz-adv-x="600" d="M210 779 C205 746 204 734 204 721 C204 640 259 599 366 599 C450 599 510 622 552 671 C574 697 585 719 603 779 L495 779 L485 755 C469 718 450 708 391 708 C358 708 332 715 323 726 C319 731 317 737 317 755 L317 779 L210 779 Z " />
<glyph glyph-name="dotaccent" unicode="&#x2d9;" horiz-adv-x="600" d="M409 777 C355 777 305 729 305 676 C305 638 333 610 372 610 C425 610 475 659 475 710 C475 750 448 777 409 777 L409 777 Z " />
<glyph glyph-name="ring" unicode="&#x2da;" horiz-adv-x="600" d="M413 800 C341 800 275 737 275 668 C275 618 313 581 364 581 C436 581 502 644 502 713 C502 763 464 800 413 800 L413 800 Z M395 721 C409 721 420 710 420 697 C420 678 401 660 382 660 C367 660 357 670 357 684 C357 703 375 721 395 721 L395 721 Z " />
<glyph glyph-name="ogonek" unicode="&#x2db;" horiz-adv-x="600" d="M326 0 C234 -13 166 -79 166 -156 C166 -209 205 -243 267 -243 C309 -243 352 -232 398 -208 L417 -121 C370 -146 341 -156 314 -156 C284 -156 270 -145 270 -124 C270 -105 287 -79 315 -56 C349 -29 386 -14 449 0 L326 0 Z " />
<glyph glyph-name="tilde" unicode="&#x2dc;" horiz-adv-x="600" d="M526 774 C488 720 486 718 471 718 C463 718 453 722 437 733 L416 747 C381 770 366 775 338 775 C295 775 258 756 221 717 C206 700 206 700 159 633 L253 598 C293 659 301 666 318 666 C327 666 333 663 350 652 L377 633 C400 617 425 609 453 609 C492 609 529 626 560 660 C576 676 585 689 616 736 L526 774 Z " />
<glyph glyph-name="hungarumlaut" unicode="&#x2dd;" horiz-adv-x="600" d="M572 825 L353 645 L406 568 L645 738 L572 825 Z M351 825 L132 644 L185 568 L423 737 L351 825 Z " />
<glyph glyph-name="endash" unicode="&#x2013;" horiz-adv-x="600" d="M503 310 L524 409 L132 409 L111 310 L503 310 Z " />
<glyph glyph-name="emdash" unicode="&#x2014;" horiz-adv-x="600" d="M610 305 L633 411 L26 411 L3 305 L610 305 Z " />
<glyph glyph-name="quoteleft" unicode="&#x2018;" horiz-adv-x="600" d="M492 739 C356 719 256 634 256 539 C256 492 290 457 337 457 C396 457 455 510 455 564 C455 590 441 607 411 619 C429 631 446 636 470 637 L492 739 Z " />
<glyph glyph-name="quoteright" unicode="&#x2019;" horiz-adv-x="600" d="M247 450 C383 470 483 555 483 650 C483 697 449 732 402 732 C343 732 284 679 284 624 C284 599 298 582 328 570 C310 558 293 553 269 552 L247 450 Z " />
<glyph glyph-name="quotesinglbase" unicode="&#x201a;" horiz-adv-x="600" d="M131 -96 C267 -76 367 9 367 104 C367 151 333 186 286 186 C227 186 168 133 168 78 C168 53 182 36 212 24 C194 12 177 7 153 6 L131 -96 Z " />
<glyph glyph-name="quotedblleft" unicode="&#x201c;" horiz-adv-x="600" d="M608 739 C472 719 372 634 372 539 C372 492 406 457 453 457 C512 457 571 510 571 564 C571 590 557 607 527 619 C545 631 561 636 586 637 L608 739 Z M376 739 C240 719 140 634 140 539 C140 492 174 457 221 457 C280 457 339 510 339 564 C339 590 325 607 295 619 C313 631 330 636 354 637 L376 739 Z " />
<glyph glyph-name="quotedblright" unicode="&#x201d;" horiz-adv-x="600" d="M131 450 C267 470 367 555 367 650 C367 697 333 732 286 732 C227 732 168 679 168 624 C168 599 182 582 212 570 C194 558 177 553 153 552 L131 450 Z M363 450 C499 470 599 555 599 650 C599 697 565 732 518 732 C459 732 400 679 400 624 C400 599 414 582 443 570 C426 558 409 553 385 552 L363 450 Z " />
<glyph glyph-name="quotedblbase" unicode="&#x201e;" horiz-adv-x="600" d="M15 -96 C151 -76 251 9 251 104 C251 151 217 186 170 186 C111 186 52 133 52 78 C52 53 66 36 96 24 C78 12 61 7 37 6 L15 -96 Z M247 -96 C383 -76 483 9 483 104 C483 151 449 186 402 186 C343 186 284 133 284 78 C284 53 298 36 327 24 C310 12 293 7 269 6 L247 -96 Z " />
<glyph glyph-name="dagger" unicode="&#x2020;" horiz-adv-x="600" d="M171 542 L146 425 L274 431 L260 388 L190 0 L293 0 L388 388 L393 431 L518 425 L543 542 L413 536 L459 722 L331 722 L298 536 L171 542 Z " />
<glyph glyph-name="daggerdbl" unicode="&#x2021;" horiz-adv-x="600" d="M458 722 L332 722 L303 551 L175 558 L150 441 L283 448 L247 275 L116 281 L91 164 L222 170 L178 0 L304 0 L333 170 L462 164 L487 281 L353 275 L389 448 L521 441 L546 558 L414 551 L458 722 Z " />
<glyph glyph-name="bullet" unicode="&#x2022;" horiz-adv-x="600" d="M330 399 C265 399 205 341 205 278 C205 233 239 199 285 199 C350 199 410 257 410 320 C410 365 376 399 330 399 L330 399 Z " />
<glyph glyph-name="ellipsis" unicode="&#x2026;" horiz-adv-x="600" d="M281 186 C234 186 188 122 188 58 C188 16 208 -12 238 -12 C286 -12 332 51 332 116 C332 158 312 186 281 186 L281 186 Z M481 186 C434 186 388 122 388 58 C388 16 408 -12 438 -12 C486 -12 532 51 532 116 C532 158 512 186 481 186 L481 186 Z M81 186 C34 186 -12 122 -12 58 C-12 16 8 -12 38 -12 C86 -12 132 51 132 116 C132 158 112 186 81 186 L81 186 Z " />
<glyph glyph-name="perthousand" unicode="&#x2030;" horiz-adv-x="600" d="M-79 -12 L-6 -12 L168 230 C182 278 210 315 246 339 L529 732 L454 732 L292 506 C278 463 252 427 220 405 L-79 -12 Z M396 285 C382 328 357 349 319 349 C272 349 226 319 199 271 C177 232 155 143 155 92 C155 34 190 -6 242 -6 C281 -6 316 15 348 59 C359 18 388 -6 425 -6 C472 -6 517 23 545 72 C567 111 589 200 589 252 C589 309 554 349 502 349 C463 349 426 327 396 285 L396 285 Z M299 253 C307 253 311 246 311 234 C311 212 304 170 294 135 C285 104 276 90 266 90 C258 90 254 97 254 109 C254 131 261 173 271 208 C280 239 289 253 299 253 L299 253 Z M479 253 C486 253 490 246 490 234 C490 212 482 170 472 135 C463 104 454 90 444 90 C437 90 433 97 433 109 C433 130 441 173 451 208 C460 239 468 253 479 253 L479 253 Z M217 746 C168 746 123 717 96 668 C73 628 52 541 52 489 C52 430 87 392 141 392 C189 392 234 421 262 470 C284 508 306 598 306 649 C306 707 271 746 217 746 L217 746 Z M196 650 C203 650 207 643 207 632 C207 609 200 568 190 533 C181 502 172 488 162 488 C155 488 151 495 151 507 C151 529 158 570 168 605 C177 636 186 650 196 650 L196 650 Z " />
<glyph glyph-name="guilsinglleft" unicode="&#x2039;" horiz-adv-x="600" d="M469 634 L107 363 L353 89 L444 163 L263 363 L528 561 L469 634 Z " />
<glyph glyph-name="guilsinglright" unicode="&#x203a;" horiz-adv-x="600" d="M283 634 L193 561 L375 363 L108 163 L167 89 L531 363 L283 634 Z " />
<glyph glyph-name="fraction" unicode="&#x2044;" horiz-adv-x="600" d="M529 734 L31 -12 L112 -12 L612 734 L529 734 Z " />
<glyph glyph-name="Euro" unicode="&#x20ac;" horiz-adv-x="600" d="M84 327 L45 247 L117 247 C115 227 114 210 114 193 C114 59 176 -12 293 -12 C377 -12 453 24 495 85 C520 119 529 140 552 212 L438 212 C425 167 421 157 411 143 C391 114 356 97 318 97 C261 97 232 135 232 210 L232 220 L234 244 L234 247 L408 247 L449 327 L244 327 C247 343 250 358 254 373 L472 373 L513 453 L276 453 C286 487 308 534 328 563 C353 600 394 623 435 623 C473 623 498 603 498 573 C498 566 496 554 492 526 L608 526 C613 561 614 578 614 591 C614 676 552 732 456 732 C322 732 218 634 160 453 L110 453 L71 373 L138 373 C134 358 131 343 128 327 L84 327 Z " />
<glyph glyph-name="trademark" unicode="&#x2122;" horiz-adv-x="600" d="M453 722 L109 722 L88 623 L190 623 L143 403 C139 386 135 368 131 350 C123 316 116 288 110 264 L210 264 C218 304 226 351 236 403 L283 623 L347 623 L300 403 C296 386 292 368 288 350 C280 317 273 288 267 264 L368 264 C371 283 379 329 393 403 L405 460 L437 331 L523 460 L511 403 C494 331 483 284 478 264 L578 264 L584 295 C591 331 598 367 604 403 L672 722 L588 722 L487 566 L453 722 Z " />
<glyph glyph-name="partialdiff" unicode="&#x2202;" horiz-adv-x="600" d="M134 629 C259 626 260 626 298 618 C363 601 399 574 442 509 C406 521 386 524 353 524 C167 524 16 376 16 195 C16 67 103 -12 242 -12 C445 -12 599 158 599 383 C599 470 574 550 526 614 C465 699 380 734 241 734 C227 734 196 733 149 732 L134 629 Z M329 415 C409 415 463 363 463 287 C463 242 439 187 404 151 C370 117 319 97 265 97 C186 97 140 140 140 214 C140 326 223 415 329 415 L329 415 Z " />
<glyph glyph-name="Delta" unicode="&#x2206;" horiz-adv-x="600" d="M512 0 L461 722 L328 722 L-29 0 L512 0 Z M354 529 L378 106 L150 106 L354 529 Z " />
<glyph glyph-name="summation" unicode="&#x2211;" horiz-adv-x="600" d="M700 821 L139 821 L119 727 L275 380 L-37 -4 L-57 -99 L513 -99 L570 170 L464 170 L422 7 L97 7 L408 380 L257 715 L560 715 L538 553 L643 553 L700 821 Z " />
<glyph glyph-name="minus" unicode="&#x2212;" horiz-adv-x="600" d="M625 413 L35 413 L12 307 L602 307 L625 413 Z " />
<glyph glyph-name="radical" unicode="&#x221a;" horiz-adv-x="600" d="M40 454 L17 348 L113 348 L156 -44 L604 804 L710 804 L732 910 L549 910 L230 288 L216 454 L40 454 Z " />
<glyph glyph-name="notequal" unicode="&#x2260;" horiz-adv-x="600" d="M496 516 L553 591 L471 640 L378 516 L56 516 L34 410 L299 410 L223 311 L13 311 L-10 205 L145 205 L81 120 L163 71 L263 205 L580 205 L603 311 L342 311 L418 410 L624 410 L646 516 L496 516 Z " />
<glyph glyph-name="lessequal" unicode="&#x2264;" horiz-adv-x="600" d="M10 0 L466 0 L488 103 L32 103 L10 0 Z M76 420 L444 105 L529 184 L253 420 L629 655 L577 734 L76 420 Z " />
<glyph glyph-name="greaterequal" unicode="&#x2265;" horiz-adv-x="600" d="M470 0 L492 103 L36 103 L14 0 L470 0 Z M584 420 L216 734 L131 655 L407 420 L31 184 L82 105 L584 420 Z " />
<glyph glyph-name="lozenge" unicode="&#x25ca;" horiz-adv-x="600" d="M396 735 L48 361 L237 -14 L588 361 L396 735 Z M381 665 L532 361 L252 59 L103 361 L381 665 Z " />
<glyph glyph-name="commaaccent" unicode="&#xf6c3;" horiz-adv-x="600" d="M231 -40 L72 -233 L151 -287 L329 -100 L231 -40 Z " />
<glyph glyph-name="fi" unicode="&#xfb01;" horiz-adv-x="600" d="M466 0 C468 11 470 24 472 37 L480 78 C489 121 498 172 507 219 L576 547 L319 547 C327 578 333 591 343 602 C355 615 378 624 400 624 C433 624 444 620 569 559 L596 689 C504 724 468 733 426 733 C368 733 307 707 266 665 C235 633 219 602 207 547 L114 547 L92 441 L185 441 L138 219 L85 0 L209 0 C221 68 235 141 250 219 L297 441 L442 441 L395 219 L342 0 L466 0 Z " />
<glyph glyph-name="fl" unicode="&#xfb02;" horiz-adv-x="600" d="M204 0 C206 13 208 25 210 37 C213 55 229 141 244 218 L292 441 L428 441 L450 547 L314 547 C322 578 328 591 338 602 C351 615 373 624 395 624 C417 624 440 617 477 598 C472 570 466 538 461 512 L398 218 C378 133 361 61 346 0 L471 0 C473 13 475 25 477 37 C482 64 499 154 510 218 L573 512 C585 573 599 624 613 672 C507 720 465 733 421 733 C363 733 302 707 261 665 C231 634 216 605 202 547 L109 547 L87 441 L180 441 L132 218 C114 140 96 68 80 0 L204 0 Z " />
</font>
</svg>
