<svg id="blk2" xmlns="http://www.w3.org/2000/svg" width="57" height="57" viewBox="0 0 57 57">
  <metadata><?xpacket begin="﻿" id="W5M0MpCehiHzreSzNTczkc9d"?>
<x:xmpmeta xmlns:x="adobe:ns:meta/" x:xmptk="Adobe XMP Core 5.6-c138 79.159824, 2016/09/14-01:09:01        ">
   <rdf:RDF xmlns:rdf="http://www.w3.org/1999/02/22-rdf-syntax-ns#">
      <rdf:Description rdf:about=""/>
   </rdf:RDF>
</x:xmpmeta>
                                                                                                    
                                                                                                    
                                                                                                    
                                                                                                    
                                                                                                    
                                                                                                    
                                                                                                    
                                                                                                    
                                                                                                    
                                                                                                    
                                                                                                    
                                                                                                    
                                                                                                    
                                                                                                    
                                                                                                    
                                                                                                    
                                                                                                    
                                                                                                    
                                                                                                    
                                                                                                    
                           
<?xpacket end="w"?></metadata>
<defs>
    <style>
        @import url('https://fonts.googleapis.com/css?family=Quicksand:700');
      .cls-1, .cls-2 {
        fill: #f83c7b;
      }

      .cls-1 {
        fill-rule: evenodd;
      }

      .cls-2 {
        font-size: 21px;
        font-family: 'Quicksand', sans-serif;
        font-weight: 700;
      }
    </style>
  </defs>
  <path id="Shape_1_copy_11" data-name="Shape 1 copy 11" class="cls-1" d="M1015.98,486.051a0.845,0.845,0,0,0-.06-0.313,0.485,0.485,0,0,0-.04-0.112,1.016,1.016,0,0,0-.23-0.338h0l-6.78-6.779v-6.633c0-.026-0.01-0.049-0.01-0.075a1.583,1.583,0,0,0-.06-0.305,0.485,0.485,0,0,0-.04-0.112,1.283,1.283,0,0,0-.23-0.348l-10.692-10.687a1.154,1.154,0,0,0-.349-0.233,0.986,0.986,0,0,0-.108-0.038,1.137,1.137,0,0,0-.312-0.062A0.5,0.5,0,0,0,997,460H967.313a1.188,1.188,0,0,0-1.188,1.188v17.32l-6.777,6.777,0,0a1.164,1.164,0,0,0-.228.338,1.519,1.519,0,0,0-.1.425c0,0.026-.015.048-0.015,0.074v22.562a1.188,1.188,0,0,0,1.188,1.188h5.937v5.937A1.188,1.188,0,0,0,967.313,517h40.377a1.185,1.185,0,0,0,1.18-1.188v-5.937h5.94a1.187,1.187,0,0,0,1.19-1.188V486.125A0.2,0.2,0,0,0,1015.98,486.051Zm-4.03-1.114h-3.08v-3.07Zm-7.13-14.249h-6.632v-6.634Zm-36.32-8.313h27.312v9.5A1.189,1.189,0,0,0,997,473.063h9.5v11.874h-38V462.375Zm-2.375,19.492v3.07h-3.071Zm40.375,32.758h-38v-4.75h38v4.75Zm7.13-7.125H961.375V487.312h52.255V507.5Z" transform="translate(-959 -460)"/>
  <text id="BLK_2_" data-name="BLK 2 " class="cls-2" transform="translate(6.664 42.754) scale(0.766)">BLK 2 </text>
</svg>
