<?xml version="1.0" encoding="UTF-8"?>
<svg xmlns="http://www.w3.org/2000/svg" xmlns:xlink="http://www.w3.org/1999/xlink" version="1.2" >
<font id="Spud Bold Italic">
<font-face  font-family="Spud" units-per-em="1000" ascent="700" descent="-300" font-style="italic" font-weight="700" font-stretch="normal" slope="-11" cap-height="587" x-height="367" underline-position="-123" underline-thickness="20" />
<missing-glyph  horiz-adv-x="279" d="M0 0 L279 0 L279 701 L0 701 L0 0 Z " />
<glyph glyph-name=".null" d="" />
<glyph glyph-name="&amp;#x0;" d="" />
<glyph glyph-name="&amp;#xd;" unicode="&#xd;" d="" />
<glyph glyph-name="space" unicode="&#x20;" horiz-adv-x="202" d="" />
<glyph glyph-name="exclam" unicode="&#x21;" horiz-adv-x="149" d="M196 520 C202 536 205 549 205 555 C204 578 171 611 140 603 C122 598 111 567 103 524 C94 479 87 417 78 343 C60 195 35 147 32 143 C27 137 22 128 33 113 C45 96 75 107 83 116 C88 122 93 160 95 168 C100 197 107 239 122 295 C136 351 157 410 174 458 C183 482 191 504 196 520 L196 520 Z M30 -9 C49 -9 66 8 70 29 C73 50 63 69 43 70 C25 70 8 53 4 32 C0 11 10 -8 30 -9 L30 -9 Z " />
<glyph glyph-name="quotedbl" unicode="&#x22;" horiz-adv-x="111" d="M85 520 C96 524 112 573 109 582 C106 591 84 598 76 594 C69 588 54 533 61 527 C65 523 77 517 85 520 L85 520 Z M34 526 C45 530 61 578 58 587 C54 597 32 604 25 599 C18 594 3 538 9 532 C14 528 26 522 34 526 L34 526 Z " />
<glyph glyph-name="numbersign" unicode="&#x23;" horiz-adv-x="371" d="M336 241 C344 238 353 237 364 251 C377 268 357 293 346 298 C342 300 338 299 327 297 C320 296 309 294 292 291 C297 307 314 352 313 367 C312 389 297 411 266 399 C259 396 255 389 250 369 C246 352 242 325 233 285 C211 283 189 281 167 281 C175 306 181 324 185 338 C190 353 193 364 193 373 C192 395 176 416 145 404 C139 402 134 393 129 372 C125 354 120 325 111 280 C91 280 76 281 66 281 C54 281 46 281 39 278 C18 270 2 249 24 223 C28 217 35 216 46 216 C56 217 72 219 99 222 C95 207 92 192 89 178 C68 178 53 178 42 179 C31 179 22 179 15 176 C-6 168 -21 147 0 121 C5 115 11 113 23 114 C33 114 49 116 75 120 C61 61 56 50 54 47 C49 41 44 33 55 17 C67 0 97 11 105 20 C107 23 110 34 113 53 C116 70 120 94 127 126 C151 128 176 131 200 133 C183 58 177 45 174 42 C169 36 165 27 175 12 C187 -5 218 6 225 15 C228 18 231 31 235 53 C238 73 243 101 251 138 C283 141 298 141 305 141 C309 141 309 141 310 140 C322 133 333 139 341 149 C354 166 333 191 323 196 C319 197 314 197 303 195 C294 193 282 191 263 188 C267 206 272 223 277 240 C308 243 322 244 329 243 C332 243 333 243 333 243 L334 242 C334 242 335 242 336 241 L336 241 Z M198 233 L223 235 L218 213 L212 182 C187 180 163 179 138 178 C142 195 147 211 151 228 C165 230 181 232 198 233 L198 233 Z " />
<glyph glyph-name="dollar" unicode="&#x24;" horiz-adv-x="395" d="M270 526 C281 530 297 578 294 587 C291 597 269 604 261 599 C254 594 239 538 246 532 C250 528 262 522 270 526 L270 526 Z M312 404 C329 401 349 410 354 440 C359 468 320 523 245 529 C170 536 103 492 102 418 C101 380 142 329 180 283 C199 260 218 238 232 218 C246 198 254 182 253 173 C249 116 197 85 153 85 C121 85 93 101 91 137 C90 153 106 160 118 167 C148 185 105 222 84 221 C65 220 34 185 34 146 C34 122 46 96 79 76 C104 61 132 54 160 54 C232 54 304 99 313 174 C318 215 277 268 238 314 C218 338 198 361 182 381 C167 401 158 417 158 427 C159 474 204 502 243 500 C280 498 296 470 294 458 C292 442 284 445 282 435 C279 420 296 406 312 404 L312 404 Z M136 -25 C147 -21 163 27 160 36 C156 46 134 53 127 48 C120 43 105 -13 111 -19 C116 -23 128 -29 136 -25 L136 -25 Z " />
<glyph glyph-name="percent" unicode="&#x25;" horiz-adv-x="259" d="M31 338 C70 338 110 389 124 445 C128 459 130 474 130 488 C130 526 115 558 83 558 C44 558 4 506 -10 450 C-14 436 -16 421 -16 407 C-16 369 -1 338 31 338 L31 338 Z M268 524 C274 530 277 533 277 538 C277 560 238 583 217 574 C198 566 -13 73 -18 53 C-23 32 10 -1 33 -1 C42 -1 51 4 54 18 C55 25 57 34 59 48 C64 76 73 121 101 199 C108 219 131 279 141 302 C190 421 224 475 245 501 C252 509 259 517 268 524 L268 524 Z M155 23 C194 23 235 74 249 130 C253 144 255 158 255 172 C255 211 240 243 207 243 C168 243 129 191 114 135 C110 121 108 106 108 92 C108 54 123 23 155 23 L155 23 Z M81 530 C98 530 95 494 84 450 C70 397 45 365 33 365 C16 365 19 401 30 445 C44 498 69 530 81 530 L81 530 Z M205 215 C222 215 219 179 208 135 C194 83 169 50 158 50 C141 50 144 87 155 130 C169 183 194 215 205 215 L205 215 Z " />
<glyph glyph-name="ampersand" unicode="&#x26;" horiz-adv-x="401" d="M270 526 C281 530 297 578 294 587 C291 597 269 604 261 599 C254 594 239 538 246 532 C250 528 262 522 270 526 L270 526 Z M298 412 C312 417 328 427 335 443 C340 454 316 484 287 500 C272 508 254 514 233 514 C209 514 181 506 150 486 C115 463 104 431 104 401 C104 366 119 334 125 321 C104 308 36 260 48 173 C58 102 113 88 154 88 C176 88 193 92 199 94 C260 119 285 154 291 186 C296 213 287 245 273 246 C257 248 226 227 221 211 C219 204 221 192 221 186 C222 160 215 142 188 131 C176 126 166 124 157 124 C122 124 105 154 105 188 C105 219 119 252 144 267 C153 273 162 276 170 277 C176 278 186 280 190 283 C200 290 209 303 211 312 C212 318 203 327 199 331 C179 353 162 378 162 407 C162 417 164 427 168 438 C181 471 211 484 229 482 C261 478 266 465 267 454 C268 441 261 426 262 418 C262 411 279 405 298 412 L298 412 Z M117 3 C128 7 144 56 141 64 C137 74 115 81 108 76 C101 71 86 16 92 9 C97 6 109 0 117 3 L117 3 Z " />
<glyph glyph-name="quotesingle" unicode="&#x27;" horiz-adv-x="111" d="M64 526 C75 530 91 578 88 587 C84 597 62 604 55 599 C48 594 33 538 39 532 C44 528 56 522 64 526 L64 526 Z " />
<glyph glyph-name="parenleft" unicode="&#x28;" horiz-adv-x="237" d="M250 553 C270 573 216 604 189 586 C179 580 96 461 58 329 C38 260 29 187 24 129 C20 73 21 32 20 27 C18 4 68 -31 89 -11 C95 -5 95 2 94 10 C92 19 89 30 86 46 C82 68 78 99 78 144 C78 163 79 185 81 209 C86 230 97 291 105 316 C140 430 178 487 206 517 C220 532 232 539 240 546 L245 550 C247 551 248 552 250 553 L250 553 Z " />
<glyph glyph-name="parenright" unicode="&#x29;" horiz-adv-x="230" d="M213 326 C228 384 232 441 232 486 C232 543 225 583 221 587 C206 602 163 586 151 568 C147 562 149 557 153 553 C162 541 168 535 174 520 C180 506 184 485 184 455 C184 422 179 379 165 319 C159 294 137 232 131 211 C93 130 60 80 37 48 C25 32 16 21 10 13 C-25 -38 72 -8 86 24 C88 29 111 70 138 126 C165 184 195 257 213 326 L213 326 Z " />
<glyph glyph-name="comma" unicode="&#x2c;" horiz-adv-x="144" d="M56 -80 C82 -81 109 -32 113 -4 C120 37 111 71 79 70 C53 69 35 42 35 18 C35 2 43 -13 62 -18 C64 -19 62 -21 61 -23 C60 -29 57 -36 55 -44 C52 -51 40 -79 56 -80 L56 -80 Z " />
<glyph glyph-name="hyphen" unicode="&#x2d;" horiz-adv-x="182" d="M160 156 C169 161 178 194 168 198 C157 202 131 203 105 203 C67 203 27 200 25 194 C21 185 17 180 15 177 C13 172 12 167 15 161 C19 151 29 147 40 147 C58 147 80 156 94 155 C115 154 159 155 160 156 L160 156 Z " />
<glyph glyph-name="period" unicode="&#x2e;" horiz-adv-x="122" d="M60 -9 C79 -9 96 8 100 29 C103 50 93 69 73 70 C55 70 38 53 34 32 C30 11 40 -8 60 -9 L60 -9 Z " />
<glyph glyph-name="zero" unicode="0" horiz-adv-x="392" d="M139 -6 C249 -26 361 77 405 284 C413 323 417 361 417 396 C417 517 369 604 280 614 C167 626 62 539 16 344 C5 298 0 256 0 218 C0 93 54 9 139 -6 L139 -6 Z M267 558 C319 548 341 481 341 399 C341 238 256 17 150 48 C105 61 74 120 74 212 C74 250 80 293 91 342 C130 507 200 571 267 558 L267 558 Z " />
<glyph glyph-name="one" unicode="1" horiz-adv-x="236" d="M255 509 C269 529 238 585 218 591 C207 594 192 581 183 574 C168 563 151 556 135 548 C122 542 114 535 114 530 C114 516 119 488 136 481 C141 480 153 485 165 491 C168 492 184 502 187 502 C189 503 195 503 192 497 C186 484 35 46 39 30 C43 12 99 -21 117 -4 C121 0 123 8 124 21 C124 32 124 49 126 72 C129 117 139 190 174 303 C178 316 222 476 251 505 L253 507 C254 508 254 509 255 509 L255 509 Z " />
<glyph glyph-name="two" unicode="2" horiz-adv-x="389" d="M307 338 C348 387 377 430 377 478 C377 503 369 529 351 557 C322 589 289 600 255 600 C168 600 79 523 79 506 C79 483 119 452 145 464 C159 470 164 518 191 534 C219 550 254 558 275 548 C300 535 312 516 312 490 C312 443 271 376 191 291 C70 162 -9 68 -10 48 C-11 27 19 -4 38 -10 C44 -11 53 -10 63 -7 C73 -6 85 -1 99 2 C117 6 138 10 160 10 C173 10 186 9 199 6 C226 0 250 -2 270 -2 C310 -2 335 8 341 19 C349 36 329 85 309 90 C304 92 296 91 288 90 C259 87 225 76 197 78 C166 80 118 73 86 66 C120 123 159 172 196 216 C236 262 276 302 307 338 L307 338 Z " />
<glyph glyph-name="three" unicode="3" horiz-adv-x="401" d="M310 312 C328 331 401 409 401 482 C401 506 393 529 373 549 C338 585 298 598 261 598 C173 598 95 527 95 514 C96 472 164 449 174 468 C176 471 176 474 177 478 C179 492 180 506 187 520 C200 547 232 562 263 562 C299 562 334 541 333 490 C332 421 273 370 221 334 C217 331 198 319 197 313 C195 302 201 284 210 272 C212 270 215 268 220 267 C237 262 254 257 267 245 C283 231 290 209 290 185 C290 117 234 29 162 29 C146 29 130 33 113 43 C93 55 86 70 86 86 C86 104 94 123 102 140 C105 146 111 157 111 164 C113 186 82 219 61 218 C48 217 19 182 10 141 C1 97 14 44 88 3 C97 -1 126 -11 164 -11 C219 -11 291 9 338 94 C359 132 367 165 367 193 C367 260 324 300 310 312 L310 312 Z " />
<glyph glyph-name="four" unicode="4" horiz-adv-x="416" d="M369 204 C385 209 409 263 401 277 C396 288 333 279 300 268 C331 374 355 437 372 477 C381 497 388 511 392 521 C396 530 400 538 400 544 C400 568 342 594 327 584 C321 580 315 561 309 531 C304 504 297 467 286 425 C266 349 237 259 232 244 C227 242 208 233 170 221 C122 205 89 206 89 206 C88 207 98 248 124 335 C147 412 168 459 184 488 C191 502 197 513 202 520 C206 528 209 534 209 540 C209 560 151 597 133 579 C123 569 117 525 114 512 C108 479 98 435 83 388 C67 340 51 300 38 269 C33 257 15 220 14 207 C12 186 50 136 67 133 C80 130 178 167 211 179 C198 145 158 33 159 21 C160 0 220 -16 234 -6 C239 -3 240 3 242 9 C243 16 244 26 246 41 C250 70 258 119 281 202 C308 211 326 211 339 209 C347 207 361 202 369 204 L369 204 Z " />
<glyph glyph-name="five" unicode="5" horiz-adv-x="401" d="M166 -11 C320 -11 392 135 406 241 C420 351 347 396 281 396 C232 396 186 372 166 361 C174 392 194 475 218 502 C229 515 256 518 283 518 C307 518 332 515 347 514 C360 513 371 512 376 513 C387 516 391 535 391 554 C391 572 387 589 381 592 C373 597 356 590 348 587 C331 581 306 572 266 563 C226 553 198 551 180 549 C159 547 149 544 145 536 C140 527 138 504 136 493 C129 443 117 409 91 365 C85 356 75 341 74 330 C72 308 113 268 130 263 C134 262 142 266 152 274 C159 281 168 291 179 301 C202 320 230 340 267 340 C286 340 330 332 330 273 C330 264 329 255 327 244 C299 96 217 25 166 25 C113 25 89 54 89 85 C89 107 105 111 119 122 C153 150 86 195 50 176 C28 164 17 139 17 112 C17 98 20 83 26 69 C44 27 89 -11 166 -11 L166 -11 Z " />
<glyph glyph-name="six" unicode="6" horiz-adv-x="493" d="M420 444 C438 450 456 465 458 491 C462 538 420 591 332 594 C246 596 138 550 64 342 C43 284 32 226 32 174 C32 73 74 -5 167 -13 C315 -26 410 121 410 238 C410 312 372 374 286 376 C178 379 144 304 144 257 C144 243 147 231 152 225 C173 199 229 257 220 273 C213 287 190 340 287 339 C332 339 348 311 348 273 C348 243 338 206 323 170 C293 97 272 27 175 26 C119 25 99 82 99 151 C99 211 115 282 136 334 C147 361 159 389 171 416 C201 479 248 563 332 557 C381 554 395 533 385 492 C383 482 373 456 377 449 C383 437 404 438 420 444 L420 444 Z " />
<glyph glyph-name="seven" unicode="7" horiz-adv-x="288" d="M353 510 C359 520 363 527 364 532 C368 553 320 592 303 596 C292 598 275 594 264 592 C248 588 226 585 198 583 C187 582 174 582 162 582 C142 582 123 583 104 584 C93 584 82 585 72 585 C55 585 41 584 30 580 C10 572 2 549 2 529 C2 515 6 502 11 499 C19 494 54 504 63 506 C88 513 121 519 158 524 C227 532 281 537 286 537 C286 537 296 540 194 317 C154 228 107 135 47 56 C43 51 36 42 34 36 C29 16 76 -14 95 -14 C102 -14 106 -11 110 -3 C114 4 119 16 127 37 C143 79 173 157 241 299 C278 378 308 432 329 468 C339 486 348 500 353 510 L353 510 Z " />
<glyph glyph-name="eight" unicode="8" horiz-adv-x="402" d="M306 344 C346 365 378 402 391 447 C395 461 397 475 397 489 C397 546 364 597 289 599 C218 600 154 567 126 478 C121 463 119 448 119 435 C119 401 133 374 155 355 C97 342 40 295 15 200 C9 177 7 157 7 138 C7 38 82 -9 144 -17 C153 -18 164 -19 175 -19 C250 -19 351 16 385 163 C390 184 392 202 392 218 C392 286 355 322 306 344 L306 344 Z M297 568 C328 565 339 547 339 514 C339 498 336 480 332 458 C321 406 284 369 250 359 C238 359 226 360 214 360 C195 367 184 392 184 425 C184 440 186 456 191 474 C209 539 249 572 297 568 L297 568 Z M243 325 C297 321 314 290 314 246 C314 221 309 193 302 163 C280 65 218 17 166 17 C123 17 87 50 87 117 C87 138 90 161 98 188 C121 269 156 332 243 325 L243 325 Z " />
<glyph glyph-name="nine" unicode="9" horiz-adv-x="422" d="M88 2 C109 -5 130 -9 150 -9 C268 -9 361 112 396 274 C406 319 411 359 411 395 C411 512 360 581 268 599 C250 602 234 604 218 604 C129 604 76 550 46 444 C40 423 37 402 37 383 C37 311 75 257 120 235 C134 228 150 225 166 225 C217 225 274 253 281 275 C289 301 270 343 239 337 C227 334 218 319 212 309 C193 281 173 270 137 280 C118 285 108 312 108 350 C108 372 111 397 118 423 C137 493 176 573 258 559 C293 553 344 527 344 424 C344 387 337 340 321 281 C258 52 165 25 120 33 C75 42 72 80 72 96 C72 127 95 118 92 145 C88 174 45 184 22 176 C8 171 -11 139 -10 104 C-8 67 15 26 88 2 L88 2 Z " />
<glyph glyph-name="colon" unicode="&#x3a;" horiz-adv-x="142" d="M77 138 C96 138 113 155 117 176 C121 197 110 217 91 218 C72 218 55 200 51 179 C47 159 57 139 77 138 L77 138 Z M60 -10 C79 -10 95 8 99 29 C103 50 93 69 73 70 C54 70 37 53 33 32 C30 11 40 -9 60 -10 L60 -10 Z " />
<glyph glyph-name="semicolon" unicode="&#x3b;" horiz-adv-x="143" d="M77 138 C96 138 113 155 117 176 C121 197 110 217 91 218 C72 218 55 200 51 179 C47 159 57 139 77 138 L77 138 Z M58 -44 C80 -45 102 0 102 34 C102 54 94 71 73 70 C49 69 33 45 33 23 C33 8 41 -6 58 -10 C58 -10 57 -10 57 -11 C56 -19 42 -43 58 -44 L58 -44 Z " />
<glyph glyph-name="question" unicode="&#x3f;" horiz-adv-x="308" d="M214 291 C251 323 294 363 314 425 C319 440 322 456 322 470 C322 543 259 600 166 600 C50 600 -1 544 -14 501 C-17 490 -19 479 -19 468 C-19 440 -8 416 10 409 C42 397 96 447 67 464 C54 472 52 480 50 496 C46 533 104 562 164 562 C219 562 242 514 237 459 C228 362 140 300 101 214 C94 199 91 187 91 175 C91 126 145 105 173 117 C207 132 211 192 194 200 C186 203 167 193 159 190 C151 187 144 185 144 196 C146 235 186 267 214 291 L214 291 Z M100 -7 C119 -7 135 11 139 32 C143 53 133 72 113 73 C94 73 77 56 73 35 C70 14 80 -6 100 -7 L100 -7 Z " />
<glyph glyph-name="at" unicode="&#x40;" horiz-adv-x="510" d="M344 32 C421 38 493 127 494 234 C496 368 386 475 253 475 C120 475 12 368 12 234 C12 117 96 19 209 -2 C217 -1 249 15 269 30 C146 25 49 120 49 232 C49 345 140 436 253 436 C365 436 459 345 457 233 C455 143 394 87 359 76 C323 64 311 75 302 93 C302 96 301 99 301 104 C301 142 332 232 342 259 C346 270 351 280 355 288 C359 299 370 314 370 326 C370 358 313 382 285 381 C220 378 118 224 116 156 C115 126 152 98 172 92 C184 89 238 127 265 147 C260 133 254 114 256 100 C260 72 279 27 344 32 L344 32 Z M215 260 C266 326 305 350 317 340 C329 330 314 269 269 208 C223 147 174 122 161 133 C148 145 164 195 215 260 L215 260 Z " />
<glyph glyph-name="A" unicode="A" horiz-adv-x="378" d="M354 207 C364 224 350 256 325 253 C322 253 314 250 306 247 C306 262 306 276 306 291 C306 385 323 510 325 521 C326 523 328 527 333 531 C342 541 329 590 312 597 C295 604 282 592 267 586 C252 579 257 564 254 552 C253 547 230 500 202 444 C175 389 143 326 127 292 C104 243 21 56 -10 26 C-26 10 -13 -1 9 -8 C27 -13 50 -13 54 -9 C55 -8 57 -4 59 3 C72 53 87 96 106 144 C152 168 198 186 249 198 C251 101 263 3 273 -14 C287 -40 312 -17 327 -7 C344 4 349 29 342 40 C341 43 339 46 337 48 C329 56 323 62 317 72 C312 83 308 187 307 211 C313 211 324 210 336 203 C343 198 350 200 354 207 L354 207 Z M156 262 C219 402 250 449 262 464 C261 439 257 375 251 285 C250 271 249 242 249 232 C206 222 164 210 125 191 C134 212 144 236 156 262 L156 262 Z " />
<glyph glyph-name="B" unicode="B" horiz-adv-x="435" d="M317 346 C340 360 399 404 404 483 C409 558 365 591 306 597 C258 602 211 582 192 572 C193 580 193 591 189 595 C184 600 170 603 155 603 C142 603 129 601 123 597 C110 589 114 542 114 527 C114 520 100 505 96 499 C87 484 96 462 100 448 C102 442 93 395 68 298 C56 250 42 192 30 144 C18 96 8 58 4 50 C1 43 -3 41 -4 40 C-9 38 -16 37 -9 29 C-8 29 -7 27 -6 24 C-1 13 9 -8 20 -12 C34 -16 50 -12 58 1 C60 4 61 10 62 20 C67 110 91 205 113 291 C145 414 161 448 173 487 C184 522 233 566 289 564 C307 563 331 545 337 511 C342 477 330 428 272 367 C271 366 269 367 267 368 C265 370 263 371 260 373 C238 383 215 366 209 344 C205 327 210 314 225 301 C242 286 259 314 276 314 C305 315 332 284 332 228 C332 214 331 199 327 182 C308 98 251 27 204 25 C171 24 163 47 152 70 C130 115 87 41 87 37 C89 27 118 9 146 0 C162 -5 178 -7 194 -7 C279 -7 370 58 400 171 C404 188 406 203 406 217 C406 298 342 335 317 346 L317 346 Z " />
<glyph glyph-name="C" unicode="C" horiz-adv-x="420" d="M352 466 C367 455 404 487 411 515 C418 545 371 607 311 618 C250 629 94 564 32 319 C16 258 10 208 10 167 C10 42 72 -2 137 -25 C148 -29 160 -31 171 -31 C203 -31 235 -16 261 1 C283 15 302 31 322 49 C341 66 377 83 346 115 C337 124 329 128 320 128 C302 128 284 112 273 94 C255 67 177 1 146 5 C126 7 82 34 82 140 C82 182 89 236 107 307 C158 503 247 577 299 571 C338 567 340 518 344 489 C345 478 348 469 352 466 L352 466 Z " />
<glyph glyph-name="D" unicode="D" horiz-adv-x="456" d="M158 -10 C194 -18 358 -3 421 254 C434 306 439 350 439 388 C439 538 353 585 298 593 C248 601 202 570 179 546 C179 560 177 591 166 601 C153 612 119 594 107 582 C103 577 102 571 102 564 C103 557 104 547 104 531 C104 499 102 443 83 340 C79 321 70 261 62 202 C53 142 45 86 40 74 C35 63 31 59 29 57 C24 52 22 50 22 42 C22 28 41 -3 61 -3 C80 -3 101 27 107 42 C108 46 109 54 109 65 C110 77 110 93 111 114 C119 232 144 348 167 464 C183 492 231 569 291 555 C339 544 367 497 367 418 C367 378 360 330 345 275 C301 111 219 27 189 23 C158 18 162 66 144 66 C127 66 104 36 107 22 C109 8 126 -2 158 -10 L158 -10 Z " />
<glyph glyph-name="E" unicode="E" horiz-adv-x="409" d="M381 539 C393 538 399 540 402 544 C414 563 382 601 367 604 C352 607 272 592 175 568 C174 585 170 603 163 609 C150 620 116 602 104 589 C100 584 99 578 99 570 C100 562 101 551 101 534 C101 499 99 440 80 338 C76 319 68 258 59 199 C51 140 42 84 37 72 C32 60 28 57 26 54 C21 50 19 47 19 40 C19 28 32 9 44 -1 C51 -11 60 -17 67 -13 C92 -1 148 8 201 8 C223 8 244 6 262 3 C285 -1 304 -4 319 -6 C333 -7 347 -7 354 -1 C368 10 329 52 316 62 C311 66 300 67 285 67 C259 67 225 63 201 59 C182 56 161 51 144 48 C128 45 117 42 114 43 C111 44 108 46 105 48 C106 71 98 134 135 313 C188 327 229 331 261 331 C275 331 287 330 298 329 C315 327 328 325 337 323 C348 320 355 320 358 322 C371 333 353 382 337 386 C322 389 270 391 144 361 C157 422 167 476 172 517 C254 541 308 543 342 542 C360 541 373 540 381 539 L381 539 Z " />
<glyph glyph-name="F" unicode="F" horiz-adv-x="402" d="M370 539 C381 538 387 540 390 544 C402 563 370 601 355 604 C340 607 260 592 164 568 C162 585 158 603 151 609 C138 620 104 602 92 589 C88 584 87 578 88 570 C88 562 89 551 89 534 C90 499 87 440 68 338 C64 319 56 258 48 199 C39 140 30 84 25 72 C21 60 17 57 14 54 C9 50 7 47 7 40 C7 25 26 -5 46 -5 C66 -5 87 24 92 39 C94 45 93 55 93 61 C92 146 106 230 123 313 C176 327 217 331 249 331 C263 331 275 330 286 329 C303 327 316 325 325 323 C336 320 343 320 346 322 C359 333 342 382 325 386 C310 389 258 391 132 361 C145 422 155 476 160 517 C242 541 296 543 331 542 C348 541 361 540 370 539 L370 539 Z " />
<glyph glyph-name="G" unicode="G" horiz-adv-x="387" d="M324 436 C340 427 372 459 378 483 C384 509 363 585 286 604 C272 607 259 609 246 609 C144 609 60 511 16 354 C13 343 5 294 5 236 C5 139 28 15 139 -5 C306 -35 362 271 353 299 C347 316 307 342 288 347 C268 352 216 337 183 307 C166 292 176 269 188 255 C201 240 235 237 240 256 C241 259 241 264 243 271 C246 289 254 313 278 308 C296 304 286 238 264 171 C241 101 203 36 161 34 C104 31 79 119 79 214 C79 260 85 308 96 347 C128 464 196 580 264 563 C312 551 315 499 317 460 C318 446 320 437 324 436 L324 436 Z " />
<glyph glyph-name="H" unicode="H" horiz-adv-x="473" d="M130 310 C162 425 195 552 178 577 C176 581 153 588 135 588 C121 588 109 584 110 572 C111 560 110 548 109 535 C107 502 99 441 75 323 C48 187 33 119 24 83 C15 47 12 44 10 38 C5 23 58 -27 77 3 C79 6 80 12 80 22 C79 104 98 188 118 266 C134 272 179 291 252 312 C317 330 343 336 354 337 C344 293 289 46 286 36 C280 21 333 -29 353 1 C356 6 355 16 355 22 C354 113 382 223 405 307 C409 321 413 335 417 349 C419 357 453 348 460 342 C470 332 489 354 473 380 C463 396 442 396 429 394 C451 478 467 556 454 575 C450 581 383 598 386 571 L386 566 C390 524 368 411 363 382 C352 380 318 373 260 356 C200 338 152 319 130 310 L130 310 Z " />
<glyph glyph-name="I" unicode="I" horiz-adv-x="203" d="M180 543 C185 560 189 574 188 581 C185 605 146 621 127 602 C117 593 111 561 103 511 C95 461 85 389 70 298 C55 207 42 136 34 87 C27 39 23 8 27 -1 C31 -10 43 -13 56 -13 C71 -13 87 -8 92 0 C101 15 92 35 88 50 C85 62 91 171 113 295 C124 357 143 422 160 475 C168 501 175 525 180 543 L180 543 Z " />
<glyph glyph-name="J" unicode="J" horiz-adv-x="403" d="M390 542 C394 546 398 551 399 558 C400 580 370 607 344 598 C318 588 289 519 276 403 C269 344 270 252 258 174 C245 95 219 33 160 26 C92 18 73 88 74 112 C74 126 82 126 92 132 C119 149 73 198 60 200 C43 202 25 195 13 156 C3 125 31 -8 162 -12 C258 -15 297 53 314 136 C332 220 328 322 338 394 C347 466 362 502 374 521 C379 529 384 535 390 542 L390 542 Z " />
<glyph glyph-name="K" unicode="K" horiz-adv-x="451" d="M132 296 C165 434 194 561 187 575 C179 590 131 594 122 580 C120 576 120 572 120 567 C120 562 119 554 118 538 C115 506 107 444 81 318 C71 272 36 103 3 44 C0 37 -1 36 1 31 C5 15 42 -11 53 -11 C63 -11 83 -4 80 18 C79 29 107 175 109 189 L159 260 C175 218 247 41 312 -10 C334 -27 373 38 363 58 C359 66 352 67 345 70 C314 84 276 152 265 172 C226 241 201 310 203 313 C261 380 323 449 400 492 C419 503 433 508 442 513 C454 518 460 522 462 527 C469 547 441 588 425 588 C417 588 395 569 367 542 C337 514 297 475 251 430 C208 388 168 343 132 296 L132 296 Z " />
<glyph glyph-name="L" unicode="L" horiz-adv-x="359" d="M325 -6 C340 1 363 49 350 65 C344 72 328 74 304 74 C275 74 237 70 196 65 C138 57 105 53 92 51 C94 73 102 156 133 297 C152 380 169 450 181 499 C192 547 199 581 194 589 C182 605 136 596 113 565 C109 559 108 550 108 539 C107 528 108 514 108 494 C107 455 105 396 88 307 C54 128 32 95 17 75 C1 52 20 -3 35 -9 C43 -12 73 -6 82 -5 C106 -1 142 4 189 7 C236 10 265 5 285 0 C295 -2 302 -5 308 -7 C314 -8 320 -9 325 -6 L325 -6 Z " />
<glyph glyph-name="M" unicode="M" horiz-adv-x="586" d="M516 -12 C537 -20 599 36 574 54 L572 56 C531 85 523 301 523 308 C522 333 521 355 521 374 C521 462 533 499 534 525 C535 557 515 591 500 591 C488 591 446 567 445 547 C444 541 445 537 445 532 C446 497 382 371 376 358 C335 275 309 207 300 183 C293 197 276 237 245 344 C214 452 210 492 212 516 C215 548 217 580 191 591 C171 600 134 578 130 565 C129 561 131 557 132 553 C145 501 91 305 84 281 C51 159 30 102 18 72 C12 57 9 49 7 43 C5 36 5 31 7 24 C10 7 56 -18 74 -6 C84 1 92 43 100 92 C109 144 119 208 133 266 C152 348 167 405 173 430 C181 409 197 368 216 316 C256 209 269 154 273 125 C275 110 275 101 275 95 C275 90 276 85 280 80 C286 75 297 71 309 71 C323 71 338 76 341 87 C342 90 341 94 342 98 C343 137 406 285 412 300 C441 369 461 406 472 424 C472 404 472 365 474 302 C475 252 473 178 477 116 C480 55 490 -3 516 -12 L516 -12 Z " />
<glyph glyph-name="N" unicode="N" horiz-adv-x="477" d="M494 526 C495 528 497 531 497 534 C501 555 477 585 453 591 C425 597 384 519 347 359 C316 227 317 138 319 109 C301 124 259 174 223 313 C200 404 198 461 196 502 C195 542 193 568 168 593 C150 612 96 580 108 567 C108 566 109 563 109 553 C108 528 99 469 66 321 C36 183 18 122 9 92 C4 78 1 72 0 68 C-2 64 -3 62 -3 57 C-3 39 32 -5 50 -5 C69 -5 81 18 84 32 C85 37 84 40 83 44 C73 88 106 262 109 281 C124 363 141 418 149 442 C155 423 166 382 188 294 C259 12 302 -9 324 -8 C344 -7 379 38 383 55 C385 61 381 70 380 76 C375 94 373 114 373 136 C373 207 394 292 408 343 C434 439 455 482 470 502 C478 513 483 517 488 521 L491 524 C492 524 493 525 494 526 L494 526 Z " />
<glyph glyph-name="O" unicode="O" horiz-adv-x="418" d="M135 -18 C237 -18 354 124 398 294 C409 338 415 381 415 420 C415 529 372 608 294 608 C192 608 76 467 32 296 C20 251 15 208 15 169 C15 60 58 -18 135 -18 L135 -18 Z M287 569 C320 569 339 524 339 451 C339 408 332 355 317 296 C277 141 197 21 142 21 C110 21 90 67 90 140 C90 183 97 236 112 294 C152 449 232 569 287 569 L287 569 Z " />
<glyph glyph-name="P" unicode="P" horiz-adv-x="469" d="M279 210 C371 221 455 305 459 425 C463 545 374 586 336 588 C304 590 251 583 212 564 C213 566 213 568 212 571 C209 588 202 590 187 594 C173 597 137 590 131 575 C129 570 129 562 129 557 C129 548 129 536 127 517 C119 511 91 491 88 470 C85 447 102 435 112 418 C106 389 97 350 87 310 C55 178 33 112 19 76 C12 59 8 48 5 41 C2 34 1 30 2 24 C7 3 67 -24 82 -8 C85 -4 86 1 86 11 C87 20 86 33 88 55 C92 98 103 173 138 310 C161 400 187 489 191 501 C199 508 254 554 326 542 C347 538 393 518 385 417 C372 241 265 245 249 251 C229 259 216 272 210 292 C207 300 205 322 193 320 C186 320 177 312 163 298 C150 285 144 274 144 264 C144 245 164 232 186 224 C220 211 266 208 279 210 L279 210 Z " />
<glyph glyph-name="Q" unicode="Q" horiz-adv-x="403" d="M286 97 C326 150 358 218 378 293 C389 336 394 377 394 415 C394 520 353 596 278 596 C180 596 68 460 25 295 C14 252 9 211 9 173 C9 68 50 -8 125 -8 C167 -8 211 18 251 59 C263 44 275 29 285 18 C296 6 307 -5 317 -5 C349 -5 369 23 364 44 C362 52 358 54 351 56 C326 62 302 80 286 97 L286 97 Z M271 558 C303 558 322 513 322 442 C322 401 316 351 301 295 C286 236 264 180 241 136 C220 151 199 160 172 158 C120 155 95 138 82 126 C79 171 86 229 102 293 C141 442 218 558 271 558 L271 558 Z M168 119 C183 119 199 111 216 96 C186 54 156 30 132 30 C112 30 101 46 101 64 C101 89 121 118 168 119 L168 119 Z " />
<glyph glyph-name="R" unicode="R" horiz-adv-x="476" d="M285 216 C378 227 461 312 465 431 C469 552 380 592 343 594 C310 596 257 589 218 570 C219 572 219 575 218 577 C215 595 208 597 193 600 C179 603 143 597 137 581 C135 576 135 568 135 563 C135 555 135 542 133 523 C125 517 97 497 94 477 C91 453 108 442 118 424 C112 395 103 356 93 316 C61 185 39 118 25 83 C18 65 14 55 11 48 C8 41 7 36 8 30 C13 10 73 -18 88 -1 C91 2 91 7 92 18 C94 26 92 40 94 61 C98 104 109 180 144 317 C167 407 193 495 197 507 C205 514 260 560 332 548 C353 545 399 525 391 423 C378 247 271 250 255 258 C250 260 242 282 239 289 C230 310 220 324 205 324 C195 324 183 318 169 305 C161 297 157 288 157 279 C157 252 190 226 215 219 C231 183 313 1 337 -10 C361 -21 417 2 416 31 C416 44 407 47 398 53 C353 87 305 174 285 216 L285 216 Z " />
<glyph glyph-name="S" unicode="S" horiz-adv-x="427" d="M361 440 C383 436 407 448 414 486 C420 520 372 590 276 598 C179 607 95 551 93 457 C92 409 144 344 192 285 C217 255 241 226 259 201 C278 175 288 155 287 142 C282 83 233 28 165 27 C96 25 78 64 76 96 C75 117 96 126 111 135 C149 158 93 203 68 202 C45 201 6 156 6 106 C6 75 21 43 62 18 C94 -1 130 -10 166 -10 C258 -10 350 48 361 143 C368 196 315 263 265 323 C239 353 213 382 194 408 C174 434 162 455 162 469 C163 530 222 566 272 563 C321 560 341 524 339 508 C337 487 326 490 324 478 C320 460 341 443 361 440 L361 440 Z " />
<glyph glyph-name="T" unicode="T" horiz-adv-x="416" d="M380 540 C392 545 417 573 413 590 C411 600 396 606 367 606 C332 606 278 597 199 575 C125 554 88 553 69 554 C59 555 53 557 50 558 C45 559 41 560 36 555 C25 544 21 531 21 519 C21 494 40 473 61 482 C84 491 175 519 203 527 C170 390 138 252 93 118 C90 108 68 48 69 38 C70 19 126 -11 144 3 C150 7 151 14 152 22 C153 31 153 44 155 65 C158 107 167 179 196 306 C222 422 258 521 264 537 C276 541 333 558 353 551 C364 547 365 535 380 540 L380 540 Z " />
<glyph glyph-name="U" unicode="U" horiz-adv-x="484" d="M457 508 C464 521 469 531 471 539 C479 572 429 607 399 585 C371 564 316 266 304 212 C293 160 219 36 143 40 C107 42 96 80 96 126 C96 179 111 243 118 269 C141 358 163 425 177 472 C190 518 198 547 194 560 C185 581 149 612 120 585 C114 580 111 569 109 556 C106 542 103 522 99 498 C92 449 80 379 56 287 C34 203 23 139 23 93 C23 40 38 9 67 -5 C85 -13 102 -17 119 -17 C202 -17 268 72 294 113 C293 102 292 88 292 73 C292 40 296 4 312 -10 C325 -22 371 -5 379 25 C381 33 379 40 376 48 C374 56 371 67 368 84 C366 97 365 114 365 136 C365 172 369 223 381 296 C393 370 414 423 432 461 C441 480 450 496 457 508 L457 508 Z " />
<glyph glyph-name="V" unicode="V" horiz-adv-x="408" d="M392 514 C400 524 406 533 407 540 C411 567 384 598 347 588 C311 578 247 470 199 324 C135 132 110 103 103 99 C85 151 75 235 75 318 C75 390 83 462 102 508 C108 522 113 531 118 538 C122 547 125 552 125 558 C125 572 100 585 75 585 C53 585 32 576 27 549 C22 523 21 503 20 474 C19 445 19 406 17 343 C14 217 37 64 39 53 C42 40 31 39 32 28 C35 7 67 -9 94 -9 C106 -9 117 -5 124 2 C130 8 132 15 134 25 C137 35 140 49 146 70 C158 112 184 182 248 304 C289 384 328 436 357 472 C371 490 383 503 392 514 L392 514 Z " />
<glyph glyph-name="W" unicode="W" horiz-adv-x="665" d="M654 517 C663 525 669 532 671 540 C680 568 636 599 609 593 C592 589 558 557 471 353 C427 250 405 186 394 148 C388 129 384 116 381 107 C379 102 379 98 376 98 C371 97 372 109 369 138 C366 172 365 227 363 311 C362 395 370 446 377 480 C380 497 383 510 385 520 C387 530 388 539 385 547 C376 574 315 605 297 592 C285 583 280 570 266 535 C253 501 231 445 185 348 C139 251 120 198 110 168 C105 154 103 145 101 140 C99 135 97 134 95 133 C88 130 86 135 82 160 C78 191 75 247 75 346 C75 437 88 491 98 525 C103 543 107 555 109 564 C114 587 102 595 85 595 C56 595 11 569 7 545 C5 530 10 503 12 489 C16 459 20 413 23 339 C25 273 26 224 26 187 C26 86 20 76 20 60 C20 34 63 -4 102 -5 C114 -5 121 -1 126 9 C132 22 135 43 139 57 C150 103 170 183 228 320 C265 408 290 454 302 475 C303 451 306 399 309 308 C310 276 311 250 311 227 C311 175 308 145 306 125 C303 103 298 87 303 65 C312 20 381 -14 408 3 C416 7 421 19 426 34 C432 50 437 71 445 98 C480 222 537 383 621 482 C635 498 646 509 654 517 L654 517 Z " />
<glyph glyph-name="X" unicode="X" horiz-adv-x="457" d="M421 514 C431 525 438 535 439 542 C442 571 395 604 372 590 C366 587 363 581 360 573 C356 565 352 554 343 536 C326 501 292 441 217 340 C170 425 150 485 139 525 C133 545 130 560 126 570 C122 580 118 588 109 589 C82 592 35 536 60 515 L63 513 C106 478 174 337 189 306 C101 189 53 129 27 94 C1 60 -5 51 -5 38 C-5 13 22 -10 39 -9 C49 -8 58 2 66 16 C75 30 85 50 98 75 C122 123 156 190 207 266 C276 129 347 -2 373 -8 C401 -15 465 62 426 78 L421 80 C414 83 404 87 389 98 C359 121 311 174 236 301 C295 380 344 434 379 470 C397 489 412 503 421 514 L421 514 Z " />
<glyph glyph-name="Y" unicode="Y" horiz-adv-x="464" d="M437 529 C448 538 454 543 456 547 C462 566 431 613 399 613 C381 613 348 567 316 518 C285 470 251 414 229 379 C175 432 144 510 114 579 C106 597 99 608 95 609 C81 612 31 595 33 570 C35 548 133 404 195 332 C145 263 37 94 34 61 C31 28 101 -13 117 0 C122 4 125 21 126 27 C129 40 133 60 141 85 C156 135 187 208 249 305 C311 403 361 459 396 492 C414 509 428 521 437 529 L437 529 Z " />
<glyph glyph-name="Z" unicode="Z" horiz-adv-x="437" d="M412 502 C421 512 428 521 429 527 C435 548 395 604 375 604 C367 604 361 602 353 599 C325 589 308 589 278 589 C260 589 203 591 164 591 C144 591 130 591 126 589 C113 583 88 561 88 549 C88 538 117 501 130 500 C137 499 144 502 151 506 C159 510 169 515 185 520 C216 530 269 542 368 542 C371 542 371 539 370 535 C370 532 334 493 333 492 C307 463 267 419 214 354 C105 223 7 59 8 44 C10 29 31 -5 60 -9 C67 -10 72 -10 78 -9 C85 -8 94 -6 109 -4 C137 -1 184 1 276 1 C290 1 306 1 322 1 C346 1 380 30 384 45 C387 59 371 91 356 94 C350 95 343 92 334 86 C327 81 318 75 304 70 C279 61 139 58 104 57 C116 84 165 187 251 307 C301 376 344 426 375 460 C391 478 403 492 412 502 L412 502 Z " />
<glyph glyph-name="bracketleft" unicode="&#x5b;" horiz-adv-x="241" d="M160 529 L163 528 C175 524 206 513 215 519 C225 525 229 554 227 561 C222 583 132 600 114 587 C98 575 12 45 12 25 C12 -2 116 -21 127 -12 C134 -5 140 32 132 41 C127 48 100 49 89 50 C90 68 93 131 93 196 C96 217 102 280 106 305 C123 424 145 494 160 529 L160 529 Z " />
<glyph glyph-name="bracketright" unicode="&#x5d;" horiz-adv-x="225" d="M154 537 C156 504 147 429 122 312 C117 287 101 224 96 203 C72 137 59 72 56 56 C43 55 2 53 -7 46 C-16 38 -25 1 -19 -7 C-9 -19 100 8 108 30 C115 50 219 579 208 591 C193 606 98 584 86 565 C82 557 78 527 84 521 C91 515 138 532 151 536 L154 537 Z " />
<glyph glyph-name="a" unicode="a" horiz-adv-x="295" d="M305 276 C309 283 311 290 311 298 C311 339 238 371 202 369 C117 365 -17 164 -20 74 C-21 36 27 -1 53 -8 C70 -13 143 41 177 66 C169 47 160 20 167 1 C170 -7 182 -10 194 -10 C214 -10 237 -1 236 13 C236 18 234 22 233 26 C222 65 268 192 275 211 C281 225 287 238 292 249 C297 261 302 270 305 276 L305 276 Z M102 213 C169 298 221 332 238 318 C255 304 234 222 175 142 C116 62 50 28 31 44 C13 60 35 128 102 213 L102 213 Z " />
<glyph glyph-name="b" unicode="b" horiz-adv-x="315" d="M265 129 C306 195 322 244 322 281 C322 312 311 334 292 350 C274 365 257 371 239 371 C170 371 104 276 71 224 C74 252 78 289 81 307 C89 358 109 487 143 542 C148 550 158 560 156 569 C151 590 107 602 89 589 C73 577 -13 47 -13 27 C-13 4 40 -30 60 -8 C60 -7 61 -6 61 -4 C72 -10 84 -15 94 -15 C146 -12 219 55 265 129 L265 129 Z M142 225 C214 315 249 334 269 319 C277 313 286 258 218 158 C149 58 88 24 66 44 C62 47 60 51 59 56 C47 103 124 202 142 225 L142 225 Z " />
<glyph glyph-name="c" unicode="c" horiz-adv-x="287" d="M229 263 C234 252 269 230 282 239 C288 243 292 257 292 274 C292 293 287 315 273 331 C256 349 232 372 175 375 C135 377 93 326 45 240 C10 178 2 130 2 98 C2 85 4 74 5 66 C10 37 45 -14 92 -14 C151 -14 239 93 237 108 C236 123 206 138 190 139 C185 140 177 130 168 114 C160 101 151 83 140 67 C118 35 92 15 62 39 C56 44 53 53 53 66 C53 95 68 145 103 215 C153 315 192 342 221 326 C252 309 222 277 229 263 L229 263 Z " />
<glyph glyph-name="d" unicode="d" horiz-adv-x="328" d="M361 551 C366 558 367 562 366 567 C361 589 318 601 299 587 C290 580 270 472 250 357 C235 362 208 370 193 369 C108 365 -17 164 -16 74 C-16 36 34 -1 60 -8 C79 -13 158 40 206 90 C201 54 197 30 197 25 C197 6 229 -16 252 -16 C265 -16 275 -9 275 9 C275 15 274 25 273 39 C272 51 271 66 271 86 C271 113 273 148 278 195 C280 216 287 280 291 305 C310 432 330 493 344 523 C349 533 354 542 361 551 L361 551 Z M231 318 C236 314 239 303 237 285 C232 237 202 179 176 142 C120 62 56 28 37 44 C17 60 37 128 100 213 C163 299 213 332 231 318 L231 318 Z M244 264 C246 271 247 277 247 284 L237 285 L234 266 L244 264 Z " />
<glyph glyph-name="e" unicode="e" horiz-adv-x="258" d="M77 194 C81 202 85 209 89 217 C128 291 169 328 199 328 C209 328 218 323 226 315 C245 294 225 262 192 235 C169 217 107 201 77 194 L77 194 Z M58 149 C224 201 277 251 277 297 C277 310 273 323 266 335 C257 351 227 375 186 375 C175 375 163 373 150 369 C116 358 81 328 32 243 C-18 156 -15 98 -11 70 C-7 42 27 -8 74 -8 C132 -8 227 94 225 109 C224 124 195 139 179 140 C161 142 122 33 72 33 C63 33 54 37 45 44 C32 54 34 90 58 149 L58 149 Z " />
<glyph glyph-name="f" unicode="f" horiz-adv-x="223" d="M264 482 C278 470 310 477 315 505 C324 558 283 588 234 588 C194 588 149 567 123 522 C109 497 92 430 77 352 C55 343 44 340 36 340 C30 339 24 340 18 337 C5 329 2 290 18 290 C21 290 22 291 24 292 C38 304 55 311 71 319 C48 188 29 37 29 25 C29 7 60 -14 82 -14 C94 -14 103 -8 103 9 C103 15 102 25 101 39 C100 52 99 68 99 89 C99 115 101 150 105 196 C110 242 116 289 124 335 C141 337 154 333 164 330 C170 327 184 321 190 321 C206 323 210 346 201 357 C197 363 182 365 163 365 C152 365 141 364 129 363 C138 410 152 468 170 510 C190 555 214 576 242 550 C274 521 250 493 264 482 L264 482 Z " />
<glyph glyph-name="g" unicode="g" horiz-adv-x="339" d="M354 281 C360 294 373 322 373 334 C373 353 352 363 330 363 C320 363 314 358 310 353 C290 363 266 370 248 369 C163 365 29 164 26 74 C25 37 73 -10 103 -9 C171 -6 227 63 253 102 C248 70 239 12 236 -78 C230 -252 150 -299 84 -287 C34 -278 8 -247 -6 -218 C-13 -204 -17 -190 -21 -179 C-25 -166 -29 -157 -33 -156 C-50 -151 -77 -172 -82 -188 C-89 -209 -27 -290 84 -310 C97 -312 109 -314 121 -314 C200 -314 267 -260 287 -76 C293 -26 292 -13 293 9 C294 31 298 61 313 144 C329 227 346 261 354 281 L354 281 Z M149 213 C216 298 268 332 285 318 C303 304 282 222 223 142 C163 62 97 28 79 44 C60 60 83 128 149 213 L149 213 Z " />
<glyph glyph-name="h" unicode="h" horiz-adv-x="295" d="M282 256 C288 273 294 285 299 299 C309 327 256 363 242 363 C163 363 93 210 69 151 C69 156 69 162 70 167 C71 188 84 282 88 307 C109 434 127 495 140 526 C146 541 151 550 154 555 C157 561 160 565 158 571 C153 593 113 600 95 587 C79 575 -2 52 -2 32 C-2 7 42 -13 61 -5 C64 -4 68 4 72 17 C75 28 78 42 83 60 C93 94 107 139 129 182 C166 254 224 332 238 320 C241 317 243 315 241 307 C240 298 235 284 228 261 C207 191 200 136 200 95 C200 36 214 5 222 -1 C246 -21 294 16 282 32 C277 38 270 37 263 49 C257 60 254 79 254 100 C254 152 269 222 282 256 L282 256 Z " />
<glyph glyph-name="i" unicode="i" horiz-adv-x="142" d="M108 416 C115 416 153 420 162 432 C170 445 158 474 148 478 C140 482 103 449 100 439 C97 429 100 417 108 416 L108 416 Z M130 322 C145 346 101 374 83 360 C38 326 9 34 18 20 C32 -2 55 -17 70 -6 C73 -4 75 0 75 11 C75 19 73 38 72 52 C70 82 70 123 84 186 C101 260 112 292 120 307 C124 315 128 319 130 322 L130 322 Z " />
<glyph glyph-name="j" unicode="j" horiz-adv-x="158" d="M140 416 C147 416 185 420 194 432 C203 445 192 474 182 478 C174 482 136 449 133 439 C130 429 132 417 140 416 L140 416 Z M142 282 C149 295 162 323 162 334 C162 358 117 368 105 361 C94 354 75 294 66 246 C45 134 34 66 29 -78 C23 -252 -58 -302 -126 -289 C-177 -280 -203 -249 -217 -219 C-224 -205 -229 -190 -232 -180 C-234 -174 -235 -170 -236 -167 C-247 -139 -286 -176 -290 -189 C-296 -207 -237 -288 -125 -308 C-113 -310 -101 -311 -89 -311 C-11 -311 55 -259 76 -75 C81 -26 80 -12 81 9 C83 31 86 61 102 144 C117 227 135 262 142 282 L142 282 Z " />
<glyph glyph-name="k" unicode="k" horiz-adv-x="325" d="M303 22 C312 37 312 52 304 57 C296 61 287 64 268 72 C264 73 260 77 254 84 C247 91 239 99 226 112 C201 137 163 172 95 220 C162 272 210 291 243 297 C261 301 276 300 293 299 C311 297 318 314 318 331 C318 348 311 367 304 370 C280 381 205 351 150 310 C122 290 99 268 81 251 C83 268 86 286 89 305 C97 356 117 485 151 541 C156 548 166 558 164 567 C159 589 115 601 97 587 C81 575 -5 45 -5 25 C-5 6 27 -16 50 -16 C63 -16 73 -9 73 9 C73 15 71 25 70 39 C69 50 69 64 69 82 C69 108 70 142 74 188 C91 176 118 156 146 126 C200 68 225 35 238 18 C253 -2 256 -5 268 -4 C283 -2 296 10 303 22 L303 22 Z " />
<glyph glyph-name="l" unicode="l" horiz-adv-x="129" d="M172 551 C177 558 179 562 178 567 C173 589 129 601 111 587 C95 575 9 45 9 25 C9 6 41 -16 64 -16 C77 -16 87 -9 87 9 C87 15 86 25 85 39 C84 51 83 66 83 86 C83 113 85 148 90 195 C92 216 99 280 103 305 C122 432 142 493 156 523 C161 533 166 542 172 551 L172 551 Z " />
<glyph glyph-name="m" unicode="m" horiz-adv-x="491" d="M235 299 C229 261 219 212 210 163 C202 114 195 65 195 33 C195 10 245 -20 266 -2 C271 3 283 52 285 60 C294 93 308 135 329 176 C366 249 416 336 437 320 C440 317 441 315 440 307 C438 298 434 284 427 261 C404 186 397 128 397 86 C397 32 409 4 416 -3 C433 -17 473 -4 479 18 C481 25 479 27 474 32 L472 34 C461 45 458 67 458 91 C458 130 467 174 469 183 C481 249 489 267 499 296 C508 324 455 363 441 363 C349 360 277 180 256 119 C254 134 254 156 259 183 C271 250 280 268 290 296 C300 324 246 363 231 363 C163 363 91 221 65 164 C67 188 72 227 86 280 C96 307 104 321 109 329 L113 334 C114 336 115 337 116 339 C129 364 73 386 50 369 C45 365 37 335 30 295 C9 179 -13 45 -13 35 C-13 12 39 -18 60 0 C65 5 78 55 80 62 C89 95 104 138 126 181 C163 253 207 336 227 320 C230 318 233 311 235 299 L235 299 Z " />
<glyph glyph-name="n" unicode="n" horiz-adv-x="297" d="M262 183 C274 250 283 268 293 297 C302 323 250 361 236 361 C168 361 94 213 68 155 C69 180 74 224 89 281 C97 303 104 317 116 335 L118 337 C120 341 121 345 120 349 C116 368 74 380 57 367 C52 364 44 335 37 294 C16 178 -6 44 -6 35 C-6 13 44 -15 63 2 C68 6 81 56 83 63 C92 96 107 139 129 182 C165 252 211 339 234 322 C237 319 241 314 242 300 C228 237 205 120 211 60 C215 25 224 6 230 1 C246 -12 284 1 290 21 C292 29 282 39 277 45 C270 55 261 70 261 97 C261 99 258 113 258 136 C258 149 259 165 262 183 L262 183 Z " />
<glyph glyph-name="o" unicode="o" horiz-adv-x="244" d="M92 -9 C167 -13 268 162 268 262 C268 274 267 284 264 293 C254 326 194 367 150 367 C87 367 -7 217 -7 102 C-7 89 -6 76 -3 64 C3 36 50 -6 92 -9 L92 -9 Z M86 218 C119 279 167 332 198 312 C209 305 214 288 214 266 C214 233 203 189 180 150 C140 81 83 22 56 42 C48 48 44 61 44 78 C44 117 63 175 86 218 L86 218 Z " />
<glyph glyph-name="p" unicode="p" horiz-adv-x="310" d="M90 -7 C171 -12 350 204 349 293 C349 328 300 369 256 369 C218 369 152 313 99 246 C112 280 122 298 129 309 C134 316 138 321 140 324 C159 350 101 373 77 356 C61 344 -53 -175 -54 -195 C-55 -216 -24 -236 -1 -236 C12 -236 22 -230 23 -214 C23 -208 22 -200 22 -187 C20 -120 32 -53 43 13 C56 2 72 -6 90 -7 L90 -7 Z M149 219 C200 280 265 334 289 314 C310 297 282 220 223 152 C162 83 87 24 67 44 C47 64 98 157 149 219 L149 219 Z " />
<glyph glyph-name="q" unicode="q" horiz-adv-x="305" d="M337 320 C342 327 344 331 342 336 C337 358 294 370 275 356 C274 355 272 351 269 343 C251 358 227 369 204 369 C135 369 -19 185 -21 67 C-21 38 15 -4 58 -7 C102 -10 172 54 225 125 C199 -21 173 -184 173 -196 C173 -216 205 -236 228 -236 C241 -236 251 -230 251 -214 C251 -208 250 -200 249 -187 C248 -177 248 -165 248 -148 C248 -122 249 -86 254 -35 C256 -14 263 49 267 75 C286 202 306 262 320 292 C325 302 330 311 337 320 L337 320 Z M105 219 C153 280 215 334 240 314 C262 297 238 220 182 152 C126 83 53 24 32 44 C11 64 57 158 105 219 L105 219 Z " />
<glyph glyph-name="r" unicode="r" horiz-adv-x="213" d="M256 313 C264 320 268 336 268 351 C268 366 264 380 256 384 C217 406 130 285 68 131 C75 171 87 228 101 281 C109 303 116 317 128 335 L129 337 C132 341 133 345 132 349 C127 368 85 380 68 367 C63 364 55 335 48 294 C38 236 23 172 12 122 L-2 58 C-5 43 -8 32 -8 29 C-8 6 42 -22 61 -5 C63 -3 66 3 69 16 C84 72 98 130 127 182 C168 254 196 284 216 297 C226 303 234 305 240 307 C245 308 252 309 256 313 L256 313 Z " />
<glyph glyph-name="s" unicode="s" horiz-adv-x="244" d="M123 -22 C207 1 325 172 287 222 C280 230 270 234 258 234 C200 234 91 160 53 171 C51 172 51 176 57 191 C73 235 135 294 179 311 C188 314 197 316 207 319 C219 322 225 332 225 342 C225 353 218 365 207 370 C191 378 147 370 66 291 C20 245 0 206 0 177 C0 145 25 125 64 125 C88 125 117 132 150 148 C212 177 242 181 242 163 C242 149 226 123 194 87 C158 45 136 34 123 32 C110 30 108 37 98 38 C81 40 66 9 67 0 C68 -15 81 -33 123 -22 L123 -22 Z " />
<glyph glyph-name="t" unicode="t" horiz-adv-x="164" d="M18 290 C19 290 22 290 24 293 C28 301 55 313 65 318 C42 186 29 37 29 25 C29 7 60 -14 82 -14 C94 -14 103 -8 103 9 C103 15 102 25 101 39 C100 52 99 68 99 89 C99 115 101 150 105 196 C110 242 116 289 124 335 C141 337 154 333 164 330 C170 327 184 321 190 321 C206 323 210 346 201 357 C197 363 182 365 163 365 C152 365 141 364 129 363 C139 435 155 479 167 507 C174 522 180 533 184 542 C188 550 190 557 189 562 C186 583 157 600 136 591 C119 584 107 541 97 493 C87 446 79 391 71 351 C49 342 39 340 33 339 C30 339 28 339 26 339 C3 338 1 291 18 290 L18 290 Z " />
<glyph glyph-name="u" unicode="u" horiz-adv-x="289" d="M214 91 C207 62 199 24 201 15 C204 3 243 -25 255 -9 C259 -6 258 0 257 4 C253 65 268 131 283 189 C298 246 310 276 319 294 C323 302 332 316 332 327 C332 343 312 354 291 354 C278 354 273 344 271 338 C266 324 258 292 245 254 C232 216 213 171 184 133 C125 53 79 17 60 35 C54 40 46 49 46 78 C46 104 53 147 75 216 C86 250 104 291 130 318 C135 322 141 327 141 334 C141 347 111 369 92 360 C57 344 11 202 11 97 C11 86 11 76 12 66 C16 31 58 -15 86 -14 C151 -11 194 52 214 91 L214 91 Z " />
<glyph glyph-name="v" unicode="v" horiz-adv-x="217" d="M59 74 L59 86 C59 105 57 136 56 181 C55 204 55 226 55 246 C55 266 55 285 55 301 C54 334 52 358 47 363 C31 377 -28 350 -13 320 C-11 316 -7 311 -3 302 C4 284 13 249 16 172 C17 138 14 102 11 74 C10 65 4 24 6 16 C11 2 52 -17 65 -8 C68 -6 74 4 82 20 C114 85 143 152 180 216 C202 254 252 340 292 376 C295 379 298 382 298 388 C299 404 277 424 260 421 C252 420 234 396 213 361 C192 327 167 282 142 236 C117 191 95 147 80 115 C73 101 66 87 59 74 L59 74 Z " />
<glyph glyph-name="w" unicode="w" horiz-adv-x="367" d="M231 73 L229 86 C226 106 222 136 215 182 C212 200 208 227 205 246 C206 250 209 254 211 257 C229 283 191 297 171 290 C153 283 151 251 145 236 C125 190 109 147 97 114 C91 99 86 85 83 76 L82 73 L80 86 C77 106 74 136 66 182 C59 227 53 270 49 301 C45 335 40 358 34 363 C19 376 -40 351 -19 319 C-17 315 -13 310 -9 301 C0 284 12 249 27 171 C33 137 34 102 34 73 C34 68 33 56 33 44 C33 32 34 19 36 15 C41 2 84 -18 97 -8 C100 -6 105 4 110 18 C132 74 150 131 173 187 C181 150 180 111 182 73 C183 64 181 24 185 15 C191 2 233 -18 246 -8 C249 -6 254 4 260 20 C285 85 306 152 334 216 C351 255 389 341 425 376 C430 380 432 383 431 388 C431 404 406 424 390 421 C382 420 366 396 349 360 C333 326 314 281 294 236 C274 190 258 147 246 114 C240 99 236 85 232 76 L231 73 Z " />
<glyph glyph-name="x" unicode="x" horiz-adv-x="269" d="M211 -10 C221 -13 230 -14 239 -14 C278 -14 306 8 309 23 C311 36 309 67 287 72 C272 76 269 63 263 53 C259 45 251 36 227 31 C210 29 160 75 122 153 C130 165 138 178 146 191 C177 242 202 275 219 296 C228 307 235 316 239 322 C243 328 247 334 246 341 C243 361 207 371 192 365 C184 362 182 359 172 338 C150 292 127 247 102 203 C76 273 50 337 39 345 C26 354 1 350 -5 332 C-8 323 3 316 8 310 C15 302 26 287 37 259 C49 228 60 205 76 163 C49 121 19 82 -11 42 C-16 36 -20 31 -22 29 C-31 12 -7 -7 2 -10 C7 -12 24 7 42 35 C57 58 76 88 97 117 C124 59 158 4 211 -10 L211 -10 Z " />
<glyph glyph-name="y" unicode="y" horiz-adv-x="298" d="M213 108 C208 78 199 18 195 -78 C189 -252 108 -301 41 -289 C-11 -279 -36 -249 -51 -219 C-58 -205 -62 -190 -66 -180 C-67 -174 -69 -170 -70 -167 C-80 -139 -119 -176 -124 -189 C-130 -207 -70 -288 42 -308 C54 -310 66 -311 78 -311 C155 -311 221 -259 242 -75 C247 -26 247 -12 248 9 C249 31 253 61 268 144 C284 227 301 262 309 282 C315 295 328 323 328 334 C328 351 309 361 287 361 C275 361 269 352 267 345 C263 332 255 300 241 262 C228 224 209 179 180 141 C121 61 64 25 44 42 C38 47 30 56 30 84 C30 110 37 152 60 223 C72 261 98 294 124 324 L129 331 C132 333 133 336 133 337 C133 350 95 377 76 368 C41 352 -5 209 -5 104 C-5 94 -5 84 -4 74 C0 39 42 -8 70 -7 C141 -4 192 71 213 108 L213 108 Z " />
<glyph glyph-name="z" unicode="z" horiz-adv-x="262" d="M48 36 C55 60 91 141 296 306 C313 320 290 365 278 369 C267 372 77 368 57 356 C43 348 37 315 48 301 C51 296 56 296 65 301 C71 304 80 309 95 314 C113 320 140 325 180 325 C200 325 223 324 250 321 C92 194 -3 61 -7 49 C-12 36 2 -1 15 -7 C21 -9 31 -9 46 -6 C88 1 116 12 152 12 C165 12 180 11 197 7 C208 4 217 1 224 0 C233 -2 240 -2 243 0 C256 8 264 55 251 64 C246 67 235 68 220 68 C201 68 177 66 153 63 C118 58 67 43 48 36 L48 36 Z " />
<glyph glyph-name="braceleft" unicode="&#x7b;" horiz-adv-x="222" d="M253 554 C274 570 222 605 193 586 C183 580 104 482 66 350 C56 317 21 317 21 317 L21 307 C21 307 53 305 45 256 C27 150 25 35 24 27 C21 4 71 -31 93 -11 C98 -5 99 4 98 13 C97 23 95 37 93 56 C90 80 87 111 87 152 C87 175 88 200 90 229 C93 241 94 251 94 260 C94 283 86 297 79 304 C91 307 107 314 114 336 C150 451 186 502 212 526 C225 539 236 546 244 549 L249 551 C250 552 252 553 253 554 L253 554 Z " />
<glyph glyph-name="bar" unicode="&#x7c;" horiz-adv-x="152" d="" />
<glyph glyph-name="braceright" unicode="&#x7d;" horiz-adv-x="238" d="M204 233 C222 273 265 279 265 279 C246 286 215 299 222 326 C237 384 242 440 242 485 C242 543 234 583 230 587 C215 602 174 586 162 568 C158 562 161 557 165 553 C175 544 181 540 187 527 C193 514 198 494 198 462 C198 431 193 390 180 333 C174 305 188 289 199 282 C186 275 163 257 142 212 C103 130 70 80 47 48 C36 32 27 21 21 13 C-13 -38 81 -8 95 24 C98 32 152 114 204 233 L204 233 Z " />
<glyph glyph-name="nbspace" unicode="&#xa0;" horiz-adv-x="172" d="" />
<glyph glyph-name="endash" unicode="&#x2013;" horiz-adv-x="244" d="M220 156 C230 161 238 194 229 198 C218 202 182 203 144 203 C89 203 27 200 25 194 C21 185 17 180 15 177 C13 172 12 167 15 161 C19 151 29 147 40 147 C58 147 80 156 94 155 C100 155 113 155 129 155 C167 155 220 155 220 156 L220 156 Z " />
<glyph glyph-name="emdash" unicode="&#x2014;" horiz-adv-x="305" d="M281 156 C291 161 299 194 290 198 C279 202 234 203 183 203 C110 203 27 200 25 194 C21 185 17 180 15 177 C13 172 12 167 15 161 C19 151 29 147 40 147 C58 147 80 156 94 155 C100 155 119 155 142 155 C198 155 281 155 281 156 L281 156 Z " />
<glyph glyph-name="minus" unicode="&#x2212;" horiz-adv-x="215" d="M191 156 C201 161 209 194 200 198 C189 202 158 203 125 203 C78 203 27 200 25 194 C21 185 17 180 15 177 C13 172 12 167 15 161 C19 151 29 147 40 147 C58 147 80 156 94 155 C100 155 111 155 123 155 C153 155 191 155 191 156 L191 156 Z " />
</font>
</svg>
