<?xml version="1.0" encoding="UTF-8"?>
<svg xmlns="http://www.w3.org/2000/svg" xmlns:xlink="http://www.w3.org/1999/xlink" version="1.2" >
<font id="Spud">
<font-face  font-family="Spud" units-per-em="1000" ascent="700" descent="-300" font-style="normal" font-weight="400" font-stretch="normal" slope="-11" cap-height="576" x-height="362" underline-position="-123" underline-thickness="20" />
<missing-glyph  horiz-adv-x="175" d="M0 2 L175 2 L175 701 L0 701 L0 2 Z " />
<glyph glyph-name=".null" d="" />
<glyph glyph-name="&amp;#x0;" d="" />
<glyph glyph-name="&amp;#xd;" unicode="&#xd;" d="" />
<glyph glyph-name="space" unicode="&#x20;" horiz-adv-x="202" d="" />
<glyph glyph-name="exclam" unicode="&#x21;" horiz-adv-x="149" d="M99 598 C80 593 75 541 75 459 C75 425 76 385 77 342 C77 331 77 321 77 311 C77 187 61 145 58 140 C55 135 52 129 62 116 C73 103 98 111 104 119 C110 127 104 184 117 296 C130 408 168 535 164 555 C160 575 126 605 99 598 L99 598 Z M46 31 C45 12 57 -3 73 -4 C88 -4 101 10 102 30 C103 49 91 65 76 65 C60 66 47 50 46 31 L46 31 Z " />
<glyph glyph-name="quotedbl" unicode="&#x22;" horiz-adv-x="111" d="M16 536 C20 532 31 528 36 530 C44 533 53 579 50 585 C46 592 27 598 23 595 C17 590 13 538 16 536 L16 536 Z M68 530 C72 527 83 523 88 525 C96 528 105 573 102 580 C98 587 79 592 75 589 C69 585 65 533 68 530 L68 530 Z " />
<glyph glyph-name="numbersign" unicode="&#x23;" horiz-adv-x="371" d="M136 173 C137 182 138 191 139 200 C141 212 142 223 144 233 C158 234 175 236 193 238 L225 241 L222 212 L220 178 C209 177 197 176 184 175 C166 174 150 173 136 173 L136 173 Z M15 124 C23 116 33 118 93 125 C87 61 83 48 80 44 C77 39 74 33 85 20 C96 7 120 15 126 23 C131 29 128 64 133 130 C148 132 165 134 184 136 L216 139 C209 58 204 43 202 39 C198 34 195 28 206 15 C217 2 242 10 248 18 C253 25 249 65 256 142 C325 149 318 145 323 144 C329 141 336 139 344 152 C352 165 333 187 323 191 C316 194 306 188 259 182 L261 195 C264 214 265 230 267 245 C334 251 327 248 332 246 C338 244 346 242 353 254 C361 267 342 289 332 293 C325 296 316 291 274 285 C282 331 288 354 286 367 C282 387 266 404 241 394 C231 390 232 366 227 280 C217 279 205 278 193 277 C177 276 163 276 150 275 C160 332 167 358 164 372 C160 392 145 410 120 399 C109 394 111 369 105 275 C60 275 43 278 31 273 C13 266 3 248 24 226 C32 218 42 220 102 228 L101 217 C100 201 99 186 97 172 C51 173 34 176 22 171 C4 164 -6 146 15 124 L15 124 Z " />
<glyph glyph-name="dollar" unicode="&#x24;" horiz-adv-x="395" d="M89 418 C97 347 271 220 274 172 C277 125 243 81 188 80 C133 78 112 110 107 137 C102 163 136 168 137 177 C139 187 119 217 94 216 C80 215 59 188 59 155 C59 130 72 101 110 80 C136 65 165 59 192 59 C262 59 324 103 323 175 C322 252 140 377 134 427 C127 478 172 507 212 505 C253 502 275 473 275 457 C275 440 266 441 266 434 C265 422 284 408 301 408 C314 408 327 417 328 441 C329 464 286 518 212 524 C137 531 80 489 89 418 L89 418 Z M214 536 C218 532 229 528 234 530 C242 533 251 579 248 585 C244 592 225 598 221 595 C215 590 211 538 214 536 L214 536 Z M157 -15 C161 -19 172 -23 177 -21 C185 -18 194 28 191 34 C187 41 168 47 164 44 C158 39 154 -13 157 -15 L157 -15 Z " />
<glyph glyph-name="percent" unicode="&#x25;" horiz-adv-x="259" d="M237 538 C234 556 196 577 179 569 C162 561 22 71 20 52 C18 33 64 -6 81 6 C95 17 73 44 109 201 C113 220 128 281 134 304 C200 542 239 521 237 538 L237 538 Z M23 343 C58 343 90 391 97 447 C103 502 83 553 46 553 C10 553 -21 505 -28 449 C-35 394 -14 343 23 343 L23 343 Z M46 535 C64 535 71 496 66 449 C60 397 39 360 23 360 C9 360 1 384 1 417 C1 426 2 436 3 447 C9 498 30 535 46 535 L46 535 Z M192 28 C227 28 259 76 266 132 C272 187 252 238 214 238 C179 238 148 190 141 134 C135 79 154 28 192 28 L192 28 Z M214 220 C229 220 236 197 236 165 C236 155 235 145 234 134 C228 82 208 45 192 45 C177 45 170 68 170 100 C170 110 171 121 172 132 C178 183 199 220 214 220 L214 220 Z " />
<glyph glyph-name="ampersand" unicode="&#x26;" horiz-adv-x="401" d="M280 417 C292 421 306 431 310 445 C312 452 290 480 258 496 C242 504 224 509 204 509 C181 509 154 502 127 482 C102 464 94 441 94 417 C94 373 123 329 130 319 C118 312 65 278 65 212 C65 200 67 187 71 173 C90 107 143 93 182 93 C203 93 220 97 225 99 C282 123 300 157 302 187 C303 215 289 240 281 241 C267 243 241 223 239 209 C238 207 239 205 239 202 C241 191 244 181 244 169 C244 153 239 136 215 126 C203 121 192 119 182 119 C138 119 115 163 115 205 C115 232 125 259 145 272 C154 278 164 280 172 282 C176 283 186 285 189 287 C197 294 204 305 205 313 C205 317 194 326 192 328 C185 335 176 343 167 354 C150 376 136 405 144 439 C153 475 183 490 204 487 C238 483 248 468 250 455 C252 447 252 440 251 434 C250 430 249 422 250 419 C252 413 265 411 280 417 L280 417 Z M216 536 C220 532 231 528 236 530 C244 533 253 579 250 585 C246 592 227 598 223 595 C217 590 213 538 216 536 L216 536 Z M136 13 C141 10 151 6 156 8 C164 11 173 56 170 63 C166 69 147 75 143 72 C137 68 133 16 136 13 L136 13 Z " />
<glyph glyph-name="quotesingle" unicode="&#x27;" horiz-adv-x="111" d="M25 469 C32 462 50 454 60 458 C72 463 87 543 82 553 C77 565 43 576 36 570 C27 562 18 472 25 469 L25 469 Z " />
<glyph glyph-name="parenleft" unicode="&#x28;" horiz-adv-x="237" d="M127 -7 C140 7 97 46 87 209 C89 230 92 292 96 317 C134 547 215 546 210 563 C206 580 167 594 151 582 C143 576 77 460 57 327 C51 288 49 246 49 208 C49 113 62 33 62 26 C63 6 112 -24 127 -7 L127 -7 Z " />
<glyph glyph-name="parenright" unicode="&#x29;" horiz-adv-x="230" d="M49 -7 C60 -24 112 6 118 26 C121 36 188 189 203 327 C206 350 207 372 207 393 C207 497 181 579 176 583 C163 595 125 582 116 565 C108 550 170 549 170 392 C170 370 169 346 166 318 C164 293 150 230 146 209 C94 46 41 7 49 -7 L49 -7 Z " />
<glyph glyph-name="comma" unicode="&#x2c;" horiz-adv-x="144" d="M65 -13 C78 -17 52 -74 66 -75 C88 -76 107 -32 108 -3 C109 39 95 66 69 65 C52 64 37 48 36 27 C35 5 49 -10 65 -13 L65 -13 Z " />
<glyph glyph-name="hyphen" unicode="&#x2d;" horiz-adv-x="182" d="M96 160 C117 159 158 160 159 160 C166 164 171 190 163 193 C150 197 118 200 88 200 C57 200 29 197 27 192 C21 174 15 172 21 163 C33 140 71 162 96 160 L96 160 Z " />
<glyph glyph-name="period" unicode="&#x2e;" horiz-adv-x="122" d="M39 31 C38 12 50 -4 65 -4 C81 -5 94 10 95 30 C96 49 84 64 68 65 C53 65 39 50 39 31 L39 31 Z " />
<glyph glyph-name="zero" unicode="0" horiz-adv-x="392" d="M403 285 C404 298 404 312 404 325 C404 481 339 598 236 609 C125 621 34 537 15 343 C13 324 12 306 12 288 C12 125 85 16 183 -1 C291 -20 388 79 403 285 L403 285 Z M336 280 C323 104 257 23 185 43 C123 60 78 150 78 282 C78 301 79 322 81 343 C96 508 158 577 231 563 C296 550 338 454 338 326 C338 311 337 296 336 280 L336 280 Z " />
<glyph glyph-name="one" unicode="1" horiz-adv-x="236" d="M86 530 C87 517 95 492 111 486 C119 483 150 506 155 507 C161 508 172 508 168 495 C164 482 74 47 81 31 C87 15 143 -13 155 0 C163 8 150 39 150 120 C150 165 154 224 167 304 C205 530 219 500 221 517 C224 534 194 581 175 586 C164 589 151 571 136 562 C113 547 85 538 86 530 L86 530 Z " />
<glyph glyph-name="two" unicode="2" horiz-adv-x="389" d="M54 506 C57 486 97 459 118 468 C129 473 129 522 155 538 C181 555 216 564 241 552 C275 536 291 510 291 477 C291 429 257 364 196 287 C92 157 28 65 30 47 C31 30 63 0 82 -5 C97 -9 142 15 200 15 C213 15 226 14 240 11 C268 5 292 3 311 3 C350 3 372 13 375 22 C380 35 355 81 337 86 C320 91 263 71 228 73 C193 75 139 66 109 58 C194 255 348 354 348 463 C348 492 337 521 311 554 C279 584 245 596 212 596 C127 596 52 520 54 506 L54 506 Z " />
<glyph glyph-name="three" unicode="3" horiz-adv-x="401" d="M69 514 C76 477 139 456 145 470 C151 485 126 561 227 567 C260 569 303 544 310 490 C323 385 200 322 200 312 C199 303 206 286 217 275 C226 265 310 268 310 169 C310 154 308 136 304 116 C291 60 248 26 199 26 C182 26 164 30 146 39 C117 54 109 75 109 96 C109 125 125 154 124 165 C124 183 90 214 73 213 C63 212 36 177 36 132 C36 92 58 45 131 8 C140 4 169 -6 206 -6 C259 -6 327 14 361 97 C372 124 377 150 377 172 C377 264 300 312 300 312 C300 312 371 390 371 466 C371 494 361 522 334 546 C295 581 256 593 220 593 C135 593 68 524 69 514 L69 514 Z " />
<glyph glyph-name="four" unicode="4" horiz-adv-x="416" d="M97 575 C86 562 92 481 74 386 C57 291 30 224 31 206 C31 188 74 141 89 138 C105 135 233 188 233 188 C233 188 198 36 202 21 C205 6 261 -11 272 -2 C278 3 276 13 276 45 C276 75 277 124 289 206 C307 213 322 215 334 215 C358 215 371 206 379 209 C392 213 406 264 399 275 C391 286 321 271 297 260 C329 484 362 524 359 544 C356 564 300 588 289 580 C278 572 282 507 272 424 C262 341 243 241 243 241 C243 241 226 231 182 216 C138 201 101 199 97 203 C93 207 99 252 112 336 C137 492 171 523 169 540 C166 557 108 588 97 575 L97 575 Z " />
<glyph glyph-name="five" unicode="5" horiz-adv-x="401" d="M115 534 C110 520 117 474 106 422 C94 370 73 347 74 329 C74 311 118 273 134 268 C151 263 183 344 259 345 C283 345 343 333 339 243 C332 95 259 20 204 20 C149 20 118 51 113 85 C108 119 144 119 145 137 C145 155 98 189 69 172 C54 163 46 147 46 126 C46 72 99 -6 208 -6 C358 -6 409 136 408 242 C407 348 331 391 267 391 C203 391 151 350 151 350 C151 350 159 471 184 505 C194 519 222 523 251 523 C291 523 335 516 343 518 C358 522 348 583 337 588 C327 593 308 577 230 558 C151 539 120 548 115 534 L115 534 Z " />
<glyph glyph-name="six" unicode="6" horiz-adv-x="493" d="M290 589 C207 591 107 547 62 341 C54 304 50 267 50 232 C50 104 103 1 209 -8 C344 -20 397 95 410 159 C412 171 414 186 414 202 C414 272 385 368 274 371 C179 373 153 314 153 270 C153 251 158 235 164 228 C186 205 228 256 218 271 C214 277 206 292 206 306 C206 325 221 345 280 344 C338 344 357 302 357 250 C357 224 352 195 345 168 C324 93 312 22 213 21 C136 20 110 116 110 211 C110 256 116 301 125 336 C154 444 187 569 294 562 C352 558 363 530 363 503 C363 480 355 457 359 451 C369 436 428 445 425 492 C423 535 376 586 290 589 L290 589 Z " />
<glyph glyph-name="seven" unicode="7" horiz-adv-x="288" d="M-8 575 C-22 569 -27 554 -27 539 C-27 523 -21 506 -16 503 C-6 497 52 520 124 529 C195 538 251 542 251 542 C251 542 268 542 196 315 C124 88 77 50 75 35 C73 20 118 -9 137 -9 C156 -9 140 16 235 301 C287 459 324 517 325 533 C326 549 277 587 260 591 C242 595 215 582 158 578 C118 575 71 580 35 580 C17 580 2 579 -8 575 L-8 575 Z " />
<glyph glyph-name="eight" unicode="8" horiz-adv-x="402" d="M398 164 C408 272 355 319 286 344 C327 363 357 401 364 448 C374 516 335 592 246 594 C177 595 120 564 105 476 C95 419 121 375 159 352 C100 343 45 298 33 199 C32 188 31 178 31 168 C31 50 120 -3 187 -12 C197 -13 207 -14 218 -14 C291 -14 385 21 398 164 L398 164 Z M313 457 C310 403 277 364 242 354 L237 354 C226 355 215 355 204 355 C170 366 152 417 160 475 C170 542 205 578 258 573 C310 569 317 522 313 457 L313 457 Z M325 162 C318 81 271 4 195 12 C131 19 104 82 104 150 C104 163 105 176 107 189 C119 270 145 337 238 330 C311 324 327 273 327 211 C327 195 326 178 325 162 L325 162 Z " />
<glyph glyph-name="nine" unicode="9" horiz-adv-x="422" d="M30 443 C29 433 28 422 28 412 C28 328 78 263 130 240 C144 233 160 231 176 231 C226 231 276 257 279 276 C284 301 259 337 235 332 C211 327 216 254 139 275 C109 283 93 329 93 383 C93 396 94 410 96 424 C105 494 132 578 222 564 C266 557 334 519 334 367 C334 341 332 313 328 280 C297 50 207 19 157 28 C107 38 98 79 96 96 C91 130 115 121 109 145 C103 169 63 179 42 171 C33 168 21 147 21 120 C21 83 44 34 130 6 C151 -1 172 -4 191 -4 C306 -4 381 113 394 275 C395 293 396 310 396 327 C396 484 333 574 225 594 C207 597 190 599 175 599 C90 599 45 547 30 443 L30 443 Z " />
<glyph glyph-name="colon" unicode="&#x3a;" horiz-adv-x="142" d="M49 31 C48 12 60 -5 75 -5 C91 -6 104 10 105 30 C106 49 94 64 78 65 C63 65 50 50 49 31 L49 31 Z M45 178 C45 159 57 143 72 143 C88 142 101 158 102 177 C103 196 91 212 75 213 C60 213 46 198 45 178 L45 178 Z " />
<glyph glyph-name="semicolon" unicode="&#x3b;" horiz-adv-x="143" d="M72 -5 C84 -8 63 -38 76 -39 C95 -40 104 -5 105 21 C106 40 99 66 76 65 C61 65 47 50 46 31 C45 12 58 -2 72 -5 L72 -5 Z M43 178 C42 159 54 144 70 143 C85 143 98 158 99 177 C100 196 88 213 73 213 C57 214 44 198 43 178 L43 178 Z " />
<glyph glyph-name="question" unicode="&#x3f;" horiz-adv-x="308" d="M124 595 C10 595 -32 540 -38 500 C-45 459 -27 422 -4 414 C18 406 49 431 49 449 C48 467 28 452 17 495 C6 538 67 567 126 567 C185 567 216 515 219 459 C224 358 146 301 117 212 C94 140 166 108 196 122 C211 129 217 147 217 163 C217 178 212 193 206 195 C195 200 157 164 153 196 C145 273 268 304 291 427 C307 516 232 595 124 595 L124 595 Z M115 34 C114 15 126 -1 142 -2 C157 -2 170 13 171 33 C171 52 160 68 145 68 C129 69 116 53 115 34 L115 34 Z " />
<glyph glyph-name="at" unicode="&#x40;" horiz-adv-x="510" d="M489 234 C472 365 351 470 220 470 C101 470 15 383 15 268 C15 257 15 246 17 234 C33 119 130 23 242 3 C248 4 277 19 283 24 C174 20 61 117 45 232 C43 242 43 252 43 262 C43 363 119 441 224 441 C339 441 449 348 462 232 C473 141 419 83 384 71 C347 59 331 70 317 92 C316 97 313 104 313 122 C313 144 317 184 334 261 C336 272 340 282 343 290 C348 309 353 315 352 326 C348 353 293 377 266 376 C205 373 125 223 132 156 C135 130 173 102 193 97 C210 92 287 162 287 162 C287 162 274 123 280 101 C288 74 311 32 372 37 C437 42 491 114 491 205 C491 215 490 224 489 234 L489 234 Z M305 344 C311 339 314 330 314 316 C314 288 301 245 277 205 C241 146 192 115 173 130 C153 146 167 200 207 263 C248 327 286 358 305 344 L305 344 Z " />
<glyph glyph-name="A" unicode="A" horiz-adv-x="325" d="M262 228 C262 228 216 217 191 208 C151 193 156 194 130 181 C136 205 145 234 154 264 C217 466 241 476 241 476 C241 476 247 403 256 285 C257 267 262 228 262 228 L262 228 Z M312 215 C312 215 329 219 350 207 C360 201 364 212 359 227 C354 243 340 249 331 248 C327 248 316 244 308 239 C305 256 303 274 300 291 C286 390 287 523 287 523 C287 523 289 529 294 535 C299 541 283 586 267 592 C251 598 239 586 228 581 C216 576 223 562 222 551 C220 540 154 358 131 290 C109 222 56 51 30 22 C9 -2 86 -13 91 -6 C95 -1 93 36 121 148 C121 148 163 171 193 182 C236 198 266 204 266 204 C281 105 307 4 319 -12 C334 -33 351 -13 365 -3 C378 7 379 29 373 38 C367 47 355 52 343 70 C335 83 312 215 312 215 L312 215 Z " />
<glyph glyph-name="B" unicode="B" horiz-adv-x="385" d="M72 297 C61 201 49 65 43 48 C38 31 28 36 32 33 C35 30 52 -3 64 -7 C77 -11 89 -7 95 4 C98 10 92 26 92 82 C92 124 95 190 108 292 C123 415 134 449 141 488 C147 526 192 571 250 569 C277 568 316 535 316 480 C316 448 302 409 266 364 C259 356 252 370 237 371 C222 372 209 358 207 343 C205 328 211 317 226 305 C242 293 253 319 272 319 C314 320 355 265 348 181 C341 97 293 22 242 20 C192 18 183 76 168 79 C153 82 126 45 128 38 C130 31 158 14 188 5 C204 0 221 -3 237 -3 C319 -3 399 61 412 172 C428 305 298 345 298 345 C298 345 379 388 372 483 C366 555 321 586 263 592 C201 598 147 563 147 563 C147 563 150 585 143 592 C139 596 126 598 112 598 C100 598 89 596 84 593 C74 586 85 537 86 527 C88 517 78 509 71 496 C65 483 80 456 83 449 C86 442 84 393 72 297 L72 297 Z " />
<glyph glyph-name="C" unicode="C" horiz-adv-x="386" d="M266 613 C206 623 61 561 34 318 C30 287 29 258 29 232 C29 58 105 6 183 -20 C194 -24 205 -26 216 -26 C289 -26 348 51 361 61 C376 71 394 88 368 112 C342 135 320 118 306 91 C292 64 222 -4 187 0 C157 3 94 46 94 211 C94 240 96 272 100 308 C123 504 203 582 260 576 C318 569 315 480 330 470 C345 460 372 491 374 517 C377 543 325 603 266 613 L266 613 Z " />
<glyph glyph-name="D" unicode="D" horiz-adv-x="408" d="M138 554 C135 573 127 592 120 597 C110 605 81 591 71 578 C62 567 84 550 84 412 C84 391 83 366 82 339 C80 301 83 97 76 72 C70 47 61 55 62 42 C64 29 86 2 102 2 C118 2 134 28 137 43 C139 55 128 102 128 220 C128 249 128 281 130 319 C133 388 136 432 138 465 C150 492 188 575 255 560 C321 544 359 472 359 357 C359 331 357 303 353 273 C332 109 262 23 229 18 C195 13 190 61 177 61 C164 61 146 34 150 23 C153 12 168 2 202 -6 C236 -14 395 0 422 255 C425 279 426 301 426 322 C426 522 317 579 257 588 C198 597 152 553 139 531 C139 542 139 543 138 554 L138 554 Z " />
<glyph glyph-name="E" unicode="E" horiz-adv-x="373" d="M393 3 C403 13 360 49 347 58 C334 67 274 60 237 54 C199 48 155 36 149 38 C145 39 139 42 135 46 C134 62 124 101 124 199 C124 231 125 270 128 317 C182 332 225 336 258 336 C318 336 346 321 351 326 C359 333 339 378 324 381 C310 384 257 386 130 354 C135 420 137 477 136 521 C207 542 259 547 294 547 C340 547 359 539 363 547 C370 561 338 596 324 599 C309 602 230 587 134 562 C131 580 124 600 117 605 C106 613 78 599 67 586 C58 575 80 550 80 404 C80 384 80 362 79 337 C77 299 80 95 74 70 C67 45 58 53 60 40 C62 30 76 11 89 3 C96 -6 103 -12 108 -9 C132 4 189 13 243 13 C265 13 286 11 304 8 C350 0 382 -7 393 3 L393 3 Z " />
<glyph glyph-name="F" unicode="F" horiz-adv-x="364" d="M340 326 C348 333 327 378 313 381 C299 384 245 386 119 354 C123 420 126 477 125 521 C196 542 247 547 282 547 C328 547 348 539 352 547 C359 561 327 596 312 599 C298 602 219 587 123 562 C119 580 113 600 106 605 C95 613 66 599 56 586 C47 575 69 550 69 404 C69 384 69 362 68 337 C66 299 69 95 63 70 C56 45 47 53 49 40 C51 27 73 0 89 0 C105 0 121 26 124 41 C126 53 113 87 113 197 C113 230 114 269 117 317 C171 332 214 336 247 336 C307 336 335 321 340 326 L340 326 Z " />
<glyph glyph-name="G" unicode="G" horiz-adv-x="352" d="M243 599 C229 602 217 604 204 604 C105 604 36 509 14 353 C13 348 13 338 13 324 C13 242 32 27 182 0 C319 -24 352 181 352 265 C352 281 351 292 349 297 C342 312 300 337 281 342 C262 347 214 333 186 303 C174 291 184 272 198 258 C212 244 240 245 241 257 C242 269 238 321 277 313 C289 311 295 284 295 248 C295 165 263 32 199 29 C120 25 81 178 81 294 C81 313 82 332 84 348 C100 463 152 586 227 568 C303 550 295 446 306 440 C318 434 345 460 347 484 C350 508 319 581 243 599 L243 599 Z " />
<glyph glyph-name="H" unicode="H" horiz-adv-x="434" d="M246 317 C338 344 352 343 352 343 C352 343 328 46 326 35 C323 21 375 -22 388 4 C392 12 381 33 381 110 C381 155 385 218 397 309 C399 322 401 336 403 350 C404 359 446 353 455 346 C462 340 472 357 456 377 C442 396 415 389 408 387 C414 437 418 484 418 519 C418 546 415 565 409 573 C404 579 391 581 379 581 C364 581 351 578 350 574 C349 569 357 564 357 483 C357 457 356 423 354 378 C354 378 320 372 252 351 C184 330 133 307 120 301 C121 304 121 307 121 311 C129 393 141 477 141 529 C141 552 139 568 133 575 C128 581 115 583 103 583 C88 583 75 580 74 576 C73 571 81 565 81 483 C81 447 79 395 75 322 C59 50 52 48 50 37 C47 23 99 -20 112 6 C116 13 105 34 105 111 C105 149 108 200 116 270 C129 274 171 295 246 317 L246 317 Z " />
<glyph glyph-name="I" unicode="I" horiz-adv-x="161" d="M143 580 C138 601 102 615 88 599 C74 583 79 480 75 297 C72 180 69 97 69 49 C69 22 70 6 73 1 C82 -13 123 -10 130 3 C136 16 124 35 118 49 C114 60 107 137 107 233 C107 253 107 274 108 296 C113 420 149 559 143 580 L143 580 Z " />
<glyph glyph-name="J" unicode="J" horiz-adv-x="358" d="M304 593 C283 585 262 520 265 402 C267 346 280 260 280 184 C280 101 264 29 199 21 C127 12 97 88 94 112 C92 136 113 131 116 143 C118 155 88 193 73 195 C59 197 44 192 37 154 C32 125 77 -3 205 -7 C309 -10 332 72 332 170 C332 246 318 332 318 395 C316 540 358 539 356 558 C355 577 324 601 304 593 L304 593 Z " />
<glyph glyph-name="K" unicode="K" horiz-adv-x="394" d="M163 270 C163 270 276 51 357 -6 C376 -19 401 40 391 56 C381 72 367 42 277 170 C230 236 191 310 195 316 C205 329 215 343 227 358 C346 516 420 512 424 529 C427 546 396 583 384 583 C372 583 315 516 235 426 C155 336 123 268 124 277 C125 281 125 285 125 289 C137 432 150 561 142 573 C135 585 91 588 86 577 C82 570 89 569 89 497 C89 460 87 403 81 317 C61 24 35 46 41 32 C47 19 86 -6 95 -6 C104 -6 119 0 114 17 C110 30 118 191 118 191 L163 270 Z " />
<glyph glyph-name="L" unicode="L" horiz-adv-x="359" d="M80 562 C70 545 93 500 93 370 C93 351 92 329 91 306 C82 127 65 93 53 72 C41 51 67 0 78 -4 C90 -8 134 5 228 12 C239 13 248 13 257 13 C328 13 352 -8 364 -2 C377 5 390 50 378 62 C373 67 359 69 338 69 C310 69 271 66 229 60 C155 50 121 45 121 45 C121 45 119 67 119 109 C119 151 121 214 128 298 C141 465 158 575 148 586 C139 597 97 593 80 562 L80 562 Z " />
<glyph glyph-name="M" unicode="M" horiz-adv-x="568" d="M96 564 C95 558 107 555 107 486 C107 445 103 382 90 280 C58 34 39 52 49 25 C54 11 99 -12 113 -2 C126 8 120 152 131 267 C142 382 151 446 151 446 C151 446 178 393 217 318 C328 104 299 96 313 84 C326 72 362 74 364 88 C366 102 349 95 406 302 C436 411 456 441 456 441 C456 441 460 402 477 302 C494 202 512 9 559 -7 C577 -13 611 25 609 44 C608 61 573 20 515 308 C499 391 496 442 496 476 C496 498 497 512 496 525 C492 557 468 586 458 586 C448 586 413 563 414 547 C416 524 431 532 371 356 C335 251 317 172 317 172 C317 172 300 186 233 343 C187 451 176 491 175 516 C173 550 171 576 147 586 C129 594 98 574 96 564 L96 564 Z " />
<glyph glyph-name="N" unicode="N" horiz-adv-x="430" d="M73 574 C69 565 79 585 79 515 C79 479 76 420 68 320 C45 44 34 73 36 57 C38 41 77 0 92 0 C107 0 115 19 116 33 C117 44 103 37 103 165 C103 196 104 234 106 282 C111 396 127 457 127 457 C127 457 139 435 193 295 C304 11 348 -4 365 -3 C382 -2 410 40 412 56 C414 68 386 91 386 206 C386 242 389 287 396 344 C421 538 458 517 459 535 C459 553 434 581 411 586 C389 591 358 522 343 358 C340 320 338 286 338 255 C338 155 352 98 352 98 C352 98 289 129 216 312 C143 495 177 542 123 590 C111 601 79 588 73 574 L73 574 Z " />
<glyph glyph-name="O" unicode="O" horiz-adv-x="392" d="M36 295 C34 274 32 254 32 234 C32 93 92 -13 178 -13 C277 -13 373 125 393 295 C395 316 397 336 397 356 C397 497 337 603 251 603 C153 603 56 465 36 295 L36 295 Z M107 295 C125 449 188 574 248 574 C296 574 327 491 327 378 C327 352 326 324 322 295 C304 141 241 16 182 16 C133 16 102 99 102 213 C102 239 104 267 107 295 L107 295 Z " />
<glyph glyph-name="P" unicode="P" horiz-adv-x="428" d="M166 295 C157 285 153 276 153 268 C153 225 269 212 289 215 C377 225 448 308 435 425 C423 542 330 581 295 583 C260 585 203 577 168 554 C169 562 169 565 168 570 C163 585 159 586 144 589 C130 592 99 585 96 573 C94 566 99 556 101 514 C101 514 68 492 68 470 C68 448 89 434 99 419 C97 390 94 350 90 309 C61 45 38 43 45 25 C51 7 110 -16 120 -4 C126 4 115 18 115 100 C115 146 118 213 130 312 C141 408 156 504 156 504 C156 504 209 560 291 547 C316 543 365 520 372 417 C385 238 274 239 253 247 C196 269 204 316 191 316 C186 316 179 310 166 295 L166 295 Z " />
<glyph glyph-name="Q" unicode="Q" horiz-adv-x="373" d="M166 -3 C208 -3 248 24 283 66 C315 34 343 0 358 0 C387 0 401 25 394 43 C388 60 379 36 314 91 C311 93 309 95 307 97 C340 149 364 218 373 294 C376 315 377 335 377 355 C377 490 320 591 237 591 C142 591 49 458 29 294 C27 274 26 254 26 235 C26 99 83 -3 166 -3 L166 -3 Z M192 124 C210 124 230 113 250 97 C226 52 197 25 170 25 C159 25 147 30 141 37 C132 48 128 60 128 72 C128 99 151 123 192 124 L192 124 Z M305 294 C298 232 284 174 265 129 C242 145 219 155 192 153 C130 149 112 126 103 114 C96 144 92 179 92 218 C92 242 94 268 97 294 C115 443 176 563 233 563 C280 563 310 484 310 375 C310 350 308 322 305 294 L305 294 Z " />
<glyph glyph-name="R" unicode="R" horiz-adv-x="442" d="M228 223 C249 188 358 5 381 -5 C405 -15 453 7 448 31 C444 55 417 23 285 220 C288 220 291 221 294 221 C383 232 453 314 441 431 C428 549 336 587 301 589 C265 591 209 583 173 560 C175 568 175 572 174 576 C168 591 164 592 150 595 C135 598 104 591 101 579 C99 573 105 562 106 520 C106 520 74 498 74 476 C74 454 95 440 105 425 C103 396 99 356 95 315 C66 52 44 49 50 31 C57 13 116 -10 125 2 C131 10 121 24 121 105 C121 151 124 219 136 318 C147 415 162 510 162 510 C162 510 214 566 297 553 C321 549 371 526 378 423 C390 244 279 244 259 253 C244 260 230 319 201 319 C193 319 183 314 171 301 C144 270 197 230 228 223 L228 223 Z " />
<glyph glyph-name="S" unicode="S" horiz-adv-x="388" d="M75 457 C86 366 310 202 314 141 C317 80 274 24 203 22 C132 21 106 62 99 95 C92 129 136 136 138 148 C140 160 115 198 82 197 C63 196 36 162 36 120 C36 87 53 50 103 22 C136 4 173 -5 208 -5 C298 -5 378 52 377 144 C375 244 141 404 133 469 C125 533 182 571 234 568 C286 565 315 527 315 507 C316 485 304 487 303 477 C302 462 326 445 348 445 C365 445 381 456 382 487 C383 516 329 585 233 593 C137 602 65 547 75 457 L75 457 Z " />
<glyph glyph-name="T" unicode="T" horiz-adv-x="335" d="M-9 552 C-16 544 -19 534 -19 525 C-19 501 2 480 19 487 C44 498 163 534 163 534 C163 534 159 483 140 312 C121 141 94 53 97 38 C100 23 155 -4 168 7 C178 15 167 34 167 130 C167 172 169 229 176 307 C187 434 212 541 212 541 C212 541 279 564 305 556 C317 552 319 541 330 545 C340 549 359 575 354 589 C352 595 339 600 313 600 C280 600 227 593 148 570 C90 553 54 549 32 549 C0 549 -4 558 -9 552 L-9 552 Z " />
<glyph glyph-name="U" unicode="U" horiz-adv-x="431" d="M61 286 C55 234 52 190 52 154 C52 62 71 16 110 0 C128 -8 146 -11 162 -11 C267 -11 323 136 323 136 C323 136 322 22 356 -6 C368 -15 408 -2 411 26 C414 52 374 59 374 250 C374 265 375 280 375 297 C379 446 428 511 431 540 C434 569 384 600 361 581 C338 562 324 263 320 211 C316 159 259 31 179 35 C123 38 112 123 112 193 C112 225 114 254 116 270 C138 449 162 537 151 558 C140 579 104 604 82 581 C68 567 84 469 61 286 L61 286 Z " />
<glyph glyph-name="V" unicode="V" horiz-adv-x="359" d="M-4 548 C-7 497 0 469 15 343 C30 217 74 65 77 54 C83 39 72 37 74 29 C81 3 144 -16 160 5 C176 26 148 62 241 306 C302 467 367 518 367 541 C367 564 339 592 307 583 C275 574 227 470 199 322 C154 86 127 93 127 93 C127 93 79 185 62 352 C59 382 57 408 57 429 C57 526 85 542 83 558 C81 569 57 580 35 580 C16 580 -3 572 -4 548 L-4 548 Z " />
<glyph glyph-name="W" unicode="W" horiz-adv-x="612" d="M-22 544 C-22 522 -4 488 22 339 C66 92 55 82 59 60 C62 38 106 1 144 0 C182 -1 142 48 220 322 C256 451 278 491 278 491 C278 491 289 441 313 308 C339 162 335 123 335 98 C335 87 335 79 340 66 C355 23 425 -7 446 7 C467 21 462 137 514 314 C566 491 628 518 632 541 C636 564 594 594 569 588 C555 584 527 556 468 351 C408 146 419 96 406 93 C393 90 383 143 356 311 C347 369 344 412 344 444 C344 505 354 528 345 545 C333 571 271 598 259 588 C239 570 247 540 182 346 C118 152 136 135 120 128 C104 121 91 147 63 346 C57 388 55 423 55 451 C55 545 78 570 60 586 C37 606 -23 566 -22 544 L-22 544 Z " />
<glyph glyph-name="X" unicode="X" horiz-adv-x="389" d="M415 -3 C441 -9 473 47 464 67 C456 86 418 43 229 301 C326 464 399 519 399 543 C398 568 351 597 334 586 C317 575 338 541 211 331 C87 509 91 581 67 584 C42 587 20 544 26 526 C33 508 45 540 193 305 C48 70 33 59 36 38 C39 16 67 -5 81 -4 C109 -2 123 117 210 276 C301 134 391 3 415 -3 L415 -3 Z " />
<glyph glyph-name="Y" unicode="Y" horiz-adv-x="386" d="M13 570 C17 550 137 404 210 332 C169 265 84 92 86 61 C87 30 159 -5 168 4 C178 13 159 113 257 308 C354 503 426 534 429 549 C432 564 398 608 369 608 C340 608 268 440 232 371 C141 446 78 601 64 604 C50 607 9 590 13 570 L13 570 Z " />
<glyph glyph-name="Z" unicode="Z" horiz-adv-x="394" d="M88 584 C76 578 57 558 58 549 C59 540 91 506 101 505 C124 503 133 546 333 547 C338 547 342 542 342 534 C342 526 299 481 210 351 C119 219 46 57 49 44 C52 31 76 0 103 -4 C127 -8 119 6 308 6 C325 6 343 6 363 6 C385 6 413 34 415 46 C416 58 396 87 385 89 C373 91 366 75 338 65 C310 55 131 52 131 52 C131 52 163 169 246 310 C326 448 390 509 392 528 C394 547 349 599 333 599 C317 599 312 591 280 586 C272 585 258 584 241 584 C205 584 156 586 123 586 C105 586 91 586 88 584 L88 584 Z " />
<glyph glyph-name="bracketleft" unicode="&#x5b;" horiz-adv-x="241" d="M164 38 C156 46 118 45 118 45 C118 45 112 120 101 196 C101 217 99 281 99 306 C100 432 113 504 123 535 C123 536 171 517 179 523 C186 528 187 554 184 560 C178 577 90 595 76 583 C62 571 52 45 54 25 C57 5 157 -16 165 -8 C170 -3 171 31 164 38 L164 38 Z " />
<glyph glyph-name="bracketright" unicode="&#x5d;" horiz-adv-x="225" d="M32 42 C24 35 22 1 27 -4 C34 -11 135 12 140 32 C143 49 166 415 166 544 C166 570 165 586 163 588 C149 600 61 579 53 562 C50 556 49 530 55 525 C62 519 124 545 124 544 C128 527 130 496 130 451 C130 414 129 367 125 311 C123 286 116 222 114 201 C97 125 94 51 94 51 C94 51 40 50 32 42 L32 42 Z " />
<glyph glyph-name="a" unicode="a" horiz-adv-x="295" d="M204 82 C204 82 182 31 197 3 C206 -14 257 -3 254 13 C252 22 243 26 243 60 C243 87 248 132 266 213 C269 227 274 240 277 251 C284 276 291 284 289 298 C284 334 212 366 176 364 C96 360 -10 163 0 74 C3 40 54 4 80 -3 C102 -9 204 82 204 82 L204 82 Z M221 322 C229 316 233 303 233 285 C233 248 217 191 185 139 C138 61 73 20 48 40 C40 46 36 57 36 72 C36 106 56 158 93 216 C146 299 196 340 221 322 L221 322 Z " />
<glyph glyph-name="b" unicode="b" horiz-adv-x="315" d="M281 346 C265 358 247 366 227 366 C190 366 148 338 105 259 C93 238 83 219 76 202 C75 227 74 284 74 308 C77 562 118 551 112 568 C106 585 65 597 51 585 C36 573 26 47 29 27 C32 7 85 -21 97 -4 C98 -4 97 0 95 5 C109 -3 125 -11 136 -10 C184 -8 247 58 283 132 C309 187 320 230 320 263 C320 303 304 329 281 346 L281 346 Z M267 323 C273 319 279 304 279 281 C279 252 270 210 241 156 C187 57 129 16 98 40 C93 44 89 49 87 55 C86 57 85 60 85 64 C78 99 102 159 147 228 C205 316 240 341 267 323 L267 323 Z " />
<glyph glyph-name="c" unicode="c" horiz-adv-x="287" d="M148 370 C111 372 78 324 41 238 C23 194 17 157 17 128 C17 100 22 79 26 66 C34 39 75 -9 119 -9 C175 -9 245 96 243 107 C240 119 212 133 196 134 C182 135 163 23 110 23 C101 23 91 27 79 35 C68 43 63 58 63 82 C63 114 73 160 93 217 C128 316 166 348 202 330 C239 311 215 275 222 265 C228 255 262 237 270 243 C279 249 278 298 248 327 C230 345 203 367 148 370 L148 370 Z " />
<glyph glyph-name="d" unicode="d" horiz-adv-x="328" d="M239 105 C239 60 239 30 239 25 C242 5 295 -23 308 -6 C318 8 292 31 286 196 C285 217 284 281 284 306 C287 560 329 549 322 566 C316 583 275 595 261 583 C254 578 249 470 245 350 C231 355 198 365 183 364 C102 360 6 163 19 74 C24 40 76 4 102 -3 C119 -7 201 52 239 105 L239 105 Z M229 322 C238 316 242 302 243 284 C243 278 243 272 242 265 C239 229 226 183 201 139 C158 61 95 20 69 40 C60 47 55 60 55 77 C55 111 73 161 106 216 C156 299 204 340 229 322 L229 322 Z M243 284 C243 278 243 272 242 265 L243 284 Z " />
<glyph glyph-name="e" unicode="e" horiz-adv-x="258" d="M57 153 L61 154 C211 201 256 249 256 290 C256 305 250 319 241 332 C229 348 199 370 160 370 C149 370 138 368 126 364 C95 353 65 326 28 240 C8 194 2 156 2 127 C2 102 6 83 10 71 C17 44 57 -3 100 -3 C156 -3 233 97 231 109 C228 120 201 134 185 135 C172 136 146 28 93 28 C83 28 73 32 62 40 C52 47 47 62 47 85 C47 103 50 126 57 153 L57 153 Z M210 319 C219 310 223 301 223 291 C223 271 207 248 188 231 C164 210 90 192 67 187 C71 198 74 209 79 220 C106 293 143 333 177 333 C188 333 200 329 210 319 L210 319 Z " />
<glyph glyph-name="f" unicode="f" horiz-adv-x="223" d="M240 486 C252 477 278 482 279 506 C281 551 245 578 204 582 C162 587 114 568 94 520 C83 495 77 428 73 349 C51 338 38 335 30 335 C26 334 23 334 20 334 C18 334 16 333 14 332 C10 330 8 321 9 311 C9 303 12 295 17 295 C19 295 19 295 19 296 C20 297 21 298 24 300 C29 305 41 313 72 327 C69 268 68 205 68 151 C68 83 70 32 71 25 C73 6 124 -19 135 -5 C138 -1 138 2 137 8 C136 15 134 24 131 38 C125 66 115 113 113 196 C112 217 110 281 111 307 C111 309 111 321 112 340 C132 342 147 338 159 334 C165 332 170 330 175 329 C179 327 182 326 184 326 C194 327 197 344 188 354 C184 358 169 361 149 361 C138 361 126 360 113 358 C115 405 120 467 134 512 C144 542 158 566 179 566 C188 566 197 562 208 553 C227 538 232 523 234 511 C234 505 235 499 235 495 C236 490 237 487 240 486 L240 486 Z " />
<glyph glyph-name="g" unicode="g" horiz-adv-x="294" d="M313 283 C318 296 327 324 325 334 C323 348 305 358 284 358 C273 358 269 352 268 346 C245 358 219 365 201 364 C121 360 16 163 25 74 C29 40 81 -5 107 -4 C199 0 250 129 250 129 C250 129 247 110 247 70 C247 36 249 -13 256 -78 C258 -97 259 -114 259 -130 C259 -263 192 -304 128 -292 C20 -272 5 -165 -8 -161 C-22 -157 -44 -175 -47 -190 C-50 -205 17 -285 132 -305 C144 -307 156 -308 168 -308 C243 -308 302 -258 297 -75 C295 -3 289 -8 289 48 C289 69 290 99 292 145 C296 228 309 263 313 283 L313 283 Z M247 322 C255 316 259 303 259 285 C259 248 243 191 211 139 C164 61 100 20 74 40 C66 46 62 57 62 72 C62 106 82 158 119 216 C172 299 223 340 247 322 L247 322 Z " />
<glyph glyph-name="h" unicode="h" horiz-adv-x="295" d="M40 32 C43 12 84 -7 100 0 C109 4 107 98 140 184 C168 259 221 336 237 324 C248 316 245 306 238 260 C231 220 229 185 229 155 C229 57 257 10 266 3 C282 -9 314 6 316 24 C319 42 268 13 274 185 C277 252 287 272 293 301 C297 324 246 358 233 358 C136 358 88 126 88 126 C88 126 83 147 82 168 C82 189 80 283 81 308 C86 562 121 553 115 570 C108 587 72 595 58 583 C45 573 39 211 39 79 C39 53 39 35 40 32 L40 32 Z " />
<glyph glyph-name="i" unicode="i" horiz-adv-x="128" d="M83 421 C90 421 124 426 129 435 C135 445 121 470 112 474 C105 477 78 446 77 438 C75 431 76 422 83 421 L83 421 Z M113 325 C114 328 115 330 114 334 C111 353 77 363 69 356 C49 339 43 251 43 169 C43 96 48 29 52 23 C69 0 90 -10 100 -2 C102 0 103 3 101 11 C100 19 95 37 92 52 C88 75 83 103 83 144 C83 157 84 171 85 187 C91 261 99 294 105 310 C108 318 111 322 113 325 L113 325 Z " />
<glyph glyph-name="j" unicode="j" horiz-adv-x="158" d="M93 421 C100 421 135 426 141 435 C146 445 133 470 125 474 C117 477 90 446 88 438 C87 431 87 422 93 421 L93 421 Z M109 284 C114 297 123 324 122 334 C119 352 79 363 70 356 C62 351 50 295 48 245 C46 198 44 159 44 119 C44 63 47 5 56 -78 C58 -97 59 -114 59 -130 C59 -264 -8 -306 -74 -294 C-128 -284 -160 -252 -179 -222 C-188 -207 -195 -192 -200 -181 C-204 -171 -207 -164 -210 -163 C-222 -159 -244 -176 -247 -191 C-249 -203 -185 -283 -70 -303 C-58 -305 -46 -306 -34 -306 C40 -306 98 -256 93 -75 C92 -25 89 -12 87 10 C86 21 86 36 86 60 C86 80 86 107 88 145 C92 229 105 264 109 284 L109 284 Z " />
<glyph glyph-name="k" unicode="k" horiz-adv-x="325" d="M96 219 C220 330 289 300 298 304 C302 306 306 318 306 332 C306 345 302 360 291 365 C269 375 201 347 151 306 C121 282 96 255 82 237 C81 258 82 281 82 306 C85 560 126 549 120 566 C114 583 73 595 59 583 C44 571 34 45 37 25 C40 5 93 -23 105 -6 C116 8 89 31 83 196 C101 186 134 165 172 129 C297 13 288 -1 308 1 C333 4 349 45 335 52 C326 57 317 59 297 67 C277 75 253 120 96 219 L96 219 Z " />
<glyph glyph-name="l" unicode="l" horiz-adv-x="129" d="M119 -6 C130 8 104 31 98 196 C97 217 96 281 96 306 C99 560 140 549 134 566 C128 583 87 595 73 583 C58 571 48 45 51 25 C54 5 107 -23 119 -6 L119 -6 Z " />
<glyph glyph-name="m" unicode="m" horiz-adv-x="491" d="M325 179 C353 254 396 340 420 324 C431 316 428 306 421 260 C414 217 411 181 411 149 C411 54 436 8 445 1 C461 -11 495 1 498 19 C500 36 463 14 463 152 C463 162 464 172 464 184 C467 251 473 269 479 298 C483 320 429 358 416 358 C308 355 266 97 266 97 C266 97 252 131 254 184 C257 251 263 269 269 298 C274 321 220 358 207 358 C123 358 66 139 66 139 C66 139 62 159 62 196 C62 218 63 247 68 282 C80 336 93 338 89 348 C83 365 42 377 28 365 C25 362 21 335 19 294 C14 177 12 44 13 35 C16 15 67 -11 82 4 C89 11 88 97 121 183 C149 258 187 340 211 324 C216 320 221 311 224 296 C223 247 218 168 218 104 C218 77 219 52 221 33 C224 13 273 -13 288 2 C295 9 294 94 325 179 L325 179 Z " />
<glyph glyph-name="n" unicode="n" horiz-adv-x="297" d="M257 184 C259 252 266 270 272 299 C276 319 225 356 212 356 C130 356 73 139 71 130 C71 130 66 157 66 202 C66 225 67 252 71 283 C77 310 83 324 88 332 L91 338 C92 341 94 344 93 348 C87 363 48 375 34 363 C32 361 28 335 26 293 C22 177 19 44 20 35 C23 17 72 -8 85 6 C86 7 88 13 89 23 C91 34 92 48 95 64 C100 97 108 141 125 184 C152 256 190 344 217 326 C223 321 228 315 231 300 C228 265 225 214 225 166 C225 126 227 87 234 60 C242 26 254 9 258 5 C273 -6 305 6 308 22 C308 25 307 27 304 30 C302 33 298 37 293 42 C284 53 272 69 269 97 C268 100 255 133 257 184 L257 184 Z " />
<glyph glyph-name="o" unicode="o" horiz-adv-x="244" d="M244 291 C230 322 167 362 125 362 C72 362 7 242 7 135 C7 110 10 87 18 65 C27 39 77 -1 118 -4 C183 -8 254 137 254 237 C254 258 251 276 244 291 L244 291 Z M181 316 C200 305 209 276 209 242 C209 212 202 178 189 147 C160 81 108 14 73 38 C58 48 52 73 52 102 C52 140 62 186 76 220 C99 279 142 340 181 316 L181 316 Z " />
<glyph glyph-name="p" unicode="p" horiz-adv-x="310" d="M101 335 C95 352 55 364 40 352 C25 340 -14 -176 -12 -196 C-10 -216 41 -244 54 -227 C66 -212 41 -200 44 -35 C44 -24 45 0 46 23 C61 10 80 -1 100 -2 C177 -7 326 206 312 293 C307 324 256 364 214 364 C174 364 107 296 63 217 C82 326 105 322 101 335 L101 335 Z M257 318 C266 312 270 299 270 284 C270 249 248 195 215 149 C166 83 95 16 67 40 C39 64 83 163 123 222 C164 281 225 341 257 318 L257 318 Z " />
<glyph glyph-name="q" unicode="q" horiz-adv-x="305" d="M300 335 C293 352 253 364 238 352 C237 351 235 345 234 334 C214 351 186 364 162 364 C97 364 -30 183 -16 67 C-13 41 27 1 68 -2 C113 -5 179 67 223 145 C217 -5 214 -184 215 -196 C218 -216 272 -244 284 -227 C295 -212 268 -200 263 -35 C262 -14 261 50 261 75 C264 330 306 318 300 335 L300 335 Z M208 318 C218 311 223 298 223 280 C223 245 204 193 174 149 C130 83 62 16 33 40 C25 46 22 57 22 71 C22 112 51 178 79 222 C117 281 174 341 208 318 L208 318 Z " />
<glyph glyph-name="r" unicode="r" horiz-adv-x="213" d="M235 317 C246 328 239 373 227 379 C188 400 108 262 70 81 C70 81 71 189 83 283 C89 310 95 324 100 332 L103 338 C104 341 106 344 105 348 C99 363 60 375 46 363 C44 361 40 335 38 293 C34 177 18 37 19 29 C22 10 71 -15 85 -1 C86 0 87 6 88 17 C90 27 91 42 93 58 C98 92 105 141 123 184 C154 257 179 287 198 301 C207 308 215 310 221 312 C226 313 232 314 235 317 L235 317 Z " />
<glyph glyph-name="s" unicode="s" horiz-adv-x="244" d="M149 -17 C216 2 287 121 287 186 C287 200 284 211 277 219 C270 226 261 229 250 229 C227 229 196 216 167 203 C145 193 122 182 102 174 C82 167 64 163 52 166 C50 167 45 174 50 193 C54 211 66 235 92 265 C119 296 141 309 157 316 C166 319 172 321 178 322 C182 323 187 324 190 326 C202 334 196 358 178 366 C165 372 124 367 54 287 C19 247 4 213 4 186 C4 151 30 130 70 130 C93 130 121 137 151 152 C218 186 248 186 248 161 C248 145 235 117 210 83 C180 42 159 29 145 27 C138 26 133 27 129 29 C125 30 121 33 118 33 C105 35 94 9 96 0 C98 -11 110 -28 149 -17 L149 -17 Z " />
<glyph glyph-name="t" unicode="t" horiz-adv-x="164" d="M184 326 C194 327 197 344 188 354 C184 358 169 361 149 361 C138 361 126 360 113 358 C113 433 123 479 132 509 C136 524 141 535 143 544 C146 552 147 558 146 562 C141 579 113 594 96 586 C83 580 77 541 73 492 C70 444 70 387 68 348 C45 337 34 335 27 334 C24 334 22 334 20 334 C18 334 16 333 14 332 C10 330 8 321 9 311 C10 303 12 295 18 295 C19 295 19 296 19 297 C25 308 63 325 67 326 C65 291 65 253 65 218 C65 120 70 34 71 25 C74 6 125 -19 136 -5 C138 -1 138 2 137 8 C136 15 134 24 131 38 C125 66 117 113 114 196 C113 217 110 281 112 307 C112 309 112 321 112 340 C132 342 147 338 160 334 C165 332 171 330 175 329 C179 327 182 326 184 326 L184 326 Z " />
<glyph glyph-name="u" unicode="u" horiz-adv-x="289" d="M304 315 C305 320 306 323 305 327 C304 339 287 349 266 349 C257 349 253 342 253 336 C250 323 247 291 239 253 C231 214 218 170 194 130 C148 53 104 9 76 31 C66 39 51 55 51 108 C51 134 55 169 64 217 C74 274 90 299 100 313 C102 317 104 319 106 321 C108 324 110 325 111 327 C113 330 114 331 114 334 C112 343 83 363 69 356 C45 344 22 250 22 160 C22 127 25 95 32 67 C40 33 87 -10 111 -9 C202 -5 230 122 230 122 L234 121 C234 121 222 30 228 16 C232 4 270 -16 277 -6 C278 -4 278 -2 276 4 C275 10 272 19 271 33 C269 45 268 60 268 80 C268 107 270 143 276 190 C283 248 291 278 297 296 C300 305 302 310 304 315 L304 315 Z " />
<glyph glyph-name="v" unicode="v" horiz-adv-x="217" d="M264 380 C266 383 268 384 268 388 C267 401 245 419 231 416 C223 415 210 391 195 358 C179 324 161 279 142 234 C123 188 108 145 97 113 C92 97 87 84 83 75 C80 66 78 61 77 60 C74 60 74 67 71 86 C67 105 63 136 55 181 C47 227 41 269 36 301 C31 332 27 355 22 359 C10 368 -23 353 -28 336 C-29 330 -28 327 -25 323 C-22 319 -18 313 -13 304 C-2 285 12 249 26 172 C32 137 33 102 34 73 C34 59 35 47 35 37 C36 28 36 21 38 18 C43 6 83 -11 92 -4 C94 -2 98 7 103 22 C108 36 115 56 122 78 C137 122 156 176 174 218 C212 305 236 344 250 363 C256 372 261 377 264 380 L264 380 Z " />
<glyph glyph-name="w" unicode="w" horiz-adv-x="367" d="M397 379 C400 382 401 384 401 388 C398 401 374 419 361 416 C353 415 343 391 332 358 C321 324 307 279 294 234 C280 188 271 145 264 113 C260 97 257 84 255 74 C253 66 252 61 250 60 C247 60 246 68 241 86 C235 105 226 136 213 181 C207 200 200 227 194 247 C195 256 205 262 201 273 C196 286 171 289 161 285 C154 283 151 273 150 264 C148 254 148 243 145 234 C132 188 122 145 115 113 C111 97 108 84 106 74 C104 66 102 61 101 60 C98 60 97 68 92 86 C86 105 78 136 64 181 C50 227 40 269 31 301 C22 332 15 355 9 359 C-3 368 -39 352 -36 333 C-36 328 -34 325 -31 321 C-28 318 -24 313 -18 304 C-7 285 11 250 36 172 C47 137 52 102 57 73 C59 59 61 47 62 37 C64 28 65 21 67 17 C73 6 115 -11 124 -4 C126 -2 128 7 132 20 C135 33 139 52 143 72 C152 112 162 162 174 203 C179 192 182 182 185 172 C196 137 202 102 206 73 C208 59 210 47 211 37 C213 28 214 20 216 17 C223 6 265 -11 273 -4 C275 -2 278 8 281 22 C285 36 289 56 294 78 C304 122 315 176 328 218 C353 304 372 343 384 362 C388 368 392 374 397 379 L397 379 Z " />
<glyph glyph-name="x" unicode="x" horiz-adv-x="269" d="M238 -5 C248 -8 258 -9 267 -9 C304 -9 326 12 326 24 C326 35 321 63 301 67 C296 68 294 67 292 65 C289 62 287 55 285 51 C282 42 274 30 249 26 C228 22 168 75 119 153 C126 166 133 179 140 194 C163 245 184 278 198 299 C205 310 211 319 214 325 C218 331 220 336 218 340 C214 356 181 366 168 360 C161 358 160 355 154 336 C148 317 136 283 109 216 C106 207 102 199 98 191 C60 267 24 334 13 341 C1 349 -19 345 -22 331 C-23 327 -20 325 -18 323 C-16 320 -12 318 -8 313 C1 304 14 290 30 261 C47 230 61 205 84 162 C62 121 43 89 29 66 C22 55 16 46 12 39 C8 33 5 28 4 26 C-1 15 19 -2 29 -5 C34 -7 45 12 58 38 C71 63 86 95 104 126 C141 66 183 9 238 -5 L238 -5 Z " />
<glyph glyph-name="y" unicode="y" horiz-adv-x="298" d="M268 284 C273 297 282 324 280 334 C279 346 262 356 241 356 C232 356 228 349 228 343 C225 330 222 298 214 260 C206 222 192 177 169 138 C122 61 67 17 39 38 C29 46 16 62 16 116 C16 142 19 177 27 225 C33 257 49 284 62 304 C68 314 74 322 78 327 C82 333 85 336 84 337 C83 346 46 370 32 363 C8 351 -15 257 -15 167 C-15 134 -12 102 -5 74 C3 41 50 -3 74 -2 C165 2 205 129 205 130 L209 128 C209 128 206 109 206 69 C206 36 208 -13 215 -78 C217 -97 218 -114 218 -130 C218 -264 151 -306 85 -294 C31 -284 -1 -252 -20 -222 C-29 -207 -36 -192 -41 -181 C-45 -171 -48 -164 -51 -163 C-63 -159 -85 -176 -88 -191 C-90 -203 -26 -283 89 -303 C101 -305 113 -306 125 -306 C199 -306 257 -256 252 -75 C250 -25 248 -12 246 10 C245 21 245 36 245 60 C245 80 245 107 247 145 C251 229 264 264 268 284 L268 284 Z " />
<glyph glyph-name="z" unicode="z" horiz-adv-x="262" d="M251 364 C240 367 53 363 36 352 C25 345 24 316 34 304 C43 294 54 330 159 330 C182 330 210 328 243 324 C97 195 19 58 17 47 C14 36 32 2 42 -2 C52 -6 76 0 139 14 C151 17 162 18 173 18 C220 18 257 -2 265 4 C276 11 275 54 265 60 C255 66 214 64 171 58 C128 52 63 29 63 29 C63 29 52 108 274 310 C286 321 262 361 251 364 L251 364 Z " />
<glyph glyph-name="braceleft" unicode="&#x7b;" horiz-adv-x="222" d="M131 -7 C143 7 103 67 93 230 C99 295 62 309 62 309 C62 309 96 304 102 338 C142 567 218 546 214 563 C210 580 170 594 154 582 C147 576 83 480 63 348 C57 312 18 312 18 312 C18 312 57 311 55 255 C55 245 55 234 55 224 C55 128 66 33 66 26 C66 6 116 -24 131 -7 L131 -7 Z " />
<glyph glyph-name="bar" unicode="&#x7c;" horiz-adv-x="152" d="" />
<glyph glyph-name="braceright" unicode="&#x7d;" horiz-adv-x="238" d="M60 -7 C71 -24 121 6 127 26 C129 34 172 116 207 235 C220 278 247 281 247 281 C247 281 208 296 212 327 C215 350 216 372 216 393 C216 497 190 579 185 583 C172 595 136 582 127 565 C119 550 182 560 182 402 C182 382 181 358 179 332 C175 293 213 281 213 281 C213 281 180 276 157 209 C103 47 52 7 60 -7 L60 -7 Z " />
<glyph glyph-name="nbspace" unicode="&#xa0;" horiz-adv-x="172" d="" />
<glyph glyph-name="endash" unicode="&#x2013;" horiz-adv-x="244" d="M96 160 C103 160 119 160 137 160 C174 160 219 160 220 160 C227 164 232 190 224 193 C211 197 164 200 120 200 C73 200 29 197 27 192 C21 174 15 172 21 163 C33 140 71 162 96 160 L96 160 Z " />
<glyph glyph-name="emdash" unicode="&#x2014;" horiz-adv-x="305" d="M96 160 C103 160 126 160 153 160 C208 160 280 160 281 160 C288 164 293 190 285 193 C272 197 211 200 152 200 C90 200 29 197 27 192 C21 174 15 172 21 163 C33 140 71 162 96 160 L96 160 Z " />
<glyph glyph-name="quoteright" unicode="&#x2019;" horiz-adv-x="92" d="M42 429 C55 425 29 368 43 367 C65 366 84 410 85 439 C86 481 72 508 46 507 C29 506 14 490 13 469 C12 447 26 432 42 429 L42 429 Z " />
<glyph glyph-name="minus" unicode="&#x2212;" horiz-adv-x="215" d="M96 160 C103 160 116 160 130 160 C158 160 190 160 191 160 C198 164 203 190 195 193 C182 197 142 200 105 200 C66 200 29 197 27 192 C21 174 15 172 21 163 C33 140 71 162 96 160 L96 160 Z " />
</font>
</svg>
