<?xml version="1.0" encoding="UTF-8"?>
<svg xmlns="http://www.w3.org/2000/svg" xmlns:xlink="http://www.w3.org/1999/xlink" version="1.2" >
<font id="CinecavXMono-Regular">
<font-face  font-family="Cinecav X" units-per-em="1000" ascent="779" descent="-221" font-style="normal" font-weight="400" font-stretch="normal" cap-height="739" x-height="546" underline-position="-75" underline-thickness="50" />
<missing-glyph  horiz-adv-x="514" d="M50 14 C50 5 55 0 64 0 L450 0 C459 0 464 5 464 14 L464 725 C464 734 459 739 450 739 L64 739 C55 739 50 734 50 725 L50 14 Z M105 56 L105 687 L413 687 L413 56 L105 56 Z " />
<glyph glyph-name="NULL" horiz-adv-x="514" d="" />
<glyph glyph-name="CR" unicode="&#xd;" d="" />
<glyph glyph-name="space" unicode="&#x20;" horiz-adv-x="514" d="" />
<glyph glyph-name="exclam" unicode="&#x21;" horiz-adv-x="514" d="M199 777 C190 777 185 769 185 761 L206 260 C206 253 213 247 220 247 L293 247 C301 247 309 253 309 261 L329 762 C329 770 323 777 315 777 L199 777 Z M258 120 C219 120 192 94 192 55 C192 16 219 -12 258 -12 C291 -12 319 16 319 55 C319 94 291 120 258 120 L258 120 Z " />
<glyph glyph-name="quotedbl" unicode="&#x22;" horiz-adv-x="514" d="M118 460 C118 453 126 447 133 447 L180 447 C187 447 194 454 194 461 L206 724 C206 732 199 739 191 739 L122 739 C113 739 108 732 108 724 L118 460 Z M319 460 C319 453 326 447 333 447 L382 447 C389 447 396 454 396 461 L406 724 C406 732 399 739 390 739 L324 739 C315 739 309 732 309 724 L319 460 Z " />
<glyph glyph-name="numbersign" unicode="&#x23;" horiz-adv-x="514" d="M462 183 C471 183 477 190 477 197 L477 251 C477 261 472 266 462 266 L396 266 L426 484 L493 484 C501 484 508 490 508 498 L508 552 C508 560 501 567 493 567 L438 567 L460 725 C460 734 456 739 447 739 L395 739 C385 739 379 734 378 725 L356 567 L222 567 L245 725 C245 734 241 739 232 739 L179 739 C170 739 164 734 163 725 L140 567 L51 567 C42 567 36 560 36 552 L36 498 C36 489 41 484 51 484 L128 484 L98 266 L21 266 C11 266 6 261 6 251 L6 197 C6 190 12 183 21 183 L86 183 L63 14 C63 5 68 0 77 0 L130 0 C137 0 145 6 145 14 L168 183 L302 183 L278 14 C278 5 283 0 292 0 L345 0 C352 0 360 6 360 14 L384 183 L462 183 Z M210 484 L344 484 L314 266 L180 266 L210 484 Z " />
<glyph glyph-name="dollar" unicode="&#x24;" horiz-adv-x="514" d="M273 0 C282 0 287 5 287 14 L287 104 C384 115 459 164 459 259 C459 450 152 401 152 512 C152 549 185 572 253 572 C355 572 366 561 388 561 C395 561 400 564 402 571 L408 606 C409 613 410 617 410 618 C410 633 371 649 287 652 L287 725 C287 734 284 739 278 739 L230 739 C222 739 215 734 215 725 L215 648 C125 637 64 578 64 511 C64 327 371 377 371 256 C371 184 291 182 226 182 C169 182 127 193 96 208 C90 210 86 211 83 211 C76 211 71 208 69 201 L56 156 C55 153 57 151 54 148 C54 129 124 102 215 102 L215 14 C215 5 219 0 226 0 L273 0 Z " />
<glyph glyph-name="percent" unicode="&#x25;" horiz-adv-x="514" d="M387 338 C295 338 266 269 266 161 C266 61 295 -15 387 -15 C476 -15 507 61 507 161 C507 269 476 338 387 338 L387 338 Z M387 272 C434 272 442 229 442 161 C442 100 434 52 387 52 C339 52 332 100 332 161 C332 225 340 272 387 272 L387 272 Z M125 751 C33 751 4 682 4 574 C4 474 33 398 125 398 C214 398 245 474 245 574 C245 682 214 751 125 751 L125 751 Z M125 685 C172 685 180 642 180 574 C180 513 172 465 125 465 C77 465 70 513 70 574 C70 638 78 685 125 685 L125 685 Z M431 739 C420 739 412 734 407 725 L28 27 C25 22 23 17 23 12 C23 4 29 0 40 0 L77 0 C87 0 95 5 101 15 L478 712 C481 717 484 723 484 728 C484 735 478 739 467 739 L431 739 Z " />
<glyph glyph-name="ampersand" unicode="&#x26;" horiz-adv-x="514" d="M213 753 C123 753 75 685 75 597 C75 521 100 459 124 414 C56 354 12 281 12 193 C12 82 61 -13 189 -13 C269 -13 323 24 367 81 C393 47 440 0 460 0 C464 0 468 2 471 6 L505 56 C507 58 508 61 508 64 C508 83 440 136 416 157 C447 215 475 286 484 369 C484 376 480 384 472 385 L424 393 C417 394 413 395 410 395 C401 395 395 393 392 382 C385 331 377 273 358 217 C315 268 276 327 225 404 C281 449 358 517 358 614 C358 698 302 753 213 753 L213 753 Z M186 68 C126 68 108 116 108 208 C108 272 132 315 164 350 C209 282 262 206 318 138 C287 95 243 68 186 68 L186 68 Z M270 606 C270 550 234 501 191 465 C172 504 163 554 163 606 C163 645 185 672 221 672 C260 672 270 645 270 606 L270 606 Z " />
<glyph glyph-name="quotesingle" unicode="&#x27;" horiz-adv-x="514" d="M219 460 C219 453 226 447 233 447 L279 447 C286 447 294 454 294 461 L306 724 C306 732 299 739 291 739 L223 739 C214 739 208 732 208 724 L219 460 Z " />
<glyph glyph-name="parenleft" unicode="&#x28;" horiz-adv-x="514" d="M320 777 C317 780 313 782 308 782 C172 710 134 459 134 265 C134 47 183 -186 331 -242 C332 -243 333 -243 336 -243 C343 -243 347 -241 349 -237 L377 -191 C378 -187 379 -185 379 -182 C379 -177 376 -172 371 -169 C277 -129 230 70 230 265 C230 443 274 648 351 709 C354 712 356 716 356 721 C356 724 355 727 352 730 L320 777 Z " />
<glyph glyph-name="parenright" unicode="&#x29;" horiz-adv-x="514" d="M161 730 C158 727 157 724 157 721 C157 716 159 712 162 709 C239 648 283 443 283 265 C283 69 234 -129 142 -169 C137 -172 134 -177 134 -182 C134 -185 135 -187 136 -191 L164 -237 C166 -241 170 -243 177 -243 C180 -243 181 -243 182 -242 C330 -186 379 46 379 265 C379 459 341 710 205 782 C200 782 196 780 193 777 L161 730 Z " />
<glyph glyph-name="asterisk" unicode="&#x2a;" horiz-adv-x="514" d="M215 739 C206 739 201 731 201 723 L222 592 L99 650 C98 651 96 651 91 651 C85 651 81 648 79 641 L53 572 C52 571 52 570 52 568 C52 560 56 555 63 553 L199 521 L105 428 C102 425 101 422 101 418 C101 413 103 409 108 406 L171 359 C174 356 178 354 181 354 C184 354 188 357 192 362 L258 476 L317 360 C319 355 323 352 328 352 C331 352 335 353 338 355 L405 405 C409 408 411 412 411 417 C411 421 410 424 407 427 L317 524 L450 550 C458 553 462 556 462 561 C462 566 462 569 461 570 L439 639 C437 646 433 650 426 650 C423 650 421 649 420 648 L296 591 L316 725 C316 732 310 739 302 739 L215 739 Z " />
<glyph glyph-name="plus" unicode="&#x2b;" horiz-adv-x="514" d="M468 326 C477 326 482 331 482 340 L482 396 C482 406 477 411 468 411 L308 411 L308 588 C308 597 301 602 293 602 L228 602 C218 602 213 597 213 588 L213 411 L47 411 C37 411 32 406 32 396 L32 340 C32 331 37 326 47 326 L213 326 L213 146 C213 139 219 132 228 132 L293 132 C301 132 308 139 308 146 L308 326 L468 326 Z " />
<glyph glyph-name="comma" unicode="&#x2c;" horiz-adv-x="514" d="M176 -124 C175 -129 174 -133 174 -137 C174 -145 177 -151 189 -156 L212 -165 C215 -166 222 -166 222 -167 C229 -167 235 -164 238 -158 L339 85 C340 86 340 87 340 90 C340 97 337 101 330 103 L268 124 C263 127 257 128 250 128 C242 128 238 125 237 118 L176 -124 Z " />
<glyph glyph-name="hyphen" unicode="&#x2d;" horiz-adv-x="514" d="M375 251 C383 251 390 256 390 265 L390 319 C390 327 383 333 375 333 L139 333 C129 333 124 328 124 319 L124 265 C124 256 129 251 139 251 L375 251 Z " />
<glyph glyph-name="period" unicode="&#x2e;" horiz-adv-x="514" d="M257 120 C220 120 193 94 193 55 C193 16 220 -12 257 -12 C293 -12 320 16 320 55 C320 94 293 120 257 120 L257 120 Z " />
<glyph glyph-name="slash" unicode="&#x2f;" horiz-adv-x="514" d="M33 -115 C32 -118 34 -120 31 -123 C31 -132 36 -136 46 -136 L104 -136 C108 -136 114 -131 117 -127 L482 718 C483 719 483 721 483 726 C483 735 478 739 469 739 L411 739 C405 739 401 736 398 730 L33 -115 Z " />
<glyph glyph-name="zero" unicode="0" horiz-adv-x="514" d="M259 672 C363 672 388 646 388 369 C388 92 363 68 259 68 C155 68 126 92 126 369 C126 646 155 672 259 672 L259 672 Z M259 753 C91 753 34 660 34 369 C34 79 79 -13 259 -13 C443 -13 480 79 480 369 C480 660 443 753 259 753 L259 753 Z " />
<glyph glyph-name="one" unicode="1" horiz-adv-x="514" d="M48 651 C42 648 39 643 39 637 C39 634 40 631 42 628 L65 581 C67 575 71 572 78 572 C81 572 87 574 94 578 L216 641 L216 81 L73 81 C64 81 59 76 59 66 L59 14 C59 5 64 0 73 0 L454 0 C463 0 468 5 468 14 L468 66 C468 76 463 81 454 81 L312 81 L312 738 C312 748 307 753 298 753 L251 753 L48 651 Z " />
<glyph glyph-name="two" unicode="2" horiz-adv-x="514" d="M232 753 C131 753 63 716 63 696 C63 691 64 688 67 685 L86 646 C89 640 93 637 99 637 L98 637 C101 640 100 638 106 639 C157 666 192 672 237 672 C341 672 380 650 380 546 C380 343 40 316 40 53 L40 14 C40 6 47 0 55 0 L463 0 C472 0 477 5 477 14 L477 67 C477 74 471 81 463 81 L139 81 C143 272 472 303 472 546 C472 666 421 753 232 753 L232 753 Z " />
<glyph glyph-name="three" unicode="3" horiz-adv-x="514" d="M215 753 C154 753 71 746 71 708 C71 703 71 700 72 699 L84 665 C85 657 89 653 98 653 C116 653 123 672 208 672 C329 672 359 641 359 542 C359 473 326 424 250 424 L183 424 C176 424 169 418 169 410 L169 359 C169 350 176 344 183 344 L265 344 C341 344 386 305 386 220 C386 109 340 68 256 68 C177 68 135 77 104 104 C101 107 98 108 94 108 C89 108 86 106 83 101 L46 57 C45 54 44 52 44 48 C44 43 46 39 51 37 C126 -11 158 -13 257 -13 C425 -13 478 89 478 220 C478 312 436 373 371 394 C420 417 451 471 451 555 C451 664 407 753 215 753 L215 753 Z " />
<glyph glyph-name="four" unicode="4" horiz-adv-x="514" d="M20 170 C20 160 25 155 34 155 L332 155 L332 14 C332 5 337 0 346 0 L414 0 C423 0 428 5 428 14 L428 155 L490 155 C499 155 504 160 504 170 L504 222 C504 231 499 236 490 236 L428 236 L428 725 C428 734 423 739 414 739 L249 739 C242 739 238 736 235 730 L20 227 L20 170 Z M123 236 L297 667 L332 667 L332 236 L123 236 Z " />
<glyph glyph-name="five" unicode="5" horiz-adv-x="514" d="M432 658 C441 658 446 663 446 672 L446 725 C446 734 441 739 432 739 L85 739 C77 739 70 734 70 726 L52 371 C52 359 60 357 71 357 L107 357 C133 357 137 386 224 386 C371 386 385 365 385 237 C385 98 364 68 243 68 C184 68 139 74 75 103 C72 104 71 106 68 106 C62 106 57 102 54 95 L35 52 C34 51 34 49 34 46 C34 42 36 38 41 34 C107 -11 189 -13 245 -13 C446 -13 480 82 480 245 C480 405 425 466 246 466 C221 466 181 463 153 450 L162 658 L432 658 Z " />
<glyph glyph-name="six" unicode="6" horiz-adv-x="514" d="M295 672 C386 672 397 657 413 657 C419 657 423 660 426 667 L446 708 C446 712 447 715 448 716 C448 739 383 753 302 753 C83 753 36 679 36 375 C36 47 95 -13 262 -13 C425 -13 482 54 482 234 C482 403 415 471 286 471 C235 471 164 454 129 419 C132 645 165 672 295 672 L295 672 Z M265 390 C357 390 390 368 390 227 C390 90 353 68 265 68 C165 68 129 89 129 332 C161 364 217 390 265 390 L265 390 Z " />
<glyph glyph-name="seven" unicode="7" horiz-adv-x="514" d="M39 673 C39 665 45 658 54 658 L379 658 L122 19 C121 18 121 16 121 13 C121 4 126 0 135 0 L210 0 C217 0 221 3 224 10 L475 672 L475 725 C475 732 469 739 461 739 L54 739 C45 739 39 732 39 725 L39 673 Z " />
<glyph glyph-name="eight" unicode="8" horiz-adv-x="514" d="M262 753 C117 753 60 690 60 577 C60 500 93 444 170 397 C72 333 26 290 26 193 C26 65 68 -13 258 -13 C459 -13 487 78 487 193 C487 291 438 338 349 397 C422 444 465 497 465 577 C465 694 406 753 262 753 L262 753 Z M118 199 C118 281 188 329 254 358 C328 324 394 266 394 199 C394 92 362 68 254 68 C146 68 118 92 118 199 L118 199 Z M264 672 C343 672 372 661 372 577 C372 505 335 467 263 432 C199 463 153 513 153 577 C153 661 179 672 264 672 L264 672 Z " />
<glyph glyph-name="nine" unicode="9" horiz-adv-x="514" d="M240 68 C147 68 150 83 132 83 C127 83 123 80 119 73 L100 32 C99 29 101 27 98 24 C98 1 152 -13 232 -13 C429 -13 478 85 478 365 C478 689 435 753 263 753 C78 753 35 675 35 495 C35 337 74 262 227 262 C307 262 355 281 388 306 C385 147 364 68 240 68 L240 68 Z M249 342 C149 342 127 359 127 506 C127 637 159 672 249 672 C352 672 389 631 389 390 C358 363 313 342 249 342 L249 342 Z " />
<glyph glyph-name="colon" unicode="&#x3a;" horiz-adv-x="514" d="M257 120 C221 120 194 94 194 55 C194 16 221 -12 257 -12 C293 -12 320 16 320 55 C320 94 293 120 257 120 L257 120 Z M257 547 C221 547 194 521 194 482 C194 443 221 415 257 415 C293 415 320 443 320 482 C320 521 293 547 257 547 L257 547 Z " />
<glyph glyph-name="semicolon" unicode="&#x3b;" horiz-adv-x="514" d="M277 547 C238 547 212 521 212 482 C212 443 238 415 277 415 C312 415 339 443 339 482 C339 521 312 547 277 547 L277 547 Z M172 -124 C171 -129 170 -133 170 -137 C170 -145 173 -151 185 -156 L208 -165 C211 -166 218 -166 218 -167 C225 -167 231 -164 234 -158 L335 85 C336 86 336 87 336 90 C336 97 333 101 326 103 L264 124 C259 127 253 128 246 128 C238 128 234 125 233 118 L172 -124 Z " />
<glyph glyph-name="less" unicode="&#x3c;" horiz-adv-x="514" d="M455 206 C455 213 453 217 448 220 L157 361 L448 502 C453 505 455 509 455 516 L455 581 C455 590 450 595 441 595 C438 595 434 594 429 591 L65 400 C60 397 58 393 58 387 L58 335 C58 330 60 326 65 323 L430 132 C435 129 438 128 441 128 C450 128 455 133 455 143 L455 206 Z " />
<glyph glyph-name="equal" unicode="&#x3d;" horiz-adv-x="514" d="M477 234 C487 234 492 239 492 248 L492 302 C492 310 486 317 477 317 L36 317 C27 317 21 310 21 302 L21 248 C21 239 26 234 36 234 L477 234 Z M477 443 C487 443 492 448 492 457 L492 511 C492 519 486 526 477 526 L36 526 C27 526 21 519 21 511 L21 457 C21 448 26 443 36 443 L477 443 Z " />
<glyph glyph-name="greater" unicode="&#x3e;" horiz-adv-x="514" d="M58 517 C58 510 60 506 65 503 L356 362 L65 221 C60 218 58 214 58 207 L58 142 C58 133 63 128 72 128 C75 128 79 129 84 132 L448 323 C453 326 455 330 455 336 L455 388 C455 393 453 397 448 400 L83 591 C78 594 75 595 72 595 C63 595 58 590 58 580 L58 517 Z " />
<glyph glyph-name="question" unicode="&#x3f;" horiz-adv-x="514" d="M251 672 C343 672 383 653 383 602 C383 487 180 471 180 310 C180 291 184 242 204 242 L263 242 C272 242 280 248 280 256 C280 269 274 281 274 296 C274 439 480 431 480 611 C480 707 412 753 259 753 C188 753 73 736 73 708 C73 705 75 700 76 697 L91 660 C94 651 100 646 108 646 C111 646 115 647 119 649 C150 664 204 672 251 672 L251 672 Z M238 120 C202 120 174 94 174 55 C174 16 202 -12 238 -12 C273 -12 301 16 301 55 C301 94 273 120 238 120 L238 120 Z " />
<glyph glyph-name="at" unicode="&#x40;" horiz-adv-x="514" d="M278 782 C47 782 25 658 25 355 C25 62 38 -53 326 -53 C426 -53 462 -42 531 3 C536 6 538 9 538 14 C538 19 537 22 534 25 L504 61 C500 66 496 69 493 69 C489 69 486 68 484 66 C445 38 406 24 321 24 C142 24 113 72 113 355 C113 655 138 712 278 712 C371 712 390 643 390 569 L390 533 C371 552 346 562 315 562 C229 562 192 534 192 366 C192 193 228 169 311 169 L453 169 C463 169 468 174 468 183 L468 514 C468 678 458 782 278 782 L278 782 Z M326 486 C363 486 379 464 390 433 L390 241 L321 241 C284 241 271 264 271 366 C271 464 286 486 326 486 L326 486 Z " />
<glyph glyph-name="A" unicode="A" horiz-adv-x="514" d="M162 739 C155 739 151 736 148 729 L18 19 C17 18 17 16 17 13 C17 4 22 0 31 0 L100 0 C105 0 111 5 114 10 L144 200 L376 200 L407 10 C410 5 416 0 421 0 L491 0 C500 0 505 4 505 13 C505 16 504 16 504 19 L373 729 C370 736 366 739 359 739 L162 739 Z M221 661 L300 661 L362 281 L159 281 L221 661 Z " />
<glyph glyph-name="B" unicode="B" horiz-adv-x="514" d="M46 14 C46 5 50 0 59 0 L260 0 C460 0 482 60 482 219 C482 319 451 385 371 396 C427 420 450 464 450 532 C450 680 421 739 257 739 L59 739 C50 739 46 734 46 725 L46 14 Z M142 343 L284 343 C368 343 389 325 389 219 C389 100 385 81 270 81 L142 81 L142 343 Z M142 658 L261 658 C353 658 357 640 357 532 C357 455 335 421 266 421 L142 421 L142 658 Z " />
<glyph glyph-name="C" unicode="C" horiz-adv-x="514" d="M282 68 C151 68 129 93 129 371 C129 647 144 672 275 672 C363 672 417 655 425 655 C428 655 433 656 434 660 L453 716 C454 719 455 721 455 724 C455 742 321 753 275 753 C86 753 37 660 37 371 C37 80 94 -13 282 -13 C406 -13 467 19 467 37 C467 39 467 42 465 45 L436 96 C434 100 431 103 428 103 C423 103 419 99 412 95 C392 84 348 68 282 68 L282 68 Z " />
<glyph glyph-name="D" unicode="D" horiz-adv-x="514" d="M46 14 C46 5 50 0 59 0 L234 0 C419 0 488 79 488 369 C488 660 419 739 234 739 L59 739 C51 739 46 732 46 725 L46 14 Z M142 658 L230 658 C345 658 396 633 396 369 C396 110 342 81 230 81 L142 81 L142 658 Z " />
<glyph glyph-name="E" unicode="E" horiz-adv-x="514" d="M66 739 C57 739 52 732 52 725 L52 14 C52 5 57 0 66 0 L461 0 C469 0 476 6 476 14 L476 67 C476 74 469 81 461 81 L148 81 L148 352 L427 352 C436 352 442 359 442 366 L442 418 C442 428 437 433 427 433 L148 433 L148 658 L455 658 C464 658 470 665 470 673 L470 725 C470 732 464 739 455 739 L66 739 Z " />
<glyph glyph-name="F" unicode="F" horiz-adv-x="514" d="M66 739 C57 739 52 732 52 725 L52 14 C52 5 57 0 66 0 L134 0 C141 0 148 6 148 14 L148 336 L427 336 C435 336 441 343 441 351 L441 403 C441 410 435 417 427 417 L148 417 L148 658 L462 658 C470 658 477 665 477 673 L477 725 C477 732 470 739 462 739 L66 739 Z " />
<glyph glyph-name="G" unicode="G" horiz-adv-x="514" d="M274 672 C362 672 426 655 434 655 C437 655 440 657 443 660 L462 716 C462 719 463 722 464 723 C464 742 321 753 274 753 C86 753 26 654 26 371 C26 80 90 -13 278 -13 C411 -13 473 16 473 47 L473 350 C473 378 459 392 431 392 L256 392 C246 392 241 387 241 378 L241 326 C241 316 246 311 256 311 L382 311 L382 78 C349 71 313 68 278 68 C147 68 118 92 118 371 C118 640 142 672 274 672 L274 672 Z " />
<glyph glyph-name="H" unicode="H" horiz-adv-x="514" d="M60 739 C51 739 46 732 46 725 L46 14 C46 5 51 0 60 0 L128 0 C135 0 142 6 142 14 L142 345 L368 345 L368 14 C368 6 375 0 382 0 L450 0 C459 0 464 5 464 14 L464 725 C464 732 459 739 450 739 L382 739 C375 739 368 732 368 725 L368 425 L142 425 L142 725 C142 732 135 739 128 739 L60 739 Z " />
<glyph glyph-name="I" unicode="I" horiz-adv-x="514" d="M429 0 C438 0 443 5 443 14 L443 66 C443 76 438 81 429 81 L305 81 L305 658 L424 658 C433 658 438 663 438 673 L438 725 C438 734 433 739 424 739 L85 739 C76 739 71 734 71 725 L71 673 C71 663 76 658 85 658 L209 658 L209 81 L90 81 C81 81 76 76 76 66 L76 14 C76 5 81 0 90 0 L429 0 Z " />
<glyph glyph-name="J" unicode="J" horiz-adv-x="514" d="M222 739 C213 739 206 732 206 725 L206 673 C206 665 213 658 222 658 L366 658 L366 298 C366 93 338 68 228 68 C172 68 117 75 100 94 C97 97 95 98 92 98 C89 98 86 96 84 93 L59 49 C56 46 55 43 55 38 C55 19 103 -13 228 -13 C416 -13 462 79 462 298 L462 725 C462 732 456 739 448 739 L222 739 Z " />
<glyph glyph-name="K" unicode="K" horiz-adv-x="514" d="M405 5 C407 2 410 0 414 0 L498 0 C507 0 512 4 512 12 C512 17 511 21 508 24 L302 404 L490 714 C493 717 495 721 495 725 C495 734 490 739 481 739 L410 739 C398 739 385 731 380 720 L220 430 L142 430 L142 725 C142 734 137 739 128 739 L60 739 C51 739 46 734 46 725 L46 14 C46 5 51 0 60 0 L128 0 C137 0 142 5 142 14 L142 353 L229 353 L405 5 Z " />
<glyph glyph-name="L" unicode="L" horiz-adv-x="514" d="M70 739 C61 739 56 732 56 725 L56 14 C56 5 61 0 70 0 L469 0 C478 0 483 5 483 14 L483 67 C483 74 477 81 469 81 L152 81 L152 725 C152 732 145 739 138 739 L70 739 Z " />
<glyph glyph-name="M" unicode="M" horiz-adv-x="514" d="M320 739 C311 739 307 736 306 729 L270 336 L251 336 L215 729 C214 736 210 739 201 739 L52 739 C43 739 38 734 38 725 L38 14 C38 5 43 0 52 0 L116 0 C125 0 130 5 130 14 L130 661 L153 661 L189 270 C190 263 194 260 202 260 L319 260 C327 260 331 263 332 270 L368 661 L391 661 L391 14 C391 5 396 0 405 0 L469 0 C478 0 483 5 483 14 L483 725 C483 734 478 739 469 739 L320 739 Z " />
<glyph glyph-name="N" unicode="N" horiz-adv-x="514" d="M46 14 C46 5 51 0 60 0 L122 0 C131 0 136 5 136 14 L136 661 L160 661 L276 8 C278 3 282 0 289 0 L449 0 C459 0 464 5 464 14 L464 725 C464 734 459 739 449 739 L390 739 C380 739 375 734 375 725 L375 76 L351 76 L237 731 C236 736 232 739 225 739 L60 739 C51 739 46 734 46 725 L46 14 Z " />
<glyph glyph-name="O" unicode="O" horiz-adv-x="514" d="M257 753 C82 753 26 660 26 369 C26 79 82 -13 257 -13 C433 -13 489 79 489 369 C489 660 433 753 257 753 L257 753 Z M257 672 C369 672 396 646 396 369 C396 92 369 68 257 68 C145 68 118 92 118 369 C118 646 145 672 257 672 L257 672 Z " />
<glyph glyph-name="P" unicode="P" horiz-adv-x="514" d="M46 14 C46 5 51 0 60 0 L128 0 C135 0 142 6 142 14 L142 294 L258 294 C454 294 480 350 480 514 C480 678 454 739 258 739 L59 739 C50 739 46 734 46 725 L46 14 Z M142 658 L259 658 C379 658 394 634 394 514 C394 393 379 375 259 375 L142 375 L142 658 Z " />
<glyph glyph-name="Q" unicode="Q" horiz-adv-x="514" d="M257 753 C82 753 26 660 26 369 C26 79 82 -13 257 -13 C284 -13 308 -7 329 -3 C340 -25 359 -75 373 -75 L446 -75 C455 -75 460 -71 460 -64 C460 -46 420 7 407 33 C467 85 489 186 489 369 C489 660 433 753 257 753 L257 753 Z M257 672 C369 672 396 646 396 369 C396 218 387 144 363 105 C326 179 281 293 265 293 C262 293 260 292 257 290 L203 252 C200 250 199 247 199 242 C199 239 201 235 202 232 C229 179 258 129 289 69 C278 68 269 68 257 68 C145 68 118 92 118 369 C118 646 145 672 257 672 L257 672 Z " />
<glyph glyph-name="R" unicode="R" horiz-adv-x="514" d="M483 0 C494 0 499 5 499 14 L343 351 C412 372 461 399 461 555 C461 661 440 739 276 739 L59 739 C50 739 46 734 46 725 L46 14 C46 5 51 0 60 0 L128 0 C137 0 142 5 142 14 L142 343 L249 343 L397 9 C400 3 404 0 410 0 L483 0 Z M142 658 L282 658 C355 658 377 639 377 548 C377 428 355 421 235 421 L142 421 L142 658 Z " />
<glyph glyph-name="S" unicode="S" horiz-adv-x="514" d="M264 753 C144 753 53 688 53 577 C53 337 396 391 396 199 C396 114 308 68 231 68 C171 68 114 78 83 95 C78 97 73 98 69 98 C62 98 57 94 55 87 L41 42 C40 39 39 32 39 31 C39 10 125 -13 225 -13 C360 -13 488 60 488 193 C488 451 146 399 146 577 C146 638 190 672 259 672 C367 672 388 662 411 662 C419 662 424 666 425 674 L431 708 C432 715 432 716 432 723 C432 743 376 753 264 753 L264 753 Z " />
<glyph glyph-name="T" unicode="T" horiz-adv-x="514" d="M43 739 C36 739 29 732 29 725 L29 673 C29 665 36 658 43 658 L211 658 L211 14 C211 6 218 0 226 0 L292 0 C302 0 307 5 307 14 L307 658 L470 658 C477 658 484 665 484 673 L484 725 C484 732 477 739 470 739 L43 739 Z " />
<glyph glyph-name="U" unicode="U" horiz-adv-x="514" d="M61 739 C52 739 47 732 47 725 L47 208 C47 89 67 -13 258 -13 C449 -13 467 89 467 208 L467 725 C467 732 462 739 453 739 L387 739 C378 739 372 732 372 725 L372 226 C372 93 357 68 258 68 C159 68 143 93 143 226 L143 725 C143 732 136 739 129 739 L61 739 Z " />
<glyph glyph-name="V" unicode="V" horiz-adv-x="514" d="M359 0 C366 0 370 3 373 10 L504 720 C504 723 505 724 505 725 C505 734 500 739 491 739 L420 739 C413 739 409 733 406 729 L297 79 L225 79 L116 729 C113 733 107 739 102 739 L31 739 C22 739 17 734 17 725 C17 722 17 721 18 720 L148 10 C151 3 155 0 162 0 L359 0 Z " />
<glyph glyph-name="W" unicode="W" horiz-adv-x="514" d="M329 493 C328 500 324 503 315 503 L200 503 C191 503 187 500 186 493 L146 78 L119 78 L97 729 C97 736 92 739 83 739 L9 739 C0 739 -5 734 -5 725 C-5 722 -5 719 -4 712 L39 10 C39 3 44 0 53 0 L188 0 C197 0 201 3 202 10 L248 426 L267 426 L313 10 C314 3 318 0 327 0 L462 0 C471 0 476 3 476 10 L519 712 C520 719 520 722 520 725 C520 734 515 739 506 739 L432 739 C423 739 418 736 418 729 L396 78 L369 78 L329 493 Z " />
<glyph glyph-name="X" unicode="X" horiz-adv-x="514" d="M16 23 C13 20 12 17 12 14 C12 6 19 0 27 0 L109 0 C114 0 119 3 122 8 L256 302 L397 8 C400 3 404 0 409 0 L486 0 C496 0 501 5 501 14 C501 16 500 19 498 23 L306 382 L483 716 C485 720 486 723 486 726 C486 735 481 739 471 739 L392 739 C387 739 382 736 379 731 L261 470 L141 731 C138 736 133 739 128 739 L53 739 C42 739 37 735 37 726 C37 723 38 720 40 716 L210 390 L16 23 Z " />
<glyph glyph-name="Y" unicode="Y" horiz-adv-x="514" d="M121 730 C118 736 113 739 108 739 L32 739 C23 739 18 735 18 726 C21 723 19 720 20 717 L212 341 L212 14 C212 5 217 0 227 0 L293 0 C303 0 308 5 308 14 L308 341 L494 717 C494 722 495 725 496 726 C496 735 491 739 482 739 L414 739 C410 739 406 736 402 730 L259 409 L121 730 Z " />
<glyph glyph-name="Z" unicode="Z" horiz-adv-x="514" d="M62 673 C62 663 67 658 77 658 L270 658 C305 658 336 659 365 662 L31 74 L31 14 C31 5 36 0 45 0 L459 0 C469 0 474 5 474 14 L474 66 C474 76 469 81 459 81 L275 81 C228 81 183 80 139 76 L470 669 L470 725 C470 734 465 739 456 739 L77 739 C67 739 62 734 62 725 L62 673 Z " />
<glyph glyph-name="bracketleft" unicode="&#x5b;" horiz-adv-x="514" d="M144 -205 C144 -214 149 -219 159 -219 L355 -219 C363 -219 370 -213 370 -205 L370 -152 C370 -143 363 -137 355 -137 L240 -137 L240 736 L355 736 C363 736 370 742 370 751 L370 803 C370 810 363 817 355 817 L159 817 C150 817 144 810 144 803 L144 -205 Z " />
<glyph glyph-name="backslash" unicode="&#x5c;" horiz-adv-x="514" d="M115 730 C112 736 107 739 102 739 L44 739 C35 739 30 735 30 726 C30 721 30 719 31 718 L397 -127 C400 -131 406 -136 410 -136 L468 -136 C478 -136 483 -132 483 -123 C482 -122 481 -119 481 -115 L115 730 Z " />
<glyph glyph-name="bracketright" unicode="&#x5d;" horiz-adv-x="514" d="M369 803 C369 810 362 817 354 817 L159 817 C150 817 144 810 144 803 L144 750 C144 740 149 735 159 735 L272 735 L272 -138 L159 -138 C149 -138 144 -143 144 -153 L144 -205 C144 -214 149 -219 159 -219 L354 -219 C362 -219 369 -213 369 -205 L369 803 Z " />
<glyph glyph-name="asciicircum" unicode="&#x5e;" horiz-adv-x="514" d="M361 339 C364 334 369 331 375 331 L448 331 C457 331 465 336 465 344 C465 347 463 348 462 351 L285 730 C282 736 277 739 272 739 L235 739 C229 739 225 736 222 730 L49 351 C48 350 48 348 48 345 C48 336 53 331 63 331 L128 331 C135 331 139 333 142 338 L254 614 L361 339 Z " />
<glyph glyph-name="underscore" unicode="&#x5f;" horiz-adv-x="514" d="M528 -62 C528 -54 521 -47 514 -47 L0 -47 C-8 -47 -14 -54 -14 -62 L-14 -109 C-14 -118 -9 -123 0 -123 L514 -123 C521 -123 528 -117 528 -109 L528 -62 Z " />
<glyph glyph-name="grave" unicode="&#x60;" horiz-adv-x="514" d="M159 706 C156 703 155 700 155 697 C155 692 158 687 163 684 L311 598 C312 597 317 596 319 596 C324 596 328 597 331 600 L355 629 C357 631 358 634 358 639 C358 642 356 646 353 651 L222 761 C220 763 217 764 214 764 C209 764 205 762 202 758 L159 706 Z " />
<glyph glyph-name="a" unicode="a" horiz-adv-x="514" d="M274 557 C177 557 58 525 58 501 C58 498 59 496 61 493 L82 449 C85 444 89 442 94 442 C97 442 100 444 103 445 C150 468 212 480 259 480 C340 480 367 463 367 411 L367 336 C202 331 35 315 35 134 C35 66 87 -11 213 -11 C285 -11 352 11 385 60 C390 33 411 0 442 0 L477 0 C487 0 492 5 492 14 C465 57 458 126 458 184 L458 402 C458 491 414 557 274 557 L274 557 Z M367 157 C351 110 300 66 228 66 C152 66 123 94 123 143 C123 258 251 262 367 265 L367 157 Z " />
<glyph glyph-name="b" unicode="b" horiz-adv-x="514" d="M153 762 C153 772 148 777 138 777 L78 777 C68 777 63 772 63 762 L63 29 C63 10 67 0 90 0 L253 0 C433 0 483 61 483 289 C483 466 437 557 285 557 C225 557 182 541 153 522 L153 762 Z M266 480 C362 480 396 457 396 279 C396 87 355 76 254 76 L153 76 L153 439 C177 463 218 480 266 480 L266 480 Z " />
<glyph glyph-name="c" unicode="c" horiz-adv-x="514" d="M267 557 C94 557 37 495 37 274 C37 53 92 -11 253 -11 C353 -11 416 12 459 48 C462 51 464 55 464 60 C464 65 463 69 460 72 L437 107 C434 112 429 115 424 115 C419 115 415 114 412 111 C375 84 325 66 265 66 C157 66 125 85 125 274 C125 459 160 480 261 480 C318 480 362 477 401 458 C406 455 410 454 413 454 C418 454 422 456 424 459 L449 497 C451 500 452 503 452 506 C452 538 363 557 267 557 L267 557 Z " />
<glyph glyph-name="d" unicode="d" horiz-adv-x="514" d="M450 762 C450 770 444 777 435 777 L374 777 C366 777 360 770 360 762 L360 528 C337 543 311 557 264 557 C73 557 29 488 29 251 C29 59 93 -11 233 -11 C297 -11 349 19 374 60 C377 40 393 0 411 0 L435 0 C445 0 450 5 450 14 L450 762 Z M264 480 C299 480 333 469 360 428 L360 172 C349 112 316 66 244 66 C160 66 117 84 117 257 C117 461 142 480 264 480 L264 480 Z " />
<glyph glyph-name="e" unicode="e" horiz-adv-x="514" d="M468 263 C478 263 483 268 483 277 L483 301 C483 489 428 557 268 557 C108 557 31 511 31 274 C31 53 103 -11 256 -11 C356 -11 429 12 472 48 C475 51 477 55 477 58 C477 63 476 66 473 68 L448 110 C443 113 439 115 437 115 C432 115 428 114 425 111 C386 84 328 66 268 66 C165 66 122 79 119 263 L468 263 Z M260 480 C347 480 395 464 395 339 L122 339 C130 468 172 480 260 480 L260 480 Z " />
<glyph glyph-name="f" unicode="f" horiz-adv-x="514" d="M450 532 C450 541 445 546 436 546 L251 546 L251 590 C251 691 304 706 348 706 C392 706 439 695 451 695 C458 695 462 697 463 701 L477 738 C479 742 480 746 480 749 C480 773 392 782 357 782 C262 782 161 744 161 603 L161 546 L60 546 C51 546 46 541 46 532 L46 485 C46 475 51 470 60 470 L161 470 L161 14 C161 5 166 0 175 0 L237 0 C246 0 251 5 251 14 L251 470 L436 470 C445 470 450 475 450 485 L450 532 Z " />
<glyph glyph-name="g" unicode="g" horiz-adv-x="514" d="M233 -142 C173 -142 133 -124 96 -97 C93 -94 89 -93 84 -93 C81 -93 77 -95 74 -98 L44 -139 C41 -141 40 -144 40 -149 C40 -152 42 -155 45 -158 C85 -195 148 -219 245 -219 C405 -219 450 -142 450 22 L450 517 C450 536 446 546 423 546 L260 546 C80 546 30 479 30 268 C30 86 82 11 228 11 C288 11 331 27 360 46 L360 23 C360 -124 341 -142 233 -142 L233 -142 Z M247 87 C151 87 118 114 118 278 C118 452 157 470 259 470 L360 470 L360 149 C337 118 295 87 247 87 L247 87 Z " />
<glyph glyph-name="h" unicode="h" horiz-adv-x="514" d="M446 0 C453 0 460 6 460 14 L460 421 C460 501 430 557 351 557 C283 557 229 536 153 475 L153 762 C153 770 147 777 138 777 L78 777 C69 777 63 770 63 762 L63 14 C63 5 68 0 78 0 L138 0 C148 0 153 5 153 14 L153 379 C229 458 291 480 324 480 C352 480 369 464 369 428 L369 14 C369 6 376 0 384 0 L446 0 Z " />
<glyph glyph-name="i" unicode="i" horiz-adv-x="514" d="M105 485 C105 475 110 470 119 470 L266 470 L266 14 C266 5 271 0 282 0 L343 0 C352 0 357 5 357 14 L357 532 C357 541 352 546 343 546 L119 546 C110 546 105 541 105 532 L105 485 Z M301 777 C264 777 234 748 234 712 C234 676 264 647 301 647 C340 647 368 676 368 712 C368 748 340 777 301 777 L301 777 Z " />
<glyph glyph-name="j" unicode="j" horiz-adv-x="514" d="M134 485 C134 475 139 470 148 470 L306 470 L306 -60 C306 -134 255 -142 227 -142 C115 -142 115 -129 98 -129 C91 -129 86 -133 84 -140 L74 -175 C73 -182 72 -185 72 -188 C72 -212 197 -219 229 -219 C345 -219 397 -142 397 -54 L397 532 C397 541 392 546 383 546 L148 546 C139 546 134 541 134 532 L134 485 Z M340 777 C303 777 274 748 274 712 C274 676 303 647 340 647 C379 647 407 676 407 712 C407 748 379 777 340 777 L340 777 Z " />
<glyph glyph-name="k" unicode="k" horiz-adv-x="514" d="M376 5 C378 2 381 0 385 0 L462 0 C471 0 475 4 475 11 C475 14 473 18 470 23 L268 309 L441 518 C447 525 450 531 450 536 C450 543 446 546 437 546 L371 546 C358 546 349 540 342 528 L196 336 L125 336 L125 764 C125 773 120 777 111 777 L48 777 C39 777 35 773 35 764 L35 13 C35 4 39 0 48 0 L111 0 C120 0 125 4 125 13 L125 263 L200 263 L376 5 Z " />
<glyph glyph-name="l" unicode="l" horiz-adv-x="514" d="M98 716 C98 706 103 701 112 701 L259 701 L259 14 C259 5 264 0 275 0 L336 0 C345 0 350 5 350 14 L350 763 C350 772 345 777 336 777 L112 777 C103 777 98 772 98 763 L98 716 Z " />
<glyph glyph-name="m" unicode="m" horiz-adv-x="514" d="M475 0 C484 0 489 5 489 14 L489 421 C489 512 461 557 405 557 C357 557 315 531 279 480 C271 531 248 557 211 557 C171 557 138 531 113 480 C108 507 97 546 78 546 L44 546 C34 546 29 541 29 531 L29 14 C29 5 34 0 44 0 L101 0 C111 0 116 5 116 14 L116 404 C145 455 169 480 189 480 C208 480 217 463 217 428 L217 14 C217 5 222 0 232 0 L288 0 C297 0 302 5 302 14 L302 404 C331 455 355 480 376 480 C393 480 401 463 401 428 L401 14 C401 5 406 0 416 0 L475 0 Z " />
<glyph glyph-name="n" unicode="n" horiz-adv-x="514" d="M446 0 C453 0 460 6 460 14 L460 421 C460 509 425 557 341 557 C290 557 223 538 147 470 C142 497 131 546 112 546 L78 546 C68 546 63 541 63 531 L63 14 C63 5 68 0 78 0 L138 0 C148 0 153 5 153 14 L153 378 C229 458 291 480 324 480 C354 480 369 461 369 422 L369 14 C369 6 376 0 384 0 L446 0 Z " />
<glyph glyph-name="o" unicode="o" horiz-adv-x="514" d="M257 557 C75 557 29 483 29 273 C29 61 74 -11 257 -11 C441 -11 484 61 484 273 C484 483 438 557 257 557 L257 557 Z M257 480 C363 480 396 453 396 273 C396 93 363 66 257 66 C152 66 117 90 117 273 C117 454 152 480 257 480 L257 480 Z " />
<glyph glyph-name="p" unicode="p" horiz-adv-x="514" d="M63 -204 C63 -212 69 -219 78 -219 L137 -219 C144 -219 151 -212 151 -204 L151 18 C174 3 204 -11 275 -11 C431 -11 485 66 485 295 C485 487 442 557 286 557 C222 557 168 522 139 486 C136 506 120 546 101 546 L78 546 C68 546 63 541 63 532 L63 -204 Z M264 66 C199 66 175 82 153 107 L153 387 C172 436 212 480 283 480 C371 480 396 462 396 289 C396 85 365 66 264 66 L264 66 Z " />
<glyph glyph-name="q" unicode="q" horiz-adv-x="514" d="M360 -204 C360 -214 365 -219 375 -219 L435 -219 C445 -219 450 -214 450 -204 L450 517 C450 536 446 546 423 546 L260 546 C72 546 30 493 30 257 C30 53 76 -11 228 -11 C288 -11 331 5 360 24 L360 -204 Z M247 66 C151 66 116 89 116 267 C116 459 158 470 259 470 L360 470 L360 109 C341 88 295 66 247 66 L247 66 Z " />
<glyph glyph-name="r" unicode="r" horiz-adv-x="514" d="M95 546 C85 546 80 541 80 531 L80 14 C80 5 85 0 95 0 L155 0 C165 0 170 5 170 14 L170 378 C250 461 288 480 341 480 C415 480 425 458 441 458 C443 458 446 460 449 464 L476 506 C479 511 480 515 480 518 C480 542 394 557 358 557 C298 557 232 538 164 470 C159 497 148 546 129 546 L95 546 Z " />
<glyph glyph-name="s" unicode="s" horiz-adv-x="514" d="M258 557 C143 557 61 518 61 414 C61 223 381 294 381 149 C381 89 287 66 243 66 C105 66 99 86 87 86 C79 86 74 85 71 77 L58 31 C57 28 57 21 56 21 C56 -3 170 -11 244 -11 C357 -11 470 51 470 155 C470 247 390 289 291 324 C190 359 149 367 149 418 C149 453 204 480 260 480 C376 480 399 463 409 463 C418 463 422 466 423 473 L433 528 C433 548 320 557 258 557 L258 557 Z " />
<glyph glyph-name="t" unicode="t" horiz-adv-x="514" d="M460 531 C460 541 455 546 446 546 L261 546 L261 696 C261 705 256 710 247 710 L185 710 C176 710 171 705 171 696 L171 546 L70 546 C61 546 56 541 56 531 L56 484 C56 475 61 470 70 470 L171 470 L171 179 C171 38 260 0 355 0 C391 0 468 9 468 33 C468 36 467 40 465 44 L451 81 C450 85 446 87 439 87 C429 87 424 76 346 76 C301 76 261 91 261 192 L261 470 L446 470 C455 470 460 475 460 484 L460 531 Z " />
<glyph glyph-name="u" unicode="u" horiz-adv-x="514" d="M67 546 C58 546 53 541 53 532 L53 125 C53 38 83 -11 174 -11 C238 -11 285 6 366 76 C369 49 382 0 400 0 L435 0 C443 0 450 6 450 15 L450 532 C450 540 443 546 435 546 L374 546 C366 546 359 540 359 532 L359 170 C281 76 227 66 194 66 C167 66 143 79 143 118 L143 532 C143 541 138 546 128 546 L67 546 Z " />
<glyph glyph-name="v" unicode="v" horiz-adv-x="514" d="M339 0 C346 0 350 3 352 10 L493 520 C495 527 496 531 496 534 C496 542 492 546 483 546 L413 546 C406 546 402 544 401 539 L280 75 L234 75 L114 539 C113 544 109 546 101 546 L31 546 C22 546 18 542 18 534 C18 531 19 527 21 520 L162 10 C165 3 169 0 176 0 L339 0 Z " />
<glyph glyph-name="w" unicode="w" horiz-adv-x="514" d="M250 346 L264 346 L302 9 C303 3 307 0 315 0 L455 0 C462 0 467 3 468 9 L518 512 C519 523 520 530 520 534 C520 542 516 546 507 546 L444 546 C439 546 435 543 431 538 L398 70 L367 70 L327 402 C326 411 322 415 313 415 L201 415 C192 415 188 411 187 402 L147 70 L116 70 L83 538 C79 543 75 546 70 546 L7 546 C-2 546 -6 542 -6 534 C-6 530 -5 523 -4 512 L46 9 C47 3 51 0 59 0 L199 0 C206 0 211 3 212 9 L250 346 Z " />
<glyph glyph-name="x" unicode="x" horiz-adv-x="514" d="M261 351 L142 540 C139 544 134 546 129 546 L56 546 C45 546 40 542 40 533 C40 530 41 527 44 524 L208 290 L20 23 C18 19 17 16 17 14 C17 5 22 0 32 0 L103 0 C108 0 112 3 116 8 L253 222 L393 8 C397 3 401 0 405 0 L481 0 C489 0 496 6 496 14 C496 17 495 20 492 23 L309 292 L476 524 C479 527 480 530 480 533 C480 542 475 546 464 546 L394 546 C388 546 384 544 381 540 L261 351 Z " />
<glyph glyph-name="y" unicode="y" horiz-adv-x="514" d="M118 536 C116 543 111 546 104 546 L38 546 C28 546 23 542 23 533 C23 521 25 511 30 502 L202 -13 C164 -123 146 -136 115 -136 C94 -136 85 -128 77 -128 C72 -128 67 -131 64 -136 L36 -192 C35 -195 33 -195 33 -198 C33 -214 71 -219 114 -219 C201 -219 239 -150 271 -65 L484 513 C488 522 490 528 490 533 C490 542 485 546 475 546 L417 546 C410 546 406 543 403 536 L247 111 L118 536 Z " />
<glyph glyph-name="z" unicode="z" horiz-adv-x="514" d="M60 485 C60 476 67 470 74 470 L228 470 C272 470 315 472 356 475 L35 67 L35 14 C35 6 42 0 49 0 L465 0 C474 0 479 5 479 14 L479 75 C479 83 474 87 465 87 L283 87 C246 87 201 85 149 82 L469 484 L469 532 C469 541 464 546 455 546 L74 546 C67 546 60 541 60 532 L60 485 Z " />
<glyph glyph-name="braceleft" unicode="&#x7b;" horiz-adv-x="514" d="M402 736 C411 736 416 741 416 751 L416 803 C416 810 411 817 402 817 L326 817 C262 817 194 783 194 676 L194 462 C194 386 178 344 134 344 L113 344 C103 344 98 339 98 330 L98 264 C98 255 103 250 113 250 L134 250 C174 250 194 217 194 128 L194 -62 C194 -186 265 -219 329 -219 L402 -219 C411 -219 416 -214 416 -205 L416 -152 C416 -142 411 -137 402 -137 L339 -137 C295 -137 282 -131 282 -1 L282 172 C282 228 258 264 194 295 C251 319 282 356 282 420 L282 599 C282 727 295 736 339 736 L402 736 Z " />
<glyph glyph-name="bar" unicode="&#x7c;" horiz-adv-x="514" d="M212 -175 C212 -182 218 -189 227 -189 L288 -189 C296 -189 302 -182 302 -175 L302 757 C302 766 297 771 288 771 L227 771 C217 771 212 766 212 757 L212 -175 Z " />
<glyph glyph-name="braceright" unicode="&#x7d;" horiz-adv-x="514" d="M175 736 C219 736 232 727 232 599 L232 420 C232 356 264 319 321 295 C257 264 232 228 232 172 L232 -1 C232 -131 219 -137 175 -137 L112 -137 C103 -137 98 -142 98 -152 L98 -205 C98 -214 103 -219 112 -219 L185 -219 C250 -219 321 -186 321 -62 L321 128 C321 217 340 250 380 250 L401 250 C411 250 416 255 416 264 L416 330 C416 339 411 344 401 344 L380 344 C336 344 321 386 321 462 L321 676 C321 783 252 817 188 817 L112 817 C103 817 98 810 98 803 L98 751 C98 741 103 736 112 736 L175 736 Z " />
<glyph glyph-name="asciitilde" unicode="&#x7e;" horiz-adv-x="514" d="M17 298 C17 287 22 282 31 282 C36 282 39 284 42 289 C81 336 115 357 144 357 C222 357 282 297 357 297 C417 297 456 318 496 362 L496 442 C496 452 491 457 482 457 C477 457 473 455 470 451 C427 402 394 383 363 383 C289 383 227 442 139 442 C83 442 42 410 17 377 L17 298 Z " />
<glyph glyph-name="uni00A0" unicode="&#xa0;" horiz-adv-x="514" d="" />
<glyph glyph-name="exclamdown" unicode="&#xa1;" horiz-adv-x="514" d="M315 -222 C324 -222 329 -214 329 -206 L307 295 C307 304 302 308 293 308 L220 308 C213 308 205 302 205 294 L185 -207 C185 -215 191 -222 199 -222 L315 -222 Z M256 435 C293 435 321 461 321 500 C321 539 293 567 256 567 C221 567 194 539 194 500 C194 461 221 435 256 435 L256 435 Z " />
<glyph glyph-name="cent" unicode="&#xa2;" horiz-adv-x="514" d="M241 14 C241 5 246 0 257 0 L300 0 C307 0 314 6 314 14 L314 135 C390 140 436 166 472 198 C475 201 477 205 477 208 C477 212 476 215 473 218 L448 260 C443 263 439 265 437 265 C432 265 428 264 425 261 C388 234 350 215 290 215 C182 215 144 232 144 375 C144 518 185 533 286 533 C342 533 375 530 414 511 C419 508 423 506 426 506 C431 506 435 508 437 512 L462 555 C464 558 465 561 465 564 C465 592 390 612 314 615 L314 725 C314 734 307 739 300 739 L257 739 C246 739 241 734 241 725 L241 613 C110 602 57 545 57 375 C57 197 112 143 241 135 L241 14 Z " />
<glyph glyph-name="sterling" unicode="&#xa3;" horiz-adv-x="514" d="M368 301 C375 301 382 307 382 315 L382 366 C382 375 375 381 368 381 L244 381 C246 411 247 443 247 476 C247 618 308 672 368 672 C399 672 428 670 453 653 C456 651 459 650 462 650 C467 650 472 652 475 656 L505 698 C505 702 506 705 507 706 C507 741 412 753 369 753 C228 753 154 668 154 476 C154 443 153 411 151 381 L54 381 C46 381 39 375 39 366 L39 315 C39 307 46 301 54 301 L142 301 C126 207 99 145 53 81 L35 81 C27 81 20 74 20 67 L20 14 C20 6 27 0 35 0 L479 0 C489 0 494 5 494 14 L494 67 C494 74 488 81 479 81 L150 81 C192 144 221 207 234 301 L368 301 Z " />
<glyph glyph-name="currency" unicode="&#xa4;" horiz-adv-x="514" d="M254 467 C322 467 349 428 349 372 C349 319 321 274 254 274 C187 274 160 319 160 372 C160 428 186 467 254 467 L254 467 Z M254 530 C218 530 197 522 170 513 L107 576 C102 579 99 580 96 580 C92 580 89 579 86 576 L47 537 C45 534 44 530 44 527 C44 522 45 519 47 517 L111 453 C100 426 94 401 94 370 C94 345 100 317 111 286 L47 222 C45 220 44 217 44 212 C44 207 45 204 47 202 L86 163 C88 160 91 159 96 159 C101 159 104 160 107 163 L171 226 L181 222 C201 214 225 210 254 210 C291 210 311 220 339 227 L404 163 C406 160 409 159 413 159 C418 159 421 160 424 163 L463 202 C465 204 466 207 466 212 C466 217 465 220 463 222 L398 286 C409 318 415 346 415 370 C415 396 409 423 398 452 L463 517 C465 519 466 522 466 527 C466 530 465 534 463 537 L424 576 C421 579 418 580 413 580 C410 580 407 579 404 576 L339 512 C320 524 287 530 254 530 L254 530 Z " />
<glyph glyph-name="yen" unicode="&#xa5;" horiz-adv-x="514" d="M32 284 C23 284 18 279 18 269 L18 222 C18 213 23 208 32 208 L209 208 L209 14 C209 5 214 0 224 0 L289 0 C299 0 304 5 304 14 L304 208 L481 208 C490 208 495 213 495 222 L495 269 C495 279 490 284 481 284 L304 284 L304 399 L483 708 C488 715 490 721 490 726 C490 735 485 739 475 739 L406 739 C401 739 396 736 393 731 L257 483 L121 731 C117 736 113 739 108 739 L38 739 C28 739 23 735 23 726 C23 721 25 715 29 708 L209 399 L209 284 L32 284 Z " />
<glyph glyph-name="brokenbar" unicode="&#xa6;" horiz-adv-x="514" d="M212 -175 C212 -182 218 -189 227 -189 L288 -189 C296 -189 302 -182 302 -175 L302 187 C302 196 297 201 288 201 L227 201 C217 201 212 196 212 187 L212 -175 Z M212 381 C212 374 218 367 227 367 L288 367 C296 367 302 374 302 381 L302 757 C302 766 297 771 288 771 L227 771 C217 771 212 766 212 757 L212 381 Z " />
<glyph glyph-name="section" unicode="&#xa7;" horiz-adv-x="514" d="M246 752 C152 752 107 700 107 639 C107 583 126 554 157 527 C113 502 79 455 79 404 C79 302 149 268 245 220 C294 196 317 172 317 135 C317 85 276 62 241 62 C202 62 149 72 117 80 C113 81 109 83 106 83 C97 83 92 78 92 68 L92 15 C92 -5 158 -13 229 -13 C346 -13 408 45 408 129 C408 172 394 212 361 241 C406 265 435 328 435 372 C435 454 394 481 312 525 C235 566 193 587 193 638 C193 662 219 678 240 678 C315 678 321 669 366 656 C375 656 379 661 379 671 L379 723 C379 744 298 752 246 752 L246 752 Z M229 475 C265 450 344 430 344 365 C344 322 315 294 275 293 C215 325 167 353 167 401 C167 432 194 463 229 475 L229 475 Z " />
<glyph glyph-name="dieresis" unicode="&#xa8;" horiz-adv-x="514" d="M153 750 C118 750 91 722 91 687 C91 652 118 624 153 624 C189 624 217 652 217 687 C217 722 189 750 153 750 L153 750 Z M360 750 C325 750 298 722 298 687 C298 652 325 624 360 624 C397 624 423 652 423 687 C423 722 397 750 360 750 L360 750 Z " />
<glyph glyph-name="copyright" unicode="&#xa9;" horiz-adv-x="514" d="M261 753 C94 753 13 654 13 437 C13 220 100 122 261 122 C425 122 503 220 503 437 C503 648 422 753 261 753 L261 753 Z M261 690 C364 690 439 631 439 438 C439 243 364 184 261 184 C158 184 76 241 76 438 C76 633 158 690 261 690 L261 690 Z M259 612 C167 612 141 573 141 437 C141 301 166 262 252 262 C308 262 335 275 355 304 C355 307 354 309 353 310 L338 352 C336 354 334 355 333 355 C330 355 327 354 326 353 C307 337 289 326 258 326 C221 326 204 338 204 437 C204 539 222 549 257 549 C290 549 298 546 322 536 C324 534 326 533 327 533 C331 533 333 534 333 536 L346 574 C346 577 347 579 348 580 C348 597 312 612 259 612 L259 612 Z " />
<glyph glyph-name="ordfeminine" unicode="&#xaa;" horiz-adv-x="514" d="M269 743 C197 743 118 720 118 702 C118 698 118 696 119 695 L135 643 C136 640 139 638 144 638 C183 655 221 667 258 667 C291 667 317 651 317 606 L317 587 C199 574 94 543 94 435 C94 372 140 320 224 320 C277 320 324 334 348 373 C355 352 368 327 391 327 L417 327 C425 327 429 331 429 338 C408 371 403 421 403 465 L403 618 C403 690 353 743 269 743 L269 743 Z M317 445 C310 416 278 396 241 396 C208 396 175 405 175 445 C175 494 250 505 317 510 L317 445 Z " />
<glyph glyph-name="guillemotleft" unicode="&#xab;" horiz-adv-x="514" d="M412 504 C405 504 401 502 398 497 L263 317 C260 312 258 307 258 302 C258 299 260 294 263 289 L397 111 C400 106 405 103 410 103 C413 103 418 105 423 109 L447 133 C452 138 454 142 454 147 C454 152 453 156 450 159 L338 303 L450 450 C453 455 455 460 455 463 C455 467 453 471 449 475 L425 499 C422 502 417 504 412 504 L412 504 Z M213 504 C206 504 202 502 199 497 L64 317 C61 312 59 307 59 302 C59 299 61 294 64 289 L198 111 C201 106 206 103 211 103 C214 103 219 105 224 109 L248 133 C253 138 255 142 255 147 C255 152 254 156 251 159 L139 303 L251 450 C254 455 256 460 256 463 C256 467 254 471 250 475 L226 499 C223 502 218 504 213 504 L213 504 Z " />
<glyph glyph-name="logicalnot" unicode="&#xac;" horiz-adv-x="514" d="M392 143 C392 136 398 129 407 129 L468 129 C476 129 482 136 482 143 L482 396 C482 406 477 411 468 411 L27 411 C17 411 12 406 12 396 L12 340 C12 331 17 326 27 326 L392 326 L392 143 Z " />
<glyph glyph-name="uni00AD" unicode="&#xad;" horiz-adv-x="533" d="M384 251 C392 251 399 256 399 265 L399 319 C399 327 392 333 384 333 L148 333 C138 333 133 328 133 319 L133 265 C133 256 138 251 148 251 L384 251 Z " />
<glyph glyph-name="registered" unicode="&#xae;" horiz-adv-x="514" d="M166 603 C155 603 149 597 149 586 L149 289 C149 278 155 272 167 272 L200 272 C212 272 218 278 218 289 L218 409 L250 409 L305 286 C310 276 317 271 326 271 L364 272 C373 272 378 275 378 282 C378 284 377 288 375 293 L310 435 C333 443 365 461 365 520 C365 567 347 603 261 603 L166 603 Z M218 554 L254 554 C274 554 290 546 290 505 C290 469 272 461 248 461 L218 461 L218 554 Z M261 753 C94 753 13 654 13 437 C13 220 100 122 261 122 C425 122 503 220 503 437 C503 648 422 753 261 753 L261 753 Z M261 690 C364 690 439 631 439 438 C439 243 364 184 261 184 C158 184 76 241 76 438 C76 633 158 690 261 690 L261 690 Z " />
<glyph glyph-name="macron" unicode="&#xaf;" horiz-adv-x="514" d="M92 725 C83 725 77 718 77 710 L77 654 C77 644 82 639 92 639 L422 639 C432 639 437 644 437 654 L437 710 C437 718 431 725 422 725 L92 725 Z " />
<glyph glyph-name="degree" unicode="&#xb0;" horiz-adv-x="514" d="M256 689 C324 689 351 650 351 594 C351 541 323 496 256 496 C189 496 162 541 162 594 C162 650 188 689 256 689 L256 689 Z M256 752 C142 752 96 681 96 592 C96 504 142 432 256 432 C371 432 417 504 417 592 C417 681 371 752 256 752 L256 752 Z " />
<glyph glyph-name="plusminus" unicode="&#xb1;" horiz-adv-x="514" d="M467 326 C476 326 481 331 481 340 L481 396 C481 406 476 411 467 411 L307 411 L307 588 C307 597 300 602 292 602 L227 602 C217 602 212 597 212 588 L212 411 L46 411 C36 411 31 406 31 396 L31 340 C31 331 36 326 46 326 L212 326 L212 146 C212 139 218 132 227 132 L292 132 C300 132 307 139 307 146 L307 326 L467 326 Z M477 0 C486 0 491 5 491 14 L491 70 C491 80 486 85 477 85 L38 85 C28 85 23 80 23 70 L23 14 C23 5 28 0 38 0 L477 0 Z " />
<glyph glyph-name="twosuperior" unicode="&#xb2;" horiz-adv-x="514" d="M241 753 C177 753 135 729 135 717 C135 714 136 711 137 710 L149 660 C151 657 154 655 157 655 C160 655 161 655 162 656 C193 672 216 677 244 677 C279 677 292 665 292 622 C292 494 125 477 125 311 L125 287 C125 281 128 278 135 278 L380 278 C385 278 388 281 388 287 L388 345 C388 351 385 354 380 354 L216 354 C228 438 381 479 381 622 C381 698 361 753 241 753 L241 753 Z " />
<glyph glyph-name="threesuperior" unicode="&#xb3;" horiz-adv-x="514" d="M230 753 C192 753 140 749 140 725 C140 722 141 713 142 706 L148 673 C148 668 151 666 157 666 C168 666 172 678 226 678 C273 678 285 665 285 620 C285 576 273 557 252 557 L204 557 C198 557 195 554 195 549 L195 490 C195 484 198 481 204 481 L262 481 C287 481 302 465 302 416 C302 367 291 346 256 346 C205 346 181 352 160 368 C158 370 156 371 154 371 C151 371 149 370 147 367 L124 314 C123 313 123 311 123 308 C123 304 124 302 129 299 C165 278 194 270 257 270 C364 270 391 334 391 417 C391 474 370 513 329 526 C359 541 374 575 374 628 C374 696 352 753 230 753 L230 753 Z " />
<glyph glyph-name="acute" unicode="&#xb4;" horiz-adv-x="514" d="M313 758 C310 762 306 764 301 764 C298 764 295 763 292 761 L161 651 C158 648 156 644 156 641 C156 636 157 633 160 630 L186 601 C189 598 192 597 197 597 C199 597 202 598 206 600 L351 685 C356 688 358 692 358 698 C358 701 357 704 355 707 L313 758 Z " />
<glyph glyph-name="mu" unicode="&#xb5;" horiz-adv-x="514" d="M128 -219 C137 -219 143 -212 143 -205 L143 6 C164 -5 193 -10 230 -10 C286 -10 344 7 371 55 C371 38 377 0 394 0 L434 0 C445 0 450 5 450 14 L450 533 C450 542 445 547 434 547 L374 547 C366 547 359 542 359 533 L359 153 C351 93 284 65 225 65 C181 65 143 81 143 113 L143 533 C143 542 138 547 128 547 L68 547 C58 547 53 542 53 533 L53 -205 C53 -212 59 -219 68 -219 L128 -219 Z " />
<glyph glyph-name="paragraph" unicode="&#xb6;" horiz-adv-x="514" d="M489 718 C489 721 490 724 491 725 C491 732 484 739 476 739 L177 739 C69 739 22 687 22 626 C22 578 56 532 132 517 L132 -182 C132 -190 139 -196 146 -196 L214 -196 C223 -196 228 -191 228 -182 L228 516 L361 516 L361 -182 C361 -191 366 -196 376 -196 L440 -196 C450 -196 455 -191 455 -182 L455 650 L489 718 Z " />
<glyph glyph-name="periodcentered" unicode="&#xb7;" horiz-adv-x="514" d="M257 348 C220 348 193 320 193 281 C193 245 220 215 257 215 C293 215 320 245 320 281 C320 320 293 348 257 348 L257 348 Z " />
<glyph glyph-name="cedilla" unicode="&#xb8;" horiz-adv-x="514" d="M238 -46 C229 -46 224 -50 223 -58 C217 -105 204 -142 193 -163 C185 -176 185 -179 185 -183 C185 -187 186 -191 190 -194 L218 -216 C220 -218 223 -219 227 -219 C230 -219 234 -217 237 -214 C276 -179 316 -108 316 -59 C316 -52 309 -46 302 -46 L238 -46 Z " />
<glyph glyph-name="onesuperior" unicode="&#xb9;" horiz-adv-x="514" d="M360 278 C366 278 369 281 369 287 L369 345 C369 351 366 354 360 354 L314 354 L314 744 C314 750 311 753 305 753 L261 753 L150 697 C146 696 144 693 144 689 C144 686 144 685 145 685 L160 629 C162 626 165 624 169 624 C171 624 172 624 173 625 L223 645 L223 354 L167 354 C162 354 159 351 159 345 L159 287 C159 281 162 278 167 278 L360 278 Z " />
<glyph glyph-name="ordmasculine" unicode="&#xba;" horiz-adv-x="514" d="M256 742 C136 742 80 687 80 531 C80 375 136 321 256 321 C379 321 434 375 434 531 C434 687 379 742 256 742 L256 742 Z M256 666 C315 666 348 648 348 531 C348 414 315 397 256 397 C197 397 165 414 165 531 C165 650 197 666 256 666 L256 666 Z " />
<glyph glyph-name="guillemotright" unicode="&#xbb;" horiz-adv-x="514" d="M301 504 C296 504 291 502 288 499 L264 475 C260 471 258 467 258 463 C258 460 260 455 263 450 L375 303 L263 159 C260 156 259 152 259 147 C259 142 261 138 266 133 L290 109 C295 105 299 103 303 103 C308 103 313 106 316 111 L450 289 C453 294 455 299 455 302 C455 307 453 312 450 317 L315 497 C312 502 308 504 301 504 L301 504 Z M102 504 C97 504 92 502 89 499 L65 475 C61 471 59 467 59 463 C59 460 61 455 64 450 L176 303 L64 159 C61 156 60 152 60 147 C60 142 62 138 67 133 L91 109 C96 105 100 103 104 103 C109 103 114 106 117 111 L251 289 C254 294 256 299 256 302 C256 307 254 312 251 317 L116 497 C113 502 109 504 102 504 L102 504 Z " />
<glyph glyph-name="onequarter" unicode="&#xbc;" horiz-adv-x="514" d="M498 470 C498 482 494 488 487 488 C483 488 478 486 471 481 L25 180 C15 174 10 166 10 156 L10 119 C10 107 14 101 21 101 C24 101 30 103 37 107 L484 410 C493 416 498 424 498 434 L498 470 Z M234 380 C245 380 251 386 251 397 L251 422 C251 433 245 439 234 439 L188 439 L188 736 C188 747 182 753 171 753 L146 753 L65 712 C60 709 57 704 57 699 C57 694 57 692 58 691 L65 664 C67 657 71 654 76 654 C79 654 83 655 87 657 L116 668 L116 439 L62 439 C51 439 46 433 46 422 L46 397 C46 386 51 380 62 380 L234 380 Z M241 -51 C241 -62 247 -68 258 -68 L391 -68 L391 -117 C391 -128 396 -134 407 -134 L446 -134 C457 -134 463 -128 463 -117 L463 -68 C475 -68 481 -62 481 -51 L481 -26 C481 -15 475 -9 463 -9 L463 215 C463 226 457 232 446 232 L336 232 C323 232 315 227 311 216 L241 -22 L241 -51 Z M317 -9 L364 172 L391 172 L391 -9 L317 -9 Z " />
<glyph glyph-name="onehalf" unicode="&#xbd;" horiz-adv-x="514" d="M339 239 C275 239 257 221 257 205 C260 202 258 199 259 196 L264 173 C266 166 269 163 274 163 C282 163 305 179 341 179 C365 179 403 165 403 136 C403 35 247 23 247 -109 L247 -117 C247 -128 253 -134 265 -134 L465 -134 C476 -134 481 -128 481 -117 L481 -92 C481 -81 476 -75 465 -75 L319 -75 C327 -9 469 24 469 136 C469 196 432 239 339 239 L339 239 Z M234 380 C245 380 251 386 251 397 L251 422 C251 433 245 439 234 439 L188 439 L188 736 C188 747 182 753 171 753 L146 753 L65 712 C60 709 57 704 57 699 C57 694 57 692 58 691 L65 664 C67 657 71 654 76 654 C79 654 83 655 87 657 L116 668 L116 439 L62 439 C51 439 46 433 46 422 L46 397 C46 386 51 380 62 380 L234 380 Z M498 470 C498 482 494 488 487 488 C483 488 478 486 471 481 L25 180 C15 174 10 166 10 156 L10 119 C10 107 14 101 21 101 C24 101 30 103 37 107 L484 410 C493 416 498 424 498 434 L498 470 Z " />
<glyph glyph-name="threequarters" unicode="&#xbe;" horiz-adv-x="514" d="M241 -51 C241 -62 247 -68 258 -68 L391 -68 L391 -117 C391 -128 396 -134 407 -134 L446 -134 C457 -134 463 -128 463 -117 L463 -68 C475 -68 481 -62 481 -51 L481 -26 C481 -15 475 -9 463 -9 L463 215 C463 226 457 232 446 232 L336 232 C323 232 315 227 311 216 L241 -22 L241 -51 Z M317 -9 L364 172 L391 172 L391 -9 L317 -9 Z M127 753 C93 753 56 751 56 727 C56 719 58 688 75 688 C86 688 92 694 123 694 C160 694 170 684 170 648 C170 613 161 599 144 599 L116 599 C105 599 99 594 99 583 L99 556 C99 545 105 539 116 539 L152 539 C172 539 183 527 183 488 C183 449 175 433 147 433 C84 433 82 451 67 451 C62 451 59 447 57 440 L46 415 C45 412 44 410 44 407 C44 375 111 373 148 373 C232 373 253 423 253 489 C253 536 237 564 204 575 C228 586 240 612 240 655 C240 707 222 753 127 753 L127 753 Z M498 470 C498 482 494 488 487 488 C483 488 478 486 471 481 L25 180 C15 174 10 166 10 156 L10 119 C10 107 14 101 21 101 C24 101 30 103 37 107 L484 410 C493 416 498 424 498 434 L498 470 Z " />
<glyph glyph-name="questiondown" unicode="&#xbf;" horiz-adv-x="514" d="M248 -116 C156 -116 116 -97 116 -46 C116 70 319 84 319 246 C319 265 315 314 295 314 L236 314 C227 314 219 308 219 300 C219 287 225 275 225 260 C225 117 19 125 19 -55 C19 -151 87 -197 240 -197 C311 -197 426 -180 426 -152 C426 -149 424 -144 423 -141 L408 -104 C405 -95 399 -90 391 -90 C388 -90 384 -91 380 -93 C349 -108 295 -116 248 -116 L248 -116 Z M261 436 C297 436 325 462 325 501 C325 540 297 568 261 568 C226 568 198 540 198 501 C198 462 226 436 261 436 L261 436 Z " />
<glyph glyph-name="Agrave" unicode="&#xc0;" horiz-adv-x="514" d="M162 739 C155 739 151 736 148 729 L18 19 C17 18 17 16 17 13 C17 4 22 0 31 0 L100 0 C105 0 111 5 114 10 L144 200 L376 200 L407 10 C410 5 416 0 421 0 L491 0 C500 0 505 4 505 13 C505 16 504 16 504 19 L373 729 C370 736 366 739 359 739 L162 739 Z M221 661 L300 661 L362 281 L159 281 L221 661 Z M130 899 C127 896 126 893 126 890 C126 885 129 880 134 877 L282 791 C283 790 288 789 290 789 C295 789 299 790 302 793 L326 822 C328 824 329 827 329 832 C329 835 327 839 324 844 L193 954 C191 956 188 957 185 957 C180 957 176 955 173 951 L130 899 Z " />
<glyph glyph-name="Aacute" unicode="&#xc1;" horiz-adv-x="514" d="M162 739 C155 739 151 736 148 729 L18 19 C17 18 17 16 17 13 C17 4 22 0 31 0 L100 0 C105 0 111 5 114 10 L144 200 L376 200 L407 10 C410 5 416 0 421 0 L491 0 C500 0 505 4 505 13 C505 16 504 16 504 19 L373 729 C370 736 366 739 359 739 L162 739 Z M221 661 L300 661 L362 281 L159 281 L221 661 Z M343 951 C340 955 336 957 331 957 C328 957 325 956 322 954 L191 844 C188 841 186 837 186 834 C186 829 187 826 190 823 L216 794 C219 791 222 790 227 790 C229 790 232 791 236 793 L381 878 C386 881 388 885 388 891 C388 894 387 897 385 900 L343 951 Z " />
<glyph glyph-name="Acircumflex" unicode="&#xc2;" horiz-adv-x="514" d="M162 739 C155 739 151 736 148 729 L18 19 C17 18 17 16 17 13 C17 4 22 0 31 0 L100 0 C105 0 111 5 114 10 L144 200 L376 200 L407 10 C410 5 416 0 421 0 L491 0 C500 0 505 4 505 13 C505 16 504 16 504 19 L373 729 C370 736 366 739 359 739 L162 739 Z M221 661 L300 661 L362 281 L159 281 L221 661 Z M337 791 C339 789 342 788 346 788 C349 788 355 789 356 790 L396 822 C399 825 401 829 401 833 C401 838 400 841 397 844 L289 952 C286 955 282 957 279 957 L234 957 C231 957 228 955 225 952 L117 844 C114 839 112 835 112 833 C112 830 114 826 118 822 L158 790 C159 789 165 788 167 788 C172 788 175 789 177 791 L257 878 L337 791 Z " />
<glyph glyph-name="Atilde" unicode="&#xc3;" horiz-adv-x="514" d="M162 739 C155 739 151 736 148 729 L18 19 C17 18 17 16 17 13 C17 4 22 0 31 0 L100 0 C105 0 111 5 114 10 L144 200 L376 200 L407 10 C410 5 416 0 421 0 L491 0 C500 0 505 4 505 13 C505 16 504 16 504 19 L373 729 C370 736 366 739 359 739 L162 739 Z M221 661 L300 661 L362 281 L159 281 L221 661 Z M332 820 C372 820 416 860 416 904 C416 910 414 914 409 917 L371 938 C368 939 365 941 362 941 C343 941 352 893 321 893 C283 893 240 941 182 941 C142 941 98 901 98 857 C98 850 100 846 105 844 L143 822 C146 821 153 821 153 820 C170 820 162 867 194 867 C232 864 271 820 332 820 L332 820 Z " />
<glyph glyph-name="Adieresis" unicode="&#xc4;" horiz-adv-x="514" d="M162 739 C155 739 151 736 148 729 L18 19 C17 18 17 16 17 13 C17 4 22 0 31 0 L100 0 C105 0 111 5 114 10 L144 200 L376 200 L407 10 C410 5 416 0 421 0 L491 0 C500 0 505 4 505 13 C505 16 504 16 504 19 L373 729 C370 736 366 739 359 739 L162 739 Z M221 661 L300 661 L362 281 L159 281 L221 661 Z M153 943 C118 943 91 915 91 880 C91 845 118 817 153 817 C189 817 217 845 217 880 C217 915 189 943 153 943 L153 943 Z M360 943 C325 943 298 915 298 880 C298 845 325 817 360 817 C397 817 423 845 423 880 C423 915 397 943 360 943 L360 943 Z " />
<glyph glyph-name="Aring" unicode="&#xc5;" horiz-adv-x="514" d="M372 843 C372 916 337 957 256 957 C176 957 142 916 142 843 C142 791 157 756 193 739 L162 739 C155 739 151 736 148 729 L18 19 C17 18 17 16 17 13 C17 4 22 0 31 0 L100 0 C105 0 111 5 114 10 L144 200 L376 200 L407 10 C410 5 416 0 421 0 L491 0 C500 0 505 4 505 13 C505 16 504 16 504 19 L373 729 C370 736 366 739 359 739 L321 739 C356 755 372 789 372 843 L372 843 Z M221 661 L300 661 L362 281 L159 281 L221 661 Z M193 843 C193 895 204 918 255 918 C307 918 323 895 323 843 C323 792 307 769 255 769 C204 769 193 792 193 843 L193 843 Z " />
<glyph glyph-name="AE" unicode="&#xc6;" horiz-adv-x="514" d="M148 739 C141 739 137 736 134 729 L4 19 C3 18 3 16 3 13 C3 4 8 0 17 0 L86 0 C91 0 97 5 100 10 L130 200 L238 200 L238 14 C238 5 243 0 252 0 L500 0 C510 0 515 5 515 14 L515 67 C515 74 509 81 500 81 L334 81 L334 352 L467 352 C476 352 482 359 482 366 L482 418 C482 428 477 433 467 433 L334 433 L334 658 L495 658 C504 658 510 665 510 673 L510 725 C510 732 504 739 495 739 L148 739 Z M205 658 L238 658 L238 281 L145 281 L205 658 Z " />
<glyph glyph-name="Ccedilla" unicode="&#xc7;" horiz-adv-x="514" d="M282 68 C151 68 129 93 129 371 C129 647 144 672 275 672 C363 672 417 655 425 655 C428 655 433 656 434 660 L453 716 C454 719 455 721 455 724 C455 742 321 753 275 753 C86 753 37 660 37 371 C37 80 94 -13 282 -13 C406 -13 467 19 467 37 C467 39 467 42 465 45 L436 96 C434 100 431 103 428 103 C423 103 419 99 412 95 C392 84 348 68 282 68 L282 68 Z M244 -46 C235 -46 230 -50 229 -58 C223 -105 210 -142 199 -163 C191 -176 191 -179 191 -183 C191 -187 192 -191 196 -194 L224 -216 C226 -218 229 -219 233 -219 C236 -219 240 -217 243 -214 C282 -179 322 -108 322 -59 C322 -52 315 -46 308 -46 L244 -46 Z " />
<glyph glyph-name="Egrave" unicode="&#xc8;" horiz-adv-x="514" d="M66 739 C57 739 52 732 52 725 L52 14 C52 5 57 0 66 0 L461 0 C469 0 476 6 476 14 L476 67 C476 74 469 81 461 81 L148 81 L148 352 L427 352 C436 352 442 359 442 366 L442 418 C442 428 437 433 427 433 L148 433 L148 658 L455 658 C464 658 470 665 470 673 L470 725 C470 732 464 739 455 739 L66 739 Z M148 899 C145 896 144 893 144 890 C144 885 147 880 152 877 L300 791 C301 790 306 789 308 789 C313 789 317 790 320 793 L344 822 C346 824 347 827 347 832 C347 835 345 839 342 844 L211 954 C209 956 206 957 203 957 C198 957 194 955 191 951 L148 899 Z " />
<glyph glyph-name="Eacute" unicode="&#xc9;" horiz-adv-x="514" d="M66 739 C57 739 52 732 52 725 L52 14 C52 5 57 0 66 0 L461 0 C469 0 476 6 476 14 L476 67 C476 74 469 81 461 81 L148 81 L148 352 L427 352 C436 352 442 359 442 366 L442 418 C442 428 437 433 427 433 L148 433 L148 658 L455 658 C464 658 470 665 470 673 L470 725 C470 732 464 739 455 739 L66 739 Z M343 951 C340 955 336 957 331 957 C328 957 325 956 322 954 L191 844 C188 841 186 837 186 834 C186 829 187 826 190 823 L216 794 C219 791 222 790 227 790 C229 790 232 791 236 793 L381 878 C386 881 388 885 388 891 C388 894 387 897 385 900 L343 951 Z " />
<glyph glyph-name="Ecircumflex" unicode="&#xca;" horiz-adv-x="514" d="M66 739 C57 739 52 732 52 725 L52 14 C52 5 57 0 66 0 L461 0 C469 0 476 6 476 14 L476 67 C476 74 469 81 461 81 L148 81 L148 352 L427 352 C436 352 442 359 442 366 L442 418 C442 428 437 433 427 433 L148 433 L148 658 L455 658 C464 658 470 665 470 673 L470 725 C470 732 464 739 455 739 L66 739 Z M347 791 C349 789 352 788 356 788 C359 788 365 789 366 790 L406 822 C409 825 411 829 411 833 C411 838 410 841 407 844 L299 952 C296 955 292 957 289 957 L244 957 C241 957 238 955 235 952 L127 844 C124 839 122 835 122 833 C122 830 124 826 128 822 L168 790 C169 789 175 788 177 788 C182 788 185 789 187 791 L267 878 L347 791 Z " />
<glyph glyph-name="Edieresis" unicode="&#xcb;" horiz-adv-x="514" d="M66 739 C57 739 52 732 52 725 L52 14 C52 5 57 0 66 0 L461 0 C469 0 476 6 476 14 L476 67 C476 74 469 81 461 81 L148 81 L148 352 L427 352 C436 352 442 359 442 366 L442 418 C442 428 437 433 427 433 L148 433 L148 658 L455 658 C464 658 470 665 470 673 L470 725 C470 732 464 739 455 739 L66 739 Z M163 943 C128 943 101 915 101 880 C101 845 128 817 163 817 C199 817 227 845 227 880 C227 915 199 943 163 943 L163 943 Z M370 943 C335 943 308 915 308 880 C308 845 335 817 370 817 C407 817 433 845 433 880 C433 915 407 943 370 943 L370 943 Z " />
<glyph glyph-name="Igrave" unicode="&#xcc;" horiz-adv-x="514" d="M429 0 C438 0 443 5 443 14 L443 66 C443 76 438 81 429 81 L305 81 L305 658 L424 658 C433 658 438 663 438 673 L438 725 C438 734 433 739 424 739 L85 739 C76 739 71 734 71 725 L71 673 C71 663 76 658 85 658 L209 658 L209 81 L90 81 C81 81 76 76 76 66 L76 14 C76 5 81 0 90 0 L429 0 Z M130 899 C127 896 126 893 126 890 C126 885 129 880 134 877 L282 791 C283 790 288 789 290 789 C295 789 299 790 302 793 L326 822 C328 824 329 827 329 832 C329 835 327 839 324 844 L193 954 C191 956 188 957 185 957 C180 957 176 955 173 951 L130 899 Z " />
<glyph glyph-name="Iacute" unicode="&#xcd;" horiz-adv-x="514" d="M429 0 C438 0 443 5 443 14 L443 66 C443 76 438 81 429 81 L305 81 L305 658 L424 658 C433 658 438 663 438 673 L438 725 C438 734 433 739 424 739 L85 739 C76 739 71 734 71 725 L71 673 C71 663 76 658 85 658 L209 658 L209 81 L90 81 C81 81 76 76 76 66 L76 14 C76 5 81 0 90 0 L429 0 Z M343 951 C340 955 336 957 331 957 C328 957 325 956 322 954 L191 844 C188 841 186 837 186 834 C186 829 187 826 190 823 L216 794 C219 791 222 790 227 790 C229 790 232 791 236 793 L381 878 C386 881 388 885 388 891 C388 894 387 897 385 900 L343 951 Z " />
<glyph glyph-name="Icircumflex" unicode="&#xce;" horiz-adv-x="514" d="M429 0 C438 0 443 5 443 14 L443 66 C443 76 438 81 429 81 L305 81 L305 658 L424 658 C433 658 438 663 438 673 L438 725 C438 734 433 739 424 739 L85 739 C76 739 71 734 71 725 L71 673 C71 663 76 658 85 658 L209 658 L209 81 L90 81 C81 81 76 76 76 66 L76 14 C76 5 81 0 90 0 L429 0 Z M337 791 C339 789 342 788 346 788 C349 788 355 789 356 790 L396 822 C399 825 401 829 401 833 C401 838 400 841 397 844 L289 952 C286 955 282 957 279 957 L234 957 C231 957 228 955 225 952 L117 844 C114 839 112 835 112 833 C112 830 114 826 118 822 L158 790 C159 789 165 788 167 788 C172 788 175 789 177 791 L257 878 L337 791 Z " />
<glyph glyph-name="Idieresis" unicode="&#xcf;" horiz-adv-x="514" d="M429 0 C438 0 443 5 443 14 L443 66 C443 76 438 81 429 81 L305 81 L305 658 L424 658 C433 658 438 663 438 673 L438 725 C438 734 433 739 424 739 L85 739 C76 739 71 734 71 725 L71 673 C71 663 76 658 85 658 L209 658 L209 81 L90 81 C81 81 76 76 76 66 L76 14 C76 5 81 0 90 0 L429 0 Z M153 943 C118 943 91 915 91 880 C91 845 118 817 153 817 C189 817 217 845 217 880 C217 915 189 943 153 943 L153 943 Z M360 943 C325 943 298 915 298 880 C298 845 325 817 360 817 C397 817 423 845 423 880 C423 915 397 943 360 943 L360 943 Z " />
<glyph glyph-name="Eth" unicode="&#xd0;" horiz-adv-x="514" d="M46 343 L46 14 C46 5 50 0 59 0 L234 0 C419 0 488 79 488 369 C488 660 419 739 234 739 L59 739 C51 739 46 732 46 725 L46 425 L31 425 C21 425 16 420 16 411 L16 357 C16 348 21 343 31 343 L46 343 Z M142 343 L267 343 C275 343 282 348 282 357 L282 411 C282 419 275 425 267 425 L142 425 L142 658 L230 658 C345 658 396 633 396 369 C396 110 342 81 230 81 L142 81 L142 343 Z " />
<glyph glyph-name="Ntilde" unicode="&#xd1;" horiz-adv-x="514" d="M46 14 C46 5 51 0 60 0 L122 0 C131 0 136 5 136 14 L136 661 L160 661 L276 8 C278 3 282 0 289 0 L449 0 C459 0 464 5 464 14 L464 725 C464 734 459 739 449 739 L390 739 C380 739 375 734 375 725 L375 76 L351 76 L237 731 C236 736 232 739 225 739 L60 739 C51 739 46 734 46 725 L46 14 Z M332 820 C372 820 416 860 416 904 C416 910 414 914 409 917 L371 938 C368 939 365 941 362 941 C343 941 352 893 321 893 C283 893 240 941 182 941 C142 941 98 901 98 857 C98 850 100 846 105 844 L143 822 C146 821 153 821 153 820 C170 820 162 867 194 867 C232 864 271 820 332 820 L332 820 Z " />
<glyph glyph-name="Ograve" unicode="&#xd2;" horiz-adv-x="514" d="M257 753 C82 753 26 660 26 369 C26 79 82 -13 257 -13 C433 -13 489 79 489 369 C489 660 433 753 257 753 L257 753 Z M257 672 C369 672 396 646 396 369 C396 92 369 68 257 68 C145 68 118 92 118 369 C118 646 145 672 257 672 L257 672 Z M130 899 C127 896 126 893 126 890 C126 885 129 880 134 877 L282 791 C283 790 288 789 290 789 C295 789 299 790 302 793 L326 822 C328 824 329 827 329 832 C329 835 327 839 324 844 L193 954 C191 956 188 957 185 957 C180 957 176 955 173 951 L130 899 Z " />
<glyph glyph-name="Oacute" unicode="&#xd3;" horiz-adv-x="514" d="M257 753 C82 753 26 660 26 369 C26 79 82 -13 257 -13 C433 -13 489 79 489 369 C489 660 433 753 257 753 L257 753 Z M257 672 C369 672 396 646 396 369 C396 92 369 68 257 68 C145 68 118 92 118 369 C118 646 145 672 257 672 L257 672 Z M343 951 C340 955 336 957 331 957 C328 957 325 956 322 954 L191 844 C188 841 186 837 186 834 C186 829 187 826 190 823 L216 794 C219 791 222 790 227 790 C229 790 232 791 236 793 L381 878 C386 881 388 885 388 891 C388 894 387 897 385 900 L343 951 Z " />
<glyph glyph-name="Ocircumflex" unicode="&#xd4;" horiz-adv-x="514" d="M257 753 C82 753 26 660 26 369 C26 79 82 -13 257 -13 C433 -13 489 79 489 369 C489 660 433 753 257 753 L257 753 Z M257 672 C369 672 396 646 396 369 C396 92 369 68 257 68 C145 68 118 92 118 369 C118 646 145 672 257 672 L257 672 Z M337 791 C339 789 342 788 346 788 C349 788 355 789 356 790 L396 822 C399 825 401 829 401 833 C401 838 400 841 397 844 L289 952 C286 955 282 957 279 957 L234 957 C231 957 228 955 225 952 L117 844 C114 839 112 835 112 833 C112 830 114 826 118 822 L158 790 C159 789 165 788 167 788 C172 788 175 789 177 791 L257 878 L337 791 Z " />
<glyph glyph-name="Otilde" unicode="&#xd5;" horiz-adv-x="514" d="M257 753 C82 753 26 660 26 369 C26 79 82 -13 257 -13 C433 -13 489 79 489 369 C489 660 433 753 257 753 L257 753 Z M257 672 C369 672 396 646 396 369 C396 92 369 68 257 68 C145 68 118 92 118 369 C118 646 145 672 257 672 L257 672 Z M332 820 C372 820 416 860 416 904 C416 910 414 914 409 917 L371 938 C368 939 365 941 362 941 C343 941 352 893 321 893 C283 893 240 941 182 941 C142 941 98 901 98 857 C98 850 100 846 105 844 L143 822 C146 821 153 821 153 820 C170 820 162 867 194 867 C232 864 271 820 332 820 L332 820 Z " />
<glyph glyph-name="Odieresis" unicode="&#xd6;" horiz-adv-x="514" d="M257 753 C82 753 26 660 26 369 C26 79 82 -13 257 -13 C433 -13 489 79 489 369 C489 660 433 753 257 753 L257 753 Z M257 672 C369 672 396 646 396 369 C396 92 369 68 257 68 C145 68 118 92 118 369 C118 646 145 672 257 672 L257 672 Z M153 943 C118 943 91 915 91 880 C91 845 118 817 153 817 C189 817 217 845 217 880 C217 915 189 943 153 943 L153 943 Z M360 943 C325 943 298 915 298 880 C298 845 325 817 360 817 C397 817 423 845 423 880 C423 915 397 943 360 943 L360 943 Z " />
<glyph glyph-name="multiply" unicode="&#xd7;" horiz-adv-x="514" d="M376 193 C378 190 381 189 385 189 C390 189 393 190 396 193 L435 232 C437 234 438 237 438 242 C438 247 437 250 435 252 L316 369 L435 487 C437 489 438 492 438 497 C438 500 437 504 435 507 L396 546 C393 549 390 550 385 550 C382 550 379 549 376 546 L257 429 L139 546 C134 549 131 550 128 550 C124 550 121 549 118 546 L79 507 C77 504 76 500 76 497 C76 492 77 489 79 487 L198 369 L79 252 C77 250 76 247 76 242 C76 237 77 234 79 232 L118 193 C120 190 123 189 128 189 C133 189 136 190 139 193 L257 310 L376 193 Z " />
<glyph glyph-name="Oslash" unicode="&#xd8;" horiz-adv-x="514" d="M257 753 C82 753 26 660 26 369 C26 256 34 175 55 115 L8 33 C5 30 4 27 4 23 C4 18 6 15 10 12 L51 -12 C56 -15 61 -17 64 -17 C68 -17 72 -14 76 -7 L101 37 C137 1 188 -13 257 -13 C433 -13 489 79 489 369 C489 498 479 584 452 645 L494 718 C495 725 499 728 499 733 C499 738 495 743 486 748 L450 768 C445 771 440 773 437 773 C431 773 427 770 424 764 L397 716 C362 743 317 753 257 753 L257 753 Z M257 68 C197 68 163 74 142 121 L388 546 C395 503 396 446 396 369 C396 92 369 68 257 68 L257 68 Z M257 672 C306 672 337 666 360 638 L122 222 C119 261 118 308 118 369 C118 646 145 672 257 672 L257 672 Z " />
<glyph glyph-name="Ugrave" unicode="&#xd9;" horiz-adv-x="514" d="M61 739 C52 739 47 732 47 725 L47 208 C47 89 67 -13 258 -13 C449 -13 467 89 467 208 L467 725 C467 732 462 739 453 739 L387 739 C378 739 372 732 372 725 L372 226 C372 93 357 68 258 68 C159 68 143 93 143 226 L143 725 C143 732 136 739 129 739 L61 739 Z M130 899 C127 896 126 893 126 890 C126 885 129 880 134 877 L282 791 C283 790 288 789 290 789 C295 789 299 790 302 793 L326 822 C328 824 329 827 329 832 C329 835 327 839 324 844 L193 954 C191 956 188 957 185 957 C180 957 176 955 173 951 L130 899 Z " />
<glyph glyph-name="Uacute" unicode="&#xda;" horiz-adv-x="514" d="M61 739 C52 739 47 732 47 725 L47 208 C47 89 67 -13 258 -13 C449 -13 467 89 467 208 L467 725 C467 732 462 739 453 739 L387 739 C378 739 372 732 372 725 L372 226 C372 93 357 68 258 68 C159 68 143 93 143 226 L143 725 C143 732 136 739 129 739 L61 739 Z M343 951 C340 955 336 957 331 957 C328 957 325 956 322 954 L191 844 C188 841 186 837 186 834 C186 829 187 826 190 823 L216 794 C219 791 222 790 227 790 C229 790 232 791 236 793 L381 878 C386 881 388 885 388 891 C388 894 387 897 385 900 L343 951 Z " />
<glyph glyph-name="Ucircumflex" unicode="&#xdb;" horiz-adv-x="514" d="M61 739 C52 739 47 732 47 725 L47 208 C47 89 67 -13 258 -13 C449 -13 467 89 467 208 L467 725 C467 732 462 739 453 739 L387 739 C378 739 372 732 372 725 L372 226 C372 93 357 68 258 68 C159 68 143 93 143 226 L143 725 C143 732 136 739 129 739 L61 739 Z M337 791 C339 789 342 788 346 788 C349 788 355 789 356 790 L396 822 C399 825 401 829 401 833 C401 838 400 841 397 844 L289 952 C286 955 282 957 279 957 L234 957 C231 957 228 955 225 952 L117 844 C114 839 112 835 112 833 C112 830 114 826 118 822 L158 790 C159 789 165 788 167 788 C172 788 175 789 177 791 L257 878 L337 791 Z " />
<glyph glyph-name="Udieresis" unicode="&#xdc;" horiz-adv-x="514" d="M61 739 C52 739 47 732 47 725 L47 208 C47 89 67 -13 258 -13 C449 -13 467 89 467 208 L467 725 C467 732 462 739 453 739 L387 739 C378 739 372 732 372 725 L372 226 C372 93 357 68 258 68 C159 68 143 93 143 226 L143 725 C143 732 136 739 129 739 L61 739 Z M153 943 C118 943 91 915 91 880 C91 845 118 817 153 817 C189 817 217 845 217 880 C217 915 189 943 153 943 L153 943 Z M360 943 C325 943 298 915 298 880 C298 845 325 817 360 817 C397 817 423 845 423 880 C423 915 397 943 360 943 L360 943 Z " />
<glyph glyph-name="Yacute" unicode="&#xdd;" horiz-adv-x="514" d="M121 730 C118 736 113 739 108 739 L32 739 C23 739 18 735 18 726 C21 723 19 720 20 717 L212 341 L212 14 C212 5 217 0 227 0 L293 0 C303 0 308 5 308 14 L308 341 L494 717 C494 722 495 725 496 726 C496 735 491 739 482 739 L414 739 C410 739 406 736 402 730 L259 409 L121 730 Z M343 951 C340 955 336 957 331 957 C328 957 325 956 322 954 L191 844 C188 841 186 837 186 834 C186 829 187 826 190 823 L216 794 C219 791 222 790 227 790 C229 790 232 791 236 793 L381 878 C386 881 388 885 388 891 C388 894 387 897 385 900 L343 951 Z " />
<glyph glyph-name="Thorn" unicode="&#xde;" horiz-adv-x="514" d="M60 739 C51 739 46 732 46 725 L46 14 C46 5 51 0 60 0 L128 0 C135 0 142 6 142 14 L142 149 L245 149 C441 149 467 205 467 368 C467 531 441 594 245 594 L142 594 L142 725 C142 732 135 739 128 739 L60 739 Z M246 513 C366 513 381 489 381 368 C381 248 366 229 246 229 L142 229 L142 513 L246 513 Z " />
<glyph glyph-name="germandbls" unicode="&#xdf;" horiz-adv-x="514" d="M236 782 C77 782 45 712 45 576 L45 14 C45 5 50 0 60 0 L120 0 C130 0 135 5 135 14 L135 569 C135 686 146 706 230 706 C329 706 344 686 344 569 C344 480 324 454 256 454 L215 454 C205 454 200 449 200 438 L200 391 C200 382 205 377 215 377 L248 377 C344 377 378 343 378 236 C378 88 348 71 252 71 L215 71 C206 71 201 66 201 57 L201 10 C201 -2 208 -5 227 -5 C427 -5 466 51 466 235 C466 354 418 403 358 425 C397 444 432 486 432 569 C432 713 407 782 236 782 L236 782 Z " />
<glyph glyph-name="agrave" unicode="&#xe0;" horiz-adv-x="514" d="M274 557 C177 557 58 525 58 501 C58 498 59 496 61 493 L82 449 C85 444 89 442 94 442 C97 442 100 444 103 445 C150 468 212 480 259 480 C340 480 367 463 367 411 L367 336 C202 331 35 315 35 134 C35 66 87 -11 213 -11 C285 -11 352 11 385 60 C390 33 411 0 442 0 L477 0 C487 0 492 5 492 14 C465 57 458 126 458 184 L458 402 C458 491 414 557 274 557 L274 557 Z M367 157 C351 110 300 66 228 66 C152 66 123 94 123 143 C123 258 251 262 367 265 L367 157 Z M140 706 C137 703 136 700 136 697 C136 692 139 687 144 684 L292 598 C293 597 298 596 300 596 C305 596 309 597 312 600 L336 629 C338 631 339 634 339 639 C339 642 337 646 334 651 L203 761 C201 763 198 764 195 764 C190 764 186 762 183 758 L140 706 Z " />
<glyph glyph-name="aacute" unicode="&#xe1;" horiz-adv-x="514" d="M274 557 C177 557 58 525 58 501 C58 498 59 496 61 493 L82 449 C85 444 89 442 94 442 C97 442 100 444 103 445 C150 468 212 480 259 480 C340 480 367 463 367 411 L367 336 C202 331 35 315 35 134 C35 66 87 -11 213 -11 C285 -11 352 11 385 60 C390 33 411 0 442 0 L477 0 C487 0 492 5 492 14 C465 57 458 126 458 184 L458 402 C458 491 414 557 274 557 L274 557 Z M367 157 C351 110 300 66 228 66 C152 66 123 94 123 143 C123 258 251 262 367 265 L367 157 Z M353 758 C350 762 346 764 341 764 C338 764 335 763 332 761 L201 651 C198 648 196 644 196 641 C196 636 197 633 200 630 L226 601 C229 598 232 597 237 597 C239 597 242 598 246 600 L391 685 C396 688 398 692 398 698 C398 701 397 704 395 707 L353 758 Z " />
<glyph glyph-name="acircumflex" unicode="&#xe2;" horiz-adv-x="514" d="M274 557 C177 557 58 525 58 501 C58 498 59 496 61 493 L82 449 C85 444 89 442 94 442 C97 442 100 444 103 445 C150 468 212 480 259 480 C340 480 367 463 367 411 L367 336 C202 331 35 315 35 134 C35 66 87 -11 213 -11 C285 -11 352 11 385 60 C390 33 411 0 442 0 L477 0 C487 0 492 5 492 14 C465 57 458 126 458 184 L458 402 C458 491 414 557 274 557 L274 557 Z M367 157 C351 110 300 66 228 66 C152 66 123 94 123 143 C123 258 251 262 367 265 L367 157 Z M347 598 C349 596 352 595 356 595 C359 595 365 596 366 597 L406 629 C409 632 411 636 411 640 C411 645 410 648 407 651 L299 759 C296 762 292 764 289 764 L244 764 C241 764 238 762 235 759 L127 651 C124 646 122 642 122 640 C122 637 124 633 128 629 L168 597 C169 596 175 595 177 595 C182 595 185 596 187 598 L267 685 L347 598 Z " />
<glyph glyph-name="atilde" unicode="&#xe3;" horiz-adv-x="514" d="M274 557 C177 557 58 525 58 501 C58 498 59 496 61 493 L82 449 C85 444 89 442 94 442 C97 442 100 444 103 445 C150 468 212 480 259 480 C340 480 367 463 367 411 L367 336 C202 331 35 315 35 134 C35 66 87 -11 213 -11 C285 -11 352 11 385 60 C390 33 411 0 442 0 L477 0 C487 0 492 5 492 14 C465 57 458 126 458 184 L458 402 C458 491 414 557 274 557 L274 557 Z M367 157 C351 110 300 66 228 66 C152 66 123 94 123 143 C123 258 251 262 367 265 L367 157 Z M342 627 C382 627 426 667 426 711 C426 717 424 721 419 724 L381 745 C378 746 375 748 372 748 C353 748 362 700 331 700 C293 700 250 748 192 748 C152 748 108 708 108 664 C108 657 110 653 115 651 L153 629 C156 628 163 628 163 627 C180 627 172 674 204 674 C242 671 281 627 342 627 L342 627 Z " />
<glyph glyph-name="adieresis" unicode="&#xe4;" horiz-adv-x="514" d="M274 557 C177 557 58 525 58 501 C58 498 59 496 61 493 L82 449 C85 444 89 442 94 442 C97 442 100 444 103 445 C150 468 212 480 259 480 C340 480 367 463 367 411 L367 336 C202 331 35 315 35 134 C35 66 87 -11 213 -11 C285 -11 352 11 385 60 C390 33 411 0 442 0 L477 0 C487 0 492 5 492 14 C465 57 458 126 458 184 L458 402 C458 491 414 557 274 557 L274 557 Z M367 157 C351 110 300 66 228 66 C152 66 123 94 123 143 C123 258 251 262 367 265 L367 157 Z M163 750 C128 750 101 722 101 687 C101 652 128 624 163 624 C199 624 227 652 227 687 C227 722 199 750 163 750 L163 750 Z M370 750 C335 750 308 722 308 687 C308 652 335 624 370 624 C407 624 433 652 433 687 C433 722 407 750 370 750 L370 750 Z " />
<glyph glyph-name="aring" unicode="&#xe5;" horiz-adv-x="514" d="M274 557 C177 557 58 525 58 501 C58 498 59 496 61 493 L82 449 C85 444 89 442 94 442 C97 442 100 444 103 445 C150 468 212 480 259 480 C340 480 367 463 367 411 L367 336 C202 331 35 315 35 134 C35 66 87 -11 213 -11 C285 -11 352 11 385 60 C390 33 411 0 442 0 L477 0 C487 0 492 5 492 14 C465 57 458 126 458 184 L458 402 C458 491 414 557 274 557 L274 557 Z M367 157 C351 110 300 66 228 66 C152 66 123 94 123 143 C123 258 251 262 367 265 L367 157 Z M392 690 C392 763 357 804 276 804 C196 804 162 763 162 690 C162 614 196 574 276 574 C356 574 392 610 392 690 L392 690 Z M213 690 C213 742 224 765 275 765 C327 765 343 742 343 690 C343 639 327 616 275 616 C224 616 213 639 213 690 L213 690 Z " />
<glyph glyph-name="ae" unicode="&#xe6;" horiz-adv-x="514" d="M161 557 C92 557 34 525 34 501 C34 499 35 497 37 494 L58 449 C61 444 65 442 70 442 C74 442 79 444 84 448 C109 468 131 480 168 480 C197 480 210 464 210 413 L210 336 C45 331 16 289 16 134 C16 66 36 -11 147 -11 C196 -11 238 13 255 49 C270 16 307 -11 354 -11 C401 -11 449 11 474 43 C477 46 480 55 480 58 C480 63 479 66 476 68 L451 110 C446 113 442 115 440 115 C434 115 430 114 428 111 C413 90 390 66 361 66 C322 66 301 79 301 157 L301 263 L471 263 C481 263 486 268 486 277 L486 301 C486 489 460 557 368 557 C320 557 285 539 264 508 C248 537 213 557 161 557 L161 557 Z M149 66 C112 66 104 94 104 143 C104 247 110 260 210 265 L210 157 C210 89 184 66 149 66 L149 66 Z M353 480 C385 480 398 464 398 339 L302 339 C305 469 321 480 353 480 L353 480 Z " />
<glyph glyph-name="ccedilla" unicode="&#xe7;" horiz-adv-x="514" d="M267 557 C94 557 37 495 37 274 C37 53 92 -11 253 -11 C353 -11 416 12 459 48 C462 51 464 55 464 60 C464 65 463 69 460 72 L437 107 C434 112 429 115 424 115 C419 115 415 114 412 111 C375 84 325 66 265 66 C157 66 125 85 125 274 C125 459 160 480 261 480 C318 480 362 477 401 458 C406 455 410 454 413 454 C418 454 422 456 424 459 L449 497 C451 500 452 503 452 506 C452 538 363 557 267 557 L267 557 Z M244 -46 C235 -46 230 -50 229 -58 C223 -105 210 -142 199 -163 C191 -176 191 -179 191 -183 C191 -187 192 -191 196 -194 L224 -216 C226 -218 229 -219 233 -219 C236 -219 240 -217 243 -214 C282 -179 322 -108 322 -59 C322 -52 315 -46 308 -46 L244 -46 Z " />
<glyph glyph-name="egrave" unicode="&#xe8;" horiz-adv-x="514" d="M468 263 C478 263 483 268 483 277 L483 301 C483 489 428 557 268 557 C108 557 31 511 31 274 C31 53 103 -11 256 -11 C356 -11 429 12 472 48 C475 51 477 55 477 58 C477 63 476 66 473 68 L448 110 C443 113 439 115 437 115 C432 115 428 114 425 111 C386 84 328 66 268 66 C165 66 122 79 119 263 L468 263 Z M260 480 C347 480 395 464 395 339 L122 339 C130 468 172 480 260 480 L260 480 Z M130 706 C127 703 126 700 126 697 C126 692 129 687 134 684 L282 598 C283 597 288 596 290 596 C295 596 299 597 302 600 L326 629 C328 631 329 634 329 639 C329 642 327 646 324 651 L193 761 C191 763 188 764 185 764 C180 764 176 762 173 758 L130 706 Z " />
<glyph glyph-name="eacute" unicode="&#xe9;" horiz-adv-x="514" d="M468 263 C478 263 483 268 483 277 L483 301 C483 489 428 557 268 557 C108 557 31 511 31 274 C31 53 103 -11 256 -11 C356 -11 429 12 472 48 C475 51 477 55 477 58 C477 63 476 66 473 68 L448 110 C443 113 439 115 437 115 C432 115 428 114 425 111 C386 84 328 66 268 66 C165 66 122 79 119 263 L468 263 Z M260 480 C347 480 395 464 395 339 L122 339 C130 468 172 480 260 480 L260 480 Z M343 758 C340 762 336 764 331 764 C328 764 325 763 322 761 L191 651 C188 648 186 644 186 641 C186 636 187 633 190 630 L216 601 C219 598 222 597 227 597 C229 597 232 598 236 600 L381 685 C386 688 388 692 388 698 C388 701 387 704 385 707 L343 758 Z " />
<glyph glyph-name="ecircumflex" unicode="&#xea;" horiz-adv-x="514" d="M468 263 C478 263 483 268 483 277 L483 301 C483 489 428 557 268 557 C108 557 31 511 31 274 C31 53 103 -11 256 -11 C356 -11 429 12 472 48 C475 51 477 55 477 58 C477 63 476 66 473 68 L448 110 C443 113 439 115 437 115 C432 115 428 114 425 111 C386 84 328 66 268 66 C165 66 122 79 119 263 L468 263 Z M260 480 C347 480 395 464 395 339 L122 339 C130 468 172 480 260 480 L260 480 Z M337 598 C339 596 342 595 346 595 C349 595 355 596 356 597 L396 629 C399 632 401 636 401 640 C401 645 400 648 397 651 L289 759 C286 762 282 764 279 764 L234 764 C231 764 228 762 225 759 L117 651 C114 646 112 642 112 640 C112 637 114 633 118 629 L158 597 C159 596 165 595 167 595 C172 595 175 596 177 598 L257 685 L337 598 Z " />
<glyph glyph-name="edieresis" unicode="&#xeb;" horiz-adv-x="514" d="M468 263 C478 263 483 268 483 277 L483 301 C483 489 428 557 268 557 C108 557 31 511 31 274 C31 53 103 -11 256 -11 C356 -11 429 12 472 48 C475 51 477 55 477 58 C477 63 476 66 473 68 L448 110 C443 113 439 115 437 115 C432 115 428 114 425 111 C386 84 328 66 268 66 C165 66 122 79 119 263 L468 263 Z M260 480 C347 480 395 464 395 339 L122 339 C130 468 172 480 260 480 L260 480 Z M153 750 C118 750 91 722 91 687 C91 652 118 624 153 624 C189 624 217 652 217 687 C217 722 189 750 153 750 L153 750 Z M360 750 C325 750 298 722 298 687 C298 652 325 624 360 624 C397 624 423 652 423 687 C423 722 397 750 360 750 L360 750 Z " />
<glyph glyph-name="igrave" unicode="&#xec;" horiz-adv-x="514" d="M105 485 C105 475 110 470 119 470 L266 470 L266 14 C266 5 271 0 282 0 L343 0 C352 0 357 5 357 14 L357 532 C357 541 352 546 343 546 L119 546 C110 546 105 541 105 532 L105 485 Z M130 706 C127 703 126 700 126 697 C126 692 129 687 134 684 L282 598 C283 597 288 596 290 596 C295 596 299 597 302 600 L326 629 C328 631 329 634 329 639 C329 642 327 646 324 651 L193 761 C191 763 188 764 185 764 C180 764 176 762 173 758 L130 706 Z " />
<glyph glyph-name="iacute" unicode="&#xed;" horiz-adv-x="514" d="M105 485 C105 475 110 470 119 470 L266 470 L266 14 C266 5 271 0 282 0 L343 0 C352 0 357 5 357 14 L357 532 C357 541 352 546 343 546 L119 546 C110 546 105 541 105 532 L105 485 Z M343 758 C340 762 336 764 331 764 C328 764 325 763 322 761 L191 651 C188 648 186 644 186 641 C186 636 187 633 190 630 L216 601 C219 598 222 597 227 597 C229 597 232 598 236 600 L381 685 C386 688 388 692 388 698 C388 701 387 704 385 707 L343 758 Z " />
<glyph glyph-name="icircumflex" unicode="&#xee;" horiz-adv-x="514" d="M105 485 C105 475 110 470 119 470 L266 470 L266 14 C266 5 271 0 282 0 L343 0 C352 0 357 5 357 14 L357 532 C357 541 352 546 343 546 L119 546 C110 546 105 541 105 532 L105 485 Z M337 598 C339 596 342 595 346 595 C349 595 355 596 356 597 L396 629 C399 632 401 636 401 640 C401 645 400 648 397 651 L289 759 C286 762 282 764 279 764 L234 764 C231 764 228 762 225 759 L117 651 C114 646 112 642 112 640 C112 637 114 633 118 629 L158 597 C159 596 165 595 167 595 C172 595 175 596 177 598 L257 685 L337 598 Z " />
<glyph glyph-name="idieresis" unicode="&#xef;" horiz-adv-x="514" d="M105 485 C105 475 110 470 119 470 L266 470 L266 14 C266 5 271 0 282 0 L343 0 C352 0 357 5 357 14 L357 532 C357 541 352 546 343 546 L119 546 C110 546 105 541 105 532 L105 485 Z M153 750 C118 750 91 722 91 687 C91 652 118 624 153 624 C189 624 217 652 217 687 C217 722 189 750 153 750 L153 750 Z M360 750 C325 750 298 722 298 687 C298 652 325 624 360 624 C397 624 423 652 423 687 C423 722 397 750 360 750 L360 750 Z " />
<glyph glyph-name="eth" unicode="&#xf0;" horiz-adv-x="514" d="M498 725 C494 730 489 732 483 732 C480 732 478 732 477 731 L427 704 C395 747 343 782 271 782 C214 782 174 780 174 761 L174 713 C174 701 180 700 188 700 C204 700 209 706 279 706 C306 706 333 682 349 659 L250 602 C246 599 244 595 244 592 C244 589 245 586 247 584 L265 556 C268 552 271 550 275 550 C278 550 283 552 288 555 L376 605 C394 544 398 467 398 425 C374 452 314 471 263 471 C91 471 31 393 31 221 C31 48 98 -13 258 -13 C437 -13 485 56 485 311 C485 452 481 568 453 652 L508 681 C513 684 516 688 516 692 C515 693 514 696 514 699 L498 725 Z M263 394 C370 394 395 367 395 229 C395 92 370 66 263 66 C158 66 119 92 119 229 C119 367 158 394 263 394 L263 394 Z " />
<glyph glyph-name="ntilde" unicode="&#xf1;" horiz-adv-x="514" d="M446 0 C453 0 460 6 460 14 L460 421 C460 509 425 557 341 557 C290 557 223 538 147 470 C142 497 131 546 112 546 L78 546 C68 546 63 541 63 531 L63 14 C63 5 68 0 78 0 L138 0 C148 0 153 5 153 14 L153 378 C229 458 291 480 324 480 C354 480 369 461 369 422 L369 14 C369 6 376 0 384 0 L446 0 Z M332 627 C372 627 416 667 416 711 C416 717 414 721 409 724 L371 745 C368 746 365 748 362 748 C343 748 352 700 321 700 C283 700 240 748 182 748 C142 748 98 708 98 664 C98 657 100 653 105 651 L143 629 C146 628 153 628 153 627 C170 627 162 674 194 674 C232 671 271 627 332 627 L332 627 Z " />
<glyph glyph-name="ograve" unicode="&#xf2;" horiz-adv-x="514" d="M257 557 C75 557 29 483 29 273 C29 61 74 -11 257 -11 C441 -11 484 61 484 273 C484 483 438 557 257 557 L257 557 Z M257 480 C363 480 396 453 396 273 C396 93 363 66 257 66 C152 66 117 90 117 273 C117 454 152 480 257 480 L257 480 Z M130 706 C127 703 126 700 126 697 C126 692 129 687 134 684 L282 598 C283 597 288 596 290 596 C295 596 299 597 302 600 L326 629 C328 631 329 634 329 639 C329 642 327 646 324 651 L193 761 C191 763 188 764 185 764 C180 764 176 762 173 758 L130 706 Z " />
<glyph glyph-name="oacute" unicode="&#xf3;" horiz-adv-x="514" d="M257 557 C75 557 29 483 29 273 C29 61 74 -11 257 -11 C441 -11 484 61 484 273 C484 483 438 557 257 557 L257 557 Z M257 480 C363 480 396 453 396 273 C396 93 363 66 257 66 C152 66 117 90 117 273 C117 454 152 480 257 480 L257 480 Z M343 758 C340 762 336 764 331 764 C328 764 325 763 322 761 L191 651 C188 648 186 644 186 641 C186 636 187 633 190 630 L216 601 C219 598 222 597 227 597 C229 597 232 598 236 600 L381 685 C386 688 388 692 388 698 C388 701 387 704 385 707 L343 758 Z " />
<glyph glyph-name="ocircumflex" unicode="&#xf4;" horiz-adv-x="514" d="M257 557 C75 557 29 483 29 273 C29 61 74 -11 257 -11 C441 -11 484 61 484 273 C484 483 438 557 257 557 L257 557 Z M257 480 C363 480 396 453 396 273 C396 93 363 66 257 66 C152 66 117 90 117 273 C117 454 152 480 257 480 L257 480 Z M337 598 C339 596 342 595 346 595 C349 595 355 596 356 597 L396 629 C399 632 401 636 401 640 C401 645 400 648 397 651 L289 759 C286 762 282 764 279 764 L234 764 C231 764 228 762 225 759 L117 651 C114 646 112 642 112 640 C112 637 114 633 118 629 L158 597 C159 596 165 595 167 595 C172 595 175 596 177 598 L257 685 L337 598 Z " />
<glyph glyph-name="otilde" unicode="&#xf5;" horiz-adv-x="514" d="M257 557 C75 557 29 483 29 273 C29 61 74 -11 257 -11 C441 -11 484 61 484 273 C484 483 438 557 257 557 L257 557 Z M257 480 C363 480 396 453 396 273 C396 93 363 66 257 66 C152 66 117 90 117 273 C117 454 152 480 257 480 L257 480 Z M332 627 C372 627 416 667 416 711 C416 717 414 721 409 724 L371 745 C368 746 365 748 362 748 C343 748 352 700 321 700 C283 700 240 748 182 748 C142 748 98 708 98 664 C98 657 100 653 105 651 L143 629 C146 628 153 628 153 627 C170 627 162 674 194 674 C232 671 271 627 332 627 L332 627 Z " />
<glyph glyph-name="odieresis" unicode="&#xf6;" horiz-adv-x="514" d="M257 557 C75 557 29 483 29 273 C29 61 74 -11 257 -11 C441 -11 484 61 484 273 C484 483 438 557 257 557 L257 557 Z M257 480 C363 480 396 453 396 273 C396 93 363 66 257 66 C152 66 117 90 117 273 C117 454 152 480 257 480 L257 480 Z M153 750 C118 750 91 722 91 687 C91 652 118 624 153 624 C189 624 217 652 217 687 C217 722 189 750 153 750 L153 750 Z M360 750 C325 750 298 722 298 687 C298 652 325 624 360 624 C397 624 423 652 423 687 C423 722 397 750 360 750 L360 750 Z " />
<glyph glyph-name="divide" unicode="&#xf7;" horiz-adv-x="514" d="M468 326 C477 326 482 331 482 340 L482 396 C482 406 477 411 468 411 L47 411 C37 411 32 406 32 396 L32 340 C32 331 37 326 47 326 L468 326 Z M264 222 C227 222 200 195 200 156 C200 117 227 89 264 89 C299 89 326 117 326 156 C326 195 299 222 264 222 L264 222 Z M264 648 C227 648 200 624 200 583 C200 544 227 517 264 517 C299 517 326 544 326 583 C326 624 299 648 264 648 L264 648 Z " />
<glyph glyph-name="oslash" unicode="&#xf8;" horiz-adv-x="514" d="M257 557 C75 557 29 483 29 273 C29 156 42 84 83 41 L57 -5 C56 -6 55 -8 55 -11 C55 -14 57 -18 60 -21 L100 -43 C103 -46 106 -47 109 -47 C113 -47 117 -44 120 -38 L144 3 C175 -6 210 -11 257 -11 C441 -11 484 61 484 273 C484 386 471 458 431 502 L462 555 C463 556 463 558 463 561 C463 564 461 568 457 571 L415 595 C414 596 411 597 407 597 C403 597 400 595 399 592 L370 541 C345 552 307 557 257 557 L257 557 Z M257 480 C289 480 314 478 334 469 L137 125 C124 156 117 201 117 273 C117 454 152 480 257 480 L257 480 Z M257 66 C226 66 201 68 181 77 L379 420 C390 387 396 338 396 273 C396 92 363 69 257 66 L257 66 Z " />
<glyph glyph-name="ugrave" unicode="&#xf9;" horiz-adv-x="514" d="M67 546 C58 546 53 541 53 532 L53 125 C53 38 83 -11 174 -11 C238 -11 285 6 366 76 C369 49 382 0 400 0 L435 0 C443 0 450 6 450 15 L450 532 C450 540 443 546 435 546 L374 546 C366 546 359 540 359 532 L359 170 C281 76 227 66 194 66 C167 66 143 79 143 118 L143 532 C143 541 138 546 128 546 L67 546 Z M130 706 C127 703 126 700 126 697 C126 692 129 687 134 684 L282 598 C283 597 288 596 290 596 C295 596 299 597 302 600 L326 629 C328 631 329 634 329 639 C329 642 327 646 324 651 L193 761 C191 763 188 764 185 764 C180 764 176 762 173 758 L130 706 Z " />
<glyph glyph-name="uacute" unicode="&#xfa;" horiz-adv-x="514" d="M67 546 C58 546 53 541 53 532 L53 125 C53 38 83 -11 174 -11 C238 -11 285 6 366 76 C369 49 382 0 400 0 L435 0 C443 0 450 6 450 15 L450 532 C450 540 443 546 435 546 L374 546 C366 546 359 540 359 532 L359 170 C281 76 227 66 194 66 C167 66 143 79 143 118 L143 532 C143 541 138 546 128 546 L67 546 Z M343 758 C340 762 336 764 331 764 C328 764 325 763 322 761 L191 651 C188 648 186 644 186 641 C186 636 187 633 190 630 L216 601 C219 598 222 597 227 597 C229 597 232 598 236 600 L381 685 C386 688 388 692 388 698 C388 701 387 704 385 707 L343 758 Z " />
<glyph glyph-name="ucircumflex" unicode="&#xfb;" horiz-adv-x="514" d="M67 546 C58 546 53 541 53 532 L53 125 C53 38 83 -11 174 -11 C238 -11 285 6 366 76 C369 49 382 0 400 0 L435 0 C443 0 450 6 450 15 L450 532 C450 540 443 546 435 546 L374 546 C366 546 359 540 359 532 L359 170 C281 76 227 66 194 66 C167 66 143 79 143 118 L143 532 C143 541 138 546 128 546 L67 546 Z M337 598 C339 596 342 595 346 595 C349 595 355 596 356 597 L396 629 C399 632 401 636 401 640 C401 645 400 648 397 651 L289 759 C286 762 282 764 279 764 L234 764 C231 764 228 762 225 759 L117 651 C114 646 112 642 112 640 C112 637 114 633 118 629 L158 597 C159 596 165 595 167 595 C172 595 175 596 177 598 L257 685 L337 598 Z " />
<glyph glyph-name="udieresis" unicode="&#xfc;" horiz-adv-x="514" d="M67 546 C58 546 53 541 53 532 L53 125 C53 38 83 -11 174 -11 C238 -11 285 6 366 76 C369 49 382 0 400 0 L435 0 C443 0 450 6 450 15 L450 532 C450 540 443 546 435 546 L374 546 C366 546 359 540 359 532 L359 170 C281 76 227 66 194 66 C167 66 143 79 143 118 L143 532 C143 541 138 546 128 546 L67 546 Z M153 750 C118 750 91 722 91 687 C91 652 118 624 153 624 C189 624 217 652 217 687 C217 722 189 750 153 750 L153 750 Z M360 750 C325 750 298 722 298 687 C298 652 325 624 360 624 C397 624 423 652 423 687 C423 722 397 750 360 750 L360 750 Z " />
<glyph glyph-name="yacute" unicode="&#xfd;" horiz-adv-x="514" d="M118 536 C116 543 111 546 104 546 L38 546 C28 546 23 542 23 533 C23 521 25 511 30 502 L202 -13 C164 -123 146 -136 115 -136 C94 -136 85 -128 77 -128 C72 -128 67 -131 64 -136 L36 -192 C35 -195 33 -195 33 -198 C33 -214 71 -219 114 -219 C201 -219 239 -150 271 -65 L484 513 C488 522 490 528 490 533 C490 542 485 546 475 546 L417 546 C410 546 406 543 403 536 L247 111 L118 536 Z M343 758 C340 762 336 764 331 764 C328 764 325 763 322 761 L191 651 C188 648 186 644 186 641 C186 636 187 633 190 630 L216 601 C219 598 222 597 227 597 C229 597 232 598 236 600 L381 685 C386 688 388 692 388 698 C388 701 387 704 385 707 L343 758 Z " />
<glyph glyph-name="thorn" unicode="&#xfe;" horiz-adv-x="514" d="M52 -205 C52 -213 58 -220 67 -220 L126 -220 C133 -220 140 -213 140 -205 L140 0 L242 0 C422 0 472 61 472 289 C472 466 426 557 274 557 C214 557 171 541 142 522 L142 762 C142 772 137 777 127 777 L67 777 C57 777 52 772 52 762 L52 -205 Z M255 480 C351 480 385 457 385 279 C385 87 344 76 243 76 L142 76 L142 439 C166 463 207 480 255 480 L255 480 Z " />
<glyph glyph-name="ydieresis" unicode="&#xff;" horiz-adv-x="514" d="M118 536 C116 543 111 546 104 546 L38 546 C28 546 23 542 23 533 C23 521 25 511 30 502 L202 -13 C164 -123 146 -136 115 -136 C94 -136 85 -128 77 -128 C72 -128 67 -131 64 -136 L36 -192 C35 -195 33 -195 33 -198 C33 -214 71 -219 114 -219 C201 -219 239 -150 271 -65 L484 513 C488 522 490 528 490 533 C490 542 485 546 475 546 L417 546 C410 546 406 543 403 536 L247 111 L118 536 Z M153 750 C118 750 91 722 91 687 C91 652 118 624 153 624 C189 624 217 652 217 687 C217 722 189 750 153 750 L153 750 Z M360 750 C325 750 298 722 298 687 C298 652 325 624 360 624 C397 624 423 652 423 687 C423 722 397 750 360 750 L360 750 Z " />
<glyph glyph-name="Amacron" unicode="&#x100;" horiz-adv-x="514" d="M162 739 C155 739 151 736 148 729 L18 19 C17 18 17 16 17 13 C17 4 22 0 31 0 L100 0 C105 0 111 5 114 10 L144 200 L376 200 L407 10 C410 5 416 0 421 0 L491 0 C500 0 505 4 505 13 C505 16 504 16 504 19 L373 729 C370 736 366 739 359 739 L162 739 Z M221 661 L300 661 L362 281 L159 281 L221 661 Z M92 918 C83 918 77 911 77 903 L77 847 C77 837 82 832 92 832 L422 832 C432 832 437 837 437 847 L437 903 C437 911 431 918 422 918 L92 918 Z " />
<glyph glyph-name="amacron" unicode="&#x101;" horiz-adv-x="514" d="M274 557 C177 557 58 525 58 501 C58 498 59 496 61 493 L82 449 C85 444 89 442 94 442 C97 442 100 444 103 445 C150 468 212 480 259 480 C340 480 367 463 367 411 L367 336 C202 331 35 315 35 134 C35 66 87 -11 213 -11 C285 -11 352 11 385 60 C390 33 411 0 442 0 L477 0 C487 0 492 5 492 14 C465 57 458 126 458 184 L458 402 C458 491 414 557 274 557 L274 557 Z M367 157 C351 110 300 66 228 66 C152 66 123 94 123 143 C123 258 251 262 367 265 L367 157 Z M102 725 C93 725 87 718 87 710 L87 654 C87 644 92 639 102 639 L432 639 C442 639 447 644 447 654 L447 710 C447 718 441 725 432 725 L102 725 Z " />
<glyph glyph-name="Abreve" unicode="&#x102;" horiz-adv-x="514" d="M162 739 C155 739 151 736 148 729 L18 19 C17 18 17 16 17 13 C17 4 22 0 31 0 L100 0 C105 0 111 5 114 10 L144 200 L376 200 L407 10 C410 5 416 0 421 0 L491 0 C500 0 505 4 505 13 C505 16 504 16 504 19 L373 729 C370 736 366 739 359 739 L162 739 Z M221 661 L300 661 L362 281 L159 281 L221 661 Z M256 863 C211 863 197 901 184 946 C180 953 176 957 171 957 C168 957 166 957 165 956 L123 941 C117 938 114 933 114 927 C114 872 165 791 256 791 C346 791 400 872 400 925 C400 932 397 937 392 941 L350 956 C344 956 341 957 341 958 C332 958 328 954 327 946 C316 901 300 863 256 863 L256 863 Z " />
<glyph glyph-name="abreve" unicode="&#x103;" horiz-adv-x="514" d="M274 557 C177 557 58 525 58 501 C58 498 59 496 61 493 L82 449 C85 444 89 442 94 442 C97 442 100 444 103 445 C150 468 212 480 259 480 C340 480 367 463 367 411 L367 336 C202 331 35 315 35 134 C35 66 87 -11 213 -11 C285 -11 352 11 385 60 C390 33 411 0 442 0 L477 0 C487 0 492 5 492 14 C465 57 458 126 458 184 L458 402 C458 491 414 557 274 557 L274 557 Z M367 157 C351 110 300 66 228 66 C152 66 123 94 123 143 C123 258 251 262 367 265 L367 157 Z M266 670 C221 670 207 708 194 753 C190 760 186 764 181 764 C178 764 176 764 175 763 L133 748 C127 745 124 740 124 734 C124 679 175 598 266 598 C356 598 410 679 410 732 C410 739 407 744 402 748 L360 763 C354 763 351 764 351 765 C342 765 338 761 337 753 C326 708 310 670 266 670 L266 670 Z " />
<glyph glyph-name="Aogonek" unicode="&#x104;" horiz-adv-x="514" d="M162 739 C155 739 151 736 148 729 L18 19 C17 18 17 16 17 13 C17 4 22 0 31 0 L100 0 C105 0 111 5 114 10 L144 200 L376 200 L407 10 C410 5 416 0 421 0 L437 0 L392 -33 C355 -60 330 -91 330 -135 C330 -181 365 -219 423 -219 C465 -219 508 -209 508 -193 C508 -191 507 -187 506 -180 L496 -146 C494 -138 489 -134 482 -134 C474 -134 456 -142 425 -142 C414 -142 395 -129 395 -108 C395 -87 407 -71 434 -50 L500 1 C504 4 505 7 505 13 C505 15 505 16 504 19 L373 729 C370 736 366 739 359 739 L162 739 Z M221 661 L300 661 L362 281 L159 281 L221 661 Z " />
<glyph glyph-name="aogonek" unicode="&#x105;" horiz-adv-x="514" d="M274 557 C177 557 58 525 58 501 C58 498 59 496 61 493 L82 449 C85 444 89 442 94 442 C97 442 100 444 103 445 C150 468 212 480 259 480 C340 480 367 463 367 411 L367 336 C202 331 35 315 35 134 C35 66 87 -11 213 -11 C285 -11 352 11 385 60 C388 37 403 11 426 2 L378 -33 C341 -60 316 -91 316 -135 C316 -181 351 -219 409 -219 C451 -219 494 -209 494 -193 C494 -191 493 -187 492 -180 L482 -146 C480 -138 475 -134 468 -134 C460 -134 442 -142 411 -142 C400 -142 381 -129 381 -108 C381 -87 393 -71 420 -50 L485 1 C489 4 492 8 492 14 C465 57 458 126 458 184 L458 402 C458 491 414 557 274 557 L274 557 Z M367 157 C351 110 300 66 228 66 C152 66 123 94 123 143 C123 258 251 262 367 265 L367 157 Z " />
<glyph glyph-name="Cacute" unicode="&#x106;" horiz-adv-x="514" d="M282 68 C151 68 129 93 129 371 C129 647 144 672 275 672 C363 672 417 655 425 655 C428 655 433 656 434 660 L453 716 C454 719 455 721 455 724 C455 742 321 753 275 753 C86 753 37 660 37 371 C37 80 94 -13 282 -13 C406 -13 467 19 467 37 C467 39 467 42 465 45 L436 96 C434 100 431 103 428 103 C423 103 419 99 412 95 C392 84 348 68 282 68 L282 68 Z M367 951 C364 955 360 957 355 957 C352 957 349 956 346 954 L215 844 C212 841 210 837 210 834 C210 829 211 826 214 823 L240 794 C243 791 246 790 251 790 C253 790 256 791 260 793 L405 878 C410 881 412 885 412 891 C412 894 411 897 409 900 L367 951 Z " />
<glyph glyph-name="cacute" unicode="&#x107;" horiz-adv-x="514" d="M267 557 C94 557 37 495 37 274 C37 53 92 -11 253 -11 C353 -11 416 12 459 48 C462 51 464 55 464 60 C464 65 463 69 460 72 L437 107 C434 112 429 115 424 115 C419 115 415 114 412 111 C375 84 325 66 265 66 C157 66 125 85 125 274 C125 459 160 480 261 480 C318 480 362 477 401 458 C406 455 410 454 413 454 C418 454 422 456 424 459 L449 497 C451 500 452 503 452 506 C452 538 363 557 267 557 L267 557 Z M343 758 C340 762 336 764 331 764 C328 764 325 763 322 761 L191 651 C188 648 186 644 186 641 C186 636 187 633 190 630 L216 601 C219 598 222 597 227 597 C229 597 232 598 236 600 L381 685 C386 688 388 692 388 698 C388 701 387 704 385 707 L343 758 Z " />
<glyph glyph-name="Ccircumflex" unicode="&#x108;" horiz-adv-x="514" d="M282 68 C151 68 129 93 129 371 C129 647 144 672 275 672 C363 672 417 655 425 655 C428 655 433 656 434 660 L453 716 C454 719 455 721 455 724 C455 742 321 753 275 753 C86 753 37 660 37 371 C37 80 94 -13 282 -13 C406 -13 467 19 467 37 C467 39 467 42 465 45 L436 96 C434 100 431 103 428 103 C423 103 419 99 412 95 C392 84 348 68 282 68 L282 68 Z M367 791 C369 789 372 788 376 788 C379 788 385 789 386 790 L426 822 C429 825 431 829 431 833 C431 838 430 841 427 844 L319 952 C316 955 312 957 309 957 L264 957 C261 957 258 955 255 952 L147 844 C144 839 142 835 142 833 C142 830 144 826 148 822 L188 790 C189 789 195 788 197 788 C202 788 205 789 207 791 L287 878 L367 791 Z " />
<glyph glyph-name="ccircumflex" unicode="&#x109;" horiz-adv-x="514" d="M267 557 C94 557 37 495 37 274 C37 53 92 -11 253 -11 C353 -11 416 12 459 48 C462 51 464 55 464 60 C464 65 463 69 460 72 L437 107 C434 112 429 115 424 115 C419 115 415 114 412 111 C375 84 325 66 265 66 C157 66 125 85 125 274 C125 459 160 480 261 480 C318 480 362 477 401 458 C406 455 410 454 413 454 C418 454 422 456 424 459 L449 497 C451 500 452 503 452 506 C452 538 363 557 267 557 L267 557 Z M357 598 C359 596 362 595 366 595 C369 595 375 596 376 597 L416 629 C419 632 421 636 421 640 C421 645 420 648 417 651 L309 759 C306 762 302 764 299 764 L254 764 C251 764 248 762 245 759 L137 651 C134 646 132 642 132 640 C132 637 134 633 138 629 L178 597 C179 596 185 595 187 595 C192 595 195 596 197 598 L277 685 L357 598 Z " />
<glyph glyph-name="Cdotaccent" unicode="&#x10a;" horiz-adv-x="514" d="M282 68 C151 68 129 93 129 371 C129 647 144 672 275 672 C363 672 417 655 425 655 C428 655 433 656 434 660 L453 716 C454 719 455 721 455 724 C455 742 321 753 275 753 C86 753 37 660 37 371 C37 80 94 -13 282 -13 C406 -13 467 19 467 37 C467 39 467 42 465 45 L436 96 C434 100 431 103 428 103 C423 103 419 99 412 95 C392 84 348 68 282 68 L282 68 Z M286 943 C251 943 224 915 224 880 C224 845 251 817 286 817 C322 817 350 845 350 880 C350 915 322 943 286 943 L286 943 Z " />
<glyph glyph-name="cdotaccent" unicode="&#x10b;" horiz-adv-x="514" d="M267 557 C94 557 37 495 37 274 C37 53 92 -11 253 -11 C353 -11 416 12 459 48 C462 51 464 55 464 60 C464 65 463 69 460 72 L437 107 C434 112 429 115 424 115 C419 115 415 114 412 111 C375 84 325 66 265 66 C157 66 125 85 125 274 C125 459 160 480 261 480 C318 480 362 477 401 458 C406 455 410 454 413 454 C418 454 422 456 424 459 L449 497 C451 500 452 503 452 506 C452 538 363 557 267 557 L267 557 Z M259 750 C224 750 197 722 197 687 C197 652 224 624 259 624 C295 624 323 652 323 687 C323 722 295 750 259 750 L259 750 Z " />
<glyph glyph-name="Ccaron" unicode="&#x10c;" horiz-adv-x="514" d="M282 68 C151 68 129 93 129 371 C129 647 144 672 275 672 C363 672 417 655 425 655 C428 655 433 656 434 660 L453 716 C454 719 455 721 455 724 C455 742 321 753 275 753 C86 753 37 660 37 371 C37 80 94 -13 282 -13 C406 -13 467 19 467 37 C467 39 467 42 465 45 L436 96 C434 100 431 103 428 103 C423 103 419 99 412 95 C392 84 348 68 282 68 L282 68 Z M207 954 C205 956 202 957 197 957 C194 957 190 956 188 955 L148 922 C144 918 142 914 142 911 C142 908 144 904 147 901 L255 792 C258 789 261 788 264 788 L309 788 C313 788 316 789 319 792 L427 901 C430 904 431 907 431 911 C431 915 429 919 426 922 L386 955 C385 956 379 957 376 957 C372 957 369 956 367 954 L287 866 L207 954 Z " />
<glyph glyph-name="ccaron" unicode="&#x10d;" horiz-adv-x="514" d="M267 557 C94 557 37 495 37 274 C37 53 92 -11 253 -11 C353 -11 416 12 459 48 C462 51 464 55 464 60 C464 65 463 69 460 72 L437 107 C434 112 429 115 424 115 C419 115 415 114 412 111 C375 84 325 66 265 66 C157 66 125 85 125 274 C125 459 160 480 261 480 C318 480 362 477 401 458 C406 455 410 454 413 454 C418 454 422 456 424 459 L449 497 C451 500 452 503 452 506 C452 538 363 557 267 557 L267 557 Z M197 761 C195 763 192 764 187 764 C184 764 180 763 178 762 L138 729 C134 725 132 721 132 718 C132 715 134 711 137 708 L245 599 C248 596 251 595 254 595 L299 595 C303 595 306 596 309 599 L417 708 C420 711 421 714 421 718 C421 722 419 726 416 729 L376 762 C375 763 369 764 366 764 C362 764 359 763 357 761 L277 673 L197 761 Z " />
<glyph glyph-name="Dcaron" unicode="&#x10e;" horiz-adv-x="514" d="M46 14 C46 5 50 0 59 0 L234 0 C419 0 488 79 488 369 C488 660 419 739 234 739 L59 739 C51 739 46 732 46 725 L46 14 Z M142 658 L230 658 C345 658 396 633 396 369 C396 110 342 81 230 81 L142 81 L142 658 Z M162 954 C160 956 157 957 152 957 C149 957 145 956 143 955 L103 922 C99 918 97 914 97 911 C97 908 99 904 102 901 L210 792 C213 789 216 788 219 788 L264 788 C268 788 271 789 274 792 L382 901 C385 904 386 907 386 911 C386 915 384 919 381 922 L341 955 C340 956 334 957 331 957 C327 957 324 956 322 954 L242 866 L162 954 Z " />
<glyph glyph-name="dcaron" unicode="&#x10f;" horiz-adv-x="514" d="M370 762 C370 770 364 777 355 777 L294 777 C286 777 280 770 280 762 L280 528 C270 542 243 557 204 557 C79 557 9 488 9 251 C9 59 75 -11 173 -11 C232 -11 278 27 294 60 C297 40 313 0 331 0 L355 0 C365 0 370 5 370 14 L370 762 Z M204 480 C234 480 261 465 280 428 L280 172 C272 110 242 66 184 66 C135 66 97 84 97 257 C97 461 142 480 204 480 L204 480 Z M385 524 C384 519 383 515 383 511 C383 503 386 497 395 492 L413 483 C416 482 421 482 421 481 C427 481 431 484 434 490 L514 733 C514 734 514 735 514 738 C514 745 512 749 506 751 L457 773 C454 776 449 777 443 777 C437 777 434 774 433 767 L385 524 Z " />
<glyph glyph-name="Dcroat" unicode="&#x110;" horiz-adv-x="514" d="M46 343 L46 14 C46 5 50 0 59 0 L234 0 C419 0 488 79 488 369 C488 660 419 739 234 739 L59 739 C51 739 46 732 46 725 L46 425 L31 425 C21 425 16 420 16 411 L16 357 C16 348 21 343 31 343 L46 343 Z M142 343 L267 343 C275 343 282 348 282 357 L282 411 C282 419 275 425 267 425 L142 425 L142 658 L230 658 C345 658 396 633 396 369 C396 110 342 81 230 81 L142 81 L142 343 Z " />
<glyph glyph-name="dcroat" unicode="&#x111;" horiz-adv-x="514" d="M169 725 C160 725 154 718 154 710 L154 654 C154 644 159 639 169 639 L360 639 L360 528 C337 543 311 557 264 557 C73 557 29 488 29 251 C29 59 93 -11 233 -11 C297 -11 349 19 374 60 C377 40 393 0 411 0 L435 0 C445 0 450 5 450 14 L450 639 L499 639 C509 639 514 644 514 654 L514 710 C514 718 508 725 499 725 L450 725 L450 762 C450 770 444 777 435 777 L374 777 C366 777 360 770 360 762 L360 725 L169 725 Z M264 480 C299 480 333 469 360 428 L360 172 C349 112 316 66 244 66 C160 66 117 84 117 257 C117 461 142 480 264 480 L264 480 Z " />
<glyph glyph-name="Emacron" unicode="&#x112;" horiz-adv-x="514" d="M66 739 C57 739 52 732 52 725 L52 14 C52 5 57 0 66 0 L461 0 C469 0 476 6 476 14 L476 67 C476 74 469 81 461 81 L148 81 L148 352 L427 352 C436 352 442 359 442 366 L442 418 C442 428 437 433 427 433 L148 433 L148 658 L455 658 C464 658 470 665 470 673 L470 725 C470 732 464 739 455 739 L66 739 Z M99 918 C90 918 84 911 84 903 L84 847 C84 837 89 832 99 832 L429 832 C439 832 444 837 444 847 L444 903 C444 911 438 918 429 918 L99 918 Z " />
<glyph glyph-name="emacron" unicode="&#x113;" horiz-adv-x="514" d="M468 263 C478 263 483 268 483 277 L483 301 C483 489 428 557 268 557 C108 557 31 511 31 274 C31 53 103 -11 256 -11 C356 -11 429 12 472 48 C475 51 477 55 477 58 C477 63 476 66 473 68 L448 110 C443 113 439 115 437 115 C432 115 428 114 425 111 C386 84 328 66 268 66 C165 66 122 79 119 263 L468 263 Z M260 480 C347 480 395 464 395 339 L122 339 C130 468 172 480 260 480 L260 480 Z M92 725 C83 725 77 718 77 710 L77 654 C77 644 82 639 92 639 L422 639 C432 639 437 644 437 654 L437 710 C437 718 431 725 422 725 L92 725 Z " />
<glyph glyph-name="Ebreve" unicode="&#x114;" horiz-adv-x="514" d="M66 739 C57 739 52 732 52 725 L52 14 C52 5 57 0 66 0 L461 0 C469 0 476 6 476 14 L476 67 C476 74 469 81 461 81 L148 81 L148 352 L427 352 C436 352 442 359 442 366 L442 418 C442 428 437 433 427 433 L148 433 L148 658 L455 658 C464 658 470 665 470 673 L470 725 C470 732 464 739 455 739 L66 739 Z M265 863 C220 863 206 901 193 946 C189 953 185 957 180 957 C177 957 175 957 174 956 L132 941 C126 938 123 933 123 927 C123 872 174 791 265 791 C355 791 409 872 409 925 C409 932 406 937 401 941 L359 956 C353 956 350 957 350 958 C341 958 337 954 336 946 C325 901 309 863 265 863 L265 863 Z " />
<glyph glyph-name="ebreve" unicode="&#x115;" horiz-adv-x="514" d="M468 263 C478 263 483 268 483 277 L483 301 C483 489 428 557 268 557 C108 557 31 511 31 274 C31 53 103 -11 256 -11 C356 -11 429 12 472 48 C475 51 477 55 477 58 C477 63 476 66 473 68 L448 110 C443 113 439 115 437 115 C432 115 428 114 425 111 C386 84 328 66 268 66 C165 66 122 79 119 263 L468 263 Z M260 480 C347 480 395 464 395 339 L122 339 C130 468 172 480 260 480 L260 480 Z M256 670 C211 670 197 708 184 753 C180 760 176 764 171 764 C168 764 166 764 165 763 L123 748 C117 745 114 740 114 734 C114 679 165 598 256 598 C346 598 400 679 400 732 C400 739 397 744 392 748 L350 763 C344 763 341 764 341 765 C332 765 328 761 327 753 C316 708 300 670 256 670 L256 670 Z " />
<glyph glyph-name="Edotaccent" unicode="&#x116;" horiz-adv-x="514" d="M66 739 C57 739 52 732 52 725 L52 14 C52 5 57 0 66 0 L461 0 C469 0 476 6 476 14 L476 67 C476 74 469 81 461 81 L148 81 L148 352 L427 352 C436 352 442 359 442 366 L442 418 C442 428 437 433 427 433 L148 433 L148 658 L455 658 C464 658 470 665 470 673 L470 725 C470 732 464 739 455 739 L66 739 Z M266 943 C231 943 204 915 204 880 C204 845 231 817 266 817 C302 817 330 845 330 880 C330 915 302 943 266 943 L266 943 Z " />
<glyph glyph-name="edotaccent" unicode="&#x117;" horiz-adv-x="514" d="M468 263 C478 263 483 268 483 277 L483 301 C483 489 428 557 268 557 C108 557 31 511 31 274 C31 53 103 -11 256 -11 C356 -11 429 12 472 48 C475 51 477 55 477 58 C477 63 476 66 473 68 L448 110 C443 113 439 115 437 115 C432 115 428 114 425 111 C386 84 328 66 268 66 C165 66 122 79 119 263 L468 263 Z M260 480 C347 480 395 464 395 339 L122 339 C130 468 172 480 260 480 L260 480 Z M256 750 C221 750 194 722 194 687 C194 652 221 624 256 624 C292 624 320 652 320 687 C320 722 292 750 256 750 L256 750 Z " />
<glyph glyph-name="Eogonek" unicode="&#x118;" horiz-adv-x="514" d="M66 739 C57 739 52 732 52 725 L52 14 C52 5 57 0 66 0 L406 0 L361 -33 C324 -60 299 -91 299 -135 C299 -181 334 -219 392 -219 C434 -219 477 -209 477 -193 C477 -191 476 -187 475 -180 L465 -146 C463 -138 458 -134 451 -134 C443 -134 425 -142 394 -142 C383 -142 364 -129 364 -108 C364 -87 376 -71 403 -50 L467 1 C472 5 476 11 476 17 L476 67 C476 74 469 81 461 81 L148 81 L148 352 L427 352 C436 352 442 359 442 366 L442 418 C442 428 437 433 427 433 L148 433 L148 658 L455 658 C464 658 470 665 470 673 L470 725 C470 732 464 739 455 739 L66 739 Z " />
<glyph glyph-name="eogonek" unicode="&#x119;" horiz-adv-x="514" d="M468 263 C478 263 483 268 483 277 L483 301 C483 489 428 557 268 557 C108 557 31 511 31 274 C31 53 103 -11 256 -11 C287 -11 317 -9 343 -4 C269 -60 244 -91 244 -135 C244 -181 279 -219 337 -219 C379 -219 422 -209 422 -193 C422 -191 421 -187 420 -180 L410 -146 C408 -138 403 -134 396 -134 C388 -134 370 -142 339 -142 C328 -142 309 -129 309 -108 C309 -87 338 -53 472 48 C475 51 477 55 477 58 C477 62 475 65 473 68 L448 110 C445 115 439 115 437 115 C432 115 428 114 425 111 C388 82 328 66 268 66 C165 66 122 79 119 263 L468 263 Z M260 480 C347 480 395 464 395 339 L122 339 C130 468 172 480 260 480 L260 480 Z " />
<glyph glyph-name="Ecaron" unicode="&#x11a;" horiz-adv-x="514" d="M66 739 C57 739 52 732 52 725 L52 14 C52 5 57 0 66 0 L461 0 C469 0 476 6 476 14 L476 67 C476 74 469 81 461 81 L148 81 L148 352 L427 352 C436 352 442 359 442 366 L442 418 C442 428 437 433 427 433 L148 433 L148 658 L455 658 C464 658 470 665 470 673 L470 725 C470 732 464 739 455 739 L66 739 Z M194 954 C192 956 189 957 184 957 C181 957 177 956 175 955 L135 922 C131 918 129 914 129 911 C129 908 131 904 134 901 L242 792 C245 789 248 788 251 788 L296 788 C300 788 303 789 306 792 L414 901 C417 904 418 907 418 911 C418 915 416 919 413 922 L373 955 C372 956 366 957 363 957 C359 957 356 956 354 954 L274 866 L194 954 Z " />
<glyph glyph-name="ecaron" unicode="&#x11b;" horiz-adv-x="514" d="M468 263 C478 263 483 268 483 277 L483 301 C483 489 428 557 268 557 C108 557 31 511 31 274 C31 53 103 -11 256 -11 C356 -11 429 12 472 48 C475 51 477 55 477 58 C477 63 476 66 473 68 L448 110 C443 113 439 115 437 115 C432 115 428 114 425 111 C386 84 328 66 268 66 C165 66 122 79 119 263 L468 263 Z M260 480 C347 480 395 464 395 339 L122 339 C130 468 172 480 260 480 L260 480 Z M177 761 C175 763 172 764 167 764 C164 764 160 763 158 762 L118 729 C114 725 112 721 112 718 C112 715 114 711 117 708 L225 599 C228 596 231 595 234 595 L279 595 C283 595 286 596 289 599 L397 708 C400 711 401 714 401 718 C401 722 399 726 396 729 L356 762 C355 763 349 764 346 764 C342 764 339 763 337 761 L257 673 L177 761 Z " />
<glyph glyph-name="Gcircumflex" unicode="&#x11c;" horiz-adv-x="514" d="M274 672 C362 672 426 655 434 655 C437 655 440 657 443 660 L462 716 C462 719 463 722 464 723 C464 742 321 753 274 753 C86 753 26 654 26 371 C26 80 90 -13 278 -13 C411 -13 473 16 473 47 L473 350 C473 378 459 392 431 392 L256 392 C246 392 241 387 241 378 L241 326 C241 316 246 311 256 311 L382 311 L382 78 C349 71 313 68 278 68 C147 68 118 92 118 371 C118 640 142 672 274 672 L274 672 Z M367 791 C369 789 372 788 376 788 C379 788 385 789 386 790 L426 822 C429 825 431 829 431 833 C431 838 430 841 427 844 L319 952 C316 955 312 957 309 957 L264 957 C261 957 258 955 255 952 L147 844 C144 839 142 835 142 833 C142 830 144 826 148 822 L188 790 C189 789 195 788 197 788 C202 788 205 789 207 791 L287 878 L367 791 Z " />
<glyph glyph-name="gcircumflex" unicode="&#x11d;" horiz-adv-x="514" d="M233 -142 C173 -142 133 -124 96 -97 C93 -94 89 -93 84 -93 C81 -93 77 -95 74 -98 L44 -139 C41 -141 40 -144 40 -149 C40 -152 42 -155 45 -158 C85 -195 148 -219 245 -219 C405 -219 450 -142 450 22 L450 517 C450 536 446 546 423 546 L260 546 C80 546 30 479 30 268 C30 86 82 11 228 11 C288 11 331 27 360 46 L360 23 C360 -124 341 -142 233 -142 L233 -142 Z M247 87 C151 87 118 114 118 278 C118 452 157 470 259 470 L360 470 L360 149 C337 118 295 87 247 87 L247 87 Z M337 598 C339 596 342 595 346 595 C349 595 355 596 356 597 L396 629 C399 632 401 636 401 640 C401 645 400 648 397 651 L289 759 C286 762 282 764 279 764 L234 764 C231 764 228 762 225 759 L117 651 C114 646 112 642 112 640 C112 637 114 633 118 629 L158 597 C159 596 165 595 167 595 C172 595 175 596 177 598 L257 685 L337 598 Z " />
<glyph glyph-name="Gbreve" unicode="&#x11e;" horiz-adv-x="514" d="M274 672 C362 672 426 655 434 655 C437 655 440 657 443 660 L462 716 C462 719 463 722 464 723 C464 742 321 753 274 753 C86 753 26 654 26 371 C26 80 90 -13 278 -13 C411 -13 473 16 473 47 L473 350 C473 378 459 392 431 392 L256 392 C246 392 241 387 241 378 L241 326 C241 316 246 311 256 311 L382 311 L382 78 C349 71 313 68 278 68 C147 68 118 92 118 371 C118 640 142 672 274 672 L274 672 Z M286 863 C241 863 227 901 214 946 C210 953 206 957 201 957 C198 957 196 957 195 956 L153 941 C147 938 144 933 144 927 C144 872 195 791 286 791 C376 791 430 872 430 925 C430 932 427 937 422 941 L380 956 C374 956 371 957 371 958 C362 958 358 954 357 946 C346 901 330 863 286 863 L286 863 Z " />
<glyph glyph-name="gbreve" unicode="&#x11f;" horiz-adv-x="514" d="M233 -142 C173 -142 133 -124 96 -97 C93 -94 89 -93 84 -93 C81 -93 77 -95 74 -98 L44 -139 C41 -141 40 -144 40 -149 C40 -152 42 -155 45 -158 C85 -195 148 -219 245 -219 C405 -219 450 -142 450 22 L450 517 C450 536 446 546 423 546 L260 546 C80 546 30 479 30 268 C30 86 82 11 228 11 C288 11 331 27 360 46 L360 23 C360 -124 341 -142 233 -142 L233 -142 Z M247 87 C151 87 118 114 118 278 C118 452 157 470 259 470 L360 470 L360 149 C337 118 295 87 247 87 L247 87 Z M256 670 C211 670 197 708 184 753 C180 760 176 764 171 764 C168 764 166 764 165 763 L123 748 C117 745 114 740 114 734 C114 679 165 598 256 598 C346 598 400 679 400 732 C400 739 397 744 392 748 L350 763 C344 763 341 764 341 765 C332 765 328 761 327 753 C316 708 300 670 256 670 L256 670 Z " />
<glyph glyph-name="Gdotaccent" unicode="&#x120;" horiz-adv-x="514" d="M274 672 C362 672 426 655 434 655 C437 655 440 657 443 660 L462 716 C462 719 463 722 464 723 C464 742 321 753 274 753 C86 753 26 654 26 371 C26 80 90 -13 278 -13 C411 -13 473 16 473 47 L473 350 C473 378 459 392 431 392 L256 392 C246 392 241 387 241 378 L241 326 C241 316 246 311 256 311 L382 311 L382 78 C349 71 313 68 278 68 C147 68 118 92 118 371 C118 640 142 672 274 672 L274 672 Z M271 943 C236 943 209 915 209 880 C209 845 236 817 271 817 C307 817 335 845 335 880 C335 915 307 943 271 943 L271 943 Z " />
<glyph glyph-name="gdotaccent" unicode="&#x121;" horiz-adv-x="514" d="M233 -142 C173 -142 133 -124 96 -97 C93 -94 89 -93 84 -93 C81 -93 77 -95 74 -98 L44 -139 C41 -141 40 -144 40 -149 C40 -152 42 -155 45 -158 C85 -195 148 -219 245 -219 C405 -219 450 -142 450 22 L450 517 C450 536 446 546 423 546 L260 546 C80 546 30 479 30 268 C30 86 82 11 228 11 C288 11 331 27 360 46 L360 23 C360 -124 341 -142 233 -142 L233 -142 Z M247 87 C151 87 118 114 118 278 C118 452 157 470 259 470 L360 470 L360 149 C337 118 295 87 247 87 L247 87 Z M256 750 C221 750 194 722 194 687 C194 652 221 624 256 624 C292 624 320 652 320 687 C320 722 292 750 256 750 L256 750 Z " />
<glyph glyph-name="Gcommaaccent" unicode="&#x122;" horiz-adv-x="514" d="M274 672 C362 672 426 655 434 655 C437 655 440 657 443 660 L462 716 C462 719 463 722 464 723 C464 742 321 753 274 753 C86 753 26 654 26 371 C26 80 90 -13 278 -13 C411 -13 473 16 473 47 L473 350 C473 378 459 392 431 392 L256 392 C246 392 241 387 241 378 L241 326 C241 316 246 311 256 311 L382 311 L382 78 C349 71 313 68 278 68 C147 68 118 92 118 371 C118 640 142 672 274 672 L274 672 Z M244 -46 C235 -46 230 -50 229 -58 C223 -105 210 -142 199 -163 C191 -176 191 -179 191 -183 C191 -187 192 -191 196 -194 L224 -216 C226 -218 229 -219 233 -219 C236 -219 240 -217 243 -214 C282 -179 322 -108 322 -59 C322 -52 315 -46 308 -46 L244 -46 Z " />
<glyph glyph-name="gcommaaccent" unicode="&#x123;" horiz-adv-x="514" d="M233 -142 C173 -142 133 -124 96 -97 C93 -94 89 -93 84 -93 C81 -93 77 -95 74 -98 L44 -139 C41 -141 40 -144 40 -149 C40 -152 42 -155 45 -158 C85 -195 148 -219 245 -219 C405 -219 450 -142 450 22 L450 517 C450 536 446 546 423 546 L260 546 C80 546 30 479 30 268 C30 86 82 11 228 11 C288 11 331 27 360 46 L360 23 C360 -124 341 -142 233 -142 L233 -142 Z M247 87 C151 87 118 114 118 278 C118 452 157 470 259 470 L360 470 L360 149 C337 118 295 87 247 87 L247 87 Z M280 604 C289 604 294 608 295 616 C301 663 314 700 325 721 C333 734 333 737 333 741 C333 745 332 749 328 752 L300 774 C298 776 295 777 291 777 C288 777 284 775 281 772 C242 737 202 666 202 617 C202 610 209 604 216 604 L280 604 Z " />
<glyph glyph-name="Hcircumflex" unicode="&#x124;" horiz-adv-x="514" d="M60 739 C51 739 46 732 46 725 L46 14 C46 5 51 0 60 0 L128 0 C135 0 142 6 142 14 L142 345 L368 345 L368 14 C368 6 375 0 382 0 L450 0 C459 0 464 5 464 14 L464 725 C464 732 459 739 450 739 L382 739 C375 739 368 732 368 725 L368 425 L142 425 L142 725 C142 732 135 739 128 739 L60 739 Z M337 791 C339 789 342 788 346 788 C349 788 355 789 356 790 L396 822 C399 825 401 829 401 833 C401 838 400 841 397 844 L289 952 C286 955 282 957 279 957 L234 957 C231 957 228 955 225 952 L117 844 C114 839 112 835 112 833 C112 830 114 826 118 822 L158 790 C159 789 165 788 167 788 C172 788 175 789 177 791 L257 878 L337 791 Z " />
<glyph glyph-name="hcircumflex" unicode="&#x125;" horiz-adv-x="514" d="M446 0 C453 0 460 6 460 14 L460 421 C460 501 430 557 351 557 C283 557 229 536 153 475 L153 762 C153 770 147 777 138 777 L78 777 C69 777 63 770 63 762 L63 14 C63 5 68 0 78 0 L138 0 C148 0 153 5 153 14 L153 379 C229 458 291 480 324 480 C352 480 369 464 369 428 L369 14 C369 6 376 0 384 0 L446 0 Z M257 791 C259 789 262 788 266 788 C269 788 275 789 276 790 L316 822 C319 825 321 829 321 833 C321 838 320 841 317 844 L209 952 C206 955 202 957 199 957 L154 957 C151 957 148 955 145 952 L37 844 C34 839 32 835 32 833 C32 830 34 826 38 822 L78 790 C79 789 85 788 87 788 C92 788 95 789 97 791 L177 878 L257 791 Z " />
<glyph glyph-name="Hbar" unicode="&#x126;" horiz-adv-x="514" d="M60 739 C51 739 46 732 46 725 L46 14 C46 5 51 0 60 0 L128 0 C135 0 142 6 142 14 L142 345 L368 345 L368 14 C368 6 375 0 382 0 L450 0 C459 0 464 5 464 14 L464 725 C464 732 459 739 450 739 L382 739 C375 739 368 732 368 725 L368 619 L142 619 L142 725 C142 732 135 739 128 739 L60 739 Z M142 425 L142 533 L368 533 L368 425 L142 425 Z " />
<glyph glyph-name="hbar" unicode="&#x127;" horiz-adv-x="514" d="M15 725 C6 725 0 718 0 710 L0 654 C0 644 5 639 15 639 L63 639 L63 14 C63 5 68 0 78 0 L138 0 C148 0 153 5 153 14 L153 379 C229 458 291 480 324 480 C352 480 369 464 369 428 L369 14 C369 6 376 0 384 0 L446 0 C453 0 460 6 460 14 L460 421 C460 501 430 557 351 557 C283 557 229 536 153 475 L153 639 L345 639 C355 639 360 644 360 654 L360 710 C360 718 354 725 345 725 L153 725 L153 762 C153 770 147 777 138 777 L78 777 C69 777 63 770 63 762 L63 725 L15 725 Z " />
<glyph glyph-name="Itilde" unicode="&#x128;" horiz-adv-x="514" d="M429 0 C438 0 443 5 443 14 L443 66 C443 76 438 81 429 81 L305 81 L305 658 L424 658 C433 658 438 663 438 673 L438 725 C438 734 433 739 424 739 L85 739 C76 739 71 734 71 725 L71 673 C71 663 76 658 85 658 L209 658 L209 81 L90 81 C81 81 76 76 76 66 L76 14 C76 5 81 0 90 0 L429 0 Z M332 820 C372 820 416 860 416 904 C416 910 414 914 409 917 L371 938 C368 939 365 941 362 941 C343 941 352 893 321 893 C283 893 240 941 182 941 C142 941 98 901 98 857 C98 850 100 846 105 844 L143 822 C146 821 153 821 153 820 C170 820 162 867 194 867 C232 864 271 820 332 820 L332 820 Z " />
<glyph glyph-name="itilde" unicode="&#x129;" horiz-adv-x="514" d="M105 485 C105 475 110 470 119 470 L266 470 L266 14 C266 5 271 0 282 0 L343 0 C352 0 357 5 357 14 L357 532 C357 541 352 546 343 546 L119 546 C110 546 105 541 105 532 L105 485 Z M332 627 C372 627 416 667 416 711 C416 717 414 721 409 724 L371 745 C368 746 365 748 362 748 C343 748 352 700 321 700 C283 700 240 748 182 748 C142 748 98 708 98 664 C98 657 100 653 105 651 L143 629 C146 628 153 628 153 627 C170 627 162 674 194 674 C232 671 271 627 332 627 L332 627 Z " />
<glyph glyph-name="uni012A" unicode="&#x12a;" horiz-adv-x="514" d="M429 0 C438 0 443 5 443 14 L443 66 C443 76 438 81 429 81 L305 81 L305 658 L424 658 C433 658 438 663 438 673 L438 725 C438 734 433 739 424 739 L85 739 C76 739 71 734 71 725 L71 673 C71 663 76 658 85 658 L209 658 L209 81 L90 81 C81 81 76 76 76 66 L76 14 C76 5 81 0 90 0 L429 0 Z M92 918 C83 918 77 911 77 903 L77 847 C77 837 82 832 92 832 L422 832 C432 832 437 837 437 847 L437 903 C437 911 431 918 422 918 L92 918 Z " />
<glyph glyph-name="imacron" unicode="&#x12b;" horiz-adv-x="514" d="M105 485 C105 475 110 470 119 470 L266 470 L266 14 C266 5 271 0 282 0 L343 0 C352 0 357 5 357 14 L357 532 C357 541 352 546 343 546 L119 546 C110 546 105 541 105 532 L105 485 Z M92 725 C83 725 77 718 77 710 L77 654 C77 644 82 639 92 639 L422 639 C432 639 437 644 437 654 L437 710 C437 718 431 725 422 725 L92 725 Z " />
<glyph glyph-name="Ibreve" unicode="&#x12c;" horiz-adv-x="514" d="M429 0 C438 0 443 5 443 14 L443 66 C443 76 438 81 429 81 L305 81 L305 658 L424 658 C433 658 438 663 438 673 L438 725 C438 734 433 739 424 739 L85 739 C76 739 71 734 71 725 L71 673 C71 663 76 658 85 658 L209 658 L209 81 L90 81 C81 81 76 76 76 66 L76 14 C76 5 81 0 90 0 L429 0 Z M256 863 C211 863 197 901 184 946 C180 953 176 957 171 957 C168 957 166 957 165 956 L123 941 C117 938 114 933 114 927 C114 872 165 791 256 791 C346 791 400 872 400 925 C400 932 397 937 392 941 L350 956 C344 956 341 957 341 958 C332 958 328 954 327 946 C316 901 300 863 256 863 L256 863 Z " />
<glyph glyph-name="uni012D" unicode="&#x12d;" horiz-adv-x="514" d="M105 485 C105 475 110 470 119 470 L266 470 L266 14 C266 5 271 0 282 0 L343 0 C352 0 357 5 357 14 L357 532 C357 541 352 546 343 546 L119 546 C110 546 105 541 105 532 L105 485 Z M256 670 C211 670 197 708 184 753 C180 760 176 764 171 764 C168 764 166 764 165 763 L123 748 C117 745 114 740 114 734 C114 679 165 598 256 598 C346 598 400 679 400 732 C400 739 397 744 392 748 L350 763 C344 763 341 764 341 765 C332 765 328 761 327 753 C316 708 300 670 256 670 L256 670 Z " />
<glyph glyph-name="Iogonek" unicode="&#x12e;" horiz-adv-x="514" d="M429 0 C438 0 443 5 443 14 L443 66 C443 76 438 81 429 81 L305 81 L305 658 L424 658 C433 658 438 663 438 673 L438 725 C438 734 433 739 424 739 L85 739 C76 739 71 734 71 725 L71 673 C71 663 76 658 85 658 L209 658 L209 81 L90 81 C81 81 76 76 76 66 L76 14 C76 5 81 0 90 0 L245 0 L200 -33 C163 -60 138 -91 138 -135 C138 -181 173 -219 231 -219 C273 -219 316 -209 316 -193 C316 -191 315 -187 314 -180 L304 -146 C302 -138 297 -134 290 -134 C282 -134 264 -142 233 -142 C222 -142 203 -129 203 -108 C203 -87 215 -71 242 -50 L305 0 L429 0 Z " />
<glyph glyph-name="iogonek" unicode="&#x12f;" horiz-adv-x="514" d="M352 3 C355 5 357 9 357 14 L357 532 C357 541 352 546 343 546 L119 546 C110 546 105 541 105 532 L105 485 C105 475 110 470 119 470 L266 470 L266 14 C266 5 271 0 282 0 L288 0 L243 -33 C206 -60 181 -91 181 -135 C181 -181 216 -219 274 -219 C316 -219 359 -209 359 -193 C359 -191 358 -187 357 -180 L347 -146 C345 -138 340 -134 333 -134 C325 -134 307 -142 276 -142 C265 -142 246 -129 246 -108 C246 -87 258 -71 285 -50 L352 3 Z " />
<glyph glyph-name="Idotaccent" unicode="&#x130;" horiz-adv-x="514" d="M429 0 C438 0 443 5 443 14 L443 66 C443 76 438 81 429 81 L305 81 L305 658 L424 658 C433 658 438 663 438 673 L438 725 C438 734 433 739 424 739 L85 739 C76 739 71 734 71 725 L71 673 C71 663 76 658 85 658 L209 658 L209 81 L90 81 C81 81 76 76 76 66 L76 14 C76 5 81 0 90 0 L429 0 Z M256 943 C221 943 194 915 194 880 C194 845 221 817 256 817 C292 817 320 845 320 880 C320 915 292 943 256 943 L256 943 Z " />
<glyph glyph-name="dotlessi" unicode="&#x131;" horiz-adv-x="514" d="M105 485 C105 475 110 470 119 470 L266 470 L266 14 C266 5 271 0 282 0 L343 0 C352 0 357 5 357 14 L357 532 C357 541 352 546 343 546 L119 546 C110 546 105 541 105 532 L105 485 Z " />
<glyph glyph-name="IJ" unicode="&#x132;" horiz-adv-x="514" d="M190 0 C199 0 204 5 204 14 L204 66 C204 76 199 81 190 81 L152 81 L152 658 L185 658 C194 658 199 663 199 673 L199 725 C199 734 194 739 185 739 L21 739 C12 739 7 734 7 725 L7 673 C7 663 12 658 21 658 L56 658 L56 81 L21 81 C12 81 7 76 7 66 L7 14 C7 5 12 0 21 0 L190 0 Z M302 739 C293 739 286 732 286 725 L286 673 C286 665 293 658 302 658 L416 658 L416 217 C416 83 387 68 338 68 C309 68 288 77 270 94 C267 97 265 98 262 98 C259 98 256 96 254 93 L228 51 C225 45 225 43 225 38 C225 26 276 -13 338 -13 C468 -13 512 54 512 216 L512 725 C512 732 506 739 498 739 L302 739 Z " />
<glyph glyph-name="ij" unicode="&#x133;" horiz-adv-x="514" d="M271 485 C271 475 276 470 285 470 L373 470 L373 -60 C373 -134 322 -142 294 -142 C182 -142 182 -129 165 -129 C158 -129 153 -133 151 -140 L141 -175 C140 -182 139 -185 139 -188 C139 -212 264 -219 296 -219 C412 -219 464 -142 464 -54 L464 532 C464 541 459 546 450 546 L285 546 C276 546 271 541 271 532 L271 485 Z M407 777 C370 777 341 748 341 712 C341 676 370 647 407 647 C446 647 474 676 474 712 C474 748 446 777 407 777 L407 777 Z M39 485 C39 475 44 470 53 470 L130 470 L130 14 C130 5 135 0 146 0 L207 0 C216 0 221 5 221 14 L221 532 C221 541 216 546 207 546 L53 546 C44 546 39 541 39 532 L39 485 Z M165 777 C128 777 98 748 98 712 C98 676 128 647 165 647 C204 647 232 676 232 712 C232 748 204 777 165 777 L165 777 Z " />
<glyph glyph-name="Jcircumflex" unicode="&#x134;" horiz-adv-x="514" d="M222 739 C213 739 206 732 206 725 L206 673 C206 665 213 658 222 658 L366 658 L366 298 C366 93 338 68 228 68 C172 68 117 75 100 94 C97 97 95 98 92 98 C89 98 86 96 84 93 L59 49 C56 46 55 43 55 38 C55 19 103 -13 228 -13 C416 -13 462 79 462 298 L462 725 C462 732 456 739 448 739 L222 739 Z M400 791 C402 789 405 788 409 788 C412 788 418 789 419 790 L459 822 C462 825 464 829 464 833 C464 838 463 841 460 844 L352 952 C349 955 345 957 342 957 L297 957 C294 957 291 955 288 952 L180 844 C177 839 175 835 175 833 C175 830 177 826 181 822 L221 790 C222 789 228 788 230 788 C235 788 238 789 240 791 L320 878 L400 791 Z " />
<glyph glyph-name="jcircumflex" unicode="&#x135;" horiz-adv-x="514" d="M134 485 C134 475 139 470 148 470 L306 470 L306 -60 C306 -134 255 -142 227 -142 C115 -142 115 -129 98 -129 C91 -129 86 -133 84 -140 L74 -175 C73 -182 72 -185 72 -188 C72 -212 197 -219 229 -219 C345 -219 397 -142 397 -54 L397 532 C397 541 392 546 383 546 L148 546 C139 546 134 541 134 532 L134 485 Z M337 598 C339 596 342 595 346 595 C349 595 355 596 356 597 L396 629 C399 632 401 636 401 640 C401 645 400 648 397 651 L289 759 C286 762 282 764 279 764 L234 764 C231 764 228 762 225 759 L117 651 C114 646 112 642 112 640 C112 637 114 633 118 629 L158 597 C159 596 165 595 167 595 C172 595 175 596 177 598 L257 685 L337 598 Z " />
<glyph glyph-name="Kcommaaccent" unicode="&#x136;" horiz-adv-x="514" d="M405 5 C407 2 410 0 414 0 L498 0 C507 0 512 4 512 12 C512 17 511 21 508 24 L302 404 L490 714 C493 717 495 721 495 725 C495 734 490 739 481 739 L410 739 C398 739 385 731 380 720 L220 430 L142 430 L142 725 C142 734 137 739 128 739 L60 739 C51 739 46 734 46 725 L46 14 C46 5 51 0 60 0 L128 0 C137 0 142 5 142 14 L142 353 L229 353 L405 5 Z M244 -46 C235 -46 230 -50 229 -58 C223 -105 210 -142 199 -163 C191 -176 191 -179 191 -183 C191 -187 192 -191 196 -194 L224 -216 C226 -218 229 -219 233 -219 C236 -219 240 -217 243 -214 C282 -179 322 -108 322 -59 C322 -52 315 -46 308 -46 L244 -46 Z " />
<glyph glyph-name="kcommaaccent" unicode="&#x137;" horiz-adv-x="514" d="M376 5 C378 2 381 0 385 0 L462 0 C471 0 475 4 475 11 C475 14 473 18 470 23 L268 309 L441 518 C447 525 450 531 450 536 C450 543 446 546 437 546 L371 546 C358 546 349 540 342 528 L196 336 L125 336 L125 764 C125 773 120 777 111 777 L48 777 C39 777 35 773 35 764 L35 13 C35 4 39 0 48 0 L111 0 C120 0 125 4 125 13 L125 263 L200 263 L376 5 Z M244 -46 C235 -46 230 -50 229 -58 C223 -105 210 -142 199 -163 C191 -176 191 -179 191 -183 C191 -187 192 -191 196 -194 L224 -216 C226 -218 229 -219 233 -219 C236 -219 240 -217 243 -214 C282 -179 322 -108 322 -59 C322 -52 315 -46 308 -46 L244 -46 Z " />
<glyph glyph-name="Lacute" unicode="&#x139;" horiz-adv-x="514" d="M70 739 C61 739 56 732 56 725 L56 14 C56 5 61 0 70 0 L469 0 C478 0 483 5 483 14 L483 67 C483 74 477 81 469 81 L152 81 L152 725 C152 732 145 739 138 739 L70 739 Z M192 951 C189 955 185 957 180 957 C177 957 174 956 171 954 L40 844 C37 841 35 837 35 834 C35 829 36 826 39 823 L65 794 C68 791 71 790 76 790 C78 790 81 791 85 793 L230 878 C235 881 237 885 237 891 C237 894 236 897 234 900 L192 951 Z " />
<glyph glyph-name="lacute" unicode="&#x13a;" horiz-adv-x="514" d="M98 716 C98 706 103 701 112 701 L259 701 L259 14 C259 5 264 0 275 0 L336 0 C345 0 350 5 350 14 L350 763 C350 772 345 777 336 777 L112 777 C103 777 98 772 98 763 L98 716 Z M356 951 C353 955 349 957 344 957 C341 957 338 956 335 954 L204 844 C201 841 199 837 199 834 C199 829 200 826 203 823 L229 794 C232 791 235 790 240 790 C242 790 245 791 249 793 L394 878 C399 881 401 885 401 891 C401 894 400 897 398 900 L356 951 Z " />
<glyph glyph-name="Lcommaaccent" unicode="&#x13b;" horiz-adv-x="514" d="M70 739 C61 739 56 732 56 725 L56 14 C56 5 61 0 70 0 L469 0 C478 0 483 5 483 14 L483 67 C483 74 477 81 469 81 L152 81 L152 725 C152 732 145 739 138 739 L70 739 Z M244 -46 C235 -46 230 -50 229 -58 C223 -105 210 -142 199 -163 C191 -176 191 -179 191 -183 C191 -187 192 -191 196 -194 L224 -216 C226 -218 229 -219 233 -219 C236 -219 240 -217 243 -214 C282 -179 322 -108 322 -59 C322 -52 315 -46 308 -46 L244 -46 Z " />
<glyph glyph-name="lcommaaccent" unicode="&#x13c;" horiz-adv-x="514" d="M98 716 C98 706 103 701 112 701 L259 701 L259 14 C259 5 264 0 275 0 L336 0 C345 0 350 5 350 14 L350 763 C350 772 345 777 336 777 L112 777 C103 777 98 772 98 763 L98 716 Z M272 -46 C263 -46 258 -50 257 -58 C251 -105 238 -142 227 -163 C219 -176 219 -179 219 -183 C219 -187 220 -191 224 -194 L252 -216 C254 -218 257 -219 261 -219 C264 -219 268 -217 271 -214 C310 -179 350 -108 350 -59 C350 -52 343 -46 336 -46 L272 -46 Z " />
<glyph glyph-name="Lcaron" unicode="&#x13d;" horiz-adv-x="514" d="M70 739 C61 739 56 732 56 725 L56 14 C56 5 61 0 70 0 L469 0 C478 0 483 5 483 14 L483 67 C483 74 477 81 469 81 L152 81 L152 725 C152 732 145 739 138 739 L70 739 Z M205 525 C204 520 203 516 203 512 C203 504 206 498 218 493 L241 484 C244 483 251 483 251 482 C258 482 264 485 267 491 L368 734 C369 735 369 736 369 739 C369 746 366 750 359 752 L297 773 C292 776 286 777 279 777 C271 777 267 774 266 767 L205 525 Z " />
<glyph glyph-name="lcaron" unicode="&#x13e;" horiz-adv-x="514" d="M59 716 C59 706 64 701 73 701 L220 701 L220 14 C220 5 225 0 236 0 L297 0 C306 0 311 5 311 14 L311 763 C311 772 306 777 297 777 L73 777 C64 777 59 772 59 763 L59 716 Z M350 525 C349 520 348 516 348 512 C348 504 351 498 363 493 L386 484 C389 483 396 483 396 482 C403 482 409 485 412 491 L513 734 C514 735 514 736 514 739 C514 746 511 750 504 752 L442 773 C437 776 431 777 424 777 C416 777 412 774 411 767 L350 525 Z " />
<glyph glyph-name="Ldot" unicode="&#x13f;" horiz-adv-x="514" d="M70 739 C61 739 56 732 56 725 L56 14 C56 5 61 0 70 0 L469 0 C478 0 483 5 483 14 L483 67 C483 74 477 81 469 81 L152 81 L152 725 C152 732 145 739 138 739 L70 739 Z M269 450 C232 450 205 422 205 383 C205 347 232 317 269 317 C305 317 332 347 332 383 C332 422 305 450 269 450 L269 450 Z " />
<glyph glyph-name="ldot" unicode="&#x140;" horiz-adv-x="514" d="M98 716 C98 706 103 701 112 701 L259 701 L259 14 C259 5 264 0 275 0 L336 0 C345 0 350 5 350 14 L350 763 C350 772 345 777 336 777 L112 777 C103 777 98 772 98 763 L98 716 Z M451 465 C414 465 387 437 387 398 C387 362 414 332 451 332 C487 332 514 362 514 398 C514 437 487 465 451 465 L451 465 Z " />
<glyph glyph-name="Lslash" unicode="&#x141;" horiz-adv-x="514" d="M64 739 C55 739 50 732 50 725 L50 14 C50 5 55 0 64 0 L463 0 C472 0 477 5 477 14 L477 67 C477 74 471 81 463 81 L146 81 L146 317 L290 402 C295 404 297 408 297 413 C297 414 296 416 294 419 L270 461 C269 464 265 466 260 466 C258 466 255 465 251 463 L146 402 L146 725 C146 732 139 739 132 739 L64 739 Z " />
<glyph glyph-name="lslash" unicode="&#x142;" horiz-adv-x="514" d="M98 716 C98 706 103 701 112 701 L259 701 L259 401 L128 325 C124 323 122 320 122 316 C122 313 124 308 127 303 L149 267 C152 263 155 261 158 261 C163 261 168 263 173 266 L259 316 L259 14 C259 5 264 0 275 0 L336 0 C345 0 350 5 350 14 L350 369 L473 441 C477 443 479 446 479 450 C479 453 477 458 474 463 L452 500 C451 503 447 505 442 505 C439 505 437 504 434 502 L350 453 L350 763 C350 772 345 777 336 777 L112 777 C103 777 98 772 98 763 L98 716 Z " />
<glyph glyph-name="Nacute" unicode="&#x143;" horiz-adv-x="514" d="M46 14 C46 5 51 0 60 0 L122 0 C131 0 136 5 136 14 L136 661 L160 661 L276 8 C278 3 282 0 289 0 L449 0 C459 0 464 5 464 14 L464 725 C464 734 459 739 449 739 L390 739 C380 739 375 734 375 725 L375 76 L351 76 L237 731 C236 736 232 739 225 739 L60 739 C51 739 46 734 46 725 L46 14 Z M343 951 C340 955 336 957 331 957 C328 957 325 956 322 954 L191 844 C188 841 186 837 186 834 C186 829 187 826 190 823 L216 794 C219 791 222 790 227 790 C229 790 232 791 236 793 L381 878 C386 881 388 885 388 891 C388 894 387 897 385 900 L343 951 Z " />
<glyph glyph-name="nacute" unicode="&#x144;" horiz-adv-x="514" d="M446 0 C453 0 460 6 460 14 L460 421 C460 509 425 557 341 557 C290 557 223 538 147 470 C142 497 131 546 112 546 L78 546 C68 546 63 541 63 531 L63 14 C63 5 68 0 78 0 L138 0 C148 0 153 5 153 14 L153 378 C229 458 291 480 324 480 C354 480 369 461 369 422 L369 14 C369 6 376 0 384 0 L446 0 Z M343 758 C340 762 336 764 331 764 C328 764 325 763 322 761 L191 651 C188 648 186 644 186 641 C186 636 187 633 190 630 L216 601 C219 598 222 597 227 597 C229 597 232 598 236 600 L381 685 C386 688 388 692 388 698 C388 701 387 704 385 707 L343 758 Z " />
<glyph glyph-name="Ncommaaccent" unicode="&#x145;" horiz-adv-x="514" d="M46 14 C46 5 51 0 60 0 L122 0 C131 0 136 5 136 14 L136 661 L160 661 L276 8 C278 3 282 0 289 0 L449 0 C459 0 464 5 464 14 L464 725 C464 734 459 739 449 739 L390 739 C380 739 375 734 375 725 L375 76 L351 76 L237 731 C236 736 232 739 225 739 L60 739 C51 739 46 734 46 725 L46 14 Z M244 -46 C235 -46 230 -50 229 -58 C223 -105 210 -142 199 -163 C191 -176 191 -179 191 -183 C191 -187 192 -191 196 -194 L224 -216 C226 -218 229 -219 233 -219 C236 -219 240 -217 243 -214 C282 -179 322 -108 322 -59 C322 -52 315 -46 308 -46 L244 -46 Z " />
<glyph glyph-name="ncommaaccent" unicode="&#x146;" horiz-adv-x="514" d="M446 0 C453 0 460 6 460 14 L460 421 C460 509 425 557 341 557 C290 557 223 538 147 470 C142 497 131 546 112 546 L78 546 C68 546 63 541 63 531 L63 14 C63 5 68 0 78 0 L138 0 C148 0 153 5 153 14 L153 378 C229 458 291 480 324 480 C354 480 369 461 369 422 L369 14 C369 6 376 0 384 0 L446 0 Z M244 -46 C235 -46 230 -50 229 -58 C223 -105 210 -142 199 -163 C191 -176 191 -179 191 -183 C191 -187 192 -191 196 -194 L224 -216 C226 -218 229 -219 233 -219 C236 -219 240 -217 243 -214 C282 -179 322 -108 322 -59 C322 -52 315 -46 308 -46 L244 -46 Z " />
<glyph glyph-name="Ncaron" unicode="&#x147;" horiz-adv-x="514" d="M46 14 C46 5 51 0 60 0 L122 0 C131 0 136 5 136 14 L136 661 L160 661 L276 8 C278 3 282 0 289 0 L449 0 C459 0 464 5 464 14 L464 725 C464 734 459 739 449 739 L390 739 C380 739 375 734 375 725 L375 76 L351 76 L237 731 C236 736 232 739 225 739 L60 739 C51 739 46 734 46 725 L46 14 Z M177 954 C175 956 172 957 167 957 C164 957 160 956 158 955 L118 922 C114 918 112 914 112 911 C112 908 114 904 117 901 L225 792 C228 789 231 788 234 788 L279 788 C283 788 286 789 289 792 L397 901 C400 904 401 907 401 911 C401 915 399 919 396 922 L356 955 C355 956 349 957 346 957 C342 957 339 956 337 954 L257 866 L177 954 Z " />
<glyph glyph-name="ncaron" unicode="&#x148;" horiz-adv-x="514" d="M446 0 C453 0 460 6 460 14 L460 421 C460 509 425 557 341 557 C290 557 223 538 147 470 C142 497 131 546 112 546 L78 546 C68 546 63 541 63 531 L63 14 C63 5 68 0 78 0 L138 0 C148 0 153 5 153 14 L153 378 C229 458 291 480 324 480 C354 480 369 461 369 422 L369 14 C369 6 376 0 384 0 L446 0 Z M177 761 C175 763 172 764 167 764 C164 764 160 763 158 762 L118 729 C114 725 112 721 112 718 C112 715 114 711 117 708 L225 599 C228 596 231 595 234 595 L279 595 C283 595 286 596 289 599 L397 708 C400 711 401 714 401 718 C401 722 399 726 396 729 L356 762 C355 763 349 764 346 764 C342 764 339 763 337 761 L257 673 L177 761 Z " />
<glyph glyph-name="Eng" unicode="&#x14a;" horiz-adv-x="514" d="M46 14 C46 5 51 0 60 0 L122 0 C131 0 136 5 136 14 L136 661 L160 661 L276 8 C278 3 282 0 289 0 L375 0 L375 -60 C375 -134 322 -142 294 -142 C182 -142 182 -129 165 -129 C158 -129 153 -133 151 -140 L141 -175 C140 -182 139 -185 139 -188 C139 -212 264 -219 296 -219 C412 -219 464 -142 464 -54 L464 725 C464 734 459 739 449 739 L390 739 C380 739 375 734 375 725 L375 76 L351 76 L237 731 C236 736 232 739 225 739 L60 739 C51 739 46 734 46 725 L46 14 Z " />
<glyph glyph-name="eng" unicode="&#x14b;" horiz-adv-x="514" d="M460 421 C460 509 425 557 341 557 C290 557 223 538 147 470 C142 497 131 546 112 546 L78 546 C68 546 63 541 63 531 L63 14 C63 5 68 0 78 0 L138 0 C148 0 153 5 153 14 L153 378 C229 458 291 480 324 480 C354 480 369 461 369 422 L369 -60 C369 -134 318 -142 290 -142 C178 -142 178 -129 161 -129 C154 -129 149 -133 147 -140 L137 -175 C136 -182 135 -185 135 -188 C135 -212 260 -219 292 -219 C408 -219 460 -142 460 -54 L460 421 Z " />
<glyph glyph-name="Omacron" unicode="&#x14c;" horiz-adv-x="514" d="M257 753 C82 753 26 660 26 369 C26 79 82 -13 257 -13 C433 -13 489 79 489 369 C489 660 433 753 257 753 L257 753 Z M257 672 C369 672 396 646 396 369 C396 92 369 68 257 68 C145 68 118 92 118 369 C118 646 145 672 257 672 L257 672 Z M92 918 C83 918 77 911 77 903 L77 847 C77 837 82 832 92 832 L422 832 C432 832 437 837 437 847 L437 903 C437 911 431 918 422 918 L92 918 Z " />
<glyph glyph-name="omacron" unicode="&#x14d;" horiz-adv-x="514" d="M257 557 C75 557 29 483 29 273 C29 61 74 -11 257 -11 C441 -11 484 61 484 273 C484 483 438 557 257 557 L257 557 Z M257 480 C363 480 396 453 396 273 C396 93 363 66 257 66 C152 66 117 90 117 273 C117 454 152 480 257 480 L257 480 Z M92 725 C83 725 77 718 77 710 L77 654 C77 644 82 639 92 639 L422 639 C432 639 437 644 437 654 L437 710 C437 718 431 725 422 725 L92 725 Z " />
<glyph glyph-name="Obreve" unicode="&#x14e;" horiz-adv-x="514" d="M257 753 C82 753 26 660 26 369 C26 79 82 -13 257 -13 C433 -13 489 79 489 369 C489 660 433 753 257 753 L257 753 Z M257 672 C369 672 396 646 396 369 C396 92 369 68 257 68 C145 68 118 92 118 369 C118 646 145 672 257 672 L257 672 Z M256 863 C211 863 197 901 184 946 C180 953 176 957 171 957 C168 957 166 957 165 956 L123 941 C117 938 114 933 114 927 C114 872 165 791 256 791 C346 791 400 872 400 925 C400 932 397 937 392 941 L350 956 C344 956 341 957 341 958 C332 958 328 954 327 946 C316 901 300 863 256 863 L256 863 Z " />
<glyph glyph-name="obreve" unicode="&#x14f;" horiz-adv-x="514" d="M257 557 C75 557 29 483 29 273 C29 61 74 -11 257 -11 C441 -11 484 61 484 273 C484 483 438 557 257 557 L257 557 Z M257 480 C363 480 396 453 396 273 C396 93 363 66 257 66 C152 66 117 90 117 273 C117 454 152 480 257 480 L257 480 Z M256 670 C211 670 197 708 184 753 C180 760 176 764 171 764 C168 764 166 764 165 763 L123 748 C117 745 114 740 114 734 C114 679 165 598 256 598 C346 598 400 679 400 732 C400 739 397 744 392 748 L350 763 C344 763 341 764 341 765 C332 765 328 761 327 753 C316 708 300 670 256 670 L256 670 Z " />
<glyph glyph-name="Ohungarumlaut" unicode="&#x150;" horiz-adv-x="514" d="M257 753 C82 753 26 660 26 369 C26 79 82 -13 257 -13 C433 -13 489 79 489 369 C489 660 433 753 257 753 L257 753 Z M257 672 C369 672 396 646 396 369 C396 92 369 68 257 68 C145 68 118 92 118 369 C118 646 145 672 257 672 L257 672 Z M426 957 C423 957 419 955 416 952 L312 844 C308 840 306 836 306 832 C306 827 308 823 313 821 L343 799 C345 797 348 796 351 796 C355 796 359 798 362 801 L469 904 C472 907 473 910 473 914 C473 917 471 921 468 924 L435 954 C432 956 429 957 426 957 L426 957 Z M248 957 C243 957 239 955 236 951 L144 843 C141 840 140 837 140 833 C140 828 142 824 146 821 L176 799 C178 797 181 796 184 796 C188 796 192 798 195 801 L291 904 C294 907 295 910 295 915 C295 919 293 922 290 924 L257 954 C254 956 251 957 248 957 L248 957 Z " />
<glyph glyph-name="ohungarumlaut" unicode="&#x151;" horiz-adv-x="514" d="M257 557 C75 557 29 483 29 273 C29 61 74 -11 257 -11 C441 -11 484 61 484 273 C484 483 438 557 257 557 L257 557 Z M257 480 C363 480 396 453 396 273 C396 93 363 66 257 66 C152 66 117 90 117 273 C117 454 152 480 257 480 L257 480 Z M401 764 C398 764 394 762 391 759 L287 651 C283 647 281 643 281 639 C281 634 283 630 288 628 L318 606 C320 604 323 603 326 603 C330 603 334 605 337 608 L444 711 C447 714 448 717 448 721 C448 724 446 728 443 731 L410 761 C407 763 404 764 401 764 L401 764 Z M223 764 C218 764 214 762 211 758 L119 650 C116 647 115 644 115 640 C115 635 117 631 121 628 L151 606 C153 604 156 603 159 603 C163 603 167 605 170 608 L266 711 C269 714 270 717 270 722 C270 726 268 729 265 731 L232 761 C229 763 226 764 223 764 L223 764 Z " />
<glyph glyph-name="OE" unicode="&#x152;" horiz-adv-x="514" d="M227 753 C54 753 16 660 16 369 C16 79 54 -13 227 -13 C260 -13 287 -9 308 0 L493 0 C501 0 508 6 508 14 L508 67 C508 74 501 81 493 81 L354 81 L354 352 L459 352 C468 352 474 359 474 366 L474 418 C474 428 469 433 459 433 L354 433 L354 658 L487 658 C496 658 502 665 502 673 L502 725 C502 732 496 739 487 739 L310 739 C282 748 254 753 227 753 L227 753 Z M227 68 C129 68 108 92 108 369 C108 646 129 672 227 672 C242 672 253 671 258 668 L258 71 C248 69 238 68 227 68 L227 68 Z " />
<glyph glyph-name="oe" unicode="&#x153;" horiz-adv-x="514" d="M488 263 C498 263 503 268 503 277 L503 301 C503 489 476 557 378 557 C333 557 298 535 275 498 C259 531 222 557 171 557 C23 557 19 393 19 273 C19 124 23 -11 171 -11 C219 -11 257 15 273 44 C288 15 320 -11 384 -11 C445 -11 497 25 497 58 C497 62 496 65 493 68 L469 109 C466 113 462 115 457 115 C439 115 431 66 378 66 C337 66 318 81 318 254 L318 263 L488 263 Z M171 480 C227 480 234 382 234 273 C234 161 226 66 171 66 C115 66 107 161 107 273 C107 382 115 480 171 480 L171 480 Z M370 480 C406 480 415 464 415 339 L319 339 C322 469 334 480 370 480 L370 480 Z " />
<glyph glyph-name="Racute" unicode="&#x154;" horiz-adv-x="514" d="M483 0 C494 0 499 5 499 14 L343 351 C412 372 461 399 461 555 C461 661 440 739 276 739 L59 739 C50 739 46 734 46 725 L46 14 C46 5 51 0 60 0 L128 0 C137 0 142 5 142 14 L142 343 L249 343 L397 9 C400 3 404 0 410 0 L483 0 Z M142 658 L282 658 C355 658 377 639 377 548 C377 428 355 421 235 421 L142 421 L142 658 Z M343 951 C340 955 336 957 331 957 C328 957 325 956 322 954 L191 844 C188 841 186 837 186 834 C186 829 187 826 190 823 L216 794 C219 791 222 790 227 790 C229 790 232 791 236 793 L381 878 C386 881 388 885 388 891 C388 894 387 897 385 900 L343 951 Z " />
<glyph glyph-name="racute" unicode="&#x155;" horiz-adv-x="514" d="M95 546 C85 546 80 541 80 531 L80 14 C80 5 85 0 95 0 L155 0 C165 0 170 5 170 14 L170 378 C250 461 288 480 341 480 C415 480 425 458 441 458 C443 458 446 460 449 464 L476 506 C479 511 480 515 480 518 C480 542 394 557 358 557 C298 557 232 538 164 470 C159 497 148 546 129 546 L95 546 Z M343 758 C340 762 336 764 331 764 C328 764 325 763 322 761 L191 651 C188 648 186 644 186 641 C186 636 187 633 190 630 L216 601 C219 598 222 597 227 597 C229 597 232 598 236 600 L381 685 C386 688 388 692 388 698 C388 701 387 704 385 707 L343 758 Z " />
<glyph glyph-name="Rcommaaccent" unicode="&#x156;" horiz-adv-x="514" d="M483 0 C494 0 499 5 499 14 L343 351 C412 372 461 399 461 555 C461 661 440 739 276 739 L59 739 C50 739 46 734 46 725 L46 14 C46 5 51 0 60 0 L128 0 C137 0 142 5 142 14 L142 343 L249 343 L397 9 C400 3 404 0 410 0 L483 0 Z M142 658 L282 658 C355 658 377 639 377 548 C377 428 355 421 235 421 L142 421 L142 658 Z M244 -46 C235 -46 230 -50 229 -58 C223 -105 210 -142 199 -163 C191 -176 191 -179 191 -183 C191 -187 192 -191 196 -194 L224 -216 C226 -218 229 -219 233 -219 C236 -219 240 -217 243 -214 C282 -179 322 -108 322 -59 C322 -52 315 -46 308 -46 L244 -46 Z " />
<glyph glyph-name="rcommaaccent" unicode="&#x157;" horiz-adv-x="514" d="M95 546 C85 546 80 541 80 531 L80 14 C80 5 85 0 95 0 L155 0 C165 0 170 5 170 14 L170 378 C250 461 288 480 341 480 C415 480 425 458 441 458 C443 458 446 460 449 464 L476 506 C479 511 480 515 480 518 C480 542 394 557 358 557 C298 557 232 538 164 470 C159 497 148 546 129 546 L95 546 Z M95 -46 C86 -46 81 -50 80 -58 C74 -105 61 -142 50 -163 C42 -176 42 -179 42 -183 C42 -187 43 -191 47 -194 L75 -216 C77 -218 80 -219 84 -219 C87 -219 91 -217 94 -214 C133 -179 173 -108 173 -59 C173 -52 166 -46 159 -46 L95 -46 Z " />
<glyph glyph-name="Rcaron" unicode="&#x158;" horiz-adv-x="514" d="M483 0 C494 0 499 5 499 14 L343 351 C412 372 461 399 461 555 C461 661 440 739 276 739 L59 739 C50 739 46 734 46 725 L46 14 C46 5 51 0 60 0 L128 0 C137 0 142 5 142 14 L142 343 L249 343 L397 9 C400 3 404 0 410 0 L483 0 Z M142 658 L282 658 C355 658 377 639 377 548 C377 428 355 421 235 421 L142 421 L142 658 Z M177 954 C175 956 172 957 167 957 C164 957 160 956 158 955 L118 922 C114 918 112 914 112 911 C112 908 114 904 117 901 L225 792 C228 789 231 788 234 788 L279 788 C283 788 286 789 289 792 L397 901 C400 904 401 907 401 911 C401 915 399 919 396 922 L356 955 C355 956 349 957 346 957 C342 957 339 956 337 954 L257 866 L177 954 Z " />
<glyph glyph-name="rcaron" unicode="&#x159;" horiz-adv-x="514" d="M95 546 C85 546 80 541 80 531 L80 14 C80 5 85 0 95 0 L155 0 C165 0 170 5 170 14 L170 378 C250 461 288 480 341 480 C415 480 425 458 441 458 C443 458 446 460 449 464 L476 506 C479 511 480 515 480 518 C480 542 394 557 358 557 C298 557 232 538 164 470 C159 497 148 546 129 546 L95 546 Z M177 761 C175 763 172 764 167 764 C164 764 160 763 158 762 L118 729 C114 725 112 721 112 718 C112 715 114 711 117 708 L225 599 C228 596 231 595 234 595 L279 595 C283 595 286 596 289 599 L397 708 C400 711 401 714 401 718 C401 722 399 726 396 729 L356 762 C355 763 349 764 346 764 C342 764 339 763 337 761 L257 673 L177 761 Z " />
<glyph glyph-name="Sacute" unicode="&#x15a;" horiz-adv-x="514" d="M264 753 C144 753 53 688 53 577 C53 337 396 391 396 199 C396 114 308 68 231 68 C171 68 114 78 83 95 C78 97 73 98 69 98 C62 98 57 94 55 87 L41 42 C40 39 39 32 39 31 C39 10 125 -13 225 -13 C360 -13 488 60 488 193 C488 451 146 399 146 577 C146 638 190 672 259 672 C367 672 388 662 411 662 C419 662 424 666 425 674 L431 708 C432 715 432 716 432 723 C432 743 376 753 264 753 L264 753 Z M343 951 C340 955 336 957 331 957 C328 957 325 956 322 954 L191 844 C188 841 186 837 186 834 C186 829 187 826 190 823 L216 794 C219 791 222 790 227 790 C229 790 232 791 236 793 L381 878 C386 881 388 885 388 891 C388 894 387 897 385 900 L343 951 Z " />
<glyph glyph-name="sacute" unicode="&#x15b;" horiz-adv-x="514" d="M258 557 C143 557 61 518 61 414 C61 223 381 294 381 149 C381 89 287 66 243 66 C105 66 99 86 87 86 C79 86 74 85 71 77 L58 31 C57 28 57 21 56 21 C56 -3 170 -11 244 -11 C357 -11 470 51 470 155 C470 247 390 289 291 324 C190 359 149 367 149 418 C149 453 204 480 260 480 C376 480 399 463 409 463 C418 463 422 466 423 473 L433 528 C433 548 320 557 258 557 L258 557 Z M343 758 C340 762 336 764 331 764 C328 764 325 763 322 761 L191 651 C188 648 186 644 186 641 C186 636 187 633 190 630 L216 601 C219 598 222 597 227 597 C229 597 232 598 236 600 L381 685 C386 688 388 692 388 698 C388 701 387 704 385 707 L343 758 Z " />
<glyph glyph-name="Scircumflex" unicode="&#x15c;" horiz-adv-x="514" d="M264 753 C144 753 53 688 53 577 C53 337 396 391 396 199 C396 114 308 68 231 68 C171 68 114 78 83 95 C78 97 73 98 69 98 C62 98 57 94 55 87 L41 42 C40 39 39 32 39 31 C39 10 125 -13 225 -13 C360 -13 488 60 488 193 C488 451 146 399 146 577 C146 638 190 672 259 672 C367 672 388 662 411 662 C419 662 424 666 425 674 L431 708 C432 715 432 716 432 723 C432 743 376 753 264 753 L264 753 Z M337 791 C339 789 342 788 346 788 C349 788 355 789 356 790 L396 822 C399 825 401 829 401 833 C401 838 400 841 397 844 L289 952 C286 955 282 957 279 957 L234 957 C231 957 228 955 225 952 L117 844 C114 839 112 835 112 833 C112 830 114 826 118 822 L158 790 C159 789 165 788 167 788 C172 788 175 789 177 791 L257 878 L337 791 Z " />
<glyph glyph-name="scircumflex" unicode="&#x15d;" horiz-adv-x="514" d="M258 557 C143 557 61 518 61 414 C61 223 381 294 381 149 C381 89 287 66 243 66 C105 66 99 86 87 86 C79 86 74 85 71 77 L58 31 C57 28 57 21 56 21 C56 -3 170 -11 244 -11 C357 -11 470 51 470 155 C470 247 390 289 291 324 C190 359 149 367 149 418 C149 453 204 480 260 480 C376 480 399 463 409 463 C418 463 422 466 423 473 L433 528 C433 548 320 557 258 557 L258 557 Z M337 598 C339 596 342 595 346 595 C349 595 355 596 356 597 L396 629 C399 632 401 636 401 640 C401 645 400 648 397 651 L289 759 C286 762 282 764 279 764 L234 764 C231 764 228 762 225 759 L117 651 C114 646 112 642 112 640 C112 637 114 633 118 629 L158 597 C159 596 165 595 167 595 C172 595 175 596 177 598 L257 685 L337 598 Z " />
<glyph glyph-name="Scedilla" unicode="&#x15e;" horiz-adv-x="514" d="M264 753 C144 753 53 688 53 577 C53 337 396 391 396 199 C396 114 308 68 231 68 C171 68 114 78 83 95 C78 97 73 98 69 98 C62 98 57 94 55 87 L41 42 C40 39 39 32 39 31 C39 10 125 -13 225 -13 C360 -13 488 60 488 193 C488 451 146 399 146 577 C146 638 190 672 259 672 C367 672 388 662 411 662 C419 662 424 666 425 674 L431 708 C432 715 432 716 432 723 C432 743 376 753 264 753 L264 753 Z M244 -46 C235 -46 230 -50 229 -58 C223 -105 210 -142 199 -163 C191 -176 191 -179 191 -183 C191 -187 192 -191 196 -194 L224 -216 C226 -218 229 -219 233 -219 C236 -219 240 -217 243 -214 C282 -179 322 -108 322 -59 C322 -52 315 -46 308 -46 L244 -46 Z " />
<glyph glyph-name="scedilla" unicode="&#x15f;" horiz-adv-x="514" d="M258 557 C143 557 61 518 61 414 C61 223 381 294 381 149 C381 89 287 66 243 66 C105 66 99 86 87 86 C79 86 74 85 71 77 L58 31 C57 28 57 21 56 21 C56 -3 170 -11 244 -11 C357 -11 470 51 470 155 C470 247 390 289 291 324 C190 359 149 367 149 418 C149 453 204 480 260 480 C376 480 399 463 409 463 C418 463 422 466 423 473 L433 528 C433 548 320 557 258 557 L258 557 Z M244 -46 C235 -46 230 -50 229 -58 C223 -105 210 -142 199 -163 C191 -176 191 -179 191 -183 C191 -187 192 -191 196 -194 L224 -216 C226 -218 229 -219 233 -219 C236 -219 240 -217 243 -214 C282 -179 322 -108 322 -59 C322 -52 315 -46 308 -46 L244 -46 Z " />
<glyph glyph-name="Scaron" unicode="&#x160;" horiz-adv-x="514" d="M264 753 C144 753 53 688 53 577 C53 337 396 391 396 199 C396 114 308 68 231 68 C171 68 114 78 83 95 C78 97 73 98 69 98 C62 98 57 94 55 87 L41 42 C40 39 39 32 39 31 C39 10 125 -13 225 -13 C360 -13 488 60 488 193 C488 451 146 399 146 577 C146 638 190 672 259 672 C367 672 388 662 411 662 C419 662 424 666 425 674 L431 708 C432 715 432 716 432 723 C432 743 376 753 264 753 L264 753 Z M177 954 C175 956 172 957 167 957 C164 957 160 956 158 955 L118 922 C114 918 112 914 112 911 C112 908 114 904 117 901 L225 792 C228 789 231 788 234 788 L279 788 C283 788 286 789 289 792 L397 901 C400 904 401 907 401 911 C401 915 399 919 396 922 L356 955 C355 956 349 957 346 957 C342 957 339 956 337 954 L257 866 L177 954 Z " />
<glyph glyph-name="scaron" unicode="&#x161;" horiz-adv-x="514" d="M258 557 C143 557 61 518 61 414 C61 223 381 294 381 149 C381 89 287 66 243 66 C105 66 99 86 87 86 C79 86 74 85 71 77 L58 31 C57 28 57 21 56 21 C56 -3 170 -11 244 -11 C357 -11 470 51 470 155 C470 247 390 289 291 324 C190 359 149 367 149 418 C149 453 204 480 260 480 C376 480 399 463 409 463 C418 463 422 466 423 473 L433 528 C433 548 320 557 258 557 L258 557 Z M177 761 C175 763 172 764 167 764 C164 764 160 763 158 762 L118 729 C114 725 112 721 112 718 C112 715 114 711 117 708 L225 599 C228 596 231 595 234 595 L279 595 C283 595 286 596 289 599 L397 708 C400 711 401 714 401 718 C401 722 399 726 396 729 L356 762 C355 763 349 764 346 764 C342 764 339 763 337 761 L257 673 L177 761 Z " />
<glyph glyph-name="Tcommaaccent" unicode="&#x162;" horiz-adv-x="514" d="M43 739 C36 739 29 732 29 725 L29 673 C29 665 36 658 43 658 L211 658 L211 14 C211 6 218 0 226 0 L292 0 C302 0 307 5 307 14 L307 658 L470 658 C477 658 484 665 484 673 L484 725 C484 732 477 739 470 739 L43 739 Z M224 -46 C215 -46 210 -50 209 -58 C203 -105 190 -142 179 -163 C171 -176 171 -179 171 -183 C171 -187 172 -191 176 -194 L204 -216 C206 -218 209 -219 213 -219 C216 -219 220 -217 223 -214 C262 -179 302 -108 302 -59 C302 -52 295 -46 288 -46 L224 -46 Z " />
<glyph glyph-name="tcommaaccent" unicode="&#x163;" horiz-adv-x="514" d="M460 531 C460 541 455 546 446 546 L261 546 L261 696 C261 705 256 710 247 710 L185 710 C176 710 171 705 171 696 L171 546 L70 546 C61 546 56 541 56 531 L56 484 C56 475 61 470 70 470 L171 470 L171 179 C171 38 260 0 355 0 C391 0 468 9 468 33 C468 36 467 40 465 44 L451 81 C450 85 446 87 439 87 C429 87 424 76 346 76 C301 76 261 91 261 192 L261 470 L446 470 C455 470 460 475 460 484 L460 531 Z M244 -46 C235 -46 230 -50 229 -58 C223 -105 210 -142 199 -163 C191 -176 191 -179 191 -183 C191 -187 192 -191 196 -194 L224 -216 C226 -218 229 -219 233 -219 C236 -219 240 -217 243 -214 C282 -179 322 -108 322 -59 C322 -52 315 -46 308 -46 L244 -46 Z " />
<glyph glyph-name="Tcaron" unicode="&#x164;" horiz-adv-x="514" d="M43 739 C36 739 29 732 29 725 L29 673 C29 665 36 658 43 658 L211 658 L211 14 C211 6 218 0 226 0 L292 0 C302 0 307 5 307 14 L307 658 L470 658 C477 658 484 665 484 673 L484 725 C484 732 477 739 470 739 L43 739 Z M177 954 C175 956 172 957 167 957 C164 957 160 956 158 955 L118 922 C114 918 112 914 112 911 C112 908 114 904 117 901 L225 792 C228 789 231 788 234 788 L279 788 C283 788 286 789 289 792 L397 901 C400 904 401 907 401 911 C401 915 399 919 396 922 L356 955 C355 956 349 957 346 957 C342 957 339 956 337 954 L257 866 L177 954 Z " />
<glyph glyph-name="tcaron" unicode="&#x165;" horiz-adv-x="514" d="M313 531 C313 541 308 546 299 546 L221 546 L221 696 C221 705 216 710 207 710 L145 710 C136 710 131 705 131 696 L131 546 L30 546 C21 546 16 541 16 531 L16 484 C16 475 21 470 30 470 L131 470 L131 179 C131 38 220 0 315 0 C351 0 428 9 428 33 C428 36 427 40 425 44 L411 81 C410 85 406 87 399 87 C389 87 384 76 306 76 C261 76 221 91 221 192 L221 470 L299 470 C308 470 313 475 313 484 L313 531 Z M350 525 C349 520 348 516 348 512 C348 504 351 498 363 493 L386 484 C389 483 396 483 396 482 C403 482 409 485 412 491 L513 734 C514 735 514 736 514 739 C514 746 511 750 504 752 L442 773 C437 776 431 777 424 777 C416 777 412 774 411 767 L350 525 Z " />
<glyph glyph-name="Tbar" unicode="&#x166;" horiz-adv-x="514" d="M375 351 C383 351 390 356 390 365 L390 419 C390 427 383 433 375 433 L307 433 L307 658 L470 658 C477 658 484 665 484 673 L484 725 C484 732 477 739 470 739 L43 739 C36 739 29 732 29 725 L29 673 C29 665 36 658 43 658 L211 658 L211 433 L139 433 C129 433 124 428 124 419 L124 365 C124 356 129 351 139 351 L211 351 L211 14 C211 6 218 0 226 0 L292 0 C302 0 307 5 307 14 L307 351 L375 351 Z " />
<glyph glyph-name="tbar" unicode="&#x167;" horiz-adv-x="514" d="M435 291 C443 291 450 296 450 305 L450 349 C450 357 443 363 435 363 L261 363 L261 470 L446 470 C455 470 460 475 460 484 L460 531 C460 541 455 546 446 546 L261 546 L261 696 C261 705 256 710 247 710 L185 710 C176 710 171 705 171 696 L171 546 L70 546 C61 546 56 541 56 531 L56 484 C56 475 61 470 70 470 L171 470 L171 363 L69 363 C59 363 54 358 54 349 L54 305 C54 296 59 291 69 291 L171 291 L171 179 C171 38 260 0 355 0 C391 0 468 9 468 33 C468 36 467 40 465 44 L451 81 C450 85 446 87 439 87 C429 87 424 76 346 76 C301 76 261 91 261 192 L261 291 L435 291 Z " />
<glyph glyph-name="Utilde" unicode="&#x168;" horiz-adv-x="514" d="M61 739 C52 739 47 732 47 725 L47 208 C47 89 67 -13 258 -13 C449 -13 467 89 467 208 L467 725 C467 732 462 739 453 739 L387 739 C378 739 372 732 372 725 L372 226 C372 93 357 68 258 68 C159 68 143 93 143 226 L143 725 C143 732 136 739 129 739 L61 739 Z M332 820 C372 820 416 860 416 904 C416 910 414 914 409 917 L371 938 C368 939 365 941 362 941 C343 941 352 893 321 893 C283 893 240 941 182 941 C142 941 98 901 98 857 C98 850 100 846 105 844 L143 822 C146 821 153 821 153 820 C170 820 162 867 194 867 C232 864 271 820 332 820 L332 820 Z " />
<glyph glyph-name="utilde" unicode="&#x169;" horiz-adv-x="514" d="M67 546 C58 546 53 541 53 532 L53 125 C53 38 83 -11 174 -11 C238 -11 285 6 366 76 C369 49 382 0 400 0 L435 0 C443 0 450 6 450 15 L450 532 C450 540 443 546 435 546 L374 546 C366 546 359 540 359 532 L359 170 C281 76 227 66 194 66 C167 66 143 79 143 118 L143 532 C143 541 138 546 128 546 L67 546 Z M332 627 C372 627 416 667 416 711 C416 717 414 721 409 724 L371 745 C368 746 365 748 362 748 C343 748 352 700 321 700 C283 700 240 748 182 748 C142 748 98 708 98 664 C98 657 100 653 105 651 L143 629 C146 628 153 628 153 627 C170 627 162 674 194 674 C232 671 271 627 332 627 L332 627 Z " />
<glyph glyph-name="Umacron" unicode="&#x16a;" horiz-adv-x="514" d="M61 739 C52 739 47 732 47 725 L47 208 C47 89 67 -13 258 -13 C449 -13 467 89 467 208 L467 725 C467 732 462 739 453 739 L387 739 C378 739 372 732 372 725 L372 226 C372 93 357 68 258 68 C159 68 143 93 143 226 L143 725 C143 732 136 739 129 739 L61 739 Z M92 918 C83 918 77 911 77 903 L77 847 C77 837 82 832 92 832 L422 832 C432 832 437 837 437 847 L437 903 C437 911 431 918 422 918 L92 918 Z " />
<glyph glyph-name="umacron" unicode="&#x16b;" horiz-adv-x="514" d="M67 546 C58 546 53 541 53 532 L53 125 C53 38 83 -11 174 -11 C238 -11 285 6 366 76 C369 49 382 0 400 0 L435 0 C443 0 450 6 450 15 L450 532 C450 540 443 546 435 546 L374 546 C366 546 359 540 359 532 L359 170 C281 76 227 66 194 66 C167 66 143 79 143 118 L143 532 C143 541 138 546 128 546 L67 546 Z M92 725 C83 725 77 718 77 710 L77 654 C77 644 82 639 92 639 L422 639 C432 639 437 644 437 654 L437 710 C437 718 431 725 422 725 L92 725 Z " />
<glyph glyph-name="Ubreve" unicode="&#x16c;" horiz-adv-x="514" d="M61 739 C52 739 47 732 47 725 L47 208 C47 89 67 -13 258 -13 C449 -13 467 89 467 208 L467 725 C467 732 462 739 453 739 L387 739 C378 739 372 732 372 725 L372 226 C372 93 357 68 258 68 C159 68 143 93 143 226 L143 725 C143 732 136 739 129 739 L61 739 Z M256 863 C211 863 197 901 184 946 C180 953 176 957 171 957 C168 957 166 957 165 956 L123 941 C117 938 114 933 114 927 C114 872 165 791 256 791 C346 791 400 872 400 925 C400 932 397 937 392 941 L350 956 C344 956 341 957 341 958 C332 958 328 954 327 946 C316 901 300 863 256 863 L256 863 Z " />
<glyph glyph-name="ubreve" unicode="&#x16d;" horiz-adv-x="514" d="M67 546 C58 546 53 541 53 532 L53 125 C53 38 83 -11 174 -11 C238 -11 285 6 366 76 C369 49 382 0 400 0 L435 0 C443 0 450 6 450 15 L450 532 C450 540 443 546 435 546 L374 546 C366 546 359 540 359 532 L359 170 C281 76 227 66 194 66 C167 66 143 79 143 118 L143 532 C143 541 138 546 128 546 L67 546 Z M256 670 C211 670 197 708 184 753 C180 760 176 764 171 764 C168 764 166 764 165 763 L123 748 C117 745 114 740 114 734 C114 679 165 598 256 598 C346 598 400 679 400 732 C400 739 397 744 392 748 L350 763 C344 763 341 764 341 765 C332 765 328 761 327 753 C316 708 300 670 256 670 L256 670 Z " />
<glyph glyph-name="Uring" unicode="&#x16e;" horiz-adv-x="514" d="M61 739 C52 739 47 732 47 725 L47 208 C47 89 67 -13 258 -13 C449 -13 467 89 467 208 L467 725 C467 732 462 739 453 739 L387 739 C378 739 372 732 372 725 L372 226 C372 93 357 68 258 68 C159 68 143 93 143 226 L143 725 C143 732 136 739 129 739 L61 739 Z M372 843 C372 916 337 957 256 957 C176 957 142 916 142 843 C142 767 176 727 256 727 C336 727 372 763 372 843 L372 843 Z M193 843 C193 895 204 918 255 918 C307 918 323 895 323 843 C323 792 307 769 255 769 C204 769 193 792 193 843 L193 843 Z " />
<glyph glyph-name="uring" unicode="&#x16f;" horiz-adv-x="514" d="M67 546 C58 546 53 541 53 532 L53 125 C53 38 83 -11 174 -11 C238 -11 285 6 366 76 C369 49 382 0 400 0 L435 0 C443 0 450 6 450 15 L450 532 C450 540 443 546 435 546 L374 546 C366 546 359 540 359 532 L359 170 C281 76 227 66 194 66 C167 66 143 79 143 118 L143 532 C143 541 138 546 128 546 L67 546 Z M372 690 C372 763 337 804 256 804 C176 804 142 763 142 690 C142 614 176 574 256 574 C336 574 372 610 372 690 L372 690 Z M193 690 C193 742 204 765 255 765 C307 765 323 742 323 690 C323 639 307 616 255 616 C204 616 193 639 193 690 L193 690 Z " />
<glyph glyph-name="Uhungarumlaut" unicode="&#x170;" horiz-adv-x="514" d="M61 739 C52 739 47 732 47 725 L47 208 C47 89 67 -13 258 -13 C449 -13 467 89 467 208 L467 725 C467 732 462 739 453 739 L387 739 C378 739 372 732 372 725 L372 226 C372 93 357 68 258 68 C159 68 143 93 143 226 L143 725 C143 732 136 739 129 739 L61 739 Z M426 957 C423 957 419 955 416 952 L312 844 C308 840 306 836 306 832 C306 827 308 823 313 821 L343 799 C345 797 348 796 351 796 C355 796 359 798 362 801 L469 904 C472 907 473 910 473 914 C473 917 471 921 468 924 L435 954 C432 956 429 957 426 957 L426 957 Z M248 957 C243 957 239 955 236 951 L144 843 C141 840 140 837 140 833 C140 828 142 824 146 821 L176 799 C178 797 181 796 184 796 C188 796 192 798 195 801 L291 904 C294 907 295 910 295 915 C295 919 293 922 290 924 L257 954 C254 956 251 957 248 957 L248 957 Z " />
<glyph glyph-name="uhungarumlaut" unicode="&#x171;" horiz-adv-x="514" d="M67 546 C58 546 53 541 53 532 L53 125 C53 38 83 -11 174 -11 C238 -11 285 6 366 76 C369 49 382 0 400 0 L435 0 C443 0 450 6 450 15 L450 532 C450 540 443 546 435 546 L374 546 C366 546 359 540 359 532 L359 170 C281 76 227 66 194 66 C167 66 143 79 143 118 L143 532 C143 541 138 546 128 546 L67 546 Z M401 764 C398 764 394 762 391 759 L287 651 C283 647 281 643 281 639 C281 634 283 630 288 628 L318 606 C320 604 323 603 326 603 C330 603 334 605 337 608 L444 711 C447 714 448 717 448 721 C448 724 446 728 443 731 L410 761 C407 763 404 764 401 764 L401 764 Z M223 764 C218 764 214 762 211 758 L119 650 C116 647 115 644 115 640 C115 635 117 631 121 628 L151 606 C153 604 156 603 159 603 C163 603 167 605 170 608 L266 711 C269 714 270 717 270 722 C270 726 268 729 265 731 L232 761 C229 763 226 764 223 764 L223 764 Z " />
<glyph glyph-name="Uogonek" unicode="&#x172;" horiz-adv-x="514" d="M61 739 C52 739 47 732 47 725 L47 208 C47 89 67 -13 257 -13 L230 -33 C193 -60 168 -91 168 -135 C168 -181 203 -219 261 -219 C303 -219 346 -209 346 -193 C346 -191 345 -187 344 -180 L334 -146 C332 -138 327 -134 320 -134 C312 -134 294 -142 263 -142 C252 -142 233 -129 233 -108 C233 -87 245 -71 272 -50 L325 -8 C453 14 467 104 467 208 L467 725 C467 732 462 739 453 739 L387 739 C378 739 372 732 372 725 L372 226 C372 93 357 68 258 68 C159 68 143 93 143 226 L143 725 C143 732 136 739 129 739 L61 739 Z " />
<glyph glyph-name="uogonek" unicode="&#x173;" horiz-adv-x="514" d="M446 4 C448 6 450 10 450 15 L450 532 C450 540 443 546 435 546 L374 546 C366 546 359 540 359 532 L359 170 C281 76 227 66 194 66 C167 66 143 79 143 118 L143 532 C143 541 138 546 128 546 L67 546 C58 546 53 541 53 532 L53 125 C53 38 83 -11 174 -11 C238 -11 285 6 366 76 C368 54 376 19 389 6 L336 -33 C299 -60 274 -91 274 -135 C274 -181 309 -219 367 -219 C409 -219 452 -209 452 -193 C452 -191 451 -187 450 -180 L440 -146 C438 -138 433 -134 426 -134 C418 -134 400 -142 369 -142 C358 -142 339 -129 339 -108 C339 -87 351 -71 378 -50 L446 4 Z " />
<glyph glyph-name="Wcircumflex" unicode="&#x174;" horiz-adv-x="514" d="M329 493 C328 500 324 503 315 503 L200 503 C191 503 187 500 186 493 L146 78 L119 78 L97 729 C97 736 92 739 83 739 L9 739 C0 739 -5 734 -5 725 C-5 722 -5 719 -4 712 L39 10 C39 3 44 0 53 0 L188 0 C197 0 201 3 202 10 L248 426 L267 426 L313 10 C314 3 318 0 327 0 L462 0 C471 0 476 3 476 10 L519 712 C520 719 520 722 520 725 C520 734 515 739 506 739 L432 739 C423 739 418 736 418 729 L396 78 L369 78 L329 493 Z M337 791 C339 789 342 788 346 788 C349 788 355 789 356 790 L396 822 C399 825 401 829 401 833 C401 838 400 841 397 844 L289 952 C286 955 282 957 279 957 L234 957 C231 957 228 955 225 952 L117 844 C114 839 112 835 112 833 C112 830 114 826 118 822 L158 790 C159 789 165 788 167 788 C172 788 175 789 177 791 L257 878 L337 791 Z " />
<glyph glyph-name="wcircumflex" unicode="&#x175;" horiz-adv-x="514" d="M250 346 L264 346 L302 9 C303 3 307 0 315 0 L455 0 C462 0 467 3 468 9 L518 512 C519 523 520 530 520 534 C520 542 516 546 507 546 L444 546 C439 546 435 543 431 538 L398 70 L367 70 L327 402 C326 411 322 415 313 415 L201 415 C192 415 188 411 187 402 L147 70 L116 70 L83 538 C79 543 75 546 70 546 L7 546 C-2 546 -6 542 -6 534 C-6 530 -5 523 -4 512 L46 9 C47 3 51 0 59 0 L199 0 C206 0 211 3 212 9 L250 346 Z M337 598 C339 596 342 595 346 595 C349 595 355 596 356 597 L396 629 C399 632 401 636 401 640 C401 645 400 648 397 651 L289 759 C286 762 282 764 279 764 L234 764 C231 764 228 762 225 759 L117 651 C114 646 112 642 112 640 C112 637 114 633 118 629 L158 597 C159 596 165 595 167 595 C172 595 175 596 177 598 L257 685 L337 598 Z " />
<glyph glyph-name="Ycircumflex" unicode="&#x176;" horiz-adv-x="514" d="M121 730 C118 736 113 739 108 739 L32 739 C23 739 18 735 18 726 C21 723 19 720 20 717 L212 341 L212 14 C212 5 217 0 227 0 L293 0 C303 0 308 5 308 14 L308 341 L494 717 C494 722 495 725 496 726 C496 735 491 739 482 739 L414 739 C410 739 406 736 402 730 L259 409 L121 730 Z M337 791 C339 789 342 788 346 788 C349 788 355 789 356 790 L396 822 C399 825 401 829 401 833 C401 838 400 841 397 844 L289 952 C286 955 282 957 279 957 L234 957 C231 957 228 955 225 952 L117 844 C114 839 112 835 112 833 C112 830 114 826 118 822 L158 790 C159 789 165 788 167 788 C172 788 175 789 177 791 L257 878 L337 791 Z " />
<glyph glyph-name="ycircumflex" unicode="&#x177;" horiz-adv-x="514" d="M118 536 C116 543 111 546 104 546 L38 546 C28 546 23 542 23 533 C23 521 25 511 30 502 L202 -13 C164 -123 146 -136 115 -136 C94 -136 85 -128 77 -128 C72 -128 67 -131 64 -136 L36 -192 C35 -195 33 -195 33 -198 C33 -214 71 -219 114 -219 C201 -219 239 -150 271 -65 L484 513 C488 522 490 528 490 533 C490 542 485 546 475 546 L417 546 C410 546 406 543 403 536 L247 111 L118 536 Z M337 598 C339 596 342 595 346 595 C349 595 355 596 356 597 L396 629 C399 632 401 636 401 640 C401 645 400 648 397 651 L289 759 C286 762 282 764 279 764 L234 764 C231 764 228 762 225 759 L117 651 C114 646 112 642 112 640 C112 637 114 633 118 629 L158 597 C159 596 165 595 167 595 C172 595 175 596 177 598 L257 685 L337 598 Z " />
<glyph glyph-name="Ydieresis" unicode="&#x178;" horiz-adv-x="514" d="M121 730 C118 736 113 739 108 739 L32 739 C23 739 18 735 18 726 C21 723 19 720 20 717 L212 341 L212 14 C212 5 217 0 227 0 L293 0 C303 0 308 5 308 14 L308 341 L494 717 C494 722 495 725 496 726 C496 735 491 739 482 739 L414 739 C410 739 406 736 402 730 L259 409 L121 730 Z M153 943 C118 943 91 915 91 880 C91 845 118 817 153 817 C189 817 217 845 217 880 C217 915 189 943 153 943 L153 943 Z M360 943 C325 943 298 915 298 880 C298 845 325 817 360 817 C397 817 423 845 423 880 C423 915 397 943 360 943 L360 943 Z " />
<glyph glyph-name="Zacute" unicode="&#x179;" horiz-adv-x="514" d="M62 673 C62 663 67 658 77 658 L270 658 C305 658 336 659 365 662 L31 74 L31 14 C31 5 36 0 45 0 L459 0 C469 0 474 5 474 14 L474 66 C474 76 469 81 459 81 L275 81 C228 81 183 80 139 76 L470 669 L470 725 C470 734 465 739 456 739 L77 739 C67 739 62 734 62 725 L62 673 Z M343 951 C340 955 336 957 331 957 C328 957 325 956 322 954 L191 844 C188 841 186 837 186 834 C186 829 187 826 190 823 L216 794 C219 791 222 790 227 790 C229 790 232 791 236 793 L381 878 C386 881 388 885 388 891 C388 894 387 897 385 900 L343 951 Z " />
<glyph glyph-name="zacute" unicode="&#x17a;" horiz-adv-x="514" d="M60 485 C60 476 67 470 74 470 L228 470 C272 470 315 472 356 475 L35 67 L35 14 C35 6 42 0 49 0 L465 0 C474 0 479 5 479 14 L479 75 C479 83 474 87 465 87 L283 87 C246 87 201 85 149 82 L469 484 L469 532 C469 541 464 546 455 546 L74 546 C67 546 60 541 60 532 L60 485 Z M343 758 C340 762 336 764 331 764 C328 764 325 763 322 761 L191 651 C188 648 186 644 186 641 C186 636 187 633 190 630 L216 601 C219 598 222 597 227 597 C229 597 232 598 236 600 L381 685 C386 688 388 692 388 698 C388 701 387 704 385 707 L343 758 Z " />
<glyph glyph-name="Zdotaccent" unicode="&#x17b;" horiz-adv-x="514" d="M62 673 C62 663 67 658 77 658 L270 658 C305 658 336 659 365 662 L31 74 L31 14 C31 5 36 0 45 0 L459 0 C469 0 474 5 474 14 L474 66 C474 76 469 81 459 81 L275 81 C228 81 183 80 139 76 L470 669 L470 725 C470 734 465 739 456 739 L77 739 C67 739 62 734 62 725 L62 673 Z M256 943 C221 943 194 915 194 880 C194 845 221 817 256 817 C292 817 320 845 320 880 C320 915 292 943 256 943 L256 943 Z " />
<glyph glyph-name="zdotaccent" unicode="&#x17c;" horiz-adv-x="514" d="M60 485 C60 476 67 470 74 470 L228 470 C272 470 315 472 356 475 L35 67 L35 14 C35 6 42 0 49 0 L465 0 C474 0 479 5 479 14 L479 75 C479 83 474 87 465 87 L283 87 C246 87 201 85 149 82 L469 484 L469 532 C469 541 464 546 455 546 L74 546 C67 546 60 541 60 532 L60 485 Z M256 750 C221 750 194 722 194 687 C194 652 221 624 256 624 C292 624 320 652 320 687 C320 722 292 750 256 750 L256 750 Z " />
<glyph glyph-name="Zcaron" unicode="&#x17d;" horiz-adv-x="514" d="M62 673 C62 663 67 658 77 658 L270 658 C305 658 336 659 365 662 L31 74 L31 14 C31 5 36 0 45 0 L459 0 C469 0 474 5 474 14 L474 66 C474 76 469 81 459 81 L275 81 C228 81 183 80 139 76 L470 669 L470 725 C470 734 465 739 456 739 L77 739 C67 739 62 734 62 725 L62 673 Z M177 954 C175 956 172 957 167 957 C164 957 160 956 158 955 L118 922 C114 918 112 914 112 911 C112 908 114 904 117 901 L225 792 C228 789 231 788 234 788 L279 788 C283 788 286 789 289 792 L397 901 C400 904 401 907 401 911 C401 915 399 919 396 922 L356 955 C355 956 349 957 346 957 C342 957 339 956 337 954 L257 866 L177 954 Z " />
<glyph glyph-name="zcaron" unicode="&#x17e;" horiz-adv-x="514" d="M60 485 C60 476 67 470 74 470 L228 470 C272 470 315 472 356 475 L35 67 L35 14 C35 6 42 0 49 0 L465 0 C474 0 479 5 479 14 L479 75 C479 83 474 87 465 87 L283 87 C246 87 201 85 149 82 L469 484 L469 532 C469 541 464 546 455 546 L74 546 C67 546 60 541 60 532 L60 485 Z M177 761 C175 763 172 764 167 764 C164 764 160 763 158 762 L118 729 C114 725 112 721 112 718 C112 715 114 711 117 708 L225 599 C228 596 231 595 234 595 L279 595 C283 595 286 596 289 599 L397 708 C400 711 401 714 401 718 C401 722 399 726 396 729 L356 762 C355 763 349 764 346 764 C342 764 339 763 337 761 L257 673 L177 761 Z " />
<glyph glyph-name="florin" unicode="&#x192;" horiz-adv-x="514" d="M167 -142 C95 -142 102 -134 78 -134 C71 -134 66 -138 64 -145 L54 -180 C53 -187 52 -190 52 -193 C52 -217 138 -219 169 -219 C285 -219 296 -143 296 -65 L296 470 L414 470 C423 470 428 475 428 485 L428 532 C428 541 423 546 414 546 L296 546 L296 590 C296 691 321 706 366 706 C410 706 420 695 432 695 C437 695 441 697 444 701 L459 742 C460 743 461 746 461 749 C461 777 410 782 375 782 C280 782 206 744 206 603 L206 546 L142 546 C133 546 128 541 128 532 L128 485 C128 475 133 470 142 470 L206 470 L206 -72 C206 -134 196 -142 167 -142 L167 -142 Z " />
<glyph glyph-name="Ohorn" unicode="&#x1a0;" horiz-adv-x="514" d="M226 753 C76 753 15 660 15 369 C15 79 76 -13 226 -13 C376 -13 458 79 458 369 C458 471 448 548 428 606 C437 603 445 603 454 603 C487 603 514 623 514 698 C514 746 507 777 495 777 C494 777 491 777 486 775 L454 763 C448 761 446 756 446 749 C446 736 459 725 459 694 C459 683 454 659 439 659 C428 659 410 661 382 690 C342 733 291 753 226 753 L226 753 Z M226 672 C314 672 365 646 365 369 C365 92 314 68 226 68 C138 68 107 92 107 369 C107 646 138 672 226 672 L226 672 Z " />
<glyph glyph-name="ohorn" unicode="&#x1a1;" horiz-adv-x="514" d="M226 557 C66 557 18 483 18 273 C18 61 66 -11 226 -11 C386 -11 433 61 433 273 C433 349 426 407 411 450 C419 448 427 448 435 448 C485 448 514 468 514 539 C514 587 507 618 495 618 C494 618 491 618 486 616 L448 604 C442 602 440 597 440 590 C440 577 453 566 453 535 C453 524 448 497 424 497 C411 497 385 504 361 524 C330 550 284 557 226 557 L226 557 Z M226 480 C322 480 345 453 345 273 C345 93 322 66 226 66 C130 66 106 90 106 273 C106 454 130 480 226 480 L226 480 Z " />
<glyph glyph-name="Uhorn" unicode="&#x1af;" horiz-adv-x="514" d="M35 739 C26 739 21 732 21 725 L21 183 C21 89 45 -13 212 -13 C379 -13 401 89 401 185 L401 621 C420 606 437 603 454 603 C487 603 514 623 514 698 C514 746 507 777 495 777 C494 777 491 777 486 775 L454 763 C448 761 446 756 446 749 C446 736 459 725 459 694 C459 683 454 659 439 659 C430 659 418 661 401 674 L401 725 C401 732 396 739 387 739 L321 739 C312 739 306 732 306 725 L306 187 C306 93 291 68 212 68 C133 68 117 93 117 187 L117 725 C117 732 110 739 103 739 L35 739 Z " />
<glyph glyph-name="uhorn" unicode="&#x1b0;" horiz-adv-x="514" d="M27 546 C18 546 13 541 13 532 L13 125 C13 38 43 -11 134 -11 C209 -11 253 9 316 76 C319 49 332 0 350 0 L385 0 C393 0 400 6 400 15 L400 454 C412 449 424 448 435 448 C485 448 514 468 514 539 C514 587 507 618 495 618 C494 618 491 618 486 616 L448 604 C442 602 440 597 440 590 C440 577 453 566 453 535 C453 524 448 497 424 497 C418 497 409 497 400 500 L400 532 C400 540 393 546 385 546 L324 546 C316 546 309 540 309 532 L309 170 C243 77 197 66 154 66 C127 66 103 79 103 118 L103 532 C103 541 98 546 88 546 L27 546 Z " />
<glyph glyph-name="Aringacute" unicode="&#x1fa;" horiz-adv-x="514" d="M574 951 C571 955 567 957 562 957 C559 957 556 956 553 954 L422 844 C419 841 417 837 417 834 C417 829 418 826 421 823 L447 794 C450 791 453 790 458 790 C460 790 463 791 467 793 L612 878 C617 881 619 885 619 891 C619 894 618 897 616 900 L574 951 Z M372 843 C372 916 337 957 256 957 C176 957 142 916 142 843 C142 791 157 756 193 739 L162 739 C155 739 151 736 148 729 L18 19 C17 18 17 16 17 13 C17 4 22 0 31 0 L100 0 C105 0 111 5 114 10 L144 200 L376 200 L407 10 C410 5 416 0 421 0 L491 0 C500 0 505 4 505 13 C505 16 504 16 504 19 L373 729 C370 736 366 739 359 739 L321 739 C356 755 372 789 372 843 L372 843 Z M221 661 L300 661 L362 281 L159 281 L221 661 Z M193 843 C193 895 204 918 255 918 C307 918 323 895 323 843 C323 792 307 769 255 769 C204 769 193 792 193 843 L193 843 Z " />
<glyph glyph-name="aringacute" unicode="&#x1fb;" horiz-adv-x="514" d="M274 557 C177 557 58 525 58 501 C58 498 59 496 61 493 L82 449 C85 444 89 442 94 442 C97 442 100 444 103 445 C150 468 212 480 259 480 C340 480 367 463 367 411 L367 336 C202 331 35 315 35 134 C35 66 87 -11 213 -11 C285 -11 352 11 385 60 C390 33 411 0 442 0 L477 0 C487 0 492 5 492 14 C465 57 458 126 458 184 L458 402 C458 491 414 557 274 557 L274 557 Z M367 157 C351 110 300 66 228 66 C152 66 123 94 123 143 C123 258 251 262 367 265 L367 157 Z M352 690 C352 763 317 804 236 804 C156 804 122 763 122 690 C122 614 156 574 236 574 C316 574 352 610 352 690 L352 690 Z M173 690 C173 742 184 765 235 765 C287 765 303 742 303 690 C303 639 287 616 235 616 C184 616 173 639 173 690 L173 690 Z M543 798 C540 802 536 804 531 804 C528 804 525 803 522 801 L391 691 C388 688 386 684 386 681 C386 676 387 673 390 670 L416 641 C419 638 422 637 427 637 C429 637 432 638 436 640 L581 725 C586 728 588 732 588 738 C588 741 587 744 585 747 L543 798 Z " />
<glyph glyph-name="AEacute" unicode="&#x1fc;" horiz-adv-x="514" d="M148 739 C141 739 137 736 134 729 L4 19 C3 18 3 16 3 13 C3 4 8 0 17 0 L86 0 C91 0 97 5 100 10 L130 200 L238 200 L238 14 C238 5 243 0 252 0 L500 0 C510 0 515 5 515 14 L515 67 C515 74 509 81 500 81 L334 81 L334 352 L467 352 C476 352 482 359 482 366 L482 418 C482 428 477 433 467 433 L334 433 L334 658 L495 658 C504 658 510 665 510 673 L510 725 C510 732 504 739 495 739 L148 739 Z M205 658 L238 658 L238 281 L145 281 L205 658 Z M371 951 C368 955 364 957 359 957 C356 957 353 956 350 954 L219 844 C216 841 214 837 214 834 C214 829 215 826 218 823 L244 794 C247 791 250 790 255 790 C257 790 260 791 264 793 L409 878 C414 881 416 885 416 891 C416 894 415 897 413 900 L371 951 Z " />
<glyph glyph-name="aeacute" unicode="&#x1fd;" horiz-adv-x="514" d="M161 557 C92 557 34 525 34 501 C34 499 35 497 37 494 L58 449 C61 444 65 442 70 442 C74 442 79 444 84 448 C109 468 131 480 168 480 C197 480 210 464 210 413 L210 336 C45 331 16 289 16 134 C16 66 36 -11 147 -11 C196 -11 238 13 255 49 C270 16 307 -11 354 -11 C401 -11 449 11 474 43 C477 46 480 55 480 58 C480 63 479 66 476 68 L451 110 C446 113 442 115 440 115 C434 115 430 114 428 111 C413 90 390 66 361 66 C322 66 301 79 301 157 L301 263 L471 263 C481 263 486 268 486 277 L486 301 C486 489 460 557 368 557 C320 557 285 539 264 508 C248 537 213 557 161 557 L161 557 Z M149 66 C112 66 104 94 104 143 C104 247 110 260 210 265 L210 157 C210 89 184 66 149 66 L149 66 Z M353 480 C385 480 398 464 398 339 L302 339 C305 469 321 480 353 480 L353 480 Z M343 758 C340 762 336 764 331 764 C328 764 325 763 322 761 L191 651 C188 648 186 644 186 641 C186 636 187 633 190 630 L216 601 C219 598 222 597 227 597 C229 597 232 598 236 600 L381 685 C386 688 388 692 388 698 C388 701 387 704 385 707 L343 758 Z " />
<glyph glyph-name="Oslashacute" unicode="&#x1fe;" horiz-adv-x="514" d="M257 753 C82 753 26 660 26 369 C26 256 34 175 55 115 L8 33 C5 30 4 27 4 23 C4 18 6 15 10 12 L51 -12 C56 -15 61 -17 64 -17 C68 -17 72 -14 76 -7 L101 37 C137 1 188 -13 257 -13 C433 -13 489 79 489 369 C489 498 479 584 452 645 L494 718 C495 725 499 728 499 733 C499 738 495 743 486 748 L450 768 C445 771 440 773 437 773 C431 773 427 770 424 764 L397 716 C362 743 317 753 257 753 L257 753 Z M257 68 C197 68 163 74 142 121 L388 546 C395 503 396 446 396 369 C396 92 369 68 257 68 L257 68 Z M257 672 C306 672 337 666 360 638 L122 222 C119 261 118 308 118 369 C118 646 145 672 257 672 L257 672 Z M343 951 C340 955 336 957 331 957 C328 957 325 956 322 954 L191 844 C188 841 186 837 186 834 C186 829 187 826 190 823 L216 794 C219 791 222 790 227 790 C229 790 232 791 236 793 L381 878 C386 881 388 885 388 891 C388 894 387 897 385 900 L343 951 Z " />
<glyph glyph-name="oslashacute" unicode="&#x1ff;" horiz-adv-x="514" d="M257 557 C75 557 29 483 29 273 C29 156 42 84 83 41 L57 -5 C56 -6 55 -8 55 -11 C55 -14 57 -18 60 -21 L100 -43 C103 -46 106 -47 109 -47 C113 -47 117 -44 120 -38 L144 3 C175 -6 210 -11 257 -11 C441 -11 484 61 484 273 C484 386 471 458 431 502 L462 555 C463 556 463 558 463 561 C463 564 461 568 457 571 L415 595 C414 596 411 597 407 597 C403 597 400 595 399 592 L370 541 C345 552 307 557 257 557 L257 557 Z M257 480 C289 480 314 478 334 469 L137 125 C124 156 117 201 117 273 C117 454 152 480 257 480 L257 480 Z M257 66 C226 66 201 68 181 77 L379 420 C390 387 396 338 396 273 C396 92 363 69 257 66 L257 66 Z M343 758 C340 762 336 764 331 764 C328 764 325 763 322 761 L191 651 C188 648 186 644 186 641 C186 636 187 633 190 630 L216 601 C219 598 222 597 227 597 C229 597 232 598 236 600 L381 685 C386 688 388 692 388 698 C388 701 387 704 385 707 L343 758 Z " />
<glyph glyph-name="Scommaaccent" unicode="&#x218;" horiz-adv-x="514" d="M264 753 C144 753 53 688 53 577 C53 337 396 391 396 199 C396 114 308 68 231 68 C171 68 114 78 83 95 C78 97 73 98 69 98 C62 98 57 94 55 87 L41 42 C40 39 39 32 39 31 C39 10 125 -13 225 -13 C360 -13 488 60 488 193 C488 451 146 399 146 577 C146 638 190 672 259 672 C367 672 388 662 411 662 C419 662 424 666 425 674 L431 708 C432 715 432 716 432 723 C432 743 376 753 264 753 L264 753 Z M244 -46 C235 -46 230 -50 229 -58 C223 -105 210 -142 199 -163 C191 -176 191 -179 191 -183 C191 -187 192 -191 196 -194 L224 -216 C226 -218 229 -219 233 -219 C236 -219 240 -217 243 -214 C282 -179 322 -108 322 -59 C322 -52 315 -46 308 -46 L244 -46 Z " />
<glyph glyph-name="scommaaccent" unicode="&#x219;" horiz-adv-x="514" d="M258 557 C143 557 61 518 61 414 C61 223 381 294 381 149 C381 89 287 66 243 66 C105 66 99 86 87 86 C79 86 74 85 71 77 L58 31 C57 28 57 21 56 21 C56 -3 170 -11 244 -11 C357 -11 470 51 470 155 C470 247 390 289 291 324 C190 359 149 367 149 418 C149 453 204 480 260 480 C376 480 399 463 409 463 C418 463 422 466 423 473 L433 528 C433 548 320 557 258 557 L258 557 Z M244 -46 C235 -46 230 -50 229 -58 C223 -105 210 -142 199 -163 C191 -176 191 -179 191 -183 C191 -187 192 -191 196 -194 L224 -216 C226 -218 229 -219 233 -219 C236 -219 240 -217 243 -214 C282 -179 322 -108 322 -59 C322 -52 315 -46 308 -46 L244 -46 Z " />
<glyph glyph-name="uni021A" unicode="&#x21a;" horiz-adv-x="514" d="M43 739 C36 739 29 732 29 725 L29 673 C29 665 36 658 43 658 L211 658 L211 14 C211 6 218 0 226 0 L292 0 C302 0 307 5 307 14 L307 658 L470 658 C477 658 484 665 484 673 L484 725 C484 732 477 739 470 739 L43 739 Z M224 -46 C215 -46 210 -50 209 -58 C203 -105 190 -142 179 -163 C171 -176 171 -179 171 -183 C171 -187 172 -191 176 -194 L204 -216 C206 -218 209 -219 213 -219 C216 -219 220 -217 223 -214 C262 -179 302 -108 302 -59 C302 -52 295 -46 288 -46 L224 -46 Z " />
<glyph glyph-name="uni021B" unicode="&#x21b;" horiz-adv-x="514" d="M460 531 C460 541 455 546 446 546 L261 546 L261 696 C261 705 256 710 247 710 L185 710 C176 710 171 705 171 696 L171 546 L70 546 C61 546 56 541 56 531 L56 484 C56 475 61 470 70 470 L171 470 L171 179 C171 38 260 0 355 0 C391 0 468 9 468 33 C468 36 467 40 465 44 L451 81 C450 85 446 87 439 87 C429 87 424 76 346 76 C301 76 261 91 261 192 L261 470 L446 470 C455 470 460 475 460 484 L460 531 Z M244 -46 C235 -46 230 -50 229 -58 C223 -105 210 -142 199 -163 C191 -176 191 -179 191 -183 C191 -187 192 -191 196 -194 L224 -216 C226 -218 229 -219 233 -219 C236 -219 240 -217 243 -214 C282 -179 322 -108 322 -59 C322 -52 315 -46 308 -46 L244 -46 Z " />
<glyph glyph-name="dotlessj" unicode="&#x237;" horiz-adv-x="514" d="M134 485 C134 475 139 470 148 470 L306 470 L306 -60 C306 -134 255 -142 227 -142 C115 -142 115 -129 98 -129 C91 -129 86 -133 84 -140 L74 -175 C73 -182 72 -185 72 -188 C72 -212 197 -219 229 -219 C345 -219 397 -142 397 -54 L397 532 C397 541 392 546 383 546 L148 546 C139 546 134 541 134 532 L134 485 Z " />
<glyph glyph-name="circumflex" unicode="&#x2c6;" horiz-adv-x="514" d="M337 598 C339 596 342 595 346 595 C349 595 355 596 356 597 L396 629 C399 632 401 636 401 640 C401 645 400 648 397 651 L289 759 C286 762 282 764 279 764 L234 764 C231 764 228 762 225 759 L117 651 C114 646 112 642 112 640 C112 637 114 633 118 629 L158 597 C159 596 165 595 167 595 C172 595 175 596 177 598 L257 685 L337 598 Z " />
<glyph glyph-name="caron" unicode="&#x2c7;" horiz-adv-x="514" d="M177 761 C175 763 172 764 167 764 C164 764 160 763 158 762 L118 729 C114 725 112 721 112 718 C112 715 114 711 117 708 L225 599 C228 596 231 595 234 595 L279 595 C283 595 286 596 289 599 L397 708 C400 711 401 714 401 718 C401 722 399 726 396 729 L356 762 C355 763 349 764 346 764 C342 764 339 763 337 761 L257 673 L177 761 Z " />
<glyph glyph-name="breve" unicode="&#x2d8;" horiz-adv-x="514" d="M256 670 C211 670 197 708 184 753 C180 760 176 764 171 764 C168 764 166 764 165 763 L123 748 C117 745 114 740 114 734 C114 679 165 598 256 598 C346 598 400 679 400 732 C400 739 397 744 392 748 L350 763 C344 763 341 764 341 765 C332 765 328 761 327 753 C316 708 300 670 256 670 L256 670 Z " />
<glyph glyph-name="dotaccent" unicode="&#x2d9;" horiz-adv-x="514" d="M256 750 C221 750 194 722 194 687 C194 652 221 624 256 624 C292 624 320 652 320 687 C320 722 292 750 256 750 L256 750 Z " />
<glyph glyph-name="ring" unicode="&#x2da;" horiz-adv-x="514" d="M372 650 C372 723 337 764 256 764 C176 764 142 723 142 650 C142 574 176 534 256 534 C336 534 372 570 372 650 L372 650 Z M193 650 C193 702 204 725 255 725 C307 725 323 702 323 650 C323 599 307 576 255 576 C204 576 193 599 193 650 L193 650 Z " />
<glyph glyph-name="ogonek" unicode="&#x2db;" horiz-adv-x="514" d="M324 0 L264 0 L219 -33 C182 -60 157 -91 157 -135 C157 -181 192 -219 250 -219 C292 -219 335 -209 335 -193 C335 -191 334 -187 333 -180 L323 -146 C321 -138 316 -134 309 -134 C301 -134 283 -142 252 -142 C241 -142 222 -129 222 -108 C222 -87 234 -71 261 -50 L324 0 Z " />
<glyph glyph-name="tilde" unicode="&#x2dc;" horiz-adv-x="514" d="M332 627 C372 627 416 667 416 711 C416 717 414 721 409 724 L371 745 C368 746 365 748 362 748 C343 748 352 700 321 700 C283 700 240 748 182 748 C142 748 98 708 98 664 C98 657 100 653 105 651 L143 629 C146 628 153 628 153 627 C170 627 162 674 194 674 C232 671 271 627 332 627 L332 627 Z " />
<glyph glyph-name="hungarumlaut" unicode="&#x2dd;" horiz-adv-x="514" d="M376 764 C373 764 369 762 366 759 L262 651 C258 647 256 643 256 639 C256 634 258 630 263 628 L293 606 C295 604 298 603 301 603 C305 603 309 605 312 608 L419 711 C422 714 423 717 423 721 C423 724 421 728 418 731 L385 761 C382 763 379 764 376 764 L376 764 Z M198 764 C193 764 189 762 186 758 L94 650 C91 647 90 644 90 640 C90 635 92 631 96 628 L126 606 C128 604 131 603 134 603 C138 603 142 605 145 608 L241 711 C244 714 245 717 245 722 C245 726 243 729 240 731 L207 761 C204 763 201 764 198 764 L198 764 Z " />
<glyph glyph-name="tildecomb" unicode="&#x303;" horiz-adv-x="514" d="M320 597 C321 596 323 595 326 595 C331 595 333 596 334 596 L366 614 C369 616 372 619 372 621 C372 624 370 626 367 628 L282 691 C280 693 275 695 273 695 L236 695 C234 695 230 693 228 691 L142 628 C138 625 137 623 137 621 C137 618 139 615 142 614 L173 597 C177 596 180 595 182 595 C185 595 189 596 190 597 L254 647 L320 597 Z M317 693 C350 693 385 716 385 743 C385 746 384 748 378 750 L349 762 C346 763 343 764 341 764 C327 764 333 736 308 736 C277 736 243 764 196 764 C163 764 128 740 128 714 C128 711 129 709 135 707 L163 695 C165 694 171 693 173 693 C186 693 180 720 206 720 C247 720 268 693 317 693 L317 693 Z " />
<glyph glyph-name="hookabovecomb" unicode="&#x309;" horiz-adv-x="514" d="M391 685 C391 739 353 764 282 764 C252 764 208 759 208 734 L213 709 C214 704 217 702 222 702 C233 702 243 711 270 711 C316 711 323 693 323 670 C323 648 306 634 268 627 C257 625 252 619 252 608 L252 580 C252 572 256 568 263 568 L281 568 C289 568 293 572 293 580 L293 598 C359 608 391 632 391 685 L391 685 Z " />
<glyph glyph-name="dotbelowcomb" unicode="&#x323;" horiz-adv-x="514" d="M256 -93 C221 -93 194 -121 194 -156 C194 -191 221 -219 256 -219 C292 -219 320 -191 320 -156 C320 -121 292 -93 256 -93 L256 -93 Z " />
<glyph glyph-name="commaaccent" unicode="&#x326;" horiz-adv-x="514" d="M238 -46 C229 -46 224 -50 223 -58 C217 -105 204 -142 193 -163 C185 -176 185 -179 185 -183 C185 -187 186 -191 190 -194 L218 -216 C220 -218 223 -219 227 -219 C230 -219 234 -217 237 -214 C276 -179 316 -108 316 -59 C316 -52 309 -46 302 -46 L238 -46 Z " />
<glyph glyph-name="pi" unicode="&#x3c0;" horiz-adv-x="514" d="M486 465 C496 465 501 470 501 479 L501 532 C501 541 496 546 486 546 L29 546 C21 546 14 541 14 532 L14 479 C14 471 21 465 29 465 L90 465 L90 14 C90 5 95 0 104 0 L172 0 C181 0 186 5 186 14 L186 465 L328 465 L328 14 C328 6 335 0 342 0 L410 0 C419 0 424 5 424 14 L424 465 L486 465 Z " />
<glyph glyph-name="Wgrave" unicode="&#x1e80;" horiz-adv-x="514" d="M329 493 C328 500 324 503 315 503 L200 503 C191 503 187 500 186 493 L146 78 L119 78 L97 729 C97 736 92 739 83 739 L9 739 C0 739 -5 734 -5 725 C-5 722 -5 719 -4 712 L39 10 C39 3 44 0 53 0 L188 0 C197 0 201 3 202 10 L248 426 L267 426 L313 10 C314 3 318 0 327 0 L462 0 C471 0 476 3 476 10 L519 712 C520 719 520 722 520 725 C520 734 515 739 506 739 L432 739 C423 739 418 736 418 729 L396 78 L369 78 L329 493 Z M130 899 C127 896 126 893 126 890 C126 885 129 880 134 877 L282 791 C283 790 288 789 290 789 C295 789 299 790 302 793 L326 822 C328 824 329 827 329 832 C329 835 327 839 324 844 L193 954 C191 956 188 957 185 957 C180 957 176 955 173 951 L130 899 Z " />
<glyph glyph-name="wgrave" unicode="&#x1e81;" horiz-adv-x="514" d="M250 346 L264 346 L302 9 C303 3 307 0 315 0 L455 0 C462 0 467 3 468 9 L518 512 C519 523 520 530 520 534 C520 542 516 546 507 546 L444 546 C439 546 435 543 431 538 L398 70 L367 70 L327 402 C326 411 322 415 313 415 L201 415 C192 415 188 411 187 402 L147 70 L116 70 L83 538 C79 543 75 546 70 546 L7 546 C-2 546 -6 542 -6 534 C-6 530 -5 523 -4 512 L46 9 C47 3 51 0 59 0 L199 0 C206 0 211 3 212 9 L250 346 Z M130 706 C127 703 126 700 126 697 C126 692 129 687 134 684 L282 598 C283 597 288 596 290 596 C295 596 299 597 302 600 L326 629 C328 631 329 634 329 639 C329 642 327 646 324 651 L193 761 C191 763 188 764 185 764 C180 764 176 762 173 758 L130 706 Z " />
<glyph glyph-name="Wacute" unicode="&#x1e82;" horiz-adv-x="514" d="M329 493 C328 500 324 503 315 503 L200 503 C191 503 187 500 186 493 L146 78 L119 78 L97 729 C97 736 92 739 83 739 L9 739 C0 739 -5 734 -5 725 C-5 722 -5 719 -4 712 L39 10 C39 3 44 0 53 0 L188 0 C197 0 201 3 202 10 L248 426 L267 426 L313 10 C314 3 318 0 327 0 L462 0 C471 0 476 3 476 10 L519 712 C520 719 520 722 520 725 C520 734 515 739 506 739 L432 739 C423 739 418 736 418 729 L396 78 L369 78 L329 493 Z M343 951 C340 955 336 957 331 957 C328 957 325 956 322 954 L191 844 C188 841 186 837 186 834 C186 829 187 826 190 823 L216 794 C219 791 222 790 227 790 C229 790 232 791 236 793 L381 878 C386 881 388 885 388 891 C388 894 387 897 385 900 L343 951 Z " />
<glyph glyph-name="wacute" unicode="&#x1e83;" horiz-adv-x="514" d="M250 346 L264 346 L302 9 C303 3 307 0 315 0 L455 0 C462 0 467 3 468 9 L518 512 C519 523 520 530 520 534 C520 542 516 546 507 546 L444 546 C439 546 435 543 431 538 L398 70 L367 70 L327 402 C326 411 322 415 313 415 L201 415 C192 415 188 411 187 402 L147 70 L116 70 L83 538 C79 543 75 546 70 546 L7 546 C-2 546 -6 542 -6 534 C-6 530 -5 523 -4 512 L46 9 C47 3 51 0 59 0 L199 0 C206 0 211 3 212 9 L250 346 Z M343 758 C340 762 336 764 331 764 C328 764 325 763 322 761 L191 651 C188 648 186 644 186 641 C186 636 187 633 190 630 L216 601 C219 598 222 597 227 597 C229 597 232 598 236 600 L381 685 C386 688 388 692 388 698 C388 701 387 704 385 707 L343 758 Z " />
<glyph glyph-name="Wdieresis" unicode="&#x1e84;" horiz-adv-x="514" d="M329 493 C328 500 324 503 315 503 L200 503 C191 503 187 500 186 493 L146 78 L119 78 L97 729 C97 736 92 739 83 739 L9 739 C0 739 -5 734 -5 725 C-5 722 -5 719 -4 712 L39 10 C39 3 44 0 53 0 L188 0 C197 0 201 3 202 10 L248 426 L267 426 L313 10 C314 3 318 0 327 0 L462 0 C471 0 476 3 476 10 L519 712 C520 719 520 722 520 725 C520 734 515 739 506 739 L432 739 C423 739 418 736 418 729 L396 78 L369 78 L329 493 Z M153 943 C118 943 91 915 91 880 C91 845 118 817 153 817 C189 817 217 845 217 880 C217 915 189 943 153 943 L153 943 Z M360 943 C325 943 298 915 298 880 C298 845 325 817 360 817 C397 817 423 845 423 880 C423 915 397 943 360 943 L360 943 Z " />
<glyph glyph-name="wdieresis" unicode="&#x1e85;" horiz-adv-x="514" d="M250 346 L264 346 L302 9 C303 3 307 0 315 0 L455 0 C462 0 467 3 468 9 L518 512 C519 523 520 530 520 534 C520 542 516 546 507 546 L444 546 C439 546 435 543 431 538 L398 70 L367 70 L327 402 C326 411 322 415 313 415 L201 415 C192 415 188 411 187 402 L147 70 L116 70 L83 538 C79 543 75 546 70 546 L7 546 C-2 546 -6 542 -6 534 C-6 530 -5 523 -4 512 L46 9 C47 3 51 0 59 0 L199 0 C206 0 211 3 212 9 L250 346 Z M153 750 C118 750 91 722 91 687 C91 652 118 624 153 624 C189 624 217 652 217 687 C217 722 189 750 153 750 L153 750 Z M360 750 C325 750 298 722 298 687 C298 652 325 624 360 624 C397 624 423 652 423 687 C423 722 397 750 360 750 L360 750 Z " />
<glyph glyph-name="uni1EA0" unicode="&#x1ea0;" horiz-adv-x="514" d="M162 739 C155 739 151 736 148 729 L18 19 C17 18 17 16 17 13 C17 4 22 0 31 0 L100 0 C105 0 111 5 114 10 L144 200 L376 200 L407 10 C410 5 416 0 421 0 L491 0 C500 0 505 4 505 13 C505 16 504 16 504 19 L373 729 C370 736 366 739 359 739 L162 739 Z M221 661 L300 661 L362 281 L159 281 L221 661 Z M256 -93 C221 -93 194 -121 194 -156 C194 -191 221 -219 256 -219 C292 -219 320 -191 320 -156 C320 -121 292 -93 256 -93 L256 -93 Z " />
<glyph glyph-name="uni1EA1" unicode="&#x1ea1;" horiz-adv-x="514" d="M274 557 C177 557 58 525 58 501 C58 498 59 496 61 493 L82 449 C85 444 89 442 94 442 C97 442 100 444 103 445 C150 468 212 480 259 480 C340 480 367 463 367 411 L367 336 C202 331 35 315 35 134 C35 66 87 -11 213 -11 C285 -11 352 11 385 60 C390 33 411 0 442 0 L477 0 C487 0 492 5 492 14 C465 57 458 126 458 184 L458 402 C458 491 414 557 274 557 L274 557 Z M367 157 C351 110 300 66 228 66 C152 66 123 94 123 143 C123 258 251 262 367 265 L367 157 Z M256 -93 C221 -93 194 -121 194 -156 C194 -191 221 -219 256 -219 C292 -219 320 -191 320 -156 C320 -121 292 -93 256 -93 L256 -93 Z " />
<glyph glyph-name="uni1EA2" unicode="&#x1ea2;" horiz-adv-x="514" d="M162 739 C155 739 151 736 148 729 L18 19 C17 18 17 16 17 13 C17 4 22 0 31 0 L100 0 C105 0 111 5 114 10 L144 200 L376 200 L407 10 C410 5 416 0 421 0 L491 0 C500 0 505 4 505 13 C505 16 504 16 504 19 L373 729 C370 736 366 739 359 739 L162 739 Z M221 661 L300 661 L362 281 L159 281 L221 661 Z M384 878 C384 932 346 957 275 957 C245 957 201 952 201 927 L206 902 C207 897 210 895 215 895 C226 895 236 904 263 904 C309 904 316 886 316 863 C316 841 299 827 261 820 C250 818 245 812 245 801 L245 773 C245 765 249 761 256 761 L274 761 C282 761 286 765 286 773 L286 791 C352 801 384 825 384 878 L384 878 Z " />
<glyph glyph-name="uni1EA3" unicode="&#x1ea3;" horiz-adv-x="514" d="M274 557 C177 557 58 525 58 501 C58 498 59 496 61 493 L82 449 C85 444 89 442 94 442 C97 442 100 444 103 445 C150 468 212 480 259 480 C340 480 367 463 367 411 L367 336 C202 331 35 315 35 134 C35 66 87 -11 213 -11 C285 -11 352 11 385 60 C390 33 411 0 442 0 L477 0 C487 0 492 5 492 14 C465 57 458 126 458 184 L458 402 C458 491 414 557 274 557 L274 557 Z M367 157 C351 110 300 66 228 66 C152 66 123 94 123 143 C123 258 251 262 367 265 L367 157 Z M373 685 C373 739 335 764 264 764 C234 764 190 759 190 734 L195 709 C196 704 199 702 204 702 C215 702 225 711 252 711 C298 711 305 693 305 670 C305 648 288 634 250 627 C239 625 234 619 234 608 L234 580 C234 572 238 568 245 568 L263 568 C271 568 275 572 275 580 L275 598 C341 608 373 632 373 685 L373 685 Z " />
<glyph glyph-name="uni1EA4" unicode="&#x1ea4;" horiz-adv-x="514" d="M162 739 C155 739 151 736 148 729 L18 19 C17 18 17 16 17 13 C17 4 22 0 31 0 L100 0 C105 0 111 5 114 10 L144 200 L376 200 L407 10 C410 5 416 0 421 0 L491 0 C500 0 505 4 505 13 C505 16 504 16 504 19 L373 729 C370 736 366 739 359 739 L162 739 Z M221 661 L300 661 L362 281 L159 281 L221 661 Z M329 791 C331 789 333 788 337 788 C342 788 344 789 346 790 L380 822 C383 825 384 829 384 833 C384 838 383 841 381 844 L288 952 C285 955 282 957 279 957 L240 957 C238 957 235 955 232 952 L139 844 C136 840 135 835 135 833 C135 830 137 826 140 822 L174 791 C176 789 180 788 182 788 C187 788 189 789 191 791 L260 878 L329 791 Z M530 951 C528 955 524 957 520 957 C517 957 515 956 512 954 L399 844 C396 841 395 837 395 834 C395 829 396 826 398 823 L421 794 C423 791 426 790 430 790 C432 790 434 791 438 793 L563 878 C567 881 569 885 569 891 C569 894 568 897 566 900 L530 951 Z " />
<glyph glyph-name="uni1EA5" unicode="&#x1ea5;" horiz-adv-x="514" d="M274 557 C177 557 58 525 58 501 C58 498 59 496 61 493 L82 449 C85 444 89 442 94 442 C97 442 100 444 103 445 C150 468 212 480 259 480 C340 480 367 463 367 411 L367 336 C202 331 35 315 35 134 C35 66 87 -11 213 -11 C285 -11 352 11 385 60 C390 33 411 0 442 0 L477 0 C487 0 492 5 492 14 C465 57 458 126 458 184 L458 402 C458 491 414 557 274 557 L274 557 Z M367 157 C351 110 300 66 228 66 C152 66 123 94 123 143 C123 258 251 262 367 265 L367 157 Z M332 598 C334 596 336 595 340 595 C345 595 347 596 349 597 L383 629 C386 632 387 636 387 640 C387 645 386 648 384 651 L291 759 C288 762 285 764 282 764 L243 764 C241 764 238 762 235 759 L142 651 C139 647 138 642 138 640 C138 637 140 633 143 629 L177 598 C179 596 183 595 185 595 C190 595 192 596 194 598 L263 685 L332 598 Z M533 758 C531 762 527 764 523 764 C520 764 518 763 515 761 L402 651 C399 648 398 644 398 641 C398 636 399 633 401 630 L424 601 C426 598 429 597 433 597 C435 597 437 598 441 600 L566 685 C570 688 572 692 572 698 C572 701 571 704 569 707 L533 758 Z " />
<glyph glyph-name="uni1EA6" unicode="&#x1ea6;" horiz-adv-x="514" d="M162 739 C155 739 151 736 148 729 L18 19 C17 18 17 16 17 13 C17 4 22 0 31 0 L100 0 C105 0 111 5 114 10 L144 200 L376 200 L407 10 C410 5 416 0 421 0 L491 0 C500 0 505 4 505 13 C505 16 504 16 504 19 L373 729 C370 736 366 739 359 739 L162 739 Z M221 661 L300 661 L362 281 L159 281 L221 661 Z M-32 899 C-34 896 -35 893 -35 890 C-35 885 -33 880 -28 877 L94 791 C98 790 100 789 100 789 C105 789 108 790 110 793 L130 822 C132 824 133 827 133 832 C133 835 131 839 129 844 L20 954 C19 956 16 957 14 957 C10 957 6 955 4 951 L-32 899 Z M330 791 C332 789 334 788 338 788 C343 788 344 789 346 790 L379 822 C381 825 383 829 383 833 C383 838 382 841 380 844 L290 952 C288 955 285 957 282 957 L245 957 C243 957 240 955 238 952 L148 844 C145 840 144 835 144 833 C144 830 146 826 149 822 L181 791 C184 789 187 788 190 788 C194 788 196 789 198 791 L264 878 L330 791 Z " />
<glyph glyph-name="uni1EA7" unicode="&#x1ea7;" horiz-adv-x="514" d="M274 557 C177 557 58 525 58 501 C58 498 59 496 61 493 L82 449 C85 444 89 442 94 442 C97 442 100 444 103 445 C150 468 212 480 259 480 C340 480 367 463 367 411 L367 336 C202 331 35 315 35 134 C35 66 87 -11 213 -11 C285 -11 352 11 385 60 C390 33 411 0 442 0 L477 0 C487 0 492 5 492 14 C465 57 458 126 458 184 L458 402 C458 491 414 557 274 557 L274 557 Z M367 157 C351 110 300 66 228 66 C152 66 123 94 123 143 C123 258 251 262 367 265 L367 157 Z M-24 706 C-26 703 -27 700 -27 697 C-27 692 -25 687 -20 684 L102 598 C106 597 108 596 108 596 C113 596 116 597 118 600 L138 629 C140 631 141 634 141 639 C141 642 139 646 137 651 L28 761 C27 763 24 764 22 764 C18 764 14 762 12 758 L-24 706 Z M338 598 C340 596 342 595 346 595 C351 595 352 596 354 597 L387 629 C389 632 391 636 391 640 C391 645 390 648 388 651 L298 759 C296 762 293 764 290 764 L253 764 C251 764 248 762 246 759 L156 651 C153 647 152 642 152 640 C152 637 154 633 157 629 L189 598 C192 596 195 595 198 595 C202 595 204 596 206 598 L272 685 L338 598 Z " />
<glyph glyph-name="uni1EA8" unicode="&#x1ea8;" horiz-adv-x="514" d="M162 739 C155 739 151 736 148 729 L18 19 C17 18 17 16 17 13 C17 4 22 0 31 0 L100 0 C105 0 111 5 114 10 L144 200 L376 200 L407 10 C410 5 416 0 421 0 L491 0 C500 0 505 4 505 13 C505 16 504 16 504 19 L373 729 C370 736 366 739 359 739 L162 739 Z M221 661 L300 661 L362 281 L159 281 L221 661 Z M338 791 C340 789 343 788 346 788 C352 788 354 789 355 790 L392 822 C395 825 397 829 397 833 C397 838 396 841 393 844 L294 952 C291 955 287 957 285 957 L243 957 C240 957 238 955 235 952 L136 844 C132 840 131 835 131 833 C131 830 133 826 137 822 L172 791 C175 789 179 788 182 788 C186 788 189 789 191 791 L264 878 L338 791 Z M544 878 C544 932 509 957 444 957 C416 957 376 952 376 927 L380 902 C381 897 384 895 389 895 C399 895 408 904 433 904 C475 904 481 886 481 863 C481 841 466 827 431 820 C421 818 416 812 416 801 L416 773 C416 765 419 761 426 761 L443 761 C450 761 454 765 454 773 L454 791 C515 801 544 825 544 878 L544 878 Z " />
<glyph glyph-name="uni1EA9" unicode="&#x1ea9;" horiz-adv-x="514" d="M274 557 C177 557 58 525 58 501 C58 498 59 496 61 493 L82 449 C85 444 89 442 94 442 C97 442 100 444 103 445 C150 468 212 480 259 480 C340 480 367 463 367 411 L367 336 C202 331 35 315 35 134 C35 66 87 -11 213 -11 C285 -11 352 11 385 60 C390 33 411 0 442 0 L477 0 C487 0 492 5 492 14 C465 57 458 126 458 184 L458 402 C458 491 414 557 274 557 L274 557 Z M367 157 C351 110 300 66 228 66 C152 66 123 94 123 143 C123 258 251 262 367 265 L367 157 Z M337 598 C339 596 342 595 345 595 C351 595 353 596 354 597 L391 629 C394 632 396 636 396 640 C396 645 395 648 392 651 L293 759 C290 762 286 764 284 764 L242 764 C239 764 237 762 234 759 L135 651 C131 647 130 642 130 640 C130 637 132 633 136 629 L171 598 C174 596 178 595 181 595 C185 595 188 596 190 598 L263 685 L337 598 Z M543 685 C543 739 508 764 443 764 C415 764 375 759 375 734 L379 709 C380 704 383 702 388 702 C398 702 407 711 432 711 C474 711 480 693 480 670 C480 648 465 634 430 627 C420 625 415 619 415 608 L415 580 C415 572 418 568 425 568 L442 568 C449 568 453 572 453 580 L453 598 C514 608 543 632 543 685 L543 685 Z " />
</font>
</svg>
