<?xml version="1.0" encoding="UTF-8"?>
<svg xmlns="http://www.w3.org/2000/svg" xmlns:xlink="http://www.w3.org/1999/xlink" version="1.2" >
<font id="MHE LetterGotLOTMed Italic">
<font-face  font-family="MHE LetterGotLOTMed" units-per-em="1000" ascent="733" descent="-278" font-style="italic" font-weight="500" font-stretch="normal" slope="-12" cap-height="720" x-height="534" underline-position="-57" underline-thickness="68" />
<missing-glyph  horiz-adv-x="602" d="" />
<glyph glyph-name="NULL" d="" />
<glyph glyph-name="CR" unicode="&#xd;" horiz-adv-x="602" d="" />
<glyph glyph-name="space" unicode="&#x20;" horiz-adv-x="602" d="" />
<glyph glyph-name="exclam" unicode="&#x21;" horiz-adv-x="602" d="M503 720 L405 720 L317 219 L383 219 L503 720 Z M332 149 C280 149 233 102 233 51 C233 13 259 -13 298 -13 C348 -13 395 34 395 85 C395 122 369 149 332 149 L332 149 Z " />
<glyph glyph-name="quotedbl" unicode="&#x22;" horiz-adv-x="602" d="M431 722 L315 736 L239 457 L324 446 L431 722 Z M641 722 L524 736 L448 457 L533 446 L641 722 Z " />
<glyph glyph-name="numbersign" unicode="&#x23;" horiz-adv-x="602" d="M535 488 L594 802 L522 802 L353 -93 L425 -93 L483 217 L617 217 L630 289 L497 289 L521 416 L654 416 L668 488 L535 488 Z M234 221 L175 -93 L247 -93 L416 802 L344 802 L286 492 L152 492 L139 420 L272 420 L248 293 L115 293 L101 221 L234 221 Z " />
<glyph glyph-name="dollar" unicode="&#x24;" horiz-adv-x="602" d="M607 600 C569 640 526 663 475 670 L490 743 L421 743 L405 669 L401 669 C311 656 229 571 229 490 C229 426 260 387 338 355 L290 131 L288 131 C249 139 241 144 204 181 C199 186 194 192 189 198 L132 144 C182 85 211 69 276 63 L256 -30 L326 -30 L346 63 C401 74 432 88 464 114 C507 152 533 209 533 265 C533 331 500 372 419 407 L461 603 L466 601 C501 592 521 579 543 553 L551 544 L607 600 Z M390 600 L353 427 C318 450 303 472 303 502 C303 516 308 532 317 547 C333 573 346 583 386 598 L390 600 Z M360 131 L404 335 L413 330 C439 315 458 281 458 248 C458 216 444 184 420 161 C404 147 378 133 363 131 L360 131 Z " />
<glyph glyph-name="percent" unicode="&#x25;" horiz-adv-x="602" d="M325 748 C281 748 240 727 216 692 C188 653 165 569 165 505 C165 453 199 419 253 419 C296 419 338 441 363 477 C390 516 412 599 412 662 C412 714 377 748 325 748 L325 748 Z M312 695 C335 695 347 679 347 649 C347 625 338 576 327 541 C313 495 291 471 264 471 C242 471 230 487 230 518 C230 545 241 601 254 635 C268 675 288 695 312 695 L312 695 Z M599 733 L65 -13 L137 -13 L674 733 L599 733 Z M498 323 C455 323 412 302 389 267 C360 227 338 144 338 81 C338 28 372 -6 427 -6 C469 -6 511 16 536 52 C562 90 585 176 585 237 C585 289 551 323 498 323 L498 323 Z M485 271 C508 271 520 255 520 225 C520 202 511 153 500 117 C487 71 465 47 436 47 C415 47 403 63 403 93 C403 119 414 174 426 209 C440 250 460 271 485 271 L485 271 Z " />
<glyph glyph-name="ampersand" unicode="&#x26;" horiz-adv-x="602" d="M494 368 L491 355 C478 298 469 266 447 202 C409 287 404 297 399 310 C387 338 381 354 371 390 C480 493 516 553 516 630 C516 691 477 733 422 733 C332 733 249 634 249 528 C249 492 259 453 282 393 C149 268 107 199 107 107 C107 33 160 -13 246 -13 C317 -13 372 11 429 68 C451 36 473 4 489 -19 L550 33 C530 59 511 87 481 131 C513 183 547 276 569 368 L494 368 Z M339 456 C327 486 322 509 322 537 C322 580 333 612 356 639 C372 657 388 666 403 666 C426 666 441 646 441 617 C441 570 415 525 342 448 L339 456 Z M308 330 C328 284 362 207 401 122 C359 75 317 54 263 54 C212 54 182 80 182 123 C182 174 213 236 265 287 L308 330 Z " />
<glyph glyph-name="quotesingle" unicode="&#x27;" horiz-adv-x="602" d="M523 722 L425 736 L357 457 L428 446 L523 722 Z " />
<glyph glyph-name="parenleft" unicode="&#x28;" horiz-adv-x="602" d="M406 -3 C397 6 392 11 390 12 C334 67 307 139 307 235 C307 347 344 473 405 567 C442 624 482 663 559 716 L533 766 C500 745 485 735 460 715 C323 604 234 416 234 238 C234 148 258 62 299 8 C314 -13 327 -26 355 -48 L359 -52 L406 -3 Z " />
<glyph glyph-name="parenright" unicode="&#x29;" horiz-adv-x="602" d="M210 -52 L212 -51 C219 -47 219 -47 236 -36 C288 -4 352 57 388 108 C464 215 510 353 510 477 C510 572 485 654 438 714 C423 732 420 735 384 766 L337 716 C346 708 350 704 357 697 C410 646 437 571 437 477 C437 366 400 240 339 146 C302 89 263 52 184 -3 L210 -52 Z " />
<glyph glyph-name="asterisk" unicode="&#x2a;" horiz-adv-x="602" d="M418 725 L379 539 L210 592 L176 527 L349 475 L203 329 L248 288 L392 431 L477 288 L538 329 L452 475 L648 527 L641 592 L449 539 L489 725 L418 725 Z " />
<glyph glyph-name="plus" unicode="&#x2b;" horiz-adv-x="602" d="M405 632 L335 632 L335 394 L94 394 L94 326 L335 326 L335 88 L405 88 L405 326 L644 326 L644 394 L405 394 L405 632 Z " />
<glyph glyph-name="comma" unicode="&#x2c;" horiz-adv-x="602" d="M289 -12 C272 -23 250 -32 224 -39 L209 -107 C252 -95 276 -86 303 -70 C368 -33 404 18 404 72 C404 113 377 140 336 140 C286 140 241 96 241 47 C241 16 257 -1 293 -8 L289 -12 Z " />
<glyph glyph-name="hyphen" unicode="&#x2d;" horiz-adv-x="602" d="M501 327 L514 390 L254 390 L241 327 L501 327 Z " />
<glyph glyph-name="period" unicode="&#x2e;" horiz-adv-x="602" d="M333 150 C280 150 233 104 233 52 C233 13 259 -13 299 -13 C351 -13 397 34 397 86 C397 124 371 150 333 150 L333 150 Z " />
<glyph glyph-name="slash" unicode="&#x2f;" horiz-adv-x="602" d="M186 -26 L489 746 L416 746 L113 -26 L186 -26 Z " />
<glyph glyph-name="zero" unicode="0" horiz-adv-x="602" d="M459 733 C372 733 293 678 242 581 C196 495 146 282 146 172 C146 57 204 -13 298 -13 C384 -13 463 42 514 138 C560 224 610 438 610 548 C610 664 553 733 459 733 L459 733 Z M442 666 C500 666 535 616 535 536 C535 444 495 259 456 175 C422 100 367 54 313 54 C256 54 221 104 221 185 C221 316 282 537 336 605 C367 644 406 666 442 666 L442 666 Z " />
<glyph glyph-name="one" unicode="1" horiz-adv-x="602" d="M500 750 L271 685 L256 615 L411 660 L284 63 L145 63 L132 0 L471 0 L485 63 L354 63 L500 750 Z " />
<glyph glyph-name="two" unicode="2" horiz-adv-x="602" d="M517 63 L191 63 C219 159 256 203 400 310 C477 368 508 392 537 417 C592 465 626 535 626 603 C626 686 573 733 478 733 C386 733 313 691 264 610 C249 585 238 561 225 520 L298 520 C331 623 380 666 463 666 C519 666 551 637 551 585 C551 533 515 474 454 428 C415 399 320 327 312 321 C174 216 137 161 103 13 L101 0 L504 0 L517 63 Z " />
<glyph glyph-name="three" unicode="3" horiz-adv-x="602" d="M262 567 C274 583 277 587 283 593 C323 640 374 666 427 666 C486 666 527 627 527 572 C527 490 449 422 351 418 L338 418 L324 352 L337 352 L343 352 L349 352 C434 352 486 308 486 235 C486 134 408 54 308 54 C240 54 199 80 178 136 C175 143 173 149 173 152 L170 160 L170 162 L97 125 C107 102 110 95 114 87 C149 20 207 -13 288 -13 C437 -13 561 107 561 249 C561 310 532 359 478 387 L470 392 L471 392 C562 447 601 505 601 585 C601 672 537 733 445 733 C385 733 323 711 273 671 C251 653 237 638 208 602 L262 567 Z " />
<glyph glyph-name="four" unicode="4" horiz-adv-x="602" d="M579 733 L487 733 L112 235 L102 186 L393 186 L353 0 L423 0 L463 186 L567 186 L580 249 L476 249 L579 733 Z M406 249 L200 249 L488 635 L406 249 Z " />
<glyph glyph-name="five" unicode="5" horiz-adv-x="602" d="M614 720 L294 720 L179 322 L250 307 C300 362 341 385 388 385 C448 385 484 340 484 266 C484 152 404 54 310 54 C267 54 231 74 208 112 C203 120 200 127 189 149 L124 108 C134 89 137 83 143 74 C178 16 229 -13 292 -13 C436 -13 560 126 560 287 C560 388 500 452 404 452 C359 452 317 438 280 411 L271 404 L345 657 L601 657 L614 720 Z " />
<glyph glyph-name="six" unicode="6" horiz-adv-x="602" d="M251 383 L253 390 C268 447 312 529 356 581 C400 633 460 666 510 666 C534 666 565 655 586 639 C590 636 596 633 603 628 L651 689 C603 722 570 733 523 733 C446 733 359 685 298 609 C206 495 145 321 145 170 C145 54 202 -13 300 -13 C442 -13 568 132 568 296 C568 398 512 459 419 459 C361 459 308 436 259 390 L251 383 Z M400 392 C460 392 494 353 494 286 C494 162 411 54 316 54 C253 54 218 96 218 170 C218 233 244 296 287 337 C322 371 365 392 400 392 L400 392 Z " />
<glyph glyph-name="seven" unicode="7" horiz-adv-x="602" d="M247 720 L234 657 L541 657 L136 0 L214 0 L651 720 L247 720 Z " />
<glyph glyph-name="eight" unicode="8" horiz-adv-x="602" d="M503 378 C585 429 626 497 626 584 C626 678 564 733 457 733 C316 733 206 628 206 494 C206 442 219 414 260 378 L250 372 C192 342 160 312 136 265 C117 228 107 186 107 145 C107 46 179 -13 299 -13 C459 -13 579 98 579 246 C579 304 559 341 511 372 L503 378 Z M371 341 C456 341 503 302 503 231 C503 129 422 54 312 54 C228 54 182 93 182 164 C182 265 263 341 371 341 L371 341 Z M441 666 C514 666 551 634 551 570 C551 476 482 407 387 407 C318 407 278 442 278 501 C278 548 299 596 335 628 C363 654 397 666 441 666 L441 666 Z " />
<glyph glyph-name="nine" unicode="9" horiz-adv-x="602" d="M504 338 L502 330 C489 277 441 188 401 141 C353 87 296 54 248 54 C219 54 191 65 153 92 L104 31 C153 -1 189 -13 233 -13 C308 -13 396 36 457 111 C550 226 610 399 610 550 C610 666 553 733 455 733 C312 733 186 588 186 424 C186 322 242 261 334 261 C394 261 452 286 496 330 L504 338 Z M438 666 C502 666 537 624 537 550 C537 496 518 441 485 401 C449 357 397 328 352 328 C295 328 260 368 260 434 C260 557 344 666 438 666 L438 666 Z " />
<glyph glyph-name="colon" unicode="&#x3a;" horiz-adv-x="602" d="M406 486 C353 486 306 440 306 387 C306 349 332 323 371 323 C423 323 469 369 469 422 C469 460 444 486 406 486 L406 486 Z M333 150 C279 150 233 104 233 52 C233 13 259 -13 298 -13 C350 -13 396 33 396 86 C396 124 371 150 333 150 L333 150 Z " />
<glyph glyph-name="semicolon" unicode="&#x3b;" horiz-adv-x="602" d="M209 -107 C252 -95 278 -85 305 -70 C369 -33 405 18 405 71 C405 112 378 140 337 140 C287 140 242 96 242 47 C242 33 246 20 254 10 C262 0 262 0 292 -8 L294 -8 L290 -12 C271 -24 252 -32 224 -39 L209 -107 Z M416 486 C362 486 316 440 316 388 C316 349 342 323 381 323 C433 323 479 369 479 422 C479 460 454 486 416 486 L416 486 Z " />
<glyph glyph-name="less" unicode="&#x3c;" horiz-adv-x="602" d="M182 326 L518 623 L473 671 L83 326 L473 -19 L518 29 L182 326 Z " />
<glyph glyph-name="equal" unicode="&#x3d;" horiz-adv-x="602" d="M646 329 L96 329 L96 261 L646 261 L646 329 Z M646 458 L96 458 L96 390 L646 390 L646 458 Z " />
<glyph glyph-name="greater" unicode="&#x3e;" horiz-adv-x="602" d="M505 326 L169 29 L214 -19 L604 326 L214 671 L169 623 L505 326 Z " />
<glyph glyph-name="question" unicode="&#x3f;" horiz-adv-x="602" d="M378 215 L396 299 C407 348 411 356 445 380 L493 411 C564 458 599 519 599 597 C599 685 547 733 453 733 C388 733 331 708 287 661 C262 633 250 609 234 558 L314 558 C321 582 321 583 324 590 C342 637 386 666 438 666 C492 666 524 636 524 583 C524 530 501 493 445 456 C360 400 345 384 333 334 L308 215 L378 215 Z M333 147 C282 147 236 101 236 51 C236 13 262 -13 300 -13 C350 -13 396 33 396 84 C396 121 370 147 333 147 L333 147 Z " />
<glyph glyph-name="at" unicode="&#x40;" horiz-adv-x="602" d="M546 136 L539 133 C441 79 377 59 298 59 C246 59 202 74 168 101 C139 126 125 163 125 215 C125 312 165 432 226 520 C289 610 378 664 465 664 C560 664 630 592 630 495 C630 372 561 246 492 246 C475 246 463 258 463 274 C463 285 468 305 479 334 L546 508 C516 509 506 509 497 509 C409 509 344 486 301 439 C249 382 210 301 210 251 C210 204 240 175 288 175 C324 175 336 180 396 222 L398 224 L399 223 C414 192 438 179 477 179 C522 179 570 203 605 242 C665 311 703 417 703 513 C703 595 674 653 613 694 C574 720 531 733 481 733 C361 733 247 664 163 540 C93 437 51 312 51 207 C51 121 84 57 148 20 C184 -1 230 -13 274 -13 C364 -13 449 12 559 70 L546 136 Z M429 385 C396 298 348 242 307 242 C293 242 285 251 285 268 C285 296 313 353 346 391 C372 423 385 429 449 439 L429 385 Z " />
<glyph glyph-name="A" unicode="A" horiz-adv-x="602" d="M467 774 L48 0 L127 0 L236 211 L459 211 L478 0 L557 0 L467 774 Z M423 568 L454 274 L267 274 L423 568 Z " />
<glyph glyph-name="B" unicode="B" horiz-adv-x="602" d="M262 720 C259 702 246 631 223 510 L159 209 L158 206 L137 119 L116 27 L112 14 L109 0 L300 0 C379 0 433 18 481 60 C533 106 565 175 565 243 C565 304 538 349 483 378 L476 382 L490 389 C561 429 606 502 606 580 C606 633 586 674 550 695 C521 712 471 720 396 720 L262 720 Z M271 405 L324 657 L401 657 C499 657 532 635 532 569 C532 475 450 405 340 405 L271 405 Z M198 63 L257 342 L345 342 C441 342 490 303 490 227 C490 182 472 139 439 108 C407 77 367 63 312 63 L198 63 Z " />
<glyph glyph-name="C" unicode="C" horiz-adv-x="602" d="M483 177 C481 172 480 170 479 166 C460 98 403 54 333 54 C257 54 219 101 219 194 C219 321 262 487 319 577 C354 632 410 666 467 666 C518 666 555 635 555 590 C555 584 554 578 552 562 L625 562 C627 585 628 592 628 600 C628 678 566 733 480 733 C406 733 331 696 284 637 C203 534 145 346 145 185 C145 54 203 -13 317 -13 C434 -13 520 56 554 177 L483 177 Z " />
<glyph glyph-name="D" unicode="D" horiz-adv-x="602" d="M266 720 C263 706 263 705 262 697 C261 687 259 679 254 656 C245 611 237 565 228 517 L227 511 L163 209 C152 158 131 70 120 27 L116 14 L113 0 L277 0 C375 0 437 25 491 86 C563 168 625 374 625 532 C625 662 565 720 430 720 L266 720 Z M202 63 L328 657 L412 657 C511 657 552 619 552 528 C552 445 518 282 484 199 C445 102 387 63 285 63 L202 63 Z " />
<glyph glyph-name="E" unicode="E" horiz-adv-x="602" d="M140 0 L521 0 L535 63 L229 63 L287 337 L504 337 L517 400 L300 400 L355 657 L654 657 L667 720 L293 720 C292 713 291 710 291 708 L288 693 L271 600 L254 510 L190 209 L168 119 L147 27 L142 7 L140 0 Z " />
<glyph glyph-name="F" unicode="F" horiz-adv-x="602" d="M301 343 L536 343 L549 406 L315 406 L368 657 L678 657 L692 720 L306 720 C303 706 303 705 302 697 C301 688 299 680 295 657 C289 624 283 595 278 569 C275 550 271 531 267 510 L203 210 C199 194 185 133 160 27 L156 14 L153 0 L234 0 C236 12 237 16 241 39 C246 64 251 91 256 120 L273 210 L301 343 Z " />
<glyph glyph-name="G" unicode="G" horiz-adv-x="602" d="M529 296 C517 243 513 225 505 203 C472 109 406 54 330 54 C258 54 221 100 221 191 C221 308 270 497 321 577 C356 633 409 666 463 666 C511 666 543 634 543 585 C543 573 541 561 536 534 L613 534 C617 564 618 579 618 591 C618 675 559 733 475 733 C383 733 302 680 246 582 C194 491 144 291 144 175 C144 55 204 -13 310 -13 C371 -13 425 9 472 53 L479 60 L466 0 L536 0 L613 359 L372 359 L358 296 L529 296 Z " />
<glyph glyph-name="H" unicode="H" horiz-adv-x="602" d="M262 404 L285 509 L286 513 C298 560 308 606 319 653 C325 679 326 683 333 711 C334 715 334 718 335 720 L254 720 L252 706 L249 693 C238 631 226 570 215 509 L151 210 C144 179 137 150 130 121 L108 27 L104 14 L101 0 L182 0 L184 14 L186 27 L221 210 L249 341 L498 341 L470 210 C453 139 440 83 427 27 L423 14 L420 0 L501 0 L503 14 L506 27 C516 83 529 153 540 210 L604 509 C611 541 618 571 625 600 C633 631 640 662 647 693 L651 706 L654 720 L573 720 L571 706 L568 693 L534 509 L511 404 L262 404 Z " />
<glyph glyph-name="I" unicode="I" horiz-adv-x="602" d="M403 657 C397 622 394 606 391 591 C386 562 381 535 375 511 L312 209 C310 201 301 164 277 63 L179 63 L166 0 L436 0 L449 63 L354 63 C363 112 372 161 381 209 L445 511 C458 566 470 615 480 657 L576 657 L589 720 L319 720 L306 657 L403 657 Z " />
<glyph glyph-name="J" unicode="J" horiz-adv-x="602" d="M532 657 C522 607 515 567 504 511 L448 246 C438 198 420 144 409 124 C384 82 331 54 278 54 C214 54 184 84 184 148 C184 158 185 169 186 174 L194 211 C197 226 203 247 210 273 C214 288 218 301 220 310 L140 310 C139 307 139 306 138 300 L137 290 C129 239 127 222 124 211 L117 176 C113 158 111 140 111 124 C111 38 168 -13 264 -13 C344 -13 418 24 461 86 C486 120 500 160 518 246 L574 511 L595 601 C620 702 620 702 624 720 L414 720 L400 657 L532 657 Z " />
<glyph glyph-name="K" unicode="K" horiz-adv-x="602" d="M277 338 L285 338 L487 0 L586 0 L357 362 C430 400 516 489 667 685 L671 690 L606 728 C551 634 538 616 500 570 C417 473 341 410 300 404 L291 403 L314 510 C324 558 340 624 357 693 L360 706 L364 720 L283 720 L281 706 L278 693 L261 600 L244 510 L180 210 C168 154 157 108 137 27 L133 14 L130 0 L211 0 L213 14 L215 27 L233 119 C238 148 244 178 250 210 L277 338 Z " />
<glyph glyph-name="L" unicode="L" horiz-adv-x="602" d="M156 0 L543 0 L556 63 L249 63 C257 108 266 156 276 208 L340 510 C362 605 378 675 389 720 L309 720 L307 706 L304 693 C293 633 281 569 270 510 L206 208 C203 197 199 177 192 151 L182 109 L162 27 L156 0 Z " />
<glyph glyph-name="M" unicode="M" horiz-adv-x="602" d="M158 0 C167 47 172 78 176 94 C182 133 189 171 197 209 L269 551 L346 197 L573 551 L500 209 C496 192 482 131 457 27 L454 14 L451 0 L531 0 L534 14 L536 27 C540 53 566 188 571 209 L679 720 L607 720 L380 359 L308 720 L236 720 L127 209 C111 141 98 88 84 27 L80 14 L77 0 L158 0 Z " />
<glyph glyph-name="N" unicode="N" horiz-adv-x="602" d="M573 720 L570 706 L568 693 C562 662 556 631 550 601 C546 575 540 545 533 510 L463 179 L358 720 L275 720 L166 210 C163 198 149 137 123 27 L119 14 L116 0 L197 0 L199 14 L201 27 C219 122 228 172 236 210 L314 578 L428 -7 L493 -7 L603 510 C605 520 607 529 609 538 C615 558 620 579 624 600 L646 693 L650 706 L653 720 L573 720 Z " />
<glyph glyph-name="O" unicode="O" horiz-adv-x="602" d="M459 733 C366 733 285 680 232 586 C182 497 133 289 133 167 C133 57 197 -13 297 -13 C388 -13 470 40 523 134 C572 221 622 431 622 554 C622 662 558 733 459 733 L459 733 Z M440 666 C509 666 547 617 547 528 C547 465 521 325 491 234 C454 119 389 54 312 54 C246 54 208 105 208 191 C208 265 241 429 273 512 C310 609 371 666 440 666 L440 666 Z " />
<glyph glyph-name="P" unicode="P" horiz-adv-x="602" d="M270 282 L315 282 C413 282 467 296 520 334 C586 383 628 472 628 566 C628 627 605 675 565 697 C537 713 500 720 441 720 L288 720 C285 706 285 705 284 697 C282 685 281 677 276 653 C266 606 257 558 249 512 L249 510 L185 210 C182 199 151 68 142 27 L138 14 L135 0 L216 0 L218 14 L220 27 C228 65 235 103 242 141 C246 163 251 186 255 210 L270 282 Z M283 345 L350 657 L411 657 C456 657 469 656 490 651 C531 642 553 607 553 551 C553 481 524 417 477 380 C442 354 409 345 342 345 L283 345 Z " />
<glyph glyph-name="Q" unicode="Q" horiz-adv-x="602" d="M464 55 L471 62 C500 89 533 142 553 195 C589 288 624 465 624 552 C624 664 560 733 457 733 C365 733 284 680 231 586 C181 498 132 289 132 168 C132 56 196 -13 299 -13 C336 -13 364 -6 402 12 L437 -59 L528 -59 L464 55 Z M440 666 C510 666 549 617 549 528 C549 464 523 326 493 234 C456 118 392 54 312 54 C246 54 207 104 207 191 C207 265 240 429 272 512 C309 610 371 666 440 666 L440 666 Z " />
<glyph glyph-name="R" unicode="R" horiz-adv-x="602" d="M271 298 L327 298 C344 298 368 299 383 300 L492 0 L581 0 L456 315 L465 318 C557 352 630 463 630 570 C630 673 575 720 453 720 L285 720 C281 700 268 630 246 509 L182 210 C167 149 153 88 139 27 L135 14 L132 0 L213 0 L215 14 L217 27 C226 72 238 133 252 210 L271 298 Z M284 361 L347 657 L404 657 C521 657 556 635 556 562 C556 521 542 475 519 440 C484 387 434 361 366 361 L284 361 Z " />
<glyph glyph-name="S" unicode="S" horiz-adv-x="602" d="M640 643 C586 706 530 733 455 733 C333 733 228 636 228 521 C228 466 256 421 316 381 L391 330 C466 279 485 256 485 219 C485 130 406 54 314 54 C250 54 208 83 173 153 L107 108 C119 87 124 80 131 70 C171 15 229 -13 303 -13 C385 -13 457 21 504 81 C538 125 560 187 560 238 C560 291 528 332 442 389 L373 436 C354 448 331 469 318 486 C307 499 303 513 303 534 C303 606 368 666 445 666 C482 666 518 651 551 623 C558 617 564 611 586 591 L640 643 Z " />
<glyph glyph-name="T" unicode="T" horiz-adv-x="602" d="M343 0 L345 14 L347 27 C364 123 368 143 382 210 L477 657 L681 657 L695 720 L214 720 L201 657 L407 657 L312 210 L269 27 L265 14 L262 0 L343 0 Z " />
<glyph glyph-name="U" unicode="U" horiz-adv-x="602" d="M251 720 C250 716 250 715 249 707 L246 693 C236 637 221 558 212 511 L155 245 C146 200 141 166 141 142 C141 53 206 -13 294 -13 C365 -13 442 28 488 91 C517 131 530 163 547 245 L603 511 L624 598 L646 693 L650 706 L653 720 L572 720 L570 706 L567 693 C553 616 538 535 533 511 L476 245 C462 175 456 156 439 130 C410 83 361 54 311 54 C254 54 214 95 214 153 C214 178 218 213 225 245 L282 510 C285 529 290 548 295 566 C302 595 309 625 316 656 C321 678 323 687 326 696 L329 710 C330 714 331 716 331 720 L251 720 Z " />
<glyph glyph-name="V" unicode="V" horiz-adv-x="602" d="M319 104 L318 720 L237 720 C241 600 242 557 243 494 C244 363 245 287 245 268 L244 44 C245 25 245 4 245 -7 L346 -7 C372 53 400 120 426 182 C516 395 591 567 663 720 L582 720 L319 104 Z " />
<glyph glyph-name="W" unicode="W" horiz-adv-x="602" d="M408 515 L217 152 L244 363 C260 487 278 602 301 720 L220 720 C177 344 157 193 122 -7 L205 -7 L364 310 L388 -7 L472 -7 C507 137 617 515 683 720 L601 720 C567 570 558 535 507 363 L444 152 L408 515 Z " />
<glyph glyph-name="X" unicode="X" horiz-adv-x="602" d="M246 720 L251 701 C289 567 314 473 343 363 L101 19 L88 0 L172 0 C245 114 297 193 363 290 C390 186 411 97 431 0 L515 0 C479 125 448 240 416 365 L650 701 L663 720 L579 720 L574 712 C543 662 430 490 395 438 C371 534 352 616 331 720 L246 720 Z " />
<glyph glyph-name="Y" unicode="Y" horiz-adv-x="602" d="M214 720 L218 701 C240 614 261 526 282 439 C292 395 302 351 312 305 L292 210 C278 152 264 91 249 27 L245 14 L242 0 L323 0 L325 14 L328 27 L362 210 L382 305 C454 415 542 548 657 720 L576 720 L571 712 C503 603 418 471 366 391 C343 489 321 591 295 720 L214 720 Z " />
<glyph glyph-name="Z" unicode="Z" horiz-adv-x="602" d="M268 720 L255 657 L545 657 C386 426 252 237 115 53 L104 0 L514 0 L527 63 L207 63 C385 322 525 520 632 667 L643 720 L268 720 Z " />
<glyph glyph-name="bracketleft" unicode="&#x5b;" horiz-adv-x="602" d="M456 -24 L469 39 L228 39 L365 681 L605 681 L619 744 L308 744 L145 -24 L456 -24 Z " />
<glyph glyph-name="backslash" unicode="&#x5c;" horiz-adv-x="602" d="M484 -26 L557 -26 L254 746 L181 746 L484 -26 Z " />
<glyph glyph-name="bracketright" unicode="&#x5d;" horiz-adv-x="602" d="M116 -24 L427 -24 L590 744 L279 744 L266 681 L507 681 L370 39 L129 39 L116 -24 Z " />
<glyph glyph-name="asciicircum" unicode="&#x5e;" horiz-adv-x="602" d="M443 720 L357 720 L203 347 L304 347 L400 587 L496 347 L597 347 L443 720 Z " />
<glyph glyph-name="underscore" unicode="&#x5f;" horiz-adv-x="602" d="M601 -125 L601 -57 L1 -57 L1 -125 L601 -125 Z " />
<glyph glyph-name="grave" unicode="&#x60;" horiz-adv-x="602" d="M384 756 L316 694 L482 567 L530 615 L384 756 Z " />
<glyph glyph-name="a" unicode="a" horiz-adv-x="602" d="M253 444 C339 476 356 480 395 480 C441 480 473 453 473 413 C473 400 470 380 465 357 L459 332 C408 351 379 358 349 358 C232 358 131 245 131 114 C131 34 178 -13 257 -13 C312 -13 353 6 405 55 C406 29 408 6 412 -14 L483 -6 L482 1 C478 26 478 30 478 44 C478 88 478 88 495 168 L535 357 C539 379 542 402 542 420 C542 498 492 547 411 547 C365 547 335 540 249 511 L253 444 Z M420 146 C362 81 319 54 271 54 C232 54 205 84 205 127 C205 156 214 191 229 218 C255 265 296 291 344 291 C375 291 405 284 445 267 L420 146 Z " />
<glyph glyph-name="b" unicode="b" horiz-adv-x="602" d="M299 515 L303 531 L323 613 L351 733 L271 733 L268 720 L266 706 C242 578 238 559 233 531 L182 289 C145 118 136 88 96 9 L89 -6 L157 -14 C168 6 179 30 188 49 L189 47 C210 19 216 14 236 3 C257 -8 280 -13 305 -13 C364 -13 433 19 482 69 C546 135 589 248 589 353 C589 469 522 547 421 547 C383 547 343 537 307 519 L299 515 Z M282 435 C324 467 357 480 396 480 C468 480 514 426 514 343 C514 188 423 54 318 54 C268 54 242 77 220 141 L282 435 Z " />
<glyph glyph-name="c" unicode="c" horiz-adv-x="602" d="M502 138 C433 76 390 54 338 54 C269 54 221 109 221 187 C221 260 247 346 285 401 C318 449 376 480 432 480 C474 480 506 462 526 427 C530 419 534 410 543 385 L616 427 C597 463 583 484 569 499 C539 530 495 547 445 547 C361 547 278 502 224 427 C178 362 146 259 146 171 C146 61 219 -13 327 -13 C395 -13 461 15 524 71 C536 82 539 85 542 87 L502 138 Z " />
<glyph glyph-name="d" unicode="d" horiz-adv-x="602" d="M520 515 L514 519 C487 537 453 547 415 547 C258 547 126 377 126 176 C126 61 191 -13 292 -13 C344 -13 378 2 433 47 L435 49 C435 21 436 3 438 -14 L510 -6 C508 27 507 44 507 60 C507 110 515 162 542 289 L594 531 L613 613 C622 649 630 685 639 720 C640 725 641 727 642 733 L561 733 L559 720 L557 706 L524 531 L520 515 Z M441 141 C391 76 357 54 306 54 C242 54 200 107 200 187 C200 347 295 480 409 480 C449 480 476 467 503 435 L441 141 Z " />
<glyph glyph-name="e" unicode="e" horiz-adv-x="602" d="M213 247 L571 247 C582 301 587 338 587 372 C587 478 524 547 428 547 C344 547 264 501 210 423 C164 355 135 262 135 178 C135 53 196 -13 312 -13 C353 -13 353 -13 481 24 C491 26 496 28 516 36 L525 40 L508 107 C430 69 380 54 327 54 C251 54 207 100 207 178 C207 203 210 236 213 246 L213 247 Z M226 310 L226 311 C253 409 330 480 410 480 C476 480 516 431 516 350 C516 343 516 338 515 333 C514 321 513 312 513 312 L513 310 L226 310 Z " />
<glyph glyph-name="f" unicode="f" horiz-adv-x="602" d="M304 0 L307 13 L310 28 C316 60 322 93 328 127 C337 176 344 212 347 225 L399 471 L575 471 L589 534 L413 534 L416 550 C434 632 469 666 537 666 C571 666 592 659 668 624 L684 701 C633 724 595 733 554 733 C493 733 434 707 394 662 C370 634 355 600 346 552 L343 534 L203 534 L190 471 L329 471 L277 225 C261 158 246 93 231 28 L227 13 L224 0 L304 0 Z " />
<glyph glyph-name="g" unicode="g" horiz-adv-x="602" d="M558 535 C550 521 545 510 540 499 L535 502 C503 531 461 547 416 547 C314 547 237 493 186 384 C160 330 146 272 146 217 C146 111 202 45 293 45 C342 45 390 59 435 88 L443 93 L436 62 C414 -40 357 -96 276 -96 C233 -96 187 -73 170 -44 C169 -41 169 -40 167 -39 L164 -34 L102 -80 C150 -141 192 -163 260 -163 C378 -163 477 -75 505 55 L577 392 C584 426 600 473 627 535 L558 535 Z M462 180 C412 133 367 112 316 112 C257 112 221 158 221 231 C221 283 236 342 262 388 C296 448 343 480 399 480 C448 480 481 462 512 417 L462 180 Z " />
<glyph glyph-name="h" unicode="h" horiz-adv-x="602" d="M291 455 L307 531 L327 613 L349 705 L352 719 L356 733 L275 733 C273 726 266 686 252 613 L237 531 L169 209 L164 187 L126 27 L122 14 L119 0 L200 0 C213 71 226 137 239 209 L250 263 C264 328 295 383 346 428 C383 461 420 480 449 480 C478 480 500 454 500 420 C500 398 495 359 486 317 L463 209 C449 151 434 90 420 27 L416 14 L413 0 L494 0 L496 14 L499 27 C510 88 522 149 533 209 L561 340 C568 376 573 411 573 436 C573 497 527 547 470 547 C420 547 350 514 304 467 L291 455 Z " />
<glyph glyph-name="i" unicode="i" horiz-adv-x="602" d="M468 736 C427 736 390 699 390 658 C390 628 411 607 441 607 C482 607 519 644 519 685 C519 714 498 736 468 736 L468 736 Z M373 471 C370 455 367 436 363 419 C360 397 347 327 346 325 L322 210 L301 120 C279 27 274 8 272 0 L352 0 L356 18 C362 52 369 87 375 120 L392 210 L416 325 C431 387 448 460 459 507 L463 520 L466 534 L238 534 L225 471 L373 471 Z " />
<glyph glyph-name="j" unicode="j" horiz-adv-x="602" d="M434 471 L407 325 L373 168 C335 -14 332 -22 311 -49 C287 -79 254 -96 220 -96 C177 -96 149 -65 149 -19 C149 -1 152 17 163 53 L88 53 C79 20 76 -3 76 -27 C76 -109 128 -163 208 -163 C273 -163 339 -126 377 -67 C401 -29 405 -15 444 168 L477 325 C491 386 506 447 520 507 L523 520 L527 534 L298 534 L285 471 L434 471 Z M527 736 C485 736 448 699 448 658 C448 628 469 607 500 607 C540 607 577 644 577 685 C577 715 556 736 527 736 L527 736 Z " />
<glyph glyph-name="k" unicode="k" horiz-adv-x="602" d="M141 0 L222 0 L224 14 C250 152 254 174 261 210 L262 211 L307 247 L461 0 L559 0 L362 290 C446 357 528 433 626 534 L532 534 C471 462 389 386 280 300 L328 523 C340 577 355 638 370 705 L374 719 L377 733 L297 733 C295 721 294 716 289 691 C284 664 279 638 274 613 L258 523 L191 210 C189 203 184 178 170 120 L148 27 L144 14 L141 0 Z " />
<glyph glyph-name="l" unicode="l" horiz-adv-x="602" d="M409 670 C393 584 384 535 382 524 L315 210 L294 120 C283 71 273 31 266 0 L346 0 L348 14 L351 27 C375 156 378 172 385 210 L452 524 C466 584 483 653 502 733 L274 733 L261 670 L409 670 Z " />
<glyph glyph-name="m" unicode="m" horiz-adv-x="602" d="M352 0 L355 14 L357 27 C368 92 381 157 392 210 L417 331 L425 366 C434 403 438 418 441 429 C477 465 503 480 534 480 C557 480 571 467 571 447 C571 436 569 420 564 398 L524 210 C517 180 509 148 501 113 C494 84 487 56 481 27 L477 14 L474 0 L555 0 L557 14 L560 27 C588 177 589 182 594 210 L628 369 C638 418 644 453 644 470 C644 516 609 547 555 547 C515 547 462 524 439 497 L439 496 L437 500 C425 532 401 547 364 547 C322 547 284 532 247 502 L242 497 L242 507 C242 514 242 524 241 534 L166 534 L166 531 L166 523 C167 520 167 518 167 518 L167 507 L167 496 C167 464 159 408 148 348 L139 304 L119 210 C101 134 85 68 69 0 L150 0 L152 14 L154 27 C176 139 187 200 189 210 L215 331 C219 351 225 375 236 419 C266 458 302 480 335 480 C355 480 366 468 366 446 C366 431 358 382 346 327 L321 210 C317 191 303 130 278 27 L275 14 L272 0 L352 0 Z " />
<glyph glyph-name="n" unicode="n" horiz-adv-x="602" d="M271 443 C274 465 277 500 277 509 L277 513 L277 534 L208 534 C208 453 204 419 179 291 L171 250 L162 209 C161 203 146 143 119 27 L115 14 L112 0 L193 0 C195 12 202 52 215 120 L232 209 L243 263 C256 328 288 383 339 428 C378 462 415 480 446 480 C476 480 499 454 499 423 C499 412 489 333 486 317 L463 209 C448 149 434 88 420 27 L416 14 L413 0 L493 0 C496 11 497 17 501 38 C506 65 511 92 516 120 L533 209 L560 340 C569 380 573 412 573 435 C573 500 527 547 465 547 C412 547 340 513 295 467 L271 443 Z " />
<glyph glyph-name="o" unicode="o" horiz-adv-x="602" d="M427 547 C345 547 265 501 216 426 C171 355 142 251 142 162 C142 57 207 -13 304 -13 C385 -13 465 34 513 108 C559 179 588 283 588 372 C588 476 523 547 427 547 L427 547 Z M408 480 C476 480 514 437 514 361 C514 311 501 245 482 193 C448 102 392 54 319 54 C254 54 216 98 216 173 C216 228 231 302 254 356 C288 437 341 480 408 480 L408 480 Z " />
<glyph glyph-name="p" unicode="p" horiz-adv-x="602" d="M195 19 L200 15 C225 -1 267 -13 302 -13 C367 -13 440 25 493 85 C551 152 588 258 588 355 C588 470 523 546 423 546 C371 546 321 525 282 486 L279 483 C280 506 279 522 278 537 L277 547 L205 539 C207 508 208 489 208 473 C208 422 204 394 172 245 L121 1 L100 -86 C88 -137 79 -172 73 -199 L71 -206 L152 -206 L154 -192 L157 -179 C176 -74 187 -14 191 1 L195 19 Z M274 392 C323 457 358 479 408 479 C473 479 514 426 514 343 C514 259 481 167 433 116 C398 78 348 54 304 54 C266 54 239 67 212 100 L274 392 Z " />
<glyph glyph-name="q" unicode="q" horiz-adv-x="602" d="M416 19 L412 1 L369 -179 L365 -192 L362 -206 L443 -206 L445 -192 L448 -179 C467 -78 476 -30 481 1 L533 245 C572 422 577 439 619 524 L626 539 L558 547 C548 529 538 509 528 483 L526 486 C505 523 460 546 409 546 C257 546 125 376 125 182 C125 65 193 -13 294 -13 C332 -13 371 -3 408 15 L416 19 Z M433 100 C392 67 359 54 319 54 C246 54 200 107 200 193 C200 346 291 479 397 479 C447 479 473 455 495 392 L433 100 Z " />
<glyph glyph-name="r" unicode="r" horiz-adv-x="602" d="M239 0 L241 14 L243 27 C254 84 266 145 278 210 L283 233 C307 348 420 480 493 480 C517 480 530 464 530 435 C530 422 528 405 523 368 L594 368 C601 407 603 427 603 448 C603 510 569 547 511 547 C453 547 384 506 329 439 L318 425 C321 461 323 482 323 495 L323 500 L323 524 L323 534 L252 534 L252 518 L252 507 C252 447 240 362 217 251 L208 210 C203 188 198 166 193 146 C186 119 179 90 173 61 C171 49 168 38 165 27 C163 20 160 8 158 0 L239 0 Z " />
<glyph glyph-name="s" unicode="s" horiz-adv-x="602" d="M568 484 C566 486 558 492 546 501 C507 531 460 547 409 547 C346 547 293 523 252 476 C225 445 211 412 211 379 C211 325 246 283 316 254 L366 234 C414 214 435 190 435 154 C435 98 386 54 323 54 C264 54 213 81 164 139 L111 80 C178 14 236 -13 309 -13 C417 -13 509 70 509 167 C509 228 476 266 395 299 L354 316 C311 334 285 361 285 389 C285 436 338 480 394 480 C438 480 464 469 522 424 L568 484 Z " />
<glyph glyph-name="t" unicode="t" horiz-adv-x="602" d="M314 534 L195 534 L182 471 L301 471 L239 179 C229 133 225 106 225 87 C225 25 266 -13 334 -13 C401 -13 463 18 514 77 C525 90 534 100 554 127 L488 144 C440 79 403 54 353 54 C318 54 298 72 298 104 C298 122 301 144 308 179 L370 471 L564 471 L577 534 L384 534 C387 551 391 566 395 578 C400 600 409 636 421 686 L425 700 L344 700 L342 686 L339 673 L314 534 Z " />
<glyph glyph-name="u" unicode="u" horiz-adv-x="602" d="M446 91 C443 63 441 32 441 10 L441 0 L509 0 L509 16 C509 89 517 146 547 284 L556 325 C560 343 574 403 599 507 L602 520 L605 534 L525 534 L522 520 L520 507 L490 344 L486 325 L474 271 C459 204 428 150 379 106 C341 72 303 54 270 54 C238 54 217 79 217 117 C217 138 221 164 230 208 L232 217 L254 325 C267 377 280 433 298 507 L301 520 L304 534 L224 534 L221 520 L219 507 C207 446 196 385 185 325 L157 194 C149 156 144 122 144 98 C144 34 190 -13 252 -13 C307 -13 378 20 423 67 L446 91 Z " />
<glyph glyph-name="v" unicode="v" horiz-adv-x="602" d="M542 547 L322 116 L285 547 L205 547 L234 269 C244 174 253 44 254 -13 L335 -13 C360 44 420 165 475 269 L622 547 L542 547 Z " />
<glyph glyph-name="w" unicode="w" horiz-adv-x="602" d="M418 411 L351 411 C297 298 260 222 210 127 C214 267 223 392 239 535 L241 547 L155 547 C156 534 156 532 156 520 L156 508 C156 464 135 61 130 -1 L129 -13 L207 -13 L212 -3 L217 8 C250 70 282 134 315 201 C333 238 340 253 358 291 C368 156 372 100 377 49 L380 8 L380 -1 C381 -6 381 -9 381 -13 L459 -13 C573 301 646 495 671 547 L585 547 C583 541 583 538 581 535 C579 528 578 522 572 505 C542 403 489 254 438 127 C426 249 418 357 418 390 L418 392 L418 411 Z " />
<glyph glyph-name="x" unicode="x" horiz-adv-x="602" d="M622 534 L539 534 L374 344 L288 534 L203 534 L320 286 L49 0 L142 0 L350 232 L460 0 L554 0 L403 287 L622 534 Z " />
<glyph glyph-name="y" unicode="y" horiz-adv-x="602" d="M559 534 L341 166 L288 534 L208 534 L282 69 C268 43 249 15 226 -18 C178 -82 160 -98 130 -98 C109 -98 98 -89 89 -64 C77 -32 76 -29 74 -19 L73 -17 L6 -48 C9 -70 12 -82 16 -92 C32 -139 67 -165 115 -165 C185 -165 244 -113 326 20 L640 534 L559 534 Z " />
<glyph glyph-name="z" unicode="z" horiz-adv-x="602" d="M250 534 L236 471 L504 471 C340 297 220 172 105 54 L93 0 L509 0 L522 63 L201 63 C292 161 336 207 372 243 C448 320 523 398 596 476 L599 480 L611 534 L250 534 Z " />
<glyph glyph-name="braceleft" unicode="&#x7b;" horiz-adv-x="602" d="M320 374 L323 375 C357 394 379 430 390 484 L429 666 C442 726 465 752 512 765 C513 765 517 766 524 768 L527 769 C548 775 589 785 647 800 L613 798 C554 795 505 792 484 790 C465 787 449 781 433 770 C398 744 381 714 369 658 L330 477 C313 409 300 398 204 374 C234 365 248 360 259 356 C280 347 291 331 291 308 C291 297 289 284 287 271 L250 99 C246 79 243 56 243 37 C243 -11 268 -37 318 -42 C334 -44 356 -45 478 -49 C468 -47 458 -44 447 -41 C389 -27 337 -13 327 -9 C310 -1 301 19 301 47 C301 60 302 72 305 83 L342 259 C347 279 349 298 349 310 C349 339 337 365 321 373 L320 374 Z " />
<glyph glyph-name="bar" unicode="&#x7c;" horiz-adv-x="602" d="M268 -278 L334 -278 L334 789 L268 789 L268 -278 Z " />
<glyph glyph-name="braceright" unicode="&#x7d;" horiz-adv-x="602" d="M427 374 L426 373 C389 353 368 319 356 259 L319 83 C303 21 277 -8 228 -17 C213 -20 199 -24 185 -27 C141 -38 126 -42 95 -49 C184 -46 226 -44 246 -43 C264 -41 280 -38 296 -31 C341 -10 364 27 380 99 L416 271 C434 341 442 347 538 374 L527 378 C503 387 488 392 484 394 C466 402 456 419 456 442 C456 452 457 463 460 477 L498 658 C502 676 504 692 504 708 C504 758 483 783 435 790 C420 792 405 793 287 800 C346 781 385 769 394 766 C435 755 446 741 446 702 C446 689 445 678 442 666 L404 484 C400 468 398 449 398 434 C398 409 407 388 425 375 L427 374 Z " />
<glyph glyph-name="asciitilde" unicode="&#x7e;" horiz-adv-x="602" d="M570 458 C550 388 526 361 486 361 C466 361 446 370 390 405 C321 449 279 466 239 466 C205 466 169 450 144 425 C113 394 98 355 90 289 L166 270 C172 300 175 312 179 324 C193 362 213 382 237 382 C260 382 287 370 347 331 C420 285 449 273 488 273 C533 273 579 299 611 344 C631 371 641 398 653 449 L570 458 Z " />
<glyph glyph-name="exclamdown" unicode="&#xa1;" horiz-adv-x="602" d="M350 0 L442 501 L377 501 L252 0 L350 0 Z M459 737 C405 737 359 691 359 639 C359 600 385 574 424 574 C476 574 522 621 522 673 C522 711 497 737 459 737 L459 737 Z " />
<glyph glyph-name="cent" unicode="&#xa2;" horiz-adv-x="602" d="M499 657 L519 750 L449 750 L429 656 L419 655 C358 646 287 598 245 537 C200 474 169 371 169 285 C169 194 221 124 302 107 L312 105 L283 -30 L353 -30 L382 105 C439 115 479 135 554 192 L565 201 L526 253 C475 205 447 188 398 171 L396 170 L485 591 L490 590 C531 576 548 555 564 499 L640 543 C598 618 566 645 507 655 L499 657 Z M326 172 L319 174 C308 178 292 188 280 201 C256 225 244 257 244 299 C244 363 265 444 294 495 C320 540 361 574 408 588 L415 590 L326 172 Z " />
<glyph glyph-name="sterling" unicode="&#xa3;" horiz-adv-x="602" d="M337 434 C336 466 335 481 335 499 C335 562 355 608 397 638 C422 656 453 666 483 666 C514 666 539 656 555 637 C567 624 579 602 581 592 L581 591 L581 590 C583 586 583 583 584 582 L657 605 C652 623 651 628 646 640 C622 699 566 733 494 733 C445 733 390 714 349 682 C292 639 262 569 262 485 L263 446 L264 434 L167 434 L154 371 L270 371 C271 355 272 343 272 324 C272 215 259 183 165 68 C150 50 149 48 138 35 L166 -16 L176 -12 L193 -6 L236 10 C253 17 277 21 295 21 C314 21 335 16 358 7 C395 -8 414 -13 438 -13 C475 -13 516 6 563 46 L531 95 C492 68 466 56 448 56 C439 56 424 60 408 68 C369 85 346 91 314 91 C297 91 282 89 262 83 L255 81 L275 106 C328 178 342 215 339 276 L343 370 L343 371 L525 371 L538 434 L337 434 Z " />
<glyph glyph-name="currency" unicode="&#xa4;" horiz-adv-x="602" d="M189 504 L188 503 C158 457 146 417 146 365 C146 314 160 269 188 228 L189 226 L85 121 L134 72 L236 177 L239 175 C300 138 324 130 374 130 C425 130 448 138 509 175 L512 177 L614 72 L663 121 L559 226 L560 228 C590 276 602 316 602 367 C602 395 599 418 592 434 L560 503 L559 504 L663 609 L614 658 L512 553 L509 555 C475 584 425 601 375 601 C323 601 264 581 238 555 L236 553 L134 658 L85 609 L189 504 Z M372 534 C468 534 540 462 540 365 C540 270 468 197 374 197 C280 197 208 270 208 366 C208 460 280 534 372 534 L372 534 Z " />
<glyph glyph-name="yen" unicode="&#xa5;" horiz-adv-x="602" d="M323 0 C331 44 335 66 337 78 L345 122 C350 152 356 181 362 211 L371 254 L496 254 L510 317 L390 317 L407 343 L530 343 L543 406 L449 406 L645 701 L657 720 L576 720 C496 590 435 495 366 391 C338 508 314 621 295 720 L214 720 L219 701 L267 500 L289 406 L194 406 L181 343 L304 343 L310 317 L190 317 L177 254 L303 254 L294 211 C281 156 249 20 243 0 L323 0 Z " />
<glyph glyph-name="brokenbar" unicode="&#xa6;" horiz-adv-x="602" d="M268 789 L268 416 L334 416 L334 789 L268 789 Z M268 95 L268 -278 L334 -278 L334 95 L268 95 Z " />
<glyph glyph-name="section" unicode="&#xa7;" horiz-adv-x="602" d="M280 514 L273 510 C218 479 185 432 185 383 C185 336 203 310 277 246 C410 132 410 132 410 101 C410 53 366 18 304 18 C256 18 231 39 231 81 C231 89 232 95 239 128 L167 128 C159 100 156 82 156 65 C156 -4 211 -49 296 -49 C402 -49 484 23 484 116 C484 136 480 153 472 167 L470 171 L476 174 C532 208 564 254 564 302 C564 334 551 363 523 391 C511 404 476 435 439 467 C340 551 339 552 339 583 C339 631 383 666 444 666 C490 666 517 644 517 604 C517 598 517 598 512 570 L510 557 L582 557 C590 585 593 601 593 618 C593 688 539 733 453 733 C347 733 265 661 265 569 C265 548 270 528 277 517 L280 514 Z M434 213 C416 230 381 261 347 290 C273 354 258 372 258 399 C258 427 279 456 310 470 L315 472 C333 456 353 437 389 406 C480 327 491 314 491 286 C491 259 466 225 439 215 L434 213 Z " />
<glyph glyph-name="dieresis" unicode="&#xa8;" horiz-adv-x="602" d="M369 712 C325 712 285 673 285 629 C285 596 308 574 340 574 C383 574 423 614 423 657 C423 689 401 712 369 712 L369 712 Z M550 712 C506 712 466 673 466 629 C466 597 489 574 521 574 C565 574 604 613 604 657 C604 689 582 712 550 712 L550 712 Z " />
<glyph glyph-name="copyright" unicode="&#xa9;" horiz-adv-x="602" d="M457 733 C266 733 77 499 77 263 C77 102 169 -13 296 -13 C489 -13 678 221 678 459 C678 574 631 667 552 709 C522 724 489 733 457 733 L457 733 Z M440 666 C543 666 613 574 613 439 C613 247 462 54 312 54 C213 54 142 148 142 277 C142 388 190 503 270 582 C323 635 386 666 440 666 L440 666 Z M527 463 C529 479 530 492 530 499 C530 549 489 586 432 586 C374 586 317 552 285 497 C247 431 221 332 221 254 C221 172 259 128 331 128 C402 128 459 169 481 236 C483 244 485 249 490 262 L425 262 C417 239 412 229 407 222 C395 205 372 195 348 195 C309 195 289 220 289 269 C289 323 305 395 330 449 C351 495 381 519 420 519 C446 519 465 505 465 486 C465 485 465 485 464 480 L464 475 C463 470 462 466 461 463 L527 463 Z " />
<glyph glyph-name="ordfeminine" unicode="&#xaa;" horiz-adv-x="602" d="M337 529 L353 535 C399 552 425 559 441 559 C462 559 477 544 477 521 C477 518 477 515 476 511 L474 501 L462 504 C448 507 436 509 422 509 C335 509 268 444 268 358 C268 304 301 272 356 272 C386 272 415 282 439 300 L441 302 C442 295 443 288 444 279 C444 277 444 276 445 270 L506 277 L506 281 L506 290 L506 302 L505 335 L505 339 C505 349 508 367 512 388 L538 498 C541 509 542 521 542 532 C542 585 508 619 456 619 C432 619 399 613 340 600 L337 529 Z M448 380 C412 345 389 331 365 331 C346 331 333 346 333 368 C333 414 365 450 406 450 C421 450 437 446 460 438 L448 380 Z M508 248 L233 248 L220 187 L495 187 L508 248 Z " />
<glyph glyph-name="guillemotleft" unicode="&#xab;" horiz-adv-x="602" d="M667 620 L339 362 L556 102 L613 150 L434 362 L703 572 L667 620 Z M424 620 L96 362 L314 102 L371 150 L191 362 L460 572 L424 620 Z " />
<glyph glyph-name="logicalnot" unicode="&#xac;" horiz-adv-x="602" d="M506 0 L576 0 L576 292 L26 292 L26 224 L506 224 L506 0 Z " />
<glyph glyph-name="registered" unicode="&#xae;" horiz-adv-x="602" d="M458 733 C266 733 77 499 77 262 C77 102 169 -13 297 -13 C490 -13 679 221 679 459 C679 574 632 667 553 709 C523 724 490 733 458 733 L458 733 Z M491 142 C433 85 370 54 312 54 C213 54 142 147 142 277 C142 470 293 666 442 666 C542 666 614 573 614 443 C614 343 576 241 507 159 L435 332 L440 335 C497 363 534 424 534 488 C534 553 497 586 422 586 L308 586 L307 581 L305 565 L285 465 L242 261 L219 162 L214 142 L285 142 C286 145 287 151 289 160 C298 213 304 250 306 257 L307 261 L319 315 L341 315 C346 315 359 315 369 316 L436 142 L491 142 Z M332 378 L363 523 L388 523 C452 523 469 513 469 475 C469 418 428 378 371 378 L332 378 Z " />
<glyph glyph-name="macron" unicode="&#xaf;" horiz-adv-x="602" d="M586 605 L599 668 L288 668 L275 605 L586 605 Z " />
<glyph glyph-name="degree" unicode="&#xb0;" horiz-adv-x="602" d="M457 733 C326 733 200 617 200 496 C200 405 273 335 369 335 C500 335 626 451 626 572 C626 664 553 733 457 733 L457 733 Z M439 666 C504 666 552 621 552 559 C552 479 469 402 382 402 C322 402 274 449 274 508 C274 587 357 666 439 666 L439 666 Z " />
<glyph glyph-name="plusminus" unicode="&#xb1;" horiz-adv-x="602" d="M369 632 L299 632 L299 394 L58 394 L58 326 L299 326 L299 88 L369 88 L369 326 L608 326 L608 394 L369 394 L369 632 Z M608 68 L58 68 L58 0 L608 0 L608 68 Z " />
<glyph glyph-name="twosuperior" unicode="&#xb2;" horiz-adv-x="602" d="M348 376 L187 376 C200 413 213 429 279 482 C320 516 328 522 342 535 C381 572 400 608 400 649 C400 699 371 727 320 727 C271 727 230 702 205 657 C196 642 189 624 178 592 L238 592 C244 612 248 623 253 632 C265 656 285 670 310 670 C331 670 342 659 342 638 C342 616 330 594 308 574 C302 569 300 567 279 550 C152 448 141 433 116 332 L114 319 L336 319 L348 376 Z " />
<glyph glyph-name="threesuperior" unicode="&#xb3;" horiz-adv-x="602" d="M211 611 C241 656 260 670 290 670 C312 670 329 653 329 630 C329 614 320 596 306 582 C289 568 271 562 236 562 L224 503 C239 504 247 504 247 504 C285 504 306 485 306 453 C306 406 273 370 230 370 C200 370 180 389 175 423 C174 426 173 430 172 434 L112 402 C121 380 123 374 126 369 C142 331 173 312 216 312 C296 312 364 383 364 466 C364 496 356 516 340 530 L331 537 L333 539 C366 563 387 603 387 642 C387 693 353 727 302 727 C261 727 223 709 193 676 C186 668 181 662 167 643 L211 611 Z " />
<glyph glyph-name="acute" unicode="&#xb4;" horiz-adv-x="602" d="M528 756 L321 615 L348 566 L569 694 L528 756 Z " />
<glyph glyph-name="mu" unicode="&#xb5;" horiz-adv-x="602" d="M306 534 L225 534 L223 520 L220 507 C208 442 197 381 186 325 L116 -5 L95 -94 C85 -134 76 -174 66 -215 L147 -215 C159 -148 172 -78 186 -5 L197 48 C225 6 256 -13 299 -13 C344 -13 383 6 430 53 L419 0 L489 0 L558 325 C573 389 587 449 601 507 L605 520 L608 534 L527 534 L524 520 L522 507 C509 435 498 377 488 325 L470 242 C457 180 446 149 425 121 C395 80 352 54 311 54 C264 54 225 97 225 149 C225 167 231 205 238 242 L256 325 C267 370 281 430 299 507 L303 520 L306 534 Z " />
<glyph glyph-name="paragraph" unicode="&#xb6;" horiz-adv-x="602" d="M246 -109 L316 -109 L481 667 L586 667 L421 -109 L491 -109 L655 667 L700 667 L712 721 L442 721 C328 721 245 681 193 600 C168 561 155 520 155 478 C155 380 222 322 337 321 L246 -109 Z " />
<glyph glyph-name="periodcentered" unicode="&#xb7;" horiz-adv-x="602" d="M375 349 C322 349 275 303 275 251 C275 212 301 186 341 186 C393 186 439 233 439 285 C439 323 413 349 375 349 L375 349 Z " />
<glyph glyph-name="cedilla" unicode="&#xb8;" horiz-adv-x="602" d="M298 39 L225 -88 L289 -85 C308 -85 321 -91 321 -101 C321 -112 301 -122 280 -122 C261 -122 240 -117 205 -104 L171 -159 C220 -181 247 -189 277 -189 C340 -189 395 -143 395 -89 C395 -56 369 -32 329 -28 L323 -28 L360 39 L298 39 Z " />
<glyph glyph-name="onesuperior" unicode="&#xb9;" horiz-adv-x="602" d="M335 741 L198 698 L185 638 L260 660 L199 376 L143 376 L131 319 L298 319 L311 376 L257 376 L335 741 Z " />
<glyph glyph-name="ordmasculine" unicode="&#xba;" horiz-adv-x="602" d="M514 248 L239 248 L226 187 L501 187 L514 248 Z M458 619 C351 619 269 518 269 387 C269 317 313 272 381 272 C487 272 569 374 569 506 C569 573 524 619 458 619 L458 619 Z M443 559 C482 559 504 537 504 498 C504 473 495 431 484 402 C466 355 435 331 394 331 C354 331 334 352 334 395 C334 425 342 465 355 493 C374 537 404 559 443 559 L443 559 Z " />
<glyph glyph-name="guillemotright" unicode="&#xbb;" horiz-adv-x="602" d="M197 620 L140 572 L320 362 L51 150 L87 102 L415 362 L197 620 Z M441 620 L384 572 L564 362 L295 150 L330 102 L659 362 L441 620 Z " />
<glyph glyph-name="onequarter" unicode="&#xbc;" horiz-adv-x="602" d="M354 741 L208 698 L195 638 L275 660 L214 376 L145 376 L132 319 L333 319 L345 376 L277 376 L354 741 Z M609 733 L131 -13 L195 -13 L675 733 L609 733 Z M613 408 L545 408 L344 137 L336 97 L485 97 L465 0 L527 0 L548 97 L600 97 L612 154 L560 154 L613 408 Z M498 154 L424 154 L527 295 L498 154 Z " />
<glyph glyph-name="onehalf" unicode="&#xbd;" horiz-adv-x="602" d="M346 344 L353 376 L284 376 L361 740 L215 698 L202 637 L282 660 L222 376 L152 376 L140 319 L330 319 L119 -13 L183 -13 L658 733 L592 733 L346 344 Z M589 57 L418 57 C429 90 456 121 501 153 C532 175 562 199 579 212 C621 248 643 288 643 330 C643 379 611 408 556 408 C503 408 461 384 433 338 C424 322 417 306 406 273 L470 273 C487 331 506 351 545 351 C569 351 581 340 581 317 C581 287 558 261 485 208 C385 136 359 98 341 0 L577 0 L589 57 Z " />
<glyph glyph-name="threequarters" unicode="&#xbe;" horiz-adv-x="602" d="M607 733 L131 -13 L195 -13 L672 733 L607 733 Z M612 408 L544 408 L343 137 L335 97 L484 97 L463 0 L525 0 L546 97 L599 97 L611 154 L558 154 L612 408 Z M496 154 L423 154 L526 295 L496 154 Z M217 611 C247 655 268 670 300 670 C325 670 342 654 342 629 C342 604 326 582 299 570 C285 564 271 562 245 562 L232 503 C248 504 256 504 257 504 C296 504 319 485 319 452 C319 405 285 370 239 370 C213 370 195 380 186 400 C183 406 180 414 175 433 L112 401 C121 381 124 373 127 368 C147 330 179 312 226 312 C310 312 382 381 382 463 C382 494 374 514 355 530 L345 537 L347 539 C386 568 404 601 404 640 C404 692 367 727 312 727 C269 727 227 708 197 676 C190 668 184 660 170 643 L217 611 Z " />
<glyph glyph-name="questiondown" unicode="&#xbf;" horiz-adv-x="602" d="M378 505 L360 421 C350 373 344 363 310 340 L263 309 C192 262 157 201 157 123 C157 35 209 -13 303 -13 C369 -13 425 12 469 60 C494 88 507 113 522 162 L443 162 C437 145 434 135 432 131 C412 82 371 54 317 54 C264 54 231 85 231 136 C231 191 253 227 310 264 C399 323 409 334 423 386 L448 505 L378 505 Z M453 737 C402 737 356 692 356 641 C356 603 382 577 420 577 C470 577 516 623 516 674 C516 711 490 737 453 737 L453 737 Z " />
<glyph glyph-name="Agrave" unicode="&#xc0;" horiz-adv-x="602" d="M467 774 L48 0 L127 0 L236 211 L459 211 L478 0 L557 0 L467 774 Z M423 568 L454 274 L267 274 L423 568 Z M390 946 L328 883 L528 774 L574 823 L390 946 Z " />
<glyph glyph-name="Aacute" unicode="&#xc1;" horiz-adv-x="602" d="M467 774 L48 0 L127 0 L236 211 L459 211 L478 0 L557 0 L467 774 Z M423 568 L454 274 L267 274 L423 568 Z M623 946 L388 824 L412 774 L659 883 L623 946 Z " />
<glyph glyph-name="Acircumflex" unicode="&#xc2;" horiz-adv-x="602" d="M467 774 L48 0 L127 0 L236 211 L459 211 L478 0 L557 0 L467 774 Z M423 568 L454 274 L267 274 L423 568 Z M470 844 L590 742 L639 784 L490 937 L275 784 L306 742 L470 844 Z " />
<glyph glyph-name="Atilde" unicode="&#xc3;" horiz-adv-x="602" d="M467 774 L48 0 L127 0 L236 211 L459 211 L478 0 L557 0 L467 774 Z M423 568 L454 274 L267 274 L423 568 Z M637 911 C603 857 593 847 565 847 C550 847 533 853 517 864 L491 882 C467 898 443 906 418 906 C379 906 341 886 306 848 C295 836 288 826 266 796 L325 776 C364 830 375 839 404 839 C420 839 438 834 448 827 L483 802 C504 787 527 780 550 780 C588 780 626 799 657 833 C668 845 677 857 696 887 L637 911 Z " />
<glyph glyph-name="Adieresis" unicode="&#xc4;" horiz-adv-x="602" d="M467 774 L48 0 L127 0 L236 211 L459 211 L478 0 L557 0 L467 774 Z M423 568 L454 274 L267 274 L423 568 Z M404 897 C359 897 319 857 319 813 C319 780 341 758 374 758 C418 758 458 798 458 842 C458 873 435 897 404 897 L404 897 Z M587 897 C543 897 502 857 502 814 C502 781 525 758 557 758 C601 758 641 798 641 842 C641 874 619 897 587 897 L587 897 Z " />
<glyph glyph-name="Aring" unicode="&#xc5;" horiz-adv-x="602" d="M468 762 C528 766 578 817 578 873 C578 917 547 947 501 947 C440 947 384 894 384 836 C384 793 414 763 460 762 L48 0 L127 0 L236 211 L459 211 L478 0 L557 0 L468 762 Z M423 568 L454 274 L267 274 L423 568 Z M485 880 C504 880 513 873 513 859 C513 843 496 829 476 829 C460 829 449 838 449 851 C449 867 466 880 485 880 L485 880 Z " />
<glyph glyph-name="AE" unicode="&#xc6;" horiz-adv-x="602" d="M703 720 L375 720 L21 0 L97 0 L199 214 L318 214 L273 0 L558 0 L571 63 L356 63 L415 340 L556 340 L570 403 L429 403 L482 657 L689 657 L703 720 Z M332 277 L229 277 L410 657 L413 657 L332 277 Z " />
<glyph glyph-name="Ccedilla" unicode="&#xc7;" horiz-adv-x="602" d="M348 -11 C450 3 509 54 549 162 L554 177 L483 177 C481 172 480 170 479 166 C460 98 403 54 333 54 C257 54 219 101 219 195 C219 322 262 485 319 577 C355 633 410 666 467 666 C518 666 555 634 555 590 C555 584 554 578 552 562 L625 562 C627 585 628 592 628 600 C628 678 566 733 480 733 C405 733 331 697 284 637 C202 532 145 346 145 184 C145 127 159 77 183 43 C205 13 235 -3 285 -11 L242 -85 C275 -84 288 -83 299 -83 C323 -83 336 -89 336 -98 C336 -109 316 -119 295 -119 C278 -119 255 -114 232 -105 L222 -101 L189 -156 C235 -177 266 -186 295 -186 C356 -186 410 -140 410 -86 C410 -53 387 -31 346 -26 L339 -25 L348 -11 Z " />
<glyph glyph-name="Egrave" unicode="&#xc8;" horiz-adv-x="602" d="M140 0 L521 0 L535 63 L229 63 L287 337 L504 337 L517 400 L300 400 L355 657 L654 657 L667 720 L293 720 C292 713 291 710 291 708 L288 693 L271 600 L254 510 L190 209 L168 119 L147 27 L142 7 L140 0 Z M429 926 L367 863 L566 754 L612 803 L429 926 Z " />
<glyph glyph-name="Eacute" unicode="&#xc9;" horiz-adv-x="602" d="M140 0 L521 0 L535 63 L229 63 L287 337 L504 337 L517 400 L300 400 L355 657 L654 657 L667 720 L293 720 C292 713 291 710 291 708 L288 693 L271 600 L254 510 L190 209 L168 119 L147 27 L142 7 L140 0 Z M617 926 L382 804 L406 754 L653 863 L617 926 Z " />
<glyph glyph-name="Ecircumflex" unicode="&#xca;" horiz-adv-x="602" d="M140 0 L521 0 L535 63 L229 63 L287 337 L504 337 L517 400 L300 400 L355 657 L654 657 L667 720 L293 720 C292 713 291 710 291 708 L288 693 L271 600 L254 510 L190 209 L168 119 L147 27 L142 7 L140 0 Z M509 844 L629 742 L678 784 L528 937 L314 784 L345 742 L509 844 Z " />
<glyph glyph-name="Edieresis" unicode="&#xcb;" horiz-adv-x="602" d="M423 895 C379 895 339 856 339 813 C339 780 362 758 394 758 C437 758 477 797 477 840 C477 872 455 895 423 895 L423 895 Z M605 895 C561 895 521 856 521 813 C521 780 543 758 575 758 C619 758 658 797 658 840 C658 872 636 895 605 895 L605 895 Z M140 0 L521 0 L535 63 L229 63 L287 337 L504 337 L517 400 L300 400 L355 657 L654 657 L667 720 L293 720 C292 713 291 710 291 708 L288 693 L271 600 L254 510 L190 209 L168 119 L147 27 L142 7 L140 0 Z " />
<glyph glyph-name="Igrave" unicode="&#xcc;" horiz-adv-x="602" d="M412 922 L359 871 L549 753 L589 800 L412 922 Z M403 657 C397 622 394 606 391 591 C386 562 381 535 375 511 L312 209 C310 201 301 164 277 63 L179 63 L166 0 L436 0 L449 63 L354 63 C363 112 372 161 381 209 L445 511 C458 566 470 615 480 657 L576 657 L589 720 L319 720 L306 657 L403 657 Z " />
<glyph glyph-name="Iacute" unicode="&#xcd;" horiz-adv-x="602" d="M612 922 L384 800 L404 753 L642 871 L612 922 Z M403 657 C397 622 394 606 391 591 C386 562 381 535 375 511 L312 209 C310 201 301 164 277 63 L179 63 L166 0 L436 0 L449 63 L354 63 C363 112 372 161 381 209 L445 511 C458 566 470 615 480 657 L576 657 L589 720 L319 720 L306 657 L403 657 Z " />
<glyph glyph-name="Icircumflex" unicode="&#xce;" horiz-adv-x="602" d="M403 657 C397 622 394 606 391 591 C386 562 381 535 375 511 L312 209 C310 201 301 164 277 63 L179 63 L166 0 L436 0 L449 63 L354 63 C363 112 372 161 381 209 L445 511 C458 566 470 615 480 657 L576 657 L589 720 L319 720 L306 657 L403 657 Z M480 844 L600 742 L649 784 L500 937 L285 784 L316 742 L480 844 Z " />
<glyph glyph-name="Idieresis" unicode="&#xcf;" horiz-adv-x="602" d="M413 899 C370 899 330 860 330 817 C330 785 352 763 384 763 C426 763 466 802 466 845 C466 876 444 899 413 899 L413 899 Z M564 899 C521 899 481 860 481 817 C481 785 503 763 535 763 C577 763 617 802 617 845 C617 876 595 899 564 899 L564 899 Z M403 657 C397 622 394 606 391 591 C386 562 381 535 375 511 L312 209 C310 201 301 164 277 63 L179 63 L166 0 L436 0 L449 63 L354 63 C363 112 372 161 381 209 L445 511 C458 566 470 615 480 657 L576 657 L589 720 L319 720 L306 657 L403 657 Z " />
<glyph glyph-name="Eth" unicode="&#xd0;" horiz-adv-x="602" d="M192 341 L164 209 C151 155 137 94 121 27 L117 14 L114 0 L277 0 C374 0 437 25 491 86 C563 169 625 373 625 531 C625 662 565 720 430 720 L267 720 L265 706 L262 693 C241 581 230 520 228 510 L205 404 L101 404 L88 341 L192 341 Z M262 341 L426 341 L440 404 L276 404 L329 657 L412 657 C511 657 552 619 552 528 C552 444 518 282 484 198 C444 102 387 63 286 63 L203 63 L262 341 Z " />
<glyph glyph-name="Ntilde" unicode="&#xd1;" horiz-adv-x="602" d="M573 720 L570 706 L568 693 C562 662 556 631 550 601 C546 575 540 545 533 510 L463 179 L358 720 L275 720 L166 210 C163 198 149 137 123 27 L119 14 L116 0 L197 0 L199 14 L201 27 C219 122 228 172 236 210 L314 578 L428 -7 L493 -7 L603 510 C605 520 607 529 609 538 C615 558 620 579 624 600 L646 693 L650 706 L653 720 L573 720 Z M645 898 C611 844 601 834 574 834 C558 834 541 840 525 851 L499 869 C475 885 451 893 426 893 C387 893 349 873 314 835 C304 824 297 815 274 783 L333 762 C374 818 383 826 412 826 C428 826 446 821 456 813 L491 789 C512 774 534 767 558 767 C596 767 636 786 665 820 C677 833 687 846 704 874 L645 898 Z " />
<glyph glyph-name="Ograve" unicode="&#xd2;" horiz-adv-x="602" d="M459 733 C366 733 285 680 232 586 C182 497 133 289 133 167 C133 57 197 -13 297 -13 C388 -13 470 40 523 134 C572 221 622 431 622 554 C622 662 558 733 459 733 L459 733 Z M440 666 C509 666 547 617 547 528 C547 465 521 325 491 234 C454 119 389 54 312 54 C246 54 208 105 208 191 C208 265 241 429 273 512 C310 609 371 666 440 666 L440 666 Z M421 926 L359 863 L558 754 L604 803 L421 926 Z " />
<glyph glyph-name="Oacute" unicode="&#xd3;" horiz-adv-x="602" d="M459 733 C366 733 285 680 232 586 C182 497 133 289 133 167 C133 57 197 -13 297 -13 C388 -13 470 40 523 134 C572 221 622 431 622 554 C622 662 558 733 459 733 L459 733 Z M440 666 C509 666 547 617 547 528 C547 465 521 325 491 234 C454 119 389 54 312 54 C246 54 208 105 208 191 C208 265 241 429 273 512 C310 609 371 666 440 666 L440 666 Z M632 926 L397 804 L421 754 L668 863 L632 926 Z " />
<glyph glyph-name="Ocircumflex" unicode="&#xd4;" horiz-adv-x="602" d="M459 733 C366 733 285 680 232 586 C182 497 133 289 133 167 C133 57 197 -13 297 -13 C388 -13 470 40 523 134 C572 221 622 431 622 554 C622 662 558 733 459 733 L459 733 Z M440 666 C509 666 547 617 547 528 C547 465 521 325 491 234 C454 119 389 54 312 54 C246 54 208 105 208 191 C208 265 241 429 273 512 C310 609 371 666 440 666 L440 666 Z M479 844 L599 742 L648 784 L498 937 L284 784 L315 742 L479 844 Z " />
<glyph glyph-name="Otilde" unicode="&#xd5;" horiz-adv-x="602" d="M459 733 C366 733 285 680 232 586 C182 497 133 289 133 167 C133 57 197 -13 297 -13 C388 -13 470 40 523 134 C572 221 622 431 622 554 C622 662 558 733 459 733 L459 733 Z M440 666 C509 666 547 617 547 528 C547 465 521 325 491 234 C454 119 389 54 312 54 C246 54 208 105 208 191 C208 265 241 429 273 512 C310 609 371 666 440 666 L440 666 Z M640 895 C606 840 596 831 569 831 C553 831 536 837 520 848 L494 866 C470 882 446 890 421 890 C382 890 344 870 309 832 C299 820 291 811 269 780 L328 759 C368 814 379 823 407 823 C423 823 441 818 451 811 L486 786 C506 772 530 764 553 764 C591 764 630 783 660 817 C672 829 681 842 699 871 L640 895 Z " />
<glyph glyph-name="Odieresis" unicode="&#xd6;" horiz-adv-x="602" d="M428 896 C384 896 344 857 344 813 C344 780 366 758 399 758 C442 758 482 797 482 841 C482 873 460 896 428 896 L428 896 Z M591 896 C548 896 507 856 507 813 C507 781 530 758 562 758 C605 758 645 798 645 841 C645 873 623 896 591 896 L591 896 Z M459 733 C366 733 285 680 232 586 C182 497 133 289 133 167 C133 57 197 -13 297 -13 C388 -13 470 40 523 134 C572 221 622 431 622 554 C622 662 558 733 459 733 L459 733 Z M440 666 C509 666 547 617 547 528 C547 465 521 325 491 234 C454 119 389 54 312 54 C246 54 208 105 208 191 C208 265 241 429 273 512 C310 609 371 666 440 666 L440 666 Z " />
<glyph glyph-name="multiply" unicode="&#xd7;" horiz-adv-x="602" d="M135 640 L87 591 L314 365 L89 141 L137 93 L362 317 L589 91 L637 139 L410 365 L635 589 L587 638 L362 413 L135 640 Z " />
<glyph glyph-name="Oslash" unicode="&#xd8;" horiz-adv-x="602" d="M673 698 L625 729 L581 672 C546 715 507 733 448 733 C333 733 239 653 190 514 C155 416 123 254 123 179 C123 150 126 129 133 100 L62 9 L110 -23 L161 43 C197 3 235 -13 291 -13 C384 -13 467 42 520 138 C566 222 616 430 616 537 C616 565 614 583 607 613 L673 698 Z M541 530 C541 438 493 232 454 161 C417 92 364 54 305 54 C262 54 236 70 213 109 L541 530 Z M197 181 C198 245 218 361 243 449 C285 594 348 666 434 666 C478 666 505 648 528 605 L197 181 Z " />
<glyph glyph-name="Ugrave" unicode="&#xd9;" horiz-adv-x="602" d="M251 720 C250 716 250 715 249 707 L246 693 C236 637 221 558 212 511 L155 245 C146 200 141 166 141 142 C141 53 206 -13 294 -13 C365 -13 442 28 488 91 C517 131 530 163 547 245 L603 511 L624 598 L646 693 L650 706 L653 720 L572 720 L570 706 L567 693 C553 616 538 535 533 511 L476 245 C462 175 456 156 439 130 C410 83 361 54 311 54 C254 54 214 95 214 153 C214 178 218 213 225 245 L282 510 C285 529 290 548 295 566 C302 595 309 625 316 656 C321 678 323 687 326 696 L329 710 C330 714 331 716 331 720 L251 720 Z M379 926 L317 863 L517 754 L562 803 L379 926 Z " />
<glyph glyph-name="Uacute" unicode="&#xda;" horiz-adv-x="602" d="M251 720 C250 716 250 715 249 707 L246 693 C236 637 221 558 212 511 L155 245 C146 200 141 166 141 142 C141 53 206 -13 294 -13 C365 -13 442 28 488 91 C517 131 530 163 547 245 L603 511 L624 598 L646 693 L650 706 L653 720 L572 720 L570 706 L567 693 C553 616 538 535 533 511 L476 245 C462 175 456 156 439 130 C410 83 361 54 311 54 C254 54 214 95 214 153 C214 178 218 213 225 245 L282 510 C285 529 290 548 295 566 C302 595 309 625 316 656 C321 678 323 687 326 696 L329 710 C330 714 331 716 331 720 L251 720 Z M631 926 L396 804 L419 754 L667 863 L631 926 Z " />
<glyph glyph-name="Ucircumflex" unicode="&#xdb;" horiz-adv-x="602" d="M251 720 C250 716 250 715 249 707 L246 693 C236 637 221 558 212 511 L155 245 C146 200 141 166 141 142 C141 53 206 -13 294 -13 C365 -13 442 28 488 91 C517 131 530 163 547 245 L603 511 L624 598 L646 693 L650 706 L653 720 L572 720 L570 706 L567 693 C553 616 538 535 533 511 L476 245 C462 175 456 156 439 130 C410 83 361 54 311 54 C254 54 214 95 214 153 C214 178 218 213 225 245 L282 510 C285 529 290 548 295 566 C302 595 309 625 316 656 C321 678 323 687 326 696 L329 710 C330 714 331 716 331 720 L251 720 Z M478 844 L598 742 L646 784 L497 937 L283 784 L313 742 L478 844 Z " />
<glyph glyph-name="Udieresis" unicode="&#xdc;" horiz-adv-x="602" d="M251 720 C250 716 250 715 249 707 L246 693 C236 637 221 558 212 511 L155 245 C146 200 141 166 141 142 C141 53 206 -13 294 -13 C365 -13 442 28 488 91 C517 131 530 163 547 245 L603 511 L624 598 L646 693 L650 706 L653 720 L572 720 L570 706 L567 693 C553 616 538 535 533 511 L476 245 C462 175 456 156 439 130 C410 83 361 54 311 54 C254 54 214 95 214 153 C214 178 218 213 225 245 L282 510 C285 529 290 548 295 566 C302 595 309 625 316 656 C321 678 323 687 326 696 L329 710 C330 714 331 716 331 720 L251 720 Z M403 897 C358 897 318 857 318 813 C318 780 341 758 373 758 C417 758 457 798 457 842 C457 873 434 897 403 897 L403 897 Z M587 897 C542 897 501 857 501 814 C501 781 524 758 557 758 C600 758 641 798 641 842 C641 874 618 897 587 897 L587 897 Z " />
<glyph glyph-name="Yacute" unicode="&#xdd;" horiz-adv-x="602" d="M214 720 L218 701 C240 614 261 526 282 439 C292 395 302 351 312 305 L292 210 C278 152 264 91 249 27 L245 14 L242 0 L323 0 L325 14 L328 27 L362 210 L382 305 C454 415 542 548 657 720 L576 720 L571 712 C503 603 418 471 366 391 C343 489 321 591 295 720 L214 720 Z M621 926 L386 804 L410 754 L657 863 L621 926 Z " />
<glyph glyph-name="Thorn" unicode="&#xde;" horiz-adv-x="602" d="M346 629 C354 660 361 688 369 720 L288 720 L286 707 L283 693 C268 614 261 575 249 510 L185 210 C170 145 156 88 142 27 L138 14 L135 0 L216 0 L218 14 C231 88 234 100 251 192 L284 192 C384 192 437 205 490 243 C556 292 598 381 598 475 C598 536 576 582 535 606 C508 623 472 629 410 629 L346 629 Z M382 566 C424 566 440 565 460 560 C501 551 523 516 523 460 C523 389 494 326 446 289 C412 263 378 254 312 254 L264 254 L319 510 C323 529 326 544 332 566 L382 566 Z " />
<glyph glyph-name="germandbls" unicode="&#xdf;" horiz-adv-x="602" d="M469 390 L475 394 C554 446 594 513 594 593 C594 675 539 733 461 733 C407 733 348 705 309 661 C283 632 271 602 256 532 L187 211 C184 195 169 134 144 27 L140 14 L137 0 L218 0 L220 14 L222 27 C234 88 246 150 257 211 L325 532 C337 587 337 587 345 604 C365 644 398 666 437 666 C486 666 519 632 519 579 C519 533 497 487 460 456 C428 430 395 418 339 412 L326 354 C435 348 473 318 473 235 C473 139 415 54 350 54 C332 54 315 60 289 76 L244 22 C276 -3 302 -13 336 -13 C386 -13 443 15 479 59 C521 108 549 188 549 260 C549 316 521 365 476 386 L469 390 Z " />
<glyph glyph-name="agrave" unicode="&#xe0;" horiz-adv-x="602" d="M253 444 C339 476 356 480 395 480 C441 480 473 453 473 413 C473 400 470 380 465 357 L459 332 C408 351 379 358 349 358 C232 358 131 245 131 114 C131 34 178 -13 257 -13 C312 -13 353 6 405 55 C406 29 408 6 412 -14 L483 -6 L482 1 C478 26 478 30 478 44 C478 88 478 88 495 168 L535 357 C539 379 542 402 542 420 C542 498 492 547 411 547 C365 547 335 540 249 511 L253 444 Z M420 146 C362 81 319 54 271 54 C232 54 205 84 205 127 C205 156 214 191 229 218 C255 265 296 291 344 291 C375 291 405 284 445 267 L420 146 Z M399 753 L331 691 L497 563 L545 611 L399 753 Z " />
<glyph glyph-name="aacute" unicode="&#xe1;" horiz-adv-x="602" d="M253 444 C339 476 356 480 395 480 C441 480 473 453 473 413 C473 400 470 380 465 357 L459 332 C408 351 379 358 349 358 C232 358 131 245 131 114 C131 34 178 -13 257 -13 C312 -13 353 6 405 55 C406 29 408 6 412 -14 L483 -6 L482 1 C478 26 478 30 478 44 C478 88 478 88 495 168 L535 357 C539 379 542 402 542 420 C542 498 492 547 411 547 C365 547 335 540 249 511 L253 444 Z M420 146 C362 81 319 54 271 54 C232 54 205 84 205 127 C205 156 214 191 229 218 C255 265 296 291 344 291 C375 291 405 284 445 267 L420 146 Z M568 752 L361 611 L389 563 L609 691 L568 752 Z " />
<glyph glyph-name="acircumflex" unicode="&#xe2;" horiz-adv-x="602" d="M253 444 C339 476 356 480 395 480 C441 480 473 453 473 413 C473 400 470 380 465 357 L459 332 C408 351 379 358 349 358 C232 358 131 245 131 114 C131 34 178 -13 257 -13 C312 -13 353 6 405 55 C406 29 408 6 412 -14 L483 -6 L482 1 C478 26 478 30 478 44 C478 88 478 88 495 168 L535 357 C539 379 542 402 542 420 C542 498 492 547 411 547 C365 547 335 540 249 511 L253 444 Z M420 146 C362 81 319 54 271 54 C232 54 205 84 205 127 C205 156 214 191 229 218 C255 265 296 291 344 291 C375 291 405 284 445 267 L420 146 Z M433 662 L551 560 L599 603 L453 755 L241 603 L271 560 L433 662 Z " />
<glyph glyph-name="atilde" unicode="&#xe3;" horiz-adv-x="602" d="M253 444 C339 476 356 480 395 480 C441 480 473 453 473 413 C473 400 470 380 465 357 L459 332 C408 351 379 358 349 358 C232 358 131 245 131 114 C131 34 178 -13 257 -13 C312 -13 353 6 405 55 C406 29 408 6 412 -14 L483 -6 L482 1 C478 26 478 30 478 44 C478 88 478 88 495 168 L535 357 C539 379 542 402 542 420 C542 498 492 547 411 547 C365 547 335 540 249 511 L253 444 Z M420 146 C362 81 319 54 271 54 C232 54 205 84 205 127 C205 156 214 191 229 218 C255 265 296 291 344 291 C375 291 405 284 445 267 L420 146 Z M593 698 C581 680 575 673 572 669 C559 654 542 645 526 645 C511 645 494 651 478 662 L452 679 C417 702 409 705 383 705 C343 705 306 686 273 647 C263 636 256 625 233 594 L289 573 C322 621 342 638 368 638 C382 638 399 633 411 624 L446 599 C465 585 488 578 511 578 C548 578 585 597 615 630 C624 640 630 649 647 674 L593 698 Z " />
<glyph glyph-name="adieresis" unicode="&#xe4;" horiz-adv-x="602" d="M350 713 C306 713 266 673 266 630 C266 597 288 575 321 575 C365 575 404 614 404 658 C404 690 381 713 350 713 L350 713 Z M550 713 C506 713 466 673 466 630 C466 597 488 575 521 575 C565 575 604 614 604 658 C604 690 582 713 550 713 L550 713 Z M253 444 C339 476 356 480 395 480 C441 480 473 453 473 413 C473 400 470 380 465 357 L459 332 C408 351 379 358 349 358 C232 358 131 245 131 114 C131 34 178 -13 257 -13 C312 -13 353 6 405 55 C406 29 408 6 412 -14 L483 -6 L482 1 C478 26 478 30 478 44 C478 88 478 88 495 168 L535 357 C539 379 542 402 542 420 C542 498 492 547 411 547 C365 547 335 540 249 511 L253 444 Z M420 146 C362 81 319 54 271 54 C232 54 205 84 205 127 C205 156 214 191 229 218 C255 265 296 291 344 291 C375 291 405 284 445 267 L420 146 Z " />
<glyph glyph-name="aring" unicode="&#xe5;" horiz-adv-x="602" d="M253 444 C339 476 356 480 395 480 C441 480 473 453 473 413 C473 400 470 380 465 357 L459 332 C408 351 379 358 349 358 C232 358 131 245 131 114 C131 34 178 -13 257 -13 C312 -13 353 6 405 55 C406 29 408 6 412 -14 L483 -6 L482 1 C478 26 478 30 478 44 C478 88 478 88 495 168 L535 357 C539 379 542 402 542 420 C542 498 492 547 411 547 C365 547 335 540 249 511 L253 444 Z M420 146 C362 81 319 54 271 54 C232 54 205 84 205 127 C205 156 214 191 229 218 C255 265 296 291 344 291 C375 291 405 284 445 267 L420 146 Z M479 757 C417 757 362 704 362 646 C362 603 393 573 439 573 C499 573 554 626 554 683 C554 726 523 757 479 757 L479 757 Z M462 690 C480 690 489 683 489 669 C489 654 473 640 454 640 C438 640 427 649 427 661 C427 677 443 690 462 690 L462 690 Z " />
<glyph glyph-name="ae" unicode="&#xe6;" horiz-adv-x="602" d="M607 248 C622 316 628 361 628 402 C628 490 581 547 508 547 C470 547 440 537 407 513 L405 515 C391 534 363 547 335 547 C294 547 248 531 175 491 L178 424 L195 434 C263 471 286 480 315 480 C338 480 353 464 353 439 C353 430 352 417 350 409 L336 343 L329 345 C315 350 298 353 280 353 C224 353 174 330 136 287 C94 240 68 175 68 114 C68 32 111 -13 187 -13 C226 -13 264 -1 294 21 L299 25 L301 22 C317 -1 344 -13 382 -13 C435 -13 475 0 576 49 L561 110 C488 73 435 54 402 54 C374 54 355 70 355 93 C355 101 356 108 360 125 L385 248 L607 248 Z M399 311 L420 412 C429 457 452 480 487 480 C533 480 558 443 558 373 C558 349 556 320 553 312 L553 311 L399 311 Z M294 144 C279 75 260 54 212 54 C167 54 142 80 142 128 C142 216 197 287 265 287 C285 287 301 283 320 272 L294 144 Z " />
<glyph glyph-name="ccedilla" unicode="&#xe7;" horiz-adv-x="602" d="M352 -12 C413 -7 470 23 542 87 L502 139 C486 125 480 119 470 110 C427 74 381 54 338 54 C269 54 221 109 221 187 C221 260 246 344 285 401 C318 449 375 480 432 480 C474 480 505 462 526 427 C530 419 534 411 543 385 L616 427 C597 462 584 483 569 498 C540 530 496 547 445 547 C361 547 278 502 224 427 C178 362 146 258 146 171 C146 74 198 9 291 -10 L245 -88 L264 -87 C273 -86 293 -86 303 -86 C327 -86 340 -91 340 -101 C340 -112 320 -122 297 -122 C277 -122 267 -119 225 -104 L191 -160 C238 -181 268 -189 297 -189 C359 -189 414 -143 414 -90 C414 -56 393 -36 349 -29 L343 -28 L352 -12 Z " />
<glyph glyph-name="egrave" unicode="&#xe8;" horiz-adv-x="602" d="M213 247 L571 247 C582 301 587 338 587 372 C587 478 524 547 428 547 C344 547 264 501 210 423 C164 355 135 262 135 178 C135 53 196 -13 312 -13 C353 -13 353 -13 481 24 C491 26 496 28 516 36 L525 40 L508 107 C430 69 380 54 327 54 C251 54 207 100 207 178 C207 203 210 236 213 246 L213 247 Z M226 310 L226 311 C253 409 330 480 410 480 C476 480 516 431 516 350 C516 343 516 338 515 333 C514 321 513 312 513 312 L513 310 L226 310 Z M410 752 L342 690 L508 562 L556 611 L410 752 Z " />
<glyph glyph-name="eacute" unicode="&#xe9;" horiz-adv-x="602" d="M213 247 L571 247 C582 301 587 338 587 372 C587 478 524 547 428 547 C344 547 264 501 210 423 C164 355 135 262 135 178 C135 53 196 -13 312 -13 C353 -13 353 -13 481 24 C491 26 496 28 516 36 L525 40 L508 107 C430 69 380 54 327 54 C251 54 207 100 207 178 C207 203 210 236 213 246 L213 247 Z M226 310 L226 311 C253 409 330 480 410 480 C476 480 516 431 516 350 C516 343 516 338 515 333 C514 321 513 312 513 312 L513 310 L226 310 Z M565 751 L358 611 L385 562 L606 690 L565 751 Z " />
<glyph glyph-name="ecircumflex" unicode="&#xea;" horiz-adv-x="602" d="M213 247 L571 247 C582 301 587 338 587 372 C587 478 524 547 428 547 C344 547 264 501 210 423 C164 355 135 262 135 178 C135 53 196 -13 312 -13 C353 -13 353 -13 481 24 C491 26 496 28 516 36 L525 40 L508 107 C430 69 380 54 327 54 C251 54 207 100 207 178 C207 203 210 236 213 246 L213 247 Z M226 310 L226 311 C253 409 330 480 410 480 C476 480 516 431 516 350 C516 343 516 338 515 333 C514 321 513 312 513 312 L513 310 L226 310 Z M453 661 L571 559 L619 602 L473 754 L261 602 L292 559 L453 661 Z " />
<glyph glyph-name="edieresis" unicode="&#xeb;" horiz-adv-x="602" d="M213 247 L571 247 C582 301 587 338 587 372 C587 478 524 547 428 547 C344 547 264 501 210 423 C164 355 135 262 135 178 C135 53 196 -13 312 -13 C353 -13 353 -13 481 24 C491 26 496 28 516 36 L525 40 L508 107 C430 69 380 54 327 54 C251 54 207 100 207 178 C207 203 210 236 213 246 L213 247 Z M226 310 L226 311 C253 409 330 480 410 480 C476 480 516 431 516 350 C516 343 516 338 515 333 C514 321 513 312 513 312 L513 310 L226 310 Z M375 712 C330 712 290 673 290 629 C290 596 313 574 345 574 C389 574 429 614 429 657 C429 689 406 712 375 712 L375 712 Z M556 712 C512 712 472 673 472 629 C472 597 494 574 527 574 C571 574 610 613 610 657 C610 689 588 712 556 712 L556 712 Z " />
<glyph glyph-name="igrave" unicode="&#xec;" horiz-adv-x="602" d="M373 471 C370 455 367 436 363 419 C360 397 347 327 346 325 L322 210 L301 120 C279 27 274 8 272 0 L352 0 L356 18 C362 52 369 87 375 120 L392 210 L416 325 C431 387 448 460 459 507 L463 520 L466 534 L238 534 L225 471 L373 471 Z M370 752 L302 690 L469 562 L516 611 L370 752 Z " />
<glyph glyph-name="iacute" unicode="&#xed;" horiz-adv-x="602" d="M563 751 L344 611 L373 562 L609 690 L563 751 Z M373 471 C370 455 367 436 363 419 C360 397 347 327 346 325 L322 210 L301 120 C279 27 274 8 272 0 L352 0 L356 18 C362 52 369 87 375 120 L392 210 L416 325 C431 387 448 460 459 507 L463 520 L466 534 L238 534 L225 471 L373 471 Z " />
<glyph glyph-name="icircumflex" unicode="&#xee;" horiz-adv-x="602" d="M373 471 C368 447 367 436 362 415 C359 392 348 334 346 325 L321 210 L300 120 C291 80 282 40 272 0 L352 0 C354 12 355 18 360 41 L365 67 C368 84 372 102 375 120 L391 210 L416 325 C430 387 448 460 459 507 L463 520 L466 534 L238 534 L225 471 L373 471 Z M407 661 L525 559 L573 602 L426 754 L215 602 L245 559 L407 661 Z " />
<glyph glyph-name="idieresis" unicode="&#xef;" horiz-adv-x="602" d="M352 712 C308 712 268 673 268 629 C268 596 291 574 323 574 C366 574 406 614 406 657 C406 689 384 712 352 712 L352 712 Z M550 712 C506 712 466 672 466 629 C466 597 489 574 521 574 C565 574 604 613 604 657 C604 689 582 712 550 712 L550 712 Z M373 471 C370 455 367 436 363 419 C360 397 347 327 346 325 L322 210 L301 120 C279 27 274 8 272 0 L352 0 L356 18 C362 52 369 87 375 120 L392 210 L416 325 C431 387 448 460 459 507 L463 520 L466 534 L238 534 L225 471 L373 471 Z " />
<glyph glyph-name="eth" unicode="&#xf0;" horiz-adv-x="602" d="M465 543 C440 547 440 547 429 547 C345 547 269 504 217 426 C173 359 143 252 143 161 C143 55 208 -13 308 -13 C390 -13 471 34 518 109 C561 176 592 282 592 359 L592 382 L592 417 C592 491 546 598 487 659 L475 671 L544 715 L515 771 L422 711 C389 732 348 751 310 760 L302 762 L249 708 C293 692 325 678 350 665 L270 616 L301 562 L404 625 C427 604 449 577 468 543 L465 543 Z M411 480 C481 480 518 439 518 361 C518 311 505 245 486 193 C452 101 396 54 321 54 C254 54 217 96 217 173 C217 227 232 301 254 354 C288 437 342 480 411 480 L411 480 Z " />
<glyph glyph-name="ntilde" unicode="&#xf1;" horiz-adv-x="602" d="M271 443 C274 465 277 500 277 509 L277 513 L277 534 L208 534 C208 453 204 419 179 291 L171 250 L162 209 C161 203 146 143 119 27 L115 14 L112 0 L193 0 C195 12 202 52 215 120 L232 209 L243 263 C256 328 288 383 339 428 C378 462 415 480 446 480 C476 480 499 454 499 423 C499 412 489 333 486 317 L463 209 C448 149 434 88 420 27 L416 14 L413 0 L493 0 C496 11 497 17 501 38 C506 65 511 92 516 120 L533 209 L560 340 C569 380 573 412 573 435 C573 500 527 547 465 547 C412 547 340 513 295 467 L271 443 Z M598 697 C585 679 580 672 577 668 C564 653 547 644 531 644 C516 644 500 650 483 661 L457 678 C421 702 415 704 388 704 C349 704 311 684 279 646 C268 634 259 622 238 593 L294 572 C329 622 347 637 373 637 C388 637 405 632 416 623 L451 598 C470 584 493 577 516 577 C553 577 591 596 620 629 C629 640 637 651 652 673 L598 697 Z " />
<glyph glyph-name="ograve" unicode="&#xf2;" horiz-adv-x="602" d="M427 547 C345 547 265 501 216 426 C171 355 142 251 142 162 C142 57 207 -13 304 -13 C385 -13 465 34 513 108 C559 179 588 283 588 372 C588 476 523 547 427 547 L427 547 Z M408 480 C476 480 514 437 514 361 C514 311 501 245 482 193 C448 102 392 54 319 54 C254 54 216 98 216 173 C216 228 231 302 254 356 C288 437 341 480 408 480 L408 480 Z M420 752 L352 690 L518 562 L566 611 L420 752 Z " />
<glyph glyph-name="oacute" unicode="&#xf3;" horiz-adv-x="602" d="M427 547 C345 547 265 501 216 426 C171 355 142 251 142 162 C142 57 207 -13 304 -13 C385 -13 465 34 513 108 C559 179 588 283 588 372 C588 476 523 547 427 547 L427 547 Z M408 480 C476 480 514 437 514 361 C514 311 501 245 482 193 C448 102 392 54 319 54 C254 54 216 98 216 173 C216 228 231 302 254 356 C288 437 341 480 408 480 L408 480 Z M588 751 L381 611 L408 562 L629 690 L588 751 Z " />
<glyph glyph-name="ocircumflex" unicode="&#xf4;" horiz-adv-x="602" d="M427 547 C345 547 265 501 216 426 C171 355 142 251 142 162 C142 57 207 -13 304 -13 C385 -13 465 34 513 108 C559 179 588 283 588 372 C588 476 523 547 427 547 L427 547 Z M408 480 C476 480 514 437 514 361 C514 311 501 245 482 193 C448 102 392 54 319 54 C254 54 216 98 216 173 C216 228 231 302 254 356 C288 437 341 480 408 480 L408 480 Z M454 661 L572 559 L620 602 L474 754 L262 602 L293 559 L454 661 Z " />
<glyph glyph-name="otilde" unicode="&#xf5;" horiz-adv-x="602" d="M427 547 C345 547 265 501 216 426 C171 355 142 251 142 162 C142 57 207 -13 304 -13 C385 -13 465 34 513 108 C559 179 588 283 588 372 C588 476 523 547 427 547 L427 547 Z M408 480 C476 480 514 437 514 361 C514 311 501 245 482 193 C448 102 392 54 319 54 C254 54 216 98 216 173 C216 228 231 302 254 356 C288 437 341 480 408 480 L408 480 Z M607 697 C594 679 589 672 586 668 C573 653 556 644 539 644 C525 644 508 650 492 661 L466 678 C427 703 424 704 397 704 C357 704 319 684 287 646 C277 635 270 625 247 593 L302 572 C337 622 355 637 381 637 C396 637 413 632 425 623 L460 598 C479 584 501 577 524 577 C561 577 599 596 628 629 C638 640 646 651 661 673 L607 697 Z " />
<glyph glyph-name="odieresis" unicode="&#xf6;" horiz-adv-x="602" d="M427 547 C345 547 265 501 216 426 C171 355 142 251 142 162 C142 57 207 -13 304 -13 C385 -13 465 34 513 108 C559 179 588 283 588 372 C588 476 523 547 427 547 L427 547 Z M408 480 C476 480 514 437 514 361 C514 311 501 245 482 193 C448 102 392 54 319 54 C254 54 216 98 216 173 C216 228 231 302 254 356 C288 437 341 480 408 480 L408 480 Z M377 712 C333 712 293 673 293 629 C293 596 316 574 348 574 C391 574 431 614 431 657 C431 689 409 712 377 712 L377 712 Z M558 712 C514 712 474 673 474 629 C474 597 497 574 529 574 C573 574 612 613 612 657 C612 689 590 712 558 712 L558 712 Z " />
<glyph glyph-name="divide" unicode="&#xf7;" horiz-adv-x="602" d="M370 605 C337 605 310 579 310 546 C310 513 336 487 369 487 C402 487 428 513 428 546 C428 579 402 605 370 605 L370 605 Z M644 394 L94 394 L94 326 L644 326 L644 394 Z M370 234 C337 234 310 208 310 175 C310 142 336 116 369 116 C402 116 428 142 428 175 C428 207 402 234 370 234 L370 234 Z " />
<glyph glyph-name="oslash" unicode="&#xf8;" horiz-adv-x="602" d="M605 528 L564 567 L522 518 C489 539 461 547 424 547 C345 547 264 500 217 426 C172 356 142 251 142 164 C142 139 145 120 154 93 L92 21 L133 -17 L182 40 C218 2 254 -13 305 -13 C385 -13 465 34 513 108 C558 178 588 283 588 371 C588 410 580 439 560 477 L605 528 Z M506 414 C512 391 514 378 514 358 C514 311 501 242 482 193 C447 102 391 54 320 54 C280 54 255 67 234 99 L506 414 Z M216 165 L216 167 L216 171 L216 178 C216 224 229 291 248 341 C282 432 338 480 409 480 C435 480 454 475 473 462 L216 165 Z " />
<glyph glyph-name="ugrave" unicode="&#xf9;" horiz-adv-x="602" d="M446 91 C443 63 441 32 441 10 L441 0 L509 0 L509 16 C509 89 517 146 547 284 L556 325 C560 343 574 403 599 507 L602 520 L605 534 L525 534 L522 520 L520 507 L490 344 L486 325 L474 271 C459 204 428 150 379 106 C341 72 303 54 270 54 C238 54 217 79 217 117 C217 138 221 164 230 208 L232 217 L254 325 C267 377 280 433 298 507 L301 520 L304 534 L224 534 L221 520 L219 507 C207 446 196 385 185 325 L157 194 C149 156 144 122 144 98 C144 34 190 -13 252 -13 C307 -13 378 20 423 67 L446 91 Z M395 752 L327 690 L493 562 L541 611 L395 752 Z " />
<glyph glyph-name="uacute" unicode="&#xfa;" horiz-adv-x="602" d="M446 91 C443 63 441 32 441 10 L441 0 L509 0 L509 16 C509 89 517 146 547 284 L556 325 C560 343 574 403 599 507 L602 520 L605 534 L525 534 L522 520 L520 507 L490 344 L486 325 L474 271 C459 204 428 150 379 106 C341 72 303 54 270 54 C238 54 217 79 217 117 C217 138 221 164 230 208 L232 217 L254 325 C267 377 280 433 298 507 L301 520 L304 534 L224 534 L221 520 L219 507 C207 446 196 385 185 325 L157 194 C149 156 144 122 144 98 C144 34 190 -13 252 -13 C307 -13 378 20 423 67 L446 91 Z M569 751 L362 611 L389 562 L610 690 L569 751 Z " />
<glyph glyph-name="ucircumflex" unicode="&#xfb;" horiz-adv-x="602" d="M446 91 C443 63 441 32 441 10 L441 0 L509 0 L509 16 C509 89 517 146 547 284 L556 325 C560 343 574 403 599 507 L602 520 L605 534 L525 534 L522 520 L520 507 L490 344 L486 325 L474 271 C459 204 428 150 379 106 C341 72 303 54 270 54 C238 54 217 79 217 117 C217 138 221 164 230 208 L232 217 L254 325 C267 377 280 433 298 507 L301 520 L304 534 L224 534 L221 520 L219 507 C207 446 196 385 185 325 L157 194 C149 156 144 122 144 98 C144 34 190 -13 252 -13 C307 -13 378 20 423 67 L446 91 Z M446 661 L564 558 L612 601 L466 754 L254 601 L285 558 L446 661 Z " />
<glyph glyph-name="udieresis" unicode="&#xfc;" horiz-adv-x="602" d="M446 91 C443 63 441 32 441 10 L441 0 L509 0 L509 16 C509 89 517 146 547 284 L556 325 C560 343 574 403 599 507 L602 520 L605 534 L525 534 L522 520 L520 507 L490 344 L486 325 L474 271 C459 204 428 150 379 106 C341 72 303 54 270 54 C238 54 217 79 217 117 C217 138 221 164 230 208 L232 217 L254 325 C267 377 280 433 298 507 L301 520 L304 534 L224 534 L221 520 L219 507 C207 446 196 385 185 325 L157 194 C149 156 144 122 144 98 C144 34 190 -13 252 -13 C307 -13 378 20 423 67 L446 91 Z M364 712 C320 712 280 672 280 629 C280 596 303 574 335 574 C378 574 418 614 418 657 C418 689 396 712 364 712 L364 712 Z M546 712 C501 712 461 673 461 629 C461 596 484 574 516 574 C560 574 600 613 600 657 C600 689 577 712 546 712 L546 712 Z " />
<glyph glyph-name="yacute" unicode="&#xfd;" horiz-adv-x="602" d="M559 534 L341 166 L288 534 L208 534 L282 69 C268 43 249 15 226 -18 C178 -82 160 -98 130 -98 C109 -98 98 -89 89 -64 C77 -32 76 -29 74 -19 L73 -17 L6 -48 C9 -70 12 -82 16 -92 C32 -139 67 -165 115 -165 C185 -165 244 -113 326 20 L640 534 L559 534 Z M592 751 L385 611 L413 562 L633 690 L592 751 Z " />
<glyph glyph-name="thorn" unicode="&#xfe;" horiz-adv-x="602" d="M195 19 L200 16 C237 -6 261 -13 298 -13 C454 -13 588 158 588 357 C588 470 523 547 427 547 C380 547 326 527 298 500 L297 498 L308 554 C317 593 321 632 321 667 C321 689 320 709 317 735 L245 727 C247 691 248 680 248 663 C248 610 241 568 213 432 L121 3 C98 -95 91 -124 77 -186 C73 -202 72 -203 71 -208 L152 -208 L154 -194 L156 -181 C163 -145 187 -21 191 3 L195 19 Z M274 393 C324 458 357 480 408 480 C473 480 514 428 514 343 C514 186 419 54 304 54 C266 54 239 67 212 100 L274 393 Z " />
<glyph glyph-name="ydieresis" unicode="&#xff;" horiz-adv-x="602" d="M559 534 L341 166 L288 534 L208 534 L282 69 C268 43 249 15 226 -18 C178 -82 160 -98 130 -98 C109 -98 98 -89 89 -64 C77 -32 76 -29 74 -19 L73 -17 L6 -48 C9 -70 12 -82 16 -92 C32 -139 67 -165 115 -165 C185 -165 244 -113 326 20 L640 534 L559 534 Z M373 712 C329 712 289 673 289 629 C289 596 312 574 344 574 C387 574 427 614 427 657 C427 689 405 712 373 712 L373 712 Z M555 712 C510 712 470 673 470 629 C470 596 493 574 525 574 C569 574 609 613 609 657 C609 689 586 712 555 712 L555 712 Z " />
<glyph glyph-name="Amacron" unicode="&#x100;" horiz-adv-x="602" d="M467 774 L48 0 L127 0 L236 211 L459 211 L478 0 L557 0 L467 774 Z M423 568 L454 274 L267 274 L423 568 Z M625 797 L639 860 L328 860 L315 797 L625 797 Z " />
<glyph glyph-name="amacron" unicode="&#x101;" horiz-adv-x="602" d="M253 444 C339 476 356 480 395 480 C441 480 473 453 473 413 C473 400 470 380 465 357 L459 332 C408 351 379 358 349 358 C232 358 131 245 131 114 C131 34 178 -13 257 -13 C312 -13 353 6 405 55 C406 29 408 6 412 -14 L483 -6 L482 1 C478 26 478 30 478 44 C478 88 478 88 495 168 L535 357 C539 379 542 402 542 420 C542 498 492 547 411 547 C365 547 335 540 249 511 L253 444 Z M420 146 C362 81 319 54 271 54 C232 54 205 84 205 127 C205 156 214 191 229 218 C255 265 296 291 344 291 C375 291 405 284 445 267 L420 146 Z M589 605 L602 668 L291 668 L278 605 L589 605 Z " />
<glyph glyph-name="Abreve" unicode="&#x102;" horiz-adv-x="602" d="M468 765 C578 769 648 818 669 908 L602 908 C581 853 544 832 467 832 C399 832 371 854 371 908 L304 908 C302 896 301 885 301 880 C301 809 363 765 462 765 L48 0 L127 0 L236 211 L459 211 L478 0 L557 0 L468 765 Z M423 568 L454 274 L267 274 L423 568 Z " />
<glyph glyph-name="abreve" unicode="&#x103;" horiz-adv-x="602" d="M253 444 C339 476 356 480 395 480 C441 480 473 453 473 413 C473 400 470 380 465 357 L459 332 C408 351 379 358 349 358 C232 358 131 245 131 114 C131 34 178 -13 257 -13 C312 -13 353 6 405 55 C406 29 408 6 412 -14 L483 -6 L482 1 C478 26 478 30 478 44 C478 88 478 88 495 168 L535 357 C539 379 542 402 542 420 C542 498 492 547 411 547 C365 547 335 540 249 511 L253 444 Z M420 146 C362 81 319 54 271 54 C232 54 205 84 205 127 C205 156 214 191 229 218 C255 265 296 291 344 291 C375 291 405 284 445 267 L420 146 Z M288 712 C286 700 285 690 285 684 C285 613 347 569 446 569 C556 569 628 618 653 712 L586 712 C565 657 527 636 451 636 C383 636 355 658 355 712 L288 712 Z " />
<glyph glyph-name="Aogonek" unicode="&#x104;" horiz-adv-x="602" d="M467 774 L48 0 L127 0 L236 211 L459 211 L477 17 C410 -15 377 -57 377 -111 C377 -162 414 -190 481 -190 C516 -190 543 -185 595 -167 L609 -104 L602 -106 L585 -112 C545 -126 524 -131 498 -131 C467 -131 451 -120 451 -100 C451 -67 482 -37 557 0 L467 774 Z M423 568 L454 274 L267 274 L423 568 Z " />
<glyph glyph-name="aogonek" unicode="&#x105;" horiz-adv-x="602" d="M535 357 C539 379 542 402 542 420 C542 498 492 547 411 547 C365 547 335 540 249 511 L253 444 C339 476 356 480 395 480 C441 480 473 453 473 413 C473 400 470 380 465 357 L459 332 C408 351 379 358 349 358 C232 358 131 245 131 114 C131 34 178 -13 257 -13 C312 -13 353 6 405 55 C406 39 406 29 408 15 C345 -16 312 -59 312 -111 C312 -162 349 -190 417 -190 C451 -190 479 -184 530 -167 L544 -104 L537 -106 C532 -108 526 -110 520 -112 C481 -126 459 -131 434 -131 C402 -131 386 -121 386 -101 C386 -77 402 -55 433 -35 C442 -29 450 -24 483 -6 C479 18 478 29 478 45 C478 88 478 89 495 168 L535 357 Z M420 146 C362 81 319 54 271 54 C232 54 205 84 205 127 C205 156 214 191 229 218 C255 265 296 291 344 291 C375 291 405 284 445 267 L420 146 Z " />
<glyph glyph-name="Cacute" unicode="&#x106;" horiz-adv-x="602" d="M483 177 C481 172 480 170 479 166 C460 98 403 54 333 54 C257 54 219 101 219 194 C219 321 262 487 319 577 C354 632 410 666 467 666 C518 666 555 635 555 590 C555 584 554 578 552 562 L625 562 C627 585 628 592 628 600 C628 678 566 733 480 733 C406 733 331 696 284 637 C203 534 145 346 145 185 C145 54 203 -13 317 -13 C434 -13 520 56 554 177 L483 177 Z M669 926 L433 804 L457 754 L704 863 L669 926 Z " />
<glyph glyph-name="cacute" unicode="&#x107;" horiz-adv-x="602" d="M502 138 C433 76 390 54 338 54 C269 54 221 109 221 187 C221 260 247 346 285 401 C318 449 376 480 432 480 C474 480 506 462 526 427 C530 419 534 410 543 385 L616 427 C597 463 583 484 569 499 C539 530 495 547 445 547 C361 547 278 502 224 427 C178 362 146 259 146 171 C146 61 219 -13 327 -13 C395 -13 461 15 524 71 C536 82 539 85 542 87 L502 138 Z M588 756 L382 615 L409 566 L630 694 L588 756 Z " />
<glyph glyph-name="Ccaron" unicode="&#x10c;" horiz-adv-x="602" d="M483 177 C481 172 480 170 479 166 C460 98 403 54 333 54 C257 54 219 101 219 194 C219 321 262 487 319 577 C354 632 410 666 467 666 C518 666 555 635 555 590 C555 584 554 578 552 562 L625 562 C627 585 628 592 628 600 C628 678 566 733 480 733 C406 733 331 696 284 637 C203 534 145 346 145 185 C145 54 203 -13 317 -13 C434 -13 520 56 554 177 L483 177 Z M341 898 L489 743 L706 897 L674 937 L509 836 L393 937 L341 898 Z " />
<glyph glyph-name="ccaron" unicode="&#x10d;" horiz-adv-x="602" d="M502 138 C433 76 390 54 338 54 C269 54 221 109 221 187 C221 260 247 346 285 401 C318 449 376 480 432 480 C474 480 506 462 526 427 C530 419 534 410 543 385 L616 427 C597 463 583 484 569 499 C539 530 495 547 445 547 C361 547 278 502 224 427 C178 362 146 259 146 171 C146 61 219 -13 327 -13 C395 -13 461 15 524 71 C536 82 539 85 542 87 L502 138 Z M481 655 L362 757 L314 715 L461 563 L672 715 L642 757 L481 655 Z " />
<glyph glyph-name="Dcaron" unicode="&#x10e;" horiz-adv-x="602" d="M266 720 C263 706 263 705 262 697 C261 687 259 679 254 656 C245 611 237 565 228 517 L227 511 L163 209 C152 158 131 70 120 27 L116 14 L113 0 L277 0 C375 0 437 25 491 86 C563 168 625 374 625 532 C625 662 565 720 430 720 L266 720 Z M202 63 L328 657 L412 657 C511 657 552 619 552 528 C552 445 518 282 484 199 C445 102 387 63 285 63 L202 63 Z M296 898 L445 743 L662 897 L629 937 L465 836 L349 937 L296 898 Z " />
<glyph glyph-name="dcaron" unicode="&#x10f;" horiz-adv-x="602" d="M453 515 L447 519 C420 537 386 547 348 547 C191 547 59 377 59 176 C59 61 124 -13 225 -13 C277 -13 311 2 366 47 L368 49 C368 21 369 3 371 -14 L443 -6 C441 27 440 44 440 60 C440 110 448 162 475 289 L527 531 L546 613 C555 649 563 685 572 720 C573 725 574 727 575 733 L494 733 L492 720 L490 706 L457 531 L453 515 Z M374 141 C324 76 290 54 239 54 C175 54 133 107 133 187 C133 347 228 480 342 480 C382 480 409 467 436 435 L374 141 Z M637 604 C623 595 604 587 582 581 L570 524 C674 553 734 608 734 675 C734 710 711 733 677 733 C635 733 597 696 597 654 C597 628 610 613 641 607 L637 604 Z " />
<glyph glyph-name="Dcroat" unicode="&#x110;" horiz-adv-x="602" d="M192 341 L164 209 C151 155 137 94 121 27 L117 14 L114 0 L277 0 C374 0 437 25 491 86 C563 169 625 373 625 531 C625 662 565 720 430 720 L267 720 L265 706 L262 693 C241 581 230 520 228 510 L205 404 L101 404 L88 341 L192 341 Z M262 341 L426 341 L440 404 L276 404 L329 657 L412 657 C511 657 552 619 552 528 C552 444 518 282 484 198 C444 102 387 63 286 63 L203 63 L262 341 Z " />
<glyph glyph-name="dcroat" unicode="&#x111;" horiz-adv-x="602" d="M514 641 L361 641 L347 578 L503 578 L494 531 L490 515 L484 519 C457 537 423 547 385 547 C228 547 96 378 96 176 C96 61 161 -13 262 -13 C314 -13 348 2 403 47 L405 49 C405 21 406 3 408 -14 L480 -6 C478 27 477 44 477 60 C477 110 485 162 512 289 L564 531 L575 578 L696 578 L709 641 L590 641 L597 674 C601 687 604 700 607 713 L612 733 L531 733 L529 720 C528 713 525 698 520 674 L514 641 Z M411 141 C361 76 327 54 276 54 C212 54 170 107 170 187 C170 347 265 480 379 480 C419 480 446 467 473 435 L411 141 Z " />
<glyph glyph-name="Emacron" unicode="&#x112;" horiz-adv-x="602" d="M140 0 L521 0 L535 63 L229 63 L287 337 L504 337 L517 400 L300 400 L355 657 L654 657 L667 720 L293 720 C292 713 291 710 291 708 L288 693 L271 600 L254 510 L190 209 L168 119 L147 27 L142 7 L140 0 Z M656 797 L669 860 L358 860 L345 797 L656 797 Z " />
<glyph glyph-name="emacron" unicode="&#x113;" horiz-adv-x="602" d="M213 247 L571 247 C582 301 587 338 587 372 C587 478 524 547 428 547 C344 547 264 501 210 423 C164 355 135 262 135 178 C135 53 196 -13 312 -13 C353 -13 353 -13 481 24 C491 26 496 28 516 36 L525 40 L508 107 C430 69 380 54 327 54 C251 54 207 100 207 178 C207 203 210 236 213 246 L213 247 Z M226 310 L226 311 C253 409 330 480 410 480 C476 480 516 431 516 350 C516 343 516 338 515 333 C514 321 513 312 513 312 L513 310 L226 310 Z M604 605 L617 668 L306 668 L293 605 L604 605 Z " />
<glyph glyph-name="Edotaccent" unicode="&#x116;" horiz-adv-x="602" d="M140 0 L521 0 L535 63 L229 63 L287 337 L504 337 L517 400 L300 400 L355 657 L654 657 L667 720 L293 720 C292 713 291 710 291 708 L288 693 L271 600 L254 510 L190 209 L168 119 L147 27 L142 7 L140 0 Z M526 895 C481 895 442 856 442 813 C442 780 464 758 497 758 C540 758 579 797 579 840 C579 872 557 895 526 895 L526 895 Z " />
<glyph glyph-name="edotaccent" unicode="&#x117;" horiz-adv-x="602" d="M213 247 L571 247 C582 301 587 338 587 372 C587 478 524 547 428 547 C344 547 264 501 210 423 C164 355 135 262 135 178 C135 53 196 -13 312 -13 C353 -13 353 -13 481 24 C491 26 496 28 516 36 L525 40 L508 107 C430 69 380 54 327 54 C251 54 207 100 207 178 C207 203 210 236 213 246 L213 247 Z M226 310 L226 311 C253 409 330 480 410 480 C476 480 516 431 516 350 C516 343 516 338 515 333 C514 321 513 312 513 312 L513 310 L226 310 Z M474 714 C429 714 389 675 389 629 C389 596 411 574 445 574 C489 574 529 614 529 658 C529 691 507 714 474 714 L474 714 Z " />
<glyph glyph-name="Eogonek" unicode="&#x118;" horiz-adv-x="602" d="M521 0 L535 63 L229 63 L287 337 L504 337 L517 400 L300 400 L355 657 L654 657 L667 720 L293 720 C292 713 291 710 291 708 L288 693 L271 600 L254 510 L190 209 L168 119 L147 27 L142 7 L140 0 L341 0 C295 -30 272 -67 272 -111 C272 -162 309 -190 376 -190 C411 -190 439 -184 491 -167 L504 -104 C426 -131 426 -131 393 -131 C363 -131 346 -120 346 -101 C346 -73 365 -50 412 -24 C431 -12 443 -5 449 0 L521 0 Z " />
<glyph glyph-name="eogonek" unicode="&#x119;" horiz-adv-x="602" d="M485 -104 C406 -131 406 -131 375 -131 C343 -131 327 -121 327 -101 C327 -74 346 -51 386 -27 C433 1 472 19 525 40 L508 107 C425 67 380 54 327 54 C251 54 207 100 207 178 C207 203 210 236 213 246 L213 247 L571 247 C582 301 587 338 587 372 C587 478 524 547 428 547 C344 547 264 501 210 423 C164 355 135 262 135 178 C135 119 152 66 181 34 C207 4 247 -11 303 -13 C269 -42 253 -73 253 -111 C253 -162 290 -190 358 -190 C392 -190 420 -184 471 -167 L485 -104 Z M226 310 L226 311 C253 409 330 480 410 480 C476 480 516 431 516 350 C516 343 516 338 515 333 C514 321 513 312 513 312 L513 310 L226 310 Z " />
<glyph glyph-name="Ecaron" unicode="&#x11a;" horiz-adv-x="602" d="M140 0 L521 0 L535 63 L229 63 L287 337 L504 337 L517 400 L300 400 L355 657 L654 657 L667 720 L293 720 C292 713 291 710 291 708 L288 693 L271 600 L254 510 L190 209 L168 119 L147 27 L142 7 L140 0 Z M338 898 L487 743 L704 897 L671 937 L507 836 L391 937 L338 898 Z " />
<glyph glyph-name="ecaron" unicode="&#x11b;" horiz-adv-x="602" d="M213 247 L571 247 C582 301 587 338 587 372 C587 478 524 547 428 547 C344 547 264 501 210 423 C164 355 135 262 135 178 C135 53 196 -13 312 -13 C353 -13 353 -13 481 24 C491 26 496 28 516 36 L525 40 L508 107 C430 69 380 54 327 54 C251 54 207 100 207 178 C207 203 210 236 213 246 L213 247 Z M226 310 L226 311 C253 409 330 480 410 480 C476 480 516 431 516 350 C516 343 516 338 515 333 C514 321 513 312 513 312 L513 310 L226 310 Z M457 655 L339 757 L290 715 L437 563 L648 715 L618 757 L457 655 Z " />
<glyph glyph-name="Gbreve" unicode="&#x11e;" horiz-adv-x="602" d="M529 296 C517 243 513 225 505 203 C472 109 406 54 330 54 C258 54 221 100 221 191 C221 308 270 497 321 577 C356 633 409 666 463 666 C511 666 543 634 543 585 C543 573 541 561 536 534 L613 534 C617 564 618 579 618 591 C618 675 559 733 475 733 C383 733 302 680 246 582 C194 491 144 291 144 175 C144 55 204 -13 310 -13 C371 -13 425 9 472 53 L479 60 L466 0 L536 0 L613 359 L372 359 L358 296 L529 296 Z M341 895 C339 883 338 873 338 867 C338 796 400 752 499 752 C609 752 681 801 706 895 L639 895 C618 840 580 819 504 819 C436 819 408 841 408 895 L341 895 Z " />
<glyph glyph-name="gbreve" unicode="&#x11f;" horiz-adv-x="602" d="M558 535 C550 521 545 510 540 499 L535 502 C503 531 461 547 416 547 C314 547 237 493 186 384 C160 330 146 272 146 217 C146 111 202 45 293 45 C342 45 390 59 435 88 L443 93 L436 62 C414 -40 357 -96 276 -96 C233 -96 187 -73 170 -44 C169 -41 169 -40 167 -39 L164 -34 L102 -80 C150 -141 192 -163 260 -163 C378 -163 477 -75 505 55 L577 392 C584 426 600 473 627 535 L558 535 Z M462 180 C412 133 367 112 316 112 C257 112 221 158 221 231 C221 283 236 342 262 388 C296 448 343 480 399 480 C448 480 481 462 512 417 L462 180 Z M302 712 C301 700 300 690 300 684 C300 613 362 569 461 569 C571 569 642 618 668 712 L600 712 C580 657 542 636 465 636 C397 636 369 658 369 712 L302 712 Z " />
<glyph glyph-name="Gcommaaccent" unicode="&#x122;" horiz-adv-x="602" d="M529 296 C517 243 513 225 505 203 C472 109 406 54 330 54 C258 54 221 100 221 191 C221 308 270 497 321 577 C356 633 409 666 463 666 C511 666 543 634 543 585 C543 573 541 561 536 534 L613 534 C617 564 618 579 618 591 C618 675 559 733 475 733 C383 733 302 680 246 582 C194 491 144 291 144 175 C144 55 204 -13 310 -13 C371 -13 425 9 472 53 L479 60 L466 0 L536 0 L613 359 L372 359 L358 296 L529 296 Z M267 -190 C252 -200 232 -208 209 -214 L196 -275 C307 -244 370 -186 370 -115 C370 -78 346 -54 309 -54 C264 -54 224 -93 224 -137 C224 -165 238 -180 271 -187 L267 -190 Z " />
<glyph glyph-name="gcommaaccent" unicode="&#x123;" horiz-adv-x="602" d="M558 535 C550 521 545 510 540 499 L535 502 C503 531 461 547 416 547 C314 547 237 493 186 384 C160 330 146 272 146 217 C146 111 202 45 293 45 C342 45 390 59 435 88 L443 93 L436 62 C414 -40 357 -96 276 -96 C233 -96 187 -73 170 -44 C169 -41 169 -40 167 -39 L164 -34 L102 -80 C150 -141 192 -163 260 -163 C378 -163 477 -75 505 55 L577 392 C584 426 600 473 627 535 L558 535 Z M462 180 C412 133 367 112 316 112 C257 112 221 158 221 231 C221 283 236 342 262 388 C296 448 343 480 399 480 C448 480 481 462 512 417 L462 180 Z M503 709 C517 719 536 727 558 732 L570 790 C466 761 406 706 406 639 C406 604 429 581 463 581 C505 581 543 618 543 660 C543 686 530 700 499 706 L503 709 Z " />
<glyph glyph-name="Imacron" unicode="&#x12a;" horiz-adv-x="602" d="M403 657 C397 622 394 606 391 591 C386 562 381 535 375 511 L312 209 C310 201 301 164 277 63 L179 63 L166 0 L436 0 L449 63 L354 63 C363 112 372 161 381 209 L445 511 C458 566 470 615 480 657 L576 657 L589 720 L319 720 L306 657 L403 657 Z M626 797 L639 860 L328 860 L315 797 L626 797 Z " />
<glyph glyph-name="imacron" unicode="&#x12b;" horiz-adv-x="602" d="M373 471 C370 455 367 436 363 419 C360 397 347 327 346 325 L322 210 L301 120 C279 27 274 8 272 0 L352 0 L356 18 C362 52 369 87 375 120 L392 210 L416 325 C431 387 448 460 459 507 L463 520 L466 534 L238 534 L225 471 L373 471 Z M567 605 L581 668 L270 668 L257 605 L567 605 Z " />
<glyph glyph-name="Iogonek" unicode="&#x12e;" horiz-adv-x="602" d="M436 0 L449 63 L354 63 C363 112 372 161 381 209 L445 511 C458 566 470 615 480 657 L576 657 L589 720 L319 720 L306 657 L403 657 C397 622 394 606 391 591 C386 562 381 535 375 511 L312 209 C310 201 301 164 277 63 L179 63 L166 0 L257 0 C212 -30 189 -67 189 -111 C189 -162 226 -190 293 -190 C328 -190 356 -185 407 -167 L421 -104 L414 -106 L397 -112 C358 -126 336 -131 310 -131 C279 -131 263 -120 263 -101 C263 -73 283 -50 329 -24 C348 -12 359 -5 366 0 L436 0 Z " />
<glyph glyph-name="iogonek" unicode="&#x12f;" horiz-adv-x="602" d="M352 0 L358 33 C363 57 369 88 375 120 L391 210 L416 325 C430 387 447 457 459 507 L463 520 L466 534 L238 534 L225 471 L373 471 C370 455 366 436 363 419 C359 397 346 327 346 325 L321 210 L300 120 C294 94 288 68 282 41 L279 30 L277 19 C205 -16 173 -56 173 -111 C173 -162 210 -190 278 -190 C312 -190 340 -184 391 -167 L405 -104 C338 -128 324 -131 295 -131 C263 -131 247 -121 247 -101 C247 -72 265 -52 313 -24 L352 0 Z M468 736 C427 736 390 699 390 658 C390 628 411 607 441 607 C482 607 519 644 519 685 C519 714 498 736 468 736 L468 736 Z " />
<glyph glyph-name="Idotaccent" unicode="&#x130;" horiz-adv-x="602" d="M403 657 C397 622 394 606 391 591 C386 562 381 535 375 511 L312 209 C310 201 301 164 277 63 L179 63 L166 0 L436 0 L449 63 L354 63 C363 112 372 161 381 209 L445 511 C458 566 470 615 480 657 L576 657 L589 720 L319 720 L306 657 L403 657 Z M496 895 C451 895 412 856 412 813 C412 780 434 758 467 758 C510 758 549 797 549 840 C549 872 527 895 496 895 L496 895 Z " />
<glyph glyph-name="dotlessi" unicode="&#x131;" horiz-adv-x="602" d="M373 471 C370 455 367 436 363 419 C360 397 347 327 346 325 L322 210 L301 120 C279 27 274 8 272 0 L352 0 L356 18 C362 52 369 87 375 120 L392 210 L416 325 C431 387 448 460 459 507 L463 520 L466 534 L238 534 L225 471 L373 471 Z " />
<glyph glyph-name="Kcommaaccent" unicode="&#x136;" horiz-adv-x="602" d="M277 338 L285 338 L487 0 L586 0 L357 362 C430 400 516 489 667 685 L671 690 L606 728 C551 634 538 616 500 570 C417 473 341 410 300 404 L291 403 L314 510 C324 558 340 624 357 693 L360 706 L364 720 L283 720 L281 706 L278 693 L261 600 L244 510 L180 210 C168 154 157 108 137 27 L133 14 L130 0 L211 0 L213 14 L215 27 L233 119 C238 148 244 178 250 210 L277 338 Z M278 -190 C264 -200 244 -208 220 -214 L207 -275 C246 -264 267 -256 291 -242 C349 -209 381 -163 381 -115 C381 -78 357 -54 321 -54 C276 -54 236 -93 236 -137 C236 -165 250 -180 283 -187 L278 -190 Z " />
<glyph glyph-name="kcommaaccent" unicode="&#x137;" horiz-adv-x="602" d="M141 0 L222 0 L224 14 C250 152 254 174 261 210 L262 211 L307 247 L461 0 L559 0 L362 290 C446 357 528 433 626 534 L532 534 C471 462 389 386 280 300 L328 523 C340 577 355 638 370 705 L374 719 L377 733 L297 733 C295 721 294 716 289 691 C284 664 279 638 274 613 L258 523 L191 210 C189 203 184 178 170 120 L148 27 L144 14 L141 0 Z M299 -182 C286 -192 267 -200 245 -205 L232 -263 C337 -234 397 -179 397 -112 C397 -77 374 -54 340 -54 C297 -54 259 -91 259 -133 C259 -159 272 -173 304 -179 L299 -182 Z " />
<glyph glyph-name="Lacute" unicode="&#x139;" horiz-adv-x="602" d="M156 0 L543 0 L556 63 L249 63 C257 108 266 156 276 208 L340 510 C362 605 378 675 389 720 L309 720 L307 706 L304 693 C293 633 281 569 270 510 L206 208 C203 197 199 177 192 151 L182 109 L162 27 L156 0 Z M564 926 L329 804 L352 754 L600 863 L564 926 Z " />
<glyph glyph-name="lacute" unicode="&#x13a;" horiz-adv-x="602" d="M409 670 C393 584 384 535 382 524 L315 210 L294 120 C283 71 273 31 266 0 L346 0 L348 14 L351 27 C375 156 378 172 385 210 L452 524 C466 584 483 653 502 733 L274 733 L261 670 L409 670 Z M670 926 L434 804 L458 754 L705 863 L670 926 Z " />
<glyph glyph-name="Lcommaaccent" unicode="&#x13b;" horiz-adv-x="602" d="M156 0 L543 0 L556 63 L249 63 C257 108 266 156 276 208 L340 510 C362 605 378 675 389 720 L309 720 L307 706 L304 693 C293 633 281 569 270 510 L206 208 C203 197 199 177 192 151 L182 109 L162 27 L156 0 Z M283 -190 C269 -200 249 -208 225 -214 L212 -275 C251 -264 272 -256 296 -242 C354 -209 386 -163 386 -115 C386 -78 362 -54 326 -54 C281 -54 241 -93 241 -137 C241 -165 255 -180 288 -187 L283 -190 Z " />
<glyph glyph-name="lcommaaccent" unicode="&#x13c;" horiz-adv-x="602" d="M409 670 C393 584 384 535 382 524 L315 210 L294 120 C283 73 274 32 266 0 L346 0 L348 14 L351 27 C374 156 377 172 385 210 L452 524 L502 733 L274 733 L261 670 L409 670 Z M261 -182 C247 -192 229 -200 206 -205 L194 -263 C298 -234 358 -179 358 -112 C358 -77 335 -54 301 -54 C259 -54 221 -91 221 -133 C221 -159 234 -173 265 -179 L261 -182 Z " />
<glyph glyph-name="Lcaron" unicode="&#x13d;" horiz-adv-x="602" d="M156 0 L543 0 L556 63 L249 63 C257 108 266 156 276 208 L340 510 C362 605 378 675 389 720 L309 720 L307 706 L304 693 C293 633 281 569 270 510 L206 208 C203 197 199 177 192 151 L182 109 L162 27 L156 0 Z M478 584 C463 573 443 565 420 559 L407 499 C518 529 581 587 581 658 C581 695 557 719 520 719 C475 719 435 680 435 636 C435 608 449 593 482 587 L478 584 Z " />
<glyph glyph-name="lcaron" unicode="&#x13e;" horiz-adv-x="602" d="M409 670 C393 584 384 535 382 524 L315 210 L294 120 C283 71 273 31 266 0 L346 0 L348 14 L351 27 C375 156 378 172 385 210 L452 524 C466 584 483 653 502 733 L274 733 L261 670 L409 670 Z M564 604 C551 595 532 587 510 581 L497 524 C602 553 662 608 662 675 C662 710 639 733 605 733 C562 733 524 696 524 654 C524 627 537 613 568 607 L564 604 Z " />
<glyph glyph-name="Lslash" unicode="&#x141;" horiz-adv-x="602" d="M192 208 C172 126 155 56 142 0 L529 0 L542 63 L235 63 C244 111 253 160 261 208 L295 366 L400 405 C427 415 469 429 494 437 L511 517 L491 508 L387 461 C381 459 375 456 368 453 L309 432 L326 510 C336 555 355 633 368 693 C372 708 374 713 375 720 L295 720 L293 706 L290 693 L256 510 L233 404 L204 393 C174 383 138 370 109 361 L92 281 L113 290 C143 305 203 332 219 339 L192 208 Z " />
<glyph glyph-name="lslash" unicode="&#x142;" horiz-adv-x="602" d="M365 446 L207 381 L191 307 L350 372 L315 210 L294 120 C286 85 277 49 269 13 L266 0 L346 0 L348 14 L351 27 L385 210 L426 403 L579 466 L595 541 L442 478 L452 524 C474 615 490 685 502 733 L274 733 L261 670 L409 670 C403 638 401 627 400 618 L396 597 C393 582 390 568 388 555 L382 524 L365 446 Z " />
<glyph glyph-name="Nacute" unicode="&#x143;" horiz-adv-x="602" d="M573 720 L570 706 L568 693 C562 662 556 631 550 601 C546 575 540 545 533 510 L463 179 L358 720 L275 720 L166 210 C163 198 149 137 123 27 L119 14 L116 0 L197 0 L199 14 L201 27 C219 122 228 172 236 210 L314 578 L428 -7 L493 -7 L603 510 C605 520 607 529 609 538 C615 558 620 579 624 600 L646 693 L650 706 L653 720 L573 720 Z M653 926 L418 804 L442 754 L689 863 L653 926 Z " />
<glyph glyph-name="nacute" unicode="&#x144;" horiz-adv-x="602" d="M271 443 C274 465 277 500 277 509 L277 513 L277 534 L208 534 C208 453 204 419 179 291 L171 250 L162 209 C161 203 146 143 119 27 L115 14 L112 0 L193 0 C195 12 202 52 215 120 L232 209 L243 263 C256 328 288 383 339 428 C378 462 415 480 446 480 C476 480 499 454 499 423 C499 412 489 333 486 317 L463 209 C448 149 434 88 420 27 L416 14 L413 0 L493 0 C496 11 497 17 501 38 C506 65 511 92 516 120 L533 209 L560 340 C569 380 573 412 573 435 C573 500 527 547 465 547 C412 547 340 513 295 467 L271 443 Z M582 756 L376 615 L403 566 L624 694 L582 756 Z " />
<glyph glyph-name="Ncommaaccent" unicode="&#x145;" horiz-adv-x="602" d="M573 720 L570 706 L568 693 C562 662 556 631 550 601 C546 575 540 545 533 510 L463 179 L358 720 L275 720 L166 210 C163 198 149 137 123 27 L119 14 L116 0 L197 0 L199 14 L201 27 C219 122 228 172 236 210 L314 578 L428 -7 L493 -7 L603 510 C605 520 607 529 609 538 C615 558 620 579 624 600 L646 693 L650 706 L653 720 L573 720 Z M272 -190 C258 -200 238 -208 214 -214 L201 -275 C239 -264 261 -256 285 -242 C343 -209 375 -163 375 -115 C375 -78 351 -54 315 -54 C270 -54 230 -93 230 -137 C230 -165 244 -180 276 -187 L272 -190 Z " />
<glyph glyph-name="ncommaaccent" unicode="&#x146;" horiz-adv-x="602" d="M271 443 C274 465 277 500 277 509 L277 513 L277 534 L208 534 C208 453 204 419 179 291 L171 250 L162 209 C161 203 146 143 119 27 L115 14 L112 0 L193 0 C195 12 202 52 215 120 L232 209 L243 263 C256 328 288 383 339 428 C378 462 415 480 446 480 C476 480 499 454 499 423 C499 412 489 333 486 317 L463 209 C448 149 434 88 420 27 L416 14 L413 0 L493 0 C496 11 497 17 501 38 C506 65 511 92 516 120 L533 209 L560 340 C569 380 573 412 573 435 C573 500 527 547 465 547 C412 547 340 513 295 467 L271 443 Z M251 -182 C237 -192 218 -200 196 -205 L184 -263 C288 -234 348 -179 348 -112 C348 -77 325 -54 291 -54 C249 -54 211 -91 211 -133 C211 -159 224 -173 255 -179 L251 -182 Z " />
<glyph glyph-name="Ncaron" unicode="&#x147;" horiz-adv-x="602" d="M573 720 L570 706 L568 693 C562 662 556 631 550 601 C546 575 540 545 533 510 L463 179 L358 720 L275 720 L166 210 C163 198 149 137 123 27 L119 14 L116 0 L197 0 L199 14 L201 27 C219 122 228 172 236 210 L314 578 L428 -7 L493 -7 L603 510 C605 520 607 529 609 538 C615 558 620 579 624 600 L646 693 L650 706 L653 720 L573 720 Z M321 898 L470 743 L687 897 L654 937 L490 836 L374 937 L321 898 Z " />
<glyph glyph-name="ncaron" unicode="&#x148;" horiz-adv-x="602" d="M271 443 C274 465 277 500 277 509 L277 513 L277 534 L208 534 C208 453 204 419 179 291 L171 250 L162 209 C161 203 146 143 119 27 L115 14 L112 0 L193 0 C195 12 202 52 215 120 L232 209 L243 263 C256 328 288 383 339 428 C378 462 415 480 446 480 C476 480 499 454 499 423 C499 412 489 333 486 317 L463 209 C448 149 434 88 420 27 L416 14 L413 0 L493 0 C496 11 497 17 501 38 C506 65 511 92 516 120 L533 209 L560 340 C569 380 573 412 573 435 C573 500 527 547 465 547 C412 547 340 513 295 467 L271 443 Z M452 655 L333 757 L285 715 L431 563 L643 715 L613 757 L452 655 Z " />
<glyph glyph-name="Omacron" unicode="&#x14c;" horiz-adv-x="602" d="M459 733 C366 733 285 680 232 586 C182 497 133 289 133 167 C133 57 197 -13 297 -13 C388 -13 470 40 523 134 C572 221 622 431 622 554 C622 662 558 733 459 733 L459 733 Z M440 666 C509 666 547 617 547 528 C547 465 521 325 491 234 C454 119 389 54 312 54 C246 54 208 105 208 191 C208 265 241 429 273 512 C310 609 371 666 440 666 L440 666 Z M632 797 L645 860 L334 860 L321 797 L632 797 Z " />
<glyph glyph-name="omacron" unicode="&#x14d;" horiz-adv-x="602" d="M427 547 C345 547 265 501 216 426 C171 355 142 251 142 162 C142 57 207 -13 304 -13 C385 -13 465 34 513 108 C559 179 588 283 588 372 C588 476 523 547 427 547 L427 547 Z M408 480 C476 480 514 437 514 361 C514 311 501 245 482 193 C448 102 392 54 319 54 C254 54 216 98 216 173 C216 228 231 302 254 356 C288 437 341 480 408 480 L408 480 Z M602 605 L615 668 L304 668 L291 605 L602 605 Z " />
<glyph glyph-name="Ohungarumlaut" unicode="&#x150;" horiz-adv-x="602" d="M459 733 C366 733 285 680 232 586 C182 497 133 289 133 167 C133 57 197 -13 297 -13 C388 -13 470 40 523 134 C572 221 622 431 622 554 C622 662 558 733 459 733 L459 733 Z M440 666 C509 666 547 617 547 528 C547 465 521 325 491 234 C454 119 389 54 312 54 C246 54 208 105 208 191 C208 265 241 429 273 512 C310 609 371 666 440 666 L440 666 Z M782 926 L546 804 L570 754 L817 863 L782 926 Z M568 926 L333 804 L357 754 L604 863 L568 926 Z " />
<glyph glyph-name="ohungarumlaut" unicode="&#x151;" horiz-adv-x="602" d="M427 547 C345 547 265 501 216 426 C171 355 142 251 142 162 C142 57 207 -13 304 -13 C385 -13 465 34 513 108 C559 179 588 283 588 372 C588 476 523 547 427 547 L427 547 Z M408 480 C476 480 514 437 514 361 C514 311 501 245 482 193 C448 102 392 54 319 54 C254 54 216 98 216 173 C216 228 231 302 254 356 C288 437 341 480 408 480 L408 480 Z M695 748 L489 608 L516 559 L737 687 L695 748 Z M509 756 L302 614 L330 566 L550 694 L509 756 Z " />
<glyph glyph-name="OE" unicode="&#x152;" horiz-adv-x="602" d="M745 720 L481 720 C449 730 429 733 405 733 C315 733 232 678 179 583 C131 495 82 286 82 166 C82 50 139 -13 244 -13 C271 -13 293 -10 328 0 L600 0 L613 63 L396 63 L455 340 L599 340 L613 403 L469 403 L522 657 L731 657 L745 720 Z M327 64 C299 57 282 54 262 54 C193 54 157 98 157 182 C157 254 182 390 214 487 C251 600 316 666 391 666 C408 666 421 663 452 655 L327 64 Z " />
<glyph glyph-name="oe" unicode="&#x153;" horiz-adv-x="602" d="M304 21 L308 17 C330 -4 352 -13 385 -13 C430 -13 486 3 550 36 L569 45 C573 47 574 47 577 49 L563 110 L549 104 C516 87 503 81 497 78 C464 63 430 54 404 54 C376 54 358 69 358 94 C358 103 359 107 362 125 L388 248 L608 248 C622 313 629 360 629 397 C629 491 584 547 510 547 C476 547 472 546 419 519 L417 518 L416 519 C391 539 368 547 340 547 C290 547 226 511 183 459 C125 389 86 265 86 155 C86 92 106 46 148 13 C171 -4 194 -13 219 -13 C245 -13 268 -4 299 18 L304 21 Z M283 80 C261 61 247 54 232 54 C193 54 160 105 160 165 C160 251 190 358 231 418 C258 456 296 480 331 480 C345 480 358 476 364 469 L365 468 L283 80 Z M402 311 L423 412 C433 458 455 480 491 480 C535 480 560 441 560 373 C560 349 558 323 554 312 L554 311 L402 311 Z " />
<glyph glyph-name="Racute" unicode="&#x154;" horiz-adv-x="602" d="M271 298 L327 298 C344 298 368 299 383 300 L492 0 L581 0 L456 315 L465 318 C557 352 630 463 630 570 C630 673 575 720 453 720 L285 720 C281 700 268 630 246 509 L182 210 C167 149 153 88 139 27 L135 14 L132 0 L213 0 L215 14 L217 27 C226 72 238 133 252 210 L271 298 Z M284 361 L347 657 L404 657 C521 657 556 635 556 562 C556 521 542 475 519 440 C484 387 434 361 366 361 L284 361 Z M625 926 L390 804 L414 754 L661 863 L625 926 Z " />
<glyph glyph-name="racute" unicode="&#x155;" horiz-adv-x="602" d="M239 0 L241 14 L243 27 C254 84 266 145 278 210 L283 233 C307 348 420 480 493 480 C517 480 530 464 530 435 C530 422 528 405 523 368 L594 368 C601 407 603 427 603 448 C603 510 569 547 511 547 C453 547 384 506 329 439 L318 425 C321 461 323 482 323 495 L323 500 L323 524 L323 534 L252 534 L252 518 L252 507 C252 447 240 362 217 251 L208 210 C203 188 198 166 193 146 C186 119 179 90 173 61 C171 49 168 38 165 27 C163 20 160 8 158 0 L239 0 Z M582 756 L375 615 L403 566 L624 694 L582 756 Z " />
<glyph glyph-name="Rcommaaccent" unicode="&#x156;" horiz-adv-x="602" d="M271 298 L327 298 C344 298 368 299 383 300 L492 0 L581 0 L456 315 L465 318 C557 352 630 463 630 570 C630 673 575 720 453 720 L285 720 C281 700 268 630 246 509 L182 210 C167 149 153 88 139 27 L135 14 L132 0 L213 0 L215 14 L217 27 C226 72 238 133 252 210 L271 298 Z M284 361 L347 657 L404 657 C521 657 556 635 556 562 C556 521 542 475 519 440 C484 387 434 361 366 361 L284 361 Z M291 -190 C277 -200 257 -208 233 -214 L220 -275 C258 -264 280 -256 304 -242 C362 -209 394 -163 394 -115 C394 -78 370 -54 334 -54 C289 -54 249 -93 249 -137 C249 -165 263 -180 296 -187 L291 -190 Z " />
<glyph glyph-name="rcommaaccent" unicode="&#x157;" horiz-adv-x="602" d="M239 0 L242 14 L244 27 C256 88 267 148 279 210 L284 233 C307 348 420 480 493 480 C517 480 530 464 530 435 C530 422 528 406 524 368 L595 368 C601 407 603 427 603 448 C603 510 569 547 511 547 C453 547 385 506 329 439 L318 425 C323 464 324 481 324 495 L324 500 C323 512 323 521 323 524 L323 534 L253 534 L253 518 L253 507 C253 447 241 362 217 251 L208 210 C203 188 198 166 194 146 C187 119 180 90 173 61 C171 49 168 38 165 27 C163 20 160 8 159 0 L239 0 Z M173 -182 C159 -192 141 -200 118 -205 L106 -263 C210 -234 270 -179 270 -112 C270 -77 247 -54 213 -54 C171 -54 133 -91 133 -133 C133 -159 146 -173 177 -179 L173 -182 Z " />
<glyph glyph-name="Rcaron" unicode="&#x158;" horiz-adv-x="602" d="M271 298 L327 298 C344 298 368 299 383 300 L492 0 L581 0 L456 315 L465 318 C557 352 630 463 630 570 C630 673 575 720 453 720 L285 720 C281 700 268 630 246 509 L182 210 C167 149 153 88 139 27 L135 14 L132 0 L213 0 L215 14 L217 27 C226 72 238 133 252 210 L271 298 Z M284 361 L347 657 L404 657 C521 657 556 635 556 562 C556 521 542 475 519 440 C484 387 434 361 366 361 L284 361 Z M312 898 L461 743 L677 897 L645 937 L481 836 L365 937 L312 898 Z " />
<glyph glyph-name="rcaron" unicode="&#x159;" horiz-adv-x="602" d="M239 0 L241 14 L243 27 C254 84 266 145 278 210 L283 233 C307 348 420 480 493 480 C517 480 530 464 530 435 C530 422 528 405 523 368 L594 368 C601 407 603 427 603 448 C603 510 569 547 511 547 C453 547 384 506 329 439 L318 425 C321 461 323 482 323 495 L323 500 L323 524 L323 534 L252 534 L252 518 L252 507 C252 447 240 362 217 251 L208 210 C203 188 198 166 193 146 C186 119 179 90 173 61 C171 49 168 38 165 27 C163 20 160 8 158 0 L239 0 Z M463 655 L345 757 L296 715 L443 563 L654 715 L624 757 L463 655 Z " />
<glyph glyph-name="Sacute" unicode="&#x15a;" horiz-adv-x="602" d="M640 643 C586 706 530 733 455 733 C333 733 228 636 228 521 C228 466 256 421 316 381 L391 330 C466 279 485 256 485 219 C485 130 406 54 314 54 C250 54 208 83 173 153 L107 108 C119 87 124 80 131 70 C171 15 229 -13 303 -13 C385 -13 457 21 504 81 C538 125 560 187 560 238 C560 291 528 332 442 389 L373 436 C354 448 331 469 318 486 C307 499 303 513 303 534 C303 606 368 666 445 666 C482 666 518 651 551 623 C558 617 564 611 586 591 L640 643 Z M648 926 L413 804 L437 754 L684 863 L648 926 Z " />
<glyph glyph-name="sacute" unicode="&#x15b;" horiz-adv-x="602" d="M568 484 C566 486 558 492 546 501 C507 531 460 547 409 547 C346 547 293 523 252 476 C225 445 211 412 211 379 C211 325 246 283 316 254 L366 234 C414 214 435 190 435 154 C435 98 386 54 323 54 C264 54 213 81 164 139 L111 80 C178 14 236 -13 309 -13 C417 -13 509 70 509 167 C509 228 476 266 395 299 L354 316 C311 334 285 361 285 389 C285 436 338 480 394 480 C438 480 464 469 522 424 L568 484 Z M579 756 L373 615 L400 566 L621 694 L579 756 Z " />
<glyph glyph-name="Scedilla" unicode="&#x15e;" horiz-adv-x="602" d="M326 -12 C385 -8 439 15 479 53 C527 99 560 174 560 238 C560 291 528 332 442 389 L373 436 C324 468 303 498 303 534 C303 606 368 666 445 666 C482 666 519 651 551 623 C557 618 558 617 586 591 L640 643 C586 706 530 733 455 733 C333 733 228 636 228 521 C228 466 256 421 316 381 L391 330 C465 280 485 256 485 219 C485 130 406 54 314 54 C250 54 208 83 173 153 L107 108 C148 35 192 2 264 -10 L219 -88 C233 -87 281 -84 284 -84 C303 -84 316 -91 316 -100 C316 -112 296 -122 274 -122 C256 -122 235 -117 199 -104 L165 -159 C214 -181 242 -189 272 -189 C335 -189 390 -143 390 -89 C390 -56 364 -32 324 -28 L317 -28 L326 -12 Z " />
<glyph glyph-name="scedilla" unicode="&#x15f;" horiz-adv-x="602" d="M332 -12 C429 -3 509 79 509 167 C509 228 476 266 395 299 L354 316 C311 334 285 361 285 389 C285 436 338 480 394 480 C438 480 464 469 522 424 L568 484 C566 486 558 492 546 501 C507 531 460 547 409 547 C346 547 293 523 252 476 C225 445 211 412 211 379 C211 325 246 283 316 254 L366 234 C414 214 435 190 435 154 C435 98 386 54 323 54 C264 54 213 81 164 139 L111 80 C163 27 209 1 270 -10 L225 -88 C240 -87 287 -84 289 -84 C308 -84 321 -91 321 -100 C321 -112 301 -122 280 -122 C261 -122 241 -117 205 -104 L171 -159 C220 -181 248 -189 277 -189 C340 -189 395 -143 395 -89 C395 -56 369 -32 330 -28 L323 -28 L332 -12 Z " />
<glyph glyph-name="Scaron" unicode="&#x160;" horiz-adv-x="602" d="M640 643 C586 706 530 733 455 733 C333 733 228 636 228 521 C228 466 256 421 316 381 L391 330 C466 279 485 256 485 219 C485 130 406 54 314 54 C250 54 208 83 173 153 L107 108 C119 87 124 80 131 70 C171 15 229 -13 303 -13 C385 -13 457 21 504 81 C538 125 560 187 560 238 C560 291 528 332 442 389 L373 436 C354 448 331 469 318 486 C307 499 303 513 303 534 C303 606 368 666 445 666 C482 666 518 651 551 623 C558 617 564 611 586 591 L640 643 Z M324 898 L472 743 L689 897 L657 937 L492 836 L376 937 L324 898 Z " />
<glyph glyph-name="scaron" unicode="&#x161;" horiz-adv-x="602" d="M568 484 C566 486 558 492 546 501 C507 531 460 547 409 547 C346 547 293 523 252 476 C225 445 211 412 211 379 C211 325 246 283 316 254 L366 234 C414 214 435 190 435 154 C435 98 386 54 323 54 C264 54 213 81 164 139 L111 80 C178 14 236 -13 309 -13 C417 -13 509 70 509 167 C509 228 476 266 395 299 L354 316 C311 334 285 361 285 389 C285 436 338 480 394 480 C438 480 464 469 522 424 L568 484 Z M455 672 L337 774 L289 731 L435 579 L647 731 L617 774 L455 672 Z " />
<glyph glyph-name="Tcommaaccent" unicode="&#x162;" horiz-adv-x="602" d="M343 0 L346 14 L348 27 C365 123 369 143 383 210 L477 657 L682 657 L696 720 L215 720 L202 657 L408 657 L312 210 C298 150 284 87 269 27 L266 14 L263 0 L343 0 Z M256 -190 C242 -200 222 -208 198 -214 L185 -275 C223 -264 245 -256 269 -242 C327 -209 359 -163 359 -115 C359 -78 335 -54 299 -54 C254 -54 214 -93 214 -137 C214 -165 228 -180 260 -187 L256 -190 Z " />
<glyph glyph-name="tcommaaccent" unicode="&#x163;" horiz-adv-x="602" d="M314 534 L195 534 L182 471 L301 471 L239 179 C229 133 225 106 225 87 C225 25 266 -13 334 -13 C401 -13 463 18 514 77 C525 90 534 100 554 127 L488 144 C440 79 403 54 353 54 C318 54 298 72 298 104 C298 122 301 144 308 179 L370 471 L564 471 L577 534 L384 534 C387 551 391 566 395 578 C400 600 409 636 421 686 L425 700 L344 700 L342 686 L339 673 L314 534 Z M261 -182 C247 -192 229 -200 206 -205 L194 -263 C298 -234 358 -179 358 -112 C358 -77 335 -54 301 -54 C259 -54 221 -91 221 -133 C221 -159 234 -173 265 -179 L261 -182 Z " />
<glyph glyph-name="Tcaron" unicode="&#x164;" horiz-adv-x="602" d="M343 0 L345 14 L347 27 C364 123 368 143 382 210 L477 657 L681 657 L695 720 L214 720 L201 657 L407 657 L312 210 L269 27 L265 14 L262 0 L343 0 Z M311 898 L459 743 L676 897 L644 937 L479 836 L363 937 L311 898 Z " />
<glyph glyph-name="tcaron" unicode="&#x165;" horiz-adv-x="602" d="M314 534 L195 534 L182 471 L301 471 L239 179 C229 133 225 106 225 87 C225 25 266 -13 334 -13 C401 -13 463 18 514 77 C525 90 534 100 554 127 L488 144 C440 79 403 54 353 54 C318 54 298 72 298 104 C298 122 301 144 308 179 L370 471 L564 471 L577 534 L384 534 C387 551 391 566 395 578 C400 600 409 636 421 686 L425 700 L344 700 L342 686 L339 673 L314 534 Z M526 673 C512 663 493 655 471 650 L459 593 C563 622 623 676 623 743 C623 778 600 801 566 801 C524 801 486 764 486 722 C486 696 499 682 530 676 L526 673 Z " />
<glyph glyph-name="Umacron" unicode="&#x16a;" horiz-adv-x="602" d="M251 720 C250 716 250 715 249 707 L246 693 C236 637 221 558 212 511 L155 245 C146 200 141 166 141 142 C141 53 206 -13 294 -13 C365 -13 442 28 488 91 C517 131 530 163 547 245 L603 511 L624 598 L646 693 L650 706 L653 720 L572 720 L570 706 L567 693 C553 616 538 535 533 511 L476 245 C462 175 456 156 439 130 C410 83 361 54 311 54 C254 54 214 95 214 153 C214 178 218 213 225 245 L282 510 C285 529 290 548 295 566 C302 595 309 625 316 656 C321 678 323 687 326 696 L329 710 C330 714 331 716 331 720 L251 720 Z M624 797 L638 860 L327 860 L314 797 L624 797 Z " />
<glyph glyph-name="umacron" unicode="&#x16b;" horiz-adv-x="602" d="M446 91 C443 63 441 32 441 10 L441 0 L509 0 L509 16 C509 89 517 146 547 284 L556 325 C560 343 574 403 599 507 L602 520 L605 534 L525 534 L522 520 L520 507 L490 344 L486 325 L474 271 C459 204 428 150 379 106 C341 72 303 54 270 54 C238 54 217 79 217 117 C217 138 221 164 230 208 L232 217 L254 325 C267 377 280 433 298 507 L301 520 L304 534 L224 534 L221 520 L219 507 C207 446 196 385 185 325 L157 194 C149 156 144 122 144 98 C144 34 190 -13 252 -13 C307 -13 378 20 423 67 L446 91 Z M579 605 L593 668 L282 668 L269 605 L579 605 Z " />
<glyph glyph-name="Uring" unicode="&#x16e;" horiz-adv-x="602" d="M251 720 C250 716 250 715 249 707 L246 693 C236 637 221 558 212 511 L155 245 C146 200 141 166 141 142 C141 53 206 -13 294 -13 C365 -13 442 28 488 91 C517 131 530 163 547 245 L603 511 L624 598 L646 693 L650 706 L653 720 L572 720 L570 706 L567 693 C553 616 538 535 533 511 L476 245 C462 175 456 156 439 130 C410 83 361 54 311 54 C254 54 214 95 214 153 C214 178 218 213 225 245 L282 510 C285 529 290 548 295 566 C302 595 309 625 316 656 C321 678 323 687 326 696 L329 710 C330 714 331 716 331 720 L251 720 Z M502 947 C441 947 385 894 385 836 C385 793 417 762 463 762 C523 762 578 815 578 873 C578 917 547 947 502 947 L502 947 Z M486 880 C504 880 513 873 513 859 C513 843 496 829 477 829 C461 829 450 838 450 851 C450 867 466 880 486 880 L486 880 Z " />
<glyph glyph-name="uring" unicode="&#x16f;" horiz-adv-x="602" d="M446 91 C443 63 441 32 441 10 L441 0 L509 0 L509 16 C509 89 517 146 547 284 L556 325 C560 343 574 403 599 507 L602 520 L605 534 L525 534 L522 520 L520 507 L490 344 L486 325 L474 271 C459 204 428 150 379 106 C341 72 303 54 270 54 C238 54 217 79 217 117 C217 138 221 164 230 208 L232 217 L254 325 C267 377 280 433 298 507 L301 520 L304 534 L224 534 L221 520 L219 507 C207 446 196 385 185 325 L157 194 C149 156 144 122 144 98 C144 34 190 -13 252 -13 C307 -13 378 20 423 67 L446 91 Z M469 734 C407 734 352 682 352 624 C352 580 383 550 429 550 C489 550 544 603 544 661 C544 704 513 734 469 734 L469 734 Z M453 667 C470 667 479 660 479 646 C479 631 463 617 444 617 C428 617 417 626 417 638 C417 654 433 667 453 667 L453 667 Z " />
<glyph glyph-name="Uhungarumlaut" unicode="&#x170;" horiz-adv-x="602" d="M251 720 C250 716 250 715 249 707 L246 693 C236 637 221 558 212 511 L155 245 C146 200 141 166 141 142 C141 53 206 -13 294 -13 C365 -13 442 28 488 91 C517 131 530 163 547 245 L603 511 L624 598 L646 693 L650 706 L653 720 L572 720 L570 706 L567 693 C553 616 538 535 533 511 L476 245 C462 175 456 156 439 130 C410 83 361 54 311 54 C254 54 214 95 214 153 C214 178 218 213 225 245 L282 510 C285 529 290 548 295 566 C302 595 309 625 316 656 C321 678 323 687 326 696 L329 710 C330 714 331 716 331 720 L251 720 Z M744 926 L509 804 L533 754 L780 863 L744 926 Z M531 926 L295 804 L319 754 L566 863 L531 926 Z " />
<glyph glyph-name="uhungarumlaut" unicode="&#x171;" horiz-adv-x="602" d="M446 91 C443 63 441 32 441 10 L441 0 L509 0 L509 16 C509 89 517 146 547 284 L556 325 C560 343 574 403 599 507 L602 520 L605 534 L525 534 L522 520 L520 507 L490 344 L486 325 L474 271 C459 204 428 150 379 106 C341 72 303 54 270 54 C238 54 217 79 217 117 C217 138 221 164 230 208 L232 217 L254 325 C267 377 280 433 298 507 L301 520 L304 534 L224 534 L221 520 L219 507 C207 446 196 385 185 325 L157 194 C149 156 144 122 144 98 C144 34 190 -13 252 -13 C307 -13 378 20 423 67 L446 91 Z M679 748 L472 608 L499 559 L721 687 L679 748 Z M492 756 L285 614 L313 566 L534 694 L492 756 Z " />
<glyph glyph-name="Uogonek" unicode="&#x172;" horiz-adv-x="602" d="M433 -104 C355 -131 355 -131 322 -131 C292 -131 275 -120 275 -101 C275 -76 295 -51 331 -29 C485 59 517 100 547 245 L603 511 C618 572 632 633 646 693 L653 720 L572 720 L570 706 L567 693 C553 616 538 535 533 511 L476 245 C462 175 456 156 439 130 C410 83 361 54 311 54 C254 54 214 95 214 153 C214 178 218 213 225 245 L282 510 C286 526 290 545 295 566 C302 598 309 627 316 656 C321 678 323 687 326 696 L329 710 C330 714 331 716 331 720 L251 720 C250 716 250 715 249 707 L246 693 C236 637 221 558 212 511 L155 245 C146 200 141 166 141 141 C141 66 186 8 257 -9 C218 -40 201 -71 201 -111 C201 -162 238 -190 305 -190 C340 -190 368 -185 420 -167 L433 -104 Z " />
<glyph glyph-name="uogonek" unicode="&#x173;" horiz-adv-x="602" d="M560 -104 C482 -131 482 -131 450 -131 C419 -131 402 -121 402 -101 C402 -67 428 -42 509 0 L509 16 C509 89 517 146 547 284 L556 325 C560 343 574 403 599 507 L605 534 L525 534 L522 520 L520 507 L490 344 L486 325 L474 271 C459 204 428 150 379 106 C341 72 303 54 270 54 C238 54 217 79 217 117 C217 138 221 164 230 208 L254 325 C268 380 282 439 298 507 L301 520 L304 534 L224 534 L221 520 L219 507 C207 446 196 385 185 325 L157 194 C149 156 144 122 144 98 C144 34 190 -13 252 -13 C307 -13 378 20 423 67 L446 91 C444 72 442 51 441 24 C362 -13 328 -53 328 -111 C328 -162 365 -190 434 -190 C467 -190 496 -184 547 -167 L560 -104 Z " />
<glyph glyph-name="Ydieresis" unicode="&#x178;" horiz-adv-x="602" d="M214 720 L218 701 C240 614 261 526 282 439 C292 395 302 351 312 305 L292 210 C278 152 264 91 249 27 L245 14 L242 0 L323 0 L325 14 L328 27 L362 210 L382 305 C454 415 542 548 657 720 L576 720 L571 712 C503 603 418 471 366 391 C343 489 321 591 295 720 L214 720 Z M381 897 C336 897 296 857 296 813 C296 780 319 758 351 758 C395 758 435 798 435 842 C435 873 412 897 381 897 L381 897 Z M565 897 C521 897 480 857 480 814 C480 781 503 758 535 758 C579 758 619 798 619 842 C619 874 597 897 565 897 L565 897 Z " />
<glyph glyph-name="Zacute" unicode="&#x179;" horiz-adv-x="602" d="M268 720 L255 657 L545 657 C386 426 252 237 115 53 L104 0 L514 0 L527 63 L207 63 C385 322 525 520 632 667 L643 720 L268 720 Z M623 926 L388 804 L412 754 L659 863 L623 926 Z " />
<glyph glyph-name="zacute" unicode="&#x17a;" horiz-adv-x="602" d="M250 534 L236 471 L504 471 C340 297 220 172 105 54 L93 0 L509 0 L522 63 L201 63 C292 161 336 207 372 243 C448 320 523 398 596 476 L599 480 L611 534 L250 534 Z M573 756 L366 615 L393 566 L614 694 L573 756 Z " />
<glyph glyph-name="Zdotaccent" unicode="&#x17b;" horiz-adv-x="602" d="M268 720 L255 657 L545 657 C386 426 252 237 115 53 L104 0 L514 0 L527 63 L207 63 C385 322 525 520 632 667 L643 720 L268 720 Z M496 895 C451 895 412 856 412 813 C412 780 434 758 467 758 C510 758 549 797 549 840 C549 872 527 895 496 895 L496 895 Z " />
<glyph glyph-name="zdotaccent" unicode="&#x17c;" horiz-adv-x="602" d="M250 534 L236 471 L504 471 C340 297 220 172 105 54 L93 0 L509 0 L522 63 L201 63 C292 161 336 207 372 243 C448 320 523 398 596 476 L599 480 L611 534 L250 534 Z M473 714 C428 714 388 675 388 629 C388 596 410 574 444 574 C488 574 528 614 528 658 C528 691 506 714 473 714 L473 714 Z " />
<glyph glyph-name="Zcaron" unicode="&#x17d;" horiz-adv-x="602" d="M268 720 L255 657 L545 657 C386 426 252 237 115 53 L104 0 L514 0 L527 63 L207 63 C385 322 525 520 632 667 L643 720 L268 720 Z M313 897 L461 742 L678 897 L646 937 L481 835 L365 937 L313 897 Z " />
<glyph glyph-name="zcaron" unicode="&#x17e;" horiz-adv-x="602" d="M250 534 L236 471 L504 471 C340 297 220 172 105 54 L93 0 L509 0 L522 63 L201 63 C292 161 336 207 372 243 C448 320 523 398 596 476 L599 480 L611 534 L250 534 Z M455 652 L336 754 L288 711 L435 559 L646 711 L616 754 L455 652 Z " />
<glyph glyph-name="florin" unicode="&#x192;" horiz-adv-x="602" d="M465 501 L486 563 C517 654 542 679 602 679 L653 679 L668 748 L623 748 C576 748 536 736 503 712 C468 687 443 646 418 573 L394 501 L274 501 L260 438 L373 438 L244 58 C213 -34 190 -57 128 -57 L79 -57 L64 -126 L108 -126 C212 -126 270 -77 312 48 L444 438 L564 438 L577 501 L465 501 Z " />
<glyph glyph-name="Scommaaccent" unicode="&#x218;" horiz-adv-x="602" d="M640 643 C586 706 530 733 455 733 C333 733 228 636 228 521 C228 466 256 421 316 381 L391 330 C466 279 485 256 485 219 C485 130 406 54 314 54 C250 54 208 83 173 153 L107 108 C119 87 124 80 131 70 C171 15 229 -13 303 -13 C385 -13 457 21 504 81 C538 125 560 187 560 238 C560 291 528 332 442 389 L373 436 C354 448 331 469 318 486 C307 499 303 513 303 534 C303 606 368 666 445 666 C482 666 518 651 551 623 C558 617 564 611 586 591 L640 643 Z M259 -190 C245 -200 225 -208 201 -214 L188 -275 C226 -264 248 -256 272 -242 C330 -209 362 -163 362 -115 C362 -78 338 -54 302 -54 C257 -54 217 -93 217 -137 C217 -165 231 -180 264 -187 L259 -190 Z " />
<glyph glyph-name="scommaaccent" unicode="&#x219;" horiz-adv-x="602" d="M568 484 C566 486 558 492 546 501 C507 531 460 547 409 547 C346 547 293 523 252 476 C225 445 211 412 211 379 C211 325 246 283 316 254 L366 234 C414 214 435 190 435 154 C435 98 386 54 323 54 C264 54 213 81 164 139 L111 80 C178 14 236 -13 309 -13 C417 -13 509 70 509 167 C509 228 476 266 395 299 L354 316 C311 334 285 361 285 389 C285 436 338 480 394 480 C438 480 464 469 522 424 L568 484 Z M254 -182 C240 -192 221 -200 199 -205 L186 -263 C291 -234 351 -179 351 -112 C351 -77 328 -54 294 -54 C252 -54 214 -91 214 -133 C214 -159 227 -173 258 -179 L254 -182 Z " />
<glyph glyph-name="circumflex" unicode="&#x2c6;" horiz-adv-x="602" d="M447 665 L565 563 L613 606 L466 758 L255 606 L285 563 L447 665 Z " />
<glyph glyph-name="caron" unicode="&#x2c7;" horiz-adv-x="602" d="M445 655 L326 757 L278 715 L424 563 L636 715 L606 757 L445 655 Z " />
<glyph glyph-name="breve" unicode="&#x2d8;" horiz-adv-x="602" d="M289 712 C287 700 286 690 286 684 C286 613 348 569 447 569 C557 569 629 618 654 712 L587 712 C566 657 528 636 452 636 C384 636 356 658 356 712 L289 712 Z " />
<glyph glyph-name="dotaccent" unicode="&#x2d9;" horiz-adv-x="602" d="M460 714 C415 714 375 675 375 629 C375 596 397 574 431 574 C475 574 515 614 515 658 C515 691 493 714 460 714 L460 714 Z " />
<glyph glyph-name="ring" unicode="&#x2da;" horiz-adv-x="602" d="M466 734 C404 734 349 682 349 624 C349 580 380 550 426 550 C486 550 541 603 541 661 C541 704 510 734 466 734 L466 734 Z M450 667 C467 667 476 660 476 646 C476 631 460 617 441 617 C425 617 414 626 414 638 C414 654 430 667 450 667 L450 667 Z " />
<glyph glyph-name="ogonek" unicode="&#x2db;" horiz-adv-x="602" d="M319 26 L231 26 C148 -11 113 -52 113 -111 C113 -162 150 -190 218 -190 C252 -190 280 -184 331 -167 L345 -103 L338 -106 L321 -112 C282 -126 260 -131 235 -131 C203 -131 187 -121 187 -101 C187 -73 207 -50 252 -23 C282 -6 289 -2 293 2 L313 21 L319 26 Z " />
<glyph glyph-name="tilde" unicode="&#x2dc;" horiz-adv-x="602" d="M596 700 C584 683 578 675 575 671 C562 656 545 647 529 647 C514 647 498 653 481 664 L455 681 C421 704 412 707 386 707 C346 707 310 688 276 650 C267 638 260 629 236 596 L292 575 C327 626 344 640 371 640 C386 640 403 635 414 626 L449 601 C469 587 490 580 513 580 C551 580 588 599 618 632 C627 643 634 652 650 677 L596 700 Z " />
<glyph glyph-name="hungarumlaut" unicode="&#x2dd;" horiz-adv-x="602" d="M620 748 L414 608 L441 559 L662 687 L620 748 Z M434 756 L227 614 L254 566 L475 694 L434 756 Z " />
<glyph glyph-name="endash" unicode="&#x2013;" horiz-adv-x="602" d="M547 327 L560 390 L208 390 L195 327 L547 327 Z " />
<glyph glyph-name="emdash" unicode="&#x2014;" horiz-adv-x="602" d="M671 327 L684 390 L84 390 L71 327 L671 327 Z " />
<glyph glyph-name="quoteleft" unicode="&#x2018;" horiz-adv-x="602" d="M467 637 C484 649 506 659 532 665 L546 733 C424 700 351 633 351 555 C351 513 378 486 419 486 C469 486 514 529 514 579 C514 610 499 626 462 634 L467 637 Z " />
<glyph glyph-name="quoteright" unicode="&#x2019;" horiz-adv-x="602" d="M336 485 C381 498 405 508 432 524 C496 561 532 612 532 664 C532 705 505 733 464 733 C413 733 369 689 369 640 C369 608 384 592 421 585 L417 582 C398 569 379 561 351 554 L336 485 Z " />
<glyph glyph-name="quotesinglbase" unicode="&#x201a;" horiz-adv-x="602" d="M289 -12 C272 -23 250 -32 224 -39 L209 -107 C252 -95 276 -86 303 -70 C368 -33 404 18 404 72 C404 113 377 140 336 140 C286 140 241 96 241 47 C241 16 257 -1 293 -8 L289 -12 Z " />
<glyph glyph-name="quotedblleft" unicode="&#x201c;" horiz-adv-x="602" d="M352 634 L356 638 C369 648 396 659 420 665 L434 733 L424 730 L417 729 L412 727 L410 727 C398 724 379 716 364 709 C288 671 242 613 242 555 C242 513 268 486 309 486 C359 486 403 530 403 579 C403 611 386 630 353 634 L352 634 Z M573 634 L577 638 C593 649 604 654 631 663 L640 666 L655 733 C535 699 463 633 463 555 C463 514 490 486 530 486 C579 486 624 530 624 579 C624 610 607 630 574 634 L573 634 Z " />
<glyph glyph-name="quotedblright" unicode="&#x201d;" horiz-adv-x="602" d="M310 585 L306 582 C289 570 268 561 242 554 L227 486 C270 498 295 508 322 524 C386 561 421 611 421 665 C421 706 394 733 354 733 C304 733 259 689 259 640 C259 609 281 585 309 585 L310 585 Z M530 585 L525 582 C507 569 487 561 460 554 L446 486 C570 521 640 586 640 664 C640 705 613 733 573 733 C524 733 479 689 479 640 C479 609 500 585 528 585 L530 585 Z " />
<glyph glyph-name="quotedblbase" unicode="&#x201e;" horiz-adv-x="602" d="M182 -8 L177 -12 C164 -22 136 -34 114 -39 L99 -107 C222 -72 292 -7 292 72 C292 113 265 140 225 140 C176 140 131 96 131 47 C131 16 149 -4 181 -8 L182 -8 Z M402 -8 L397 -12 C380 -24 357 -34 333 -39 L319 -107 C383 -89 422 -69 456 -38 C492 -5 512 35 512 72 C512 113 485 140 445 140 C395 140 351 96 351 47 C351 15 368 -4 400 -8 L402 -8 Z " />
<glyph glyph-name="dagger" unicode="&#x2020;" horiz-adv-x="602" d="M248 529 L231 450 L361 457 L340 388 L270 0 L333 0 L426 388 L435 457 L562 450 L579 529 L448 522 L497 720 L410 720 L376 522 L248 529 Z " />
<glyph glyph-name="daggerdbl" unicode="&#x2021;" horiz-adv-x="602" d="M495 720 L412 720 L381 539 L252 546 L235 467 L369 473 L320 247 L190 253 L173 174 L304 181 L259 0 L342 0 L373 181 L504 174 L521 253 L385 247 L434 473 L566 467 L583 546 L449 539 L495 720 Z " />
<glyph glyph-name="bullet" unicode="&#x2022;" horiz-adv-x="602" d="M341 399 C284 399 239 355 239 299 C239 244 283 199 339 199 C394 199 439 243 439 299 C439 354 395 399 341 399 L341 399 Z " />
<glyph glyph-name="ellipsis" unicode="&#x2026;" horiz-adv-x="602" d="M139 149 C87 149 40 102 40 51 C40 13 66 -13 104 -13 C155 -13 202 34 202 85 C202 122 176 149 139 149 L139 149 Z M524 149 C472 149 425 102 425 51 C425 13 451 -13 489 -13 C540 -13 587 34 587 85 C587 123 561 149 524 149 L524 149 Z M332 149 C280 149 233 102 233 51 C233 13 259 -13 297 -13 C348 -13 395 34 395 85 C395 122 369 149 332 149 L332 149 Z " />
<glyph glyph-name="perthousand" unicode="&#x2030;" horiz-adv-x="602" d="M277 748 C239 748 202 727 180 693 C153 651 130 564 130 501 C130 451 160 419 206 419 C251 419 283 442 309 491 C332 536 351 614 351 663 C351 715 322 748 277 748 L277 748 Z M264 695 C283 695 293 681 293 653 C293 628 284 576 273 541 C258 494 239 471 215 471 C198 471 188 486 188 513 C188 538 200 598 212 635 C226 675 243 695 264 695 L264 695 Z M476 733 L8 -13 L71 -13 L542 733 L476 733 Z M358 323 C320 323 283 302 261 268 C234 226 211 139 211 76 C211 26 240 -6 287 -6 C333 -6 365 17 390 66 C413 111 432 189 432 237 C432 291 404 323 358 323 L358 323 Z M345 271 C364 271 374 256 374 229 C374 205 365 152 354 117 C340 70 321 47 296 47 C279 47 269 62 269 89 C269 114 281 175 293 211 C306 250 324 271 345 271 L345 271 Z M566 323 C529 323 492 302 470 268 C443 226 420 139 420 76 C420 26 449 -6 496 -6 C541 -6 574 17 599 66 C622 110 641 188 641 239 C641 291 613 323 566 323 L566 323 Z M554 271 C573 271 583 256 583 229 C583 205 574 154 563 117 C550 72 529 47 505 47 C488 47 478 62 478 89 C478 114 490 174 502 211 C515 250 533 271 554 271 L554 271 Z " />
<glyph glyph-name="guilsinglleft" unicode="&#x2039;" horiz-adv-x="602" d="M525 620 L196 362 L415 102 L471 150 L292 362 L561 572 L525 620 Z " />
<glyph glyph-name="guilsinglright" unicode="&#x203a;" horiz-adv-x="602" d="M339 620 L282 572 L463 362 L193 150 L229 102 L559 362 L339 620 Z " />
<glyph glyph-name="fraction" unicode="&#x2044;" horiz-adv-x="602" d="M554 733 L80 -13 L143 -13 L619 733 L554 733 Z " />
<glyph glyph-name="Euro" unicode="&#x20ac;" horiz-adv-x="602" d="M270 472 C288 524 298 545 318 577 C354 633 409 666 466 666 C517 666 554 635 554 590 C554 584 553 576 552 564 L617 650 C587 710 549 733 480 733 C353 733 260 647 197 472 L145 472 L97 409 L177 409 C169 379 164 355 158 327 L108 327 L61 264 L149 264 C146 237 145 213 145 192 C145 53 201 -13 318 -13 C362 -13 391 -6 436 16 L457 118 C420 72 385 54 332 54 C257 54 219 101 219 194 C219 216 220 238 222 264 L398 264 L446 327 L231 327 C236 354 242 379 250 409 L434 409 L482 472 L270 472 Z " />
<glyph glyph-name="trademark" unicode="&#x2122;" horiz-adv-x="602" d="M253 279 L255 293 L262 329 L266 354 C269 370 273 390 277 412 L330 659 L420 659 L433 720 L165 720 L152 659 L265 659 L213 412 C209 394 205 376 200 359 C197 346 194 333 191 319 L188 307 C186 299 182 284 181 279 L253 279 Z M431 279 C436 308 441 334 445 356 C450 382 453 401 456 412 L486 557 L532 377 L653 557 L623 412 C619 398 614 381 610 361 C606 343 602 325 597 307 L593 288 L590 279 L663 279 L665 293 L672 327 L676 353 C680 373 684 393 688 412 L753 720 L691 720 L564 528 L518 720 L456 720 L391 412 L379 361 C372 335 366 308 359 279 L431 279 Z " />
<glyph glyph-name="partialdiff" unicode="&#x2202;" horiz-adv-x="602" d="M465 543 C440 547 440 547 429 547 C345 547 269 504 217 426 C173 359 143 252 143 161 C143 55 208 -13 308 -13 C390 -13 471 34 518 109 C561 176 592 282 592 359 L592 382 L592 417 C592 503 534 622 465 680 C419 718 366 745 310 760 L302 762 L249 708 C370 665 414 632 468 543 L465 543 Z M411 480 C481 480 518 439 518 361 C518 311 505 245 486 193 C452 101 396 54 321 54 C254 54 217 96 217 173 C217 227 232 301 254 354 C288 437 342 480 411 480 L411 480 Z " />
<glyph glyph-name="Delta" unicode="&#x2206;" horiz-adv-x="602" d="M469 774 L46 0 L563 0 L469 774 Z M425 567 L481 63 L155 63 L425 567 Z " />
<glyph glyph-name="summation" unicode="&#x2211;" horiz-adv-x="602" d="M740 824 L219 824 L205 755 L359 381 L37 -34 L22 -104 L552 -104 L603 137 L536 137 L491 -37 L112 -37 L444 379 L289 757 L648 757 L624 584 L689 584 L740 824 Z " />
<glyph glyph-name="minus" unicode="&#x2212;" horiz-adv-x="602" d="M648 394 L98 394 L98 326 L648 326 L648 394 Z " />
<glyph glyph-name="radical" unicode="&#x221a;" horiz-adv-x="602" d="M112 437 L112 366 L203 366 L315 0 L567 847 L708 847 L708 917 L520 917 L318 211 L254 437 L112 437 Z " />
<glyph glyph-name="notequal" unicode="&#x2260;" horiz-adv-x="602" d="M457 463 L522 591 L459 621 L379 463 L89 463 L89 395 L344 395 L314 333 L89 333 L89 265 L279 265 L214 137 L277 107 L357 265 L647 265 L647 333 L392 333 L422 395 L647 395 L647 463 L457 463 Z " />
<glyph glyph-name="lessequal" unicode="&#x2264;" horiz-adv-x="602" d="M134 0 L550 0 L550 66 L134 66 L134 0 Z M125 422 L522 119 L564 169 L233 422 L564 674 L522 725 L125 422 Z " />
<glyph glyph-name="greaterequal" unicode="&#x2265;" horiz-adv-x="602" d="M573 0 L573 66 L157 66 L157 0 L573 0 Z M583 422 L186 725 L144 674 L475 422 L144 169 L186 119 L583 422 Z " />
<glyph glyph-name="lozenge" unicode="&#x25ca;" horiz-adv-x="602" d="M374 735 L105 361 L374 -14 L645 361 L374 735 Z M374 665 L589 361 L374 59 L160 361 L374 665 Z " />
<glyph glyph-name="commaaccent" unicode="&#xf6c3;" horiz-adv-x="602" d="M306 -182 C292 -192 274 -200 251 -205 L239 -263 C343 -234 403 -179 403 -112 C403 -77 380 -54 346 -54 C304 -54 266 -91 266 -133 C266 -159 279 -173 310 -179 L306 -182 Z " />
<glyph glyph-name="fi" unicode="&#xfb01;" horiz-adv-x="602" d="M489 0 L491 14 L494 27 C505 88 517 149 528 209 L597 534 L322 534 L325 550 C344 631 378 666 442 666 C482 666 501 659 600 605 L618 687 C539 721 496 733 457 733 C402 733 342 705 304 662 C279 634 268 609 256 552 L252 534 L153 534 L140 471 L238 471 L183 209 C181 201 176 179 162 120 L140 27 L136 14 L133 0 L214 0 L216 14 L218 27 C229 81 239 135 249 188 L253 209 L309 471 L514 471 L458 209 L437 120 C420 51 411 11 408 0 L489 0 Z " />
<glyph glyph-name="fl" unicode="&#xfb02;" horiz-adv-x="602" d="M211 0 C212 6 213 13 215 23 C216 33 218 40 222 62 C228 90 233 119 238 149 C242 170 246 189 250 207 L305 471 L450 471 L464 534 L319 534 L322 550 C336 625 376 666 437 666 C468 666 498 657 551 631 C549 618 548 614 545 600 L537 556 L530 521 L463 207 C461 194 463 203 458 183 C454 165 450 149 446 135 L421 27 L417 14 L414 0 L495 0 C497 12 498 19 499 23 C500 32 502 40 506 62 C512 97 517 126 522 150 C525 171 529 190 533 207 L600 521 C611 573 626 633 639 677 C543 719 499 733 457 733 C416 733 372 718 336 693 C293 663 264 615 253 552 L249 534 L150 534 L136 471 L235 471 L179 207 C165 148 151 88 137 27 L133 14 L130 0 L211 0 Z " />
</font>
</svg>
