<?xml version="1.0" encoding="UTF-8"?>
<svg xmlns="http://www.w3.org/2000/svg" xmlns:xlink="http://www.w3.org/1999/xlink" version="1.2" >
<font id="MHE LetterGotLOTMed">
<font-face  font-family="MHE LetterGotLOTMed" units-per-em="1000" ascent="733" descent="-226" font-style="normal" font-weight="500" font-stretch="normal" cap-height="720" x-height="534" underline-position="-55" underline-thickness="70" />
<missing-glyph  horiz-adv-x="600" d="" />
<glyph glyph-name="NULL" d="" />
<glyph glyph-name="CR" unicode="&#xd;" horiz-adv-x="600" d="" />
<glyph glyph-name="space" unicode="&#x20;" horiz-adv-x="600" d="" />
<glyph glyph-name="exclam" unicode="&#x21;" horiz-adv-x="600" d="M349 720 L252 720 L270 219 L336 219 L349 720 Z M301 147 C256 147 220 112 220 66 C220 22 256 -14 301 -14 C345 -14 381 22 381 66 C381 111 345 147 301 147 L301 147 Z " />
<glyph glyph-name="quotedbl" unicode="&#x22;" horiz-adv-x="600" d="M277 722 L157 736 L113 456 L200 446 L277 722 Z M487 722 L367 736 L323 456 L410 446 L487 722 Z " />
<glyph glyph-name="numbersign" unicode="&#x23;" horiz-adv-x="600" d="M257 802 L199 492 L66 492 L53 422 L186 422 L162 293 L31 293 L16 229 L150 229 L90 -93 L162 -93 L328 802 L257 802 Z M339 -93 L401 229 L534 229 L547 293 L413 293 L437 422 L569 422 L583 492 L449 492 L506 802 L435 802 L268 -93 L339 -93 Z " />
<glyph glyph-name="dollar" unicode="&#x24;" horiz-adv-x="600" d="M480 599 C435 638 383 663 333 669 L333 743 L262 743 L262 669 L259 669 C240 669 205 653 180 634 C141 603 121 564 121 518 C121 445 171 387 262 355 L262 131 L259 131 C229 131 206 145 147 197 L101 144 C161 87 196 69 262 63 L262 -30 L333 -30 L333 63 C431 81 481 137 481 228 C481 313 434 370 333 407 L333 602 L339 602 C357 602 398 579 426 552 L437 543 L480 599 Z M262 599 L262 427 C217 451 195 481 195 517 C195 554 230 599 259 599 L262 599 Z M333 131 L333 335 L343 330 C382 309 407 268 407 226 C407 200 400 180 386 163 C373 147 348 131 336 131 L333 131 Z " />
<glyph glyph-name="percent" unicode="&#x25;" horiz-adv-x="600" d="M165 748 C132 748 103 736 83 714 C59 689 50 651 50 584 C50 523 57 488 76 462 C95 435 128 419 164 419 C196 419 224 431 245 454 C268 480 277 516 277 584 C277 645 270 679 251 705 C232 732 200 748 165 748 L165 748 Z M164 698 C199 698 214 663 214 584 C214 504 199 469 164 469 C128 469 113 504 113 584 C113 664 128 698 164 698 L164 698 Z M442 733 L68 -13 L140 -13 L516 733 L442 733 Z M428 323 C395 323 366 311 346 289 C322 263 313 226 313 158 C313 98 320 63 339 37 C358 10 390 -6 427 -6 C459 -6 487 6 508 29 C531 55 540 90 540 159 C540 220 533 254 514 280 C496 307 463 323 428 323 L428 323 Z M427 273 C462 273 477 238 477 159 C477 79 462 44 427 44 C391 44 376 79 376 159 C376 239 391 273 427 273 L427 273 Z " />
<glyph glyph-name="ampersand" unicode="&#x26;" horiz-adv-x="600" d="M413 368 L413 339 C413 277 412 258 403 201 C380 234 357 269 334 306 C315 337 309 347 287 390 C364 480 385 524 385 592 C385 672 333 733 264 733 C240 733 214 724 192 708 C150 678 129 632 129 572 C129 515 143 478 197 393 C106 286 79 231 79 149 C79 51 146 -13 248 -13 C316 -13 374 16 413 68 C445 32 460 16 474 1 L492 -19 L543 33 C510 66 500 77 452 131 C474 185 485 256 488 368 L413 368 Z M241 456 C217 493 203 536 203 575 C203 624 229 665 261 665 C289 665 311 633 311 592 C311 554 306 540 265 476 C258 464 253 458 246 448 L241 456 Z M237 330 C272 274 286 252 303 227 C327 192 351 157 374 122 C347 79 303 55 251 55 C190 55 153 91 153 150 C153 198 171 248 203 287 L237 330 Z " />
<glyph glyph-name="quotesingle" unicode="&#x27;" horiz-adv-x="600" d="M369 722 L268 736 L231 456 L304 446 L369 722 Z " />
<glyph glyph-name="parenleft" unicode="&#x28;" horiz-adv-x="600" d="M411 -3 C376 25 376 25 362 39 C288 113 249 224 249 356 C249 475 282 580 340 650 C361 675 367 681 411 717 L375 765 C334 737 333 736 315 719 C227 635 175 501 175 356 C175 229 217 105 289 22 C315 -9 323 -16 375 -52 L411 -3 Z " />
<glyph glyph-name="parenright" unicode="&#x29;" horiz-adv-x="600" d="M226 -52 C267 -23 267 -23 285 -6 C372 76 425 213 425 356 C425 485 384 606 311 691 C284 722 276 730 226 765 L189 717 C224 688 224 688 238 674 C312 600 351 489 351 356 C351 238 319 134 260 63 C239 38 235 34 189 -4 L226 -52 Z " />
<glyph glyph-name="asterisk" unicode="&#x2a;" horiz-adv-x="600" d="M300 431 L414 287 L468 328 L353 475 L536 527 L517 592 L336 539 L336 725 L265 725 L265 539 L84 592 L64 527 L248 475 L133 328 L187 287 L300 431 Z " />
<glyph glyph-name="plus" unicode="&#x2b;" horiz-adv-x="600" d="M335 632 L265 632 L265 394 L25 394 L25 324 L265 324 L265 88 L335 88 L335 324 L575 324 L575 394 L335 394 L335 632 Z " />
<glyph glyph-name="comma" unicode="&#x2c;" horiz-adv-x="600" d="M232 -101 C330 -76 392 -15 392 56 C392 108 355 147 307 147 C264 147 230 113 230 70 C230 31 253 6 296 -1 C282 -15 264 -24 232 -32 L232 -101 Z " />
<glyph glyph-name="hyphen" unicode="&#x2d;" horiz-adv-x="600" d="M430 326 L430 390 L170 390 L170 326 L430 326 Z " />
<glyph glyph-name="period" unicode="&#x2e;" horiz-adv-x="600" d="M301 147 C256 147 220 112 220 66 C220 22 256 -14 301 -14 C345 -14 381 22 381 66 C381 111 345 147 301 147 L301 147 Z " />
<glyph glyph-name="slash" unicode="&#x2f;" horiz-adv-x="600" d="M185 -26 L488 746 L415 746 L112 -26 L185 -26 Z " />
<glyph glyph-name="zero" unicode="0" horiz-adv-x="600" d="M303 733 C241 733 189 707 152 658 C108 602 91 516 91 361 C91 218 105 137 139 80 C175 21 234 -13 300 -13 C359 -13 412 13 448 62 C492 119 509 204 509 360 C509 501 495 583 461 640 C426 698 366 733 303 733 L303 733 Z M301 665 C333 665 364 648 386 620 C421 573 435 501 435 360 C435 218 421 146 385 99 C363 71 333 55 300 55 C267 55 237 71 214 101 C178 148 165 219 165 360 C165 502 179 575 215 622 C237 650 268 665 301 665 L301 665 Z " />
<glyph glyph-name="one" unicode="1" horiz-adv-x="600" d="M340 752 L125 685 L125 616 L269 661 L269 64 L132 64 L132 0 L470 0 L470 64 L340 64 L340 752 Z " />
<glyph glyph-name="two" unicode="2" horiz-adv-x="600" d="M503 64 L176 64 C185 166 208 201 351 326 C399 370 408 378 429 399 C476 448 500 501 500 559 C500 664 430 733 323 733 C236 733 170 693 138 622 C124 590 120 576 114 520 L187 520 C196 616 240 665 318 665 C383 665 426 623 426 558 C426 530 419 508 402 479 C383 447 371 435 279 354 C132 224 100 167 100 33 L100 0 L503 0 L503 64 Z " />
<glyph glyph-name="three" unicode="3" horiz-adv-x="600" d="M142 567 L148 578 C178 632 229 665 284 665 C352 665 407 613 407 547 C407 475 345 420 262 418 L250 418 L250 352 L263 352 L273 352 C373 352 439 291 439 198 C439 110 381 55 288 55 C220 55 173 86 141 150 L135 162 L70 125 C89 95 89 95 98 83 C148 18 209 -13 288 -13 C420 -13 513 75 513 201 C513 289 470 354 387 392 C455 438 481 482 481 547 C481 651 395 733 286 733 C218 733 153 701 110 647 C99 634 99 634 80 602 L142 567 Z " />
<glyph glyph-name="four" unicode="4" horiz-adv-x="600" d="M422 733 L329 733 L61 236 L61 186 L351 186 L351 0 L422 0 L422 186 L526 186 L526 250 L422 250 L422 733 Z M351 250 L146 250 L351 636 L351 250 Z " />
<glyph glyph-name="five" unicode="5" horiz-adv-x="600" d="M461 720 L140 720 L110 321 L184 306 C221 360 256 383 303 383 C378 383 431 315 431 218 C431 124 374 55 298 55 C259 55 220 73 189 105 C176 119 176 119 157 149 L100 108 C164 20 217 -13 293 -13 C418 -13 505 85 505 224 C505 357 423 451 306 451 C264 451 224 437 192 410 L184 403 L204 656 L461 656 L461 720 Z " />
<glyph glyph-name="six" unicode="6" horiz-adv-x="600" d="M505 689 C447 723 414 733 367 733 C207 733 95 557 95 304 C95 102 170 -13 302 -13 C423 -13 511 90 511 233 C511 367 433 459 320 459 C266 459 206 430 175 390 L169 382 L169 390 C169 436 194 515 226 571 C258 628 313 665 367 665 C399 665 419 658 469 628 L505 689 Z M318 391 C389 391 437 328 437 234 C437 126 383 55 301 55 C227 55 176 122 176 219 C176 314 240 391 318 391 L318 391 Z " />
<glyph glyph-name="seven" unicode="7" horiz-adv-x="600" d="M93 720 L93 656 L400 656 L136 0 L214 0 L497 720 L93 720 Z " />
<glyph glyph-name="eight" unicode="8" horiz-adv-x="600" d="M421 377 C440 391 450 399 459 409 C488 442 505 489 505 539 C505 656 423 733 300 733 C177 733 95 656 95 539 C95 497 108 455 129 424 C141 407 153 396 179 377 L169 372 C103 336 70 278 70 197 C70 130 92 76 134 41 C176 7 237 -13 301 -13 C384 -13 460 22 498 77 C519 107 530 149 530 195 C530 278 497 337 431 372 L421 377 Z M302 341 C395 341 456 285 456 198 C456 110 396 55 300 55 C204 55 144 110 144 198 C144 286 204 341 302 341 L302 341 Z M301 665 C381 665 431 615 431 536 C431 456 381 407 300 407 C220 407 169 456 169 532 C169 615 218 665 301 665 L301 665 Z " />
<glyph glyph-name="nine" unicode="9" horiz-adv-x="600" d="M94 31 C150 -2 186 -13 232 -13 C393 -13 505 163 505 416 C505 618 430 733 298 733 C176 733 88 630 88 487 C88 353 166 261 279 261 C334 261 393 289 425 330 L431 338 L431 330 C431 284 406 205 374 149 C342 92 286 55 234 55 C202 55 177 64 130 92 L94 31 Z M300 665 C373 665 424 597 424 501 C424 407 360 329 282 329 C210 329 162 391 162 487 C162 595 216 665 300 665 L300 665 Z " />
<glyph glyph-name="colon" unicode="&#x3a;" horiz-adv-x="600" d="M301 483 C256 483 220 448 220 402 C220 358 256 322 301 322 C345 322 381 358 381 402 C381 447 345 483 301 483 L301 483 Z M301 147 C256 147 220 112 220 66 C220 22 256 -14 301 -14 C345 -14 381 22 381 66 C381 111 345 147 301 147 L301 147 Z " />
<glyph glyph-name="semicolon" unicode="&#x3b;" horiz-adv-x="600" d="M232 -101 C330 -76 392 -15 392 56 C392 108 355 147 307 147 C264 147 230 113 230 70 C230 31 253 6 296 -1 C282 -15 264 -24 232 -32 L232 -101 Z M311 483 C266 483 230 448 230 402 C230 358 266 322 311 322 C355 322 391 358 391 402 C391 447 355 483 311 483 L311 483 Z " />
<glyph glyph-name="less" unicode="&#x3c;" horiz-adv-x="600" d="M181 326 L517 623 L472 670 L82 326 L472 -19 L517 29 L181 326 Z " />
<glyph glyph-name="equal" unicode="&#x3d;" horiz-adv-x="600" d="M575 329 L25 329 L25 259 L575 259 L575 329 Z M575 458 L25 458 L25 388 L575 388 L575 458 Z " />
<glyph glyph-name="greater" unicode="&#x3e;" horiz-adv-x="600" d="M418 326 L82 29 L127 -19 L517 326 L127 670 L82 623 L418 326 Z " />
<glyph glyph-name="question" unicode="&#x3f;" horiz-adv-x="600" d="M331 215 L331 299 C331 347 336 359 363 380 C415 419 415 419 424 429 C460 463 475 501 475 554 C475 663 405 733 296 733 C219 733 160 697 130 633 C118 608 118 605 114 558 L194 558 C195 581 196 585 198 594 C208 638 245 665 294 665 C358 665 401 621 401 555 C401 511 387 486 347 456 C274 402 260 382 260 334 L260 215 L331 215 Z M301 147 C256 147 220 112 220 66 C220 22 256 -14 301 -14 C345 -14 381 22 381 66 C381 111 345 147 301 147 L301 147 Z " />
<glyph glyph-name="at" unicode="&#x40;" horiz-adv-x="600" d="M517 136 C424 79 365 60 286 60 C219 60 156 86 120 128 C88 165 71 226 71 304 C71 513 178 665 324 665 C394 665 462 627 500 566 C524 528 535 483 535 427 C535 322 495 247 440 247 C418 247 403 263 403 287 C403 297 405 312 408 334 L438 508 C405 509 399 509 390 509 C315 509 259 492 225 459 C185 420 154 339 154 274 C154 217 196 175 252 175 C287 175 287 175 349 223 L351 224 L351 223 C351 218 356 212 366 205 C391 186 411 179 439 179 C535 179 603 283 603 428 C603 510 582 578 541 630 C489 694 408 733 324 733 C233 733 143 685 89 608 C30 525 -3 415 -3 301 C-3 207 21 132 70 78 C120 20 197 -13 279 -13 C370 -13 450 12 545 70 L517 136 Z M347 385 C338 329 326 297 306 273 C290 255 272 243 258 243 C240 243 228 258 228 281 C228 316 246 369 270 400 C287 424 299 430 356 439 L347 385 Z " />
<glyph glyph-name="A" unicode="A" horiz-adv-x="600" d="M301 776 L47 0 L126 0 L190 211 L413 211 L477 0 L556 0 L301 776 Z M301 569 L395 275 L208 275 L301 569 Z " />
<glyph glyph-name="B" unicode="B" horiz-adv-x="600" d="M108 720 C108 712 108 711 109 693 C110 630 112 569 113 510 L113 209 C110 89 109 23 108 13 L108 0 L299 0 C360 0 397 9 430 30 C485 67 516 127 516 199 C516 278 473 345 402 378 L393 382 L406 389 C414 393 427 405 441 421 C474 458 486 490 486 538 C486 604 455 662 405 692 C369 714 332 720 242 720 L108 720 Z M184 405 L184 656 L260 656 C303 656 342 650 359 641 C393 622 412 587 412 540 C412 457 351 405 254 405 L184 405 Z M184 64 L184 341 L272 341 C328 341 347 336 381 313 C421 287 442 244 442 192 C442 154 429 123 404 99 C376 72 351 64 298 64 L184 64 Z " />
<glyph glyph-name="C" unicode="C" horiz-adv-x="600" d="M506 562 C503 592 503 595 498 610 C475 686 408 733 323 733 C168 733 88 603 88 351 C88 109 165 -13 316 -13 C394 -13 459 22 488 78 C503 107 507 121 514 177 L443 177 L442 166 C434 95 390 55 318 55 C213 55 162 153 162 353 C162 564 215 665 325 665 C368 665 404 645 422 611 C430 595 431 592 433 562 L506 562 Z " />
<glyph glyph-name="D" unicode="D" horiz-adv-x="600" d="M112 720 L112 716 L113 700 L114 631 L117 510 L117 210 C114 89 113 23 112 13 L112 0 L276 0 C357 0 399 14 442 54 C501 109 527 204 527 361 C527 514 500 612 443 666 C401 706 357 720 276 720 L112 720 Z M188 64 L188 656 L271 656 C411 656 453 589 453 360 C453 132 412 64 271 64 L188 64 Z " />
<glyph glyph-name="E" unicode="E" horiz-adv-x="600" d="M139 0 L520 0 L520 64 L215 64 L215 336 L431 336 L431 400 L215 400 L215 656 L513 656 L513 720 L139 720 C139 712 139 711 140 693 C141 630 143 569 144 510 L144 209 C141 89 140 23 139 13 L139 0 Z " />
<glyph glyph-name="F" unicode="F" horiz-adv-x="600" d="M228 342 L462 342 L462 406 L228 406 L228 656 L538 656 L538 720 L152 720 L152 707 C153 697 154 671 154 631 L157 510 L157 209 C154 89 153 23 152 13 L152 0 L234 0 C232 38 228 176 228 209 L228 342 Z " />
<glyph glyph-name="G" unicode="G" horiz-adv-x="600" d="M503 534 L502 548 C492 663 422 733 318 733 C254 733 201 709 162 662 C111 601 89 506 89 343 C89 223 101 152 129 97 C165 27 229 -13 307 -13 C365 -13 423 13 457 53 L462 59 L462 0 L533 0 L533 359 L291 359 L291 295 L462 295 C462 212 457 176 440 140 C415 86 369 55 313 55 C210 55 163 148 163 351 C163 439 171 508 185 553 C209 625 256 665 319 665 C361 665 396 645 412 610 C424 587 425 579 425 534 L503 534 Z " />
<glyph glyph-name="H" unicode="H" horiz-adv-x="600" d="M176 404 L176 509 C176 543 180 677 182 720 L100 720 C100 713 100 711 101 693 L105 509 L105 209 C102 89 101 23 100 13 L100 0 L182 0 C180 38 176 176 176 209 L176 340 L424 340 L424 209 C424 180 420 42 418 0 L500 0 L500 4 L499 20 L498 89 L495 209 L495 509 C498 631 499 697 500 707 L500 720 L418 720 C420 676 424 543 424 509 L424 404 L176 404 Z " />
<glyph glyph-name="I" unicode="I" horiz-adv-x="600" d="M262 656 L264 600 C265 556 266 524 266 510 L266 210 C266 196 265 164 264 120 L262 64 L165 64 L165 0 L435 0 L435 64 L340 64 L339 120 C338 164 337 197 337 210 L337 510 C337 523 338 556 339 600 L340 656 L435 656 L435 720 L165 720 L165 656 L262 656 Z " />
<glyph glyph-name="J" unicode="J" horiz-adv-x="600" d="M390 656 C394 551 394 542 394 510 L394 246 C393 238 393 228 392 216 C390 158 390 158 385 138 C371 90 322 55 265 55 C229 55 195 70 174 96 C160 113 152 143 152 174 L152 211 C152 226 152 226 158 310 L75 310 C81 226 81 226 81 211 L81 176 C81 60 152 -13 265 -13 C374 -13 457 59 461 157 C463 206 464 235 465 246 L465 510 C465 538 466 568 467 600 C468 633 469 657 469 667 L469 697 L470 720 L259 720 L259 656 L390 656 Z " />
<glyph glyph-name="K" unicode="K" horiz-adv-x="600" d="M205 338 L212 338 L486 0 L585 0 L279 363 C356 413 411 485 528 690 L455 728 C403 580 276 410 214 404 L205 403 L205 510 C205 524 209 683 210 720 L129 720 L129 702 C130 673 132 609 134 510 L134 210 C131 64 130 48 129 10 L129 0 L210 0 C209 35 205 197 205 210 L205 338 Z " />
<glyph glyph-name="L" unicode="L" horiz-adv-x="600" d="M155 0 L542 0 L542 64 L236 64 L234 119 C232 164 231 197 231 209 L231 510 L233 600 L235 693 C236 711 236 712 236 720 L155 720 C155 713 155 711 156 693 L160 510 L160 209 C157 88 156 23 155 13 L155 0 Z " />
<glyph glyph-name="M" unicode="M" horiz-adv-x="600" d="M158 0 C156 39 152 177 152 210 L152 551 L301 197 L449 551 L449 210 C449 180 445 42 443 0 L525 0 L525 4 L524 20 L523 89 L520 210 L520 720 L446 720 L301 359 L155 720 L81 720 L81 210 C78 89 77 23 76 13 L76 0 L158 0 Z " />
<glyph glyph-name="N" unicode="N" horiz-adv-x="600" d="M423 179 L205 720 L120 720 L120 210 C117 89 116 23 115 13 L115 0 L197 0 C195 39 191 177 191 210 L191 577 L427 -7 L494 -7 L494 509 C494 542 495 572 496 600 C498 641 499 670 499 678 L499 700 L500 720 L418 720 L418 716 L419 700 L420 631 L423 509 L423 179 Z " />
<glyph glyph-name="O" unicode="O" horiz-adv-x="600" d="M303 733 C237 733 181 707 142 657 C97 601 79 515 79 361 C79 217 94 136 130 79 C168 20 230 -13 300 -13 C363 -13 418 13 457 62 C503 119 521 203 521 360 C521 502 506 583 470 641 C433 698 371 733 303 733 L303 733 Z M302 665 C341 665 378 644 403 607 C434 562 447 490 447 360 C447 240 436 171 411 125 C386 80 346 55 300 55 C258 55 223 74 198 112 C165 158 153 228 153 362 C153 479 164 548 189 595 C214 640 254 665 302 665 L302 665 Z " />
<glyph glyph-name="P" unicode="P" horiz-adv-x="600" d="M210 282 L254 282 C325 282 353 286 390 301 C471 333 513 401 513 500 C513 590 480 660 422 693 C386 713 352 720 287 720 L134 720 L134 716 L135 700 L136 631 L139 509 L139 210 C136 89 135 23 134 13 L134 0 L216 0 C214 39 210 177 210 210 L210 282 Z M210 345 L210 656 L271 656 C333 656 346 654 369 644 C413 625 439 570 439 499 C439 437 417 392 375 366 C352 352 315 345 268 345 L210 345 Z " />
<glyph glyph-name="Q" unicode="Q" horiz-adv-x="600" d="M450 55 L455 61 C501 114 520 204 520 359 C520 502 505 582 469 641 C432 699 370 733 299 733 C235 733 179 706 141 657 C96 600 78 515 78 361 C78 217 93 136 129 79 C167 20 228 -13 300 -13 C336 -13 367 -5 397 12 L448 -59 L538 -59 L450 55 Z M301 665 C340 665 377 644 402 607 C433 562 446 491 446 360 C446 240 435 171 410 125 C385 80 345 55 299 55 C257 55 223 74 196 112 C164 158 152 228 152 362 C152 479 163 548 188 595 C213 640 253 665 301 665 L301 665 Z " />
<glyph glyph-name="R" unicode="R" horiz-adv-x="600" d="M207 297 L263 297 C281 297 304 298 318 299 L491 0 L580 0 L388 314 C432 337 457 356 473 377 C500 411 516 463 516 515 C516 594 483 660 428 693 C395 712 360 720 302 720 L131 720 L131 706 C132 683 136 517 136 508 L136 209 C133 66 132 47 131 10 L131 0 L212 0 C211 37 207 196 207 209 L207 297 Z M207 361 L207 656 L267 656 C328 656 357 652 381 640 C420 622 442 578 442 519 C442 461 421 412 384 386 C363 370 329 361 292 361 L207 361 Z " />
<glyph glyph-name="S" unicode="S" horiz-adv-x="600" d="M503 643 C478 666 478 666 467 674 C411 714 358 733 304 733 C192 733 114 661 114 557 C114 485 151 430 235 381 L321 330 C421 271 440 248 440 189 C440 110 383 55 300 55 C238 55 189 85 140 153 L84 108 C108 78 108 78 119 67 C171 14 233 -13 306 -13 C431 -13 514 68 514 191 C514 276 482 316 359 389 L280 436 C263 446 232 470 215 486 C198 503 188 528 188 558 C188 620 238 665 305 665 C354 665 386 649 459 590 L503 643 Z " />
<glyph glyph-name="T" unicode="T" horiz-adv-x="600" d="M342 0 C341 35 337 197 337 210 L337 656 L541 656 L541 720 L60 720 L60 656 L266 656 L266 210 C266 196 262 40 261 0 L342 0 Z " />
<glyph glyph-name="U" unicode="U" horiz-adv-x="600" d="M100 720 C100 713 100 711 101 693 L105 511 L105 245 C105 186 110 147 121 117 C148 41 222 -13 300 -13 C364 -13 432 28 465 87 C486 125 494 168 494 245 L494 511 C497 631 498 697 499 707 L499 720 L417 720 C419 678 423 543 423 511 L423 245 C421 190 420 160 418 153 C404 96 355 55 300 55 C251 55 208 85 188 133 C179 155 179 155 176 245 L176 511 C176 543 180 676 182 720 L100 720 Z " />
<glyph glyph-name="V" unicode="V" horiz-adv-x="600" d="M296 104 L164 720 L83 720 C121 567 142 479 167 360 C194 232 220 110 245 -7 L347 -7 C361 61 375 125 387 182 C448 471 454 502 509 720 L428 720 L296 104 Z " />
<glyph glyph-name="W" unicode="W" horiz-adv-x="600" d="M296 515 L180 152 L162 363 C148 526 147 554 143 720 L62 720 C72 631 80 557 80 542 C84 502 87 462 90 422 C96 345 103 264 109 180 C111 173 115 93 119 -7 L202 -7 L296 310 L389 -7 L472 -7 C476 87 480 167 482 180 L497 362 L511 542 C511 552 519 627 529 720 L448 720 C444 557 442 523 429 363 L411 152 L296 515 Z " />
<glyph glyph-name="X" unicode="X" horiz-adv-x="600" d="M92 720 C186 530 190 521 265 362 C206 242 146 121 87 0 L171 0 C233 146 242 166 300 291 C361 162 383 113 429 0 L514 0 C429 172 414 202 337 365 C395 484 452 602 509 720 L425 720 C360 567 356 558 300 438 C243 562 225 603 176 720 L92 720 Z " />
<glyph glyph-name="Y" unicode="Y" horiz-adv-x="600" d="M60 720 C93 647 126 574 160 501 C189 437 218 372 246 305 L246 210 C246 196 242 41 241 0 L322 0 C321 37 317 197 317 210 L317 305 C398 492 407 510 503 720 L422 720 L347 539 C326 489 304 440 282 391 C229 507 217 534 192 596 C175 638 158 679 141 720 L60 720 Z " />
<glyph glyph-name="Z" unicode="Z" horiz-adv-x="600" d="M114 720 L114 656 L404 656 C269 371 218 270 103 54 L103 0 L513 0 L513 64 L192 64 C328 347 379 450 489 666 L489 720 L114 720 Z " />
<glyph glyph-name="bracketleft" unicode="&#x5b;" horiz-adv-x="600" d="M460 -24 L460 40 L239 40 L239 680 L460 680 L460 744 L168 744 L168 -24 L460 -24 Z " />
<glyph glyph-name="backslash" unicode="&#x5c;" horiz-adv-x="600" d="M415 -26 L488 -26 L185 746 L112 746 L415 -26 Z " />
<glyph glyph-name="bracketright" unicode="&#x5d;" horiz-adv-x="600" d="M139 -24 L431 -24 L431 744 L139 744 L139 680 L360 680 L360 40 L139 40 L139 -24 Z " />
<glyph glyph-name="asciicircum" unicode="&#x5e;" horiz-adv-x="600" d="M343 720 L257 720 L103 347 L204 347 L300 587 L396 347 L497 347 L343 720 Z " />
<glyph glyph-name="underscore" unicode="&#x5f;" horiz-adv-x="600" d="M600 -125 L600 -55 L0 -55 L0 -125 L600 -125 Z " />
<glyph glyph-name="grave" unicode="&#x60;" horiz-adv-x="600" d="M199 770 L144 709 L337 581 L375 629 L199 770 Z " />
<glyph glyph-name="a" unicode="a" horiz-adv-x="600" d="M155 444 L169 449 C225 472 253 479 287 479 C323 479 352 465 368 440 C382 419 385 402 385 357 L385 331 C328 352 303 358 269 358 C171 358 100 277 100 165 C100 58 163 -13 258 -13 C311 -13 348 6 390 55 C397 22 399 15 408 -5 L412 -14 L481 -6 L476 9 C461 49 456 92 456 168 L456 357 C456 475 393 547 290 547 C245 547 212 539 137 511 L155 444 Z M385 146 C346 85 305 55 261 55 C209 55 174 98 174 163 C174 240 216 290 280 290 C311 290 338 284 385 267 L385 146 Z " />
<glyph glyph-name="b" unicode="b" horiz-adv-x="600" d="M189 515 L189 531 C189 541 193 703 194 733 L113 733 C114 703 118 542 118 531 L118 288 C118 125 115 88 96 23 L88 -6 L159 -14 L162 -4 C168 15 169 19 175 50 L177 47 C209 9 256 -13 307 -13 C350 -13 394 4 432 34 C491 83 521 162 521 267 C521 364 494 438 439 491 C401 527 353 547 303 547 C267 547 226 536 196 519 L189 515 Z M189 434 C222 466 251 479 291 479 C321 479 348 470 372 453 C423 416 447 354 447 262 C447 139 389 55 304 55 C255 55 223 79 189 141 L189 434 Z " />
<glyph glyph-name="c" unicode="c" horiz-adv-x="600" d="M471 138 C468 135 465 132 462 128 C414 76 375 55 327 55 C280 55 232 83 206 126 C184 161 173 208 173 268 C173 333 186 384 211 420 C236 456 282 479 327 479 C368 479 404 462 431 430 C440 420 441 418 460 385 L524 427 C501 458 493 468 479 483 C442 523 384 547 326 547 C258 547 193 515 153 461 C116 412 99 349 99 263 C99 182 114 126 150 77 C193 18 255 -13 331 -13 C403 -13 452 13 521 87 L471 138 Z " />
<glyph glyph-name="d" unicode="d" horiz-adv-x="600" d="M409 515 L402 519 C373 536 330 547 295 547 C246 547 198 527 160 491 C105 438 78 364 78 267 C78 174 103 99 149 51 C189 10 241 -13 292 -13 C342 -13 387 8 421 47 L423 50 C429 20 431 13 436 -4 L440 -14 L510 -6 C482 92 480 109 480 288 L480 531 C480 541 484 703 485 733 L404 733 C405 701 409 542 409 531 L409 515 Z M409 141 C375 79 344 55 295 55 C210 55 152 139 152 263 C152 354 176 415 227 453 C250 470 278 479 307 479 C347 479 376 466 409 434 L409 141 Z " />
<glyph glyph-name="e" unicode="e" horiz-adv-x="600" d="M518 246 L518 277 C518 440 436 547 310 547 C176 547 87 434 87 265 C87 94 172 -13 308 -13 C373 -13 416 -2 514 40 L483 107 C410 69 365 55 312 55 C218 55 158 128 158 244 L158 246 L518 246 Z M158 310 C170 379 183 409 213 439 C239 465 272 479 306 479 C339 479 373 465 397 440 C425 411 438 379 447 310 L158 310 Z " />
<glyph glyph-name="f" unicode="f" horiz-adv-x="600" d="M308 0 C307 43 303 213 303 224 L303 470 L475 470 L475 534 L303 534 L303 550 C303 630 332 665 398 665 C431 665 445 661 535 624 L535 700 C481 723 439 733 396 733 C345 733 292 708 263 670 C239 639 232 612 232 552 L232 534 L96 534 L96 470 L232 470 L232 224 C232 208 229 63 227 0 L308 0 Z " />
<glyph glyph-name="g" unicode="g" horiz-adv-x="600" d="M439 534 C433 515 433 511 429 498 L424 502 C375 535 341 547 295 547 C238 547 187 526 154 489 C114 444 90 369 90 289 C90 148 169 45 276 45 C324 45 379 62 413 88 L419 92 L419 62 C419 -35 373 -95 299 -95 C259 -95 216 -77 189 -51 C187 -49 187 -49 174 -34 L121 -80 C137 -95 137 -95 141 -99 C185 -139 241 -163 294 -163 C352 -163 409 -135 447 -88 C476 -51 490 -6 490 54 L490 391 C490 428 496 473 510 534 L439 534 Z M419 180 C383 136 339 113 289 113 C216 113 164 187 164 293 C164 408 214 479 294 479 C341 479 382 459 419 417 L419 180 Z " />
<glyph glyph-name="h" unicode="h" horiz-adv-x="600" d="M194 455 L194 531 C194 559 195 586 196 613 C198 653 199 682 199 690 L199 712 L200 733 L118 733 L118 727 L119 705 C120 644 122 586 123 531 L123 210 C120 89 119 23 118 13 L118 0 L200 0 C198 39 194 177 194 210 L194 263 C195 269 195 277 196 288 C201 340 202 343 221 380 C251 435 305 479 345 479 C360 479 380 469 391 456 C409 432 416 392 416 317 L416 210 C416 180 412 42 410 0 L492 0 C492 8 492 9 491 27 L489 120 L487 210 L487 340 C487 407 480 444 462 477 C439 518 393 547 351 547 C300 547 246 517 204 467 L194 455 Z " />
<glyph glyph-name="i" unicode="i" horiz-adv-x="600" d="M272 470 L274 414 C275 370 276 337 276 324 L276 210 C276 196 273 58 272 0 L352 0 C351 42 347 195 347 210 L347 324 C347 340 351 488 352 534 L124 534 L124 470 L272 470 Z M311 735 C275 735 246 707 246 672 C246 635 274 607 310 607 C346 607 374 636 374 671 C374 706 345 735 311 735 L311 735 Z " />
<glyph glyph-name="j" unicode="j" horiz-adv-x="600" d="M331 470 L332 414 C333 371 334 338 334 324 L334 168 C333 -21 333 -21 316 -50 C301 -77 270 -95 239 -95 C186 -95 147 -49 147 13 C147 23 147 27 149 53 L74 53 C73 40 73 34 73 27 C73 -84 142 -163 239 -163 C298 -163 357 -128 382 -78 C404 -34 404 -34 405 168 L405 324 C405 337 409 495 410 534 L182 534 L182 470 L331 470 Z M369 735 C333 735 304 707 304 672 C304 635 332 607 368 607 C404 607 432 636 432 671 C432 706 403 735 369 735 L369 735 Z " />
<glyph glyph-name="k" unicode="k" horiz-adv-x="600" d="M140 0 L221 0 C219 87 216 195 216 210 L216 212 L254 246 L460 0 L558 0 L300 290 C390 379 416 408 516 534 L422 534 C389 481 305 385 216 299 L216 523 C216 531 217 566 218 613 C219 665 221 705 221 733 L140 733 L140 719 L141 705 L145 523 L145 210 C142 65 141 48 140 10 L140 0 Z " />
<glyph glyph-name="l" unicode="l" horiz-adv-x="600" d="M263 669 L264 613 L267 523 L267 210 L263 27 C262 19 262 13 262 9 C262 7 262 4 263 0 L343 0 C343 24 342 52 340 120 C339 157 338 187 338 210 L338 523 C341 644 342 709 343 719 L343 733 L116 733 L116 669 L263 669 Z " />
<glyph glyph-name="m" unicode="m" horiz-adv-x="600" d="M46 534 C63 470 69 411 69 304 L69 210 C69 194 68 163 67 120 L65 27 C64 14 64 13 64 0 L145 0 L145 18 C145 22 144 46 143 89 L140 210 L140 331 L140 370 L142 394 L143 419 C162 457 194 479 228 479 C244 479 257 470 262 457 C269 438 271 414 271 327 L271 210 C269 114 267 50 266 18 L266 0 L347 0 C346 51 342 200 342 210 L342 331 L343 366 L344 413 L345 429 C371 464 394 479 425 479 C440 479 454 473 462 463 C471 453 473 440 473 398 L473 210 C471 114 469 50 468 18 L468 0 L549 0 C548 37 544 197 544 210 L544 369 C544 455 541 476 526 501 C510 527 469 547 430 547 C394 547 369 535 328 497 L326 500 C305 532 279 547 244 547 C204 547 160 529 136 502 L132 497 C129 511 128 516 127 518 C126 524 125 526 122 534 L46 534 Z " />
<glyph glyph-name="n" unicode="n" horiz-adv-x="600" d="M169 443 C165 493 164 498 155 534 L87 534 C106 445 110 397 110 251 L110 210 C110 185 107 58 105 0 L187 0 C185 37 181 199 181 210 L181 263 C181 308 190 346 208 379 C239 438 293 479 338 479 C359 479 382 465 393 444 C405 422 411 381 411 317 L411 210 C411 196 407 41 406 0 L487 0 C486 28 486 44 482 210 L482 340 C482 382 479 418 473 438 C456 504 402 547 339 547 C288 547 219 511 187 467 L169 443 Z " />
<glyph glyph-name="o" unicode="o" horiz-adv-x="600" d="M311 547 C241 547 181 516 144 461 C110 412 95 352 95 266 C95 182 110 122 143 73 C180 19 241 -13 308 -13 C374 -13 435 19 472 73 C505 122 520 182 520 267 C520 352 505 412 472 461 C435 514 374 547 311 547 L311 547 Z M310 479 C398 479 446 404 446 267 C446 128 398 55 307 55 C217 55 169 128 169 266 C169 408 216 479 310 479 L310 479 Z " />
<glyph glyph-name="p" unicode="p" horiz-adv-x="600" d="M189 19 L196 15 C225 -2 267 -13 303 -13 C430 -13 521 103 521 265 C521 360 497 431 449 481 C410 523 359 546 307 546 C256 546 210 524 177 486 L175 483 C170 508 167 519 164 529 C162 535 160 541 159 547 L88 539 L92 524 C116 443 118 417 118 245 L118 2 C118 -13 114 -165 113 -206 L194 -206 C193 -171 189 -10 189 2 L189 19 Z M189 392 C223 454 255 478 304 478 C389 478 447 394 447 271 C447 181 422 117 372 81 C349 64 320 55 291 55 C251 55 221 68 189 100 L189 392 Z " />
<glyph glyph-name="q" unicode="q" horiz-adv-x="600" d="M409 19 L409 2 C409 -11 405 -168 404 -206 L485 -206 C484 -171 480 -10 480 2 L480 245 C480 425 481 437 510 539 L440 547 C431 522 430 517 423 483 L421 486 C388 524 342 546 291 546 C246 546 203 529 166 498 C107 448 77 370 77 265 C77 103 168 -13 295 -13 C331 -13 374 -2 402 15 L409 19 Z M409 100 C377 68 347 55 307 55 C278 55 250 64 226 81 C176 117 151 181 151 271 C151 394 209 478 294 478 C343 478 375 454 409 392 L409 100 Z " />
<glyph glyph-name="r" unicode="r" horiz-adv-x="600" d="M237 0 C236 40 232 200 232 210 L232 233 C232 348 318 479 393 479 C432 479 444 453 445 368 L516 368 C514 421 513 429 506 454 C492 513 449 547 392 547 C360 547 333 538 305 518 C276 498 246 465 232 439 L225 425 C217 484 215 499 206 534 L136 534 L140 518 C155 446 161 371 161 251 L161 210 C161 194 157 48 156 0 L237 0 Z " />
<glyph glyph-name="s" unicode="s" horiz-adv-x="600" d="M465 484 C392 533 354 547 292 547 C200 547 127 484 127 403 C127 339 173 287 260 254 L315 234 C375 211 402 181 402 138 C402 88 366 55 311 55 C251 55 195 82 134 139 L93 80 C167 17 239 -13 313 -13 C404 -13 476 53 476 137 C476 212 432 261 330 299 L286 316 C232 336 201 367 201 400 C201 443 242 479 292 479 C335 479 368 466 432 424 L465 484 Z " />
<glyph glyph-name="t" unicode="t" horiz-adv-x="600" d="M199 534 L81 534 L81 470 L199 470 L199 179 C199 106 208 65 228 37 C253 5 290 -13 335 -13 C409 -13 470 26 510 100 C512 104 515 108 517 113 C520 118 522 123 525 127 L455 145 C451 135 448 130 437 114 C409 72 380 55 340 55 C288 55 270 86 270 179 L270 470 L461 470 L461 534 L270 534 C273 622 274 651 276 700 L194 700 C194 692 194 689 195 673 L199 534 Z " />
<glyph glyph-name="u" unicode="u" horiz-adv-x="600" d="M430 91 C435 42 436 31 444 0 L513 0 L509 16 C494 91 490 148 490 283 L490 324 C490 348 493 480 495 534 L414 534 C415 493 419 339 419 324 L419 271 C419 227 410 187 393 155 C361 95 309 55 263 55 C241 55 219 69 208 90 C196 112 190 153 190 217 L190 324 C190 338 194 497 195 534 L114 534 L114 516 C115 486 117 422 119 324 L119 194 C119 152 122 116 128 96 C145 31 199 -13 261 -13 C313 -13 378 21 412 67 L430 91 Z " />
<glyph glyph-name="v" unicode="v" horiz-adv-x="600" d="M427 547 L299 116 L170 547 L90 547 L178 269 C225 113 247 38 258 -13 L339 -13 C352 44 370 108 419 269 L507 547 L427 547 Z " />
<glyph glyph-name="w" unicode="w" horiz-adv-x="600" d="M260 411 C233 305 216 244 179 128 C148 292 137 371 121 547 L35 547 C48 501 93 229 128 -13 L206 -13 C212 12 218 30 254 152 C269 197 282 243 296 291 C309 244 323 197 337 152 C372 34 377 17 385 -13 L463 -13 C498 228 543 502 556 547 L470 547 C454 372 443 292 412 128 C373 252 361 293 331 411 L260 411 Z " />
<glyph glyph-name="x" unicode="x" horiz-adv-x="600" d="M506 534 L423 534 L299 344 L173 534 L88 534 L258 285 L48 0 L141 0 L299 232 L458 0 L552 0 L340 288 L506 534 Z " />
<glyph glyph-name="y" unicode="y" horiz-adv-x="600" d="M444 534 L305 166 L173 534 L93 534 L266 69 C256 40 235 -6 218 -38 C193 -83 176 -97 150 -97 C122 -97 100 -76 81 -29 L76 -17 L15 -48 L19 -59 C43 -126 91 -165 150 -165 C219 -165 267 -113 320 20 L525 534 L444 534 Z " />
<glyph glyph-name="z" unicode="z" horiz-adv-x="600" d="M135 534 L135 470 L403 470 C330 371 227 233 92 55 L92 0 L508 0 L508 64 L187 64 C260 164 363 303 496 479 L496 534 L135 534 Z " />
<glyph glyph-name="braceleft" unicode="&#x7b;" horiz-adv-x="600" d="M228 580 C228 632 231 645 247 661 C259 672 290 680 320 680 L431 680 L431 744 L314 744 C200 744 157 705 157 602 L157 477 C157 421 145 402 100 391 L100 324 C145 312 157 294 157 238 L157 129 C157 19 202 -24 318 -24 L431 -24 L431 40 L320 40 C293 40 263 47 252 55 C233 70 228 87 228 143 L228 240 C228 301 212 334 171 357 C213 380 228 411 228 473 L228 580 Z " />
<glyph glyph-name="bar" unicode="&#x7c;" horiz-adv-x="600" d="M268 -206 L333 -206 L333 794 L268 794 L268 -206 Z " />
<glyph glyph-name="braceright" unicode="&#x7d;" horiz-adv-x="600" d="M372 143 C372 90 368 74 352 58 C341 48 311 40 280 40 L169 40 L169 -24 L282 -24 C398 -24 443 19 443 129 L443 238 C443 294 455 312 500 324 L500 391 C455 402 443 421 443 477 L443 602 C443 705 400 744 286 744 L169 744 L169 680 L280 680 C306 680 338 673 349 664 C368 650 372 634 372 580 L372 473 C372 411 387 380 429 357 C388 334 372 301 372 240 L372 143 Z " />
<glyph glyph-name="asciitilde" unicode="&#x7e;" horiz-adv-x="600" d="M498 458 C488 422 487 419 477 403 C462 377 438 361 415 361 C393 361 375 369 319 406 C256 446 206 466 168 466 C121 466 74 438 48 394 C29 362 24 344 18 289 L94 270 C102 311 103 317 111 334 C123 364 144 383 165 383 C191 383 211 373 289 323 C346 286 380 273 416 273 C470 273 524 310 555 369 C568 394 571 404 581 449 L498 458 Z " />
<glyph glyph-name="exclamdown" unicode="&#xa1;" horiz-adv-x="600" d="M251 0 L348 0 L330 501 L264 501 L251 0 Z M301 734 C256 734 220 699 220 653 C220 609 256 573 301 573 C345 573 381 609 381 653 C381 698 345 734 301 734 L301 734 Z " />
<glyph glyph-name="cent" unicode="&#xa2;" horiz-adv-x="600" d="M360 657 L360 750 L289 750 L289 657 L280 655 C235 648 184 615 152 574 C116 527 99 463 99 378 C99 297 115 240 150 192 C183 147 229 117 280 107 L289 105 L289 -30 L360 -30 L360 105 C410 114 463 142 507 186 C515 193 520 198 523 201 L473 253 C454 232 453 231 445 223 C422 200 376 171 363 171 L360 171 L360 592 L366 590 C407 577 435 551 459 498 L526 542 C502 574 492 586 482 596 C452 627 396 657 369 657 L360 657 Z M289 172 L283 174 C211 199 173 271 173 381 C173 448 186 501 210 536 C227 559 258 582 283 589 L289 591 L289 172 Z " />
<glyph glyph-name="sterling" unicode="&#xa3;" horiz-adv-x="600" d="M529 605 L522 619 C486 692 420 733 338 733 C282 733 223 708 191 671 C167 643 148 594 148 561 C148 537 158 479 170 434 L73 434 L73 370 L189 370 C202 323 213 258 213 231 C213 193 200 160 148 68 C139 53 135 46 128 35 L168 -16 C170 -15 187 -8 218 6 C252 20 265 23 292 23 C318 23 325 21 365 4 C391 -7 416 -13 438 -13 C466 -13 501 0 524 20 C530 25 532 27 552 47 L509 95 C477 65 457 55 434 55 C423 55 410 59 384 70 C350 86 328 91 298 91 C279 91 260 88 243 83 L236 81 L250 106 C274 148 287 192 287 227 C287 264 279 312 263 370 L445 370 L445 434 L243 434 C226 493 222 518 222 551 C222 584 231 610 249 628 C271 651 307 665 341 665 C391 665 432 639 455 592 L460 582 L529 605 Z " />
<glyph glyph-name="currency" unicode="&#xa4;" horiz-adv-x="600" d="M114 504 C81 445 72 417 72 365 C72 314 81 286 114 227 L11 121 L60 72 L162 177 L165 175 C204 146 251 130 300 130 C349 130 396 146 435 175 L438 177 L540 72 L589 121 L485 227 C519 286 528 314 528 365 C528 417 519 445 485 504 L589 609 L540 658 L438 553 L435 555 C397 585 349 601 300 601 C251 601 203 585 165 555 L162 553 L60 658 L11 609 L114 504 Z M302 536 C392 536 463 461 463 365 C463 269 392 195 300 195 C208 195 137 269 137 365 C137 463 208 536 302 536 L302 536 Z " />
<glyph glyph-name="yen" unicode="&#xa5;" horiz-adv-x="600" d="M92 368 L218 368 L246 305 L107 305 L107 241 L246 241 L246 210 C246 196 242 41 241 0 L322 0 C321 37 317 197 317 210 L317 241 L456 241 L456 305 L317 305 L345 368 L471 368 L471 432 L373 432 L403 501 C435 570 467 641 503 720 L422 720 L347 539 C326 489 304 440 282 391 C229 507 217 534 192 596 C175 638 158 679 141 720 L60 720 C127 573 170 477 190 432 L92 432 L92 368 Z " />
<glyph glyph-name="brokenbar" unicode="&#xa6;" horiz-adv-x="600" d="M268 794 L268 455 L333 455 L333 794 L268 794 Z M268 134 L268 -206 L333 -206 L333 134 L268 134 Z " />
<glyph glyph-name="section" unicode="&#xa7;" horiz-adv-x="600" d="M167 514 L161 510 C123 487 99 446 99 405 C99 380 107 358 124 333 C142 307 161 291 234 237 C350 153 350 153 361 144 C376 130 386 109 386 88 C386 46 351 19 297 19 C237 19 206 50 206 109 L206 128 L134 128 C133 107 133 106 133 100 C133 11 201 -49 302 -49 C397 -49 460 6 460 87 C460 117 450 147 435 166 L431 171 L437 174 C475 197 500 239 500 280 C500 305 492 327 475 352 C457 378 437 394 365 447 C250 530 250 530 238 541 C222 555 213 575 213 596 C213 638 248 665 303 665 C361 665 393 634 393 576 L393 557 L465 557 C466 579 466 580 466 586 C466 673 397 733 297 733 C202 733 139 678 139 597 C139 568 149 537 164 518 L167 514 Z M387 213 C353 238 340 248 282 290 C186 358 167 378 167 409 C167 434 184 460 207 470 L212 472 C247 446 262 434 317 395 C414 326 432 307 432 276 C432 250 415 225 392 215 L387 213 Z " />
<glyph glyph-name="dieresis" unicode="&#xa8;" horiz-adv-x="600" d="M211 732 C172 732 141 702 141 663 C141 625 172 594 210 594 C248 594 279 625 279 663 C279 701 248 732 211 732 L211 732 Z M391 732 C352 732 321 702 321 663 C321 625 352 594 390 594 C428 594 459 625 459 663 C459 701 428 732 391 732 L391 732 Z " />
<glyph glyph-name="copyright" unicode="&#xa9;" horiz-adv-x="600" d="M428 463 C427 474 427 474 424 491 C418 545 367 586 307 586 C209 586 157 505 157 352 C157 205 207 128 303 128 C373 128 420 168 429 234 L430 242 L433 262 L368 262 C366 247 365 240 364 235 C359 212 335 196 303 196 C247 196 220 247 220 353 C220 465 248 518 307 518 C337 518 358 502 360 479 L361 474 L362 463 L428 463 Z M302 733 C141 733 10 565 10 358 C10 157 142 -13 299 -13 C458 -13 590 156 590 360 C590 562 458 733 302 733 L302 733 Z M301 665 C334 665 377 650 408 626 C482 571 527 471 527 360 C527 195 423 55 299 55 C178 55 73 195 73 359 C73 526 177 665 301 665 L301 665 Z " />
<glyph glyph-name="ordfeminine" unicode="&#xaa;" horiz-adv-x="600" d="M207 544 C259 564 270 567 291 567 C331 567 347 547 347 497 L347 488 C316 500 301 503 283 503 C217 503 171 452 171 379 C171 311 212 265 274 265 C305 265 329 276 352 301 L355 292 L358 282 L363 270 L366 264 L418 270 C404 311 401 330 401 381 L401 497 C401 572 360 619 293 619 C264 619 242 614 193 594 L207 544 Z M347 369 C323 333 301 317 276 317 C246 317 227 341 227 378 C227 423 250 451 289 451 C305 451 319 448 347 438 L347 369 Z " />
<glyph glyph-name="guillemotleft" unicode="&#xab;" horiz-adv-x="600" d="M535 620 L262 362 L535 102 L581 151 L357 362 L581 572 L535 620 Z M292 620 L19 362 L292 102 L338 151 L114 362 L338 572 L292 620 Z " />
<glyph glyph-name="logicalnot" unicode="&#xac;" horiz-adv-x="600" d="M504 0 L575 0 L575 292 L25 292 L25 222 L504 222 L504 0 Z " />
<glyph glyph-name="registered" unicode="&#xae;" horiz-adv-x="600" d="M302 733 C141 733 10 564 10 358 C10 157 142 -13 299 -13 C458 -13 590 156 590 359 C590 561 457 733 302 733 L302 733 Z M459 142 C414 87 356 55 300 55 C177 55 73 195 73 359 C73 524 177 665 299 665 C422 665 527 525 527 360 C527 287 507 216 471 159 L363 332 L367 334 C408 358 432 403 432 453 C432 537 382 586 296 586 L182 586 C182 582 183 542 185 465 L185 261 C183 187 182 147 182 142 L254 142 L253 156 C251 211 250 245 250 261 L250 315 L273 315 L300 315 L404 142 L459 142 Z M250 378 L250 522 L275 522 C307 522 321 521 333 516 C357 508 369 488 369 456 C369 406 340 378 290 378 L250 378 Z " />
<glyph glyph-name="macron" unicode="&#xaf;" horiz-adv-x="600" d="M468 610 L468 678 L132 678 L132 610 L468 610 Z " />
<glyph glyph-name="degree" unicode="&#xb0;" horiz-adv-x="600" d="M303 733 C182 733 87 645 87 534 C87 424 182 335 300 335 C418 335 513 424 513 534 C513 643 418 733 303 733 L303 733 Z M302 665 C377 665 439 606 439 534 C439 461 377 403 300 403 C223 403 161 461 161 534 C161 608 223 665 302 665 L302 665 Z " />
<glyph glyph-name="plusminus" unicode="&#xb1;" horiz-adv-x="600" d="M575 70 L25 70 L25 0 L575 0 L575 70 Z M335 632 L265 632 L265 394 L25 394 L25 324 L265 324 L265 88 L335 88 L335 324 L575 324 L575 394 L335 394 L335 632 Z " />
<glyph glyph-name="twosuperior" unicode="&#xb2;" horiz-adv-x="600" d="M416 405 L253 405 C257 432 269 451 298 477 C344 516 344 516 355 526 C400 566 415 592 415 629 C415 687 373 726 312 726 C243 726 201 687 193 614 L192 607 L191 598 L257 598 C261 650 276 668 312 668 C337 668 353 653 353 629 C353 605 337 585 283 542 C199 476 184 446 185 348 L416 348 L416 405 Z " />
<glyph glyph-name="threesuperior" unicode="&#xb3;" horiz-adv-x="600" d="M227 615 L238 635 C251 655 272 668 294 668 C321 668 343 649 343 624 C343 598 318 577 286 575 L260 575 L260 516 L279 516 C330 516 358 495 358 455 C358 420 334 399 295 399 C259 399 248 408 223 458 L164 425 C203 363 237 341 293 341 C367 341 420 389 420 457 C420 494 404 527 377 545 L368 551 C398 579 405 593 405 622 C405 681 356 726 293 726 C244 726 206 704 178 659 L174 653 L170 646 L227 615 Z " />
<glyph glyph-name="acute" unicode="&#xb4;" horiz-adv-x="600" d="M401 770 L225 629 L263 581 L456 709 L401 770 Z " />
<glyph glyph-name="mu" unicode="&#xb5;" horiz-adv-x="600" d="M111 534 L111 516 C112 487 114 423 116 324 L116 -5 C113 -145 111 -215 111 -215 L192 -215 C191 -172 187 -18 187 -5 L187 48 C221 7 259 -13 302 -13 C347 -13 382 7 417 53 L417 0 L488 0 L488 324 C488 339 492 490 493 534 L412 534 C413 492 417 338 417 324 L417 242 C417 167 407 127 380 96 C359 71 327 55 299 55 C275 55 251 65 231 84 C196 117 187 149 187 242 L187 324 C187 339 191 490 192 534 L111 534 Z " />
<glyph glyph-name="paragraph" unicode="&#xb6;" horiz-adv-x="600" d="M268 -109 L339 -109 L339 663 L442 663 L442 -109 L513 -109 L513 663 L558 663 L558 720 L288 720 C232 720 184 710 150 691 C87 655 48 589 48 517 C48 432 99 361 179 333 C208 322 229 319 268 319 L268 -109 Z " />
<glyph glyph-name="periodcentered" unicode="&#xb7;" horiz-adv-x="600" d="M301 351 C256 351 220 316 220 270 C220 226 256 190 301 190 C345 190 381 226 381 270 C381 315 345 351 301 351 L301 351 Z " />
<glyph glyph-name="cedilla" unicode="&#xb8;" horiz-adv-x="600" d="M315 19 L269 -108 C294 -100 313 -97 329 -97 C350 -97 367 -108 367 -122 C367 -136 348 -149 328 -149 C310 -149 289 -142 252 -124 L230 -179 C280 -201 311 -209 342 -209 C397 -209 441 -172 441 -125 C441 -81 407 -51 354 -48 L377 19 L315 19 Z " />
<glyph glyph-name="onesuperior" unicode="&#xb9;" horiz-adv-x="600" d="M334 740 L198 700 L198 639 L270 660 L270 405 L203 405 L203 348 L401 348 L401 405 L334 405 L334 740 Z " />
<glyph glyph-name="ordmasculine" unicode="&#xba;" horiz-adv-x="600" d="M302 619 C211 619 157 553 157 441 C157 332 211 265 300 265 C389 265 443 332 443 442 C443 495 433 533 411 564 C386 598 345 619 302 619 L302 619 Z M302 567 C357 567 387 523 387 442 C387 360 357 317 300 317 C243 317 213 360 213 441 C213 525 242 567 302 567 L302 567 Z " />
<glyph glyph-name="guillemotright" unicode="&#xbb;" horiz-adv-x="600" d="M65 620 L19 572 L243 362 L19 151 L65 102 L339 362 L65 620 Z M309 620 L263 572 L487 362 L263 151 L309 102 L582 362 L309 620 Z " />
<glyph glyph-name="onequarter" unicode="&#xbc;" horiz-adv-x="600" d="M436 733 L115 -13 L178 -13 L501 733 L436 733 Z M152 740 L16 700 L16 639 L88 660 L88 405 L21 405 L21 348 L219 348 L219 405 L152 405 L152 740 Z M513 379 L444 379 L304 129 L304 89 L449 89 L449 0 L513 0 L513 89 L564 89 L564 146 L513 146 L513 379 Z M449 146 L384 146 L449 264 L449 146 Z " />
<glyph glyph-name="onehalf" unicode="&#xbd;" horiz-adv-x="600" d="M428 733 L107 -13 L170 -13 L493 733 L428 733 Z M152 740 L16 700 L16 639 L88 660 L88 405 L21 405 L21 348 L219 348 L219 405 L152 405 L152 740 Z M584 57 L421 57 C425 84 437 103 466 129 C512 168 512 168 523 178 C568 218 583 244 583 281 C583 339 541 378 480 378 C411 378 369 339 361 266 L360 259 L359 250 L425 250 C429 302 444 320 480 320 C505 320 521 305 521 281 C521 257 505 237 451 194 C367 128 352 98 353 0 L584 0 L584 57 Z " />
<glyph glyph-name="threequarters" unicode="&#xbe;" horiz-adv-x="600" d="M456 733 L135 -13 L198 -13 L521 733 L456 733 Z M533 379 L464 379 L324 129 L324 89 L469 89 L469 0 L533 0 L533 89 L584 89 L584 146 L533 146 L533 379 Z M469 146 L404 146 L469 264 L469 146 Z M79 615 L90 635 C103 655 124 668 146 668 C173 668 195 649 195 624 C195 598 170 577 138 575 L112 575 L112 516 L131 516 C182 516 210 495 210 455 C210 420 186 399 147 399 C111 399 100 408 75 458 L16 425 C55 363 89 341 145 341 C219 341 272 389 272 457 C272 494 256 527 229 545 L220 551 C250 579 257 593 257 622 C257 681 208 726 145 726 C96 726 58 704 30 659 L26 653 L22 646 L79 615 Z " />
<glyph glyph-name="questiondown" unicode="&#xbf;" horiz-adv-x="600" d="M270 505 L270 421 C270 373 265 361 238 340 C204 314 183 298 177 291 C141 257 126 219 126 166 C126 57 196 -13 305 -13 C382 -13 441 23 471 87 C483 112 483 115 487 162 L407 162 C406 139 405 135 403 126 C393 82 356 55 307 55 C243 55 200 99 200 165 C200 209 214 234 254 264 C327 318 341 338 341 386 L341 505 L270 505 Z M300 733 C255 733 219 698 219 652 C219 608 255 572 300 572 C344 572 380 608 380 652 C380 697 344 733 300 733 L300 733 Z " />
<glyph glyph-name="Agrave" unicode="&#xc0;" horiz-adv-x="600" d="M301 776 L47 0 L126 0 L190 211 L413 211 L477 0 L556 0 L301 776 Z M301 569 L395 275 L208 275 L301 569 Z M199 956 L144 895 L337 767 L375 815 L199 956 Z " />
<glyph glyph-name="Aacute" unicode="&#xc1;" horiz-adv-x="600" d="M301 776 L47 0 L126 0 L190 211 L413 211 L477 0 L556 0 L301 776 Z M301 569 L395 275 L208 275 L301 569 Z M401 956 L225 815 L263 767 L456 895 L401 956 Z " />
<glyph glyph-name="Acircumflex" unicode="&#xc2;" horiz-adv-x="600" d="M301 776 L47 0 L126 0 L190 211 L413 211 L477 0 L556 0 L301 776 Z M301 569 L395 275 L208 275 L301 569 Z M300 866 L440 763 L479 806 L300 958 L121 806 L160 763 L300 866 Z " />
<glyph glyph-name="Atilde" unicode="&#xc3;" horiz-adv-x="600" d="M301 776 L47 0 L126 0 L190 211 L413 211 L477 0 L556 0 L301 776 Z M301 569 L395 275 L208 275 L301 569 Z M439 914 L434 903 C420 876 404 862 384 862 C370 862 348 869 332 878 L303 895 C262 918 253 921 227 921 C191 921 157 902 134 869 C123 855 120 849 101 810 L161 789 C183 836 200 853 223 853 C238 853 262 847 273 840 L313 815 C333 802 361 794 382 794 C415 794 447 811 471 841 C482 854 483 856 498 891 L439 914 Z " />
<glyph glyph-name="Adieresis" unicode="&#xc4;" horiz-adv-x="600" d="M301 776 L47 0 L126 0 L190 211 L413 211 L477 0 L556 0 L301 776 Z M301 569 L395 275 L208 275 L301 569 Z M211 918 C172 918 141 888 141 849 C141 811 172 780 210 780 C248 780 279 811 279 849 C279 887 248 918 211 918 L211 918 Z M391 918 C352 918 321 888 321 849 C321 811 352 780 390 780 C428 780 459 811 459 849 C459 887 428 918 391 918 L391 918 Z " />
<glyph glyph-name="Aring" unicode="&#xc5;" horiz-adv-x="600" d="M301 776 L47 0 L126 0 L190 211 L413 211 L477 0 L556 0 L301 776 Z M301 569 L395 275 L208 275 L301 569 Z M301 964 C248 964 206 924 206 872 C206 821 248 780 300 780 C352 780 394 821 394 872 C394 923 352 964 301 964 L301 964 Z M300 904 C317 904 331 889 331 872 C331 854 317 840 300 840 C283 840 269 854 269 872 C269 890 283 904 300 904 L300 904 Z " />
<glyph glyph-name="AE" unicode="&#xc6;" horiz-adv-x="600" d="M549 720 L220 720 L20 0 L96 0 L153 214 L272 214 L272 0 L557 0 L557 64 L343 64 L343 339 L485 339 L485 403 L343 403 L343 656 L549 656 L549 720 Z M272 278 L170 278 L269 656 L272 656 L272 278 Z " />
<glyph glyph-name="Ccedilla" unicode="&#xc7;" horiz-adv-x="600" d="M347 -11 C452 4 503 62 514 177 L443 177 L442 166 C434 95 390 55 318 55 C213 55 162 153 162 353 C162 564 215 665 325 665 C368 665 404 645 422 611 C430 595 431 592 433 562 L506 562 C503 592 503 595 498 610 C475 686 408 733 323 733 C168 733 88 603 88 352 C88 207 117 103 172 43 C202 12 234 -4 284 -11 L249 -108 C274 -100 293 -97 309 -97 C330 -97 347 -108 347 -122 C347 -136 328 -149 308 -149 C290 -149 269 -142 232 -124 L210 -179 C260 -201 291 -209 322 -209 C377 -209 421 -172 421 -125 C421 -81 387 -51 334 -48 L347 -11 Z " />
<glyph glyph-name="Egrave" unicode="&#xc8;" horiz-adv-x="600" d="M139 0 L520 0 L520 64 L215 64 L215 336 L431 336 L431 400 L215 400 L215 656 L513 656 L513 720 L139 720 C139 712 139 711 140 693 C141 630 143 569 144 510 L144 209 C141 89 140 23 139 13 L139 0 Z M219 956 L164 895 L357 767 L395 815 L219 956 Z " />
<glyph glyph-name="Eacute" unicode="&#xc9;" horiz-adv-x="600" d="M139 0 L520 0 L520 64 L215 64 L215 336 L431 336 L431 400 L215 400 L215 656 L513 656 L513 720 L139 720 C139 712 139 711 140 693 C141 630 143 569 144 510 L144 209 C141 89 140 23 139 13 L139 0 Z M421 956 L245 815 L283 767 L476 895 L421 956 Z " />
<glyph glyph-name="Ecircumflex" unicode="&#xca;" horiz-adv-x="600" d="M139 0 L520 0 L520 64 L215 64 L215 336 L431 336 L431 400 L215 400 L215 656 L513 656 L513 720 L139 720 C139 712 139 711 140 693 C141 630 143 569 144 510 L144 209 C141 89 140 23 139 13 L139 0 Z M320 866 L460 763 L499 806 L320 958 L141 806 L180 763 L320 866 Z " />
<glyph glyph-name="Edieresis" unicode="&#xcb;" horiz-adv-x="600" d="M139 0 L520 0 L520 64 L215 64 L215 336 L431 336 L431 400 L215 400 L215 656 L513 656 L513 720 L139 720 C139 712 139 711 140 693 C141 630 143 569 144 510 L144 209 C141 89 140 23 139 13 L139 0 Z M231 918 C192 918 161 888 161 849 C161 811 192 780 230 780 C268 780 299 811 299 849 C299 887 268 918 231 918 L231 918 Z M411 918 C372 918 341 888 341 849 C341 811 372 780 410 780 C448 780 479 811 479 849 C479 887 448 918 411 918 L411 918 Z " />
<glyph glyph-name="Igrave" unicode="&#xcc;" horiz-adv-x="600" d="M262 656 L264 600 C265 556 266 524 266 510 L266 210 C266 196 265 164 264 120 L262 64 L165 64 L165 0 L435 0 L435 64 L340 64 L339 120 C338 164 337 197 337 210 L337 510 C337 523 338 556 339 600 L340 656 L435 656 L435 720 L165 720 L165 656 L262 656 Z M199 956 L144 895 L337 767 L375 815 L199 956 Z " />
<glyph glyph-name="Iacute" unicode="&#xcd;" horiz-adv-x="600" d="M262 656 L264 600 C265 556 266 524 266 510 L266 210 C266 196 265 164 264 120 L262 64 L165 64 L165 0 L435 0 L435 64 L340 64 L339 120 C338 164 337 197 337 210 L337 510 C337 523 338 556 339 600 L340 656 L435 656 L435 720 L165 720 L165 656 L262 656 Z M401 956 L225 815 L263 767 L456 895 L401 956 Z " />
<glyph glyph-name="Icircumflex" unicode="&#xce;" horiz-adv-x="600" d="M262 656 L264 600 C265 556 266 524 266 510 L266 210 C266 196 265 164 264 120 L262 64 L165 64 L165 0 L435 0 L435 64 L340 64 L339 120 C338 164 337 197 337 210 L337 510 C337 523 338 556 339 600 L340 656 L435 656 L435 720 L165 720 L165 656 L262 656 Z M300 866 L440 763 L479 806 L300 958 L121 806 L160 763 L300 866 Z " />
<glyph glyph-name="Idieresis" unicode="&#xcf;" horiz-adv-x="600" d="M262 656 L264 600 C265 556 266 524 266 510 L266 210 C266 196 265 164 264 120 L262 64 L165 64 L165 0 L435 0 L435 64 L340 64 L339 120 C338 164 337 197 337 210 L337 510 C337 523 338 556 339 600 L340 656 L435 656 L435 720 L165 720 L165 656 L262 656 Z M224 916 C185 916 155 886 155 848 C155 810 185 780 223 780 C261 780 291 810 291 848 C291 885 261 916 224 916 L224 916 Z M380 916 C341 916 311 886 311 848 C311 810 341 780 379 780 C417 780 447 810 447 848 C447 885 417 916 380 916 L380 916 Z " />
<glyph glyph-name="Eth" unicode="&#xd0;" horiz-adv-x="600" d="M118 340 L118 209 C118 195 114 44 113 0 L276 0 C355 0 401 15 442 53 C500 108 527 205 527 359 C527 513 500 612 442 666 C401 705 355 720 276 720 L113 720 C114 680 118 522 118 509 L118 404 L16 404 L16 340 L118 340 Z M189 340 L352 340 L352 404 L189 404 L189 656 L272 656 C411 656 453 587 453 358 C453 132 411 64 272 64 L189 64 L189 340 Z " />
<glyph glyph-name="Ntilde" unicode="&#xd1;" horiz-adv-x="600" d="M423 179 L205 720 L120 720 L120 210 C117 89 116 23 115 13 L115 0 L197 0 C195 39 191 177 191 210 L191 577 L427 -7 L494 -7 L494 509 C494 542 495 572 496 600 C498 641 499 670 499 678 L499 700 L500 720 L418 720 L418 716 L419 700 L420 631 L423 509 L423 179 Z M439 914 L434 903 C420 876 404 862 384 862 C370 862 348 869 332 878 L303 895 C262 918 253 921 227 921 C191 921 157 902 134 869 C123 855 120 849 101 810 L161 789 C183 836 200 853 223 853 C238 853 262 847 273 840 L313 815 C333 802 361 794 382 794 C415 794 447 811 471 841 C482 854 483 856 498 891 L439 914 Z " />
<glyph glyph-name="Ograve" unicode="&#xd2;" horiz-adv-x="600" d="M303 733 C237 733 181 707 142 657 C97 601 79 515 79 361 C79 217 94 136 130 79 C168 20 230 -13 300 -13 C363 -13 418 13 457 62 C503 119 521 203 521 360 C521 502 506 583 470 641 C433 698 371 733 303 733 L303 733 Z M302 665 C341 665 378 644 403 607 C434 562 447 490 447 360 C447 240 436 171 411 125 C386 80 346 55 300 55 C258 55 223 74 198 112 C165 158 153 228 153 362 C153 479 164 548 189 595 C214 640 254 665 302 665 L302 665 Z M199 956 L144 895 L337 767 L375 815 L199 956 Z " />
<glyph glyph-name="Oacute" unicode="&#xd3;" horiz-adv-x="600" d="M303 733 C237 733 181 707 142 657 C97 601 79 515 79 361 C79 217 94 136 130 79 C168 20 230 -13 300 -13 C363 -13 418 13 457 62 C503 119 521 203 521 360 C521 502 506 583 470 641 C433 698 371 733 303 733 L303 733 Z M302 665 C341 665 378 644 403 607 C434 562 447 490 447 360 C447 240 436 171 411 125 C386 80 346 55 300 55 C258 55 223 74 198 112 C165 158 153 228 153 362 C153 479 164 548 189 595 C214 640 254 665 302 665 L302 665 Z M401 956 L225 815 L263 767 L456 895 L401 956 Z " />
<glyph glyph-name="Ocircumflex" unicode="&#xd4;" horiz-adv-x="600" d="M303 733 C237 733 181 707 142 657 C97 601 79 515 79 361 C79 217 94 136 130 79 C168 20 230 -13 300 -13 C363 -13 418 13 457 62 C503 119 521 203 521 360 C521 502 506 583 470 641 C433 698 371 733 303 733 L303 733 Z M302 665 C341 665 378 644 403 607 C434 562 447 490 447 360 C447 240 436 171 411 125 C386 80 346 55 300 55 C258 55 223 74 198 112 C165 158 153 228 153 362 C153 479 164 548 189 595 C214 640 254 665 302 665 L302 665 Z M300 866 L440 763 L479 806 L300 958 L121 806 L160 763 L300 866 Z " />
<glyph glyph-name="Otilde" unicode="&#xd5;" horiz-adv-x="600" d="M303 733 C237 733 181 707 142 657 C97 601 79 515 79 361 C79 217 94 136 130 79 C168 20 230 -13 300 -13 C363 -13 418 13 457 62 C503 119 521 203 521 360 C521 502 506 583 470 641 C433 698 371 733 303 733 L303 733 Z M302 665 C341 665 378 644 403 607 C434 562 447 490 447 360 C447 240 436 171 411 125 C386 80 346 55 300 55 C258 55 223 74 198 112 C165 158 153 228 153 362 C153 479 164 548 189 595 C214 640 254 665 302 665 L302 665 Z M439 914 L434 903 C420 876 404 862 384 862 C370 862 348 869 332 878 L303 895 C262 918 253 921 227 921 C191 921 157 902 134 869 C123 855 120 849 101 810 L161 789 C183 836 200 853 223 853 C238 853 262 847 273 840 L313 815 C333 802 361 794 382 794 C415 794 447 811 471 841 C482 854 483 856 498 891 L439 914 Z " />
<glyph glyph-name="Odieresis" unicode="&#xd6;" horiz-adv-x="600" d="M303 733 C237 733 181 707 142 657 C97 601 79 515 79 361 C79 217 94 136 130 79 C168 20 230 -13 300 -13 C363 -13 418 13 457 62 C503 119 521 203 521 360 C521 502 506 583 470 641 C433 698 371 733 303 733 L303 733 Z M302 665 C341 665 378 644 403 607 C434 562 447 490 447 360 C447 240 436 171 411 125 C386 80 346 55 300 55 C258 55 223 74 198 112 C165 158 153 228 153 362 C153 479 164 548 189 595 C214 640 254 665 302 665 L302 665 Z M211 918 C172 918 141 888 141 849 C141 811 172 780 210 780 C248 780 279 811 279 849 C279 887 248 918 211 918 L211 918 Z M391 918 C352 918 321 888 321 849 C321 811 352 780 390 780 C428 780 459 811 459 849 C459 887 428 918 391 918 L391 918 Z " />
<glyph glyph-name="multiply" unicode="&#xd7;" horiz-adv-x="600" d="M73 640 L25 592 L252 365 L27 141 L75 93 L300 317 L527 91 L575 139 L348 365 L573 589 L525 638 L300 413 L73 640 Z " />
<glyph glyph-name="Oslash" unicode="&#xd8;" horiz-adv-x="600" d="M525 697 L470 729 L438 672 C398 713 350 733 293 733 C229 733 174 706 135 657 C90 600 72 516 72 358 C72 230 82 163 112 99 L60 9 L114 -23 L152 43 C191 5 237 -13 293 -13 C356 -13 411 13 450 62 C496 119 514 203 514 361 C514 486 504 551 477 613 L525 697 Z M429 529 C437 490 440 437 440 360 C440 241 429 171 403 125 C378 80 338 55 292 55 C250 55 218 72 190 109 L429 529 Z M158 181 C149 226 146 276 146 359 C146 479 157 548 182 595 C207 640 247 665 294 665 C338 665 370 647 400 605 L158 181 Z " />
<glyph glyph-name="Ugrave" unicode="&#xd9;" horiz-adv-x="600" d="M100 720 C100 713 100 711 101 693 L105 511 L105 245 C105 186 110 147 121 117 C148 41 222 -13 300 -13 C364 -13 432 28 465 87 C486 125 494 168 494 245 L494 511 C497 631 498 697 499 707 L499 720 L417 720 C419 678 423 543 423 511 L423 245 C421 190 420 160 418 153 C404 96 355 55 300 55 C251 55 208 85 188 133 C179 155 179 155 176 245 L176 511 C176 543 180 676 182 720 L100 720 Z M199 956 L144 895 L337 767 L375 815 L199 956 Z " />
<glyph glyph-name="Uacute" unicode="&#xda;" horiz-adv-x="600" d="M100 720 C100 713 100 711 101 693 L105 511 L105 245 C105 186 110 147 121 117 C148 41 222 -13 300 -13 C364 -13 432 28 465 87 C486 125 494 168 494 245 L494 511 C497 631 498 697 499 707 L499 720 L417 720 C419 678 423 543 423 511 L423 245 C421 190 420 160 418 153 C404 96 355 55 300 55 C251 55 208 85 188 133 C179 155 179 155 176 245 L176 511 C176 543 180 676 182 720 L100 720 Z M401 956 L225 815 L263 767 L456 895 L401 956 Z " />
<glyph glyph-name="Ucircumflex" unicode="&#xdb;" horiz-adv-x="600" d="M100 720 C100 713 100 711 101 693 L105 511 L105 245 C105 186 110 147 121 117 C148 41 222 -13 300 -13 C364 -13 432 28 465 87 C486 125 494 168 494 245 L494 511 C497 631 498 697 499 707 L499 720 L417 720 C419 678 423 543 423 511 L423 245 C421 190 420 160 418 153 C404 96 355 55 300 55 C251 55 208 85 188 133 C179 155 179 155 176 245 L176 511 C176 543 180 676 182 720 L100 720 Z M300 866 L440 763 L479 806 L300 958 L121 806 L160 763 L300 866 Z " />
<glyph glyph-name="Udieresis" unicode="&#xdc;" horiz-adv-x="600" d="M100 720 C100 713 100 711 101 693 L105 511 L105 245 C105 186 110 147 121 117 C148 41 222 -13 300 -13 C364 -13 432 28 465 87 C486 125 494 168 494 245 L494 511 C497 631 498 697 499 707 L499 720 L417 720 C419 678 423 543 423 511 L423 245 C421 190 420 160 418 153 C404 96 355 55 300 55 C251 55 208 85 188 133 C179 155 179 155 176 245 L176 511 C176 543 180 676 182 720 L100 720 Z M211 918 C172 918 141 888 141 849 C141 811 172 780 210 780 C248 780 279 811 279 849 C279 887 248 918 211 918 L211 918 Z M391 918 C352 918 321 888 321 849 C321 811 352 780 390 780 C428 780 459 811 459 849 C459 887 428 918 391 918 L391 918 Z " />
<glyph glyph-name="Yacute" unicode="&#xdd;" horiz-adv-x="600" d="M60 720 C93 647 126 574 160 501 C189 437 218 372 246 305 L246 210 C246 196 242 41 241 0 L322 0 C321 37 317 197 317 210 L317 305 C398 492 407 510 503 720 L422 720 L347 539 C326 489 304 440 282 391 C229 507 217 534 192 596 C175 638 158 679 141 720 L60 720 Z M401 956 L225 815 L262 767 L456 895 L401 956 Z " />
<glyph glyph-name="Thorn" unicode="&#xde;" horiz-adv-x="600" d="M211 629 C215 680 216 695 216 720 L135 720 C135 713 135 711 136 693 L140 509 L140 210 C137 89 136 23 135 13 L135 0 L216 0 C215 55 215 86 211 192 L254 192 C328 192 355 195 390 209 C470 241 513 310 513 409 C513 499 480 569 423 602 C387 622 353 629 287 629 L211 629 Z M211 565 L271 565 C333 565 347 563 370 553 C412 533 439 478 439 409 C439 346 418 302 375 274 C353 261 319 254 268 254 L211 254 L211 509 L211 565 Z " />
<glyph glyph-name="germandbls" unicode="&#xdf;" horiz-adv-x="600" d="M218 0 C216 50 212 181 212 211 L212 532 C212 590 213 599 223 620 C235 648 262 665 294 665 C354 665 398 616 398 549 C398 470 342 418 251 412 L251 354 L273 353 C375 348 426 293 426 187 C426 110 390 55 339 55 C318 55 302 60 272 76 L239 22 L250 15 C280 -5 304 -13 338 -13 C435 -13 500 69 500 192 C500 287 463 355 394 386 L385 390 L391 394 C441 427 472 487 472 550 C472 652 398 733 304 733 C253 733 200 705 169 663 C147 632 141 604 141 532 L141 211 C138 90 137 23 136 13 L136 0 L218 0 Z " />
<glyph glyph-name="agrave" unicode="&#xe0;" horiz-adv-x="600" d="M155 444 L169 449 C225 472 253 479 287 479 C323 479 352 465 368 440 C382 419 385 402 385 357 L385 331 C328 352 303 358 269 358 C171 358 100 277 100 165 C100 58 163 -13 258 -13 C311 -13 348 6 390 55 C397 22 399 15 408 -5 L412 -14 L481 -6 L476 9 C461 49 456 92 456 168 L456 357 C456 475 393 547 290 547 C245 547 212 539 137 511 L155 444 Z M385 146 C346 85 305 55 261 55 C209 55 174 98 174 163 C174 240 216 290 280 290 C311 290 338 284 385 267 L385 146 Z M185 770 L130 709 L323 581 L361 629 L185 770 Z " />
<glyph glyph-name="aacute" unicode="&#xe1;" horiz-adv-x="600" d="M155 444 L169 449 C225 472 253 479 287 479 C323 479 352 465 368 440 C382 419 385 402 385 357 L385 331 C328 352 303 358 269 358 C171 358 100 277 100 165 C100 58 163 -13 258 -13 C311 -13 348 6 390 55 C397 22 399 15 408 -5 L412 -14 L481 -6 L476 9 C461 49 456 92 456 168 L456 357 C456 475 393 547 290 547 C245 547 212 539 137 511 L155 444 Z M385 146 C346 85 305 55 261 55 C209 55 174 98 174 163 C174 240 216 290 280 290 C311 290 338 284 385 267 L385 146 Z M387 770 L211 629 L249 581 L442 709 L387 770 Z " />
<glyph glyph-name="acircumflex" unicode="&#xe2;" horiz-adv-x="600" d="M155 444 L169 449 C225 472 253 479 287 479 C323 479 352 465 368 440 C382 419 385 402 385 357 L385 331 C328 352 303 358 269 358 C171 358 100 277 100 165 C100 58 163 -13 258 -13 C311 -13 348 6 390 55 C397 22 399 15 408 -5 L412 -14 L481 -6 L476 9 C461 49 456 92 456 168 L456 357 C456 475 393 547 290 547 C245 547 212 539 137 511 L155 444 Z M385 146 C346 85 305 55 261 55 C209 55 174 98 174 163 C174 240 216 290 280 290 C311 290 338 284 385 267 L385 146 Z M286 680 L426 577 L465 620 L286 772 L107 620 L146 577 L286 680 Z " />
<glyph glyph-name="atilde" unicode="&#xe3;" horiz-adv-x="600" d="M155 444 L169 449 C225 472 253 479 287 479 C323 479 352 465 368 440 C382 419 385 402 385 357 L385 331 C328 352 303 358 269 358 C171 358 100 277 100 165 C100 58 163 -13 258 -13 C311 -13 348 6 390 55 C397 22 399 15 408 -5 L412 -14 L481 -6 L476 9 C461 49 456 92 456 168 L456 357 C456 475 393 547 290 547 C245 547 212 539 137 511 L155 444 Z M385 146 C346 85 305 55 261 55 C209 55 174 98 174 163 C174 240 216 290 280 290 C311 290 338 284 385 267 L385 146 Z M425 728 L420 717 C406 690 390 676 370 676 C356 676 334 683 318 692 L289 709 C248 732 239 735 213 735 C177 735 143 716 120 683 C109 669 106 663 87 624 L147 603 C169 650 186 667 209 667 C224 667 248 661 259 654 L299 629 C319 616 347 608 368 608 C401 608 433 625 457 655 C468 668 469 670 484 705 L425 728 Z " />
<glyph glyph-name="adieresis" unicode="&#xe4;" horiz-adv-x="600" d="M155 444 L169 449 C225 472 253 479 287 479 C323 479 352 465 368 440 C382 419 385 402 385 357 L385 331 C328 352 303 358 269 358 C171 358 100 277 100 165 C100 58 163 -13 258 -13 C311 -13 348 6 390 55 C397 22 399 15 408 -5 L412 -14 L481 -6 L476 9 C461 49 456 92 456 168 L456 357 C456 475 393 547 290 547 C245 547 212 539 137 511 L155 444 Z M385 146 C346 85 305 55 261 55 C209 55 174 98 174 163 C174 240 216 290 280 290 C311 290 338 284 385 267 L385 146 Z M197 732 C158 732 127 702 127 663 C127 625 158 594 196 594 C234 594 265 625 265 663 C265 701 234 732 197 732 L197 732 Z M377 732 C338 732 307 702 307 663 C307 625 338 594 376 594 C414 594 445 625 445 663 C445 701 414 732 377 732 L377 732 Z " />
<glyph glyph-name="aring" unicode="&#xe5;" horiz-adv-x="600" d="M155 444 L169 449 C225 472 253 479 287 479 C323 479 352 465 368 440 C382 419 385 402 385 357 L385 331 C328 352 303 358 269 358 C171 358 100 277 100 165 C100 58 163 -13 258 -13 C311 -13 348 6 390 55 C397 22 399 15 408 -5 L412 -14 L481 -6 L476 9 C461 49 456 92 456 168 L456 357 C456 475 393 547 290 547 C245 547 212 539 137 511 L155 444 Z M385 146 C346 85 305 55 261 55 C209 55 174 98 174 163 C174 240 216 290 280 290 C311 290 338 284 385 267 L385 146 Z M289 772 C236 772 194 732 194 680 C194 629 236 588 288 588 C340 588 382 629 382 680 C382 731 340 772 289 772 L289 772 Z M288 712 C305 712 319 697 319 680 C319 662 305 648 288 648 C271 648 257 662 257 680 C257 698 271 712 288 712 L288 712 Z " />
<glyph glyph-name="ae" unicode="&#xe6;" horiz-adv-x="600" d="M554 248 L554 261 C554 371 544 424 510 479 C484 522 441 547 392 547 C355 547 323 536 297 513 L297 514 C297 528 249 547 212 547 C176 547 134 530 71 491 L89 424 C157 468 182 479 214 479 C246 479 263 454 263 409 L263 343 L256 345 C240 351 222 354 204 354 C105 354 38 276 38 163 C38 56 98 -13 190 -13 C229 -13 255 -4 290 22 L294 25 L297 22 C315 0 350 -13 388 -13 C439 -13 474 -1 565 49 L537 110 C448 62 429 55 391 55 C373 55 355 63 345 75 C337 85 334 98 334 125 L334 248 L554 248 Z M334 312 L334 412 C334 458 351 479 386 479 C408 479 431 468 447 448 C470 421 479 387 486 312 L334 312 Z M263 145 C263 103 262 96 256 84 C247 65 227 55 201 55 C145 55 112 96 112 165 C112 239 148 286 204 286 C224 286 242 282 263 272 L263 145 Z " />
<glyph glyph-name="ccedilla" unicode="&#xe7;" horiz-adv-x="600" d="M367 -10 C420 -1 470 30 521 87 L471 138 C468 135 465 132 462 128 C414 76 375 55 327 55 C280 55 232 83 206 126 C184 161 173 208 173 268 C173 333 186 384 211 420 C236 456 282 479 327 479 C368 479 404 462 431 430 C440 420 441 418 460 385 L524 427 C501 458 493 468 479 483 C442 523 384 547 326 547 C258 547 193 515 153 461 C116 412 99 349 99 263 C99 168 122 102 172 51 C208 14 249 -5 304 -12 L269 -108 C294 -100 313 -97 329 -97 C350 -97 367 -108 367 -122 C367 -136 348 -149 328 -149 C310 -149 289 -142 252 -124 L230 -179 C280 -201 311 -209 342 -209 C397 -209 441 -172 441 -125 C441 -81 407 -51 354 -48 L367 -10 Z " />
<glyph glyph-name="egrave" unicode="&#xe8;" horiz-adv-x="600" d="M518 246 L518 277 C518 440 436 547 310 547 C176 547 87 434 87 265 C87 94 172 -13 308 -13 C373 -13 416 -2 514 40 L483 107 C410 69 365 55 312 55 C218 55 158 128 158 244 L158 246 L518 246 Z M158 310 C170 379 183 409 213 439 C239 465 272 479 306 479 C339 479 373 465 397 440 C425 411 438 379 447 310 L158 310 Z M209 770 L154 709 L347 581 L385 629 L209 770 Z " />
<glyph glyph-name="eacute" unicode="&#xe9;" horiz-adv-x="600" d="M518 246 L518 277 C518 440 436 547 310 547 C176 547 87 434 87 265 C87 94 172 -13 308 -13 C373 -13 416 -2 514 40 L483 107 C410 69 365 55 312 55 C218 55 158 128 158 244 L158 246 L518 246 Z M158 310 C170 379 183 409 213 439 C239 465 272 479 306 479 C339 479 373 465 397 440 C425 411 438 379 447 310 L158 310 Z M411 770 L235 629 L273 581 L466 709 L411 770 Z " />
<glyph glyph-name="ecircumflex" unicode="&#xea;" horiz-adv-x="600" d="M518 246 L518 277 C518 440 436 547 310 547 C176 547 87 434 87 265 C87 94 172 -13 308 -13 C373 -13 416 -2 514 40 L483 107 C410 69 365 55 312 55 C218 55 158 128 158 244 L158 246 L518 246 Z M158 310 C170 379 183 409 213 439 C239 465 272 479 306 479 C339 479 373 465 397 440 C425 411 438 379 447 310 L158 310 Z M310 680 L450 577 L489 620 L310 772 L131 620 L170 577 L310 680 Z " />
<glyph glyph-name="edieresis" unicode="&#xeb;" horiz-adv-x="600" d="M518 246 L518 277 C518 440 436 547 310 547 C176 547 87 434 87 265 C87 94 172 -13 308 -13 C373 -13 416 -2 514 40 L483 107 C410 69 365 55 312 55 C218 55 158 128 158 244 L158 246 L518 246 Z M158 310 C170 379 183 409 213 439 C239 465 272 479 306 479 C339 479 373 465 397 440 C425 411 438 379 447 310 L158 310 Z M221 732 C182 732 151 702 151 663 C151 625 182 594 220 594 C258 594 289 625 289 663 C289 701 258 732 221 732 L221 732 Z M401 732 C362 732 331 702 331 663 C331 625 362 594 400 594 C438 594 469 625 469 663 C469 701 438 732 401 732 L401 732 Z " />
<glyph glyph-name="igrave" unicode="&#xec;" horiz-adv-x="600" d="M271 470 L272 414 L275 324 L275 210 L271 27 C270 19 270 13 270 9 C270 7 270 4 271 0 L351 0 C351 7 351 9 350 27 L346 210 L346 324 C349 445 350 511 351 521 L351 534 L124 534 L124 470 L271 470 Z M199 770 L144 709 L337 581 L375 629 L199 770 Z " />
<glyph glyph-name="iacute" unicode="&#xed;" horiz-adv-x="600" d="M271 470 L272 414 L275 324 L275 210 L271 27 C270 19 270 13 270 9 C270 7 270 4 271 0 L351 0 C351 7 351 9 350 27 L346 210 L346 324 C349 445 350 511 351 521 L351 534 L124 534 L124 470 L271 470 Z M401 770 L225 629 L263 581 L456 709 L401 770 Z " />
<glyph glyph-name="icircumflex" unicode="&#xee;" horiz-adv-x="600" d="M271 470 L272 414 L275 324 L275 210 L271 27 C270 19 270 13 270 9 C270 7 270 4 271 0 L351 0 C351 7 351 9 350 27 L346 210 L346 324 C349 445 350 511 351 521 L351 534 L124 534 L124 470 L271 470 Z M300 680 L440 577 L479 620 L300 772 L121 620 L160 577 L300 680 Z " />
<glyph glyph-name="idieresis" unicode="&#xef;" horiz-adv-x="600" d="M271 470 L272 414 L275 324 L275 210 L271 27 C270 19 270 13 270 9 C270 7 270 4 271 0 L351 0 C351 7 351 9 350 27 L346 210 L346 324 C349 445 350 511 351 521 L351 534 L124 534 L124 470 L271 470 Z M224 730 C185 730 155 700 155 662 C155 624 185 594 223 594 C261 594 291 624 291 662 C291 699 261 730 224 730 L224 730 Z M380 730 C341 730 311 700 311 662 C311 624 341 594 379 594 C417 594 447 624 447 662 C447 699 417 730 380 730 L380 730 Z " />
<glyph glyph-name="eth" unicode="&#xf0;" horiz-adv-x="600" d="M329 671 L389 715 L348 771 L268 711 C230 732 173 755 144 760 L136 762 L95 707 C145 691 177 679 205 665 L136 616 L179 562 L268 625 C299 601 320 581 350 543 C329 546 313 547 299 547 C242 547 179 512 143 460 C110 411 95 351 95 267 C95 182 110 122 143 73 C180 19 240 -13 307 -13 C438 -13 520 92 520 261 C520 327 510 393 491 446 C465 521 405 608 344 659 L329 671 Z M310 479 C399 479 446 405 446 267 C446 127 399 55 307 55 C217 55 169 128 169 266 C169 409 216 479 310 479 L310 479 Z " />
<glyph glyph-name="ntilde" unicode="&#xf1;" horiz-adv-x="600" d="M169 443 C165 493 164 498 155 534 L87 534 C106 445 110 397 110 251 L110 210 C110 185 107 58 105 0 L187 0 C185 37 181 199 181 210 L181 263 C181 308 190 346 208 379 C239 438 293 479 338 479 C359 479 382 465 393 444 C405 422 411 381 411 317 L411 210 C411 196 407 41 406 0 L487 0 C486 28 486 44 482 210 L482 340 C482 382 479 418 473 438 C456 504 402 547 339 547 C288 547 219 511 187 467 L169 443 Z M439 728 L434 717 C420 690 404 676 384 676 C370 676 348 683 332 692 L303 709 C262 732 253 735 227 735 C191 735 157 716 134 683 C123 669 120 663 101 624 L161 603 C183 650 200 667 223 667 C238 667 262 661 273 654 L313 629 C333 616 361 608 382 608 C415 608 447 625 471 655 C482 668 483 670 498 705 L439 728 Z " />
<glyph glyph-name="ograve" unicode="&#xf2;" horiz-adv-x="600" d="M311 547 C241 547 181 516 144 461 C110 412 95 352 95 266 C95 182 110 122 143 73 C180 19 241 -13 308 -13 C374 -13 435 19 472 73 C505 122 520 182 520 267 C520 352 505 412 472 461 C435 514 374 547 311 547 L311 547 Z M310 479 C398 479 446 404 446 267 C446 128 398 55 307 55 C217 55 169 128 169 266 C169 408 216 479 310 479 L310 479 Z M199 770 L144 709 L337 581 L375 629 L199 770 Z " />
<glyph glyph-name="oacute" unicode="&#xf3;" horiz-adv-x="600" d="M311 547 C241 547 181 516 144 461 C110 412 95 352 95 266 C95 182 110 122 143 73 C180 19 241 -13 308 -13 C374 -13 435 19 472 73 C505 122 520 182 520 267 C520 352 505 412 472 461 C435 514 374 547 311 547 L311 547 Z M310 479 C398 479 446 404 446 267 C446 128 398 55 307 55 C217 55 169 128 169 266 C169 408 216 479 310 479 L310 479 Z M401 770 L225 629 L263 581 L456 709 L401 770 Z " />
<glyph glyph-name="ocircumflex" unicode="&#xf4;" horiz-adv-x="600" d="M311 547 C241 547 181 516 144 461 C110 412 95 352 95 266 C95 182 110 122 143 73 C180 19 241 -13 308 -13 C374 -13 435 19 472 73 C505 122 520 182 520 267 C520 352 505 412 472 461 C435 514 374 547 311 547 L311 547 Z M310 479 C398 479 446 404 446 267 C446 128 398 55 307 55 C217 55 169 128 169 266 C169 408 216 479 310 479 L310 479 Z M300 680 L440 577 L479 620 L300 772 L121 620 L160 577 L300 680 Z " />
<glyph glyph-name="otilde" unicode="&#xf5;" horiz-adv-x="600" d="M311 547 C241 547 181 516 144 461 C110 412 95 352 95 266 C95 182 110 122 143 73 C180 19 241 -13 308 -13 C374 -13 435 19 472 73 C505 122 520 182 520 267 C520 352 505 412 472 461 C435 514 374 547 311 547 L311 547 Z M310 479 C398 479 446 404 446 267 C446 128 398 55 307 55 C217 55 169 128 169 266 C169 408 216 479 310 479 L310 479 Z M439 728 L434 717 C420 690 404 676 384 676 C370 676 348 683 332 692 L303 709 C262 732 253 735 227 735 C191 735 157 716 134 683 C123 669 120 663 101 624 L161 603 C183 650 200 667 223 667 C238 667 262 661 273 654 L313 629 C333 616 361 608 382 608 C415 608 447 625 471 655 C482 668 483 670 498 705 L439 728 Z " />
<glyph glyph-name="odieresis" unicode="&#xf6;" horiz-adv-x="600" d="M311 547 C241 547 181 516 144 461 C110 412 95 352 95 266 C95 182 110 122 143 73 C180 19 241 -13 308 -13 C374 -13 435 19 472 73 C505 122 520 182 520 267 C520 352 505 412 472 461 C435 514 374 547 311 547 L311 547 Z M310 479 C398 479 446 404 446 267 C446 128 398 55 307 55 C217 55 169 128 169 266 C169 408 216 479 310 479 L310 479 Z M211 732 C172 732 141 702 141 663 C141 625 172 594 210 594 C248 594 279 625 279 663 C279 701 248 732 211 732 L211 732 Z M391 732 C352 732 321 702 321 663 C321 625 352 594 390 594 C428 594 459 625 459 663 C459 701 428 732 391 732 L391 732 Z " />
<glyph glyph-name="divide" unicode="&#xf7;" horiz-adv-x="600" d="M301 234 C267 234 241 208 241 175 C241 142 267 116 300 116 C333 116 359 142 359 175 C359 207 333 234 301 234 L301 234 Z M575 394 L25 394 L25 324 L575 324 L575 394 Z M301 605 C267 605 241 579 241 546 C241 513 267 487 300 487 C333 487 359 513 359 546 C359 578 333 605 301 605 L301 605 Z " />
<glyph glyph-name="oslash" unicode="&#xf8;" horiz-adv-x="600" d="M81 22 L130 -17 L165 34 C203 2 246 -13 294 -13 C360 -13 421 19 458 73 C491 122 506 182 506 267 C506 351 492 406 459 459 L507 528 L459 567 L416 506 C378 534 340 547 293 547 C227 547 166 515 130 461 C96 412 81 352 81 267 C81 187 93 134 124 83 L81 22 Z M170 150 C160 183 155 219 155 267 C155 406 203 479 295 479 C329 479 353 471 378 450 L170 150 Z M414 394 C426 359 432 321 432 268 C432 128 384 55 293 55 C256 55 229 65 204 90 L414 394 Z " />
<glyph glyph-name="ugrave" unicode="&#xf9;" horiz-adv-x="600" d="M430 91 C435 42 436 31 444 0 L513 0 L509 16 C494 91 490 148 490 283 L490 324 C490 348 493 480 495 534 L414 534 C415 493 419 339 419 324 L419 271 C419 227 410 187 393 155 C361 95 309 55 263 55 C241 55 219 69 208 90 C196 112 190 153 190 217 L190 324 C190 338 194 497 195 534 L114 534 L114 516 C115 486 117 422 119 324 L119 194 C119 152 122 116 128 96 C145 31 199 -13 261 -13 C313 -13 378 21 412 67 L430 91 Z M198 770 L144 709 L337 581 L375 629 L198 770 Z " />
<glyph glyph-name="uacute" unicode="&#xfa;" horiz-adv-x="600" d="M430 91 C435 42 436 31 444 0 L513 0 L509 16 C494 91 490 148 490 283 L490 324 C490 348 493 480 495 534 L414 534 C415 493 419 339 419 324 L419 271 C419 227 410 187 393 155 C361 95 309 55 263 55 C241 55 219 69 208 90 C196 112 190 153 190 217 L190 324 C190 338 194 497 195 534 L114 534 L114 516 C115 486 117 422 119 324 L119 194 C119 152 122 116 128 96 C145 31 199 -13 261 -13 C313 -13 378 21 412 67 L430 91 Z M401 770 L225 629 L262 581 L456 709 L401 770 Z " />
<glyph glyph-name="ucircumflex" unicode="&#xfb;" horiz-adv-x="600" d="M430 91 C435 42 436 31 444 0 L513 0 L509 16 C494 91 490 148 490 283 L490 324 C490 348 493 480 495 534 L414 534 C415 493 419 339 419 324 L419 271 C419 227 410 187 393 155 C361 95 309 55 263 55 C241 55 219 69 208 90 C196 112 190 153 190 217 L190 324 C190 338 194 497 195 534 L114 534 L114 516 C115 486 117 422 119 324 L119 194 C119 152 122 116 128 96 C145 31 199 -13 261 -13 C313 -13 378 21 412 67 L430 91 Z M300 680 L439 577 L479 620 L300 772 L121 620 L160 577 L300 680 Z " />
<glyph glyph-name="udieresis" unicode="&#xfc;" horiz-adv-x="600" d="M430 91 C435 42 436 31 444 0 L513 0 L509 16 C494 91 490 148 490 283 L490 324 C490 348 493 480 495 534 L414 534 C415 493 419 339 419 324 L419 271 C419 227 410 187 393 155 C361 95 309 55 263 55 C241 55 219 69 208 90 C196 112 190 153 190 217 L190 324 C190 338 194 497 195 534 L114 534 L114 516 C115 486 117 422 119 324 L119 194 C119 152 122 116 128 96 C145 31 199 -13 261 -13 C313 -13 378 21 412 67 L430 91 Z M211 732 C172 732 141 702 141 663 C141 625 172 594 210 594 C248 594 279 625 279 663 C279 701 248 732 211 732 L211 732 Z M391 732 C352 732 321 702 321 663 C321 625 352 594 390 594 C428 594 459 625 459 663 C459 701 428 732 391 732 L391 732 Z " />
<glyph glyph-name="yacute" unicode="&#xfd;" horiz-adv-x="600" d="M444 534 L305 166 L173 534 L93 534 L266 69 C256 40 235 -6 218 -38 C193 -83 176 -97 150 -97 C122 -97 100 -76 81 -29 L76 -17 L15 -48 L19 -59 C43 -126 91 -165 150 -165 C219 -165 267 -113 320 20 L525 534 L444 534 Z M401 770 L225 629 L263 581 L456 709 L401 770 Z " />
<glyph glyph-name="thorn" unicode="&#xfe;" horiz-adv-x="600" d="M215 19 L221 15 C243 1 292 -13 319 -13 C353 -13 406 12 439 43 C493 93 521 170 521 266 C521 361 497 432 450 483 C413 521 360 547 316 547 C284 547 259 535 215 499 L215 553 C215 618 207 667 184 734 L114 726 C142 632 144 613 144 432 L144 3 C144 -15 140 -161 139 -208 L221 -208 C218 -139 215 -14 215 3 L215 19 Z M215 393 C229 419 240 435 251 446 C271 465 299 479 317 479 C340 479 374 460 397 436 C429 400 447 342 447 273 C447 197 428 134 395 100 C372 76 330 55 304 55 C277 55 243 72 215 100 L215 393 Z " />
<glyph glyph-name="ydieresis" unicode="&#xff;" horiz-adv-x="600" d="M444 534 L305 166 L173 534 L93 534 L266 69 C256 40 235 -6 218 -38 C193 -83 176 -97 150 -97 C122 -97 100 -76 81 -29 L76 -17 L15 -48 L19 -59 C43 -126 91 -165 150 -165 C219 -165 267 -113 320 20 L525 534 L444 534 Z M211 732 C172 732 141 702 141 663 C141 625 172 594 210 594 C248 594 279 625 279 663 C279 701 248 732 211 732 L211 732 Z M391 732 C352 732 321 702 321 663 C321 625 352 594 390 594 C428 594 459 625 459 663 C459 701 428 732 391 732 L391 732 Z " />
<glyph glyph-name="Amacron" unicode="&#x100;" horiz-adv-x="600" d="M301 776 L47 0 L126 0 L190 211 L413 211 L477 0 L556 0 L301 776 Z M301 569 L395 275 L208 275 L301 569 Z M468 796 L468 864 L132 864 L132 796 L468 796 Z " />
<glyph glyph-name="amacron" unicode="&#x101;" horiz-adv-x="600" d="M155 444 L169 449 C225 472 253 479 287 479 C323 479 352 465 368 440 C382 419 385 402 385 357 L385 331 C328 352 303 358 269 358 C171 358 100 277 100 165 C100 58 163 -13 258 -13 C311 -13 348 6 390 55 C397 22 399 15 408 -5 L412 -14 L481 -6 L476 9 C461 49 456 92 456 168 L456 357 C456 475 393 547 290 547 C245 547 212 539 137 511 L155 444 Z M385 146 C346 85 305 55 261 55 C209 55 174 98 174 163 C174 240 216 290 280 290 C311 290 338 284 385 267 L385 146 Z M468 610 L468 678 L132 678 L132 610 L468 610 Z " />
<glyph glyph-name="Abreve" unicode="&#x102;" horiz-adv-x="600" d="M301 776 L47 0 L126 0 L190 211 L413 211 L477 0 L556 0 L301 776 Z M301 569 L395 275 L208 275 L301 569 Z M402 926 C395 871 368 851 300 851 C232 851 205 871 198 926 L131 926 C138 829 192 783 300 783 C408 783 462 829 469 926 L402 926 Z " />
<glyph glyph-name="abreve" unicode="&#x103;" horiz-adv-x="600" d="M155 444 L169 449 C225 472 253 479 287 479 C323 479 352 465 368 440 C382 419 385 402 385 357 L385 331 C328 352 303 358 269 358 C171 358 100 277 100 165 C100 58 163 -13 258 -13 C311 -13 348 6 390 55 C397 22 399 15 408 -5 L412 -14 L481 -6 L476 9 C461 49 456 92 456 168 L456 357 C456 475 393 547 290 547 C245 547 212 539 137 511 L155 444 Z M385 146 C346 85 305 55 261 55 C209 55 174 98 174 163 C174 240 216 290 280 290 C311 290 338 284 385 267 L385 146 Z M388 740 C381 685 354 665 286 665 C218 665 191 685 184 740 L117 740 C124 643 178 597 286 597 C394 597 448 643 455 740 L388 740 Z " />
<glyph glyph-name="Aogonek" unicode="&#x104;" horiz-adv-x="600" d="M302 776 L47 0 L126 0 L191 211 L413 211 L478 0 C436 -35 418 -69 418 -113 C418 -169 457 -203 524 -203 C552 -203 576 -197 615 -181 L615 -121 C584 -137 565 -143 541 -143 C509 -143 492 -128 492 -98 C492 -71 513 -38 556 0 L302 776 Z M302 569 L395 275 L209 275 L302 569 Z " />
<glyph glyph-name="aogonek" unicode="&#x105;" horiz-adv-x="600" d="M481 -6 L476 9 C461 49 456 92 456 168 L456 357 C456 475 393 547 290 547 C245 547 212 539 137 511 L155 444 L169 449 C225 472 253 479 287 479 C323 479 352 465 368 440 C382 419 385 402 385 357 L385 331 C328 352 303 358 269 358 C171 358 100 277 100 165 C100 58 163 -13 258 -13 C311 -13 348 6 390 55 C399 17 400 13 408 -5 C379 -32 365 -62 365 -97 C365 -153 405 -187 471 -187 C499 -187 523 -181 562 -165 L562 -105 C531 -121 512 -127 488 -127 C456 -127 439 -112 439 -82 C439 -61 451 -38 481 -6 L481 -6 Z M385 146 C346 85 305 55 261 55 C209 55 174 98 174 163 C174 240 216 290 280 290 C311 290 338 284 385 267 L385 146 Z " />
<glyph glyph-name="Cacute" unicode="&#x106;" horiz-adv-x="600" d="M506 562 C503 592 503 595 498 610 C475 686 408 733 323 733 C168 733 88 603 88 351 C88 109 165 -13 316 -13 C394 -13 459 22 488 78 C503 107 507 121 514 177 L443 177 L442 166 C434 95 390 55 318 55 C213 55 162 153 162 353 C162 564 215 665 325 665 C368 665 404 645 422 611 C430 595 431 592 433 562 L506 562 Z M421 956 L245 815 L283 767 L476 895 L421 956 Z " />
<glyph glyph-name="cacute" unicode="&#x107;" horiz-adv-x="600" d="M471 138 C468 135 465 132 462 128 C414 76 375 55 327 55 C280 55 232 83 206 126 C184 161 173 208 173 268 C173 333 186 384 211 420 C236 456 282 479 327 479 C368 479 404 462 431 430 C440 420 441 418 460 385 L524 427 C501 458 493 468 479 483 C442 523 384 547 326 547 C258 547 193 515 153 461 C116 412 99 349 99 263 C99 182 114 126 150 77 C193 18 255 -13 331 -13 C403 -13 452 13 521 87 L471 138 Z M425 770 L249 629 L287 581 L480 709 L425 770 Z " />
<glyph glyph-name="Ccaron" unicode="&#x10c;" horiz-adv-x="600" d="M506 562 C503 592 503 595 498 610 C475 686 408 733 323 733 C168 733 88 603 88 351 C88 109 165 -13 316 -13 C394 -13 459 22 488 78 C503 107 507 121 514 177 L443 177 L442 166 C434 95 390 55 318 55 C213 55 162 153 162 353 C162 564 215 665 325 665 C368 665 404 645 422 611 C430 595 431 592 433 562 L506 562 Z M320 856 L180 958 L141 915 L320 763 L499 915 L460 958 L320 856 Z " />
<glyph glyph-name="ccaron" unicode="&#x10d;" horiz-adv-x="600" d="M471 138 C468 135 465 132 462 128 C414 76 375 55 327 55 C280 55 232 83 206 126 C184 161 173 208 173 268 C173 333 186 384 211 420 C236 456 282 479 327 479 C368 479 404 462 431 430 C440 420 441 418 460 385 L524 427 C501 458 493 468 479 483 C442 523 384 547 326 547 C258 547 193 515 153 461 C116 412 99 349 99 263 C99 182 114 126 150 77 C193 18 255 -13 331 -13 C403 -13 452 13 521 87 L471 138 Z M324 670 L184 772 L145 729 L324 577 L503 729 L464 772 L324 670 Z " />
<glyph glyph-name="Dcaron" unicode="&#x10e;" horiz-adv-x="600" d="M112 720 C112 712 112 711 113 693 L117 510 L117 210 C114 89 113 23 112 13 L112 0 L276 0 C357 0 399 14 442 54 C501 109 527 204 527 361 C527 514 500 612 443 666 C401 706 357 720 276 720 L112 720 Z M188 64 L188 656 L271 656 C411 656 453 589 453 360 C453 132 412 64 271 64 L188 64 Z M280 856 L140 958 L101 915 L280 763 L459 915 L420 958 L280 856 Z " />
<glyph glyph-name="dcaron" unicode="&#x10f;" horiz-adv-x="600" d="M376 515 L369 519 C340 536 297 547 262 547 C213 547 165 527 127 491 C72 438 45 364 45 267 C45 174 70 99 116 51 C156 10 208 -13 259 -13 C309 -13 354 8 388 47 L390 50 C396 20 398 13 403 -4 L407 -14 L477 -6 C449 92 447 109 447 288 L447 531 C447 541 451 703 452 733 L371 733 C372 701 376 542 376 531 L376 515 Z M376 141 C342 79 311 55 262 55 C177 55 119 139 119 263 C119 354 143 415 194 453 C217 470 245 479 274 479 C314 479 343 466 376 434 L376 141 Z M549 749 L486 588 L554 561 L634 721 L549 749 Z " />
<glyph glyph-name="Dcroat" unicode="&#x110;" horiz-adv-x="600" d="M118 340 L118 209 C118 195 114 44 113 0 L276 0 C355 0 401 15 442 53 C500 108 527 205 527 359 C527 513 500 612 442 666 C401 705 355 720 276 720 L113 720 C114 680 118 522 118 509 L118 404 L16 404 L16 340 L118 340 Z M189 340 L352 340 L352 404 L189 404 L189 656 L272 656 C411 656 453 587 453 358 C453 132 411 64 272 64 L189 64 L189 340 Z " />
<glyph glyph-name="dcroat" unicode="&#x111;" horiz-adv-x="600" d="M480 597 L568 597 L568 661 L483 661 L484 684 L485 711 L485 733 L404 733 C405 707 405 705 405 691 L406 661 L270 661 L270 597 L407 597 L409 531 L409 515 L402 519 C373 536 330 547 295 547 C246 547 198 527 160 491 C105 438 78 364 78 267 C78 174 103 99 149 51 C189 10 241 -13 292 -13 C342 -13 387 8 421 47 L423 50 C429 20 431 13 436 -4 L440 -14 L510 -6 C482 92 480 109 480 288 L480 597 Z M409 141 C375 79 344 55 295 55 C210 55 152 139 152 263 C152 354 176 415 227 453 C250 470 278 479 307 479 C347 479 376 466 409 434 L409 141 Z " />
<glyph glyph-name="Emacron" unicode="&#x112;" horiz-adv-x="600" d="M139 0 L520 0 L520 64 L215 64 L215 336 L431 336 L431 400 L215 400 L215 656 L513 656 L513 720 L139 720 C139 712 139 711 140 693 C141 630 143 569 144 510 L144 209 C141 89 140 23 139 13 L139 0 Z M492 796 L492 864 L156 864 L156 796 L492 796 Z " />
<glyph glyph-name="emacron" unicode="&#x113;" horiz-adv-x="600" d="M518 246 L518 277 C518 440 436 547 310 547 C176 547 87 434 87 265 C87 94 172 -13 308 -13 C373 -13 416 -2 514 40 L483 107 C410 69 365 55 312 55 C218 55 158 128 158 244 L158 246 L518 246 Z M158 310 C170 379 183 409 213 439 C239 465 272 479 306 479 C339 479 373 465 397 440 C425 411 438 379 447 310 L158 310 Z M478 610 L478 678 L142 678 L142 610 L478 610 Z " />
<glyph glyph-name="Edotaccent" unicode="&#x116;" horiz-adv-x="600" d="M139 0 L520 0 L520 64 L215 64 L215 336 L431 336 L431 400 L215 400 L215 656 L513 656 L513 720 L139 720 C139 712 139 711 140 693 C141 630 143 569 144 510 L144 209 C141 89 140 23 139 13 L139 0 Z M321 918 C282 918 251 888 251 849 C251 811 282 780 320 780 C358 780 389 811 389 849 C389 887 358 918 321 918 L321 918 Z " />
<glyph glyph-name="edotaccent" unicode="&#x117;" horiz-adv-x="600" d="M518 246 L518 277 C518 440 436 547 310 547 C176 547 87 434 87 265 C87 94 172 -13 308 -13 C373 -13 416 -2 514 40 L483 107 C410 69 365 55 312 55 C218 55 158 128 158 244 L158 246 L518 246 Z M158 310 C170 379 183 409 213 439 C239 465 272 479 306 479 C339 479 373 465 397 440 C425 411 438 379 447 310 L158 310 Z M311 732 C272 732 241 702 241 663 C241 625 272 594 310 594 C348 594 379 625 379 663 C379 701 348 732 311 732 L311 732 Z " />
<glyph glyph-name="Eogonek" unicode="&#x118;" horiz-adv-x="600" d="M520 0 L520 64 L215 64 L215 336 L431 336 L431 400 L215 400 L215 656 L513 656 L513 720 L139 720 C139 712 139 711 140 693 C141 630 143 569 144 510 L144 209 C141 89 140 23 139 13 L139 0 L441 0 C412 -29 398 -60 398 -97 C398 -153 437 -187 504 -187 C532 -187 556 -181 595 -165 L595 -105 C564 -121 545 -127 521 -127 C489 -127 472 -112 472 -82 C472 -59 486 -34 520 0 L520 0 Z " />
<glyph glyph-name="eogonek" unicode="&#x119;" horiz-adv-x="600" d="M483 107 C410 69 365 55 312 55 C218 55 158 128 158 244 L158 246 L518 246 L518 277 C518 440 436 547 310 547 C176 547 87 434 87 265 C87 169 116 88 168 38 C201 6 254 -13 311 -13 C324 -13 333 -12 351 -10 C328 -38 318 -65 318 -97 C318 -153 358 -187 424 -187 C452 -187 476 -181 515 -165 L515 -105 C484 -121 465 -127 441 -127 C409 -127 392 -112 392 -83 C392 -38 425 -5 514 40 L483 107 Z M158 310 C170 379 183 409 213 439 C239 465 272 479 306 479 C339 479 373 465 397 440 C425 411 438 379 447 310 L158 310 Z " />
<glyph glyph-name="Ecaron" unicode="&#x11a;" horiz-adv-x="600" d="M139 0 L520 0 L520 64 L215 64 L215 336 L431 336 L431 400 L215 400 L215 656 L513 656 L513 720 L139 720 C139 712 139 711 140 693 C141 630 143 569 144 510 L144 209 C141 89 140 23 139 13 L139 0 Z M320 856 L180 958 L141 915 L320 763 L499 915 L460 958 L320 856 Z " />
<glyph glyph-name="ecaron" unicode="&#x11b;" horiz-adv-x="600" d="M518 246 L518 277 C518 440 436 547 310 547 C176 547 87 434 87 265 C87 94 172 -13 308 -13 C373 -13 416 -2 514 40 L483 107 C410 69 365 55 312 55 C218 55 158 128 158 244 L158 246 L518 246 Z M158 310 C170 379 183 409 213 439 C239 465 272 479 306 479 C339 479 373 465 397 440 C425 411 438 379 447 310 L158 310 Z M310 670 L170 772 L131 729 L310 577 L489 729 L450 772 L310 670 Z " />
<glyph glyph-name="Gbreve" unicode="&#x11e;" horiz-adv-x="600" d="M503 534 L502 548 C492 663 422 733 318 733 C254 733 201 709 162 662 C111 601 89 506 89 343 C89 223 101 152 129 97 C165 27 229 -13 307 -13 C365 -13 423 13 457 53 L462 59 L462 0 L533 0 L533 359 L291 359 L291 295 L462 295 C462 212 457 176 440 140 C415 86 369 55 313 55 C210 55 163 148 163 351 C163 439 171 508 185 553 C209 625 256 665 319 665 C361 665 396 645 412 610 C424 587 425 579 425 534 L503 534 Z M418 926 C411 871 385 851 316 851 C248 851 222 871 215 926 L147 926 C154 829 208 783 316 783 C425 783 479 829 485 926 L418 926 Z " />
<glyph glyph-name="gbreve" unicode="&#x11f;" horiz-adv-x="600" d="M439 534 C433 515 433 511 429 498 L424 502 C375 535 341 547 295 547 C238 547 187 526 154 489 C114 444 90 369 90 289 C90 148 169 45 276 45 C324 45 379 62 413 88 L419 92 L419 62 C419 -35 373 -95 299 -95 C259 -95 216 -77 189 -51 C187 -49 187 -49 174 -34 L121 -80 C137 -95 137 -95 141 -99 C185 -139 241 -163 294 -163 C352 -163 409 -135 447 -88 C476 -51 490 -6 490 54 L490 391 C490 428 496 473 510 534 L439 534 Z M419 180 C383 136 339 113 289 113 C216 113 164 187 164 293 C164 408 214 479 294 479 C341 479 382 459 419 417 L419 180 Z M402 740 C395 685 368 665 300 665 C232 665 205 685 198 740 L131 740 C138 643 192 597 300 597 C408 597 462 643 469 740 L402 740 Z " />
<glyph glyph-name="Gcommaaccent" unicode="&#x122;" horiz-adv-x="600" d="M503 534 L502 548 C492 663 422 733 318 733 C254 733 201 709 162 662 C111 601 89 506 89 343 C89 223 101 152 129 97 C165 27 229 -13 307 -13 C365 -13 423 13 457 53 L462 59 L462 0 L533 0 L533 359 L291 359 L291 295 L462 295 C462 212 457 176 440 140 C415 86 369 55 313 55 C210 55 163 148 163 351 C163 439 171 508 185 553 C209 625 256 665 319 665 C361 665 396 645 412 610 C424 587 425 579 425 534 L503 534 Z M292 -38 L229 -198 L296 -226 L377 -66 L292 -38 Z " />
<glyph glyph-name="gcommaaccent" unicode="&#x123;" horiz-adv-x="600" d="M439 534 C433 515 433 511 429 498 L424 502 C375 535 341 547 295 547 C238 547 187 526 154 489 C114 444 90 369 90 289 C90 148 169 45 276 45 C324 45 379 62 413 88 L419 92 L419 62 C419 -35 373 -95 299 -95 C259 -95 216 -77 189 -51 C187 -49 187 -49 174 -34 L121 -80 C137 -95 137 -95 141 -99 C185 -139 241 -163 294 -163 C352 -163 409 -135 447 -88 C476 -51 490 -6 490 54 L490 391 C490 428 496 473 510 534 L439 534 Z M419 180 C383 136 339 113 289 113 C216 113 164 187 164 293 C164 408 214 479 294 479 C341 479 382 459 419 417 L419 180 Z M323 591 L386 751 L319 779 L238 619 L323 591 Z " />
<glyph glyph-name="Imacron" unicode="&#x12a;" horiz-adv-x="600" d="M262 656 L264 600 C265 556 266 524 266 510 L266 210 C266 196 265 164 264 120 L262 64 L165 64 L165 0 L435 0 L435 64 L340 64 L339 120 C338 164 337 197 337 210 L337 510 C337 523 338 556 339 600 L340 656 L435 656 L435 720 L165 720 L165 656 L262 656 Z M468 796 L468 864 L132 864 L132 796 L468 796 Z " />
<glyph glyph-name="imacron" unicode="&#x12b;" horiz-adv-x="600" d="M271 470 L272 414 L275 324 L275 210 L271 27 C270 19 270 13 270 9 C270 7 270 4 271 0 L351 0 C351 7 351 9 350 27 L346 210 L346 324 C349 445 350 511 351 521 L351 534 L124 534 L124 470 L271 470 Z M468 610 L468 678 L132 678 L132 610 L468 610 Z " />
<glyph glyph-name="Iogonek" unicode="&#x12e;" horiz-adv-x="600" d="M435 0 L435 64 L340 64 L339 120 C338 164 337 197 337 210 L337 510 C337 523 338 556 339 600 L340 656 L435 656 L435 720 L165 720 L165 656 L262 656 L264 600 C265 556 266 524 266 510 L266 210 C266 196 265 164 264 120 L262 64 L165 64 L165 0 L357 0 C328 -29 314 -60 314 -97 C314 -153 353 -187 420 -187 C448 -187 472 -181 511 -165 L511 -105 C480 -121 461 -127 437 -127 C405 -127 388 -112 388 -82 C388 -59 403 -33 435 0 L435 0 Z " />
<glyph glyph-name="iogonek" unicode="&#x12f;" horiz-adv-x="600" d="M352 0 C351 42 347 195 347 210 L347 324 C347 340 351 488 352 534 L124 534 L124 470 L272 470 L274 414 C275 370 276 337 276 324 L276 210 C276 196 273 58 272 0 C244 -29 231 -60 231 -97 C231 -153 270 -187 337 -187 C365 -187 389 -181 428 -165 L428 -105 C397 -121 378 -127 354 -127 C322 -127 305 -112 305 -82 C305 -59 319 -34 352 0 L352 0 Z M311 735 C275 735 246 707 246 672 C246 635 274 607 310 607 C346 607 374 636 374 671 C374 706 345 735 311 735 L311 735 Z " />
<glyph glyph-name="Idotaccent" unicode="&#x130;" horiz-adv-x="600" d="M262 656 L264 600 C265 556 266 524 266 510 L266 210 C266 196 265 164 264 120 L262 64 L165 64 L165 0 L435 0 L435 64 L340 64 L339 120 C338 164 337 197 337 210 L337 510 C337 523 338 556 339 600 L340 656 L435 656 L435 720 L165 720 L165 656 L262 656 Z M301 918 C262 918 231 888 231 849 C231 811 262 780 300 780 C338 780 369 811 369 849 C369 887 338 918 301 918 L301 918 Z " />
<glyph glyph-name="dotlessi" unicode="&#x131;" horiz-adv-x="600" d="M271 470 L272 414 L275 324 L275 210 L271 27 C270 19 270 13 270 9 C270 7 270 4 271 0 L351 0 C351 7 351 9 350 27 L346 210 L346 324 C349 445 350 511 351 521 L351 534 L124 534 L124 470 L271 470 Z " />
<glyph glyph-name="Kcommaaccent" unicode="&#x136;" horiz-adv-x="600" d="M205 338 L212 338 L486 0 L585 0 L279 363 C356 413 411 485 528 690 L455 728 C403 580 276 410 214 404 L205 403 L205 510 C205 524 209 683 210 720 L129 720 L129 702 C130 673 132 609 134 510 L134 210 C131 64 130 48 129 10 L129 0 L210 0 C209 35 205 197 205 210 L205 338 Z M321 -38 L258 -198 L326 -226 L406 -66 L321 -38 Z " />
<glyph glyph-name="kcommaaccent" unicode="&#x137;" horiz-adv-x="600" d="M140 0 L221 0 C219 87 216 195 216 210 L216 212 L254 246 L460 0 L558 0 L300 290 C390 379 416 408 516 534 L422 534 C389 481 305 385 216 299 L216 523 C216 531 217 566 218 613 C219 665 221 705 221 733 L140 733 L140 719 L141 705 L145 523 L145 210 C142 65 141 48 140 10 L140 0 Z M301 -38 L238 -198 L306 -226 L386 -66 L301 -38 Z " />
<glyph glyph-name="Lacute" unicode="&#x139;" horiz-adv-x="600" d="M155 0 L542 0 L542 64 L236 64 L234 119 C232 164 231 197 231 209 L231 510 L233 600 L235 693 C236 711 236 712 236 720 L155 720 C155 713 155 711 156 693 L160 510 L160 209 C157 88 156 23 155 13 L155 0 Z M321 956 L145 815 L183 767 L376 895 L321 956 Z " />
<glyph glyph-name="lacute" unicode="&#x13a;" horiz-adv-x="600" d="M263 669 L264 613 L267 523 L267 210 L263 27 C262 19 262 13 262 9 C262 7 262 4 263 0 L343 0 C343 24 342 52 340 120 C339 157 338 187 338 210 L338 523 C341 644 342 709 343 719 L343 733 L116 733 L116 669 L263 669 Z M401 956 L225 815 L263 767 L456 895 L401 956 Z " />
<glyph glyph-name="Lcommaaccent" unicode="&#x13b;" horiz-adv-x="600" d="M155 0 L542 0 L542 64 L236 64 L234 119 C232 164 231 197 231 209 L231 510 L233 600 L235 693 C236 711 236 712 236 720 L155 720 C155 713 155 711 156 693 L160 510 L160 209 C157 88 156 23 155 13 L155 0 Z M321 -38 L258 -198 L326 -226 L406 -66 L321 -38 Z " />
<glyph glyph-name="lcommaaccent" unicode="&#x13c;" horiz-adv-x="600" d="M263 669 L264 613 L267 523 L267 210 L263 27 C262 19 262 13 262 9 C262 7 262 4 263 0 L343 0 C343 24 342 52 340 120 C339 157 338 187 338 210 L338 523 C341 644 342 709 343 719 L343 733 L116 733 L116 669 L263 669 Z M295 -38 L232 -198 L300 -226 L380 -66 L295 -38 Z " />
<glyph glyph-name="Lcaron" unicode="&#x13d;" horiz-adv-x="600" d="M371 737 L308 576 L376 549 L456 709 L371 737 Z M155 0 L542 0 L542 64 L236 64 L234 119 C232 164 231 197 231 209 L231 510 L233 600 L235 693 C236 711 236 712 236 720 L155 720 C155 713 155 711 156 693 L160 510 L160 209 C157 88 156 23 155 13 L155 0 Z " />
<glyph glyph-name="lcaron" unicode="&#x13e;" horiz-adv-x="600" d="M263 669 L264 613 L267 523 L267 210 L263 27 C262 19 262 13 262 9 C262 7 262 4 263 0 L343 0 C343 7 343 9 342 27 L338 210 L338 523 C341 644 342 709 343 719 L343 733 L116 733 L116 669 L263 669 Z M441 749 L378 588 L446 561 L526 721 L441 749 Z " />
<glyph glyph-name="Lslash" unicode="&#x141;" horiz-adv-x="600" d="M149 406 L119 394 C102 387 84 380 65 373 L31 362 L31 281 C42 287 53 293 64 298 C100 317 101 318 149 340 L149 209 C149 195 145 45 144 0 L528 0 L528 64 L224 64 L223 119 C221 165 220 198 220 209 L220 367 L314 406 C351 420 365 426 401 437 L401 518 C309 470 302 466 271 454 L220 433 L220 510 C220 528 223 676 224 720 L144 720 C145 683 149 523 149 510 L149 406 Z " />
<glyph glyph-name="lslash" unicode="&#x142;" horiz-adv-x="600" d="M342 403 L479 465 L479 540 L342 477 L342 523 C342 538 343 570 344 613 L346 705 C347 719 347 720 347 733 L116 733 L116 669 L267 669 L268 613 C270 569 271 537 271 523 L271 446 L126 380 L126 306 L271 372 L271 210 C271 194 270 162 269 120 L267 27 L267 0 L347 0 C347 13 347 14 346 27 L344 120 C343 163 342 195 342 210 L342 403 Z " />
<glyph glyph-name="Nacute" unicode="&#x143;" horiz-adv-x="600" d="M423 179 L205 720 L120 720 L120 210 C117 89 116 23 115 13 L115 0 L197 0 C195 39 191 177 191 210 L191 577 L427 -7 L494 -7 L494 509 C494 542 495 572 496 600 C498 641 499 670 499 678 L499 700 L500 720 L418 720 L418 716 L419 700 L420 631 L423 509 L423 179 Z M401 956 L225 815 L263 767 L456 895 L401 956 Z " />
<glyph glyph-name="nacute" unicode="&#x144;" horiz-adv-x="600" d="M169 443 C165 493 164 498 155 534 L87 534 C106 445 110 397 110 251 L110 210 C110 185 107 58 105 0 L187 0 C185 37 181 199 181 210 L181 263 C181 308 190 346 208 379 C239 438 293 479 338 479 C359 479 382 465 393 444 C405 422 411 381 411 317 L411 210 C411 196 407 41 406 0 L487 0 C486 28 486 44 482 210 L482 340 C482 382 479 418 473 438 C456 504 402 547 339 547 C288 547 219 511 187 467 L169 443 Z M401 770 L225 629 L263 581 L456 709 L401 770 Z " />
<glyph glyph-name="Ncommaaccent" unicode="&#x145;" horiz-adv-x="600" d="M423 179 L205 720 L120 720 L120 210 C117 89 116 23 115 13 L115 0 L197 0 C195 39 191 177 191 210 L191 577 L427 -7 L494 -7 L494 509 C494 542 495 572 496 600 C498 641 499 670 499 678 L499 700 L500 720 L418 720 L418 716 L419 700 L420 631 L423 509 L423 179 Z M281 -38 L218 -198 L286 -226 L366 -66 L281 -38 Z " />
<glyph glyph-name="ncommaaccent" unicode="&#x146;" horiz-adv-x="600" d="M169 443 C165 493 164 498 155 534 L87 534 C106 445 110 397 110 251 L110 210 C110 185 107 58 105 0 L187 0 C185 37 181 199 181 210 L181 263 C181 308 190 346 208 379 C239 438 293 479 338 479 C359 479 382 465 393 444 C405 422 411 381 411 317 L411 210 C411 196 407 41 406 0 L487 0 C486 28 486 44 482 210 L482 340 C482 382 479 418 473 438 C456 504 402 547 339 547 C288 547 219 511 187 467 L169 443 Z M281 -38 L218 -198 L286 -226 L366 -66 L281 -38 Z " />
<glyph glyph-name="Ncaron" unicode="&#x147;" horiz-adv-x="600" d="M423 179 L205 720 L120 720 L120 210 C117 89 116 23 115 13 L115 0 L197 0 C195 39 191 177 191 210 L191 577 L427 -7 L494 -7 L494 509 C494 542 495 572 496 600 C498 641 499 670 499 678 L499 700 L500 720 L418 720 L418 716 L419 700 L420 631 L423 509 L423 179 Z M300 856 L160 958 L121 915 L300 763 L479 915 L440 958 L300 856 Z " />
<glyph glyph-name="ncaron" unicode="&#x148;" horiz-adv-x="600" d="M169 443 C165 493 164 498 155 534 L87 534 C106 445 110 397 110 251 L110 210 C110 185 107 58 105 0 L187 0 C185 37 181 199 181 210 L181 263 C181 308 190 346 208 379 C239 438 293 479 338 479 C359 479 382 465 393 444 C405 422 411 381 411 317 L411 210 C411 196 407 41 406 0 L487 0 C486 28 486 44 482 210 L482 340 C482 382 479 418 473 438 C456 504 402 547 339 547 C288 547 219 511 187 467 L169 443 Z M300 670 L160 772 L121 729 L300 577 L479 729 L440 772 L300 670 Z " />
<glyph glyph-name="Omacron" unicode="&#x14c;" horiz-adv-x="600" d="M303 733 C237 733 181 707 142 657 C97 601 79 515 79 361 C79 217 94 136 130 79 C168 20 230 -13 300 -13 C363 -13 418 13 457 62 C503 119 521 203 521 360 C521 502 506 583 470 641 C433 698 371 733 303 733 L303 733 Z M302 665 C341 665 378 644 403 607 C434 562 447 490 447 360 C447 240 436 171 411 125 C386 80 346 55 300 55 C258 55 223 74 198 112 C165 158 153 228 153 362 C153 479 164 548 189 595 C214 640 254 665 302 665 L302 665 Z M468 796 L468 864 L132 864 L132 796 L468 796 Z " />
<glyph glyph-name="omacron" unicode="&#x14d;" horiz-adv-x="600" d="M311 547 C241 547 181 516 144 461 C110 412 95 352 95 266 C95 182 110 122 143 73 C180 19 241 -13 308 -13 C374 -13 435 19 472 73 C505 122 520 182 520 267 C520 352 505 412 472 461 C435 514 374 547 311 547 L311 547 Z M310 479 C398 479 446 404 446 267 C446 128 398 55 307 55 C217 55 169 128 169 266 C169 408 216 479 310 479 L310 479 Z M468 610 L468 678 L132 678 L132 610 L468 610 Z " />
<glyph glyph-name="Ohungarumlaut" unicode="&#x150;" horiz-adv-x="600" d="M303 733 C237 733 181 707 142 657 C97 601 79 515 79 361 C79 217 94 136 130 79 C168 20 230 -13 300 -13 C363 -13 418 13 457 62 C503 119 521 203 521 360 C521 502 506 583 470 641 C433 698 371 733 303 733 L303 733 Z M302 665 C341 665 378 644 403 607 C434 562 447 490 447 360 C447 240 436 171 411 125 C386 80 346 55 300 55 C258 55 223 74 198 112 C165 158 153 228 153 362 C153 479 164 548 189 595 C214 640 254 665 302 665 L302 665 Z M166 801 L212 759 L370 909 L306 960 L166 801 Z M326 801 L372 759 L530 909 L466 960 L326 801 Z " />
<glyph glyph-name="ohungarumlaut" unicode="&#x151;" horiz-adv-x="600" d="M311 547 C241 547 181 516 144 461 C110 412 95 352 95 266 C95 182 110 122 143 73 C180 19 241 -13 308 -13 C374 -13 435 19 472 73 C505 122 520 182 520 267 C520 352 505 412 472 461 C435 514 374 547 311 547 L311 547 Z M310 479 C398 479 446 404 446 267 C446 128 398 55 307 55 C217 55 169 128 169 266 C169 408 216 479 310 479 L310 479 Z M166 615 L212 573 L370 723 L306 774 L166 615 Z M326 615 L372 573 L530 723 L466 774 L326 615 Z " />
<glyph glyph-name="OE" unicode="&#x152;" horiz-adv-x="600" d="M591 720 L327 720 C292 730 275 733 251 733 C187 733 133 707 94 657 C48 600 30 516 30 367 C30 221 45 133 78 78 C115 18 173 -13 248 -13 C276 -13 292 -10 327 0 L599 0 L599 64 L383 64 L383 339 L525 339 L525 403 L383 403 L383 656 L591 656 L591 720 Z M312 64 C286 57 272 55 252 55 C144 55 104 138 104 365 C104 478 115 550 140 595 C165 638 207 665 252 665 C267 665 281 662 312 654 L312 64 Z " />
<glyph glyph-name="oe" unicode="&#x153;" horiz-adv-x="600" d="M296 21 L301 17 C326 -4 351 -13 386 -13 C440 -13 473 -2 565 49 L537 110 C453 64 429 55 391 55 C351 55 333 77 333 125 L333 248 L555 248 L555 280 C555 451 496 547 389 547 C366 547 349 544 338 537 C320 526 307 519 305 519 L303 519 C267 540 248 547 223 547 C189 547 152 531 120 503 C65 454 40 379 40 266 C40 168 60 98 100 51 C132 13 180 -13 218 -13 C243 -13 275 0 292 17 L296 21 Z M262 79 C245 61 234 55 218 55 C202 55 182 65 165 83 C131 117 114 177 114 267 C114 399 157 479 227 479 C241 479 248 477 262 469 L262 79 Z M333 312 L333 412 C333 458 350 479 385 479 C408 479 430 468 447 448 C470 422 479 388 487 312 L333 312 Z " />
<glyph glyph-name="Racute" unicode="&#x154;" horiz-adv-x="600" d="M207 297 L263 297 C281 297 304 298 318 299 L491 0 L580 0 L388 314 C432 337 457 356 473 377 C500 411 516 463 516 515 C516 594 483 660 428 693 C395 712 360 720 302 720 L131 720 L131 706 C132 683 136 517 136 508 L136 209 C133 66 132 47 131 10 L131 0 L212 0 C211 37 207 196 207 209 L207 297 Z M207 361 L207 656 L267 656 C328 656 357 652 381 640 C420 622 442 578 442 519 C442 461 421 412 384 386 C363 370 329 361 292 361 L207 361 Z M401 956 L225 815 L262 767 L456 895 L401 956 Z " />
<glyph glyph-name="racute" unicode="&#x155;" horiz-adv-x="600" d="M237 0 C236 40 232 200 232 210 L232 233 C232 348 318 479 393 479 C432 479 444 453 445 368 L516 368 C514 421 513 429 506 454 C492 513 449 547 392 547 C360 547 333 538 305 518 C276 498 246 465 232 439 L225 425 C217 484 215 499 206 534 L136 534 L140 518 C155 446 161 371 161 251 L161 210 C161 194 157 48 156 0 L237 0 Z M401 770 L225 629 L262 581 L456 709 L401 770 Z " />
<glyph glyph-name="Rcommaaccent" unicode="&#x156;" horiz-adv-x="600" d="M207 297 L263 297 C281 297 304 298 318 299 L491 0 L580 0 L388 314 C432 337 457 356 473 377 C500 411 516 463 516 515 C516 594 483 660 428 693 C395 712 360 720 302 720 L131 720 L131 706 C132 683 136 517 136 508 L136 209 C133 66 132 47 131 10 L131 0 L212 0 C211 37 207 196 207 209 L207 297 Z M207 361 L207 656 L267 656 C328 656 357 652 381 640 C420 622 442 578 442 519 C442 461 421 412 384 386 C363 370 329 361 292 361 L207 361 Z M321 -38 L258 -198 L326 -226 L406 -66 L321 -38 Z " />
<glyph glyph-name="rcommaaccent" unicode="&#x157;" horiz-adv-x="600" d="M236 0 C235 40 231 200 231 210 L231 233 C231 348 317 479 392 479 C431 479 443 453 444 368 L515 368 C513 421 512 429 505 454 C491 513 448 547 391 547 C359 547 332 538 304 518 C275 498 245 465 231 439 L224 425 C216 484 214 499 205 534 L135 534 L139 518 C154 446 160 371 160 251 L160 210 C160 194 156 48 155 0 L236 0 Z M181 -38 L118 -198 L186 -226 L266 -66 L181 -38 Z " />
<glyph glyph-name="Rcaron" unicode="&#x158;" horiz-adv-x="600" d="M207 297 L263 297 C281 297 304 298 318 299 L491 0 L580 0 L388 314 C432 337 457 356 473 377 C500 411 516 463 516 515 C516 594 483 660 428 693 C395 712 360 720 302 720 L131 720 L131 706 C132 683 136 517 136 508 L136 209 C133 66 132 47 131 10 L131 0 L212 0 C211 37 207 196 207 209 L207 297 Z M207 361 L207 656 L267 656 C328 656 357 652 381 640 C420 622 442 578 442 519 C442 461 421 412 384 386 C363 370 329 361 292 361 L207 361 Z M300 856 L160 958 L121 915 L300 763 L479 915 L440 958 L300 856 Z " />
<glyph glyph-name="rcaron" unicode="&#x159;" horiz-adv-x="600" d="M237 0 C236 40 232 200 232 210 L232 233 C232 348 318 479 393 479 C432 479 444 453 445 368 L516 368 C514 421 513 429 506 454 C492 513 449 547 392 547 C360 547 333 538 305 518 C276 498 246 465 232 439 L225 425 C217 484 215 499 206 534 L136 534 L140 518 C155 446 161 371 161 251 L161 210 C161 194 157 48 156 0 L237 0 Z M300 670 L160 772 L121 729 L300 577 L479 729 L440 772 L300 670 Z " />
<glyph glyph-name="Sacute" unicode="&#x15a;" horiz-adv-x="600" d="M503 643 C478 666 478 666 467 674 C411 714 358 733 304 733 C192 733 114 661 114 557 C114 485 151 430 235 381 L321 330 C421 271 440 248 440 189 C440 110 383 55 300 55 C238 55 189 85 140 153 L84 108 C108 78 108 78 119 67 C171 14 233 -13 306 -13 C431 -13 514 68 514 191 C514 276 482 316 359 389 L280 436 C263 446 232 470 215 486 C198 503 188 528 188 558 C188 620 238 665 305 665 C354 665 386 649 459 590 L503 643 Z M401 956 L225 815 L263 767 L456 895 L401 956 Z " />
<glyph glyph-name="sacute" unicode="&#x15b;" horiz-adv-x="600" d="M465 484 C392 533 354 547 292 547 C200 547 127 484 127 403 C127 339 173 287 260 254 L315 234 C375 211 402 181 402 138 C402 88 366 55 311 55 C251 55 195 82 134 139 L93 80 C167 17 239 -13 313 -13 C404 -13 476 53 476 137 C476 212 432 261 330 299 L286 316 C232 336 201 367 201 400 C201 443 242 479 292 479 C335 479 368 466 432 424 L465 484 Z M401 770 L225 629 L263 581 L456 709 L401 770 Z " />
<glyph glyph-name="Scedilla" unicode="&#x15e;" horiz-adv-x="600" d="M327 -12 C444 -1 514 75 514 191 C514 276 482 316 359 389 L280 436 C263 446 232 470 215 486 C198 503 188 528 188 558 C188 620 238 665 305 665 C354 665 386 649 459 590 L503 643 C478 666 478 666 467 674 C411 714 358 733 304 733 C192 733 114 661 114 557 C114 485 151 430 235 381 L321 330 C421 271 440 248 440 189 C440 110 383 55 300 55 C238 55 189 85 140 153 L84 108 C138 37 192 1 264 -10 L229 -108 C254 -100 273 -97 289 -97 C310 -97 327 -108 327 -122 C327 -136 308 -149 288 -149 C270 -149 249 -142 212 -124 L190 -179 C240 -201 271 -209 302 -209 C357 -209 401 -172 401 -125 C401 -81 367 -51 314 -48 L327 -12 Z " />
<glyph glyph-name="scedilla" unicode="&#x15f;" horiz-adv-x="600" d="M326 -13 C417 -3 476 57 476 137 C476 212 432 261 330 299 L286 316 C232 336 201 367 201 400 C201 443 242 479 292 479 C335 479 368 466 432 424 L465 484 C392 533 354 547 292 547 C200 547 127 484 127 403 C127 339 173 287 260 254 L315 234 C375 211 402 181 402 138 C402 88 366 55 311 55 C251 55 195 82 134 139 L93 80 C146 33 203 4 265 -8 L229 -108 C254 -100 273 -97 289 -97 C310 -97 327 -108 327 -122 C327 -136 308 -149 288 -149 C270 -149 249 -142 212 -124 L190 -179 C240 -201 271 -209 302 -209 C357 -209 401 -172 401 -125 C401 -81 367 -51 314 -48 L326 -13 Z " />
<glyph glyph-name="Scaron" unicode="&#x160;" horiz-adv-x="600" d="M503 643 C478 666 478 666 467 674 C411 714 358 733 304 733 C192 733 114 661 114 557 C114 485 151 430 235 381 L321 330 C421 271 440 248 440 189 C440 110 383 55 300 55 C238 55 189 85 140 153 L84 108 C108 78 108 78 119 67 C171 14 233 -13 306 -13 C431 -13 514 68 514 191 C514 276 482 316 359 389 L280 436 C263 446 232 470 215 486 C198 503 188 528 188 558 C188 620 238 665 305 665 C354 665 386 649 459 590 L503 643 Z M300 856 L160 958 L121 915 L300 763 L479 915 L440 958 L300 856 Z " />
<glyph glyph-name="scaron" unicode="&#x161;" horiz-adv-x="600" d="M465 484 C392 533 354 547 292 547 C200 547 127 484 127 403 C127 339 173 287 260 254 L315 234 C375 211 402 181 402 138 C402 88 366 55 311 55 C251 55 195 82 134 139 L93 80 C167 17 239 -13 313 -13 C404 -13 476 53 476 137 C476 212 432 261 330 299 L286 316 C232 336 201 367 201 400 C201 443 242 479 292 479 C335 479 368 466 432 424 L465 484 Z M300 670 L160 772 L121 729 L300 577 L479 729 L440 772 L300 670 Z " />
<glyph glyph-name="Tcommaaccent" unicode="&#x162;" horiz-adv-x="600" d="M342 0 C341 35 337 197 337 210 L337 656 L541 656 L541 720 L60 720 L60 656 L266 656 L266 210 C266 196 262 40 261 0 L342 0 Z M281 -38 L218 -198 L286 -226 L366 -66 L281 -38 Z " />
<glyph glyph-name="tcommaaccent" unicode="&#x163;" horiz-adv-x="600" d="M199 534 L81 534 L81 470 L199 470 L199 179 C199 106 208 65 228 37 C253 5 290 -13 335 -13 C409 -13 470 26 510 100 C512 104 515 108 517 113 C520 118 522 123 525 127 L455 145 C451 135 448 130 437 114 C409 72 380 55 340 55 C288 55 270 86 270 179 L270 470 L461 470 L461 534 L270 534 C273 622 274 651 276 700 L194 700 C194 692 194 689 195 673 L199 534 Z M301 -38 L238 -198 L306 -226 L386 -66 L301 -38 Z " />
<glyph glyph-name="Tcaron" unicode="&#x164;" horiz-adv-x="600" d="M342 0 C341 35 337 197 337 210 L337 656 L541 656 L541 720 L60 720 L60 656 L266 656 L266 210 C266 196 262 40 261 0 L342 0 Z M300 856 L160 958 L121 915 L300 763 L479 915 L440 958 L300 856 Z " />
<glyph glyph-name="tcaron" unicode="&#x165;" horiz-adv-x="600" d="M199 534 L81 534 L81 470 L199 470 L199 179 C199 106 208 65 228 37 C253 5 290 -13 335 -13 C409 -13 470 26 510 100 C512 104 515 108 517 113 C520 118 522 123 525 127 L455 145 C451 135 448 130 437 114 C409 72 380 55 340 55 C288 55 270 86 270 179 L270 470 L461 470 L461 534 L270 534 C273 622 274 651 276 700 L194 700 C194 692 194 689 195 673 L199 534 Z M385 779 L322 618 L390 591 L470 751 L385 779 Z " />
<glyph glyph-name="Umacron" unicode="&#x16a;" horiz-adv-x="600" d="M100 720 C100 713 100 711 101 693 L105 511 L105 245 C105 186 110 147 121 117 C148 41 222 -13 300 -13 C364 -13 432 28 465 87 C486 125 494 168 494 245 L494 511 C497 631 498 697 499 707 L499 720 L417 720 C419 678 423 543 423 511 L423 245 C421 190 420 160 418 153 C404 96 355 55 300 55 C251 55 208 85 188 133 C179 155 179 155 176 245 L176 511 C176 543 180 676 182 720 L100 720 Z M468 796 L468 864 L132 864 L132 796 L468 796 Z " />
<glyph glyph-name="umacron" unicode="&#x16b;" horiz-adv-x="600" d="M430 91 C435 42 436 31 444 0 L513 0 L509 16 C494 91 490 148 490 283 L490 324 C490 348 493 480 495 534 L414 534 C415 493 419 339 419 324 L419 271 C419 227 410 187 393 155 C361 95 309 55 263 55 C241 55 219 69 208 90 C196 112 190 153 190 217 L190 324 C190 338 194 497 195 534 L114 534 L114 516 C115 486 117 422 119 324 L119 194 C119 152 122 116 128 96 C145 31 199 -13 261 -13 C313 -13 378 21 412 67 L430 91 Z M468 610 L468 678 L132 678 L132 610 L468 610 Z " />
<glyph glyph-name="Uring" unicode="&#x16e;" horiz-adv-x="600" d="M100 720 C100 713 100 711 101 693 L105 511 L105 245 C105 186 110 147 121 117 C148 41 222 -13 300 -13 C364 -13 432 28 465 87 C486 125 494 168 494 245 L494 511 C497 631 498 697 499 707 L499 720 L417 720 C419 678 423 543 423 511 L423 245 C421 190 420 160 418 153 C404 96 355 55 300 55 C251 55 208 85 188 133 C179 155 179 155 176 245 L176 511 C176 543 180 676 182 720 L100 720 Z M301 964 C248 964 206 924 206 872 C206 821 248 780 300 780 C352 780 394 821 394 872 C394 923 352 964 301 964 L301 964 Z M300 904 C317 904 331 889 331 872 C331 854 317 840 300 840 C283 840 269 854 269 872 C269 890 283 904 300 904 L300 904 Z " />
<glyph glyph-name="uring" unicode="&#x16f;" horiz-adv-x="600" d="M430 91 C435 42 436 31 444 0 L513 0 L509 16 C494 91 490 148 490 283 L490 324 C490 348 493 480 495 534 L414 534 C415 493 419 339 419 324 L419 271 C419 227 410 187 393 155 C361 95 309 55 263 55 C241 55 219 69 208 90 C196 112 190 153 190 217 L190 324 C190 338 194 497 195 534 L114 534 L114 516 C115 486 117 422 119 324 L119 194 C119 152 122 116 128 96 C145 31 199 -13 261 -13 C313 -13 378 21 412 67 L430 91 Z M301 772 C248 772 206 732 206 680 C206 629 248 588 300 588 C352 588 394 629 394 680 C394 731 352 772 301 772 L301 772 Z M300 712 C317 712 331 697 331 680 C331 662 317 648 300 648 C283 648 269 662 269 680 C269 698 283 712 300 712 L300 712 Z " />
<glyph glyph-name="Uhungarumlaut" unicode="&#x170;" horiz-adv-x="600" d="M100 720 C100 713 100 711 101 693 L105 511 L105 245 C105 186 110 147 121 117 C148 41 222 -13 300 -13 C364 -13 432 28 465 87 C486 125 494 168 494 245 L494 511 C497 631 498 697 499 707 L499 720 L417 720 C419 678 423 543 423 511 L423 245 C421 190 420 160 418 153 C404 96 355 55 300 55 C251 55 208 85 188 133 C179 155 179 155 176 245 L176 511 C176 543 180 676 182 720 L100 720 Z M166 801 L212 759 L370 909 L306 960 L166 801 Z M326 801 L372 759 L530 909 L466 960 L326 801 Z " />
<glyph glyph-name="uhungarumlaut" unicode="&#x171;" horiz-adv-x="600" d="M430 91 C435 42 436 31 444 0 L513 0 L509 16 C494 91 490 148 490 283 L490 324 C490 348 493 480 495 534 L414 534 C415 493 419 339 419 324 L419 271 C419 227 410 187 393 155 C361 95 309 55 263 55 C241 55 219 69 208 90 C196 112 190 153 190 217 L190 324 C190 338 194 497 195 534 L114 534 L114 516 C115 486 117 422 119 324 L119 194 C119 152 122 116 128 96 C145 31 199 -13 261 -13 C313 -13 378 21 412 67 L430 91 Z M166 615 L212 573 L370 723 L306 774 L166 615 Z M326 615 L372 573 L530 723 L466 774 L326 615 Z " />
<glyph glyph-name="Uogonek" unicode="&#x172;" horiz-adv-x="600" d="M417 720 C419 678 423 543 423 511 L423 245 C421 190 420 160 418 153 C404 96 355 55 300 55 C251 55 208 85 188 133 C179 155 179 155 176 245 L176 511 C176 543 180 676 182 720 L100 720 C100 713 100 711 101 693 L105 511 L105 245 C105 186 110 147 121 117 C148 41 222 -13 300 -13 C311 -13 318 -12 332 -10 C320 -33 317 -46 317 -66 C317 -123 356 -157 423 -157 C451 -157 475 -151 514 -135 L514 -75 C483 -91 464 -97 440 -97 C408 -97 391 -82 391 -51 C391 -20 407 15 438 49 C481 98 494 144 494 245 L494 511 C497 631 498 697 499 707 L499 720 L417 720 Z " />
<glyph glyph-name="uogonek" unicode="&#x173;" horiz-adv-x="600" d="M513 0 L509 16 C494 91 490 148 490 283 L490 324 C490 348 493 480 495 534 L414 534 C415 493 419 339 419 324 L419 271 C419 227 410 187 393 155 C361 95 309 55 263 55 C241 55 219 69 208 90 C196 112 190 153 190 217 L190 324 C190 338 194 497 195 534 L114 534 L114 516 C115 486 117 422 119 324 L119 194 C119 152 122 116 128 96 C145 31 199 -13 261 -13 C313 -13 378 21 412 67 L430 91 C434 44 436 33 442 7 C409 -23 392 -57 392 -97 C392 -153 431 -187 498 -187 C526 -187 550 -181 589 -165 L589 -105 C558 -121 539 -127 515 -127 C483 -127 466 -112 466 -82 C466 -59 480 -34 513 0 L513 0 Z " />
<glyph glyph-name="Ydieresis" unicode="&#x178;" horiz-adv-x="600" d="M60 720 C93 647 126 574 160 501 C189 437 218 372 246 305 L246 210 C246 196 242 41 241 0 L322 0 C321 37 317 197 317 210 L317 305 C398 492 407 510 503 720 L422 720 L347 539 C326 489 304 440 282 391 C229 507 217 534 192 596 C175 638 158 679 141 720 L60 720 Z M211 918 C172 918 141 888 141 849 C141 811 172 780 210 780 C248 780 279 811 279 849 C279 887 248 918 211 918 L211 918 Z M391 918 C352 918 321 888 321 849 C321 811 352 780 390 780 C428 780 459 811 459 849 C459 887 428 918 391 918 L391 918 Z " />
<glyph glyph-name="Zacute" unicode="&#x179;" horiz-adv-x="600" d="M114 720 L114 656 L404 656 C269 371 218 270 103 54 L103 0 L513 0 L513 64 L192 64 C328 347 379 450 489 666 L489 720 L114 720 Z M401 956 L225 815 L263 767 L456 895 L401 956 Z " />
<glyph glyph-name="zacute" unicode="&#x17a;" horiz-adv-x="600" d="M135 534 L135 470 L403 470 C330 371 227 233 92 55 L92 0 L508 0 L508 64 L187 64 C260 164 363 303 496 479 L496 534 L135 534 Z M421 770 L245 629 L283 581 L476 709 L421 770 Z " />
<glyph glyph-name="Zdotaccent" unicode="&#x17b;" horiz-adv-x="600" d="M114 720 L114 656 L404 656 C269 371 218 270 103 54 L103 0 L513 0 L513 64 L192 64 C328 347 379 450 489 666 L489 720 L114 720 Z M301 918 C262 918 231 888 231 849 C231 811 262 780 300 780 C338 780 369 811 369 849 C369 887 338 918 301 918 L301 918 Z " />
<glyph glyph-name="zdotaccent" unicode="&#x17c;" horiz-adv-x="600" d="M135 534 L135 470 L403 470 C330 371 227 233 92 55 L92 0 L508 0 L508 64 L187 64 C260 164 363 303 496 479 L496 534 L135 534 Z M321 732 C282 732 251 702 251 663 C251 625 282 594 320 594 C358 594 389 625 389 663 C389 701 358 732 321 732 L321 732 Z " />
<glyph glyph-name="Zcaron" unicode="&#x17d;" horiz-adv-x="600" d="M114 720 L114 656 L404 656 C269 371 218 270 103 54 L103 0 L513 0 L513 64 L192 64 C328 347 379 450 489 666 L489 720 L114 720 Z M300 856 L160 958 L121 915 L300 763 L479 915 L440 958 L300 856 Z " />
<glyph glyph-name="zcaron" unicode="&#x17e;" horiz-adv-x="600" d="M135 534 L135 470 L403 470 C330 371 227 233 92 55 L92 0 L508 0 L508 64 L187 64 C260 164 363 303 496 479 L496 534 L135 534 Z M320 670 L180 772 L141 729 L320 577 L499 729 L460 772 L320 670 Z " />
<glyph glyph-name="florin" unicode="&#x192;" horiz-adv-x="600" d="M358 501 L366 563 C373 619 380 643 393 656 C409 672 427 679 457 679 L509 679 L509 748 L463 748 C417 748 382 737 354 713 C320 686 306 651 296 573 L287 501 L167 501 L167 437 L279 437 L232 58 C225 2 216 -25 202 -38 C189 -49 164 -57 140 -57 L90 -57 L90 -126 L134 -126 C178 -126 216 -115 243 -93 C277 -65 291 -30 301 48 L350 437 L470 437 L470 501 L358 501 Z " />
<glyph glyph-name="Scommaaccent" unicode="&#x218;" horiz-adv-x="600" d="M503 643 C478 666 478 666 467 674 C411 714 358 733 304 733 C192 733 114 661 114 557 C114 485 151 430 235 381 L321 330 C421 271 440 248 440 189 C440 110 383 55 300 55 C238 55 189 85 140 153 L84 108 C108 78 108 78 119 67 C171 14 233 -13 306 -13 C431 -13 514 68 514 191 C514 276 482 316 359 389 L280 436 C263 446 232 470 215 486 C198 503 188 528 188 558 C188 620 238 665 305 665 C354 665 386 649 459 590 L503 643 Z M281 -38 L218 -198 L286 -226 L366 -66 L281 -38 Z " />
<glyph glyph-name="scommaaccent" unicode="&#x219;" horiz-adv-x="600" d="M465 484 C392 533 354 547 292 547 C200 547 127 484 127 403 C127 339 173 287 260 254 L315 234 C375 211 402 181 402 138 C402 88 366 55 311 55 C251 55 195 82 134 139 L93 80 C167 17 239 -13 313 -13 C404 -13 476 53 476 137 C476 212 432 261 330 299 L286 316 C232 336 201 367 201 400 C201 443 242 479 292 479 C335 479 368 466 432 424 L465 484 Z M281 -38 L218 -198 L286 -226 L366 -66 L281 -38 Z " />
<glyph glyph-name="circumflex" unicode="&#x2c6;" horiz-adv-x="600" d="M300 680 L440 577 L479 620 L300 772 L121 620 L160 577 L300 680 Z " />
<glyph glyph-name="caron" unicode="&#x2c7;" horiz-adv-x="600" d="M300 670 L160 772 L121 729 L300 577 L479 729 L440 772 L300 670 Z " />
<glyph glyph-name="breve" unicode="&#x2d8;" horiz-adv-x="600" d="M402 740 C395 685 368 665 300 665 C232 665 205 685 198 740 L131 740 C138 643 192 597 300 597 C408 597 462 643 469 740 L402 740 Z " />
<glyph glyph-name="dotaccent" unicode="&#x2d9;" horiz-adv-x="600" d="M301 732 C262 732 231 702 231 663 C231 625 262 594 300 594 C338 594 369 625 369 663 C369 701 338 732 301 732 L301 732 Z " />
<glyph glyph-name="ring" unicode="&#x2da;" horiz-adv-x="600" d="M301 772 C248 772 206 732 206 680 C206 629 248 588 300 588 C352 588 394 629 394 680 C394 731 352 772 301 772 L301 772 Z M300 712 C317 712 331 697 331 680 C331 662 317 648 300 648 C283 648 269 662 269 680 C269 698 283 712 300 712 L300 712 Z " />
<glyph glyph-name="ogonek" unicode="&#x2db;" horiz-adv-x="600" d="M379 16 C336 -19 318 -53 318 -97 C318 -153 357 -187 424 -187 C452 -187 476 -181 515 -165 L515 -105 C484 -121 465 -127 441 -127 C409 -127 392 -112 392 -82 C392 -55 413 -22 456 16 L379 16 Z " />
<glyph glyph-name="tilde" unicode="&#x2dc;" horiz-adv-x="600" d="M439 728 L434 717 C420 690 404 676 384 676 C370 676 348 683 332 692 L303 709 C262 732 253 735 227 735 C191 735 157 716 134 683 C123 669 120 663 101 624 L161 603 C183 650 200 667 223 667 C238 667 262 661 273 654 L313 629 C333 616 361 608 382 608 C415 608 447 625 471 655 C482 668 483 670 498 705 L439 728 Z " />
<glyph glyph-name="hungarumlaut" unicode="&#x2dd;" horiz-adv-x="600" d="M166 615 L212 573 L370 723 L306 774 L166 615 Z M326 615 L372 573 L530 723 L466 774 L326 615 Z " />
<glyph glyph-name="endash" unicode="&#x2013;" horiz-adv-x="600" d="M476 326 L476 390 L124 390 L124 326 L476 326 Z " />
<glyph glyph-name="emdash" unicode="&#x2014;" horiz-adv-x="600" d="M600 326 L600 390 L0 390 L0 326 L600 326 Z " />
<glyph glyph-name="quoteleft" unicode="&#x2018;" horiz-adv-x="600" d="M389 733 C292 708 229 647 229 576 C229 524 266 485 314 485 C357 485 391 519 391 562 C391 602 368 627 325 634 C339 647 357 656 389 665 L389 733 Z " />
<glyph glyph-name="quoteright" unicode="&#x2019;" horiz-adv-x="600" d="M232 485 C330 510 392 571 392 642 C392 694 355 733 307 733 C264 733 230 699 230 656 C230 617 253 592 296 585 C282 571 264 562 232 554 L232 485 Z " />
<glyph glyph-name="quotesinglbase" unicode="&#x201a;" horiz-adv-x="600" d="M232 -101 C330 -76 392 -15 392 56 C392 108 355 147 307 147 C264 147 230 113 230 70 C230 31 253 6 296 -1 C282 -15 264 -24 232 -32 L232 -101 Z " />
<glyph glyph-name="quotedblleft" unicode="&#x201c;" horiz-adv-x="600" d="M499 733 C402 708 339 647 339 576 C339 524 376 485 424 485 C467 485 501 519 501 562 C501 602 478 627 435 634 C449 647 467 656 499 665 L499 733 Z M280 733 C183 708 120 647 120 576 C120 524 157 485 205 485 C248 485 282 519 282 562 C282 602 259 627 216 634 C230 647 248 656 280 665 L280 733 Z " />
<glyph glyph-name="quotedblright" unicode="&#x201d;" horiz-adv-x="600" d="M122 485 C220 510 282 571 282 642 C282 694 245 733 197 733 C154 733 120 699 120 656 C120 617 143 592 186 585 C172 571 154 562 122 554 L122 485 Z M341 485 C439 510 501 571 501 642 C501 694 464 733 416 733 C373 733 339 699 339 656 C339 617 362 592 405 585 C391 571 373 562 341 554 L341 485 Z " />
<glyph glyph-name="quotedblbase" unicode="&#x201e;" horiz-adv-x="600" d="M122 -101 C220 -76 282 -15 282 56 C282 108 245 147 197 147 C154 147 120 113 120 70 C120 31 143 6 186 -1 C172 -15 154 -24 122 -32 L122 -101 Z M341 -101 C439 -76 501 -15 501 56 C501 108 464 147 416 147 C373 147 339 113 339 70 C339 31 362 6 405 -1 C391 -15 373 -24 341 -32 L341 -101 Z " />
<glyph glyph-name="dagger" unicode="&#x2020;" horiz-adv-x="600" d="M134 529 L134 450 L263 457 L257 388 L268 0 L332 0 L343 388 L337 457 L466 450 L466 529 L337 522 L343 720 L257 720 L263 522 L134 529 Z " />
<glyph glyph-name="daggerdbl" unicode="&#x2021;" horiz-adv-x="600" d="M341 720 L258 720 L265 539 L135 546 L135 467 L267 473 L267 247 L135 253 L135 174 L265 181 L258 0 L341 0 L334 181 L466 174 L466 253 L332 247 L332 473 L466 467 L466 546 L334 539 L341 720 Z " />
<glyph glyph-name="bullet" unicode="&#x2022;" horiz-adv-x="600" d="M301 399 C244 399 200 355 200 299 C200 243 245 199 300 199 C356 199 400 243 400 299 C400 354 355 399 301 399 L301 399 Z " />
<glyph glyph-name="ellipsis" unicode="&#x2026;" horiz-adv-x="600" d="M110 147 C65 147 29 112 29 66 C29 22 65 -14 110 -14 C154 -14 190 22 190 66 C190 111 154 147 110 147 L110 147 Z M301 147 C256 147 220 112 220 66 C220 22 256 -14 301 -14 C345 -14 381 22 381 66 C381 111 345 147 301 147 L301 147 Z M492 147 C447 147 411 112 411 66 C411 22 447 -14 492 -14 C536 -14 572 22 572 66 C572 111 536 147 492 147 L492 147 Z " />
<glyph glyph-name="perthousand" unicode="&#x2030;" horiz-adv-x="600" d="M119 748 C90 748 64 736 46 714 C26 689 18 650 18 584 C18 524 25 487 40 462 C57 435 86 419 118 419 C146 419 171 431 189 454 C209 480 217 516 217 584 C217 645 211 679 195 705 C178 732 149 748 119 748 L119 748 Z M118 698 C147 698 160 663 160 584 C160 503 147 469 117 469 C88 469 75 504 75 584 C75 664 88 698 118 698 L118 698 Z M332 733 L2 -13 L66 -13 L398 733 L332 733 Z M290 323 C261 323 235 311 217 289 C197 263 189 225 189 159 C189 98 195 63 212 37 C228 10 257 -6 289 -6 C317 -6 343 6 361 29 C381 55 389 91 389 158 C389 219 383 254 367 280 C350 307 321 323 290 323 L290 323 Z M289 273 C319 273 332 238 332 159 C332 79 319 44 289 44 C259 44 246 79 246 159 C246 238 259 273 289 273 L289 273 Z M499 323 C470 323 444 311 427 289 C406 264 398 226 398 158 C398 98 405 63 421 37 C437 10 466 -6 498 -6 C526 -6 552 6 569 29 C590 54 598 91 598 159 C598 220 592 254 576 280 C559 307 530 323 499 323 L499 323 Z M498 273 C528 273 541 237 541 159 C541 79 528 44 498 44 C468 44 455 79 455 159 C455 239 468 273 498 273 L498 273 Z " />
<glyph glyph-name="guilsinglleft" unicode="&#x2039;" horiz-adv-x="600" d="M393 620 L119 362 L393 102 L439 151 L215 362 L439 572 L393 620 Z " />
<glyph glyph-name="guilsinglright" unicode="&#x203a;" horiz-adv-x="600" d="M207 620 L161 572 L386 362 L161 151 L207 102 L482 362 L207 620 Z " />
<glyph glyph-name="fraction" unicode="&#x2044;" horiz-adv-x="600" d="M428 733 L107 -13 L170 -13 L493 733 L428 733 Z " />
<glyph glyph-name="Euro" unicode="&#x20ac;" horiz-adv-x="600" d="M88 317 L33 317 L11 257 L92 257 C110 77 185 -13 316 -13 C393 -13 459 22 487 78 C503 107 506 121 514 177 L442 177 L441 166 C434 95 389 55 318 55 C231 55 180 123 167 257 L374 257 L398 317 L162 317 L162 383 L411 383 L435 443 L166 443 C178 590 231 665 324 665 C368 665 403 645 422 611 C430 595 430 592 433 562 L506 562 C503 592 502 595 498 610 C475 686 407 733 323 733 C241 733 172 691 137 620 C111 569 100 522 92 443 L32 443 L10 383 L88 383 L88 317 Z " />
<glyph glyph-name="trademark" unicode="&#x2122;" horiz-adv-x="600" d="M187 279 L186 310 C183 385 183 385 183 411 L183 656 L273 656 L273 720 L5 720 L5 656 L118 656 L118 411 C118 394 118 377 117 360 L115 310 L114 279 L187 279 Z M362 279 C362 296 361 320 358 412 L358 557 L442 377 L525 557 L525 412 C524 341 523 301 522 292 L522 279 L594 279 C594 296 593 320 590 412 L590 720 L528 720 L442 528 L356 720 L293 720 L293 412 C292 341 291 302 290 292 L290 279 L362 279 Z " />
<glyph glyph-name="partialdiff" unicode="&#x2202;" horiz-adv-x="600" d="M72 664 C184 662 224 656 273 635 C338 608 409 535 445 459 C396 495 351 511 293 511 C144 511 40 404 40 251 C40 95 145 -13 296 -13 C457 -13 560 102 560 283 C560 404 514 524 434 613 C356 699 271 733 137 733 C119 733 102 733 67 731 L72 664 Z M294 443 C350 443 410 412 444 365 C465 336 479 289 479 249 C479 200 459 144 430 113 C398 79 350 60 297 60 C191 60 121 136 121 251 C121 366 190 443 294 443 L294 443 Z " />
<glyph glyph-name="Delta" unicode="&#x2206;" horiz-adv-x="600" d="M555 0 L300 776 L46 0 L555 0 Z M144 64 L300 569 L457 64 L144 64 Z " />
<glyph glyph-name="summation" unicode="&#x2211;" horiz-adv-x="600" d="M564 824 L43 824 L43 758 L277 381 L43 -36 L43 -104 L573 -104 L573 136 L506 136 L498 -40 L119 -40 L363 379 L127 760 L486 760 L498 584 L564 584 L564 824 Z " />
<glyph glyph-name="minus" unicode="&#x2212;" horiz-adv-x="600" d="M575 394 L25 394 L25 324 L575 324 L575 394 Z " />
<glyph glyph-name="radical" unicode="&#x221a;" horiz-adv-x="600" d="M2 437 L2 366 L93 366 L204 0 L457 847 L598 847 L598 917 L409 917 L208 211 L143 437 L2 437 Z " />
<glyph glyph-name="notequal" unicode="&#x2260;" horiz-adv-x="600" d="M287 259 L575 259 L575 329 L322 329 L352 388 L575 388 L575 458 L387 458 L454 591 L391 621 L309 458 L25 458 L25 388 L274 388 L244 329 L25 329 L25 259 L209 259 L146 135 L209 105 L287 259 Z " />
<glyph glyph-name="lessequal" unicode="&#x2264;" horiz-adv-x="600" d="M89 0 L505 0 L505 64 L89 64 L89 0 Z M80 422 L477 119 L519 170 L188 422 L519 674 L477 725 L80 422 Z " />
<glyph glyph-name="greaterequal" unicode="&#x2265;" horiz-adv-x="600" d="M509 0 L509 64 L93 64 L93 0 L509 0 Z M519 422 L122 725 L80 674 L411 422 L80 170 L122 119 L519 422 Z " />
<glyph glyph-name="lozenge" unicode="&#x25ca;" horiz-adv-x="600" d="M298 735 L30 361 L298 -14 L570 361 L298 735 Z M298 665 L514 361 L298 59 L85 361 L298 665 Z " />
<glyph glyph-name="commaaccent" unicode="&#xf6c3;" horiz-adv-x="600" d="M301 -38 L238 -198 L306 -226 L386 -66 L301 -38 Z " />
<glyph glyph-name="fi" unicode="&#xfb01;" horiz-adv-x="600" d="M482 0 L482 4 L481 20 L480 89 L477 209 L477 534 L203 534 L203 550 C203 592 207 613 220 631 C235 652 265 665 297 665 C329 665 364 655 415 630 C427 625 439 619 451 613 L469 605 L469 687 L461 690 C368 726 342 733 297 733 C245 733 192 708 163 670 C140 640 132 610 132 552 L132 534 L33 534 L33 470 L132 470 L132 209 C129 89 128 23 127 13 L127 0 L208 0 C208 7 208 9 207 27 L203 209 L203 470 L406 470 L406 209 L403 120 L401 21 L400 0 L482 0 Z " />
<glyph glyph-name="fl" unicode="&#xfb02;" horiz-adv-x="600" d="M205 0 C205 7 205 9 204 27 L200 208 L200 470 L343 470 L343 534 L200 534 L200 550 C200 592 204 613 217 631 C232 652 262 665 295 665 C326 665 368 653 416 630 C416 592 416 581 417 555 C418 538 418 525 418 521 L418 208 C415 88 414 23 413 13 L413 0 L495 0 C493 44 489 179 489 208 L489 521 C489 579 491 634 494 666 L495 676 C478 684 465 689 440 698 C359 727 336 733 299 733 C244 733 192 709 160 670 C137 640 129 612 129 552 L129 534 L30 534 L30 470 L129 470 L129 208 C126 88 125 23 124 13 L124 0 L205 0 Z " />
</font>
</svg>
