<?xml version="1.0" encoding="utf-8"?>
<!-- Generator: Adobe Illustrator 21.0.2, SVG Export Plug-In . SVG Version: 6.00 Build 0)  -->
<svg version="1.1" id="Layer_1" xmlns="http://www.w3.org/2000/svg" xmlns:xlink="http://www.w3.org/1999/xlink" x="0px" y="0px"
	 viewBox="0 0 46 47" style="enable-background:new 0 0 46 47;" xml:space="preserve">
<style type="text/css">
	.st0{fill:#003E9A;}
</style>
<g>
	<g>
		<path class="st0" d="M40.9,35.4H15.4c-2.8,0-5.1-2.3-5.1-5.2v-25c0-2.9,2.3-5.2,5.1-5.2h25.4C43.7,0,46,2.3,46,5.2v25
			C46,33.1,43.7,35.4,40.9,35.4z M14.4,3.4c-0.4,0-0.7,0.4-0.7,0.8v27c0,0.5,0.3,0.8,0.7,0.8h27.4c0.4,0,0.8-0.4,0.8-0.8v-27
			c0-0.5-0.3-0.8-0.8-0.8H14.4z"/>
	</g>
	<polygon class="st0" points="31.8,8.9 25.6,8.5 29.6,13.1 18.3,23.1 21.6,27 32.9,17 37.1,21.8 37.6,15.6 38,9.4 	"/>
</g>
<path class="st0" d="M32.3,33.3v9.5c0,0.5-0.3,0.8-0.8,0.8H4.1c-0.4,0-0.7-0.4-0.7-0.8v-27c0-0.5,0.3-0.8,0.7-0.8h6.2v-3.4H5.1
	c-2.8,0-5.1,2.3-5.1,5.2v25C0,44.7,2.3,47,5.1,47h25.4c2.8,0,5.1-2.3,5.1-5.2v-8.5H32.3z"/>
</svg>
