<?xml version="1.0" encoding="utf-8"?>
<svg version="1.1" id="Layer_1" xmlns="http://www.w3.org/2000/svg" xmlns:xlink="http://www.w3.org/1999/xlink" x="0px" y="0px"
     width="22px" height="22px" viewBox="0 0 22 22" enable-background="new 0 0 22 22" xml:space="preserve">
<path fill="#00BBE5" d="M21.447,0.64L22,1.43c-2.254,1.696-4.761,4.308-7.521,7.836c-2.759,3.529-4.864,6.825-6.319,9.889
    l-1.17,0.79c-0.969,0.675-1.627,1.175-1.974,1.501c-0.137-0.495-0.437-1.306-0.9-2.433l-0.442-1.027
    c-0.632-1.474-1.219-2.564-1.762-3.271c-0.542-0.706-1.15-1.174-1.824-1.406c1.137-1.201,2.18-1.802,3.128-1.802
    c0.812,0,1.711,1.1,2.702,3.303l0.491,1.105c1.78-3.002,4.065-5.919,6.855-8.752C16.055,4.331,18.782,2.157,21.447,0.64z"/>
</svg>
